M48
;Layer_Color=9474304
;FILE_FORMAT=2:5
INCH,LZ
;TYPE=PLATED
T1F00S00C0.01200
T2F00S00C0.02756
T3F00S00C0.03000
T4F00S00C0.03543
T5F00S00C0.03937
T7F00S00C0.04724
;TYPE=NON_PLATED
T9F00S00C0.11811
%
T01
X031Y0009
X0329Y00095
X03595
X03825
X04055
X04045Y00155
X04225Y00135
X04195Y00225
X0426Y00345
X0432Y00285
X04335Y00445
X04065Y0047
X0401Y0044
X03985Y00515
X03845Y00525
X0384Y00645
X03925
X0393Y0076
X0385
X03845Y00865
X03925Y0087
X035Y00765
X0335
X03215Y00755
X03205Y0061
X0319Y00485
X032Y00375
X03365Y00485
X0338Y00615
X0354Y0062
Y0044
X0363Y00485
X03675Y00365
X0307Y0044
X0288Y00485
X02895Y0056
Y0066
X0289Y00755
X0276Y0075
X0267Y00745
X0255Y00775
X0239Y00805
X023Y00725
X0219Y0072
X022Y00595
X0225Y0052
X023Y0043
X0244
X02445Y0052
X0254Y0059
X02675Y0057
X0275Y0056
X02755Y0066
X02705Y00485
X02725Y0037
X02585Y0044
X02535Y0043
X02355Y00595
X02085Y00645
X0198Y0073
X01895
Y0065
X01705
X0166Y0077
X01567Y007743
X0182Y0078
X01845Y00355
X0184Y00255
X0195
X01955Y0035
X01985Y00095
X01755Y0009
X02235Y00095
X0241Y0009
X0264
X0287
X0214Y0023
X0266Y0089
X0137Y0086
X012
X01075
X0101Y00845
X00955Y00905
X00855Y0075
Y0065
X0081Y0067
Y00615
X0078Y0057
X00855Y00575
X00745Y00705
X0022Y00655
X00085Y0066
X0015Y00785
X00185Y00885
X0009
X0015Y0053
X00155Y0046
X00135Y00385
Y0029
X00225Y003
X0023Y004
X00345
X0035Y00305
X0034Y00185
X00235
Y001
X0036
X00485
X0064
X0082
X01045Y00105
X01295
X01445Y001
X00425Y0022
X00405Y00455
Y0097
X004Y0101
X0044Y01015
Y01065
X004Y0106
Y0111
Y0115
Y0119
X00445
X00485
X0049Y0115
Y0111
Y01065
X00445Y0111
Y0115
X006Y01195
X0065Y01145
X00715Y0114
Y0122
X0066Y01265
X00785Y0116
X00873Y0112
X0114Y00925
X01305
X0135272Y01393
X01111Y01395
X01145Y01665
X0114Y01815
X0107Y01875
X01
Y01765
X0107Y0175
X01065Y01955
X01005Y0201
X0093Y02065
X00935Y0216
X0096Y02245
X00945Y0231
X00855
X00845Y0222
X0077839Y0227364
X00731Y02336
X00725Y02195
X0067Y0219
X00605Y02195
X0055Y0222
X00485
X00515Y02155
Y0207
X0054Y02
X00545Y01885
X006Y0185
X00605Y0169
Y0163
X00495Y0162
X005Y01695
X0057Y0153
X00775Y01665
X0083Y01745
X00755Y0182
X0073Y01925
X00729Y01967
X0083Y0196
X0093Y01945
X0091Y01855
X00915Y01665
X01075Y0208
X01055Y02305
Y02365
X0097Y0243
X00875Y02425
X00755Y02155
X0072Y02105
X00665Y021
X006Y02105
X0043Y02085
Y0216
X00375Y0212
X0033Y0207
X00365Y02025
X0033Y0197
X00375Y01905
X0033Y0217
X00375Y0222
X00425Y0226
X0033Y0227
X00375Y0232
X0033Y0237
X00355Y0244
X0045
X00425Y02385
X0047Y02325
X0018Y00995
X0009
X018Y0112
Y01245
Y01375
Y01485
Y0158
X01895Y01525
X019Y01415
X02035
Y0133
Y0122
X0203Y0107
X01885Y0104
X01895Y0116
X01945Y00935
X0217Y01005
X02185Y01165
Y01285
Y01425
X0219Y0151
X02285Y01515
X02295Y01425
X024Y0145
X02595
X02625Y01315
X027Y0118
X025Y01175
X0234Y0117
X02345Y01285
X0235Y0102
X02495Y01005
X02725Y0099
X02955Y00955
X0296Y01065
X02955Y0116
Y0126
X0296Y01365
X02955Y0146
Y0156
X0295Y0166
Y0176
X0296Y01855
X02955Y0196
X0296Y0206
Y02165
X02975Y02255
X0298Y0236
X02975Y02455
X0274Y024
X0259
X0268Y02255
X0276Y0215
X02465Y0204
X02255Y0203
X0225Y0191
X02055Y01915
Y0206
X0203Y0216
X01895Y02105
X0176Y02015
X0162Y02115
X0185Y0233
X0199Y02325
X0189Y0244
X02105Y02435
X0222Y0242
X02285Y0232
X0235Y0225
X0237Y0181
X02145Y01805
X02035Y0152
X0175Y0175
X0261
X02595Y0188
X02565Y0162
X033Y0163
X03295Y0149
X0328Y01385
X03435Y0139
X0345Y01495
X03455Y01635
X0362Y0163
X03615Y0149
X036Y01385
X03505Y0127
X0335
X03295Y01115
X0343
X03565Y0112
Y0094
X03435Y00945
X0325Y0095
X03845Y0096
X03915
X0392Y01165
X0385
X03855Y01265
X03945
X0393Y01355
X0385
Y01455
X03925
X0386Y0156
X03925Y0177
X0392Y01865
X0391Y0196
X03915Y02055
Y02165
Y02265
Y02355
Y0245
X03675Y0244
X0368Y0237
X03555Y02335
X0338Y0233
Y022
Y0206
X0353
X03535Y01905
X03655Y0191
X0363Y01765
X035Y0177
X03375Y01765
X0338Y01905
X03605Y022
X03375Y02475
X04275Y01855
Y0174
X0416Y01695
X04245Y0148
X04315Y026
X0429Y0291
Y03025
X0418Y02975
X04185Y0313
X04055Y03025
X0388
X03935Y0295
X0395Y0313
X03775
X036
X03425
X0325
X0311
X03155Y02905
X0332Y02895
X0326Y02725
X03435Y0278
X03485Y02695
X036Y02485
X03915Y0254
X03835Y02705
X0371Y028
X03615Y0292
X03695Y0302
X03505Y03025
X03135Y02595
X040791Y027347
X03045Y02715
X02975Y0257
X02865Y0263
Y0267
X02935Y02845
X0288Y02915
Y03005
X02945Y02975
Y0307
X02845Y03095
Y03145
X02725Y0314
Y03095
X0263Y03085
X02635Y0314
X0251Y03145
X02515Y0309
X0241Y03085
X02415Y03135
X0231Y0314
Y03095
X0222
Y03135
X02085
Y03095
X02005Y0309
X0201Y03135
X01845Y03145
X0184Y031
X0167Y03095
Y03145
X016Y0314
X01595Y03095
X0176Y02525
X02065Y0251
X02215Y0252
X02585Y0251
X0274Y0252
X01055Y02495
X0102Y03065
Y03115
Y03155
X00945
Y03115
Y03065
X00875
Y03115
Y03155
X00815
Y03115
Y03065
X0074
Y03115
Y03155
X0063Y0314
X00555
X00415Y0315
X0026Y03155
X00215Y0308
X0017Y0299
X00135Y02955
X001Y0299
Y0291
X00135Y0287
Y028
X0017Y02825
X00175Y02755
X001Y0283
X0017Y02915
X00455Y02885
X0045Y02815
Y02715
X00465Y0264
Y02575
Y02515
X004
X001Y0267
X0068Y03005
X00735Y02955
X011Y03115
Y0316
X01195Y03165
Y03125
Y03075
X01265
Y03125
Y03165
X0134Y0316
Y0312
Y0307
X01405Y031
X0141Y03145
X01465
Y03095
T02
X00486Y01775
X00586
X00686
T03
X02827Y0221
Y0231
Y0241
X04027
Y0231
Y0221
Y0251
X02827
T04
X04027Y0061
Y0071
Y0081
Y0091
X0428Y0091
Y0081
Y0071
Y0061
Y0051
Y0041
X02827Y0061
Y0071
Y0081
Y0091
X02004Y00408
Y00308
Y00208
X0179367
Y00308
Y00408
X0158333
Y00308
Y00208
X01373
Y00308
Y00408
X02827Y0101
Y0111
Y0121
Y0131
Y0141
Y0151
Y0161
Y0171
Y0181
Y0191
Y0201
Y0211
X04027
Y0201
Y0191
Y0181
Y0171
Y0161
Y0151
Y0141
Y0131
Y0121
Y0111
Y0101
X0428Y0101
Y0111
X0428001Y01317
Y01417
Y01517
Y01617
X04277Y01911
Y02011
Y02111
Y02211
X04278Y02437
Y02537
Y02637
Y02737
X04138Y02898
X04038
X03938
X03838
X02994Y02916
Y03016
Y03116
X0278357
Y03016
Y02916
X0257314
Y03016
Y03116
X0236272
Y03016
Y02916
X0215229
Y03016
Y03116
X0194186
Y03016
Y02916
X0173143
Y03016
Y03116
X0152101
Y03016
Y02916
T05
X03127Y0061
Y0071
Y0081
Y0091
X03727
Y0081
Y0071
Y0061
X01139Y0066557
Y0086242
X005998Y01256
X00462
X0107Y02015
X0126685
X0125285Y02432
X01056
X03127Y0241
Y0231
Y0221
Y0211
Y0201
Y0191
Y0181
Y0171
Y0161
Y0151
Y0141
Y0131
Y0121
Y0111
Y0101
X03727
Y0111
Y0121
Y0131
Y0141
Y0151
Y0161
Y0171
Y0181
Y0191
Y0201
Y0211
Y0221
Y0231
Y0241
Y0251
X03127
X0030444Y0275
X0010758
T07
X00125Y0106
Y0125685
T09
X043028Y0011165
X001075Y001125
X0191227Y0132776
X0191227Y0191241
X0249692Y0191241
Y0132776
X043028Y0312847
X0010647
M30
