G04*
G04 #@! TF.GenerationSoftware,Altium Limited,Altium Designer,20.0.13 (296)*
G04*
G04 Layer_Color=32768*
%FSLAX25Y25*%
%MOIN*%
G70*
G01*
G75*
G36*
X16884Y233294D02*
X16880D01*
X16866D01*
X16844D01*
X16815Y233297D01*
X16782Y233301D01*
X16746Y233308D01*
X16709Y233316D01*
X16669Y233330D01*
X16666D01*
X16662Y233334D01*
X16640Y233341D01*
X16607Y233356D01*
X16564Y233378D01*
X16513Y233407D01*
X16455Y233443D01*
X16396Y233483D01*
X16334Y233534D01*
X16331D01*
X16327Y233541D01*
X16305Y233560D01*
X16273Y233592D01*
X16225Y233640D01*
X16171Y233694D01*
X16105Y233763D01*
X16032Y233847D01*
X15956Y233938D01*
X15952Y233942D01*
X15941Y233956D01*
X15923Y233978D01*
X15901Y234004D01*
X15872Y234036D01*
X15839Y234076D01*
X15803Y234117D01*
X15763Y234164D01*
X15676Y234255D01*
X15588Y234346D01*
X15545Y234389D01*
X15501Y234430D01*
X15461Y234466D01*
X15421Y234495D01*
X15417D01*
X15414Y234502D01*
X15403Y234510D01*
X15388Y234517D01*
X15348Y234542D01*
X15301Y234572D01*
X15242Y234597D01*
X15181Y234623D01*
X15111Y234637D01*
X15046Y234644D01*
X15042D01*
X15039D01*
X15017Y234641D01*
X14980Y234637D01*
X14940Y234626D01*
X14889Y234612D01*
X14838Y234586D01*
X14787Y234553D01*
X14737Y234510D01*
X14729Y234502D01*
X14715Y234484D01*
X14696Y234459D01*
X14671Y234419D01*
X14649Y234368D01*
X14627Y234309D01*
X14613Y234240D01*
X14609Y234164D01*
Y234142D01*
X14613Y234127D01*
X14616Y234084D01*
X14627Y234033D01*
X14642Y233978D01*
X14667Y233916D01*
X14700Y233858D01*
X14744Y233804D01*
X14751Y233796D01*
X14769Y233782D01*
X14798Y233760D01*
X14842Y233738D01*
X14893Y233713D01*
X14958Y233691D01*
X15031Y233676D01*
X15115Y233669D01*
X15082Y233352D01*
X15079D01*
X15068Y233356D01*
X15049D01*
X15024Y233359D01*
X14995Y233367D01*
X14962Y233374D01*
X14922Y233385D01*
X14882Y233396D01*
X14795Y233425D01*
X14707Y233469D01*
X14664Y233494D01*
X14620Y233527D01*
X14580Y233560D01*
X14544Y233596D01*
X14540Y233600D01*
X14536Y233607D01*
X14525Y233618D01*
X14514Y233636D01*
X14500Y233658D01*
X14485Y233683D01*
X14467Y233713D01*
X14449Y233749D01*
X14431Y233789D01*
X14412Y233833D01*
X14398Y233880D01*
X14383Y233931D01*
X14372Y233985D01*
X14362Y234044D01*
X14358Y234106D01*
X14354Y234171D01*
Y234208D01*
X14358Y234233D01*
X14362Y234262D01*
X14365Y234298D01*
X14372Y234338D01*
X14380Y234379D01*
X14405Y234473D01*
X14442Y234568D01*
X14464Y234615D01*
X14489Y234663D01*
X14522Y234706D01*
X14558Y234746D01*
X14562Y234750D01*
X14565Y234757D01*
X14580Y234764D01*
X14594Y234779D01*
X14613Y234797D01*
X14638Y234815D01*
X14664Y234834D01*
X14696Y234855D01*
X14766Y234892D01*
X14853Y234928D01*
X14897Y234943D01*
X14948Y234950D01*
X14999Y234957D01*
X15053Y234961D01*
X15060D01*
X15079D01*
X15108Y234957D01*
X15148Y234954D01*
X15191Y234946D01*
X15242Y234932D01*
X15297Y234917D01*
X15352Y234895D01*
X15359Y234892D01*
X15377Y234885D01*
X15406Y234870D01*
X15446Y234848D01*
X15490Y234819D01*
X15545Y234783D01*
X15599Y234739D01*
X15661Y234688D01*
X15668Y234681D01*
X15690Y234663D01*
X15708Y234644D01*
X15727Y234626D01*
X15748Y234604D01*
X15777Y234575D01*
X15807Y234546D01*
X15839Y234510D01*
X15876Y234473D01*
X15916Y234430D01*
X15956Y234382D01*
X16003Y234331D01*
X16050Y234273D01*
X16102Y234215D01*
X16105Y234211D01*
X16112Y234204D01*
X16123Y234189D01*
X16138Y234171D01*
X16160Y234149D01*
X16182Y234124D01*
X16229Y234066D01*
X16284Y234004D01*
X16338Y233945D01*
X16385Y233894D01*
X16404Y233873D01*
X16422Y233854D01*
X16425Y233851D01*
X16436Y233840D01*
X16451Y233825D01*
X16473Y233807D01*
X16498Y233789D01*
X16524Y233767D01*
X16586Y233723D01*
Y234965D01*
X16884D01*
Y233294D01*
D02*
G37*
G36*
X16251Y232999D02*
X16302Y232992D01*
X16360Y232977D01*
X16422Y232959D01*
X16487Y232930D01*
X16556Y232890D01*
X16560D01*
X16564Y232886D01*
X16586Y232868D01*
X16618Y232842D01*
X16655Y232806D01*
X16698Y232759D01*
X16746Y232701D01*
X16789Y232635D01*
X16829Y232559D01*
Y232555D01*
X16833Y232548D01*
X16837Y232537D01*
X16844Y232522D01*
X16851Y232500D01*
X16862Y232475D01*
X16877Y232417D01*
X16895Y232347D01*
X16913Y232264D01*
X16924Y232173D01*
X16928Y232074D01*
Y232016D01*
X16924Y231987D01*
Y231954D01*
X16920Y231918D01*
X16917Y231874D01*
X16902Y231783D01*
X16888Y231689D01*
X16862Y231594D01*
X16829Y231503D01*
Y231499D01*
X16826Y231492D01*
X16819Y231481D01*
X16811Y231467D01*
X16789Y231423D01*
X16757Y231372D01*
X16713Y231314D01*
X16662Y231252D01*
X16600Y231194D01*
X16531Y231139D01*
X16527D01*
X16520Y231132D01*
X16509Y231128D01*
X16495Y231117D01*
X16476Y231110D01*
X16455Y231099D01*
X16400Y231073D01*
X16331Y231048D01*
X16254Y231026D01*
X16167Y231012D01*
X16076Y231004D01*
X16047Y231317D01*
X16050D01*
X16054D01*
X16065Y231321D01*
X16080D01*
X16112Y231328D01*
X16160Y231339D01*
X16207Y231354D01*
X16262Y231368D01*
X16313Y231394D01*
X16360Y231419D01*
X16364Y231423D01*
X16378Y231434D01*
X16404Y231452D01*
X16429Y231481D01*
X16462Y231518D01*
X16495Y231558D01*
X16527Y231612D01*
X16556Y231670D01*
Y231674D01*
X16560Y231678D01*
X16564Y231689D01*
X16567Y231699D01*
X16578Y231736D01*
X16593Y231783D01*
X16607Y231841D01*
X16618Y231907D01*
X16626Y231980D01*
X16629Y232060D01*
Y232093D01*
X16626Y232129D01*
X16622Y232173D01*
X16615Y232224D01*
X16607Y232282D01*
X16593Y232340D01*
X16575Y232395D01*
X16571Y232402D01*
X16564Y232420D01*
X16549Y232446D01*
X16535Y232478D01*
X16509Y232511D01*
X16484Y232548D01*
X16455Y232584D01*
X16418Y232613D01*
X16414Y232617D01*
X16400Y232624D01*
X16382Y232635D01*
X16353Y232650D01*
X16323Y232664D01*
X16287Y232675D01*
X16247Y232682D01*
X16203Y232686D01*
X16200D01*
X16182D01*
X16160Y232682D01*
X16131Y232679D01*
X16102Y232668D01*
X16065Y232657D01*
X16029Y232639D01*
X15996Y232613D01*
X15992Y232610D01*
X15981Y232599D01*
X15967Y232584D01*
X15945Y232559D01*
X15923Y232529D01*
X15898Y232489D01*
X15872Y232442D01*
X15850Y232387D01*
X15847Y232384D01*
X15843Y232366D01*
X15832Y232336D01*
X15829Y232318D01*
X15821Y232293D01*
X15810Y232267D01*
X15803Y232235D01*
X15792Y232198D01*
X15781Y232155D01*
X15770Y232111D01*
X15756Y232060D01*
X15741Y232002D01*
X15727Y231940D01*
Y231936D01*
X15723Y231925D01*
X15719Y231907D01*
X15712Y231885D01*
X15705Y231856D01*
X15697Y231823D01*
X15676Y231750D01*
X15650Y231670D01*
X15625Y231587D01*
X15599Y231514D01*
X15585Y231481D01*
X15570Y231452D01*
Y231448D01*
X15566Y231445D01*
X15552Y231423D01*
X15534Y231390D01*
X15505Y231354D01*
X15472Y231310D01*
X15432Y231266D01*
X15384Y231223D01*
X15333Y231186D01*
X15326Y231183D01*
X15308Y231172D01*
X15279Y231157D01*
X15242Y231143D01*
X15195Y231128D01*
X15141Y231114D01*
X15082Y231103D01*
X15020Y231099D01*
X15017D01*
X15013D01*
X15002D01*
X14988D01*
X14951Y231106D01*
X14904Y231114D01*
X14849Y231124D01*
X14787Y231143D01*
X14726Y231168D01*
X14664Y231205D01*
X14660D01*
X14656Y231208D01*
X14635Y231226D01*
X14605Y231252D01*
X14569Y231285D01*
X14529Y231328D01*
X14485Y231383D01*
X14445Y231448D01*
X14409Y231521D01*
Y231525D01*
X14405Y231532D01*
X14402Y231543D01*
X14394Y231558D01*
X14387Y231576D01*
X14380Y231601D01*
X14365Y231656D01*
X14351Y231725D01*
X14336Y231805D01*
X14325Y231889D01*
X14322Y231983D01*
Y232031D01*
X14325Y232056D01*
Y232082D01*
X14332Y232151D01*
X14343Y232227D01*
X14362Y232307D01*
X14383Y232395D01*
X14412Y232475D01*
Y232478D01*
X14416Y232486D01*
X14423Y232497D01*
X14431Y232511D01*
X14449Y232548D01*
X14482Y232595D01*
X14518Y232650D01*
X14565Y232704D01*
X14620Y232755D01*
X14682Y232803D01*
X14685D01*
X14689Y232806D01*
X14700Y232813D01*
X14711Y232821D01*
X14747Y232839D01*
X14795Y232861D01*
X14853Y232886D01*
X14922Y232904D01*
X14995Y232923D01*
X15075Y232930D01*
X15100Y232610D01*
X15097D01*
X15090D01*
X15079Y232606D01*
X15060Y232602D01*
X15020Y232591D01*
X14966Y232577D01*
X14908Y232555D01*
X14849Y232522D01*
X14795Y232482D01*
X14744Y232431D01*
X14740Y232424D01*
X14726Y232406D01*
X14704Y232369D01*
X14682Y232322D01*
X14660Y232260D01*
X14638Y232187D01*
X14624Y232096D01*
X14620Y231994D01*
Y231943D01*
X14624Y231922D01*
X14627Y231892D01*
X14635Y231827D01*
X14649Y231754D01*
X14667Y231681D01*
X14696Y231612D01*
X14715Y231583D01*
X14733Y231554D01*
X14737Y231547D01*
X14751Y231532D01*
X14776Y231510D01*
X14806Y231488D01*
X14846Y231463D01*
X14889Y231441D01*
X14940Y231427D01*
X14999Y231419D01*
X15006D01*
X15020D01*
X15046Y231423D01*
X15075Y231430D01*
X15111Y231441D01*
X15148Y231459D01*
X15184Y231481D01*
X15221Y231514D01*
X15224Y231518D01*
X15235Y231536D01*
X15246Y231550D01*
X15253Y231565D01*
X15264Y231587D01*
X15279Y231612D01*
X15290Y231645D01*
X15304Y231681D01*
X15319Y231721D01*
X15337Y231769D01*
X15352Y231820D01*
X15370Y231878D01*
X15384Y231943D01*
X15403Y232016D01*
Y232020D01*
X15406Y232034D01*
X15410Y232056D01*
X15417Y232082D01*
X15424Y232115D01*
X15435Y232155D01*
X15446Y232195D01*
X15457Y232238D01*
X15483Y232333D01*
X15508Y232424D01*
X15523Y232468D01*
X15537Y232508D01*
X15548Y232544D01*
X15563Y232573D01*
Y232577D01*
X15566Y232584D01*
X15574Y232595D01*
X15581Y232610D01*
X15603Y232650D01*
X15632Y232697D01*
X15672Y232751D01*
X15716Y232806D01*
X15767Y232857D01*
X15821Y232901D01*
X15829Y232904D01*
X15847Y232919D01*
X15879Y232933D01*
X15923Y232955D01*
X15974Y232974D01*
X16036Y232992D01*
X16105Y233003D01*
X16178Y233006D01*
X16182D01*
X16185D01*
X16196D01*
X16211D01*
X16251Y232999D01*
D02*
G37*
G36*
X429340Y214658D02*
X427371D01*
X427374Y214654D01*
X427389Y214636D01*
X427411Y214614D01*
X427436Y214578D01*
X427469Y214538D01*
X427505Y214487D01*
X427545Y214428D01*
X427585Y214363D01*
Y214359D01*
X427589Y214355D01*
X427603Y214334D01*
X427622Y214297D01*
X427644Y214254D01*
X427669Y214203D01*
X427695Y214148D01*
X427720Y214093D01*
X427742Y214039D01*
X427443D01*
Y214042D01*
X427436Y214050D01*
X427432Y214064D01*
X427422Y214083D01*
X427411Y214104D01*
X427396Y214130D01*
X427360Y214192D01*
X427320Y214264D01*
X427269Y214337D01*
X427210Y214414D01*
X427148Y214490D01*
X427145Y214494D01*
X427141Y214497D01*
X427130Y214508D01*
X427119Y214523D01*
X427083Y214556D01*
X427039Y214599D01*
X426988Y214643D01*
X426930Y214690D01*
X426872Y214730D01*
X426810Y214767D01*
Y214967D01*
X429340D01*
Y214658D01*
D02*
G37*
G36*
Y212699D02*
X427371D01*
X427374Y212696D01*
X427389Y212678D01*
X427411Y212656D01*
X427436Y212619D01*
X427469Y212579D01*
X427505Y212528D01*
X427545Y212470D01*
X427585Y212404D01*
Y212401D01*
X427589Y212397D01*
X427603Y212375D01*
X427622Y212339D01*
X427644Y212295D01*
X427669Y212244D01*
X427695Y212190D01*
X427720Y212135D01*
X427742Y212081D01*
X427443D01*
Y212084D01*
X427436Y212091D01*
X427432Y212106D01*
X427422Y212124D01*
X427411Y212146D01*
X427396Y212172D01*
X427360Y212233D01*
X427320Y212306D01*
X427269Y212379D01*
X427210Y212455D01*
X427148Y212532D01*
X427145Y212536D01*
X427141Y212539D01*
X427130Y212550D01*
X427119Y212565D01*
X427083Y212597D01*
X427039Y212641D01*
X426988Y212685D01*
X426930Y212732D01*
X426872Y212772D01*
X426810Y212808D01*
Y213009D01*
X429340D01*
Y212699D01*
D02*
G37*
G36*
X427607Y211542D02*
X427633Y211538D01*
X427665Y211535D01*
X427702Y211527D01*
X427742Y211520D01*
X427826Y211494D01*
X427869Y211480D01*
X427917Y211458D01*
X427964Y211433D01*
X428008Y211407D01*
X428051Y211374D01*
X428095Y211338D01*
X428099Y211334D01*
X428106Y211327D01*
X428117Y211316D01*
X428128Y211298D01*
X428146Y211276D01*
X428164Y211247D01*
X428186Y211211D01*
X428204Y211171D01*
X428226Y211123D01*
X428248Y211069D01*
X428266Y211010D01*
X428281Y210941D01*
X428295Y210868D01*
X428306Y210788D01*
X428313Y210697D01*
X428317Y210603D01*
Y209958D01*
X429340D01*
Y209624D01*
X426821D01*
Y210657D01*
X426825Y210712D01*
X426828Y210774D01*
X426832Y210839D01*
X426839Y210901D01*
X426846Y210956D01*
Y210963D01*
X426854Y210988D01*
X426861Y211021D01*
X426872Y211065D01*
X426890Y211112D01*
X426912Y211163D01*
X426937Y211218D01*
X426966Y211265D01*
X426970Y211272D01*
X426981Y211287D01*
X427003Y211309D01*
X427028Y211338D01*
X427061Y211371D01*
X427105Y211403D01*
X427152Y211440D01*
X427207Y211469D01*
X427214Y211473D01*
X427232Y211480D01*
X427265Y211494D01*
X427309Y211509D01*
X427360Y211520D01*
X427418Y211535D01*
X427483Y211542D01*
X427553Y211545D01*
X427556D01*
X427567D01*
X427582D01*
X427607Y211542D01*
D02*
G37*
G36*
X211567Y81178D02*
Y81174D01*
Y81160D01*
Y81141D01*
Y81116D01*
X211564Y81083D01*
Y81047D01*
X211560Y81003D01*
X211557Y80959D01*
X211546Y80861D01*
X211531Y80759D01*
X211509Y80661D01*
X211495Y80613D01*
X211480Y80570D01*
Y80566D01*
X211476Y80559D01*
X211469Y80548D01*
X211462Y80533D01*
X211440Y80493D01*
X211407Y80442D01*
X211364Y80384D01*
X211313Y80326D01*
X211247Y80264D01*
X211167Y80209D01*
X211163D01*
X211156Y80202D01*
X211145Y80199D01*
X211127Y80188D01*
X211105Y80177D01*
X211076Y80166D01*
X211047Y80155D01*
X211011Y80140D01*
X210971Y80126D01*
X210927Y80115D01*
X210880Y80104D01*
X210825Y80093D01*
X210770Y80086D01*
X210712Y80078D01*
X210581Y80071D01*
X210548D01*
X210523Y80075D01*
X210494D01*
X210457Y80078D01*
X210417Y80082D01*
X210377Y80086D01*
X210286Y80100D01*
X210188Y80122D01*
X210093Y80151D01*
X210002Y80191D01*
X209999D01*
X209991Y80199D01*
X209981Y80206D01*
X209966Y80213D01*
X209926Y80242D01*
X209879Y80282D01*
X209824Y80333D01*
X209773Y80391D01*
X209722Y80464D01*
X209682Y80544D01*
Y80548D01*
X209678Y80555D01*
X209675Y80570D01*
X209667Y80588D01*
X209660Y80610D01*
X209653Y80639D01*
X209642Y80672D01*
X209635Y80712D01*
X209627Y80755D01*
X209616Y80803D01*
X209609Y80854D01*
X209602Y80908D01*
X209595Y80970D01*
X209591Y81036D01*
X209587Y81105D01*
Y81178D01*
Y82634D01*
X209922D01*
Y81178D01*
Y81174D01*
Y81163D01*
Y81145D01*
Y81123D01*
X209926Y81098D01*
Y81065D01*
X209930Y80996D01*
X209937Y80916D01*
X209948Y80835D01*
X209962Y80759D01*
X209970Y80726D01*
X209981Y80694D01*
X209984Y80686D01*
X209991Y80668D01*
X210010Y80643D01*
X210032Y80606D01*
X210057Y80570D01*
X210093Y80530D01*
X210137Y80490D01*
X210188Y80457D01*
X210195Y80453D01*
X210213Y80442D01*
X210246Y80431D01*
X210290Y80417D01*
X210341Y80399D01*
X210406Y80388D01*
X210476Y80377D01*
X210552Y80373D01*
X210588D01*
X210610Y80377D01*
X210643D01*
X210676Y80380D01*
X210756Y80395D01*
X210843Y80413D01*
X210927Y80442D01*
X211007Y80482D01*
X211043Y80508D01*
X211076Y80537D01*
X211080Y80541D01*
X211083Y80544D01*
X211091Y80555D01*
X211102Y80570D01*
X211113Y80592D01*
X211127Y80613D01*
X211142Y80646D01*
X211156Y80679D01*
X211171Y80719D01*
X211182Y80766D01*
X211196Y80821D01*
X211207Y80879D01*
X211218Y80945D01*
X211225Y81014D01*
X211233Y81094D01*
Y81178D01*
Y82634D01*
X211567D01*
Y81178D01*
D02*
G37*
G36*
X213548Y82306D02*
X212539D01*
X212405Y81625D01*
X212408Y81629D01*
X212416Y81633D01*
X212427Y81640D01*
X212445Y81651D01*
X212467Y81662D01*
X212492Y81676D01*
X212550Y81705D01*
X212623Y81735D01*
X212703Y81760D01*
X212791Y81778D01*
X212834Y81786D01*
X212914D01*
X212936Y81782D01*
X212965Y81778D01*
X212998Y81775D01*
X213035Y81767D01*
X213074Y81756D01*
X213162Y81731D01*
X213209Y81713D01*
X213257Y81687D01*
X213304Y81662D01*
X213351Y81633D01*
X213395Y81596D01*
X213439Y81556D01*
X213442Y81553D01*
X213449Y81545D01*
X213460Y81534D01*
X213475Y81516D01*
X213493Y81491D01*
X213511Y81465D01*
X213533Y81432D01*
X213555Y81396D01*
X213573Y81356D01*
X213595Y81312D01*
X213613Y81261D01*
X213631Y81210D01*
X213646Y81156D01*
X213657Y81094D01*
X213664Y81032D01*
X213668Y80967D01*
Y80963D01*
Y80952D01*
Y80934D01*
X213664Y80908D01*
X213661Y80879D01*
X213657Y80846D01*
X213650Y80806D01*
X213642Y80766D01*
X213620Y80672D01*
X213584Y80573D01*
X213562Y80523D01*
X213533Y80475D01*
X213504Y80424D01*
X213468Y80377D01*
X213464Y80373D01*
X213457Y80362D01*
X213442Y80348D01*
X213424Y80330D01*
X213399Y80308D01*
X213369Y80279D01*
X213333Y80253D01*
X213293Y80224D01*
X213249Y80195D01*
X213198Y80169D01*
X213144Y80144D01*
X213085Y80118D01*
X213023Y80100D01*
X212954Y80086D01*
X212882Y80075D01*
X212805Y80071D01*
X212772D01*
X212747Y80075D01*
X212718Y80078D01*
X212685Y80082D01*
X212645Y80086D01*
X212605Y80097D01*
X212514Y80118D01*
X212423Y80151D01*
X212376Y80173D01*
X212328Y80199D01*
X212285Y80228D01*
X212241Y80260D01*
X212237Y80264D01*
X212230Y80268D01*
X212223Y80282D01*
X212208Y80297D01*
X212190Y80315D01*
X212172Y80337D01*
X212150Y80366D01*
X212132Y80399D01*
X212110Y80431D01*
X212088Y80471D01*
X212048Y80559D01*
X212015Y80661D01*
X212004Y80715D01*
X211997Y80774D01*
X212321Y80799D01*
Y80796D01*
Y80788D01*
X212325Y80777D01*
X212328Y80759D01*
X212339Y80719D01*
X212354Y80664D01*
X212376Y80610D01*
X212405Y80548D01*
X212441Y80493D01*
X212485Y80442D01*
X212492Y80439D01*
X212507Y80424D01*
X212536Y80406D01*
X212576Y80384D01*
X212619Y80362D01*
X212674Y80344D01*
X212736Y80330D01*
X212805Y80326D01*
X212827D01*
X212842Y80330D01*
X212885Y80333D01*
X212936Y80348D01*
X212998Y80366D01*
X213060Y80395D01*
X213125Y80439D01*
X213155Y80464D01*
X213184Y80493D01*
X213187Y80497D01*
X213191Y80501D01*
X213198Y80511D01*
X213209Y80523D01*
X213235Y80563D01*
X213264Y80613D01*
X213289Y80675D01*
X213315Y80752D01*
X213333Y80843D01*
X213340Y80890D01*
Y80941D01*
Y80945D01*
Y80952D01*
Y80967D01*
X213337Y80985D01*
Y81007D01*
X213333Y81032D01*
X213322Y81090D01*
X213304Y81160D01*
X213278Y81229D01*
X213242Y81294D01*
X213191Y81356D01*
Y81360D01*
X213184Y81363D01*
X213165Y81381D01*
X213133Y81407D01*
X213089Y81436D01*
X213031Y81462D01*
X212965Y81487D01*
X212889Y81505D01*
X212845Y81512D01*
X212776D01*
X212747Y81509D01*
X212710Y81505D01*
X212667Y81494D01*
X212623Y81483D01*
X212576Y81465D01*
X212528Y81443D01*
X212525Y81440D01*
X212510Y81432D01*
X212489Y81414D01*
X212459Y81396D01*
X212430Y81371D01*
X212401Y81338D01*
X212368Y81305D01*
X212343Y81265D01*
X212052Y81305D01*
X212296Y82601D01*
X213548D01*
Y82306D01*
D02*
G37*
G36*
X211396Y160778D02*
Y160774D01*
Y160759D01*
Y160741D01*
Y160716D01*
X211392Y160683D01*
Y160647D01*
X211389Y160603D01*
X211385Y160559D01*
X211374Y160461D01*
X211360Y160359D01*
X211338Y160261D01*
X211323Y160213D01*
X211309Y160170D01*
Y160166D01*
X211305Y160159D01*
X211298Y160148D01*
X211290Y160133D01*
X211268Y160093D01*
X211236Y160042D01*
X211192Y159984D01*
X211141Y159926D01*
X211076Y159864D01*
X210996Y159809D01*
X210992D01*
X210985Y159802D01*
X210974Y159799D01*
X210955Y159788D01*
X210934Y159777D01*
X210905Y159766D01*
X210875Y159755D01*
X210839Y159740D01*
X210799Y159726D01*
X210755Y159715D01*
X210708Y159704D01*
X210653Y159693D01*
X210599Y159686D01*
X210541Y159678D01*
X210409Y159671D01*
X210377D01*
X210351Y159675D01*
X210322D01*
X210286Y159678D01*
X210246Y159682D01*
X210206Y159686D01*
X210115Y159700D01*
X210016Y159722D01*
X209922Y159751D01*
X209831Y159791D01*
X209827D01*
X209820Y159799D01*
X209809Y159806D01*
X209794Y159813D01*
X209754Y159842D01*
X209707Y159882D01*
X209652Y159933D01*
X209601Y159991D01*
X209550Y160064D01*
X209510Y160144D01*
Y160148D01*
X209507Y160155D01*
X209503Y160170D01*
X209496Y160188D01*
X209489Y160210D01*
X209481Y160239D01*
X209470Y160272D01*
X209463Y160312D01*
X209456Y160355D01*
X209445Y160403D01*
X209438Y160454D01*
X209430Y160508D01*
X209423Y160570D01*
X209419Y160636D01*
X209416Y160705D01*
Y160778D01*
Y162234D01*
X209751D01*
Y160778D01*
Y160774D01*
Y160763D01*
Y160745D01*
Y160723D01*
X209754Y160698D01*
Y160665D01*
X209758Y160596D01*
X209765Y160516D01*
X209776Y160435D01*
X209791Y160359D01*
X209798Y160326D01*
X209809Y160293D01*
X209812Y160286D01*
X209820Y160268D01*
X209838Y160243D01*
X209860Y160206D01*
X209885Y160170D01*
X209922Y160130D01*
X209965Y160090D01*
X210016Y160057D01*
X210024Y160053D01*
X210042Y160042D01*
X210075Y160031D01*
X210118Y160017D01*
X210169Y159999D01*
X210235Y159988D01*
X210304Y159977D01*
X210380Y159973D01*
X210417D01*
X210439Y159977D01*
X210471D01*
X210504Y159980D01*
X210584Y159995D01*
X210671Y160013D01*
X210755Y160042D01*
X210835Y160082D01*
X210872Y160108D01*
X210905Y160137D01*
X210908Y160141D01*
X210912Y160144D01*
X210919Y160155D01*
X210930Y160170D01*
X210941Y160192D01*
X210955Y160213D01*
X210970Y160246D01*
X210985Y160279D01*
X210999Y160319D01*
X211010Y160366D01*
X211025Y160421D01*
X211035Y160479D01*
X211046Y160545D01*
X211054Y160614D01*
X211061Y160694D01*
Y160778D01*
Y162234D01*
X211396D01*
Y160778D01*
D02*
G37*
G36*
X213125Y160603D02*
X213467D01*
Y160319D01*
X213125D01*
Y159715D01*
X212815D01*
Y160319D01*
X211720D01*
Y160603D01*
X212874Y162234D01*
X213125D01*
Y160603D01*
D02*
G37*
G36*
X16430Y110835D02*
X16427Y110780D01*
X16423Y110718D01*
X16419Y110653D01*
X16412Y110591D01*
X16405Y110536D01*
Y110529D01*
X16398Y110504D01*
X16390Y110471D01*
X16379Y110427D01*
X16361Y110380D01*
X16339Y110329D01*
X16314Y110274D01*
X16285Y110227D01*
X16281Y110220D01*
X16270Y110205D01*
X16248Y110183D01*
X16223Y110154D01*
X16190Y110121D01*
X16146Y110089D01*
X16099Y110052D01*
X16044Y110023D01*
X16037Y110020D01*
X16019Y110012D01*
X15986Y109998D01*
X15942Y109983D01*
X15891Y109972D01*
X15833Y109958D01*
X15768Y109950D01*
X15699Y109947D01*
X15695D01*
X15684D01*
X15669D01*
X15644Y109950D01*
X15619Y109954D01*
X15586Y109958D01*
X15549Y109965D01*
X15509Y109972D01*
X15426Y109998D01*
X15382Y110012D01*
X15335Y110034D01*
X15287Y110059D01*
X15244Y110085D01*
X15200Y110118D01*
X15156Y110154D01*
X15153Y110158D01*
X15145Y110165D01*
X15134Y110176D01*
X15123Y110194D01*
X15105Y110216D01*
X15087Y110245D01*
X15065Y110282D01*
X15047Y110322D01*
X15025Y110369D01*
X15003Y110424D01*
X14985Y110482D01*
X14971Y110551D01*
X14956Y110624D01*
X14945Y110704D01*
X14938Y110795D01*
X14934Y110889D01*
Y111534D01*
X13911D01*
Y111869D01*
X16430D01*
Y110835D01*
D02*
G37*
G36*
X14617Y109335D02*
X14614D01*
X14607Y109332D01*
X14592Y109328D01*
X14574Y109324D01*
X14552Y109321D01*
X14526Y109313D01*
X14472Y109295D01*
X14406Y109270D01*
X14345Y109237D01*
X14286Y109201D01*
X14235Y109157D01*
X14232Y109150D01*
X14217Y109135D01*
X14199Y109106D01*
X14181Y109069D01*
X14159Y109026D01*
X14141Y108971D01*
X14126Y108909D01*
X14122Y108844D01*
Y108822D01*
X14126Y108807D01*
X14130Y108767D01*
X14141Y108716D01*
X14159Y108658D01*
X14184Y108596D01*
X14221Y108534D01*
X14272Y108476D01*
X14279Y108469D01*
X14301Y108451D01*
X14334Y108429D01*
X14377Y108400D01*
X14432Y108371D01*
X14494Y108349D01*
X14567Y108331D01*
X14647Y108323D01*
X14650D01*
X14658D01*
X14669D01*
X14683Y108327D01*
X14723Y108331D01*
X14770Y108341D01*
X14829Y108356D01*
X14887Y108381D01*
X14945Y108418D01*
X15000Y108465D01*
X15007Y108473D01*
X15021Y108491D01*
X15043Y108520D01*
X15069Y108560D01*
X15094Y108611D01*
X15116Y108673D01*
X15131Y108742D01*
X15138Y108818D01*
Y108851D01*
X15134Y108877D01*
X15131Y108909D01*
X15123Y108946D01*
X15116Y108989D01*
X15105Y109037D01*
X15378Y109000D01*
Y108982D01*
X15375Y108967D01*
Y108920D01*
X15382Y108880D01*
X15389Y108833D01*
X15400Y108778D01*
X15418Y108716D01*
X15444Y108658D01*
X15476Y108596D01*
Y108593D01*
X15480Y108589D01*
X15495Y108571D01*
X15520Y108545D01*
X15553Y108516D01*
X15600Y108487D01*
X15655Y108462D01*
X15717Y108443D01*
X15753Y108436D01*
X15793D01*
X15797D01*
X15800D01*
X15822D01*
X15851Y108443D01*
X15891Y108451D01*
X15935Y108465D01*
X15982Y108483D01*
X16030Y108512D01*
X16073Y108553D01*
X16077Y108556D01*
X16092Y108574D01*
X16110Y108600D01*
X16132Y108633D01*
X16150Y108676D01*
X16168Y108727D01*
X16183Y108785D01*
X16186Y108851D01*
Y108880D01*
X16179Y108913D01*
X16172Y108957D01*
X16157Y109004D01*
X16139Y109051D01*
X16110Y109102D01*
X16073Y109150D01*
X16070Y109153D01*
X16052Y109168D01*
X16026Y109190D01*
X15990Y109215D01*
X15942Y109240D01*
X15884Y109266D01*
X15815Y109288D01*
X15735Y109302D01*
X15790Y109612D01*
X15793D01*
X15804Y109608D01*
X15819Y109605D01*
X15841Y109601D01*
X15866Y109594D01*
X15895Y109583D01*
X15964Y109561D01*
X16044Y109524D01*
X16124Y109481D01*
X16201Y109426D01*
X16270Y109357D01*
X16274Y109353D01*
X16277Y109346D01*
X16285Y109335D01*
X16296Y109321D01*
X16310Y109302D01*
X16325Y109277D01*
X16339Y109251D01*
X16357Y109219D01*
X16387Y109146D01*
X16416Y109062D01*
X16434Y108964D01*
X16441Y108913D01*
Y108822D01*
X16438Y108782D01*
X16430Y108735D01*
X16419Y108676D01*
X16401Y108611D01*
X16379Y108545D01*
X16350Y108480D01*
Y108476D01*
X16346Y108473D01*
X16336Y108451D01*
X16314Y108418D01*
X16288Y108381D01*
X16252Y108338D01*
X16212Y108294D01*
X16164Y108250D01*
X16110Y108214D01*
X16103Y108210D01*
X16084Y108200D01*
X16052Y108185D01*
X16012Y108167D01*
X15964Y108149D01*
X15910Y108134D01*
X15848Y108123D01*
X15786Y108119D01*
X15779D01*
X15757D01*
X15728Y108123D01*
X15688Y108130D01*
X15640Y108141D01*
X15589Y108159D01*
X15538Y108181D01*
X15487Y108210D01*
X15480Y108214D01*
X15466Y108225D01*
X15440Y108247D01*
X15411Y108276D01*
X15378Y108312D01*
X15342Y108356D01*
X15309Y108407D01*
X15276Y108469D01*
Y108465D01*
X15273Y108458D01*
X15269Y108447D01*
X15265Y108432D01*
X15251Y108392D01*
X15229Y108341D01*
X15200Y108283D01*
X15164Y108225D01*
X15116Y108170D01*
X15062Y108119D01*
X15054Y108116D01*
X15033Y108101D01*
X14996Y108079D01*
X14949Y108057D01*
X14890Y108036D01*
X14821Y108014D01*
X14741Y107999D01*
X14654Y107996D01*
X14650D01*
X14639D01*
X14621D01*
X14599Y107999D01*
X14570Y108003D01*
X14537Y108010D01*
X14501Y108018D01*
X14461Y108025D01*
X14374Y108054D01*
X14326Y108076D01*
X14283Y108098D01*
X14235Y108127D01*
X14188Y108159D01*
X14141Y108196D01*
X14097Y108239D01*
X14093Y108243D01*
X14086Y108250D01*
X14075Y108265D01*
X14061Y108283D01*
X14042Y108305D01*
X14024Y108334D01*
X14002Y108367D01*
X13984Y108407D01*
X13962Y108447D01*
X13940Y108494D01*
X13922Y108542D01*
X13904Y108596D01*
X13890Y108654D01*
X13879Y108716D01*
X13871Y108778D01*
X13868Y108847D01*
Y108880D01*
X13871Y108902D01*
X13875Y108931D01*
X13879Y108964D01*
X13886Y109000D01*
X13893Y109040D01*
X13915Y109128D01*
X13951Y109219D01*
X13973Y109266D01*
X13999Y109310D01*
X14031Y109353D01*
X14064Y109397D01*
X14068Y109401D01*
X14075Y109408D01*
X14086Y109419D01*
X14101Y109430D01*
X14119Y109448D01*
X14144Y109466D01*
X14170Y109488D01*
X14202Y109510D01*
X14239Y109532D01*
X14275Y109554D01*
X14363Y109594D01*
X14465Y109626D01*
X14519Y109637D01*
X14577Y109645D01*
X14617Y109335D01*
D02*
G37*
G36*
X180391Y39325D02*
X180996D01*
Y39015D01*
X180391D01*
Y37920D01*
X180107D01*
X178477Y39074D01*
Y39325D01*
X180107D01*
Y39667D01*
X180391D01*
Y39325D01*
D02*
G37*
G36*
X179263Y37723D02*
X179288Y37720D01*
X179321Y37716D01*
X179358Y37709D01*
X179398Y37701D01*
X179481Y37676D01*
X179525Y37661D01*
X179572Y37640D01*
X179620Y37614D01*
X179663Y37589D01*
X179707Y37556D01*
X179751Y37519D01*
X179754Y37516D01*
X179762Y37508D01*
X179772Y37498D01*
X179783Y37479D01*
X179802Y37458D01*
X179820Y37428D01*
X179842Y37392D01*
X179860Y37352D01*
X179882Y37305D01*
X179904Y37250D01*
X179922Y37192D01*
X179936Y37123D01*
X179951Y37050D01*
X179962Y36970D01*
X179969Y36879D01*
X179973Y36784D01*
Y36140D01*
X180996D01*
Y35805D01*
X178477D01*
Y36839D01*
X178480Y36893D01*
X178484Y36955D01*
X178488Y37021D01*
X178495Y37083D01*
X178502Y37137D01*
Y37145D01*
X178509Y37170D01*
X178517Y37203D01*
X178528Y37246D01*
X178546Y37294D01*
X178568Y37345D01*
X178593Y37399D01*
X178622Y37447D01*
X178626Y37454D01*
X178637Y37468D01*
X178659Y37490D01*
X178684Y37519D01*
X178717Y37552D01*
X178761Y37585D01*
X178808Y37621D01*
X178863Y37650D01*
X178870Y37654D01*
X178888Y37661D01*
X178921Y37676D01*
X178964Y37690D01*
X179015Y37701D01*
X179074Y37716D01*
X179139Y37723D01*
X179208Y37727D01*
X179212D01*
X179223D01*
X179237D01*
X179263Y37723D01*
D02*
G37*
G36*
X138092Y39663D02*
X138121Y39660D01*
X138154Y39656D01*
X138194Y39649D01*
X138234Y39642D01*
X138328Y39620D01*
X138427Y39583D01*
X138478Y39562D01*
X138525Y39532D01*
X138576Y39503D01*
X138623Y39467D01*
X138627Y39463D01*
X138638Y39456D01*
X138652Y39441D01*
X138671Y39423D01*
X138692Y39398D01*
X138721Y39369D01*
X138747Y39332D01*
X138776Y39292D01*
X138805Y39248D01*
X138831Y39197D01*
X138856Y39143D01*
X138882Y39085D01*
X138900Y39023D01*
X138914Y38954D01*
X138925Y38881D01*
X138929Y38804D01*
Y38772D01*
X138925Y38746D01*
X138922Y38717D01*
X138918Y38684D01*
X138914Y38644D01*
X138903Y38604D01*
X138882Y38513D01*
X138849Y38422D01*
X138827Y38375D01*
X138802Y38328D01*
X138772Y38284D01*
X138740Y38240D01*
X138736Y38236D01*
X138732Y38229D01*
X138718Y38222D01*
X138703Y38207D01*
X138685Y38189D01*
X138663Y38171D01*
X138634Y38149D01*
X138601Y38131D01*
X138568Y38109D01*
X138529Y38087D01*
X138441Y38047D01*
X138339Y38015D01*
X138285Y38004D01*
X138226Y37996D01*
X138201Y38320D01*
X138205D01*
X138212D01*
X138223Y38324D01*
X138241Y38328D01*
X138281Y38338D01*
X138336Y38353D01*
X138390Y38375D01*
X138452Y38404D01*
X138507Y38440D01*
X138558Y38484D01*
X138561Y38491D01*
X138576Y38506D01*
X138594Y38535D01*
X138616Y38575D01*
X138638Y38619D01*
X138656Y38673D01*
X138671Y38735D01*
X138674Y38804D01*
Y38826D01*
X138671Y38841D01*
X138667Y38884D01*
X138652Y38935D01*
X138634Y38997D01*
X138605Y39059D01*
X138561Y39125D01*
X138536Y39154D01*
X138507Y39183D01*
X138503Y39187D01*
X138499Y39190D01*
X138488Y39197D01*
X138478Y39208D01*
X138437Y39234D01*
X138386Y39263D01*
X138325Y39288D01*
X138248Y39314D01*
X138157Y39332D01*
X138110Y39339D01*
X138059D01*
X138055D01*
X138048D01*
X138033D01*
X138015Y39336D01*
X137993D01*
X137968Y39332D01*
X137910Y39321D01*
X137840Y39303D01*
X137771Y39278D01*
X137706Y39241D01*
X137644Y39190D01*
X137640D01*
X137637Y39183D01*
X137619Y39165D01*
X137593Y39132D01*
X137564Y39088D01*
X137538Y39030D01*
X137513Y38965D01*
X137495Y38888D01*
X137487Y38844D01*
Y38775D01*
X137491Y38746D01*
X137495Y38710D01*
X137506Y38666D01*
X137517Y38622D01*
X137535Y38575D01*
X137557Y38528D01*
X137560Y38524D01*
X137567Y38510D01*
X137586Y38488D01*
X137604Y38459D01*
X137629Y38429D01*
X137662Y38400D01*
X137695Y38368D01*
X137735Y38342D01*
X137695Y38051D01*
X136399Y38295D01*
Y39547D01*
X136694D01*
Y38539D01*
X137375Y38404D01*
X137371Y38408D01*
X137367Y38415D01*
X137360Y38426D01*
X137349Y38444D01*
X137338Y38466D01*
X137324Y38491D01*
X137294Y38550D01*
X137265Y38622D01*
X137240Y38702D01*
X137222Y38790D01*
X137215Y38833D01*
Y38914D01*
X137218Y38935D01*
X137222Y38965D01*
X137225Y38997D01*
X137233Y39034D01*
X137244Y39074D01*
X137269Y39161D01*
X137287Y39208D01*
X137313Y39256D01*
X137338Y39303D01*
X137367Y39350D01*
X137404Y39394D01*
X137444Y39438D01*
X137447Y39441D01*
X137455Y39449D01*
X137466Y39460D01*
X137484Y39474D01*
X137509Y39492D01*
X137535Y39511D01*
X137567Y39532D01*
X137604Y39554D01*
X137644Y39572D01*
X137688Y39594D01*
X137739Y39612D01*
X137790Y39631D01*
X137844Y39645D01*
X137906Y39656D01*
X137968Y39663D01*
X138033Y39667D01*
X138037D01*
X138048D01*
X138066D01*
X138092Y39663D01*
D02*
G37*
G36*
X137153Y37694D02*
X137178Y37690D01*
X137211Y37687D01*
X137247Y37680D01*
X137287Y37672D01*
X137371Y37647D01*
X137415Y37632D01*
X137462Y37610D01*
X137509Y37585D01*
X137553Y37560D01*
X137597Y37527D01*
X137640Y37490D01*
X137644Y37487D01*
X137651Y37479D01*
X137662Y37468D01*
X137673Y37450D01*
X137691Y37428D01*
X137709Y37399D01*
X137731Y37363D01*
X137750Y37323D01*
X137771Y37276D01*
X137793Y37221D01*
X137811Y37163D01*
X137826Y37094D01*
X137840Y37021D01*
X137852Y36941D01*
X137859Y36850D01*
X137862Y36755D01*
Y36111D01*
X138885D01*
Y35776D01*
X136366D01*
Y36810D01*
X136370Y36864D01*
X136374Y36926D01*
X136377Y36992D01*
X136384Y37053D01*
X136392Y37108D01*
Y37115D01*
X136399Y37141D01*
X136406Y37174D01*
X136417Y37217D01*
X136435Y37265D01*
X136457Y37316D01*
X136483Y37370D01*
X136512Y37418D01*
X136516Y37425D01*
X136527Y37439D01*
X136548Y37461D01*
X136574Y37490D01*
X136607Y37523D01*
X136650Y37556D01*
X136698Y37592D01*
X136752Y37621D01*
X136759Y37625D01*
X136778Y37632D01*
X136810Y37647D01*
X136854Y37661D01*
X136905Y37672D01*
X136963Y37687D01*
X137029Y37694D01*
X137098Y37698D01*
X137102D01*
X137112D01*
X137127D01*
X137153Y37694D01*
D02*
G37*
G36*
X159176Y39663D02*
X159198D01*
X159256Y39652D01*
X159325Y39642D01*
X159398Y39623D01*
X159478Y39598D01*
X159555Y39562D01*
X159558D01*
X159562Y39558D01*
X159573Y39551D01*
X159587Y39543D01*
X159624Y39521D01*
X159671Y39489D01*
X159722Y39449D01*
X159773Y39401D01*
X159824Y39343D01*
X159868Y39281D01*
Y39278D01*
X159871Y39274D01*
X159879Y39263D01*
X159882Y39248D01*
X159900Y39212D01*
X159918Y39165D01*
X159940Y39103D01*
X159955Y39034D01*
X159969Y38957D01*
X159973Y38873D01*
Y38855D01*
X159969Y38837D01*
Y38808D01*
X159966Y38775D01*
X159959Y38739D01*
X159948Y38695D01*
X159937Y38651D01*
X159922Y38601D01*
X159904Y38550D01*
X159882Y38499D01*
X159853Y38444D01*
X159820Y38393D01*
X159784Y38342D01*
X159740Y38291D01*
X159689Y38244D01*
X159686Y38240D01*
X159675Y38233D01*
X159660Y38222D01*
X159635Y38207D01*
X159602Y38186D01*
X159565Y38167D01*
X159518Y38146D01*
X159467Y38124D01*
X159405Y38098D01*
X159336Y38076D01*
X159260Y38058D01*
X159176Y38040D01*
X159081Y38022D01*
X158979Y38011D01*
X158870Y38004D01*
X158754Y38000D01*
X158750D01*
X158747D01*
X158736D01*
X158721D01*
X158685Y38004D01*
X158634D01*
X158575Y38007D01*
X158506Y38015D01*
X158430Y38022D01*
X158346Y38033D01*
X158262Y38047D01*
X158171Y38065D01*
X158084Y38087D01*
X157997Y38113D01*
X157913Y38146D01*
X157833Y38182D01*
X157756Y38222D01*
X157691Y38269D01*
X157687Y38273D01*
X157680Y38280D01*
X157665Y38295D01*
X157643Y38313D01*
X157622Y38335D01*
X157600Y38364D01*
X157571Y38400D01*
X157545Y38437D01*
X157520Y38480D01*
X157491Y38528D01*
X157469Y38582D01*
X157443Y38637D01*
X157425Y38699D01*
X157411Y38764D01*
X157403Y38833D01*
X157400Y38906D01*
Y38935D01*
X157403Y38957D01*
Y38983D01*
X157407Y39012D01*
X157422Y39081D01*
X157440Y39157D01*
X157469Y39237D01*
X157512Y39318D01*
X157538Y39358D01*
X157567Y39394D01*
X157571Y39398D01*
X157574Y39401D01*
X157585Y39412D01*
X157596Y39423D01*
X157614Y39441D01*
X157636Y39456D01*
X157687Y39496D01*
X157753Y39536D01*
X157833Y39572D01*
X157924Y39605D01*
X158026Y39627D01*
X158051Y39318D01*
X158048D01*
X158044Y39314D01*
X158022Y39310D01*
X157989Y39299D01*
X157949Y39285D01*
X157906Y39270D01*
X157862Y39248D01*
X157822Y39223D01*
X157789Y39197D01*
X157782Y39190D01*
X157767Y39176D01*
X157746Y39150D01*
X157720Y39114D01*
X157698Y39066D01*
X157676Y39015D01*
X157662Y38954D01*
X157655Y38888D01*
Y38863D01*
X157658Y38833D01*
X157665Y38801D01*
X157676Y38757D01*
X157691Y38713D01*
X157709Y38670D01*
X157738Y38626D01*
X157742Y38619D01*
X157756Y38601D01*
X157782Y38575D01*
X157818Y38542D01*
X157862Y38506D01*
X157913Y38466D01*
X157978Y38429D01*
X158051Y38393D01*
X158055D01*
X158062Y38389D01*
X158073Y38386D01*
X158088Y38379D01*
X158109Y38375D01*
X158135Y38368D01*
X158164Y38360D01*
X158201Y38353D01*
X158240Y38342D01*
X158284Y38335D01*
X158332Y38328D01*
X158382Y38324D01*
X158441Y38317D01*
X158499Y38313D01*
X158564Y38309D01*
X158630D01*
X158626Y38313D01*
X158605Y38328D01*
X158575Y38353D01*
X158539Y38386D01*
X158495Y38422D01*
X158455Y38469D01*
X158415Y38520D01*
X158379Y38579D01*
Y38582D01*
X158375Y38586D01*
X158364Y38608D01*
X158353Y38641D01*
X158335Y38684D01*
X158321Y38735D01*
X158310Y38793D01*
X158299Y38855D01*
X158295Y38921D01*
Y38950D01*
X158299Y38972D01*
X158302Y39001D01*
X158306Y39030D01*
X158313Y39066D01*
X158324Y39103D01*
X158350Y39186D01*
X158368Y39230D01*
X158393Y39274D01*
X158419Y39318D01*
X158448Y39365D01*
X158484Y39409D01*
X158524Y39449D01*
X158528Y39452D01*
X158535Y39460D01*
X158546Y39470D01*
X158564Y39481D01*
X158590Y39500D01*
X158615Y39518D01*
X158648Y39536D01*
X158685Y39558D01*
X158725Y39580D01*
X158768Y39598D01*
X158819Y39616D01*
X158870Y39634D01*
X158925Y39645D01*
X158987Y39656D01*
X159049Y39663D01*
X159114Y39667D01*
X159118D01*
X159125D01*
X159136D01*
X159154D01*
X159176Y39663D01*
D02*
G37*
G36*
X158197Y37712D02*
X158222Y37709D01*
X158255Y37705D01*
X158291Y37698D01*
X158332Y37690D01*
X158415Y37665D01*
X158459Y37650D01*
X158506Y37629D01*
X158554Y37603D01*
X158597Y37578D01*
X158641Y37545D01*
X158685Y37508D01*
X158688Y37505D01*
X158695Y37498D01*
X158706Y37487D01*
X158717Y37468D01*
X158736Y37447D01*
X158754Y37418D01*
X158776Y37381D01*
X158794Y37341D01*
X158816Y37294D01*
X158837Y37239D01*
X158856Y37181D01*
X158870Y37112D01*
X158885Y37039D01*
X158896Y36959D01*
X158903Y36868D01*
X158907Y36773D01*
Y36129D01*
X159930D01*
Y35794D01*
X157411D01*
Y36828D01*
X157414Y36882D01*
X157418Y36944D01*
X157422Y37010D01*
X157429Y37072D01*
X157436Y37126D01*
Y37134D01*
X157443Y37159D01*
X157451Y37192D01*
X157462Y37236D01*
X157480Y37283D01*
X157502Y37334D01*
X157527Y37388D01*
X157556Y37436D01*
X157560Y37443D01*
X157571Y37457D01*
X157593Y37479D01*
X157618Y37508D01*
X157651Y37541D01*
X157694Y37574D01*
X157742Y37610D01*
X157796Y37640D01*
X157804Y37643D01*
X157822Y37650D01*
X157855Y37665D01*
X157898Y37680D01*
X157949Y37690D01*
X158008Y37705D01*
X158073Y37712D01*
X158142Y37716D01*
X158146D01*
X158157D01*
X158171D01*
X158197Y37712D01*
D02*
G37*
G36*
X199790Y39663D02*
X199798Y39656D01*
X199812Y39642D01*
X199834Y39627D01*
X199859Y39605D01*
X199889Y39576D01*
X199925Y39547D01*
X199969Y39514D01*
X200012Y39481D01*
X200063Y39441D01*
X200121Y39401D01*
X200180Y39361D01*
X200245Y39318D01*
X200314Y39274D01*
X200391Y39230D01*
X200467Y39186D01*
X200471Y39183D01*
X200485Y39176D01*
X200507Y39165D01*
X200540Y39147D01*
X200580Y39128D01*
X200624Y39107D01*
X200675Y39081D01*
X200733Y39055D01*
X200799Y39026D01*
X200864Y38994D01*
X200937Y38965D01*
X201013Y38935D01*
X201170Y38877D01*
X201337Y38823D01*
X201341D01*
X201352Y38819D01*
X201370Y38815D01*
X201392Y38808D01*
X201421Y38801D01*
X201457Y38793D01*
X201497Y38783D01*
X201541Y38775D01*
X201592Y38764D01*
X201647Y38753D01*
X201763Y38735D01*
X201891Y38717D01*
X202029Y38706D01*
Y38389D01*
X202025D01*
X202014D01*
X202000D01*
X201978Y38393D01*
X201949D01*
X201912Y38397D01*
X201872Y38400D01*
X201829Y38404D01*
X201778Y38411D01*
X201727Y38418D01*
X201665Y38429D01*
X201603Y38440D01*
X201537Y38451D01*
X201465Y38466D01*
X201315Y38502D01*
X201312D01*
X201297Y38506D01*
X201275Y38513D01*
X201243Y38524D01*
X201206Y38535D01*
X201163Y38550D01*
X201112Y38564D01*
X201057Y38586D01*
X200995Y38608D01*
X200933Y38630D01*
X200795Y38684D01*
X200649Y38750D01*
X200504Y38823D01*
X200500Y38826D01*
X200485Y38833D01*
X200467Y38844D01*
X200438Y38859D01*
X200405Y38877D01*
X200365Y38903D01*
X200322Y38928D01*
X200274Y38957D01*
X200169Y39026D01*
X200060Y39099D01*
X199947Y39183D01*
X199841Y39270D01*
Y38036D01*
X199543D01*
Y39667D01*
X199787D01*
X199790Y39663D01*
D02*
G37*
G36*
X200296Y37712D02*
X200322Y37709D01*
X200355Y37705D01*
X200391Y37698D01*
X200431Y37690D01*
X200515Y37665D01*
X200558Y37650D01*
X200606Y37629D01*
X200653Y37603D01*
X200697Y37578D01*
X200740Y37545D01*
X200784Y37508D01*
X200788Y37505D01*
X200795Y37498D01*
X200806Y37487D01*
X200817Y37468D01*
X200835Y37447D01*
X200853Y37418D01*
X200875Y37381D01*
X200893Y37341D01*
X200915Y37294D01*
X200937Y37239D01*
X200955Y37181D01*
X200970Y37112D01*
X200984Y37039D01*
X200995Y36959D01*
X201002Y36868D01*
X201006Y36773D01*
Y36129D01*
X202029D01*
Y35794D01*
X199510D01*
Y36828D01*
X199514Y36882D01*
X199517Y36944D01*
X199521Y37010D01*
X199528Y37072D01*
X199536Y37126D01*
Y37134D01*
X199543Y37159D01*
X199550Y37192D01*
X199561Y37236D01*
X199579Y37283D01*
X199601Y37334D01*
X199627Y37388D01*
X199656Y37436D01*
X199659Y37443D01*
X199670Y37457D01*
X199692Y37479D01*
X199717Y37508D01*
X199750Y37541D01*
X199794Y37574D01*
X199841Y37610D01*
X199896Y37640D01*
X199903Y37643D01*
X199921Y37650D01*
X199954Y37665D01*
X199998Y37680D01*
X200049Y37690D01*
X200107Y37705D01*
X200172Y37712D01*
X200242Y37716D01*
X200245D01*
X200256D01*
X200271D01*
X200296Y37712D01*
D02*
G37*
G36*
X428924Y140676D02*
X428920Y140621D01*
X428916Y140559D01*
X428913Y140494D01*
X428905Y140432D01*
X428898Y140377D01*
Y140370D01*
X428891Y140345D01*
X428884Y140312D01*
X428873Y140268D01*
X428854Y140221D01*
X428832Y140170D01*
X428807Y140115D01*
X428778Y140068D01*
X428774Y140061D01*
X428763Y140046D01*
X428742Y140024D01*
X428716Y139995D01*
X428683Y139962D01*
X428640Y139930D01*
X428592Y139893D01*
X428538Y139864D01*
X428530Y139860D01*
X428512Y139853D01*
X428479Y139839D01*
X428436Y139824D01*
X428385Y139813D01*
X428327Y139799D01*
X428261Y139791D01*
X428192Y139788D01*
X428188D01*
X428177D01*
X428163D01*
X428137Y139791D01*
X428112Y139795D01*
X428079Y139799D01*
X428043Y139806D01*
X428003Y139813D01*
X427919Y139839D01*
X427875Y139853D01*
X427828Y139875D01*
X427781Y139901D01*
X427737Y139926D01*
X427693Y139959D01*
X427649Y139995D01*
X427646Y139999D01*
X427639Y140006D01*
X427628Y140017D01*
X427617Y140035D01*
X427599Y140057D01*
X427580Y140086D01*
X427559Y140122D01*
X427540Y140163D01*
X427519Y140210D01*
X427497Y140264D01*
X427479Y140323D01*
X427464Y140392D01*
X427449Y140465D01*
X427438Y140545D01*
X427431Y140636D01*
X427427Y140730D01*
Y141375D01*
X426405D01*
Y141709D01*
X428924D01*
Y140676D01*
D02*
G37*
G36*
X427169Y139489D02*
X427191D01*
X427216Y139486D01*
X427275Y139478D01*
X427340Y139464D01*
X427406Y139442D01*
X427475Y139409D01*
X427540Y139369D01*
X427544D01*
X427548Y139362D01*
X427566Y139347D01*
X427595Y139318D01*
X427631Y139278D01*
X427668Y139227D01*
X427708Y139165D01*
X427740Y139096D01*
X427766Y139012D01*
Y139016D01*
X427770Y139020D01*
X427773Y139031D01*
X427781Y139045D01*
X427795Y139078D01*
X427817Y139121D01*
X427846Y139169D01*
X427882Y139216D01*
X427922Y139260D01*
X427966Y139300D01*
X427974Y139304D01*
X427988Y139314D01*
X428017Y139329D01*
X428054Y139344D01*
X428101Y139362D01*
X428156Y139376D01*
X428217Y139387D01*
X428283Y139391D01*
X428287D01*
X428294D01*
X428308D01*
X428330Y139387D01*
X428352Y139384D01*
X428381Y139380D01*
X428443Y139365D01*
X428516Y139344D01*
X428592Y139307D01*
X428632Y139285D01*
X428672Y139260D01*
X428709Y139227D01*
X428745Y139194D01*
X428749Y139191D01*
X428753Y139183D01*
X428763Y139172D01*
X428774Y139158D01*
X428789Y139140D01*
X428803Y139114D01*
X428822Y139085D01*
X428840Y139056D01*
X428858Y139020D01*
X428876Y138979D01*
X428891Y138936D01*
X428905Y138889D01*
X428927Y138787D01*
X428931Y138728D01*
X428934Y138670D01*
Y138637D01*
X428931Y138616D01*
X428927Y138586D01*
X428924Y138554D01*
X428920Y138517D01*
X428909Y138481D01*
X428887Y138393D01*
X428854Y138306D01*
X428832Y138262D01*
X428807Y138219D01*
X428774Y138179D01*
X428742Y138139D01*
X428738Y138135D01*
X428734Y138131D01*
X428723Y138120D01*
X428709Y138106D01*
X428687Y138091D01*
X428665Y138073D01*
X428611Y138037D01*
X428541Y138000D01*
X428461Y137968D01*
X428370Y137942D01*
X428323Y137938D01*
X428272Y137935D01*
X428268D01*
X428265D01*
X428243D01*
X428210Y137938D01*
X428170Y137946D01*
X428119Y137957D01*
X428068Y137975D01*
X428017Y137997D01*
X427966Y138030D01*
X427959Y138033D01*
X427944Y138048D01*
X427922Y138070D01*
X427893Y138099D01*
X427861Y138139D01*
X427828Y138186D01*
X427795Y138241D01*
X427766Y138306D01*
Y138303D01*
X427762Y138295D01*
X427759Y138284D01*
X427751Y138270D01*
X427733Y138226D01*
X427708Y138175D01*
X427671Y138120D01*
X427631Y138062D01*
X427580Y138008D01*
X427522Y137957D01*
X427519D01*
X427515Y137953D01*
X427493Y137938D01*
X427457Y137917D01*
X427409Y137895D01*
X427351Y137873D01*
X427282Y137851D01*
X427206Y137837D01*
X427122Y137833D01*
X427118D01*
X427107D01*
X427089D01*
X427067Y137837D01*
X427042Y137840D01*
X427009Y137844D01*
X426972Y137851D01*
X426932Y137862D01*
X426849Y137888D01*
X426801Y137906D01*
X426758Y137931D01*
X426710Y137957D01*
X426667Y137986D01*
X426623Y138022D01*
X426579Y138062D01*
X426576Y138066D01*
X426569Y138073D01*
X426557Y138084D01*
X426547Y138102D01*
X426528Y138128D01*
X426510Y138153D01*
X426492Y138186D01*
X426470Y138222D01*
X426448Y138262D01*
X426430Y138310D01*
X426412Y138361D01*
X426394Y138412D01*
X426383Y138470D01*
X426372Y138532D01*
X426365Y138594D01*
X426361Y138663D01*
Y138699D01*
X426365Y138725D01*
X426368Y138758D01*
X426372Y138794D01*
X426379Y138834D01*
X426390Y138878D01*
X426416Y138976D01*
X426434Y139027D01*
X426452Y139074D01*
X426477Y139125D01*
X426507Y139176D01*
X426539Y139223D01*
X426579Y139267D01*
X426583Y139271D01*
X426590Y139278D01*
X426601Y139289D01*
X426619Y139304D01*
X426641Y139318D01*
X426667Y139340D01*
X426696Y139358D01*
X426732Y139380D01*
X426769Y139402D01*
X426812Y139420D01*
X426903Y139456D01*
X426958Y139471D01*
X427012Y139482D01*
X427071Y139489D01*
X427129Y139493D01*
X427133D01*
X427140D01*
X427154D01*
X427169Y139489D01*
D02*
G37*
G36*
X428723Y252676D02*
X428719Y252621D01*
X428716Y252559D01*
X428712Y252494D01*
X428705Y252432D01*
X428697Y252377D01*
Y252370D01*
X428690Y252345D01*
X428683Y252312D01*
X428672Y252268D01*
X428654Y252221D01*
X428632Y252170D01*
X428606Y252115D01*
X428577Y252068D01*
X428574Y252061D01*
X428563Y252046D01*
X428541Y252024D01*
X428515Y251995D01*
X428482Y251962D01*
X428439Y251930D01*
X428392Y251893D01*
X428337Y251864D01*
X428330Y251860D01*
X428311Y251853D01*
X428279Y251839D01*
X428235Y251824D01*
X428184Y251813D01*
X428126Y251799D01*
X428060Y251791D01*
X427991Y251788D01*
X427987D01*
X427977D01*
X427962D01*
X427937Y251791D01*
X427911Y251795D01*
X427878Y251799D01*
X427842Y251806D01*
X427802Y251813D01*
X427718Y251839D01*
X427674Y251853D01*
X427627Y251875D01*
X427580Y251901D01*
X427536Y251926D01*
X427492Y251959D01*
X427449Y251995D01*
X427445Y251999D01*
X427438Y252006D01*
X427427Y252017D01*
X427416Y252035D01*
X427398Y252057D01*
X427380Y252086D01*
X427358Y252122D01*
X427340Y252163D01*
X427318Y252210D01*
X427296Y252264D01*
X427278Y252323D01*
X427263Y252392D01*
X427248Y252465D01*
X427238Y252545D01*
X427230Y252636D01*
X427227Y252730D01*
Y253375D01*
X426204D01*
Y253710D01*
X428723D01*
Y252676D01*
D02*
G37*
G36*
X427944Y251485D02*
X427977Y251482D01*
X428017Y251478D01*
X428057Y251471D01*
X428104Y251460D01*
X428199Y251435D01*
X428250Y251416D01*
X428304Y251395D01*
X428355Y251369D01*
X428402Y251336D01*
X428453Y251304D01*
X428497Y251263D01*
X428501Y251260D01*
X428508Y251253D01*
X428519Y251242D01*
X428534Y251223D01*
X428552Y251202D01*
X428574Y251172D01*
X428592Y251143D01*
X428617Y251107D01*
X428639Y251071D01*
X428657Y251027D01*
X428697Y250929D01*
X428712Y250878D01*
X428723Y250819D01*
X428730Y250761D01*
X428734Y250699D01*
Y250674D01*
X428730Y250656D01*
Y250637D01*
X428726Y250612D01*
X428716Y250550D01*
X428701Y250481D01*
X428675Y250404D01*
X428643Y250328D01*
X428599Y250252D01*
Y250248D01*
X428592Y250244D01*
X428584Y250233D01*
X428574Y250219D01*
X428544Y250182D01*
X428504Y250135D01*
X428450Y250088D01*
X428384Y250033D01*
X428308Y249986D01*
X428220Y249942D01*
X428217D01*
X428209Y249939D01*
X428195Y249931D01*
X428177Y249924D01*
X428151Y249917D01*
X428119Y249906D01*
X428082Y249899D01*
X428042Y249888D01*
X427995Y249877D01*
X427940Y249866D01*
X427882Y249858D01*
X427820Y249851D01*
X427751Y249844D01*
X427678Y249837D01*
X427598Y249833D01*
X427514D01*
X427511D01*
X427492D01*
X427467D01*
X427434D01*
X427394Y249837D01*
X427347D01*
X427292Y249840D01*
X427238Y249848D01*
X427114Y249858D01*
X426983Y249877D01*
X426859Y249902D01*
X426797Y249920D01*
X426743Y249939D01*
X426739D01*
X426732Y249942D01*
X426717Y249949D01*
X426695Y249957D01*
X426673Y249968D01*
X426644Y249982D01*
X426582Y250019D01*
X426513Y250062D01*
X426440Y250113D01*
X426371Y250179D01*
X426309Y250252D01*
Y250255D01*
X426302Y250262D01*
X426295Y250273D01*
X426288Y250288D01*
X426277Y250310D01*
X426262Y250332D01*
X426248Y250361D01*
X426237Y250390D01*
X426207Y250459D01*
X426182Y250543D01*
X426167Y250634D01*
X426160Y250736D01*
Y250765D01*
X426164Y250783D01*
Y250809D01*
X426167Y250838D01*
X426182Y250907D01*
X426200Y250983D01*
X426229Y251063D01*
X426269Y251143D01*
X426295Y251183D01*
X426324Y251220D01*
X426328Y251223D01*
X426331Y251227D01*
X426342Y251238D01*
X426353Y251249D01*
X426371Y251263D01*
X426393Y251282D01*
X426444Y251318D01*
X426510Y251355D01*
X426590Y251391D01*
X426681Y251420D01*
X426786Y251442D01*
X426812Y251143D01*
X426808D01*
X426801Y251140D01*
X426793D01*
X426779Y251136D01*
X426739Y251125D01*
X426695Y251111D01*
X426644Y251092D01*
X426593Y251067D01*
X426546Y251038D01*
X426506Y251001D01*
X426502Y250998D01*
X426491Y250983D01*
X426477Y250958D01*
X426462Y250929D01*
X426444Y250889D01*
X426430Y250841D01*
X426419Y250787D01*
X426415Y250728D01*
Y250703D01*
X426419Y250677D01*
X426422Y250645D01*
X426430Y250605D01*
X426440Y250565D01*
X426455Y250521D01*
X426477Y250481D01*
X426480Y250477D01*
X426488Y250463D01*
X426502Y250441D01*
X426524Y250419D01*
X426550Y250390D01*
X426579Y250361D01*
X426612Y250332D01*
X426652Y250303D01*
X426655Y250299D01*
X426673Y250292D01*
X426699Y250277D01*
X426732Y250262D01*
X426775Y250244D01*
X426826Y250226D01*
X426885Y250208D01*
X426950Y250190D01*
X426954D01*
X426957Y250186D01*
X426968D01*
X426983Y250182D01*
X427019Y250175D01*
X427067Y250164D01*
X427125Y250157D01*
X427187Y250150D01*
X427256Y250146D01*
X427329Y250142D01*
X427332D01*
X427343D01*
X427361D01*
X427390D01*
X427383Y250146D01*
X427365Y250161D01*
X427340Y250182D01*
X427303Y250208D01*
X427267Y250244D01*
X427227Y250288D01*
X427187Y250339D01*
X427150Y250397D01*
X427147Y250404D01*
X427136Y250426D01*
X427121Y250459D01*
X427107Y250499D01*
X427088Y250554D01*
X427074Y250612D01*
X427063Y250677D01*
X427059Y250747D01*
Y250776D01*
X427063Y250798D01*
X427067Y250827D01*
X427070Y250856D01*
X427077Y250892D01*
X427088Y250929D01*
X427114Y251012D01*
X427132Y251056D01*
X427154Y251100D01*
X427179Y251147D01*
X427212Y251191D01*
X427245Y251234D01*
X427285Y251274D01*
X427289Y251278D01*
X427296Y251285D01*
X427307Y251293D01*
X427325Y251307D01*
X427351Y251325D01*
X427376Y251344D01*
X427409Y251362D01*
X427445Y251380D01*
X427485Y251402D01*
X427529Y251420D01*
X427580Y251438D01*
X427631Y251456D01*
X427689Y251471D01*
X427751Y251478D01*
X427813Y251485D01*
X427882Y251489D01*
X427885D01*
X427900D01*
X427918D01*
X427944Y251485D01*
D02*
G37*
G36*
X405228Y288204D02*
X404919D01*
Y290173D01*
X404915Y290170D01*
X404897Y290155D01*
X404875Y290133D01*
X404839Y290108D01*
X404799Y290075D01*
X404748Y290038D01*
X404690Y289998D01*
X404624Y289958D01*
X404620D01*
X404617Y289955D01*
X404595Y289940D01*
X404559Y289922D01*
X404515Y289900D01*
X404464Y289875D01*
X404409Y289849D01*
X404355Y289824D01*
X404300Y289802D01*
Y290100D01*
X404304D01*
X404311Y290108D01*
X404325Y290111D01*
X404344Y290122D01*
X404366Y290133D01*
X404391Y290148D01*
X404453Y290184D01*
X404526Y290224D01*
X404599Y290275D01*
X404675Y290333D01*
X404751Y290395D01*
X404755Y290399D01*
X404759Y290402D01*
X404770Y290413D01*
X404784Y290424D01*
X404817Y290461D01*
X404861Y290504D01*
X404904Y290555D01*
X404952Y290614D01*
X404992Y290672D01*
X405028Y290734D01*
X405228D01*
Y288204D01*
D02*
G37*
G36*
X402931Y290719D02*
X402993Y290716D01*
X403059Y290712D01*
X403121Y290704D01*
X403175Y290697D01*
X403183D01*
X403208Y290690D01*
X403241Y290683D01*
X403285Y290672D01*
X403332Y290654D01*
X403383Y290632D01*
X403437Y290606D01*
X403485Y290577D01*
X403492Y290574D01*
X403507Y290563D01*
X403528Y290541D01*
X403557Y290515D01*
X403590Y290482D01*
X403623Y290439D01*
X403659Y290391D01*
X403688Y290337D01*
X403692Y290330D01*
X403699Y290311D01*
X403714Y290279D01*
X403729Y290235D01*
X403740Y290184D01*
X403754Y290126D01*
X403761Y290060D01*
X403765Y289991D01*
Y289987D01*
Y289977D01*
Y289962D01*
X403761Y289936D01*
X403758Y289911D01*
X403754Y289878D01*
X403747Y289842D01*
X403740Y289802D01*
X403714Y289718D01*
X403699Y289674D01*
X403678Y289627D01*
X403652Y289580D01*
X403627Y289536D01*
X403594Y289492D01*
X403557Y289449D01*
X403554Y289445D01*
X403547Y289438D01*
X403536Y289427D01*
X403517Y289416D01*
X403496Y289398D01*
X403467Y289380D01*
X403430Y289358D01*
X403390Y289339D01*
X403343Y289318D01*
X403288Y289296D01*
X403230Y289278D01*
X403161Y289263D01*
X403088Y289248D01*
X403008Y289238D01*
X402917Y289230D01*
X402822Y289227D01*
X402178D01*
Y288204D01*
X401843D01*
Y290723D01*
X402877D01*
X402931Y290719D01*
D02*
G37*
G36*
X406917Y290730D02*
X406964Y290723D01*
X407019Y290712D01*
X407077Y290697D01*
X407139Y290679D01*
X407198Y290650D01*
X407201D01*
X407205Y290646D01*
X407223Y290635D01*
X407252Y290617D01*
X407289Y290592D01*
X407329Y290555D01*
X407372Y290515D01*
X407412Y290468D01*
X407452Y290413D01*
X407456Y290406D01*
X407471Y290388D01*
X407485Y290355D01*
X407511Y290308D01*
X407532Y290253D01*
X407561Y290191D01*
X407587Y290119D01*
X407609Y290038D01*
Y290035D01*
X407612Y290027D01*
X407616Y290017D01*
X407620Y289998D01*
X407623Y289977D01*
X407627Y289951D01*
X407634Y289918D01*
X407638Y289882D01*
X407645Y289842D01*
X407649Y289798D01*
X407653Y289747D01*
X407660Y289696D01*
X407663Y289638D01*
Y289580D01*
X407667Y289514D01*
Y289445D01*
Y289441D01*
Y289427D01*
Y289401D01*
Y289372D01*
X407663Y289332D01*
Y289289D01*
X407660Y289241D01*
X407656Y289190D01*
X407645Y289074D01*
X407627Y288954D01*
X407605Y288837D01*
X407591Y288783D01*
X407572Y288728D01*
Y288724D01*
X407569Y288717D01*
X407561Y288703D01*
X407554Y288684D01*
X407547Y288659D01*
X407532Y288633D01*
X407503Y288572D01*
X407467Y288506D01*
X407419Y288433D01*
X407365Y288368D01*
X407299Y288306D01*
X407296D01*
X407292Y288299D01*
X407281Y288291D01*
X407267Y288284D01*
X407248Y288273D01*
X407230Y288259D01*
X407176Y288233D01*
X407110Y288208D01*
X407034Y288182D01*
X406943Y288168D01*
X406844Y288160D01*
X406808D01*
X406782Y288164D01*
X406753Y288168D01*
X406717Y288175D01*
X406677Y288182D01*
X406633Y288193D01*
X406590Y288208D01*
X406542Y288222D01*
X406495Y288244D01*
X406448Y288269D01*
X406400Y288299D01*
X406353Y288335D01*
X406309Y288375D01*
X406269Y288419D01*
X406266Y288422D01*
X406258Y288433D01*
X406247Y288451D01*
X406229Y288480D01*
X406211Y288513D01*
X406193Y288557D01*
X406167Y288608D01*
X406145Y288666D01*
X406124Y288732D01*
X406102Y288808D01*
X406080Y288892D01*
X406062Y288986D01*
X406044Y289088D01*
X406033Y289198D01*
X406025Y289318D01*
X406022Y289445D01*
Y289449D01*
Y289463D01*
Y289489D01*
Y289518D01*
X406025Y289558D01*
Y289602D01*
X406029Y289649D01*
X406033Y289703D01*
X406044Y289816D01*
X406062Y289936D01*
X406084Y290057D01*
X406098Y290111D01*
X406113Y290166D01*
Y290170D01*
X406116Y290177D01*
X406124Y290191D01*
X406131Y290210D01*
X406138Y290235D01*
X406153Y290261D01*
X406182Y290322D01*
X406218Y290388D01*
X406266Y290457D01*
X406320Y290526D01*
X406386Y290584D01*
X406389D01*
X406393Y290592D01*
X406404Y290599D01*
X406419Y290606D01*
X406437Y290621D01*
X406459Y290632D01*
X406513Y290661D01*
X406579Y290686D01*
X406655Y290712D01*
X406746Y290726D01*
X406844Y290734D01*
X406877D01*
X406917Y290730D01*
D02*
G37*
G36*
X429640Y83196D02*
X429636D01*
X429622D01*
X429600D01*
X429571Y83200D01*
X429538Y83204D01*
X429501Y83211D01*
X429465Y83218D01*
X429425Y83233D01*
X429421D01*
X429418Y83236D01*
X429396Y83244D01*
X429363Y83258D01*
X429319Y83280D01*
X429269Y83309D01*
X429210Y83346D01*
X429152Y83386D01*
X429090Y83437D01*
X429086D01*
X429083Y83444D01*
X429061Y83462D01*
X429028Y83495D01*
X428981Y83542D01*
X428926Y83597D01*
X428861Y83666D01*
X428788Y83750D01*
X428712Y83841D01*
X428708Y83844D01*
X428697Y83859D01*
X428679Y83881D01*
X428657Y83906D01*
X428628Y83939D01*
X428595Y83979D01*
X428559Y84019D01*
X428519Y84066D01*
X428431Y84157D01*
X428344Y84248D01*
X428300Y84292D01*
X428257Y84332D01*
X428217Y84368D01*
X428176Y84398D01*
X428173D01*
X428169Y84405D01*
X428158Y84412D01*
X428144Y84419D01*
X428104Y84445D01*
X428056Y84474D01*
X427998Y84499D01*
X427936Y84525D01*
X427867Y84539D01*
X427802Y84547D01*
X427798D01*
X427794D01*
X427773Y84543D01*
X427736Y84539D01*
X427696Y84528D01*
X427645Y84514D01*
X427594Y84488D01*
X427543Y84456D01*
X427492Y84412D01*
X427485Y84405D01*
X427470Y84387D01*
X427452Y84361D01*
X427427Y84321D01*
X427405Y84270D01*
X427383Y84212D01*
X427368Y84143D01*
X427365Y84066D01*
Y84044D01*
X427368Y84030D01*
X427372Y83986D01*
X427383Y83935D01*
X427398Y83881D01*
X427423Y83819D01*
X427456Y83760D01*
X427499Y83706D01*
X427507Y83699D01*
X427525Y83684D01*
X427554Y83662D01*
X427598Y83640D01*
X427649Y83615D01*
X427714Y83593D01*
X427787Y83578D01*
X427871Y83571D01*
X427838Y83254D01*
X427834D01*
X427823Y83258D01*
X427805D01*
X427780Y83262D01*
X427751Y83269D01*
X427718Y83276D01*
X427678Y83287D01*
X427638Y83298D01*
X427551Y83327D01*
X427463Y83371D01*
X427419Y83397D01*
X427376Y83429D01*
X427336Y83462D01*
X427299Y83498D01*
X427296Y83502D01*
X427292Y83509D01*
X427281Y83520D01*
X427270Y83538D01*
X427256Y83560D01*
X427241Y83586D01*
X427223Y83615D01*
X427205Y83651D01*
X427186Y83691D01*
X427168Y83735D01*
X427154Y83782D01*
X427139Y83833D01*
X427128Y83888D01*
X427117Y83946D01*
X427114Y84008D01*
X427110Y84074D01*
Y84110D01*
X427114Y84135D01*
X427117Y84165D01*
X427121Y84201D01*
X427128Y84241D01*
X427136Y84281D01*
X427161Y84376D01*
X427197Y84470D01*
X427219Y84518D01*
X427245Y84565D01*
X427278Y84609D01*
X427314Y84649D01*
X427317Y84652D01*
X427321Y84660D01*
X427336Y84667D01*
X427350Y84681D01*
X427368Y84700D01*
X427394Y84718D01*
X427419Y84736D01*
X427452Y84758D01*
X427521Y84794D01*
X427609Y84831D01*
X427652Y84845D01*
X427703Y84852D01*
X427754Y84860D01*
X427809Y84863D01*
X427816D01*
X427834D01*
X427864Y84860D01*
X427904Y84856D01*
X427947Y84849D01*
X427998Y84834D01*
X428053Y84820D01*
X428107Y84798D01*
X428115Y84794D01*
X428133Y84787D01*
X428162Y84772D01*
X428202Y84751D01*
X428246Y84721D01*
X428300Y84685D01*
X428355Y84641D01*
X428417Y84590D01*
X428424Y84583D01*
X428446Y84565D01*
X428464Y84547D01*
X428482Y84528D01*
X428504Y84507D01*
X428533Y84478D01*
X428562Y84448D01*
X428595Y84412D01*
X428631Y84376D01*
X428672Y84332D01*
X428712Y84285D01*
X428759Y84234D01*
X428806Y84175D01*
X428857Y84117D01*
X428861Y84114D01*
X428868Y84106D01*
X428879Y84092D01*
X428894Y84074D01*
X428916Y84052D01*
X428937Y84026D01*
X428985Y83968D01*
X429039Y83906D01*
X429094Y83848D01*
X429141Y83797D01*
X429159Y83775D01*
X429178Y83757D01*
X429181Y83753D01*
X429192Y83742D01*
X429207Y83728D01*
X429228Y83710D01*
X429254Y83691D01*
X429280Y83670D01*
X429341Y83626D01*
Y84867D01*
X429640D01*
Y83196D01*
D02*
G37*
G36*
Y82137D02*
X427671D01*
X427674Y82133D01*
X427689Y82115D01*
X427711Y82093D01*
X427736Y82057D01*
X427769Y82017D01*
X427805Y81966D01*
X427845Y81908D01*
X427885Y81842D01*
Y81839D01*
X427889Y81835D01*
X427904Y81813D01*
X427922Y81777D01*
X427944Y81733D01*
X427969Y81682D01*
X427994Y81627D01*
X428020Y81573D01*
X428042Y81518D01*
X427743D01*
Y81522D01*
X427736Y81529D01*
X427733Y81544D01*
X427722Y81562D01*
X427711Y81584D01*
X427696Y81609D01*
X427660Y81671D01*
X427620Y81744D01*
X427569Y81817D01*
X427510Y81893D01*
X427449Y81970D01*
X427445Y81973D01*
X427441Y81977D01*
X427430Y81988D01*
X427419Y82002D01*
X427383Y82035D01*
X427339Y82079D01*
X427288Y82122D01*
X427230Y82170D01*
X427172Y82210D01*
X427110Y82246D01*
Y82446D01*
X429640D01*
Y82137D01*
D02*
G37*
G36*
X427907Y80980D02*
X427933Y80976D01*
X427965Y80972D01*
X428002Y80965D01*
X428042Y80958D01*
X428126Y80932D01*
X428169Y80918D01*
X428217Y80896D01*
X428264Y80870D01*
X428308Y80845D01*
X428351Y80812D01*
X428395Y80776D01*
X428399Y80772D01*
X428406Y80765D01*
X428417Y80754D01*
X428428Y80736D01*
X428446Y80714D01*
X428464Y80685D01*
X428486Y80648D01*
X428504Y80608D01*
X428526Y80561D01*
X428548Y80506D01*
X428566Y80448D01*
X428581Y80379D01*
X428595Y80306D01*
X428606Y80226D01*
X428613Y80135D01*
X428617Y80040D01*
Y79396D01*
X429640D01*
Y79061D01*
X427121D01*
Y80095D01*
X427125Y80150D01*
X427128Y80212D01*
X427132Y80277D01*
X427139Y80339D01*
X427146Y80393D01*
Y80401D01*
X427154Y80426D01*
X427161Y80459D01*
X427172Y80503D01*
X427190Y80550D01*
X427212Y80601D01*
X427237Y80656D01*
X427267Y80703D01*
X427270Y80710D01*
X427281Y80725D01*
X427303Y80747D01*
X427328Y80776D01*
X427361Y80808D01*
X427405Y80841D01*
X427452Y80878D01*
X427507Y80907D01*
X427514Y80910D01*
X427532Y80918D01*
X427565Y80932D01*
X427609Y80947D01*
X427660Y80958D01*
X427718Y80972D01*
X427783Y80980D01*
X427853Y80983D01*
X427856D01*
X427867D01*
X427882D01*
X427907Y80980D01*
D02*
G37*
G36*
X216137Y310463D02*
X216166Y310460D01*
X216199Y310453D01*
X216235Y310445D01*
X216276Y310438D01*
X216363Y310409D01*
X216410Y310387D01*
X216454Y310365D01*
X216501Y310336D01*
X216548Y310303D01*
X216596Y310267D01*
X216639Y310223D01*
X216643Y310220D01*
X216650Y310212D01*
X216661Y310198D01*
X216676Y310179D01*
X216694Y310158D01*
X216712Y310128D01*
X216734Y310096D01*
X216752Y310056D01*
X216774Y310016D01*
X216796Y309968D01*
X216814Y309921D01*
X216832Y309866D01*
X216847Y309808D01*
X216858Y309746D01*
X216865Y309684D01*
X216869Y309615D01*
Y309582D01*
X216865Y309561D01*
X216862Y309532D01*
X216858Y309499D01*
X216851Y309462D01*
X216843Y309422D01*
X216822Y309335D01*
X216785Y309244D01*
X216763Y309197D01*
X216738Y309153D01*
X216705Y309109D01*
X216672Y309066D01*
X216669Y309062D01*
X216661Y309055D01*
X216650Y309044D01*
X216636Y309033D01*
X216618Y309015D01*
X216592Y308997D01*
X216567Y308975D01*
X216534Y308953D01*
X216497Y308931D01*
X216461Y308909D01*
X216374Y308869D01*
X216272Y308836D01*
X216217Y308825D01*
X216159Y308818D01*
X216119Y309127D01*
X216123D01*
X216130Y309131D01*
X216144Y309135D01*
X216163Y309138D01*
X216184Y309142D01*
X216210Y309149D01*
X216265Y309168D01*
X216330Y309193D01*
X216392Y309226D01*
X216450Y309262D01*
X216501Y309306D01*
X216505Y309313D01*
X216519Y309328D01*
X216538Y309357D01*
X216556Y309393D01*
X216578Y309437D01*
X216596Y309491D01*
X216610Y309553D01*
X216614Y309619D01*
Y309641D01*
X216610Y309655D01*
X216607Y309695D01*
X216596Y309746D01*
X216578Y309805D01*
X216552Y309866D01*
X216516Y309928D01*
X216465Y309986D01*
X216458Y309994D01*
X216436Y310012D01*
X216403Y310034D01*
X216359Y310063D01*
X216305Y310092D01*
X216243Y310114D01*
X216170Y310132D01*
X216090Y310139D01*
X216086D01*
X216079D01*
X216068D01*
X216054Y310136D01*
X216013Y310132D01*
X215966Y310121D01*
X215908Y310107D01*
X215850Y310081D01*
X215791Y310045D01*
X215737Y309998D01*
X215729Y309990D01*
X215715Y309972D01*
X215693Y309943D01*
X215668Y309903D01*
X215642Y309852D01*
X215620Y309790D01*
X215606Y309721D01*
X215599Y309644D01*
Y309612D01*
X215602Y309586D01*
X215606Y309553D01*
X215613Y309517D01*
X215620Y309473D01*
X215631Y309426D01*
X215358Y309462D01*
Y309481D01*
X215362Y309495D01*
Y309542D01*
X215355Y309582D01*
X215347Y309630D01*
X215336Y309684D01*
X215318Y309746D01*
X215293Y309805D01*
X215260Y309866D01*
Y309870D01*
X215256Y309874D01*
X215242Y309892D01*
X215216Y309917D01*
X215183Y309946D01*
X215136Y309976D01*
X215082Y310001D01*
X215020Y310019D01*
X214983Y310027D01*
X214943D01*
X214940D01*
X214936D01*
X214914D01*
X214885Y310019D01*
X214845Y310012D01*
X214801Y309998D01*
X214754Y309979D01*
X214707Y309950D01*
X214663Y309910D01*
X214659Y309907D01*
X214645Y309888D01*
X214627Y309863D01*
X214605Y309830D01*
X214586Y309786D01*
X214568Y309735D01*
X214554Y309677D01*
X214550Y309612D01*
Y309582D01*
X214557Y309550D01*
X214565Y309506D01*
X214579Y309459D01*
X214598Y309411D01*
X214627Y309361D01*
X214663Y309313D01*
X214667Y309310D01*
X214685Y309295D01*
X214710Y309273D01*
X214747Y309248D01*
X214794Y309222D01*
X214852Y309197D01*
X214921Y309175D01*
X215002Y309160D01*
X214947Y308851D01*
X214943D01*
X214932Y308855D01*
X214918Y308858D01*
X214896Y308862D01*
X214871Y308869D01*
X214841Y308880D01*
X214772Y308902D01*
X214692Y308938D01*
X214612Y308982D01*
X214536Y309036D01*
X214466Y309106D01*
X214463Y309109D01*
X214459Y309117D01*
X214452Y309127D01*
X214441Y309142D01*
X214426Y309160D01*
X214412Y309186D01*
X214397Y309211D01*
X214379Y309244D01*
X214350Y309317D01*
X214321Y309401D01*
X214303Y309499D01*
X214295Y309550D01*
Y309641D01*
X214299Y309681D01*
X214306Y309728D01*
X214317Y309786D01*
X214335Y309852D01*
X214357Y309917D01*
X214386Y309983D01*
Y309986D01*
X214390Y309990D01*
X214401Y310012D01*
X214423Y310045D01*
X214448Y310081D01*
X214485Y310125D01*
X214525Y310169D01*
X214572Y310212D01*
X214627Y310249D01*
X214634Y310252D01*
X214652Y310263D01*
X214685Y310278D01*
X214725Y310296D01*
X214772Y310314D01*
X214827Y310329D01*
X214889Y310340D01*
X214950Y310343D01*
X214958D01*
X214980D01*
X215009Y310340D01*
X215049Y310332D01*
X215096Y310321D01*
X215147Y310303D01*
X215198Y310281D01*
X215249Y310252D01*
X215256Y310249D01*
X215271Y310238D01*
X215296Y310216D01*
X215325Y310187D01*
X215358Y310150D01*
X215395Y310107D01*
X215427Y310056D01*
X215460Y309994D01*
Y309998D01*
X215464Y310005D01*
X215467Y310016D01*
X215471Y310030D01*
X215486Y310070D01*
X215508Y310121D01*
X215537Y310179D01*
X215573Y310238D01*
X215620Y310292D01*
X215675Y310343D01*
X215682Y310347D01*
X215704Y310362D01*
X215740Y310383D01*
X215788Y310405D01*
X215846Y310427D01*
X215915Y310449D01*
X215995Y310463D01*
X216083Y310467D01*
X216086D01*
X216097D01*
X216115D01*
X216137Y310463D01*
D02*
G37*
G36*
X216825Y307712D02*
X214856D01*
X214860Y307708D01*
X214874Y307690D01*
X214896Y307668D01*
X214921Y307631D01*
X214954Y307591D01*
X214991Y307540D01*
X215031Y307482D01*
X215071Y307417D01*
Y307413D01*
X215074Y307409D01*
X215089Y307388D01*
X215107Y307351D01*
X215129Y307308D01*
X215154Y307257D01*
X215180Y307202D01*
X215205Y307147D01*
X215227Y307093D01*
X214929D01*
Y307096D01*
X214921Y307104D01*
X214918Y307118D01*
X214907Y307136D01*
X214896Y307158D01*
X214881Y307184D01*
X214845Y307246D01*
X214805Y307318D01*
X214754Y307391D01*
X214696Y307468D01*
X214634Y307544D01*
X214630Y307548D01*
X214627Y307551D01*
X214616Y307562D01*
X214605Y307577D01*
X214568Y307610D01*
X214525Y307653D01*
X214474Y307697D01*
X214416Y307744D01*
X214357Y307784D01*
X214295Y307821D01*
Y308021D01*
X216825D01*
Y307712D01*
D02*
G37*
G36*
X215092Y306554D02*
X215118Y306550D01*
X215151Y306547D01*
X215187Y306540D01*
X215227Y306532D01*
X215311Y306507D01*
X215355Y306492D01*
X215402Y306470D01*
X215449Y306445D01*
X215493Y306419D01*
X215537Y306387D01*
X215580Y306350D01*
X215584Y306347D01*
X215591Y306339D01*
X215602Y306328D01*
X215613Y306310D01*
X215631Y306288D01*
X215649Y306259D01*
X215671Y306223D01*
X215689Y306183D01*
X215711Y306135D01*
X215733Y306081D01*
X215751Y306023D01*
X215766Y305953D01*
X215780Y305881D01*
X215791Y305801D01*
X215799Y305710D01*
X215802Y305615D01*
Y304971D01*
X216825D01*
Y304636D01*
X214306D01*
Y305669D01*
X214310Y305724D01*
X214314Y305786D01*
X214317Y305852D01*
X214324Y305913D01*
X214332Y305968D01*
Y305975D01*
X214339Y306001D01*
X214346Y306033D01*
X214357Y306077D01*
X214375Y306124D01*
X214397Y306175D01*
X214423Y306230D01*
X214452Y306277D01*
X214456Y306285D01*
X214466Y306299D01*
X214488Y306321D01*
X214514Y306350D01*
X214546Y306383D01*
X214590Y306416D01*
X214637Y306452D01*
X214692Y306481D01*
X214699Y306485D01*
X214718Y306492D01*
X214750Y306507D01*
X214794Y306521D01*
X214845Y306532D01*
X214903Y306547D01*
X214969Y306554D01*
X215038Y306558D01*
X215041D01*
X215053D01*
X215067D01*
X215092Y306554D01*
D02*
G37*
G36*
X195222Y310125D02*
X195826D01*
Y309816D01*
X195222D01*
Y308720D01*
X194938D01*
X193307Y309874D01*
Y310125D01*
X194938D01*
Y310467D01*
X195222D01*
Y310125D01*
D02*
G37*
G36*
X195826Y307722D02*
X193857D01*
X193860Y307719D01*
X193875Y307701D01*
X193897Y307679D01*
X193922Y307642D01*
X193955Y307602D01*
X193991Y307551D01*
X194032Y307493D01*
X194072Y307428D01*
Y307424D01*
X194075Y307420D01*
X194090Y307399D01*
X194108Y307362D01*
X194130Y307318D01*
X194155Y307267D01*
X194181Y307213D01*
X194206Y307158D01*
X194228Y307104D01*
X193930D01*
Y307107D01*
X193922Y307115D01*
X193919Y307129D01*
X193908Y307147D01*
X193897Y307169D01*
X193882Y307195D01*
X193846Y307257D01*
X193806Y307329D01*
X193755Y307402D01*
X193697Y307479D01*
X193635Y307555D01*
X193631Y307559D01*
X193628Y307562D01*
X193617Y307573D01*
X193606Y307588D01*
X193569Y307621D01*
X193526Y307664D01*
X193475Y307708D01*
X193416Y307755D01*
X193358Y307795D01*
X193296Y307832D01*
Y308032D01*
X195826D01*
Y307722D01*
D02*
G37*
G36*
X194093Y306565D02*
X194119Y306561D01*
X194152Y306558D01*
X194188Y306550D01*
X194228Y306543D01*
X194312Y306518D01*
X194355Y306503D01*
X194403Y306481D01*
X194450Y306456D01*
X194494Y306430D01*
X194537Y306398D01*
X194581Y306361D01*
X194585Y306358D01*
X194592Y306350D01*
X194603Y306339D01*
X194614Y306321D01*
X194632Y306299D01*
X194650Y306270D01*
X194672Y306234D01*
X194690Y306194D01*
X194712Y306146D01*
X194734Y306092D01*
X194752Y306033D01*
X194767Y305964D01*
X194781Y305892D01*
X194792Y305812D01*
X194800Y305720D01*
X194803Y305626D01*
Y304982D01*
X195826D01*
Y304647D01*
X193307D01*
Y305680D01*
X193311Y305735D01*
X193315Y305797D01*
X193318Y305862D01*
X193325Y305924D01*
X193333Y305979D01*
Y305986D01*
X193340Y306012D01*
X193347Y306044D01*
X193358Y306088D01*
X193376Y306135D01*
X193398Y306186D01*
X193424Y306241D01*
X193453Y306288D01*
X193456Y306296D01*
X193467Y306310D01*
X193489Y306332D01*
X193515Y306361D01*
X193547Y306394D01*
X193591Y306427D01*
X193638Y306463D01*
X193693Y306492D01*
X193700Y306496D01*
X193719Y306503D01*
X193751Y306518D01*
X193795Y306532D01*
X193846Y306543D01*
X193904Y306558D01*
X193970Y306565D01*
X194039Y306569D01*
X194043D01*
X194053D01*
X194068D01*
X194093Y306565D01*
D02*
G37*
G36*
X173946Y310463D02*
X173975Y310460D01*
X174008Y310456D01*
X174048Y310449D01*
X174088Y310442D01*
X174183Y310420D01*
X174281Y310383D01*
X174332Y310362D01*
X174379Y310332D01*
X174430Y310303D01*
X174478Y310267D01*
X174481Y310263D01*
X174492Y310256D01*
X174507Y310241D01*
X174525Y310223D01*
X174547Y310198D01*
X174576Y310169D01*
X174601Y310132D01*
X174630Y310092D01*
X174660Y310048D01*
X174685Y309998D01*
X174711Y309943D01*
X174736Y309885D01*
X174754Y309823D01*
X174769Y309754D01*
X174780Y309681D01*
X174783Y309604D01*
Y309572D01*
X174780Y309546D01*
X174776Y309517D01*
X174772Y309484D01*
X174769Y309444D01*
X174758Y309404D01*
X174736Y309313D01*
X174703Y309222D01*
X174681Y309175D01*
X174656Y309127D01*
X174627Y309084D01*
X174594Y309040D01*
X174590Y309036D01*
X174587Y309029D01*
X174572Y309022D01*
X174558Y309007D01*
X174539Y308989D01*
X174518Y308971D01*
X174488Y308949D01*
X174456Y308931D01*
X174423Y308909D01*
X174383Y308887D01*
X174296Y308847D01*
X174194Y308815D01*
X174139Y308804D01*
X174081Y308796D01*
X174055Y309120D01*
X174059D01*
X174066D01*
X174077Y309124D01*
X174095Y309127D01*
X174135Y309138D01*
X174190Y309153D01*
X174245Y309175D01*
X174306Y309204D01*
X174361Y309240D01*
X174412Y309284D01*
X174416Y309291D01*
X174430Y309306D01*
X174449Y309335D01*
X174470Y309375D01*
X174492Y309419D01*
X174510Y309473D01*
X174525Y309535D01*
X174529Y309604D01*
Y309626D01*
X174525Y309641D01*
X174521Y309684D01*
X174507Y309735D01*
X174488Y309797D01*
X174459Y309859D01*
X174416Y309925D01*
X174390Y309954D01*
X174361Y309983D01*
X174357Y309986D01*
X174354Y309990D01*
X174343Y309998D01*
X174332Y310008D01*
X174292Y310034D01*
X174241Y310063D01*
X174179Y310088D01*
X174103Y310114D01*
X174012Y310132D01*
X173964Y310139D01*
X173913D01*
X173910D01*
X173902D01*
X173888D01*
X173870Y310136D01*
X173848D01*
X173822Y310132D01*
X173764Y310121D01*
X173695Y310103D01*
X173626Y310078D01*
X173560Y310041D01*
X173498Y309990D01*
X173495D01*
X173491Y309983D01*
X173473Y309965D01*
X173448Y309932D01*
X173418Y309888D01*
X173393Y309830D01*
X173367Y309765D01*
X173349Y309688D01*
X173342Y309644D01*
Y309575D01*
X173345Y309546D01*
X173349Y309510D01*
X173360Y309466D01*
X173371Y309422D01*
X173389Y309375D01*
X173411Y309328D01*
X173415Y309324D01*
X173422Y309310D01*
X173440Y309288D01*
X173458Y309259D01*
X173484Y309229D01*
X173517Y309200D01*
X173549Y309168D01*
X173589Y309142D01*
X173549Y308851D01*
X172254Y309095D01*
Y310347D01*
X172548D01*
Y309339D01*
X173229Y309204D01*
X173225Y309208D01*
X173222Y309215D01*
X173214Y309226D01*
X173204Y309244D01*
X173193Y309266D01*
X173178Y309291D01*
X173149Y309349D01*
X173120Y309422D01*
X173094Y309502D01*
X173076Y309590D01*
X173069Y309633D01*
Y309714D01*
X173073Y309735D01*
X173076Y309765D01*
X173080Y309797D01*
X173087Y309834D01*
X173098Y309874D01*
X173124Y309961D01*
X173142Y310008D01*
X173167Y310056D01*
X173193Y310103D01*
X173222Y310150D01*
X173258Y310194D01*
X173298Y310238D01*
X173302Y310241D01*
X173309Y310249D01*
X173320Y310260D01*
X173338Y310274D01*
X173364Y310292D01*
X173389Y310311D01*
X173422Y310332D01*
X173458Y310354D01*
X173498Y310372D01*
X173542Y310394D01*
X173593Y310412D01*
X173644Y310431D01*
X173699Y310445D01*
X173760Y310456D01*
X173822Y310463D01*
X173888Y310467D01*
X173891D01*
X173902D01*
X173921D01*
X173946Y310463D01*
D02*
G37*
G36*
X174740Y307693D02*
X172770D01*
X172774Y307690D01*
X172789Y307671D01*
X172810Y307650D01*
X172836Y307613D01*
X172869Y307573D01*
X172905Y307522D01*
X172945Y307464D01*
X172985Y307399D01*
Y307395D01*
X172989Y307391D01*
X173003Y307369D01*
X173022Y307333D01*
X173043Y307289D01*
X173069Y307238D01*
X173094Y307184D01*
X173120Y307129D01*
X173142Y307074D01*
X172843D01*
Y307078D01*
X172836Y307085D01*
X172832Y307100D01*
X172821Y307118D01*
X172810Y307140D01*
X172796Y307166D01*
X172759Y307227D01*
X172720Y307300D01*
X172669Y307373D01*
X172610Y307450D01*
X172548Y307526D01*
X172545Y307530D01*
X172541Y307533D01*
X172530Y307544D01*
X172519Y307559D01*
X172483Y307591D01*
X172439Y307635D01*
X172388Y307679D01*
X172330Y307726D01*
X172272Y307766D01*
X172210Y307803D01*
Y308003D01*
X174740D01*
Y307693D01*
D02*
G37*
G36*
X173007Y306536D02*
X173032Y306532D01*
X173065Y306528D01*
X173102Y306521D01*
X173142Y306514D01*
X173225Y306488D01*
X173269Y306474D01*
X173316Y306452D01*
X173364Y306427D01*
X173407Y306401D01*
X173451Y306368D01*
X173495Y306332D01*
X173498Y306328D01*
X173506Y306321D01*
X173517Y306310D01*
X173528Y306292D01*
X173546Y306270D01*
X173564Y306241D01*
X173586Y306205D01*
X173604Y306165D01*
X173626Y306117D01*
X173648Y306063D01*
X173666Y306004D01*
X173680Y305935D01*
X173695Y305862D01*
X173706Y305782D01*
X173713Y305691D01*
X173717Y305597D01*
Y304952D01*
X174740D01*
Y304618D01*
X172221D01*
Y305651D01*
X172224Y305706D01*
X172228Y305768D01*
X172232Y305833D01*
X172239Y305895D01*
X172246Y305950D01*
Y305957D01*
X172254Y305982D01*
X172261Y306015D01*
X172272Y306059D01*
X172290Y306106D01*
X172312Y306157D01*
X172337Y306212D01*
X172366Y306259D01*
X172370Y306266D01*
X172381Y306281D01*
X172403Y306303D01*
X172428Y306332D01*
X172461Y306365D01*
X172505Y306398D01*
X172552Y306434D01*
X172607Y306463D01*
X172614Y306467D01*
X172632Y306474D01*
X172665Y306488D01*
X172708Y306503D01*
X172759Y306514D01*
X172818Y306528D01*
X172883Y306536D01*
X172952Y306540D01*
X172956D01*
X172967D01*
X172982D01*
X173007Y306536D01*
D02*
G37*
G36*
X152943Y310463D02*
X152965D01*
X153024Y310453D01*
X153093Y310442D01*
X153165Y310423D01*
X153246Y310398D01*
X153322Y310362D01*
X153326D01*
X153329Y310358D01*
X153340Y310351D01*
X153355Y310343D01*
X153391Y310321D01*
X153438Y310289D01*
X153489Y310249D01*
X153540Y310201D01*
X153591Y310143D01*
X153635Y310081D01*
Y310078D01*
X153639Y310074D01*
X153646Y310063D01*
X153650Y310048D01*
X153668Y310012D01*
X153686Y309965D01*
X153708Y309903D01*
X153722Y309834D01*
X153737Y309757D01*
X153741Y309674D01*
Y309655D01*
X153737Y309637D01*
Y309608D01*
X153733Y309575D01*
X153726Y309539D01*
X153715Y309495D01*
X153704Y309452D01*
X153690Y309401D01*
X153671Y309349D01*
X153650Y309299D01*
X153621Y309244D01*
X153588Y309193D01*
X153551Y309142D01*
X153508Y309091D01*
X153457Y309044D01*
X153453Y309040D01*
X153442Y309033D01*
X153428Y309022D01*
X153402Y309007D01*
X153369Y308986D01*
X153333Y308967D01*
X153286Y308945D01*
X153235Y308924D01*
X153173Y308898D01*
X153104Y308876D01*
X153027Y308858D01*
X152943Y308840D01*
X152849Y308822D01*
X152747Y308811D01*
X152638Y308804D01*
X152521Y308800D01*
X152518D01*
X152514D01*
X152503D01*
X152488D01*
X152452Y308804D01*
X152401D01*
X152343Y308807D01*
X152274Y308815D01*
X152197Y308822D01*
X152113Y308833D01*
X152030Y308847D01*
X151939Y308865D01*
X151851Y308887D01*
X151764Y308913D01*
X151680Y308945D01*
X151600Y308982D01*
X151524Y309022D01*
X151458Y309069D01*
X151455Y309073D01*
X151447Y309080D01*
X151433Y309095D01*
X151411Y309113D01*
X151389Y309135D01*
X151367Y309164D01*
X151338Y309200D01*
X151313Y309237D01*
X151287Y309280D01*
X151258Y309328D01*
X151236Y309382D01*
X151211Y309437D01*
X151193Y309499D01*
X151178Y309564D01*
X151171Y309633D01*
X151167Y309706D01*
Y309735D01*
X151171Y309757D01*
Y309783D01*
X151174Y309812D01*
X151189Y309881D01*
X151207Y309957D01*
X151236Y310037D01*
X151280Y310118D01*
X151305Y310158D01*
X151335Y310194D01*
X151338Y310198D01*
X151342Y310201D01*
X151353Y310212D01*
X151364Y310223D01*
X151382Y310241D01*
X151404Y310256D01*
X151455Y310296D01*
X151520Y310336D01*
X151600Y310372D01*
X151691Y310405D01*
X151793Y310427D01*
X151819Y310118D01*
X151815D01*
X151811Y310114D01*
X151790Y310110D01*
X151757Y310099D01*
X151717Y310085D01*
X151673Y310070D01*
X151629Y310048D01*
X151589Y310023D01*
X151557Y309998D01*
X151549Y309990D01*
X151535Y309976D01*
X151513Y309950D01*
X151487Y309914D01*
X151466Y309866D01*
X151444Y309816D01*
X151429Y309754D01*
X151422Y309688D01*
Y309663D01*
X151426Y309633D01*
X151433Y309601D01*
X151444Y309557D01*
X151458Y309513D01*
X151477Y309470D01*
X151506Y309426D01*
X151509Y309419D01*
X151524Y309401D01*
X151549Y309375D01*
X151586Y309342D01*
X151629Y309306D01*
X151680Y309266D01*
X151746Y309229D01*
X151819Y309193D01*
X151822D01*
X151830Y309189D01*
X151840Y309186D01*
X151855Y309178D01*
X151877Y309175D01*
X151902Y309168D01*
X151932Y309160D01*
X151968Y309153D01*
X152008Y309142D01*
X152052Y309135D01*
X152099Y309127D01*
X152150Y309124D01*
X152208Y309117D01*
X152266Y309113D01*
X152332Y309109D01*
X152397D01*
X152394Y309113D01*
X152372Y309127D01*
X152343Y309153D01*
X152306Y309186D01*
X152263Y309222D01*
X152223Y309269D01*
X152183Y309320D01*
X152146Y309379D01*
Y309382D01*
X152143Y309386D01*
X152132Y309408D01*
X152121Y309440D01*
X152103Y309484D01*
X152088Y309535D01*
X152077Y309593D01*
X152066Y309655D01*
X152063Y309721D01*
Y309750D01*
X152066Y309772D01*
X152070Y309801D01*
X152074Y309830D01*
X152081Y309866D01*
X152092Y309903D01*
X152117Y309986D01*
X152135Y310030D01*
X152161Y310074D01*
X152186Y310118D01*
X152215Y310165D01*
X152252Y310209D01*
X152292Y310249D01*
X152295Y310252D01*
X152303Y310260D01*
X152314Y310271D01*
X152332Y310281D01*
X152357Y310300D01*
X152383Y310318D01*
X152416Y310336D01*
X152452Y310358D01*
X152492Y310380D01*
X152536Y310398D01*
X152587Y310416D01*
X152638Y310434D01*
X152692Y310445D01*
X152754Y310456D01*
X152816Y310463D01*
X152882Y310467D01*
X152885D01*
X152892D01*
X152903D01*
X152922D01*
X152943Y310463D01*
D02*
G37*
G36*
X153697Y307712D02*
X151728D01*
X151731Y307708D01*
X151746Y307690D01*
X151768Y307668D01*
X151793Y307631D01*
X151826Y307591D01*
X151862Y307540D01*
X151902Y307482D01*
X151942Y307417D01*
Y307413D01*
X151946Y307409D01*
X151961Y307388D01*
X151979Y307351D01*
X152001Y307308D01*
X152026Y307257D01*
X152052Y307202D01*
X152077Y307147D01*
X152099Y307093D01*
X151801D01*
Y307096D01*
X151793Y307104D01*
X151790Y307118D01*
X151779Y307136D01*
X151768Y307158D01*
X151753Y307184D01*
X151717Y307246D01*
X151677Y307318D01*
X151626Y307391D01*
X151567Y307468D01*
X151506Y307544D01*
X151502Y307548D01*
X151498Y307551D01*
X151487Y307562D01*
X151477Y307577D01*
X151440Y307610D01*
X151396Y307653D01*
X151346Y307697D01*
X151287Y307744D01*
X151229Y307784D01*
X151167Y307821D01*
Y308021D01*
X153697D01*
Y307712D01*
D02*
G37*
G36*
X151964Y306554D02*
X151990Y306550D01*
X152023Y306547D01*
X152059Y306540D01*
X152099Y306532D01*
X152183Y306507D01*
X152226Y306492D01*
X152274Y306470D01*
X152321Y306445D01*
X152365Y306419D01*
X152408Y306387D01*
X152452Y306350D01*
X152456Y306347D01*
X152463Y306339D01*
X152474Y306328D01*
X152485Y306310D01*
X152503Y306288D01*
X152521Y306259D01*
X152543Y306223D01*
X152561Y306183D01*
X152583Y306135D01*
X152605Y306081D01*
X152623Y306023D01*
X152638Y305953D01*
X152652Y305881D01*
X152663Y305801D01*
X152670Y305710D01*
X152674Y305615D01*
Y304971D01*
X153697D01*
Y304636D01*
X151178D01*
Y305669D01*
X151182Y305724D01*
X151185Y305786D01*
X151189Y305852D01*
X151196Y305913D01*
X151204Y305968D01*
Y305975D01*
X151211Y306001D01*
X151218Y306033D01*
X151229Y306077D01*
X151247Y306124D01*
X151269Y306175D01*
X151295Y306230D01*
X151324Y306277D01*
X151327Y306285D01*
X151338Y306299D01*
X151360Y306321D01*
X151385Y306350D01*
X151418Y306383D01*
X151462Y306416D01*
X151509Y306452D01*
X151564Y306481D01*
X151571Y306485D01*
X151589Y306492D01*
X151622Y306507D01*
X151666Y306521D01*
X151717Y306532D01*
X151775Y306547D01*
X151840Y306554D01*
X151910Y306558D01*
X151913D01*
X151924D01*
X151939D01*
X151964Y306554D01*
D02*
G37*
G36*
X256716Y310463D02*
X256723Y310456D01*
X256737Y310442D01*
X256759Y310427D01*
X256785Y310405D01*
X256814Y310376D01*
X256850Y310347D01*
X256894Y310314D01*
X256938Y310281D01*
X256989Y310241D01*
X257047Y310201D01*
X257105Y310161D01*
X257171Y310118D01*
X257240Y310074D01*
X257316Y310030D01*
X257393Y309986D01*
X257396Y309983D01*
X257411Y309976D01*
X257433Y309965D01*
X257466Y309946D01*
X257506Y309928D01*
X257549Y309907D01*
X257600Y309881D01*
X257659Y309856D01*
X257724Y309826D01*
X257789Y309794D01*
X257862Y309765D01*
X257939Y309735D01*
X258095Y309677D01*
X258263Y309623D01*
X258266D01*
X258277Y309619D01*
X258295Y309615D01*
X258317Y309608D01*
X258346Y309601D01*
X258383Y309593D01*
X258423Y309582D01*
X258467Y309575D01*
X258518Y309564D01*
X258572Y309553D01*
X258689Y309535D01*
X258816Y309517D01*
X258954Y309506D01*
Y309189D01*
X258951D01*
X258940D01*
X258925D01*
X258903Y309193D01*
X258874D01*
X258838Y309197D01*
X258798Y309200D01*
X258754Y309204D01*
X258703Y309211D01*
X258652Y309219D01*
X258590Y309229D01*
X258528Y309240D01*
X258463Y309251D01*
X258390Y309266D01*
X258241Y309302D01*
X258237D01*
X258223Y309306D01*
X258201Y309313D01*
X258168Y309324D01*
X258132Y309335D01*
X258088Y309349D01*
X258037Y309364D01*
X257982Y309386D01*
X257921Y309408D01*
X257859Y309430D01*
X257720Y309484D01*
X257575Y309550D01*
X257429Y309623D01*
X257425Y309626D01*
X257411Y309633D01*
X257393Y309644D01*
X257364Y309659D01*
X257331Y309677D01*
X257291Y309703D01*
X257247Y309728D01*
X257200Y309757D01*
X257094Y309826D01*
X256985Y309899D01*
X256872Y309983D01*
X256767Y310070D01*
Y308836D01*
X256468D01*
Y310467D01*
X256712D01*
X256716Y310463D01*
D02*
G37*
G36*
X258954Y307712D02*
X256985D01*
X256989Y307708D01*
X257003Y307690D01*
X257025Y307668D01*
X257051Y307631D01*
X257083Y307591D01*
X257120Y307540D01*
X257160Y307482D01*
X257200Y307417D01*
Y307413D01*
X257204Y307409D01*
X257218Y307388D01*
X257236Y307351D01*
X257258Y307308D01*
X257283Y307257D01*
X257309Y307202D01*
X257334Y307147D01*
X257356Y307093D01*
X257058D01*
Y307096D01*
X257051Y307104D01*
X257047Y307118D01*
X257036Y307136D01*
X257025Y307158D01*
X257011Y307184D01*
X256974Y307246D01*
X256934Y307318D01*
X256883Y307391D01*
X256825Y307468D01*
X256763Y307544D01*
X256759Y307548D01*
X256756Y307551D01*
X256745Y307562D01*
X256734Y307577D01*
X256698Y307610D01*
X256654Y307653D01*
X256603Y307697D01*
X256545Y307744D01*
X256486Y307784D01*
X256424Y307821D01*
Y308021D01*
X258954D01*
Y307712D01*
D02*
G37*
G36*
X257222Y306554D02*
X257247Y306550D01*
X257280Y306547D01*
X257316Y306540D01*
X257356Y306532D01*
X257440Y306507D01*
X257484Y306492D01*
X257531Y306470D01*
X257578Y306445D01*
X257622Y306419D01*
X257666Y306387D01*
X257709Y306350D01*
X257713Y306347D01*
X257720Y306339D01*
X257731Y306328D01*
X257742Y306310D01*
X257760Y306288D01*
X257779Y306259D01*
X257800Y306223D01*
X257819Y306183D01*
X257840Y306135D01*
X257862Y306081D01*
X257880Y306023D01*
X257895Y305953D01*
X257910Y305881D01*
X257921Y305801D01*
X257928Y305710D01*
X257931Y305615D01*
Y304971D01*
X258954D01*
Y304636D01*
X256435D01*
Y305669D01*
X256439Y305724D01*
X256443Y305786D01*
X256446Y305852D01*
X256454Y305913D01*
X256461Y305968D01*
Y305975D01*
X256468Y306001D01*
X256475Y306033D01*
X256486Y306077D01*
X256505Y306124D01*
X256526Y306175D01*
X256552Y306230D01*
X256581Y306277D01*
X256585Y306285D01*
X256596Y306299D01*
X256617Y306321D01*
X256643Y306350D01*
X256676Y306383D01*
X256719Y306416D01*
X256767Y306452D01*
X256821Y306481D01*
X256828Y306485D01*
X256847Y306492D01*
X256879Y306507D01*
X256923Y306521D01*
X256974Y306532D01*
X257032Y306547D01*
X257098Y306554D01*
X257167Y306558D01*
X257171D01*
X257182D01*
X257196D01*
X257222Y306554D01*
D02*
G37*
G36*
X279291Y310463D02*
X279316Y310460D01*
X279349Y310456D01*
X279385Y310449D01*
X279426Y310438D01*
X279509Y310412D01*
X279557Y310394D01*
X279600Y310369D01*
X279648Y310343D01*
X279691Y310314D01*
X279735Y310278D01*
X279779Y310238D01*
X279782Y310234D01*
X279790Y310227D01*
X279801Y310216D01*
X279811Y310198D01*
X279830Y310172D01*
X279848Y310147D01*
X279866Y310114D01*
X279888Y310078D01*
X279910Y310037D01*
X279928Y309990D01*
X279946Y309939D01*
X279964Y309888D01*
X279975Y309830D01*
X279986Y309768D01*
X279993Y309706D01*
X279997Y309637D01*
Y309601D01*
X279993Y309575D01*
X279990Y309542D01*
X279986Y309506D01*
X279979Y309466D01*
X279968Y309422D01*
X279942Y309324D01*
X279924Y309273D01*
X279906Y309226D01*
X279881Y309175D01*
X279851Y309124D01*
X279819Y309076D01*
X279779Y309033D01*
X279775Y309029D01*
X279768Y309022D01*
X279757Y309011D01*
X279739Y308997D01*
X279717Y308982D01*
X279691Y308960D01*
X279662Y308942D01*
X279626Y308920D01*
X279589Y308898D01*
X279546Y308880D01*
X279455Y308844D01*
X279400Y308829D01*
X279345Y308818D01*
X279287Y308811D01*
X279229Y308807D01*
X279225D01*
X279218D01*
X279204D01*
X279189Y308811D01*
X279167D01*
X279142Y308815D01*
X279083Y308822D01*
X279018Y308836D01*
X278952Y308858D01*
X278883Y308891D01*
X278818Y308931D01*
X278814D01*
X278810Y308938D01*
X278792Y308953D01*
X278763Y308982D01*
X278727Y309022D01*
X278690Y309073D01*
X278650Y309135D01*
X278618Y309204D01*
X278592Y309288D01*
Y309284D01*
X278588Y309280D01*
X278585Y309269D01*
X278577Y309255D01*
X278563Y309222D01*
X278541Y309178D01*
X278512Y309131D01*
X278475Y309084D01*
X278435Y309040D01*
X278392Y309000D01*
X278384Y308997D01*
X278370Y308986D01*
X278341Y308971D01*
X278304Y308956D01*
X278257Y308938D01*
X278203Y308924D01*
X278141Y308913D01*
X278075Y308909D01*
X278071D01*
X278064D01*
X278050D01*
X278028Y308913D01*
X278006Y308916D01*
X277977Y308920D01*
X277915Y308935D01*
X277842Y308956D01*
X277766Y308993D01*
X277726Y309015D01*
X277686Y309040D01*
X277649Y309073D01*
X277613Y309106D01*
X277609Y309109D01*
X277606Y309117D01*
X277595Y309127D01*
X277584Y309142D01*
X277569Y309160D01*
X277555Y309186D01*
X277536Y309215D01*
X277518Y309244D01*
X277500Y309280D01*
X277482Y309320D01*
X277467Y309364D01*
X277453Y309411D01*
X277431Y309513D01*
X277427Y309572D01*
X277424Y309630D01*
Y309663D01*
X277427Y309684D01*
X277431Y309714D01*
X277434Y309746D01*
X277438Y309783D01*
X277449Y309819D01*
X277471Y309907D01*
X277504Y309994D01*
X277525Y310037D01*
X277551Y310081D01*
X277584Y310121D01*
X277617Y310161D01*
X277620Y310165D01*
X277624Y310169D01*
X277635Y310179D01*
X277649Y310194D01*
X277671Y310209D01*
X277693Y310227D01*
X277748Y310263D01*
X277817Y310300D01*
X277897Y310332D01*
X277988Y310358D01*
X278035Y310362D01*
X278086Y310365D01*
X278090D01*
X278093D01*
X278115D01*
X278148Y310362D01*
X278188Y310354D01*
X278239Y310343D01*
X278290Y310325D01*
X278341Y310303D01*
X278392Y310271D01*
X278399Y310267D01*
X278414Y310252D01*
X278435Y310230D01*
X278465Y310201D01*
X278497Y310161D01*
X278530Y310114D01*
X278563Y310059D01*
X278592Y309994D01*
Y309998D01*
X278596Y310005D01*
X278599Y310016D01*
X278607Y310030D01*
X278625Y310074D01*
X278650Y310125D01*
X278687Y310179D01*
X278727Y310238D01*
X278778Y310292D01*
X278836Y310343D01*
X278839D01*
X278843Y310347D01*
X278865Y310362D01*
X278901Y310383D01*
X278949Y310405D01*
X279007Y310427D01*
X279076Y310449D01*
X279153Y310463D01*
X279236Y310467D01*
X279240D01*
X279251D01*
X279269D01*
X279291Y310463D01*
D02*
G37*
G36*
X279953Y307708D02*
X277984D01*
X277988Y307704D01*
X278002Y307686D01*
X278024Y307664D01*
X278050Y307628D01*
X278082Y307588D01*
X278119Y307537D01*
X278159Y307479D01*
X278199Y307413D01*
Y307409D01*
X278203Y307406D01*
X278217Y307384D01*
X278235Y307348D01*
X278257Y307304D01*
X278283Y307253D01*
X278308Y307198D01*
X278334Y307144D01*
X278355Y307089D01*
X278057D01*
Y307093D01*
X278050Y307100D01*
X278046Y307115D01*
X278035Y307133D01*
X278024Y307155D01*
X278010Y307180D01*
X277973Y307242D01*
X277933Y307315D01*
X277882Y307388D01*
X277824Y307464D01*
X277762Y307540D01*
X277758Y307544D01*
X277755Y307548D01*
X277744Y307559D01*
X277733Y307573D01*
X277697Y307606D01*
X277653Y307650D01*
X277602Y307693D01*
X277544Y307741D01*
X277485Y307781D01*
X277424Y307817D01*
Y308017D01*
X279953D01*
Y307708D01*
D02*
G37*
G36*
X278221Y306550D02*
X278246Y306547D01*
X278279Y306543D01*
X278315Y306536D01*
X278355Y306528D01*
X278439Y306503D01*
X278483Y306488D01*
X278530Y306467D01*
X278577Y306441D01*
X278621Y306416D01*
X278665Y306383D01*
X278709Y306347D01*
X278712Y306343D01*
X278719Y306336D01*
X278730Y306325D01*
X278741Y306307D01*
X278759Y306285D01*
X278778Y306256D01*
X278800Y306219D01*
X278818Y306179D01*
X278839Y306132D01*
X278861Y306077D01*
X278880Y306019D01*
X278894Y305950D01*
X278909Y305877D01*
X278920Y305797D01*
X278927Y305706D01*
X278930Y305611D01*
Y304967D01*
X279953D01*
Y304632D01*
X277434D01*
Y305666D01*
X277438Y305720D01*
X277442Y305782D01*
X277445Y305848D01*
X277453Y305910D01*
X277460Y305964D01*
Y305972D01*
X277467Y305997D01*
X277474Y306030D01*
X277485Y306073D01*
X277504Y306121D01*
X277525Y306172D01*
X277551Y306226D01*
X277580Y306274D01*
X277584Y306281D01*
X277595Y306296D01*
X277617Y306317D01*
X277642Y306347D01*
X277675Y306379D01*
X277718Y306412D01*
X277766Y306449D01*
X277820Y306478D01*
X277828Y306481D01*
X277846Y306488D01*
X277879Y306503D01*
X277922Y306518D01*
X277973Y306528D01*
X278031Y306543D01*
X278097Y306550D01*
X278166Y306554D01*
X278170D01*
X278181D01*
X278195D01*
X278221Y306550D01*
D02*
G37*
G36*
X236678Y310463D02*
X236725D01*
X236779Y310460D01*
X236834Y310453D01*
X236958Y310442D01*
X237089Y310423D01*
X237213Y310398D01*
X237275Y310380D01*
X237329Y310362D01*
X237333D01*
X237340Y310358D01*
X237355Y310351D01*
X237376Y310343D01*
X237398Y310332D01*
X237427Y310318D01*
X237489Y310281D01*
X237559Y310238D01*
X237631Y310187D01*
X237700Y310121D01*
X237762Y310048D01*
Y310045D01*
X237770Y310037D01*
X237777Y310027D01*
X237784Y310012D01*
X237795Y309990D01*
X237810Y309968D01*
X237824Y309939D01*
X237835Y309910D01*
X237864Y309841D01*
X237890Y309757D01*
X237904Y309666D01*
X237912Y309564D01*
Y309535D01*
X237908Y309517D01*
Y309491D01*
X237904Y309462D01*
X237890Y309393D01*
X237872Y309317D01*
X237842Y309237D01*
X237802Y309157D01*
X237777Y309117D01*
X237748Y309080D01*
X237744Y309076D01*
X237740Y309073D01*
X237730Y309062D01*
X237719Y309051D01*
X237700Y309036D01*
X237679Y309018D01*
X237628Y308982D01*
X237562Y308945D01*
X237482Y308909D01*
X237391Y308880D01*
X237285Y308858D01*
X237260Y309157D01*
X237264D01*
X237271Y309160D01*
X237278D01*
X237293Y309164D01*
X237333Y309175D01*
X237376Y309189D01*
X237427Y309208D01*
X237478Y309233D01*
X237526Y309262D01*
X237566Y309299D01*
X237569Y309302D01*
X237580Y309317D01*
X237595Y309342D01*
X237609Y309371D01*
X237628Y309411D01*
X237642Y309459D01*
X237653Y309513D01*
X237657Y309572D01*
Y309597D01*
X237653Y309623D01*
X237649Y309655D01*
X237642Y309695D01*
X237631Y309735D01*
X237617Y309779D01*
X237595Y309819D01*
X237591Y309823D01*
X237584Y309837D01*
X237569Y309859D01*
X237548Y309881D01*
X237522Y309910D01*
X237493Y309939D01*
X237460Y309968D01*
X237420Y309998D01*
X237417Y310001D01*
X237398Y310008D01*
X237373Y310023D01*
X237340Y310037D01*
X237296Y310056D01*
X237245Y310074D01*
X237187Y310092D01*
X237122Y310110D01*
X237118D01*
X237114Y310114D01*
X237104D01*
X237089Y310118D01*
X237052Y310125D01*
X237005Y310136D01*
X236947Y310143D01*
X236885Y310150D01*
X236816Y310154D01*
X236743Y310158D01*
X236739D01*
X236729D01*
X236710D01*
X236681D01*
X236688Y310154D01*
X236707Y310139D01*
X236732Y310118D01*
X236769Y310092D01*
X236805Y310056D01*
X236845Y310012D01*
X236885Y309961D01*
X236922Y309903D01*
X236925Y309896D01*
X236936Y309874D01*
X236951Y309841D01*
X236965Y309801D01*
X236983Y309746D01*
X236998Y309688D01*
X237009Y309623D01*
X237013Y309553D01*
Y309524D01*
X237009Y309502D01*
X237005Y309473D01*
X237002Y309444D01*
X236994Y309408D01*
X236983Y309371D01*
X236958Y309288D01*
X236940Y309244D01*
X236918Y309200D01*
X236892Y309153D01*
X236860Y309109D01*
X236827Y309066D01*
X236787Y309026D01*
X236783Y309022D01*
X236776Y309015D01*
X236765Y309007D01*
X236747Y308993D01*
X236721Y308975D01*
X236696Y308956D01*
X236663Y308938D01*
X236627Y308920D01*
X236587Y308898D01*
X236543Y308880D01*
X236492Y308862D01*
X236441Y308844D01*
X236383Y308829D01*
X236321Y308822D01*
X236259Y308815D01*
X236190Y308811D01*
X236186D01*
X236172D01*
X236153D01*
X236128Y308815D01*
X236095Y308818D01*
X236055Y308822D01*
X236015Y308829D01*
X235968Y308840D01*
X235873Y308865D01*
X235822Y308884D01*
X235768Y308906D01*
X235717Y308931D01*
X235669Y308964D01*
X235618Y308997D01*
X235575Y309036D01*
X235571Y309040D01*
X235564Y309047D01*
X235553Y309058D01*
X235538Y309076D01*
X235520Y309098D01*
X235498Y309127D01*
X235480Y309157D01*
X235455Y309193D01*
X235433Y309229D01*
X235415Y309273D01*
X235374Y309371D01*
X235360Y309422D01*
X235349Y309481D01*
X235342Y309539D01*
X235338Y309601D01*
Y309626D01*
X235342Y309644D01*
Y309663D01*
X235345Y309688D01*
X235356Y309750D01*
X235371Y309819D01*
X235396Y309896D01*
X235429Y309972D01*
X235473Y310048D01*
Y310052D01*
X235480Y310056D01*
X235487Y310067D01*
X235498Y310081D01*
X235527Y310118D01*
X235567Y310165D01*
X235622Y310212D01*
X235687Y310267D01*
X235764Y310314D01*
X235851Y310358D01*
X235855D01*
X235862Y310362D01*
X235877Y310369D01*
X235895Y310376D01*
X235921Y310383D01*
X235953Y310394D01*
X235990Y310402D01*
X236030Y310412D01*
X236077Y310423D01*
X236132Y310434D01*
X236190Y310442D01*
X236252Y310449D01*
X236321Y310456D01*
X236394Y310463D01*
X236474Y310467D01*
X236558D01*
X236561D01*
X236579D01*
X236605D01*
X236638D01*
X236678Y310463D01*
D02*
G37*
G36*
X237868Y307708D02*
X235899D01*
X235902Y307704D01*
X235917Y307686D01*
X235939Y307664D01*
X235964Y307628D01*
X235997Y307588D01*
X236033Y307537D01*
X236073Y307479D01*
X236113Y307413D01*
Y307409D01*
X236117Y307406D01*
X236132Y307384D01*
X236150Y307348D01*
X236172Y307304D01*
X236197Y307253D01*
X236223Y307198D01*
X236248Y307144D01*
X236270Y307089D01*
X235971D01*
Y307093D01*
X235964Y307100D01*
X235961Y307115D01*
X235950Y307133D01*
X235939Y307155D01*
X235924Y307180D01*
X235888Y307242D01*
X235848Y307315D01*
X235797Y307388D01*
X235738Y307464D01*
X235677Y307540D01*
X235673Y307544D01*
X235669Y307548D01*
X235658Y307559D01*
X235648Y307573D01*
X235611Y307606D01*
X235567Y307650D01*
X235516Y307693D01*
X235458Y307741D01*
X235400Y307781D01*
X235338Y307817D01*
Y308017D01*
X237868D01*
Y307708D01*
D02*
G37*
G36*
X236135Y306550D02*
X236161Y306547D01*
X236193Y306543D01*
X236230Y306536D01*
X236270Y306528D01*
X236354Y306503D01*
X236397Y306488D01*
X236445Y306467D01*
X236492Y306441D01*
X236536Y306416D01*
X236579Y306383D01*
X236623Y306347D01*
X236627Y306343D01*
X236634Y306336D01*
X236645Y306325D01*
X236656Y306307D01*
X236674Y306285D01*
X236692Y306256D01*
X236714Y306219D01*
X236732Y306179D01*
X236754Y306132D01*
X236776Y306077D01*
X236794Y306019D01*
X236809Y305950D01*
X236823Y305877D01*
X236834Y305797D01*
X236841Y305706D01*
X236845Y305611D01*
Y304967D01*
X237868D01*
Y304632D01*
X235349D01*
Y305666D01*
X235353Y305720D01*
X235356Y305782D01*
X235360Y305848D01*
X235367Y305910D01*
X235374Y305964D01*
Y305972D01*
X235382Y305997D01*
X235389Y306030D01*
X235400Y306073D01*
X235418Y306121D01*
X235440Y306172D01*
X235466Y306226D01*
X235495Y306274D01*
X235498Y306281D01*
X235509Y306296D01*
X235531Y306317D01*
X235557Y306347D01*
X235589Y306379D01*
X235633Y306412D01*
X235680Y306449D01*
X235735Y306478D01*
X235742Y306481D01*
X235760Y306488D01*
X235793Y306503D01*
X235837Y306518D01*
X235888Y306528D01*
X235946Y306543D01*
X236012Y306550D01*
X236081Y306554D01*
X236084D01*
X236095D01*
X236110D01*
X236135Y306550D01*
D02*
G37*
G36*
X299868Y310463D02*
X299911D01*
X299959Y310460D01*
X300010Y310456D01*
X300126Y310445D01*
X300246Y310427D01*
X300363Y310405D01*
X300417Y310391D01*
X300472Y310372D01*
X300476D01*
X300483Y310369D01*
X300497Y310362D01*
X300516Y310354D01*
X300541Y310347D01*
X300567Y310332D01*
X300628Y310303D01*
X300694Y310267D01*
X300767Y310220D01*
X300832Y310165D01*
X300894Y310099D01*
Y310096D01*
X300902Y310092D01*
X300909Y310081D01*
X300916Y310067D01*
X300927Y310048D01*
X300941Y310030D01*
X300967Y309976D01*
X300992Y309910D01*
X301018Y309834D01*
X301032Y309743D01*
X301040Y309644D01*
Y309608D01*
X301036Y309582D01*
X301032Y309553D01*
X301025Y309517D01*
X301018Y309477D01*
X301007Y309433D01*
X300992Y309390D01*
X300978Y309342D01*
X300956Y309295D01*
X300931Y309248D01*
X300902Y309200D01*
X300865Y309153D01*
X300825Y309109D01*
X300781Y309069D01*
X300778Y309066D01*
X300767Y309058D01*
X300749Y309047D01*
X300719Y309029D01*
X300687Y309011D01*
X300643Y308993D01*
X300592Y308967D01*
X300534Y308945D01*
X300468Y308924D01*
X300392Y308902D01*
X300308Y308880D01*
X300214Y308862D01*
X300112Y308844D01*
X300002Y308833D01*
X299882Y308825D01*
X299755Y308822D01*
X299751D01*
X299737D01*
X299711D01*
X299682D01*
X299642Y308825D01*
X299598D01*
X299551Y308829D01*
X299496Y308833D01*
X299384Y308844D01*
X299264Y308862D01*
X299143Y308884D01*
X299089Y308898D01*
X299034Y308913D01*
X299030D01*
X299023Y308916D01*
X299009Y308924D01*
X298991Y308931D01*
X298965Y308938D01*
X298939Y308953D01*
X298878Y308982D01*
X298812Y309018D01*
X298743Y309066D01*
X298674Y309120D01*
X298616Y309186D01*
Y309189D01*
X298608Y309193D01*
X298601Y309204D01*
X298594Y309219D01*
X298579Y309237D01*
X298568Y309259D01*
X298539Y309313D01*
X298514Y309379D01*
X298488Y309455D01*
X298474Y309546D01*
X298466Y309644D01*
Y309677D01*
X298470Y309717D01*
X298477Y309765D01*
X298488Y309819D01*
X298503Y309877D01*
X298521Y309939D01*
X298550Y309998D01*
Y310001D01*
X298554Y310005D01*
X298565Y310023D01*
X298583Y310052D01*
X298608Y310088D01*
X298645Y310128D01*
X298685Y310172D01*
X298732Y310212D01*
X298787Y310252D01*
X298794Y310256D01*
X298812Y310271D01*
X298845Y310285D01*
X298892Y310311D01*
X298947Y310332D01*
X299009Y310362D01*
X299081Y310387D01*
X299162Y310409D01*
X299165D01*
X299172Y310412D01*
X299183Y310416D01*
X299202Y310420D01*
X299223Y310423D01*
X299249Y310427D01*
X299282Y310434D01*
X299318Y310438D01*
X299358Y310445D01*
X299402Y310449D01*
X299453Y310453D01*
X299504Y310460D01*
X299562Y310463D01*
X299620D01*
X299686Y310467D01*
X299755D01*
X299759D01*
X299773D01*
X299798D01*
X299828D01*
X299868Y310463D01*
D02*
G37*
G36*
X300996Y306820D02*
X300992D01*
X300978D01*
X300956D01*
X300927Y306823D01*
X300894Y306827D01*
X300858Y306834D01*
X300821Y306842D01*
X300781Y306856D01*
X300778D01*
X300774Y306860D01*
X300752Y306867D01*
X300719Y306882D01*
X300676Y306904D01*
X300625Y306933D01*
X300567Y306969D01*
X300508Y307009D01*
X300447Y307060D01*
X300443D01*
X300439Y307067D01*
X300417Y307085D01*
X300385Y307118D01*
X300337Y307166D01*
X300283Y307220D01*
X300217Y307289D01*
X300144Y307373D01*
X300068Y307464D01*
X300064Y307468D01*
X300053Y307482D01*
X300035Y307504D01*
X300013Y307530D01*
X299984Y307562D01*
X299951Y307602D01*
X299915Y307642D01*
X299875Y307690D01*
X299788Y307781D01*
X299700Y307872D01*
X299657Y307915D01*
X299613Y307955D01*
X299573Y307992D01*
X299533Y308021D01*
X299529D01*
X299525Y308028D01*
X299515Y308035D01*
X299500Y308043D01*
X299460Y308068D01*
X299413Y308097D01*
X299355Y308123D01*
X299293Y308148D01*
X299223Y308163D01*
X299158Y308170D01*
X299154D01*
X299151D01*
X299129Y308167D01*
X299092Y308163D01*
X299052Y308152D01*
X299001Y308137D01*
X298950Y308112D01*
X298900Y308079D01*
X298849Y308035D01*
X298841Y308028D01*
X298827Y308010D01*
X298809Y307984D01*
X298783Y307944D01*
X298761Y307894D01*
X298739Y307835D01*
X298725Y307766D01*
X298721Y307690D01*
Y307668D01*
X298725Y307653D01*
X298728Y307610D01*
X298739Y307559D01*
X298754Y307504D01*
X298779Y307442D01*
X298812Y307384D01*
X298856Y307329D01*
X298863Y307322D01*
X298881Y307308D01*
X298910Y307286D01*
X298954Y307264D01*
X299005Y307238D01*
X299071Y307217D01*
X299143Y307202D01*
X299227Y307195D01*
X299194Y306878D01*
X299191D01*
X299180Y306882D01*
X299162D01*
X299136Y306885D01*
X299107Y306892D01*
X299074Y306900D01*
X299034Y306911D01*
X298994Y306922D01*
X298907Y306951D01*
X298819Y306995D01*
X298776Y307020D01*
X298732Y307053D01*
X298692Y307085D01*
X298656Y307122D01*
X298652Y307125D01*
X298648Y307133D01*
X298637Y307144D01*
X298626Y307162D01*
X298612Y307184D01*
X298597Y307209D01*
X298579Y307238D01*
X298561Y307275D01*
X298543Y307315D01*
X298524Y307359D01*
X298510Y307406D01*
X298495Y307457D01*
X298484Y307511D01*
X298474Y307570D01*
X298470Y307631D01*
X298466Y307697D01*
Y307733D01*
X298470Y307759D01*
X298474Y307788D01*
X298477Y307824D01*
X298484Y307864D01*
X298492Y307905D01*
X298517Y307999D01*
X298554Y308094D01*
X298575Y308141D01*
X298601Y308188D01*
X298634Y308232D01*
X298670Y308272D01*
X298674Y308276D01*
X298677Y308283D01*
X298692Y308290D01*
X298707Y308305D01*
X298725Y308323D01*
X298750Y308341D01*
X298776Y308360D01*
X298809Y308381D01*
X298878Y308418D01*
X298965Y308454D01*
X299009Y308469D01*
X299060Y308476D01*
X299111Y308483D01*
X299165Y308487D01*
X299172D01*
X299191D01*
X299220Y308483D01*
X299260Y308480D01*
X299304Y308472D01*
X299355Y308458D01*
X299409Y308443D01*
X299464Y308421D01*
X299471Y308418D01*
X299489Y308410D01*
X299518Y308396D01*
X299558Y308374D01*
X299602Y308345D01*
X299657Y308309D01*
X299711Y308265D01*
X299773Y308214D01*
X299780Y308207D01*
X299802Y308188D01*
X299820Y308170D01*
X299839Y308152D01*
X299860Y308130D01*
X299889Y308101D01*
X299919Y308072D01*
X299951Y308035D01*
X299988Y307999D01*
X300028Y307955D01*
X300068Y307908D01*
X300115Y307857D01*
X300163Y307799D01*
X300214Y307741D01*
X300217Y307737D01*
X300224Y307730D01*
X300235Y307715D01*
X300250Y307697D01*
X300272Y307675D01*
X300294Y307650D01*
X300341Y307591D01*
X300395Y307530D01*
X300450Y307471D01*
X300497Y307420D01*
X300516Y307399D01*
X300534Y307380D01*
X300537Y307377D01*
X300548Y307366D01*
X300563Y307351D01*
X300585Y307333D01*
X300610Y307315D01*
X300636Y307293D01*
X300698Y307249D01*
Y308490D01*
X300996D01*
Y306820D01*
D02*
G37*
G36*
X299264Y306561D02*
X299289Y306558D01*
X299322Y306554D01*
X299358Y306547D01*
X299398Y306540D01*
X299482Y306514D01*
X299525Y306499D01*
X299573Y306478D01*
X299620Y306452D01*
X299664Y306427D01*
X299708Y306394D01*
X299751Y306358D01*
X299755Y306354D01*
X299762Y306347D01*
X299773Y306336D01*
X299784Y306317D01*
X299802Y306296D01*
X299820Y306266D01*
X299842Y306230D01*
X299860Y306190D01*
X299882Y306143D01*
X299904Y306088D01*
X299922Y306030D01*
X299937Y305961D01*
X299951Y305888D01*
X299962Y305808D01*
X299970Y305717D01*
X299973Y305622D01*
Y304978D01*
X300996D01*
Y304643D01*
X298477D01*
Y305677D01*
X298481Y305731D01*
X298484Y305793D01*
X298488Y305859D01*
X298495Y305921D01*
X298503Y305975D01*
Y305982D01*
X298510Y306008D01*
X298517Y306041D01*
X298528Y306084D01*
X298546Y306132D01*
X298568Y306183D01*
X298594Y306237D01*
X298623Y306285D01*
X298626Y306292D01*
X298637Y306307D01*
X298659Y306328D01*
X298685Y306358D01*
X298717Y306390D01*
X298761Y306423D01*
X298809Y306459D01*
X298863Y306488D01*
X298870Y306492D01*
X298888Y306499D01*
X298921Y306514D01*
X298965Y306528D01*
X299016Y306540D01*
X299074Y306554D01*
X299140Y306561D01*
X299209Y306565D01*
X299213D01*
X299223D01*
X299238D01*
X299264Y306561D01*
D02*
G37*
G36*
X50994Y179530D02*
X51023Y179526D01*
X51056Y179523D01*
X51092Y179515D01*
X51132Y179508D01*
X51219Y179486D01*
X51310Y179450D01*
X51358Y179428D01*
X51401Y179402D01*
X51445Y179370D01*
X51489Y179337D01*
X51492Y179333D01*
X51500Y179326D01*
X51511Y179315D01*
X51521Y179301D01*
X51540Y179282D01*
X51558Y179257D01*
X51580Y179231D01*
X51601Y179199D01*
X51623Y179162D01*
X51645Y179126D01*
X51685Y179039D01*
X51718Y178937D01*
X51729Y178882D01*
X51736Y178824D01*
X51427Y178784D01*
Y178787D01*
X51423Y178795D01*
X51420Y178809D01*
X51416Y178827D01*
X51412Y178849D01*
X51405Y178875D01*
X51387Y178929D01*
X51361Y178995D01*
X51328Y179057D01*
X51292Y179115D01*
X51248Y179166D01*
X51241Y179169D01*
X51227Y179184D01*
X51197Y179202D01*
X51161Y179220D01*
X51117Y179242D01*
X51063Y179261D01*
X51001Y179275D01*
X50935Y179279D01*
X50914D01*
X50899Y179275D01*
X50859Y179271D01*
X50808Y179261D01*
X50750Y179242D01*
X50688Y179217D01*
X50626Y179180D01*
X50568Y179130D01*
X50560Y179122D01*
X50542Y179100D01*
X50520Y179068D01*
X50491Y179024D01*
X50462Y178969D01*
X50440Y178907D01*
X50422Y178835D01*
X50415Y178755D01*
Y178751D01*
Y178744D01*
Y178733D01*
X50419Y178718D01*
X50422Y178678D01*
X50433Y178631D01*
X50448Y178573D01*
X50473Y178514D01*
X50510Y178456D01*
X50557Y178402D01*
X50564Y178394D01*
X50582Y178380D01*
X50611Y178358D01*
X50652Y178332D01*
X50702Y178307D01*
X50764Y178285D01*
X50833Y178270D01*
X50910Y178263D01*
X50943D01*
X50968Y178267D01*
X51001Y178270D01*
X51037Y178278D01*
X51081Y178285D01*
X51128Y178296D01*
X51092Y178023D01*
X51074D01*
X51059Y178027D01*
X51012D01*
X50972Y178019D01*
X50924Y178012D01*
X50870Y178001D01*
X50808Y177983D01*
X50750Y177957D01*
X50688Y177925D01*
X50684D01*
X50681Y177921D01*
X50662Y177906D01*
X50637Y177881D01*
X50608Y177848D01*
X50579Y177801D01*
X50553Y177746D01*
X50535Y177684D01*
X50528Y177648D01*
Y177608D01*
Y177604D01*
Y177601D01*
Y177579D01*
X50535Y177550D01*
X50542Y177510D01*
X50557Y177466D01*
X50575Y177419D01*
X50604Y177371D01*
X50644Y177328D01*
X50648Y177324D01*
X50666Y177310D01*
X50691Y177291D01*
X50724Y177269D01*
X50768Y177251D01*
X50819Y177233D01*
X50877Y177218D01*
X50943Y177215D01*
X50972D01*
X51005Y177222D01*
X51048Y177229D01*
X51095Y177244D01*
X51143Y177262D01*
X51194Y177291D01*
X51241Y177328D01*
X51245Y177331D01*
X51259Y177349D01*
X51281Y177375D01*
X51307Y177411D01*
X51332Y177459D01*
X51358Y177517D01*
X51380Y177586D01*
X51394Y177666D01*
X51703Y177612D01*
Y177608D01*
X51700Y177597D01*
X51696Y177583D01*
X51692Y177561D01*
X51685Y177535D01*
X51674Y177506D01*
X51652Y177437D01*
X51616Y177357D01*
X51572Y177277D01*
X51518Y177200D01*
X51449Y177131D01*
X51445Y177128D01*
X51438Y177124D01*
X51427Y177117D01*
X51412Y177106D01*
X51394Y177091D01*
X51369Y177076D01*
X51343Y177062D01*
X51310Y177044D01*
X51237Y177015D01*
X51154Y176986D01*
X51056Y176967D01*
X51005Y176960D01*
X50914D01*
X50874Y176964D01*
X50826Y176971D01*
X50768Y176982D01*
X50702Y177000D01*
X50637Y177022D01*
X50571Y177051D01*
X50568D01*
X50564Y177055D01*
X50542Y177066D01*
X50510Y177087D01*
X50473Y177113D01*
X50429Y177149D01*
X50386Y177189D01*
X50342Y177237D01*
X50306Y177291D01*
X50302Y177299D01*
X50291Y177317D01*
X50276Y177349D01*
X50258Y177390D01*
X50240Y177437D01*
X50226Y177491D01*
X50215Y177553D01*
X50211Y177615D01*
Y177622D01*
Y177644D01*
X50215Y177673D01*
X50222Y177714D01*
X50233Y177761D01*
X50251Y177812D01*
X50273Y177863D01*
X50302Y177914D01*
X50306Y177921D01*
X50317Y177936D01*
X50338Y177961D01*
X50367Y177990D01*
X50404Y178023D01*
X50448Y178059D01*
X50499Y178092D01*
X50560Y178125D01*
X50557D01*
X50550Y178129D01*
X50539Y178132D01*
X50524Y178136D01*
X50484Y178150D01*
X50433Y178172D01*
X50375Y178201D01*
X50317Y178238D01*
X50262Y178285D01*
X50211Y178340D01*
X50207Y178347D01*
X50193Y178369D01*
X50171Y178405D01*
X50149Y178452D01*
X50127Y178511D01*
X50106Y178580D01*
X50091Y178660D01*
X50087Y178747D01*
Y178751D01*
Y178762D01*
Y178780D01*
X50091Y178802D01*
X50094Y178831D01*
X50102Y178864D01*
X50109Y178900D01*
X50116Y178940D01*
X50146Y179028D01*
X50167Y179075D01*
X50189Y179119D01*
X50218Y179166D01*
X50251Y179213D01*
X50287Y179261D01*
X50331Y179304D01*
X50335Y179308D01*
X50342Y179315D01*
X50357Y179326D01*
X50375Y179341D01*
X50397Y179359D01*
X50426Y179377D01*
X50459Y179399D01*
X50499Y179417D01*
X50539Y179439D01*
X50586Y179461D01*
X50633Y179479D01*
X50688Y179497D01*
X50746Y179512D01*
X50808Y179523D01*
X50870Y179530D01*
X50939Y179534D01*
X50972D01*
X50994Y179530D01*
D02*
G37*
G36*
X54150Y176971D02*
X52981D01*
X52952Y176975D01*
X52919D01*
X52843Y176978D01*
X52763Y176989D01*
X52675Y177000D01*
X52595Y177018D01*
X52555Y177029D01*
X52522Y177040D01*
X52519D01*
X52515Y177044D01*
X52493Y177055D01*
X52461Y177069D01*
X52421Y177095D01*
X52377Y177128D01*
X52329Y177171D01*
X52286Y177222D01*
X52242Y177280D01*
Y177284D01*
X52239Y177288D01*
X52224Y177310D01*
X52209Y177346D01*
X52188Y177393D01*
X52169Y177448D01*
X52151Y177513D01*
X52140Y177583D01*
X52137Y177659D01*
Y177663D01*
Y177670D01*
Y177684D01*
X52140Y177703D01*
Y177728D01*
X52144Y177754D01*
X52158Y177815D01*
X52180Y177888D01*
X52209Y177965D01*
X52253Y178041D01*
X52282Y178077D01*
X52311Y178114D01*
X52315Y178118D01*
X52319Y178121D01*
X52329Y178132D01*
X52344Y178143D01*
X52362Y178158D01*
X52384Y178172D01*
X52413Y178190D01*
X52442Y178212D01*
X52479Y178230D01*
X52519Y178249D01*
X52562Y178270D01*
X52610Y178289D01*
X52664Y178303D01*
X52719Y178321D01*
X52781Y178332D01*
X52846Y178343D01*
X52839Y178347D01*
X52824Y178354D01*
X52803Y178369D01*
X52774Y178383D01*
X52708Y178423D01*
X52675Y178449D01*
X52646Y178471D01*
X52639Y178478D01*
X52621Y178496D01*
X52592Y178525D01*
X52555Y178562D01*
X52515Y178613D01*
X52468Y178667D01*
X52421Y178733D01*
X52370Y178805D01*
X51936Y179490D01*
X52351D01*
X52683Y178966D01*
Y178962D01*
X52690Y178955D01*
X52697Y178944D01*
X52708Y178929D01*
X52734Y178889D01*
X52766Y178838D01*
X52806Y178784D01*
X52846Y178725D01*
X52886Y178671D01*
X52923Y178620D01*
X52926Y178616D01*
X52937Y178602D01*
X52956Y178580D01*
X52981Y178554D01*
X53036Y178500D01*
X53065Y178474D01*
X53094Y178452D01*
X53098Y178449D01*
X53105Y178445D01*
X53119Y178438D01*
X53141Y178427D01*
X53163Y178416D01*
X53189Y178405D01*
X53247Y178387D01*
X53250D01*
X53258Y178383D01*
X53272D01*
X53290Y178380D01*
X53316Y178376D01*
X53345D01*
X53385Y178372D01*
X53815D01*
Y179490D01*
X54150D01*
Y176971D01*
D02*
G37*
G36*
X16084Y178258D02*
X14115D01*
X14119Y178254D01*
X14133Y178236D01*
X14155Y178214D01*
X14180Y178177D01*
X14213Y178138D01*
X14250Y178087D01*
X14290Y178028D01*
X14330Y177963D01*
Y177959D01*
X14333Y177955D01*
X14348Y177934D01*
X14366Y177897D01*
X14388Y177854D01*
X14413Y177803D01*
X14439Y177748D01*
X14464Y177693D01*
X14486Y177639D01*
X14188D01*
Y177643D01*
X14180Y177650D01*
X14177Y177664D01*
X14166Y177682D01*
X14155Y177704D01*
X14140Y177730D01*
X14104Y177792D01*
X14064Y177865D01*
X14013Y177937D01*
X13955Y178014D01*
X13893Y178090D01*
X13889Y178094D01*
X13885Y178097D01*
X13875Y178108D01*
X13864Y178123D01*
X13827Y178156D01*
X13784Y178199D01*
X13733Y178243D01*
X13674Y178290D01*
X13616Y178330D01*
X13554Y178367D01*
Y178567D01*
X16084D01*
Y178258D01*
D02*
G37*
G36*
X15451Y177064D02*
X15502Y177056D01*
X15560Y177042D01*
X15622Y177024D01*
X15687Y176995D01*
X15756Y176954D01*
X15760D01*
X15764Y176951D01*
X15786Y176933D01*
X15818Y176907D01*
X15855Y176871D01*
X15898Y176823D01*
X15946Y176765D01*
X15989Y176700D01*
X16029Y176623D01*
Y176620D01*
X16033Y176612D01*
X16037Y176601D01*
X16044Y176587D01*
X16051Y176565D01*
X16062Y176540D01*
X16077Y176481D01*
X16095Y176412D01*
X16113Y176328D01*
X16124Y176237D01*
X16128Y176139D01*
Y176081D01*
X16124Y176052D01*
Y176019D01*
X16120Y175983D01*
X16117Y175939D01*
X16102Y175848D01*
X16088Y175753D01*
X16062Y175659D01*
X16029Y175568D01*
Y175564D01*
X16026Y175557D01*
X16019Y175546D01*
X16011Y175531D01*
X15989Y175488D01*
X15957Y175437D01*
X15913Y175378D01*
X15862Y175317D01*
X15800Y175258D01*
X15731Y175204D01*
X15727D01*
X15720Y175196D01*
X15709Y175193D01*
X15695Y175182D01*
X15676Y175174D01*
X15655Y175164D01*
X15600Y175138D01*
X15531Y175113D01*
X15454Y175091D01*
X15367Y175076D01*
X15276Y175069D01*
X15247Y175382D01*
X15250D01*
X15254D01*
X15265Y175386D01*
X15280D01*
X15312Y175393D01*
X15360Y175404D01*
X15407Y175418D01*
X15462Y175433D01*
X15513Y175459D01*
X15560Y175484D01*
X15564Y175488D01*
X15578Y175498D01*
X15604Y175517D01*
X15629Y175546D01*
X15662Y175582D01*
X15695Y175622D01*
X15727Y175677D01*
X15756Y175735D01*
Y175739D01*
X15760Y175742D01*
X15764Y175753D01*
X15767Y175764D01*
X15778Y175801D01*
X15793Y175848D01*
X15807Y175906D01*
X15818Y175972D01*
X15826Y176044D01*
X15829Y176125D01*
Y176157D01*
X15826Y176194D01*
X15822Y176237D01*
X15815Y176288D01*
X15807Y176347D01*
X15793Y176405D01*
X15775Y176460D01*
X15771Y176467D01*
X15764Y176485D01*
X15749Y176510D01*
X15735Y176543D01*
X15709Y176576D01*
X15684Y176612D01*
X15655Y176649D01*
X15618Y176678D01*
X15615Y176681D01*
X15600Y176689D01*
X15582Y176700D01*
X15553Y176714D01*
X15524Y176729D01*
X15487Y176740D01*
X15447Y176747D01*
X15403Y176751D01*
X15400D01*
X15382D01*
X15360Y176747D01*
X15331Y176743D01*
X15302Y176733D01*
X15265Y176722D01*
X15229Y176703D01*
X15196Y176678D01*
X15192Y176674D01*
X15181Y176663D01*
X15167Y176649D01*
X15145Y176623D01*
X15123Y176594D01*
X15098Y176554D01*
X15072Y176507D01*
X15050Y176452D01*
X15047Y176449D01*
X15043Y176430D01*
X15032Y176401D01*
X15029Y176383D01*
X15021Y176357D01*
X15010Y176332D01*
X15003Y176299D01*
X14992Y176263D01*
X14981Y176219D01*
X14970Y176175D01*
X14956Y176125D01*
X14941Y176066D01*
X14927Y176005D01*
Y176001D01*
X14923Y175990D01*
X14919Y175972D01*
X14912Y175950D01*
X14905Y175921D01*
X14897Y175888D01*
X14876Y175815D01*
X14850Y175735D01*
X14825Y175651D01*
X14799Y175579D01*
X14785Y175546D01*
X14770Y175517D01*
Y175513D01*
X14766Y175509D01*
X14752Y175488D01*
X14734Y175455D01*
X14705Y175418D01*
X14672Y175375D01*
X14632Y175331D01*
X14584Y175287D01*
X14533Y175251D01*
X14526Y175247D01*
X14508Y175236D01*
X14479Y175222D01*
X14442Y175207D01*
X14395Y175193D01*
X14341Y175178D01*
X14282Y175167D01*
X14220Y175164D01*
X14217D01*
X14213D01*
X14202D01*
X14188D01*
X14151Y175171D01*
X14104Y175178D01*
X14049Y175189D01*
X13987Y175207D01*
X13926Y175233D01*
X13864Y175269D01*
X13860D01*
X13856Y175273D01*
X13835Y175291D01*
X13805Y175317D01*
X13769Y175349D01*
X13729Y175393D01*
X13685Y175448D01*
X13645Y175513D01*
X13609Y175586D01*
Y175590D01*
X13605Y175597D01*
X13602Y175608D01*
X13594Y175622D01*
X13587Y175640D01*
X13580Y175666D01*
X13565Y175721D01*
X13551Y175790D01*
X13536Y175870D01*
X13525Y175953D01*
X13521Y176048D01*
Y176095D01*
X13525Y176121D01*
Y176146D01*
X13532Y176216D01*
X13543Y176292D01*
X13562Y176372D01*
X13583Y176460D01*
X13612Y176540D01*
Y176543D01*
X13616Y176550D01*
X13623Y176561D01*
X13631Y176576D01*
X13649Y176612D01*
X13682Y176660D01*
X13718Y176714D01*
X13765Y176769D01*
X13820Y176820D01*
X13882Y176867D01*
X13885D01*
X13889Y176871D01*
X13900Y176878D01*
X13911Y176885D01*
X13947Y176903D01*
X13995Y176925D01*
X14053Y176951D01*
X14122Y176969D01*
X14195Y176987D01*
X14275Y176995D01*
X14300Y176674D01*
X14297D01*
X14290D01*
X14279Y176671D01*
X14260Y176667D01*
X14220Y176656D01*
X14166Y176641D01*
X14108Y176620D01*
X14049Y176587D01*
X13995Y176547D01*
X13944Y176496D01*
X13940Y176489D01*
X13926Y176470D01*
X13904Y176434D01*
X13882Y176387D01*
X13860Y176325D01*
X13838Y176252D01*
X13824Y176161D01*
X13820Y176059D01*
Y176008D01*
X13824Y175986D01*
X13827Y175957D01*
X13835Y175892D01*
X13849Y175819D01*
X13867Y175746D01*
X13896Y175677D01*
X13915Y175648D01*
X13933Y175619D01*
X13937Y175611D01*
X13951Y175597D01*
X13976Y175575D01*
X14006Y175553D01*
X14046Y175528D01*
X14089Y175506D01*
X14140Y175491D01*
X14199Y175484D01*
X14206D01*
X14220D01*
X14246Y175488D01*
X14275Y175495D01*
X14311Y175506D01*
X14348Y175524D01*
X14384Y175546D01*
X14421Y175579D01*
X14424Y175582D01*
X14435Y175600D01*
X14446Y175615D01*
X14453Y175629D01*
X14464Y175651D01*
X14479Y175677D01*
X14490Y175710D01*
X14504Y175746D01*
X14519Y175786D01*
X14537Y175833D01*
X14552Y175884D01*
X14570Y175943D01*
X14584Y176008D01*
X14603Y176081D01*
Y176084D01*
X14606Y176099D01*
X14610Y176121D01*
X14617Y176146D01*
X14624Y176179D01*
X14635Y176219D01*
X14646Y176259D01*
X14657Y176303D01*
X14683Y176398D01*
X14708Y176489D01*
X14723Y176532D01*
X14737Y176572D01*
X14748Y176609D01*
X14763Y176638D01*
Y176641D01*
X14766Y176649D01*
X14774Y176660D01*
X14781Y176674D01*
X14803Y176714D01*
X14832Y176762D01*
X14872Y176816D01*
X14916Y176871D01*
X14967Y176922D01*
X15021Y176965D01*
X15029Y176969D01*
X15047Y176984D01*
X15079Y176998D01*
X15123Y177020D01*
X15174Y177038D01*
X15236Y177056D01*
X15305Y177067D01*
X15378Y177071D01*
X15382D01*
X15385D01*
X15396D01*
X15411D01*
X15451Y177064D01*
D02*
G37*
G36*
X70967Y150660D02*
X70658D01*
Y152629D01*
X70654Y152626D01*
X70636Y152611D01*
X70614Y152589D01*
X70578Y152564D01*
X70538Y152531D01*
X70487Y152495D01*
X70428Y152455D01*
X70363Y152415D01*
X70359D01*
X70355Y152411D01*
X70334Y152397D01*
X70297Y152378D01*
X70254Y152356D01*
X70203Y152331D01*
X70148Y152305D01*
X70093Y152280D01*
X70039Y152258D01*
Y152557D01*
X70043D01*
X70050Y152564D01*
X70064Y152568D01*
X70082Y152578D01*
X70104Y152589D01*
X70130Y152604D01*
X70192Y152640D01*
X70265Y152680D01*
X70337Y152731D01*
X70414Y152790D01*
X70490Y152851D01*
X70494Y152855D01*
X70498Y152859D01*
X70508Y152870D01*
X70523Y152881D01*
X70556Y152917D01*
X70599Y152961D01*
X70643Y153012D01*
X70690Y153070D01*
X70730Y153128D01*
X70767Y153190D01*
X70967D01*
Y150660D01*
D02*
G37*
G36*
X69584Y152881D02*
X68754D01*
Y150660D01*
X68419D01*
Y152881D01*
X67589D01*
Y153179D01*
X69584D01*
Y152881D01*
D02*
G37*
G36*
X154979Y58778D02*
X154681D01*
Y59608D01*
X152460D01*
Y59943D01*
X154681D01*
Y60773D01*
X154979D01*
Y58778D01*
D02*
G37*
G36*
X152529Y58600D02*
X152562Y58596D01*
X152599Y58589D01*
X152635Y58582D01*
X152675Y58567D01*
X152679D01*
X152682Y58564D01*
X152704Y58556D01*
X152737Y58542D01*
X152780Y58520D01*
X152831Y58491D01*
X152890Y58455D01*
X152948Y58414D01*
X153010Y58363D01*
X153014D01*
X153017Y58356D01*
X153039Y58338D01*
X153072Y58305D01*
X153119Y58258D01*
X153174Y58203D01*
X153239Y58134D01*
X153312Y58050D01*
X153388Y57959D01*
X153392Y57956D01*
X153403Y57941D01*
X153421Y57919D01*
X153443Y57894D01*
X153472Y57861D01*
X153505Y57821D01*
X153541Y57781D01*
X153581Y57734D01*
X153669Y57643D01*
X153756Y57552D01*
X153800Y57508D01*
X153843Y57468D01*
X153883Y57432D01*
X153923Y57402D01*
X153927D01*
X153931Y57395D01*
X153942Y57388D01*
X153956Y57381D01*
X153996Y57355D01*
X154044Y57326D01*
X154102Y57301D01*
X154164Y57275D01*
X154233Y57261D01*
X154298Y57253D01*
X154302D01*
X154306D01*
X154327Y57257D01*
X154364Y57261D01*
X154404Y57271D01*
X154455Y57286D01*
X154506Y57311D01*
X154557Y57344D01*
X154608Y57388D01*
X154615Y57395D01*
X154630Y57413D01*
X154648Y57439D01*
X154673Y57479D01*
X154695Y57530D01*
X154717Y57588D01*
X154732Y57657D01*
X154735Y57734D01*
Y57756D01*
X154732Y57770D01*
X154728Y57814D01*
X154717Y57865D01*
X154702Y57919D01*
X154677Y57981D01*
X154644Y58039D01*
X154601Y58094D01*
X154593Y58101D01*
X154575Y58116D01*
X154546Y58138D01*
X154502Y58160D01*
X154451Y58185D01*
X154386Y58207D01*
X154313Y58222D01*
X154229Y58229D01*
X154262Y58546D01*
X154266D01*
X154277Y58542D01*
X154295D01*
X154320Y58538D01*
X154349Y58531D01*
X154382Y58524D01*
X154422Y58513D01*
X154462Y58502D01*
X154550Y58473D01*
X154637Y58429D01*
X154681Y58403D01*
X154724Y58371D01*
X154764Y58338D01*
X154801Y58302D01*
X154804Y58298D01*
X154808Y58291D01*
X154819Y58280D01*
X154830Y58262D01*
X154844Y58240D01*
X154859Y58214D01*
X154877Y58185D01*
X154895Y58149D01*
X154913Y58109D01*
X154932Y58065D01*
X154946Y58018D01*
X154961Y57967D01*
X154972Y57912D01*
X154983Y57854D01*
X154986Y57792D01*
X154990Y57727D01*
Y57690D01*
X154986Y57665D01*
X154983Y57635D01*
X154979Y57599D01*
X154972Y57559D01*
X154964Y57519D01*
X154939Y57424D01*
X154903Y57330D01*
X154881Y57282D01*
X154855Y57235D01*
X154823Y57191D01*
X154786Y57151D01*
X154782Y57148D01*
X154779Y57140D01*
X154764Y57133D01*
X154750Y57119D01*
X154732Y57100D01*
X154706Y57082D01*
X154681Y57064D01*
X154648Y57042D01*
X154579Y57006D01*
X154491Y56969D01*
X154448Y56955D01*
X154397Y56947D01*
X154346Y56940D01*
X154291Y56937D01*
X154284D01*
X154266D01*
X154236Y56940D01*
X154197Y56944D01*
X154153Y56951D01*
X154102Y56966D01*
X154047Y56980D01*
X153993Y57002D01*
X153985Y57006D01*
X153967Y57013D01*
X153938Y57028D01*
X153898Y57049D01*
X153854Y57079D01*
X153800Y57115D01*
X153745Y57159D01*
X153683Y57210D01*
X153676Y57217D01*
X153654Y57235D01*
X153636Y57253D01*
X153618Y57271D01*
X153596Y57293D01*
X153567Y57322D01*
X153538Y57352D01*
X153505Y57388D01*
X153469Y57424D01*
X153428Y57468D01*
X153388Y57515D01*
X153341Y57566D01*
X153294Y57625D01*
X153243Y57683D01*
X153239Y57686D01*
X153232Y57694D01*
X153221Y57708D01*
X153206Y57727D01*
X153184Y57748D01*
X153163Y57774D01*
X153115Y57832D01*
X153061Y57894D01*
X153006Y57952D01*
X152959Y58003D01*
X152941Y58025D01*
X152922Y58043D01*
X152919Y58047D01*
X152908Y58058D01*
X152893Y58072D01*
X152872Y58091D01*
X152846Y58109D01*
X152821Y58131D01*
X152759Y58174D01*
Y56933D01*
X152460D01*
Y58604D01*
X152464D01*
X152478D01*
X152500D01*
X152529Y58600D01*
D02*
G37*
G36*
X240208Y179463D02*
X240237Y179460D01*
X240270Y179453D01*
X240306Y179445D01*
X240347Y179438D01*
X240434Y179409D01*
X240481Y179387D01*
X240525Y179365D01*
X240572Y179336D01*
X240619Y179303D01*
X240667Y179267D01*
X240710Y179223D01*
X240714Y179219D01*
X240721Y179212D01*
X240732Y179198D01*
X240747Y179180D01*
X240765Y179158D01*
X240783Y179129D01*
X240805Y179096D01*
X240823Y179056D01*
X240845Y179016D01*
X240867Y178968D01*
X240885Y178921D01*
X240903Y178866D01*
X240918Y178808D01*
X240929Y178746D01*
X240936Y178684D01*
X240940Y178615D01*
Y178583D01*
X240936Y178561D01*
X240932Y178532D01*
X240929Y178499D01*
X240922Y178462D01*
X240914Y178422D01*
X240893Y178335D01*
X240856Y178244D01*
X240834Y178197D01*
X240809Y178153D01*
X240776Y178109D01*
X240743Y178066D01*
X240740Y178062D01*
X240732Y178055D01*
X240721Y178044D01*
X240707Y178033D01*
X240689Y178015D01*
X240663Y177997D01*
X240638Y177975D01*
X240605Y177953D01*
X240568Y177931D01*
X240532Y177909D01*
X240445Y177869D01*
X240343Y177836D01*
X240288Y177825D01*
X240230Y177818D01*
X240190Y178128D01*
X240194D01*
X240201Y178131D01*
X240215Y178135D01*
X240234Y178138D01*
X240255Y178142D01*
X240281Y178149D01*
X240336Y178168D01*
X240401Y178193D01*
X240463Y178226D01*
X240521Y178262D01*
X240572Y178306D01*
X240576Y178313D01*
X240590Y178328D01*
X240609Y178357D01*
X240627Y178393D01*
X240649Y178437D01*
X240667Y178491D01*
X240681Y178553D01*
X240685Y178619D01*
Y178641D01*
X240681Y178655D01*
X240678Y178695D01*
X240667Y178746D01*
X240649Y178805D01*
X240623Y178866D01*
X240587Y178928D01*
X240536Y178987D01*
X240528Y178994D01*
X240507Y179012D01*
X240474Y179034D01*
X240430Y179063D01*
X240376Y179092D01*
X240314Y179114D01*
X240241Y179132D01*
X240161Y179139D01*
X240157D01*
X240150D01*
X240139D01*
X240125Y179136D01*
X240084Y179132D01*
X240037Y179121D01*
X239979Y179107D01*
X239921Y179081D01*
X239862Y179045D01*
X239808Y178998D01*
X239801Y178990D01*
X239786Y178972D01*
X239764Y178943D01*
X239739Y178903D01*
X239713Y178852D01*
X239691Y178790D01*
X239677Y178721D01*
X239669Y178644D01*
Y178612D01*
X239673Y178586D01*
X239677Y178553D01*
X239684Y178517D01*
X239691Y178473D01*
X239702Y178426D01*
X239429Y178462D01*
Y178481D01*
X239433Y178495D01*
Y178542D01*
X239426Y178583D01*
X239418Y178630D01*
X239407Y178684D01*
X239389Y178746D01*
X239364Y178805D01*
X239331Y178866D01*
Y178870D01*
X239327Y178874D01*
X239313Y178892D01*
X239287Y178917D01*
X239254Y178946D01*
X239207Y178976D01*
X239153Y179001D01*
X239091Y179019D01*
X239054Y179027D01*
X239014D01*
X239011D01*
X239007D01*
X238985D01*
X238956Y179019D01*
X238916Y179012D01*
X238872Y178998D01*
X238825Y178979D01*
X238778Y178950D01*
X238734Y178910D01*
X238730Y178907D01*
X238716Y178888D01*
X238698Y178863D01*
X238676Y178830D01*
X238657Y178786D01*
X238639Y178735D01*
X238625Y178677D01*
X238621Y178612D01*
Y178583D01*
X238628Y178550D01*
X238636Y178506D01*
X238650Y178459D01*
X238668Y178411D01*
X238698Y178360D01*
X238734Y178313D01*
X238738Y178310D01*
X238756Y178295D01*
X238781Y178273D01*
X238818Y178248D01*
X238865Y178222D01*
X238923Y178197D01*
X238992Y178175D01*
X239072Y178160D01*
X239018Y177851D01*
X239014D01*
X239003Y177855D01*
X238989Y177858D01*
X238967Y177862D01*
X238942Y177869D01*
X238912Y177880D01*
X238843Y177902D01*
X238763Y177938D01*
X238683Y177982D01*
X238607Y178036D01*
X238537Y178106D01*
X238534Y178109D01*
X238530Y178117D01*
X238523Y178128D01*
X238512Y178142D01*
X238497Y178160D01*
X238483Y178186D01*
X238468Y178211D01*
X238450Y178244D01*
X238421Y178317D01*
X238392Y178401D01*
X238374Y178499D01*
X238366Y178550D01*
Y178641D01*
X238370Y178681D01*
X238377Y178728D01*
X238388Y178786D01*
X238406Y178852D01*
X238428Y178917D01*
X238457Y178983D01*
Y178987D01*
X238461Y178990D01*
X238472Y179012D01*
X238494Y179045D01*
X238519Y179081D01*
X238556Y179125D01*
X238596Y179169D01*
X238643Y179212D01*
X238698Y179249D01*
X238705Y179252D01*
X238723Y179263D01*
X238756Y179278D01*
X238796Y179296D01*
X238843Y179314D01*
X238898Y179329D01*
X238960Y179340D01*
X239021Y179343D01*
X239029D01*
X239051D01*
X239080Y179340D01*
X239120Y179332D01*
X239167Y179321D01*
X239218Y179303D01*
X239269Y179281D01*
X239320Y179252D01*
X239327Y179249D01*
X239342Y179238D01*
X239367Y179216D01*
X239397Y179187D01*
X239429Y179150D01*
X239466Y179107D01*
X239498Y179056D01*
X239531Y178994D01*
Y178998D01*
X239535Y179005D01*
X239538Y179016D01*
X239542Y179030D01*
X239557Y179070D01*
X239579Y179121D01*
X239608Y179180D01*
X239644Y179238D01*
X239691Y179292D01*
X239746Y179343D01*
X239753Y179347D01*
X239775Y179361D01*
X239811Y179383D01*
X239859Y179405D01*
X239917Y179427D01*
X239986Y179449D01*
X240066Y179463D01*
X240154Y179467D01*
X240157D01*
X240168D01*
X240186D01*
X240208Y179463D01*
D02*
G37*
G36*
X238676Y176766D02*
X240896D01*
Y176431D01*
X238676D01*
Y175601D01*
X238377D01*
Y177596D01*
X238676D01*
Y176766D01*
D02*
G37*
G36*
X240625Y99225D02*
X241230D01*
Y98915D01*
X240625D01*
Y97820D01*
X240341D01*
X238711Y98974D01*
Y99225D01*
X240341D01*
Y99567D01*
X240625D01*
Y99225D01*
D02*
G37*
G36*
X239009Y96877D02*
X241230D01*
Y96542D01*
X239009D01*
Y95712D01*
X238711D01*
Y97707D01*
X239009D01*
Y96877D01*
D02*
G37*
%LPC*%
G36*
X427563Y211203D02*
X427560D01*
X427556D01*
X427538D01*
X427505Y211200D01*
X427469Y211192D01*
X427429Y211185D01*
X427382Y211171D01*
X427338Y211149D01*
X427294Y211123D01*
X427290Y211120D01*
X427276Y211109D01*
X427258Y211090D01*
X427232Y211069D01*
X427207Y211036D01*
X427185Y210999D01*
X427163Y210959D01*
X427145Y210912D01*
Y210908D01*
X427141Y210894D01*
X427138Y210872D01*
X427130Y210843D01*
X427127Y210799D01*
X427123Y210745D01*
X427119Y210679D01*
Y209958D01*
X428019D01*
Y210635D01*
X428015Y210661D01*
Y210686D01*
X428011Y210716D01*
X428004Y210785D01*
X427989Y210861D01*
X427968Y210938D01*
X427938Y211007D01*
X427920Y211039D01*
X427898Y211065D01*
X427891Y211072D01*
X427877Y211087D01*
X427847Y211109D01*
X427811Y211134D01*
X427764Y211160D01*
X427705Y211181D01*
X427640Y211196D01*
X427563Y211203D01*
D02*
G37*
G36*
X212815Y161731D02*
X212022Y160603D01*
X212815D01*
Y161731D01*
D02*
G37*
G36*
X16132Y111534D02*
X15233D01*
Y110857D01*
X15236Y110831D01*
Y110806D01*
X15240Y110777D01*
X15247Y110707D01*
X15262Y110631D01*
X15284Y110555D01*
X15313Y110485D01*
X15331Y110453D01*
X15353Y110427D01*
X15360Y110420D01*
X15375Y110405D01*
X15404Y110383D01*
X15440Y110358D01*
X15487Y110333D01*
X15546Y110311D01*
X15611Y110296D01*
X15688Y110289D01*
X15691D01*
X15695D01*
X15713D01*
X15746Y110292D01*
X15782Y110300D01*
X15822Y110307D01*
X15870Y110322D01*
X15913Y110343D01*
X15957Y110369D01*
X15961Y110373D01*
X15975Y110383D01*
X15993Y110402D01*
X16019Y110424D01*
X16044Y110456D01*
X16066Y110493D01*
X16088Y110533D01*
X16106Y110580D01*
Y110584D01*
X16110Y110598D01*
X16114Y110620D01*
X16121Y110649D01*
X16124Y110693D01*
X16128Y110748D01*
X16132Y110813D01*
Y111534D01*
D02*
G37*
G36*
X180107Y39015D02*
X178979D01*
X180107Y38222D01*
Y39015D01*
D02*
G37*
G36*
X179219Y37385D02*
X179216D01*
X179212D01*
X179194D01*
X179161Y37381D01*
X179125Y37374D01*
X179085Y37367D01*
X179037Y37352D01*
X178994Y37330D01*
X178950Y37305D01*
X178946Y37301D01*
X178932Y37290D01*
X178913Y37272D01*
X178888Y37250D01*
X178863Y37217D01*
X178841Y37181D01*
X178819Y37141D01*
X178801Y37094D01*
Y37090D01*
X178797Y37075D01*
X178793Y37053D01*
X178786Y37024D01*
X178782Y36981D01*
X178779Y36926D01*
X178775Y36861D01*
Y36140D01*
X179674D01*
Y36817D01*
X179671Y36842D01*
Y36868D01*
X179667Y36897D01*
X179660Y36966D01*
X179645Y37043D01*
X179623Y37119D01*
X179594Y37188D01*
X179576Y37221D01*
X179554Y37246D01*
X179547Y37254D01*
X179532Y37268D01*
X179503Y37290D01*
X179467Y37316D01*
X179419Y37341D01*
X179361Y37363D01*
X179296Y37378D01*
X179219Y37385D01*
D02*
G37*
G36*
X137109Y37356D02*
X137105D01*
X137102D01*
X137083D01*
X137051Y37352D01*
X137014Y37345D01*
X136974Y37337D01*
X136927Y37323D01*
X136883Y37301D01*
X136839Y37276D01*
X136836Y37272D01*
X136821Y37261D01*
X136803Y37243D01*
X136778Y37221D01*
X136752Y37188D01*
X136730Y37152D01*
X136708Y37112D01*
X136690Y37064D01*
Y37061D01*
X136687Y37046D01*
X136683Y37024D01*
X136676Y36995D01*
X136672Y36952D01*
X136669Y36897D01*
X136665Y36832D01*
Y36111D01*
X137564D01*
Y36788D01*
X137560Y36813D01*
Y36839D01*
X137557Y36868D01*
X137549Y36937D01*
X137535Y37014D01*
X137513Y37090D01*
X137484Y37159D01*
X137466Y37192D01*
X137444Y37217D01*
X137436Y37225D01*
X137422Y37239D01*
X137393Y37261D01*
X137356Y37286D01*
X137309Y37312D01*
X137251Y37334D01*
X137185Y37348D01*
X137109Y37356D01*
D02*
G37*
G36*
X159132Y39350D02*
X159129D01*
X159121D01*
X159107D01*
X159089Y39347D01*
X159067D01*
X159041Y39343D01*
X158983Y39332D01*
X158917Y39318D01*
X158848Y39292D01*
X158783Y39256D01*
X158721Y39208D01*
X158714Y39201D01*
X158695Y39183D01*
X158674Y39154D01*
X158644Y39114D01*
X158615Y39063D01*
X158594Y39005D01*
X158575Y38935D01*
X158568Y38859D01*
Y38837D01*
X158572Y38823D01*
X158575Y38786D01*
X158586Y38735D01*
X158605Y38681D01*
X158634Y38619D01*
X158670Y38561D01*
X158721Y38502D01*
X158728Y38495D01*
X158747Y38480D01*
X158779Y38455D01*
X158826Y38429D01*
X158881Y38404D01*
X158950Y38379D01*
X159027Y38364D01*
X159114Y38357D01*
X159121D01*
X159140D01*
X159172Y38360D01*
X159212Y38364D01*
X159260Y38371D01*
X159311Y38386D01*
X159365Y38400D01*
X159420Y38422D01*
X159427Y38426D01*
X159445Y38437D01*
X159471Y38451D01*
X159504Y38473D01*
X159536Y38499D01*
X159576Y38531D01*
X159609Y38568D01*
X159642Y38611D01*
X159645Y38619D01*
X159653Y38633D01*
X159667Y38659D01*
X159678Y38691D01*
X159693Y38728D01*
X159707Y38772D01*
X159715Y38819D01*
X159718Y38870D01*
Y38888D01*
X159715Y38903D01*
X159711Y38939D01*
X159700Y38986D01*
X159678Y39037D01*
X159653Y39096D01*
X159613Y39154D01*
X159591Y39183D01*
X159562Y39208D01*
X159558D01*
X159555Y39216D01*
X159533Y39230D01*
X159496Y39252D01*
X159449Y39281D01*
X159387Y39307D01*
X159314Y39329D01*
X159231Y39343D01*
X159132Y39350D01*
D02*
G37*
G36*
X158153Y37374D02*
X158150D01*
X158146D01*
X158128D01*
X158095Y37370D01*
X158059Y37363D01*
X158019Y37356D01*
X157971Y37341D01*
X157928Y37319D01*
X157884Y37294D01*
X157880Y37290D01*
X157866Y37279D01*
X157847Y37261D01*
X157822Y37239D01*
X157796Y37206D01*
X157775Y37170D01*
X157753Y37130D01*
X157735Y37083D01*
Y37079D01*
X157731Y37064D01*
X157727Y37043D01*
X157720Y37014D01*
X157716Y36970D01*
X157713Y36915D01*
X157709Y36850D01*
Y36129D01*
X158608D01*
Y36806D01*
X158605Y36832D01*
Y36857D01*
X158601Y36886D01*
X158594Y36955D01*
X158579Y37032D01*
X158557Y37108D01*
X158528Y37177D01*
X158510Y37210D01*
X158488Y37236D01*
X158481Y37243D01*
X158466Y37257D01*
X158437Y37279D01*
X158401Y37305D01*
X158353Y37330D01*
X158295Y37352D01*
X158230Y37367D01*
X158153Y37374D01*
D02*
G37*
G36*
X200253D02*
X200249D01*
X200245D01*
X200227D01*
X200194Y37370D01*
X200158Y37363D01*
X200118Y37356D01*
X200071Y37341D01*
X200027Y37319D01*
X199983Y37294D01*
X199980Y37290D01*
X199965Y37279D01*
X199947Y37261D01*
X199921Y37239D01*
X199896Y37206D01*
X199874Y37170D01*
X199852Y37130D01*
X199834Y37083D01*
Y37079D01*
X199830Y37064D01*
X199827Y37043D01*
X199819Y37014D01*
X199816Y36970D01*
X199812Y36915D01*
X199809Y36850D01*
Y36129D01*
X200708D01*
Y36806D01*
X200704Y36832D01*
Y36857D01*
X200700Y36886D01*
X200693Y36955D01*
X200678Y37032D01*
X200657Y37108D01*
X200627Y37177D01*
X200609Y37210D01*
X200587Y37236D01*
X200580Y37243D01*
X200566Y37257D01*
X200536Y37279D01*
X200500Y37305D01*
X200453Y37330D01*
X200395Y37352D01*
X200329Y37367D01*
X200253Y37374D01*
D02*
G37*
G36*
X428625Y141375D02*
X427726D01*
Y140698D01*
X427730Y140672D01*
Y140647D01*
X427733Y140618D01*
X427740Y140548D01*
X427755Y140472D01*
X427777Y140395D01*
X427806Y140326D01*
X427824Y140294D01*
X427846Y140268D01*
X427853Y140261D01*
X427868Y140246D01*
X427897Y140224D01*
X427934Y140199D01*
X427981Y140173D01*
X428039Y140152D01*
X428104Y140137D01*
X428181Y140130D01*
X428185D01*
X428188D01*
X428206D01*
X428239Y140133D01*
X428276Y140141D01*
X428316Y140148D01*
X428363Y140163D01*
X428407Y140184D01*
X428450Y140210D01*
X428454Y140214D01*
X428469Y140224D01*
X428487Y140243D01*
X428512Y140264D01*
X428538Y140297D01*
X428559Y140334D01*
X428581Y140374D01*
X428600Y140421D01*
Y140425D01*
X428603Y140439D01*
X428607Y140461D01*
X428614Y140490D01*
X428618Y140534D01*
X428621Y140588D01*
X428625Y140654D01*
Y141375D01*
D02*
G37*
G36*
X428290Y139074D02*
X428287D01*
X428283D01*
X428261Y139071D01*
X428228Y139067D01*
X428188Y139060D01*
X428141Y139045D01*
X428094Y139027D01*
X428043Y138998D01*
X427999Y138961D01*
X427995Y138958D01*
X427981Y138939D01*
X427963Y138914D01*
X427944Y138881D01*
X427922Y138838D01*
X427904Y138787D01*
X427890Y138728D01*
X427886Y138663D01*
Y138656D01*
X427890Y138634D01*
X427893Y138601D01*
X427901Y138557D01*
X427915Y138510D01*
X427934Y138463D01*
X427963Y138412D01*
X427999Y138368D01*
X428003Y138364D01*
X428021Y138350D01*
X428043Y138332D01*
X428075Y138310D01*
X428116Y138288D01*
X428163Y138270D01*
X428217Y138255D01*
X428276Y138251D01*
X428279D01*
X428283D01*
X428305D01*
X428337Y138259D01*
X428377Y138266D01*
X428421Y138281D01*
X428469Y138303D01*
X428516Y138332D01*
X428563Y138372D01*
X428567Y138375D01*
X428581Y138393D01*
X428600Y138419D01*
X428621Y138452D01*
X428643Y138495D01*
X428661Y138543D01*
X428676Y138601D01*
X428680Y138663D01*
Y138692D01*
X428672Y138725D01*
X428665Y138768D01*
X428651Y138816D01*
X428632Y138867D01*
X428603Y138914D01*
X428563Y138961D01*
X428559Y138965D01*
X428545Y138979D01*
X428519Y138998D01*
X428487Y139016D01*
X428447Y139038D01*
X428399Y139056D01*
X428348Y139071D01*
X428290Y139074D01*
D02*
G37*
G36*
X427129Y139176D02*
X427122D01*
X427107D01*
X427082Y139172D01*
X427049Y139169D01*
X427009Y139162D01*
X426965Y139151D01*
X426922Y139136D01*
X426874Y139118D01*
X426871Y139114D01*
X426852Y139107D01*
X426830Y139092D01*
X426805Y139071D01*
X426772Y139045D01*
X426740Y139012D01*
X426710Y138976D01*
X426681Y138932D01*
X426678Y138925D01*
X426670Y138910D01*
X426659Y138885D01*
X426649Y138852D01*
X426638Y138812D01*
X426627Y138765D01*
X426619Y138714D01*
X426616Y138663D01*
Y138641D01*
X426619Y138627D01*
X426623Y138583D01*
X426634Y138532D01*
X426652Y138474D01*
X426674Y138412D01*
X426710Y138354D01*
X426758Y138295D01*
X426765Y138288D01*
X426783Y138273D01*
X426816Y138248D01*
X426856Y138222D01*
X426907Y138197D01*
X426969Y138172D01*
X427042Y138157D01*
X427118Y138150D01*
X427122D01*
X427129D01*
X427140D01*
X427154Y138153D01*
X427194Y138157D01*
X427249Y138168D01*
X427304Y138186D01*
X427366Y138212D01*
X427427Y138248D01*
X427486Y138299D01*
X427493Y138306D01*
X427508Y138324D01*
X427533Y138357D01*
X427562Y138401D01*
X427588Y138455D01*
X427613Y138521D01*
X427628Y138594D01*
X427635Y138674D01*
Y138696D01*
X427631Y138710D01*
X427628Y138750D01*
X427617Y138801D01*
X427599Y138859D01*
X427573Y138918D01*
X427537Y138979D01*
X427489Y139034D01*
X427482Y139041D01*
X427464Y139056D01*
X427431Y139078D01*
X427391Y139103D01*
X427337Y139132D01*
X427275Y139154D01*
X427206Y139169D01*
X427129Y139176D01*
D02*
G37*
G36*
X428424Y253375D02*
X427525D01*
Y252698D01*
X427529Y252672D01*
Y252647D01*
X427532Y252618D01*
X427540Y252548D01*
X427554Y252472D01*
X427576Y252396D01*
X427605Y252326D01*
X427624Y252294D01*
X427645Y252268D01*
X427653Y252261D01*
X427667Y252246D01*
X427696Y252224D01*
X427733Y252199D01*
X427780Y252173D01*
X427838Y252152D01*
X427904Y252137D01*
X427980Y252130D01*
X427984D01*
X427987D01*
X428006D01*
X428038Y252133D01*
X428075Y252141D01*
X428115Y252148D01*
X428162Y252163D01*
X428206Y252184D01*
X428250Y252210D01*
X428253Y252214D01*
X428268Y252224D01*
X428286Y252243D01*
X428311Y252264D01*
X428337Y252297D01*
X428359Y252334D01*
X428381Y252374D01*
X428399Y252421D01*
Y252425D01*
X428402Y252439D01*
X428406Y252461D01*
X428413Y252490D01*
X428417Y252534D01*
X428421Y252588D01*
X428424Y252654D01*
Y253375D01*
D02*
G37*
G36*
X427871Y251172D02*
X427867D01*
X427860D01*
X427849D01*
X427831Y251169D01*
X427809D01*
X427787Y251165D01*
X427733Y251154D01*
X427671Y251136D01*
X427605Y251114D01*
X427540Y251078D01*
X427482Y251030D01*
X427474Y251023D01*
X427460Y251005D01*
X427434Y250972D01*
X427409Y250932D01*
X427380Y250878D01*
X427354Y250816D01*
X427340Y250747D01*
X427332Y250670D01*
Y250648D01*
X427336Y250634D01*
X427340Y250594D01*
X427351Y250546D01*
X427369Y250488D01*
X427394Y250430D01*
X427430Y250372D01*
X427482Y250317D01*
X427489Y250310D01*
X427511Y250295D01*
X427543Y250273D01*
X427591Y250244D01*
X427649Y250219D01*
X427718Y250197D01*
X427802Y250182D01*
X427896Y250175D01*
X427900D01*
X427907D01*
X427922D01*
X427940Y250179D01*
X427966D01*
X427991Y250182D01*
X428049Y250193D01*
X428119Y250208D01*
X428191Y250233D01*
X428261Y250270D01*
X428322Y250317D01*
X428326D01*
X428330Y250324D01*
X428348Y250343D01*
X428373Y250372D01*
X428402Y250412D01*
X428428Y250463D01*
X428453Y250521D01*
X428472Y250586D01*
X428479Y250623D01*
Y250681D01*
X428475Y250696D01*
X428472Y250736D01*
X428457Y250783D01*
X428439Y250841D01*
X428406Y250903D01*
X428366Y250965D01*
X428337Y250994D01*
X428308Y251023D01*
X428304D01*
X428301Y251030D01*
X428290Y251038D01*
X428279Y251045D01*
X428242Y251071D01*
X428191Y251096D01*
X428129Y251125D01*
X428053Y251151D01*
X427966Y251165D01*
X427871Y251172D01*
D02*
G37*
G36*
X402899Y290424D02*
X402178D01*
Y289525D01*
X402855D01*
X402880Y289529D01*
X402906D01*
X402935Y289532D01*
X403004Y289540D01*
X403081Y289554D01*
X403157Y289576D01*
X403226Y289605D01*
X403259Y289623D01*
X403285Y289645D01*
X403292Y289653D01*
X403306Y289667D01*
X403328Y289696D01*
X403354Y289733D01*
X403379Y289780D01*
X403401Y289838D01*
X403415Y289904D01*
X403423Y289980D01*
Y289984D01*
Y289987D01*
Y290006D01*
X403419Y290038D01*
X403412Y290075D01*
X403405Y290115D01*
X403390Y290162D01*
X403368Y290206D01*
X403343Y290249D01*
X403339Y290253D01*
X403328Y290268D01*
X403310Y290286D01*
X403288Y290311D01*
X403255Y290337D01*
X403219Y290359D01*
X403179Y290381D01*
X403132Y290399D01*
X403128D01*
X403113Y290402D01*
X403092Y290406D01*
X403062Y290413D01*
X403019Y290417D01*
X402964Y290421D01*
X402899Y290424D01*
D02*
G37*
G36*
X406841Y290479D02*
X406819D01*
X406804Y290475D01*
X406764Y290468D01*
X406717Y290457D01*
X406662Y290435D01*
X406604Y290402D01*
X406575Y290381D01*
X406546Y290359D01*
X406520Y290330D01*
X406495Y290297D01*
Y290293D01*
X406488Y290286D01*
X406480Y290271D01*
X406469Y290253D01*
X406459Y290224D01*
X406444Y290191D01*
X406433Y290151D01*
X406419Y290104D01*
X406404Y290049D01*
X406389Y289987D01*
X406375Y289918D01*
X406364Y289842D01*
X406353Y289755D01*
X406346Y289660D01*
X406342Y289558D01*
X406338Y289445D01*
Y289438D01*
Y289420D01*
Y289387D01*
X406342Y289343D01*
Y289296D01*
X406346Y289238D01*
X406349Y289176D01*
X406357Y289110D01*
X406375Y288968D01*
X406386Y288899D01*
X406400Y288834D01*
X406415Y288772D01*
X406437Y288714D01*
X406459Y288663D01*
X406484Y288619D01*
Y288615D01*
X406491Y288612D01*
X406509Y288586D01*
X406542Y288553D01*
X406582Y288517D01*
X406637Y288480D01*
X406699Y288448D01*
X406768Y288422D01*
X406804Y288419D01*
X406844Y288415D01*
X406866D01*
X406881Y288419D01*
X406917Y288426D01*
X406968Y288440D01*
X407023Y288466D01*
X407085Y288502D01*
X407114Y288524D01*
X407143Y288553D01*
X407172Y288582D01*
X407201Y288619D01*
Y288622D01*
X407208Y288630D01*
X407216Y288641D01*
X407223Y288659D01*
X407237Y288684D01*
X407248Y288717D01*
X407263Y288754D01*
X407278Y288797D01*
X407289Y288852D01*
X407303Y288910D01*
X407318Y288979D01*
X407329Y289052D01*
X407336Y289139D01*
X407343Y289230D01*
X407350Y289332D01*
Y289445D01*
Y289449D01*
Y289452D01*
Y289471D01*
Y289503D01*
X407347Y289547D01*
Y289594D01*
X407343Y289653D01*
X407339Y289715D01*
X407332Y289784D01*
X407314Y289922D01*
X407303Y289991D01*
X407289Y290057D01*
X407274Y290119D01*
X407252Y290177D01*
X407230Y290228D01*
X407205Y290271D01*
Y290275D01*
X407198Y290279D01*
X407190Y290290D01*
X407179Y290304D01*
X407147Y290337D01*
X407106Y290377D01*
X407052Y290413D01*
X406990Y290446D01*
X406957Y290461D01*
X406921Y290472D01*
X406881Y290475D01*
X406841Y290479D01*
D02*
G37*
G36*
X427864Y80641D02*
X427860D01*
X427856D01*
X427838D01*
X427805Y80637D01*
X427769Y80630D01*
X427729Y80623D01*
X427681Y80608D01*
X427638Y80586D01*
X427594Y80561D01*
X427591Y80557D01*
X427576Y80546D01*
X427558Y80528D01*
X427532Y80506D01*
X427507Y80474D01*
X427485Y80437D01*
X427463Y80397D01*
X427445Y80350D01*
Y80346D01*
X427441Y80332D01*
X427438Y80310D01*
X427430Y80281D01*
X427427Y80237D01*
X427423Y80182D01*
X427419Y80117D01*
Y79396D01*
X428319D01*
Y80073D01*
X428315Y80099D01*
Y80124D01*
X428311Y80153D01*
X428304Y80222D01*
X428289Y80299D01*
X428267Y80375D01*
X428238Y80444D01*
X428220Y80477D01*
X428198Y80503D01*
X428191Y80510D01*
X428176Y80524D01*
X428147Y80546D01*
X428111Y80572D01*
X428064Y80597D01*
X428006Y80619D01*
X427940Y80634D01*
X427864Y80641D01*
D02*
G37*
G36*
X215049Y306216D02*
X215045D01*
X215041D01*
X215023D01*
X214991Y306212D01*
X214954Y306205D01*
X214914Y306197D01*
X214867Y306183D01*
X214823Y306161D01*
X214779Y306135D01*
X214776Y306132D01*
X214761Y306121D01*
X214743Y306103D01*
X214718Y306081D01*
X214692Y306048D01*
X214670Y306012D01*
X214648Y305972D01*
X214630Y305924D01*
Y305921D01*
X214627Y305906D01*
X214623Y305884D01*
X214616Y305855D01*
X214612Y305812D01*
X214608Y305757D01*
X214605Y305691D01*
Y304971D01*
X215504D01*
Y305648D01*
X215500Y305673D01*
Y305699D01*
X215496Y305728D01*
X215489Y305797D01*
X215475Y305873D01*
X215453Y305950D01*
X215424Y306019D01*
X215406Y306052D01*
X215384Y306077D01*
X215376Y306084D01*
X215362Y306099D01*
X215333Y306121D01*
X215296Y306146D01*
X215249Y306172D01*
X215191Y306194D01*
X215125Y306208D01*
X215049Y306216D01*
D02*
G37*
G36*
X194938Y309816D02*
X193809D01*
X194938Y309022D01*
Y309816D01*
D02*
G37*
G36*
X194050Y306226D02*
X194046D01*
X194043D01*
X194024D01*
X193991Y306223D01*
X193955Y306216D01*
X193915Y306208D01*
X193868Y306194D01*
X193824Y306172D01*
X193780Y306146D01*
X193777Y306143D01*
X193762Y306132D01*
X193744Y306114D01*
X193719Y306092D01*
X193693Y306059D01*
X193671Y306023D01*
X193649Y305982D01*
X193631Y305935D01*
Y305932D01*
X193628Y305917D01*
X193624Y305895D01*
X193617Y305866D01*
X193613Y305822D01*
X193609Y305768D01*
X193606Y305702D01*
Y304982D01*
X194505D01*
Y305659D01*
X194501Y305684D01*
Y305710D01*
X194498Y305739D01*
X194490Y305808D01*
X194476Y305884D01*
X194454Y305961D01*
X194425Y306030D01*
X194406Y306063D01*
X194385Y306088D01*
X194377Y306095D01*
X194363Y306110D01*
X194334Y306132D01*
X194297Y306157D01*
X194250Y306183D01*
X194192Y306205D01*
X194126Y306219D01*
X194050Y306226D01*
D02*
G37*
G36*
X172963Y306197D02*
X172960D01*
X172956D01*
X172938D01*
X172905Y306194D01*
X172869Y306186D01*
X172829Y306179D01*
X172781Y306165D01*
X172738Y306143D01*
X172694Y306117D01*
X172690Y306114D01*
X172676Y306103D01*
X172658Y306084D01*
X172632Y306063D01*
X172607Y306030D01*
X172585Y305994D01*
X172563Y305953D01*
X172545Y305906D01*
Y305903D01*
X172541Y305888D01*
X172538Y305866D01*
X172530Y305837D01*
X172527Y305793D01*
X172523Y305739D01*
X172519Y305673D01*
Y304952D01*
X173418D01*
Y305629D01*
X173415Y305655D01*
Y305680D01*
X173411Y305710D01*
X173404Y305779D01*
X173389Y305855D01*
X173367Y305932D01*
X173338Y306001D01*
X173320Y306033D01*
X173298Y306059D01*
X173291Y306066D01*
X173276Y306081D01*
X173247Y306103D01*
X173211Y306128D01*
X173163Y306154D01*
X173105Y306175D01*
X173040Y306190D01*
X172963Y306197D01*
D02*
G37*
G36*
X152900Y310150D02*
X152896D01*
X152889D01*
X152874D01*
X152856Y310147D01*
X152834D01*
X152809Y310143D01*
X152751Y310132D01*
X152685Y310118D01*
X152616Y310092D01*
X152550Y310056D01*
X152488Y310008D01*
X152481Y310001D01*
X152463Y309983D01*
X152441Y309954D01*
X152412Y309914D01*
X152383Y309863D01*
X152361Y309805D01*
X152343Y309735D01*
X152336Y309659D01*
Y309637D01*
X152339Y309623D01*
X152343Y309586D01*
X152354Y309535D01*
X152372Y309481D01*
X152401Y309419D01*
X152437Y309361D01*
X152488Y309302D01*
X152496Y309295D01*
X152514Y309280D01*
X152547Y309255D01*
X152594Y309229D01*
X152649Y309204D01*
X152718Y309178D01*
X152794Y309164D01*
X152882Y309157D01*
X152889D01*
X152907D01*
X152940Y309160D01*
X152980Y309164D01*
X153027Y309171D01*
X153078Y309186D01*
X153133Y309200D01*
X153187Y309222D01*
X153195Y309226D01*
X153213Y309237D01*
X153238Y309251D01*
X153271Y309273D01*
X153304Y309299D01*
X153344Y309331D01*
X153377Y309368D01*
X153409Y309411D01*
X153413Y309419D01*
X153420Y309433D01*
X153435Y309459D01*
X153446Y309491D01*
X153460Y309528D01*
X153475Y309572D01*
X153482Y309619D01*
X153486Y309670D01*
Y309688D01*
X153482Y309703D01*
X153479Y309739D01*
X153468Y309786D01*
X153446Y309837D01*
X153420Y309896D01*
X153380Y309954D01*
X153358Y309983D01*
X153329Y310008D01*
X153326D01*
X153322Y310016D01*
X153300Y310030D01*
X153264Y310052D01*
X153216Y310081D01*
X153155Y310107D01*
X153082Y310128D01*
X152998Y310143D01*
X152900Y310150D01*
D02*
G37*
G36*
X151921Y306216D02*
X151917D01*
X151913D01*
X151895D01*
X151862Y306212D01*
X151826Y306205D01*
X151786Y306197D01*
X151739Y306183D01*
X151695Y306161D01*
X151651Y306135D01*
X151648Y306132D01*
X151633Y306121D01*
X151615Y306103D01*
X151589Y306081D01*
X151564Y306048D01*
X151542Y306012D01*
X151520Y305972D01*
X151502Y305924D01*
Y305921D01*
X151498Y305906D01*
X151495Y305884D01*
X151487Y305855D01*
X151484Y305812D01*
X151480Y305757D01*
X151477Y305691D01*
Y304971D01*
X152376D01*
Y305648D01*
X152372Y305673D01*
Y305699D01*
X152368Y305728D01*
X152361Y305797D01*
X152347Y305873D01*
X152325Y305950D01*
X152295Y306019D01*
X152277Y306052D01*
X152255Y306077D01*
X152248Y306084D01*
X152234Y306099D01*
X152205Y306121D01*
X152168Y306146D01*
X152121Y306172D01*
X152063Y306194D01*
X151997Y306208D01*
X151921Y306216D01*
D02*
G37*
G36*
X257178D02*
X257174D01*
X257171D01*
X257153D01*
X257120Y306212D01*
X257083Y306205D01*
X257043Y306197D01*
X256996Y306183D01*
X256952Y306161D01*
X256909Y306135D01*
X256905Y306132D01*
X256890Y306121D01*
X256872Y306103D01*
X256847Y306081D01*
X256821Y306048D01*
X256799Y306012D01*
X256778Y305972D01*
X256759Y305924D01*
Y305921D01*
X256756Y305906D01*
X256752Y305884D01*
X256745Y305855D01*
X256741Y305812D01*
X256737Y305757D01*
X256734Y305691D01*
Y304971D01*
X257633D01*
Y305648D01*
X257629Y305673D01*
Y305699D01*
X257626Y305728D01*
X257618Y305797D01*
X257604Y305873D01*
X257582Y305950D01*
X257553Y306019D01*
X257535Y306052D01*
X257513Y306077D01*
X257506Y306084D01*
X257491Y306099D01*
X257462Y306121D01*
X257425Y306146D01*
X257378Y306172D01*
X257320Y306194D01*
X257254Y306208D01*
X257178Y306216D01*
D02*
G37*
G36*
X278082Y310048D02*
X278079D01*
X278075D01*
X278053D01*
X278021Y310041D01*
X277980Y310034D01*
X277937Y310019D01*
X277889Y309998D01*
X277842Y309968D01*
X277795Y309928D01*
X277791Y309925D01*
X277777Y309907D01*
X277758Y309881D01*
X277737Y309848D01*
X277715Y309805D01*
X277697Y309757D01*
X277682Y309699D01*
X277678Y309637D01*
Y309608D01*
X277686Y309575D01*
X277693Y309532D01*
X277708Y309484D01*
X277726Y309433D01*
X277755Y309386D01*
X277795Y309339D01*
X277799Y309335D01*
X277813Y309320D01*
X277838Y309302D01*
X277871Y309284D01*
X277911Y309262D01*
X277959Y309244D01*
X278010Y309229D01*
X278068Y309226D01*
X278071D01*
X278075D01*
X278097Y309229D01*
X278130Y309233D01*
X278170Y309240D01*
X278217Y309255D01*
X278264Y309273D01*
X278315Y309302D01*
X278359Y309339D01*
X278363Y309342D01*
X278377Y309361D01*
X278395Y309386D01*
X278414Y309419D01*
X278435Y309462D01*
X278454Y309513D01*
X278468Y309572D01*
X278472Y309637D01*
Y309644D01*
X278468Y309666D01*
X278465Y309699D01*
X278457Y309743D01*
X278443Y309790D01*
X278425Y309837D01*
X278395Y309888D01*
X278359Y309932D01*
X278355Y309936D01*
X278337Y309950D01*
X278315Y309968D01*
X278283Y309990D01*
X278243Y310012D01*
X278195Y310030D01*
X278141Y310045D01*
X278082Y310048D01*
D02*
G37*
G36*
X279240Y310150D02*
X279236D01*
X279229D01*
X279218D01*
X279204Y310147D01*
X279164Y310143D01*
X279109Y310132D01*
X279054Y310114D01*
X278992Y310088D01*
X278930Y310052D01*
X278872Y310001D01*
X278865Y309994D01*
X278850Y309976D01*
X278825Y309943D01*
X278796Y309899D01*
X278770Y309845D01*
X278745Y309779D01*
X278730Y309706D01*
X278723Y309626D01*
Y309604D01*
X278727Y309590D01*
X278730Y309550D01*
X278741Y309499D01*
X278759Y309440D01*
X278785Y309382D01*
X278821Y309320D01*
X278869Y309266D01*
X278876Y309259D01*
X278894Y309244D01*
X278927Y309222D01*
X278967Y309197D01*
X279022Y309168D01*
X279083Y309146D01*
X279153Y309131D01*
X279229Y309124D01*
X279236D01*
X279251D01*
X279276Y309127D01*
X279309Y309131D01*
X279349Y309138D01*
X279393Y309149D01*
X279436Y309164D01*
X279484Y309182D01*
X279487Y309186D01*
X279506Y309193D01*
X279527Y309208D01*
X279553Y309229D01*
X279586Y309255D01*
X279619Y309288D01*
X279648Y309324D01*
X279677Y309368D01*
X279680Y309375D01*
X279688Y309390D01*
X279699Y309415D01*
X279710Y309448D01*
X279720Y309488D01*
X279731Y309535D01*
X279739Y309586D01*
X279742Y309637D01*
Y309659D01*
X279739Y309674D01*
X279735Y309717D01*
X279724Y309768D01*
X279706Y309826D01*
X279684Y309888D01*
X279648Y309946D01*
X279600Y310005D01*
X279593Y310012D01*
X279575Y310027D01*
X279542Y310052D01*
X279502Y310078D01*
X279451Y310103D01*
X279389Y310128D01*
X279316Y310143D01*
X279240Y310150D01*
D02*
G37*
G36*
X278177Y306212D02*
X278173D01*
X278170D01*
X278152D01*
X278119Y306208D01*
X278082Y306201D01*
X278042Y306194D01*
X277995Y306179D01*
X277951Y306157D01*
X277908Y306132D01*
X277904Y306128D01*
X277889Y306117D01*
X277871Y306099D01*
X277846Y306077D01*
X277820Y306044D01*
X277799Y306008D01*
X277777Y305968D01*
X277758Y305921D01*
Y305917D01*
X277755Y305903D01*
X277751Y305881D01*
X277744Y305852D01*
X277740Y305808D01*
X277737Y305753D01*
X277733Y305688D01*
Y304967D01*
X278632D01*
Y305644D01*
X278628Y305669D01*
Y305695D01*
X278625Y305724D01*
X278618Y305793D01*
X278603Y305870D01*
X278581Y305946D01*
X278552Y306015D01*
X278534Y306048D01*
X278512Y306073D01*
X278505Y306081D01*
X278490Y306095D01*
X278461Y306117D01*
X278425Y306143D01*
X278377Y306168D01*
X278319Y306190D01*
X278254Y306205D01*
X278177Y306212D01*
D02*
G37*
G36*
X236175Y310125D02*
X236172D01*
X236164D01*
X236150D01*
X236132Y310121D01*
X236106D01*
X236081Y310118D01*
X236022Y310107D01*
X235953Y310092D01*
X235880Y310067D01*
X235811Y310030D01*
X235749Y309983D01*
X235746D01*
X235742Y309976D01*
X235724Y309957D01*
X235698Y309928D01*
X235669Y309888D01*
X235644Y309837D01*
X235618Y309779D01*
X235600Y309714D01*
X235593Y309677D01*
Y309619D01*
X235596Y309604D01*
X235600Y309564D01*
X235615Y309517D01*
X235633Y309459D01*
X235666Y309397D01*
X235706Y309335D01*
X235735Y309306D01*
X235764Y309277D01*
X235768D01*
X235771Y309269D01*
X235782Y309262D01*
X235793Y309255D01*
X235829Y309229D01*
X235880Y309204D01*
X235942Y309175D01*
X236019Y309149D01*
X236106Y309135D01*
X236201Y309127D01*
X236204D01*
X236212D01*
X236223D01*
X236241Y309131D01*
X236263D01*
X236284Y309135D01*
X236339Y309146D01*
X236401Y309164D01*
X236467Y309186D01*
X236532Y309222D01*
X236590Y309269D01*
X236597Y309277D01*
X236612Y309295D01*
X236638Y309328D01*
X236663Y309368D01*
X236692Y309422D01*
X236718Y309484D01*
X236732Y309553D01*
X236739Y309630D01*
Y309652D01*
X236736Y309666D01*
X236732Y309706D01*
X236721Y309754D01*
X236703Y309812D01*
X236678Y309870D01*
X236641Y309928D01*
X236590Y309983D01*
X236583Y309990D01*
X236561Y310005D01*
X236528Y310027D01*
X236481Y310056D01*
X236423Y310081D01*
X236354Y310103D01*
X236270Y310118D01*
X236175Y310125D01*
D02*
G37*
G36*
X236092Y306212D02*
X236088D01*
X236084D01*
X236066D01*
X236033Y306208D01*
X235997Y306201D01*
X235957Y306194D01*
X235910Y306179D01*
X235866Y306157D01*
X235822Y306132D01*
X235819Y306128D01*
X235804Y306117D01*
X235786Y306099D01*
X235760Y306077D01*
X235735Y306044D01*
X235713Y306008D01*
X235691Y305968D01*
X235673Y305921D01*
Y305917D01*
X235669Y305903D01*
X235666Y305881D01*
X235658Y305852D01*
X235655Y305808D01*
X235651Y305753D01*
X235648Y305688D01*
Y304967D01*
X236547D01*
Y305644D01*
X236543Y305669D01*
Y305695D01*
X236539Y305724D01*
X236532Y305793D01*
X236517Y305870D01*
X236496Y305946D01*
X236467Y306015D01*
X236448Y306048D01*
X236426Y306073D01*
X236419Y306081D01*
X236405Y306095D01*
X236375Y306117D01*
X236339Y306143D01*
X236292Y306168D01*
X236233Y306190D01*
X236168Y306205D01*
X236092Y306212D01*
D02*
G37*
G36*
X299868Y310150D02*
X299755D01*
X299751D01*
X299748D01*
X299729D01*
X299697D01*
X299653Y310147D01*
X299606D01*
X299547Y310143D01*
X299485Y310139D01*
X299416Y310132D01*
X299278Y310114D01*
X299209Y310103D01*
X299143Y310088D01*
X299081Y310074D01*
X299023Y310052D01*
X298972Y310030D01*
X298929Y310005D01*
X298925D01*
X298921Y309998D01*
X298910Y309990D01*
X298896Y309979D01*
X298863Y309946D01*
X298823Y309907D01*
X298787Y309852D01*
X298754Y309790D01*
X298739Y309757D01*
X298728Y309721D01*
X298725Y309681D01*
X298721Y309641D01*
Y309619D01*
X298725Y309604D01*
X298732Y309564D01*
X298743Y309517D01*
X298765Y309462D01*
X298797Y309404D01*
X298819Y309375D01*
X298841Y309346D01*
X298870Y309320D01*
X298903Y309295D01*
X298907D01*
X298914Y309288D01*
X298929Y309280D01*
X298947Y309269D01*
X298976Y309259D01*
X299009Y309244D01*
X299049Y309233D01*
X299096Y309219D01*
X299151Y309204D01*
X299213Y309189D01*
X299282Y309175D01*
X299358Y309164D01*
X299446Y309153D01*
X299540Y309146D01*
X299642Y309142D01*
X299755Y309138D01*
X299762D01*
X299780D01*
X299813D01*
X299857Y309142D01*
X299904D01*
X299962Y309146D01*
X300024Y309149D01*
X300090Y309157D01*
X300232Y309175D01*
X300301Y309186D01*
X300366Y309200D01*
X300428Y309215D01*
X300486Y309237D01*
X300537Y309259D01*
X300581Y309284D01*
X300585D01*
X300588Y309291D01*
X300614Y309310D01*
X300647Y309342D01*
X300683Y309382D01*
X300719Y309437D01*
X300752Y309499D01*
X300778Y309568D01*
X300781Y309604D01*
X300785Y309644D01*
Y309666D01*
X300781Y309681D01*
X300774Y309717D01*
X300760Y309768D01*
X300734Y309823D01*
X300698Y309885D01*
X300676Y309914D01*
X300647Y309943D01*
X300618Y309972D01*
X300581Y310001D01*
X300577D01*
X300570Y310008D01*
X300559Y310016D01*
X300541Y310023D01*
X300516Y310037D01*
X300483Y310048D01*
X300447Y310063D01*
X300403Y310078D01*
X300348Y310088D01*
X300290Y310103D01*
X300221Y310118D01*
X300148Y310128D01*
X300061Y310136D01*
X299970Y310143D01*
X299868Y310150D01*
D02*
G37*
G36*
X299220Y306223D02*
X299216D01*
X299213D01*
X299194D01*
X299162Y306219D01*
X299125Y306212D01*
X299085Y306205D01*
X299038Y306190D01*
X298994Y306168D01*
X298950Y306143D01*
X298947Y306139D01*
X298932Y306128D01*
X298914Y306110D01*
X298888Y306088D01*
X298863Y306055D01*
X298841Y306019D01*
X298819Y305979D01*
X298801Y305932D01*
Y305928D01*
X298797Y305913D01*
X298794Y305892D01*
X298787Y305862D01*
X298783Y305819D01*
X298779Y305764D01*
X298776Y305699D01*
Y304978D01*
X299675D01*
Y305655D01*
X299671Y305680D01*
Y305706D01*
X299668Y305735D01*
X299660Y305804D01*
X299646Y305881D01*
X299624Y305957D01*
X299595Y306026D01*
X299576Y306059D01*
X299555Y306084D01*
X299547Y306092D01*
X299533Y306106D01*
X299504Y306128D01*
X299467Y306154D01*
X299420Y306179D01*
X299362Y306201D01*
X299296Y306216D01*
X299220Y306223D01*
D02*
G37*
G36*
X53815Y178085D02*
X53065D01*
X53021Y178081D01*
X52970Y178077D01*
X52912Y178074D01*
X52854Y178067D01*
X52795Y178056D01*
X52745Y178041D01*
X52737Y178038D01*
X52723Y178030D01*
X52701Y178019D01*
X52672Y178005D01*
X52639Y177983D01*
X52606Y177957D01*
X52573Y177925D01*
X52548Y177888D01*
X52544Y177885D01*
X52537Y177870D01*
X52526Y177848D01*
X52512Y177819D01*
X52501Y177786D01*
X52490Y177750D01*
X52482Y177706D01*
X52479Y177663D01*
Y177659D01*
Y177655D01*
X52482Y177633D01*
X52486Y177601D01*
X52493Y177557D01*
X52512Y177513D01*
X52533Y177462D01*
X52566Y177415D01*
X52610Y177368D01*
X52617Y177364D01*
X52635Y177349D01*
X52664Y177331D01*
X52712Y177310D01*
X52766Y177288D01*
X52839Y177269D01*
X52923Y177255D01*
X53021Y177251D01*
X53815D01*
Y178085D01*
D02*
G37*
G36*
X240341Y98915D02*
X239213D01*
X240341Y98122D01*
Y98915D01*
D02*
G37*
%LPD*%
M02*
