G04*
G04 #@! TF.GenerationSoftware,Altium Limited,Altium Designer,20.0.13 (296)*
G04*
G04 Layer_Color=32768*
%FSLAX25Y25*%
%MOIN*%
G70*
G01*
G75*
%ADD84C,0.00197*%
%ADD85C,0.00200*%
G36*
X30946Y314532D02*
X31080Y314394D01*
X31079Y314299D01*
X37150D01*
Y312331D01*
X30850D01*
Y314063D01*
X30850Y314063D01*
X30850Y314063D01*
X30754Y314066D01*
X30621Y314203D01*
X30621Y314395D01*
X30755Y314532D01*
X30850Y314535D01*
X30850Y314535D01*
X30946Y314532D01*
D02*
G37*
G36*
X37150Y301701D02*
X30850D01*
Y303669D01*
X37150D01*
Y301701D01*
D02*
G37*
G36*
X40522Y294783D02*
X40522Y294685D01*
X40522Y294587D01*
X40383Y294449D01*
X40188Y294449D01*
X40049Y294587D01*
X40049Y294685D01*
X40049Y294783D01*
X40188Y294921D01*
X40383Y294921D01*
X40522Y294783D01*
D02*
G37*
G36*
X74207Y289413D02*
X71844D01*
Y290987D01*
X74207D01*
Y289413D01*
D02*
G37*
G36*
Y284413D02*
X71844D01*
Y285987D01*
X74207D01*
Y284413D01*
D02*
G37*
G36*
X133838Y279995D02*
X125964D01*
Y291806D01*
X133838D01*
Y279995D01*
D02*
G37*
G36*
X96436D02*
X88562D01*
Y291806D01*
X96436D01*
Y279995D01*
D02*
G37*
G36*
X74207Y279413D02*
X71844D01*
Y280987D01*
X74207D01*
Y279413D01*
D02*
G37*
G36*
X29261Y275000D02*
D01*
Y275000D01*
Y275000D01*
D02*
G37*
G36*
X9576D02*
D01*
Y275000D01*
Y275000D01*
D02*
G37*
G36*
X74207Y274413D02*
X71844D01*
Y275987D01*
X74207D01*
Y274413D01*
D02*
G37*
G36*
X67100Y274334D02*
X52061D01*
Y274413D01*
X49994D01*
Y275987D01*
X52061D01*
Y279413D01*
X49994D01*
Y280987D01*
X52061D01*
Y284413D01*
X49994D01*
Y285987D01*
X52061D01*
Y289413D01*
X49994D01*
Y290987D01*
X52061D01*
Y291066D01*
X67100D01*
Y274334D01*
D02*
G37*
G36*
X31104Y275983D02*
X31435Y275658D01*
X31619Y275232D01*
X31624Y275000D01*
X31619Y274768D01*
X31435Y274342D01*
X31104Y274017D01*
X30674Y273842D01*
X30210Y273842D01*
X29781Y274017D01*
X29449Y274342D01*
X29265Y274768D01*
X29261Y275000D01*
X29261D01*
X29265Y275232D01*
X29449Y275658D01*
X29781Y275983D01*
X30210Y276158D01*
X30674Y276159D01*
X31104Y275983D01*
D02*
G37*
G36*
X11419D02*
X11750Y275658D01*
X11934Y275232D01*
X11939Y275000D01*
X11934Y274768D01*
X11750Y274342D01*
X11419Y274017D01*
X10989Y273842D01*
X10525Y273842D01*
X10096Y274017D01*
X9764Y274342D01*
X9580Y274768D01*
X9576Y275000D01*
X9576D01*
X9580Y275232D01*
X9764Y275658D01*
X10096Y275983D01*
X10525Y276158D01*
X10989Y276159D01*
X11419Y275983D01*
D02*
G37*
G36*
X74207Y272700D02*
X74207D01*
X74303Y272698D01*
X74438Y272560D01*
Y272368D01*
X74303Y272230D01*
X74207Y272228D01*
X74110Y272230D01*
X73975Y272368D01*
Y272560D01*
X74110Y272698D01*
X74207Y272700D01*
D01*
Y272700D01*
X74207Y272700D01*
D02*
G37*
G36*
X50790Y266670D02*
X50925Y266532D01*
Y266340D01*
X50790Y266202D01*
X50694Y266200D01*
X50597Y266202D01*
X50462Y266340D01*
Y266532D01*
X50597Y266670D01*
X50694Y266672D01*
X50790Y266670D01*
D02*
G37*
G36*
X50694Y266200D02*
Y266200D01*
X50694Y266200D01*
X50694D01*
D01*
D02*
G37*
G36*
X88725Y266609D02*
X88956Y266378D01*
X88956Y266215D01*
X88956Y266052D01*
X88725Y265821D01*
X88399Y265821D01*
X88168Y266052D01*
X88168Y266215D01*
X88168Y266378D01*
X88399Y266609D01*
X88725Y266609D01*
D02*
G37*
G36*
X53056Y262913D02*
X50693D01*
Y264487D01*
X53056D01*
Y262913D01*
D02*
G37*
G36*
X135363Y262983D02*
X135363Y262885D01*
X135363Y262787D01*
X135225Y262649D01*
X135029Y262649D01*
X134891Y262787D01*
X134891Y262885D01*
X134891Y262983D01*
X135029Y263121D01*
X135225Y263121D01*
X135363Y262983D01*
D02*
G37*
G36*
X53056Y257913D02*
X50693D01*
Y259487D01*
X53056D01*
Y257913D01*
D02*
G37*
G36*
Y252913D02*
X50693D01*
Y254487D01*
X53056D01*
Y252913D01*
D02*
G37*
G36*
X373960Y249740D02*
X371440D01*
Y252260D01*
X373960D01*
Y249740D01*
D02*
G37*
G36*
X313960D02*
X311440D01*
Y252260D01*
X313960D01*
Y249740D01*
D02*
G37*
G36*
X53056Y247913D02*
X50693D01*
Y249487D01*
X53056D01*
Y247913D01*
D02*
G37*
G36*
X72839Y264487D02*
X74906D01*
Y262913D01*
X72839D01*
Y259487D01*
X74906D01*
Y257913D01*
X72839D01*
Y254487D01*
X74906D01*
Y252913D01*
X72839D01*
Y249487D01*
X74906D01*
Y247913D01*
X72839D01*
Y247834D01*
X57800D01*
Y264566D01*
X72839D01*
Y264487D01*
D02*
G37*
G36*
X124102Y243200D02*
D01*
Y243200D01*
Y243200D01*
D02*
G37*
G36*
X104418D02*
D01*
Y243200D01*
Y243200D01*
D02*
G37*
G36*
X125945Y244183D02*
X126277Y243858D01*
X126461Y243432D01*
X126465Y243200D01*
X126461Y242968D01*
X126277Y242542D01*
X125945Y242217D01*
X125516Y242042D01*
X125052Y242042D01*
X124622Y242217D01*
X124291Y242542D01*
X124107Y242968D01*
X124102Y243200D01*
X124102D01*
X124107Y243432D01*
X124291Y243858D01*
X124622Y244183D01*
X125052Y244358D01*
X125516Y244359D01*
X125945Y244183D01*
D02*
G37*
G36*
X106260D02*
X106592Y243858D01*
X106776Y243432D01*
X106780Y243200D01*
X106776Y242968D01*
X106592Y242542D01*
X106260Y242217D01*
X105831Y242042D01*
X105367Y242042D01*
X104937Y242217D01*
X104606Y242542D01*
X104422Y242968D01*
X104418Y243200D01*
X104418D01*
X104422Y243432D01*
X104606Y243858D01*
X104937Y244183D01*
X105367Y244358D01*
X105831Y244359D01*
X106260Y244183D01*
D02*
G37*
G36*
X373960Y239740D02*
X371440D01*
Y242260D01*
X373960D01*
Y239740D01*
D02*
G37*
G36*
X313960D02*
X311440D01*
Y242260D01*
X313960D01*
Y239740D01*
D02*
G37*
G36*
X233039Y240808D02*
X233039D01*
X233135Y240806D01*
X233270Y240668D01*
Y240572D01*
X237961D01*
Y238997D01*
X233039D01*
Y240336D01*
X233039Y240336D01*
X232943Y240338D01*
X232808Y240476D01*
Y240668D01*
X232943Y240806D01*
X233039Y240808D01*
D01*
Y240808D01*
X233039Y240808D01*
D02*
G37*
G36*
X156261Y235562D02*
X151339D01*
Y237137D01*
X156261D01*
Y235562D01*
D02*
G37*
G36*
X237961Y232698D02*
X233039D01*
Y234273D01*
X237961D01*
Y232698D01*
D02*
G37*
G36*
X373960Y229740D02*
X371440D01*
Y232260D01*
X373960D01*
Y229740D01*
D02*
G37*
G36*
X313960D02*
X311440D01*
Y232260D01*
X313960D01*
Y229740D01*
D02*
G37*
G36*
X156261Y229499D02*
X156261Y229499D01*
X156357Y229497D01*
X156492Y229359D01*
Y229167D01*
X156357Y229029D01*
X156261Y229027D01*
X156165Y229029D01*
X156030Y229167D01*
Y229263D01*
X151339D01*
Y230838D01*
X156261D01*
Y229499D01*
D02*
G37*
G36*
X156261Y229027D02*
Y229027D01*
X156261Y229027D01*
X156261D01*
D01*
D02*
G37*
G36*
X76782Y227409D02*
Y227311D01*
Y227213D01*
X76644Y227075D01*
X76449D01*
X76310Y227213D01*
Y227311D01*
Y227409D01*
X76449Y227547D01*
X76644D01*
X76782Y227409D01*
D02*
G37*
G36*
X75561Y224870D02*
Y223138D01*
X73987D01*
Y224870D01*
Y227311D01*
X75561D01*
Y224870D01*
D02*
G37*
G36*
X71624D02*
Y223138D01*
X70050D01*
Y224870D01*
Y227311D01*
X71624D01*
Y224870D01*
D02*
G37*
G36*
X67687D02*
Y223138D01*
X66113D01*
Y224870D01*
Y227311D01*
X67687D01*
Y224870D01*
D02*
G37*
G36*
X63750D02*
Y223138D01*
X62176D01*
Y224870D01*
Y227311D01*
X63750D01*
Y224870D01*
D02*
G37*
G36*
X59813D02*
Y223138D01*
X58239D01*
Y224870D01*
Y227311D01*
X59813D01*
Y224870D01*
D02*
G37*
G36*
X136763Y221283D02*
X136763Y221185D01*
X136763Y221087D01*
X136625Y220949D01*
X136429Y220949D01*
X136291Y221087D01*
X136291Y221185D01*
X136291Y221283D01*
X136429Y221421D01*
X136625Y221421D01*
X136763Y221283D01*
D02*
G37*
G36*
X373960Y219740D02*
X371440D01*
Y222260D01*
X373960D01*
Y219740D01*
D02*
G37*
G36*
X313960D02*
X311440D01*
Y222260D01*
X313960D01*
Y219740D01*
D02*
G37*
G36*
X373960Y209740D02*
X371440D01*
Y212260D01*
X373960D01*
Y209740D01*
D02*
G37*
G36*
X313960D02*
X311440D01*
Y212260D01*
X313960D01*
Y209740D01*
D02*
G37*
G36*
X75561Y206091D02*
Y203689D01*
X73987D01*
Y206091D01*
Y207862D01*
X75561D01*
Y206091D01*
D02*
G37*
G36*
X71624D02*
Y203689D01*
X70050D01*
Y206091D01*
Y207862D01*
X71624D01*
Y206091D01*
D02*
G37*
G36*
X67687D02*
Y203689D01*
X66113D01*
Y206091D01*
Y207862D01*
X67687D01*
Y206091D01*
D02*
G37*
G36*
X63750D02*
Y203689D01*
X62176D01*
Y206091D01*
Y207862D01*
X63750D01*
Y206091D01*
D02*
G37*
G36*
X59813D02*
Y203689D01*
X58239D01*
Y206091D01*
Y207862D01*
X59813D01*
Y206091D01*
D02*
G37*
G36*
X125502Y201500D02*
D01*
Y201500D01*
Y201500D01*
D02*
G37*
G36*
X105817D02*
D01*
Y201500D01*
Y201500D01*
D02*
G37*
G36*
X127345Y202483D02*
X127677Y202158D01*
X127861Y201732D01*
X127865Y201500D01*
X127861Y201268D01*
X127677Y200842D01*
X127345Y200517D01*
X126916Y200342D01*
X126452Y200342D01*
X126022Y200517D01*
X125691Y200842D01*
X125507Y201268D01*
X125502Y201500D01*
X125503D01*
X125507Y201732D01*
X125691Y202158D01*
X126022Y202483D01*
X126452Y202659D01*
X126916Y202659D01*
X127345Y202483D01*
D02*
G37*
G36*
X107660D02*
X107992Y202158D01*
X108176Y201732D01*
X108180Y201500D01*
X108176Y201268D01*
X107992Y200842D01*
X107660Y200517D01*
X107231Y200342D01*
X106767Y200342D01*
X106337Y200517D01*
X106006Y200842D01*
X105822Y201268D01*
X105817Y201500D01*
X105817D01*
X105822Y201732D01*
X106006Y202158D01*
X106337Y202483D01*
X106767Y202659D01*
X107231Y202659D01*
X107660Y202483D01*
D02*
G37*
G36*
X373960Y199740D02*
X371440D01*
Y202260D01*
X373960D01*
Y199740D01*
D02*
G37*
G36*
X313960D02*
X311440D01*
Y202260D01*
X313960D01*
Y199740D01*
D02*
G37*
G36*
X373960Y189740D02*
X371440D01*
Y192260D01*
X373960D01*
Y189740D01*
D02*
G37*
G36*
X313960D02*
X311440D01*
Y192260D01*
X313960D01*
Y189740D01*
D02*
G37*
G36*
X373960Y179740D02*
X371440D01*
Y182260D01*
X373960D01*
Y179740D01*
D02*
G37*
G36*
X313960D02*
X311440D01*
Y182260D01*
X313960D01*
Y179740D01*
D02*
G37*
G36*
X127095Y178179D02*
X127232Y178045D01*
X127235Y177950D01*
X127235Y177950D01*
X127232Y177854D01*
X127094Y177720D01*
X126999Y177721D01*
Y171650D01*
X125031D01*
Y177950D01*
X126763D01*
X126763Y177950D01*
X126763Y177950D01*
X126766Y178046D01*
X126903Y178179D01*
X127095Y178179D01*
D02*
G37*
G36*
X116369Y171650D02*
X114401D01*
Y177950D01*
X116369D01*
Y171650D01*
D02*
G37*
G36*
X373960Y169740D02*
X371440D01*
Y172260D01*
X373960D01*
Y169740D01*
D02*
G37*
G36*
X313960D02*
X311440D01*
Y172260D01*
X313960D01*
Y169740D01*
D02*
G37*
G36*
X87750Y164561D02*
X81450D01*
Y166529D01*
X87750D01*
Y164561D01*
D02*
G37*
G36*
X102050Y164361D02*
X95750D01*
Y166329D01*
X102050D01*
Y164361D01*
D02*
G37*
G36*
X373960Y159740D02*
X371440D01*
Y162260D01*
X373960D01*
Y159740D01*
D02*
G37*
G36*
X313960D02*
X311440D01*
Y162260D01*
X313960D01*
Y159740D01*
D02*
G37*
G36*
X87750Y154167D02*
X87750Y154167D01*
X87750Y154167D01*
X87846Y154164D01*
X87979Y154027D01*
X87979Y153835D01*
X87845Y153698D01*
X87750Y153695D01*
X87750Y153695D01*
X87654Y153698D01*
X87520Y153835D01*
X87521Y153931D01*
X81450D01*
Y155899D01*
X87750D01*
Y154167D01*
D02*
G37*
G36*
X248574Y153561D02*
Y153561D01*
D01*
X248574D01*
X248574Y153561D01*
D02*
G37*
G36*
X102050Y153967D02*
X102050Y153967D01*
X102050Y153967D01*
X102146Y153964D01*
X102279Y153827D01*
X102279Y153635D01*
X102145Y153498D01*
X102050Y153495D01*
X102050Y153495D01*
X101954Y153498D01*
X101821Y153636D01*
X101821Y153731D01*
X95750D01*
Y155699D01*
X102050D01*
Y153967D01*
D02*
G37*
G36*
X373960Y149740D02*
X371440D01*
Y152260D01*
X373960D01*
Y149740D01*
D02*
G37*
G36*
X313960D02*
X311440D01*
Y152260D01*
X313960D01*
Y149740D01*
D02*
G37*
G36*
X248572Y153657D02*
X248574Y153561D01*
X248572Y153465D01*
X248434Y153330D01*
X248338D01*
Y148639D01*
X246763D01*
Y153561D01*
X248102D01*
X248102Y153561D01*
X248104Y153657D01*
X248241Y153792D01*
X248434D01*
X248572Y153657D01*
D02*
G37*
G36*
X242039Y148639D02*
X240464D01*
Y153561D01*
X242039D01*
Y148639D01*
D02*
G37*
G36*
X136134Y157097D02*
Y156999D01*
Y156901D01*
X135996Y156763D01*
X135894D01*
Y144401D01*
X132350D01*
Y156999D01*
X135662D01*
Y157097D01*
X135800Y157235D01*
X135996D01*
X136134Y157097D01*
D02*
G37*
G36*
X114250Y144401D02*
X110706D01*
Y156999D01*
X114250D01*
Y144401D01*
D02*
G37*
G36*
X373960Y139740D02*
X371440D01*
Y142260D01*
X373960D01*
Y139740D01*
D02*
G37*
G36*
X313960D02*
X311440D01*
Y142260D01*
X313960D01*
Y139740D01*
D02*
G37*
G36*
X373960Y129740D02*
X371440D01*
Y132260D01*
X373960D01*
Y129740D01*
D02*
G37*
G36*
X313960D02*
X311440D01*
Y132260D01*
X313960D01*
Y129740D01*
D02*
G37*
G36*
X60642Y126583D02*
X60973Y126258D01*
X61157Y125832D01*
X61162Y125600D01*
D01*
Y125600D01*
Y125600D01*
X61162D01*
X61157Y125368D01*
X60973Y124942D01*
X60642Y124617D01*
X60212Y124442D01*
X59748Y124442D01*
X59319Y124617D01*
X58987Y124942D01*
X58803Y125368D01*
X58799Y125600D01*
X58803Y125832D01*
X58987Y126258D01*
X59319Y126583D01*
X59748Y126758D01*
X60212Y126758D01*
X60642Y126583D01*
D02*
G37*
G36*
X46862D02*
X47193Y126258D01*
X47377Y125832D01*
X47381Y125600D01*
D01*
Y125600D01*
Y125600D01*
X47381D01*
X47377Y125368D01*
X47193Y124942D01*
X46862Y124617D01*
X46432Y124442D01*
X45968Y124442D01*
X45539Y124617D01*
X45207Y124942D01*
X45023Y125368D01*
X45019Y125600D01*
X45023Y125832D01*
X45207Y126258D01*
X45539Y126583D01*
X45968Y126758D01*
X46432Y126758D01*
X46862Y126583D01*
D02*
G37*
G36*
X373960Y119740D02*
X371440D01*
Y122260D01*
X373960D01*
Y119740D01*
D02*
G37*
G36*
X313960D02*
X311440D01*
Y122260D01*
X313960D01*
Y119740D01*
D02*
G37*
G36*
X373960Y109740D02*
X371440D01*
Y112260D01*
X373960D01*
Y109740D01*
D02*
G37*
G36*
X313960D02*
X311440D01*
Y112260D01*
X313960D01*
Y109740D01*
D02*
G37*
G36*
X37573Y109668D02*
X37573Y109570D01*
X37573Y109472D01*
X37435Y109334D01*
X37239Y109334D01*
X37101Y109472D01*
X37101Y109570D01*
X37101Y109668D01*
X37239Y109806D01*
X37435Y109806D01*
X37573Y109668D01*
D02*
G37*
G36*
X373960Y99740D02*
X371440D01*
Y102260D01*
X373960D01*
Y99740D01*
D02*
G37*
G36*
X313960D02*
X311440D01*
Y102260D01*
X313960D01*
Y99740D01*
D02*
G37*
G36*
X140039Y94508D02*
X140039D01*
D01*
Y94508D01*
X140039Y94508D01*
D02*
G37*
G36*
X140135Y94506D02*
X140270Y94368D01*
Y94272D01*
X144961D01*
Y92697D01*
X140039D01*
Y94036D01*
X140039Y94036D01*
X139943Y94038D01*
X139808Y94176D01*
Y94368D01*
X139943Y94506D01*
X140039Y94508D01*
X140135Y94506D01*
D02*
G37*
G36*
X373960Y89740D02*
X371440D01*
Y92260D01*
X373960D01*
Y89740D01*
D02*
G37*
G36*
X313960D02*
X311440D01*
Y92260D01*
X313960D01*
Y89740D01*
D02*
G37*
G36*
X113900Y87424D02*
D01*
X113900D01*
X113900D01*
D02*
G37*
G36*
X144961Y86398D02*
X140039D01*
Y87973D01*
X144961D01*
Y86398D01*
D02*
G37*
G36*
X79282Y86709D02*
X79282Y86611D01*
X79282Y86513D01*
X79144Y86375D01*
X78948Y86375D01*
X78809Y86513D01*
X78809Y86611D01*
X78809Y86709D01*
X78948Y86847D01*
X79143Y86847D01*
X79282Y86709D01*
D02*
G37*
G36*
X113900Y87424D02*
X114132Y87419D01*
X114558Y87236D01*
X114883Y86904D01*
X115059Y86475D01*
X115059Y86011D01*
X114883Y85581D01*
X114558Y85250D01*
X114132Y85066D01*
X113900Y85061D01*
X113668Y85066D01*
X113242Y85250D01*
X112917Y85581D01*
X112742Y86011D01*
X112742Y86475D01*
X112917Y86904D01*
X113242Y87236D01*
X113668Y87419D01*
X113900Y87424D01*
Y87424D01*
D02*
G37*
G36*
X67727Y83324D02*
Y82448D01*
X66073D01*
Y83324D01*
Y86611D01*
X67727D01*
Y83324D01*
D02*
G37*
G36*
X62727D02*
Y82448D01*
X61073D01*
Y83324D01*
Y86611D01*
X62727D01*
Y83324D01*
D02*
G37*
G36*
X77727D02*
X77727D01*
X77727Y82447D01*
X76073D01*
X76073Y83589D01*
X76073D01*
Y86611D01*
X77727D01*
Y83324D01*
D02*
G37*
G36*
X72727D02*
Y82447D01*
X71073D01*
Y83324D01*
Y86611D01*
X72727D01*
Y83324D01*
D02*
G37*
G36*
X373960Y79740D02*
X371440D01*
Y82260D01*
X373960D01*
Y79740D01*
D02*
G37*
G36*
X313960D02*
X311440D01*
Y82260D01*
X313960D01*
Y79740D01*
D02*
G37*
G36*
X249139Y73661D02*
Y73661D01*
D01*
X249139D01*
X249139Y73661D01*
D02*
G37*
G36*
X373960Y69740D02*
X371440D01*
Y72260D01*
X373960D01*
Y69740D01*
D02*
G37*
G36*
X313960D02*
X311440D01*
Y72260D01*
X313960D01*
Y69740D01*
D02*
G37*
G36*
X249137Y73757D02*
X249139Y73661D01*
X249137Y73565D01*
X248999Y73430D01*
X248903D01*
Y68739D01*
X247328D01*
Y73661D01*
X248667D01*
X248667Y73661D01*
X248669Y73757D01*
X248807Y73892D01*
X248999D01*
X249137Y73757D01*
D02*
G37*
G36*
X242604Y68739D02*
X241029D01*
Y73661D01*
X242604D01*
Y68739D01*
D02*
G37*
G36*
X113900Y67739D02*
D01*
X113900D01*
X113900D01*
D02*
G37*
G36*
Y67739D02*
X114132Y67734D01*
X114558Y67551D01*
X114883Y67219D01*
X115059Y66790D01*
X115059Y66326D01*
X114883Y65896D01*
X114558Y65565D01*
X114132Y65381D01*
X113900Y65376D01*
X113668Y65381D01*
X113242Y65565D01*
X112917Y65896D01*
X112742Y66326D01*
X112742Y66790D01*
X112917Y67219D01*
X113242Y67551D01*
X113668Y67734D01*
X113900Y67739D01*
Y67739D01*
D02*
G37*
G36*
X77727Y66276D02*
X77727D01*
Y62989D01*
X76073D01*
Y66011D01*
X76073D01*
Y67153D01*
X77727D01*
Y66276D01*
D02*
G37*
G36*
X72727D02*
X72727D01*
Y62989D01*
X71073D01*
Y66011D01*
X71073D01*
Y67153D01*
X72727D01*
Y66276D01*
D02*
G37*
G36*
X67727Y66011D02*
Y62989D01*
X66073D01*
Y66011D01*
Y67152D01*
X67727D01*
Y66011D01*
D02*
G37*
G36*
X62727D02*
Y62989D01*
X61073D01*
Y66011D01*
Y67152D01*
X62727D01*
Y66011D01*
D02*
G37*
G36*
X373960Y59740D02*
X371440D01*
Y62260D01*
X373960D01*
Y59740D01*
D02*
G37*
G36*
X313960D02*
X311440D01*
Y62260D01*
X313960D01*
Y59740D01*
D02*
G37*
G36*
X133821Y56812D02*
X133821Y56617D01*
X133683Y56478D01*
X133585Y56478D01*
X133487Y56478D01*
X133349Y56617D01*
X133349Y56812D01*
X133487Y56951D01*
X133585Y56951D01*
X133683Y56951D01*
X133821Y56812D01*
D02*
G37*
G36*
X387936Y51098D02*
X387936Y50902D01*
X387798Y50764D01*
X387700Y50764D01*
X387602Y50764D01*
X387464Y50902D01*
X387464Y51098D01*
X387602Y51236D01*
X387700Y51236D01*
X387798Y51236D01*
X387936Y51098D01*
D02*
G37*
G36*
X105138Y28295D02*
X97264D01*
Y40106D01*
X105138D01*
Y28295D01*
D02*
G37*
G36*
X67736D02*
X59862D01*
Y40106D01*
X67736D01*
Y28295D01*
D02*
G37*
G36*
X60025Y14909D02*
X60256Y14678D01*
X60256Y14515D01*
X60256Y14352D01*
X60025Y14121D01*
X59699Y14121D01*
X59468Y14352D01*
X59468Y14515D01*
X59468Y14678D01*
X59699Y14909D01*
X60025Y14909D01*
D02*
G37*
D84*
X245178Y23400D02*
G03*
X245178Y23400I-1378J0D01*
G01*
X341133D02*
G03*
X341133Y23400I-1378J0D01*
G01*
X389111D02*
G03*
X389111Y23400I-1378J0D01*
G01*
X293156D02*
G03*
X293156Y23400I-1378J0D01*
G01*
X241831D02*
X245768D01*
X243800Y21431D02*
Y25368D01*
X337787Y23400D02*
X341724D01*
X339756Y21431D02*
Y25368D01*
X385765Y23400D02*
X389702D01*
X387733Y21431D02*
Y25368D01*
X289809Y23400D02*
X293746D01*
X291778Y21431D02*
Y25368D01*
D85*
X136528Y201500D02*
G03*
X97158Y201500I-19685J0D01*
G01*
D02*
G03*
X136528Y201500I19685J0D01*
G01*
X135127Y243200D02*
G03*
X95758Y243200I-19685J0D01*
G01*
D02*
G03*
X135127Y243200I19685J0D01*
G01*
X53090Y109570D02*
G03*
X53085Y141066I-5J15748D01*
G01*
D02*
G03*
X53080Y109570I0J-15748D01*
G01*
X40286Y275000D02*
G03*
X916Y275000I-19685J0D01*
G01*
D02*
G03*
X40286Y275000I19685J0D01*
G01*
X113900Y56714D02*
G03*
X113900Y96084I0J19685D01*
G01*
D02*
G03*
X113900Y56714I0J-19685D01*
G01*
X144961Y86398D02*
Y94272D01*
X140039D02*
X144961D01*
X140039Y86398D02*
Y94272D01*
Y86398D02*
X144961D01*
X237961Y232698D02*
Y240572D01*
X233039D02*
X237961D01*
X233039Y232698D02*
Y240572D01*
Y232698D02*
X237961D01*
X81450Y153931D02*
X87750D01*
X81450D02*
Y166529D01*
X87750D01*
Y153931D02*
Y166529D01*
X102050Y153731D02*
Y166329D01*
X95750D02*
X102050D01*
X95750Y153731D02*
Y166329D01*
Y153731D02*
X102050D01*
X135898Y144401D02*
Y156999D01*
X110702Y144401D02*
X135898D01*
X110702D02*
Y156999D01*
X135898D01*
X114401Y177950D02*
X126999D01*
X114401Y171650D02*
Y177950D01*
Y171650D02*
X126999D01*
Y177950D01*
X151339Y229263D02*
Y237137D01*
Y229263D02*
X156261D01*
Y237137D01*
X151339D02*
X156261D01*
X88562Y266215D02*
Y305585D01*
Y266215D02*
X133838D01*
Y305585D01*
X88562D02*
X133838D01*
X59862Y14515D02*
Y53885D01*
Y14515D02*
X105138D01*
Y53885D01*
X59862D02*
X105138D01*
X53080Y109570D02*
X53090D01*
X57255Y223177D02*
X76546D01*
X57255Y207823D02*
Y223177D01*
Y207823D02*
X76546D01*
Y223177D01*
X51166Y245964D02*
Y266436D01*
Y245964D02*
X74237D01*
Y266436D01*
X51166D02*
X74237D01*
X73734Y272464D02*
Y292936D01*
X50663D02*
X73734D01*
X50663Y272464D02*
Y292936D01*
Y272464D02*
X73734D01*
X30850Y301701D02*
Y314299D01*
Y301701D02*
X37150D01*
Y314299D01*
X30850D02*
X37150D01*
X240464Y148639D02*
Y153561D01*
X248338D01*
Y148639D02*
Y153561D01*
X240464Y148639D02*
X248338D01*
X241029Y68739D02*
Y73661D01*
X248903D01*
Y68739D02*
Y73661D01*
X241029Y68739D02*
X248903D01*
X305700Y261000D02*
X379700D01*
Y51000D02*
Y261000D01*
X305700Y51000D02*
X379700D01*
X305700D02*
Y261000D01*
X79046Y67123D02*
Y82477D01*
X59754Y67123D02*
X79046D01*
X59754D02*
Y82477D01*
X79046D01*
M02*
