G04*
G04 #@! TF.GenerationSoftware,Altium Limited,Altium Designer,20.0.13 (296)*
G04*
G04 Layer_Color=255*
%FSLAX25Y25*%
%MOIN*%
G70*
G01*
G75*
%ADD70R,0.13780X0.08661*%
%ADD71C,0.05906*%
%ADD72C,0.06299*%
%ADD73O,0.07874X0.17717*%
%ADD74O,0.17717X0.07874*%
%ADD75C,0.06693*%
%ADD76R,0.06693X0.06693*%
%ADD77O,0.11811X0.07874*%
D70*
X15600Y207200D02*
D03*
Y226098D02*
D03*
Y244995D02*
D03*
X14800Y188598D02*
D03*
Y169700D02*
D03*
Y150802D02*
D03*
D71*
X427700Y221100D02*
D03*
Y211100D02*
D03*
Y201100D02*
D03*
Y191100D02*
D03*
X179367Y40800D02*
D03*
Y30800D02*
D03*
Y20800D02*
D03*
X137300Y40800D02*
D03*
Y30800D02*
D03*
Y20800D02*
D03*
X158333Y40800D02*
D03*
Y30800D02*
D03*
Y20800D02*
D03*
X200400Y40800D02*
D03*
Y30800D02*
D03*
Y20800D02*
D03*
X428001Y161700D02*
D03*
Y151700D02*
D03*
Y141700D02*
D03*
Y131700D02*
D03*
X427800Y273700D02*
D03*
Y263700D02*
D03*
Y253700D02*
D03*
Y243700D02*
D03*
X413800Y289800D02*
D03*
X403800D02*
D03*
X393800D02*
D03*
X383800D02*
D03*
X428000Y111000D02*
D03*
Y101000D02*
D03*
Y91000D02*
D03*
Y81000D02*
D03*
Y71000D02*
D03*
Y61000D02*
D03*
Y51000D02*
D03*
Y41000D02*
D03*
X215229Y311600D02*
D03*
Y301600D02*
D03*
Y291600D02*
D03*
X194186Y311600D02*
D03*
Y301600D02*
D03*
Y291600D02*
D03*
X173143Y311600D02*
D03*
Y301600D02*
D03*
Y291600D02*
D03*
X152101Y311600D02*
D03*
Y301600D02*
D03*
Y291600D02*
D03*
X257314Y311600D02*
D03*
Y301600D02*
D03*
Y291600D02*
D03*
X278357Y311600D02*
D03*
Y301600D02*
D03*
Y291600D02*
D03*
X236272Y311600D02*
D03*
Y301600D02*
D03*
Y291600D02*
D03*
X299400Y311600D02*
D03*
Y301600D02*
D03*
Y291600D02*
D03*
X58600Y177500D02*
D03*
X48600D02*
D03*
X68600D02*
D03*
D72*
X126684Y201500D02*
D03*
X106999D02*
D03*
X125284Y243200D02*
D03*
X105599D02*
D03*
X59980Y125600D02*
D03*
X46200D02*
D03*
X30443Y275000D02*
D03*
X10757D02*
D03*
X113900Y66558D02*
D03*
Y86243D02*
D03*
X372700Y61000D02*
D03*
Y71000D02*
D03*
Y81000D02*
D03*
Y91000D02*
D03*
Y101000D02*
D03*
Y111000D02*
D03*
Y121000D02*
D03*
Y131000D02*
D03*
Y141000D02*
D03*
Y151000D02*
D03*
Y161000D02*
D03*
Y171000D02*
D03*
Y181000D02*
D03*
Y191000D02*
D03*
Y201000D02*
D03*
Y211000D02*
D03*
Y221000D02*
D03*
Y231000D02*
D03*
Y241000D02*
D03*
Y251000D02*
D03*
X312700D02*
D03*
Y241000D02*
D03*
Y231000D02*
D03*
Y221000D02*
D03*
Y211000D02*
D03*
Y201000D02*
D03*
Y191000D02*
D03*
Y181000D02*
D03*
Y171000D02*
D03*
Y161000D02*
D03*
Y151000D02*
D03*
Y141000D02*
D03*
Y131000D02*
D03*
Y121000D02*
D03*
Y111000D02*
D03*
Y101000D02*
D03*
Y91000D02*
D03*
Y81000D02*
D03*
Y71000D02*
D03*
Y61000D02*
D03*
D73*
X15701Y65500D02*
D03*
X40109Y65500D02*
D03*
D74*
X28300Y46995D02*
D03*
D75*
X402700Y211000D02*
D03*
Y201000D02*
D03*
Y191000D02*
D03*
Y181000D02*
D03*
Y171000D02*
D03*
Y161000D02*
D03*
Y151000D02*
D03*
Y141000D02*
D03*
Y131000D02*
D03*
Y121000D02*
D03*
Y111000D02*
D03*
Y101000D02*
D03*
Y91000D02*
D03*
Y81000D02*
D03*
Y71000D02*
D03*
Y221000D02*
D03*
Y231000D02*
D03*
Y241000D02*
D03*
Y251000D02*
D03*
X282700Y211000D02*
D03*
Y201000D02*
D03*
Y191000D02*
D03*
Y181000D02*
D03*
Y171000D02*
D03*
Y161000D02*
D03*
Y151000D02*
D03*
Y141000D02*
D03*
Y131000D02*
D03*
Y121000D02*
D03*
Y111000D02*
D03*
Y101000D02*
D03*
Y91000D02*
D03*
Y81000D02*
D03*
Y71000D02*
D03*
Y221000D02*
D03*
Y231000D02*
D03*
Y241000D02*
D03*
Y251000D02*
D03*
D76*
X402700Y61000D02*
D03*
X282700D02*
D03*
D77*
X12500Y106000D02*
D03*
Y125685D02*
D03*
M02*
