G04*
G04 #@! TF.GenerationSoftware,Altium Limited,Altium Designer,20.0.13 (296)*
G04*
G04 Layer_Color=8388736*
%FSLAX25Y25*%
%MOIN*%
G70*
G01*
G75*
%ADD82C,0.00394*%
%ADD83C,0.00100*%
%ADD84C,0.00197*%
D82*
X17569Y226098D02*
G03*
X17569Y226098I-1969J0D01*
G01*
X429669Y206100D02*
G03*
X429669Y206100I-1969J0D01*
G01*
X14469Y115842D02*
G03*
X14469Y115842I-1969J0D01*
G01*
X181335Y30800D02*
G03*
X181335Y30800I-1969J0D01*
G01*
X139269D02*
G03*
X139269Y30800I-1969J0D01*
G01*
X160302D02*
G03*
X160302Y30800I-1969J0D01*
G01*
X202368D02*
G03*
X202368Y30800I-1969J0D01*
G01*
X429969Y146700D02*
G03*
X429969Y146700I-1969J0D01*
G01*
X429769Y258700D02*
G03*
X429769Y258700I-1969J0D01*
G01*
X400769Y289800D02*
G03*
X400769Y289800I-1969J0D01*
G01*
X429969Y76000D02*
G03*
X429969Y76000I-1969J0D01*
G01*
X217197Y301600D02*
G03*
X217197Y301600I-1969J0D01*
G01*
X196155D02*
G03*
X196155Y301600I-1969J0D01*
G01*
X175112D02*
G03*
X175112Y301600I-1969J0D01*
G01*
X154069D02*
G03*
X154069Y301600I-1969J0D01*
G01*
X259283D02*
G03*
X259283Y301600I-1969J0D01*
G01*
X280326D02*
G03*
X280326Y301600I-1969J0D01*
G01*
X238240D02*
G03*
X238240Y301600I-1969J0D01*
G01*
X301368D02*
G03*
X301368Y301600I-1969J0D01*
G01*
X16769Y169700D02*
G03*
X16769Y169700I-1969J0D01*
G01*
X11663Y226098D02*
X19537D01*
X15600Y222161D02*
Y230035D01*
X423763Y206100D02*
X431637D01*
X427700Y202163D02*
Y210037D01*
X8563Y115842D02*
X16437D01*
X12500Y111905D02*
Y119779D01*
X175430Y30800D02*
X183304D01*
X179367Y26863D02*
Y34737D01*
X133363Y30800D02*
X141237D01*
X137300Y26863D02*
Y34737D01*
X154396Y30800D02*
X162270D01*
X158333Y26863D02*
Y34737D01*
X196463Y30800D02*
X204337D01*
X200400Y26863D02*
Y34737D01*
X428001Y142763D02*
Y150637D01*
X424064Y146700D02*
X431938D01*
X427800Y254763D02*
Y262637D01*
X423863Y258700D02*
X431737D01*
X398800Y285863D02*
Y293737D01*
X394863Y289800D02*
X402737D01*
X424063Y76000D02*
X431937D01*
X428000Y72063D02*
Y79937D01*
X211292Y301600D02*
X219166D01*
X215229Y297663D02*
Y305537D01*
X190249Y301600D02*
X198123D01*
X194186Y297663D02*
Y305537D01*
X169207Y301600D02*
X177081D01*
X173143Y297663D02*
Y305537D01*
X148164Y301600D02*
X156038D01*
X152101Y297663D02*
Y305537D01*
X253378Y301600D02*
X261251D01*
X257314Y297663D02*
Y305537D01*
X274420Y301600D02*
X282294D01*
X278357Y297663D02*
Y305537D01*
X232335Y301600D02*
X240209D01*
X236272Y297663D02*
Y305537D01*
X295463Y301600D02*
X303337D01*
X299400Y297663D02*
Y305537D01*
X14800Y165763D02*
Y173637D01*
X10863Y169700D02*
X18737D01*
D83*
X205687Y81700D02*
G03*
X205687Y81700I-886J0D01*
G01*
X205486Y161300D02*
G03*
X205486Y161300I-886J0D01*
G01*
X204801Y79928D02*
Y83472D01*
X203029Y81700D02*
X206572D01*
X202828Y161300D02*
X206372D01*
X204600Y159528D02*
Y163072D01*
D84*
X60568Y177500D02*
G03*
X60568Y177500I-1969J0D01*
G01*
X58600Y173563D02*
Y181437D01*
X54663Y177500D02*
X62537D01*
M02*
