G04*
G04 #@! TF.GenerationSoftware,Altium Limited,Altium Designer,20.0.13 (296)*
G04*
G04 Layer_Color=32896*
%FSLAX25Y25*%
%MOIN*%
G70*
G01*
G75*
%ADD82C,0.00394*%
%ADD84C,0.00197*%
D82*
X29675Y200212D02*
Y251983D01*
X1525Y200212D02*
X29675D01*
X1525D02*
Y251983D01*
X29675D01*
X422680Y226100D02*
X432700D01*
Y186100D02*
Y226100D01*
X422680Y186100D02*
X432700D01*
X422680D02*
Y226100D01*
X1000Y95842D02*
Y135842D01*
X30500D01*
X1000Y95842D02*
X30500D01*
Y135842D01*
X174347Y15800D02*
Y45800D01*
Y15800D02*
X184367D01*
Y45800D01*
X174347D02*
X184367D01*
X132280Y15800D02*
Y45800D01*
Y15800D02*
X142300D01*
Y45800D01*
X132280D02*
X142300D01*
X153314Y15800D02*
Y45800D01*
Y15800D02*
X163333D01*
Y45800D01*
X153314D02*
X163333D01*
X195380Y15800D02*
Y45800D01*
Y15800D02*
X205400D01*
Y45800D01*
X195380D02*
X205400D01*
X433020Y126700D02*
Y166700D01*
X423001D02*
X433020D01*
X423001Y126700D02*
Y166700D01*
Y126700D02*
X433020D01*
X432820Y238700D02*
Y278700D01*
X422800D02*
X432820D01*
X422800Y238700D02*
Y278700D01*
Y238700D02*
X432820D01*
X418800Y284800D02*
Y294820D01*
X378800Y284800D02*
X418800D01*
X378800D02*
Y294820D01*
X418800D01*
X423000Y36000D02*
X433000D01*
Y116000D01*
X423000D02*
X433000D01*
X423000Y36000D02*
Y116000D01*
X210209Y286600D02*
Y316600D01*
Y286600D02*
X220229D01*
Y316600D01*
X210209D02*
X220229D01*
X189167Y286600D02*
Y316600D01*
Y286600D02*
X199186D01*
Y316600D01*
X189167D02*
X199186D01*
X168124Y286600D02*
Y316600D01*
Y286600D02*
X178143D01*
Y316600D01*
X168124D02*
X178143D01*
X147081Y286600D02*
Y316600D01*
Y286600D02*
X157101D01*
Y316600D01*
X147081D02*
X157101D01*
X252295Y286600D02*
Y316600D01*
Y286600D02*
X262314D01*
Y316600D01*
X252295D02*
X262314D01*
X273338Y286600D02*
Y316600D01*
Y286600D02*
X283357D01*
Y316600D01*
X273338D02*
X283357D01*
X231252Y286600D02*
Y316600D01*
Y286600D02*
X241271D01*
Y316600D01*
X231252D02*
X241271D01*
X294380Y286600D02*
Y316600D01*
Y286600D02*
X304400D01*
Y316600D01*
X294380D02*
X304400D01*
X725Y195586D02*
X28875D01*
X725Y143814D02*
Y195586D01*
Y143814D02*
X28875D01*
Y195586D01*
D84*
X196730Y75598D02*
Y87802D01*
X212872Y75598D02*
Y87802D01*
X196730D02*
X212872D01*
X196730Y75598D02*
X212872D01*
X196529Y155198D02*
X212671D01*
X196529Y167402D02*
X212671D01*
Y155198D02*
Y167402D01*
X196529Y155198D02*
Y167402D01*
X71041Y184783D02*
X73659D01*
Y187539D01*
X43541Y184783D02*
Y187539D01*
Y184783D02*
X47576D01*
X39309Y187539D02*
X43541D01*
X73659D02*
X77891D01*
X39309Y167461D02*
Y187539D01*
X47576Y184783D02*
X71041D01*
X77891Y167461D02*
Y187539D01*
X39309Y167461D02*
X77891D01*
X58852Y155548D02*
X65348D01*
Y149052D02*
Y155548D01*
X58852Y149052D02*
X65348D01*
X58852D02*
Y155548D01*
X157348Y62552D02*
Y69048D01*
X150852Y62552D02*
X157348D01*
X150852D02*
Y69048D01*
X157348D01*
X236052Y167352D02*
Y173848D01*
X242548D01*
Y167352D02*
Y173848D01*
X236052Y167352D02*
X242548D01*
X236353Y87452D02*
Y93948D01*
X242849D01*
Y87452D02*
Y93948D01*
X236353Y87452D02*
X242849D01*
M02*
