G04*
G04 #@! TF.GenerationSoftware,Altium Limited,Altium Designer,20.0.13 (296)*
G04*
G04 Layer_Color=8388736*
%FSLAX25Y25*%
%MOIN*%
G70*
G01*
G75*
%ADD30R,0.06310X0.04737*%
%ADD31R,0.05800X0.05800*%
%ADD32R,0.05800X0.05800*%
%ADD33R,0.05131X0.03162*%
%ADD34R,0.07203X0.06247*%
%ADD35R,0.08674X0.13792*%
%ADD36R,0.06247X0.07203*%
%ADD37R,0.16942X0.16942*%
%ADD38R,0.02756X0.06299*%
%ADD39R,0.16142X0.17756*%
%ADD40R,0.04331X0.02756*%
%ADD41R,0.04737X0.06310*%
%ADD42R,0.08674X0.06706*%
%ADD43C,0.04737*%
%ADD44O,0.03280X0.08143*%
%ADD45R,0.14331X0.09213*%
%ADD46C,0.06706*%
%ADD47C,0.06693*%
%ADD48C,0.07099*%
%ADD49O,0.08674X0.18517*%
%ADD50O,0.18517X0.08674*%
%ADD51R,0.00800X0.00800*%
%ADD52R,0.00800X0.00800*%
%ADD53C,0.07493*%
%ADD54R,0.07493X0.07493*%
%ADD55O,0.12611X0.08674*%
%ADD56C,0.03200*%
D30*
X142500Y94470D02*
D03*
Y86200D02*
D03*
X235500Y240770D02*
D03*
Y232500D02*
D03*
X153800Y229065D02*
D03*
Y237335D02*
D03*
D31*
X156680Y94030D02*
D03*
X156700Y85800D02*
D03*
X415010Y273770D02*
D03*
X415000Y265500D02*
D03*
X416010Y161270D02*
D03*
X416000Y153000D02*
D03*
X415300Y38400D02*
D03*
X415310Y46670D02*
D03*
X249121Y82470D02*
D03*
X249101Y90700D02*
D03*
X229801Y86200D02*
D03*
X229791Y77930D02*
D03*
X219311Y85970D02*
D03*
X219301Y77700D02*
D03*
X189800Y86600D02*
D03*
X189790Y78330D02*
D03*
X248401Y162600D02*
D03*
X248381Y170830D02*
D03*
X229110Y164870D02*
D03*
X229100Y156600D02*
D03*
X219110Y164670D02*
D03*
X219100Y156400D02*
D03*
X189310Y165870D02*
D03*
X189300Y157600D02*
D03*
X247480Y240730D02*
D03*
X247500Y232500D02*
D03*
X278500Y265500D02*
D03*
X278480Y273730D02*
D03*
X257500Y265500D02*
D03*
X257480Y273730D02*
D03*
X236292Y265942D02*
D03*
X236272Y274172D02*
D03*
X215320Y265470D02*
D03*
X215300Y273700D02*
D03*
X194020Y265270D02*
D03*
X194000Y273500D02*
D03*
X172786Y265470D02*
D03*
X172766Y273700D02*
D03*
X152420Y265470D02*
D03*
X152400Y273700D02*
D03*
X153680Y219930D02*
D03*
X153700Y211700D02*
D03*
X67980Y106230D02*
D03*
X68000Y98000D02*
D03*
X78880Y106130D02*
D03*
X78900Y97900D02*
D03*
X87380Y106130D02*
D03*
X87400Y97900D02*
D03*
X96300Y98000D02*
D03*
X96280Y106230D02*
D03*
X71000Y163300D02*
D03*
X70990Y155030D02*
D03*
X43180Y202530D02*
D03*
X43200Y194300D02*
D03*
X84820Y207170D02*
D03*
X84800Y215400D02*
D03*
X47700Y302800D02*
D03*
X47710Y311070D02*
D03*
X142490Y66830D02*
D03*
X142500Y75100D02*
D03*
X415490Y193230D02*
D03*
X415500Y201500D02*
D03*
D32*
X392700Y37200D02*
D03*
X400930Y37220D02*
D03*
X381200Y36986D02*
D03*
X372930Y36996D02*
D03*
X345300Y37200D02*
D03*
X353530Y37220D02*
D03*
X334300Y36986D02*
D03*
X326030Y36996D02*
D03*
X298170Y37200D02*
D03*
X306400Y37220D02*
D03*
X286900Y36986D02*
D03*
X278630Y36996D02*
D03*
X249900Y37200D02*
D03*
X258130Y37220D02*
D03*
X238670Y36986D02*
D03*
X230400Y36996D02*
D03*
X58000Y97900D02*
D03*
X49730Y97910D02*
D03*
X58800Y238200D02*
D03*
X67070Y238190D02*
D03*
X62963Y194263D02*
D03*
X54733Y194243D02*
D03*
X383500Y276500D02*
D03*
X391770Y276490D02*
D03*
D33*
X209919Y77960D02*
D03*
X199683D02*
D03*
Y81700D02*
D03*
Y85440D02*
D03*
X209919D02*
D03*
X209718Y165040D02*
D03*
X199482D02*
D03*
Y161300D02*
D03*
Y157560D02*
D03*
X209718D02*
D03*
D34*
X84600Y166500D02*
D03*
Y153960D02*
D03*
X98900Y153760D02*
D03*
Y166300D02*
D03*
X34000Y314270D02*
D03*
Y301730D02*
D03*
D35*
X135372Y150700D02*
D03*
X111228D02*
D03*
D36*
X126970Y174800D02*
D03*
X114430D02*
D03*
D37*
X129901Y285900D02*
D03*
X92499D02*
D03*
X101201Y34200D02*
D03*
X63799D02*
D03*
D38*
X74774Y203689D02*
D03*
X70837D02*
D03*
X66900D02*
D03*
X62963D02*
D03*
X59026D02*
D03*
Y227311D02*
D03*
X62963D02*
D03*
X66900D02*
D03*
X70837D02*
D03*
X74774D02*
D03*
D39*
X65201Y256200D02*
D03*
X59698Y282700D02*
D03*
D40*
X74316Y263700D02*
D03*
Y258700D02*
D03*
Y253700D02*
D03*
Y248700D02*
D03*
X51284D02*
D03*
Y253700D02*
D03*
Y258700D02*
D03*
Y263700D02*
D03*
X50585Y275200D02*
D03*
Y280200D02*
D03*
Y285200D02*
D03*
Y290200D02*
D03*
X73615D02*
D03*
Y285200D02*
D03*
Y280200D02*
D03*
Y275200D02*
D03*
D41*
X240266Y151100D02*
D03*
X248536D02*
D03*
X240831Y71200D02*
D03*
X249101D02*
D03*
D42*
X259531Y23479D02*
D03*
X228300Y23400D02*
D03*
X355487Y23479D02*
D03*
X324255Y23400D02*
D03*
X403465Y23479D02*
D03*
X372233Y23400D02*
D03*
X307509Y23479D02*
D03*
X276278Y23400D02*
D03*
D43*
X62100Y152300D02*
D03*
X154100Y65800D02*
D03*
X239300Y170600D02*
D03*
X239601Y90700D02*
D03*
D44*
X76900Y85361D02*
D03*
X71900D02*
D03*
X66900D02*
D03*
X61900D02*
D03*
X76900Y64239D02*
D03*
X71900D02*
D03*
X66900D02*
D03*
X61900D02*
D03*
D45*
X15600Y207200D02*
D03*
Y226098D02*
D03*
Y244995D02*
D03*
X14800Y188598D02*
D03*
Y169700D02*
D03*
Y150802D02*
D03*
D46*
X427700Y221100D02*
D03*
Y211100D02*
D03*
Y201100D02*
D03*
Y191100D02*
D03*
X179367Y40800D02*
D03*
Y30800D02*
D03*
Y20800D02*
D03*
X137300Y40800D02*
D03*
Y30800D02*
D03*
Y20800D02*
D03*
X158333Y40800D02*
D03*
Y30800D02*
D03*
Y20800D02*
D03*
X200400Y40800D02*
D03*
Y30800D02*
D03*
Y20800D02*
D03*
X428001Y161700D02*
D03*
Y151700D02*
D03*
Y141700D02*
D03*
Y131700D02*
D03*
X427800Y273700D02*
D03*
Y263700D02*
D03*
Y253700D02*
D03*
Y243700D02*
D03*
X413800Y289800D02*
D03*
X403800D02*
D03*
X393800D02*
D03*
X383800D02*
D03*
X428000Y111000D02*
D03*
Y101000D02*
D03*
Y91000D02*
D03*
Y81000D02*
D03*
Y71000D02*
D03*
Y61000D02*
D03*
Y51000D02*
D03*
Y41000D02*
D03*
X215229Y311600D02*
D03*
Y301600D02*
D03*
Y291600D02*
D03*
X194186Y311600D02*
D03*
Y301600D02*
D03*
Y291600D02*
D03*
X173143Y311600D02*
D03*
Y301600D02*
D03*
Y291600D02*
D03*
X152101Y311600D02*
D03*
Y301600D02*
D03*
Y291600D02*
D03*
X257314Y311600D02*
D03*
Y301600D02*
D03*
Y291600D02*
D03*
X278357Y311600D02*
D03*
Y301600D02*
D03*
Y291600D02*
D03*
X236272Y311600D02*
D03*
Y301600D02*
D03*
Y291600D02*
D03*
X299400Y311600D02*
D03*
Y301600D02*
D03*
Y291600D02*
D03*
X58600Y177500D02*
D03*
X48600D02*
D03*
X68600D02*
D03*
D47*
X126684Y201500D02*
D03*
X106999D02*
D03*
X125284Y243200D02*
D03*
X105599D02*
D03*
X30443Y275000D02*
D03*
X10757D02*
D03*
X113900Y66558D02*
D03*
Y86243D02*
D03*
D48*
X59980Y125600D02*
D03*
X46200D02*
D03*
X372700Y61000D02*
D03*
Y71000D02*
D03*
Y81000D02*
D03*
Y91000D02*
D03*
Y101000D02*
D03*
Y111000D02*
D03*
Y121000D02*
D03*
Y131000D02*
D03*
Y141000D02*
D03*
Y151000D02*
D03*
Y161000D02*
D03*
Y171000D02*
D03*
Y181000D02*
D03*
Y191000D02*
D03*
Y201000D02*
D03*
Y211000D02*
D03*
Y221000D02*
D03*
Y231000D02*
D03*
Y241000D02*
D03*
Y251000D02*
D03*
X312700D02*
D03*
Y241000D02*
D03*
Y231000D02*
D03*
Y221000D02*
D03*
Y211000D02*
D03*
Y201000D02*
D03*
Y191000D02*
D03*
Y181000D02*
D03*
Y171000D02*
D03*
Y161000D02*
D03*
Y151000D02*
D03*
Y141000D02*
D03*
Y131000D02*
D03*
Y121000D02*
D03*
Y111000D02*
D03*
Y101000D02*
D03*
Y91000D02*
D03*
Y81000D02*
D03*
Y71000D02*
D03*
Y61000D02*
D03*
D49*
X15701Y65500D02*
D03*
X40109Y65500D02*
D03*
D50*
X28300Y46995D02*
D03*
D51*
X430280Y312847D02*
D03*
X10647D02*
D03*
X191227Y191241D02*
D03*
X249692Y191241D02*
D03*
X191227Y132776D02*
D03*
X249692Y132776D02*
D03*
D52*
X10750Y11250D02*
D03*
X430280Y11165D02*
D03*
D53*
X402700Y211000D02*
D03*
Y201000D02*
D03*
Y191000D02*
D03*
Y181000D02*
D03*
Y171000D02*
D03*
Y161000D02*
D03*
Y151000D02*
D03*
Y141000D02*
D03*
Y131000D02*
D03*
Y121000D02*
D03*
Y111000D02*
D03*
Y101000D02*
D03*
Y91000D02*
D03*
Y81000D02*
D03*
Y71000D02*
D03*
Y221000D02*
D03*
Y231000D02*
D03*
Y241000D02*
D03*
Y251000D02*
D03*
X282700Y211000D02*
D03*
Y201000D02*
D03*
Y191000D02*
D03*
Y181000D02*
D03*
Y171000D02*
D03*
Y161000D02*
D03*
Y151000D02*
D03*
Y141000D02*
D03*
Y131000D02*
D03*
Y121000D02*
D03*
Y111000D02*
D03*
Y101000D02*
D03*
Y91000D02*
D03*
Y81000D02*
D03*
Y71000D02*
D03*
Y221000D02*
D03*
Y231000D02*
D03*
Y241000D02*
D03*
Y251000D02*
D03*
D54*
X402700Y61000D02*
D03*
X282700D02*
D03*
D55*
X12500Y106000D02*
D03*
Y125685D02*
D03*
D56*
X416000Y169500D02*
D03*
X307000Y44000D02*
D03*
X354000D02*
D03*
X383500Y270500D02*
D03*
X43000Y208500D02*
D03*
M02*
