G04*
G04 #@! TF.GenerationSoftware,Altium Limited,Altium Designer,20.0.13 (296)*
G04*
G04 Layer_Color=65535*
%FSLAX25Y25*%
%MOIN*%
G70*
G01*
G75*
%ADD10C,0.00600*%
%ADD11C,0.01000*%
%ADD12C,0.00591*%
%ADD13C,0.01181*%
%ADD14C,0.00787*%
%ADD15C,0.00709*%
%ADD16C,0.00500*%
%ADD17C,0.00598*%
%ADD18C,0.00800*%
G36*
X63917Y113789D02*
X64667Y114576D01*
X65956Y116329D01*
X67012Y118230D01*
X67820Y120249D01*
X68366Y122355D01*
X68641Y124512D01*
Y126688D01*
X68366Y128845D01*
X67820Y130951D01*
X67012Y132970D01*
X65956Y134871D01*
X64667Y136624D01*
X63917Y137411D01*
X63917Y137411D01*
Y113789D01*
X63917D01*
D02*
G37*
G36*
X99900Y90399D02*
X127900D01*
X123900Y93399D01*
X117900Y95399D01*
X111900Y96399D01*
X107900Y95399D01*
X99900Y90399D01*
D01*
D02*
G37*
G36*
X6601Y261000D02*
Y289000D01*
X3601Y285000D01*
X1601Y279000D01*
X601Y273000D01*
X1601Y269000D01*
X6601Y261000D01*
D01*
D02*
G37*
G36*
X101443Y229200D02*
Y257200D01*
X98443Y253200D01*
X96443Y247200D01*
X95442Y241200D01*
X96443Y237200D01*
X101443Y229200D01*
D01*
D02*
G37*
G36*
X102842Y187500D02*
Y215500D01*
X99843Y211500D01*
X97843Y205500D01*
X96842Y199500D01*
X97843Y195500D01*
X102842Y187500D01*
D01*
D02*
G37*
D10*
X88902Y169723D02*
G03*
X88302Y170323I-600J0D01*
G01*
X80898D02*
G03*
X80298Y169723I0J-600D01*
G01*
X88302Y150137D02*
G03*
X88902Y150737I0J600D01*
G01*
X80298D02*
G03*
X80898Y150137I600J0D01*
G01*
X94598Y150537D02*
G03*
X95198Y149937I600J0D01*
G01*
X102602D02*
G03*
X103202Y150537I0J600D01*
G01*
X95198Y170123D02*
G03*
X94598Y169523I0J-600D01*
G01*
X103202D02*
G03*
X102602Y170123I-600J0D01*
G01*
X130193Y170498D02*
G03*
X130793Y171098I0J600D01*
G01*
Y178502D02*
G03*
X130193Y179102I-600J0D01*
G01*
X110607Y171098D02*
G03*
X111207Y170498I600J0D01*
G01*
Y179102D02*
G03*
X110607Y178502I0J-600D01*
G01*
X38302Y317493D02*
G03*
X37702Y318093I-600J0D01*
G01*
X30298D02*
G03*
X29698Y317493I0J-600D01*
G01*
X37702Y297907D02*
G03*
X38302Y298507I0J600D01*
G01*
X29698D02*
G03*
X30298Y297907I600J0D01*
G01*
X80298Y163876D02*
Y169723D01*
X88902Y163876D02*
Y169723D01*
X80898Y170323D02*
X88302D01*
X80298Y150737D02*
Y156583D01*
X88902Y150737D02*
Y156583D01*
X80898Y150137D02*
X88302D01*
X95198Y149937D02*
X102602D01*
X103202Y150537D02*
Y156384D01*
X94598Y150537D02*
Y156384D01*
X95198Y170123D02*
X102602D01*
X103202Y163677D02*
Y169523D01*
X94598Y163677D02*
Y169523D01*
X106651Y158200D02*
X112300D01*
X106651Y142794D02*
Y158200D01*
Y142794D02*
X112300D01*
X134300Y158200D02*
X139949D01*
Y142794D02*
Y158200D01*
X134300Y142794D02*
X139949D01*
X130793Y171098D02*
Y178502D01*
X124346Y179102D02*
X130193D01*
X124346Y170498D02*
X130193D01*
X110607Y171098D02*
Y178502D01*
X111207Y179102D02*
X117053D01*
X111207Y170498D02*
X117053D01*
X30298Y318093D02*
X37702D01*
X29698Y311647D02*
Y317493D01*
X38302Y311647D02*
Y317493D01*
X30298Y297907D02*
X37702D01*
X29698Y298507D02*
Y304353D01*
X38302Y298507D02*
Y304353D01*
D11*
X136527Y201500D02*
G03*
X136527Y201500I-19685J0D01*
G01*
X135127Y243200D02*
G03*
X135127Y243200I-19685J0D01*
G01*
X53100Y141350D02*
G03*
X53380Y141350I140J-15748D01*
G01*
X40286Y275000D02*
G03*
X40286Y275000I-19685J0D01*
G01*
X133585Y76399D02*
G03*
X133585Y76399I-19685J0D01*
G01*
X440910Y312847D02*
G03*
X440910Y312847I-10630J0D01*
G01*
X21277D02*
G03*
X21277Y312847I-10630J0D01*
G01*
X21380Y11250D02*
G03*
X21380Y11250I-10630J0D01*
G01*
X201857Y191241D02*
G03*
X201857Y191241I-10630J0D01*
G01*
X260322Y191241D02*
G03*
X260322Y191241I-10630J0D01*
G01*
X201857Y132776D02*
G03*
X201857Y132776I-10630J0D01*
G01*
X260322Y132776D02*
G03*
X260322Y132776I-10630J0D01*
G01*
X79242Y77300D02*
G03*
X79240Y72300I-1J-2500D01*
G01*
X440910Y11165D02*
G03*
X440910Y11165I-10630J0D01*
G01*
X272519Y162009D02*
G03*
X272519Y162009I-52059J0D01*
G01*
X138505Y83080D02*
Y89080D01*
Y83080D02*
X140005Y81580D01*
X145005D01*
X146605Y83180D01*
Y88980D01*
X138505Y92080D02*
Y98180D01*
X146505D01*
Y92080D02*
Y98180D01*
X140532Y91122D02*
X144469D01*
X142895Y89548D02*
X144469Y91122D01*
X142500Y89154D02*
X142895Y89548D01*
X142106D02*
X142500Y89154D01*
X140532Y91122D02*
X142106Y89548D01*
X231505Y229380D02*
Y235380D01*
Y229380D02*
X233005Y227880D01*
X238005D01*
X239605Y229480D01*
Y235280D01*
X231505Y238380D02*
Y244480D01*
X239505D01*
Y238380D02*
Y244480D01*
X233531Y237422D02*
X237470D01*
X235895Y235848D02*
X237470Y237422D01*
X235500Y235454D02*
X235895Y235848D01*
X235106D02*
X235500Y235454D01*
X233531Y237422D02*
X235106Y235848D01*
X132843Y198500D02*
Y204500D01*
X130842Y201500D02*
X134843D01*
X157795Y234455D02*
Y240455D01*
X156295Y241955D02*
X157795Y240455D01*
X151295Y241955D02*
X156295D01*
X149695Y240355D02*
X151295Y241955D01*
X149695Y234555D02*
Y240355D01*
X157795Y225355D02*
Y231455D01*
X149795Y225355D02*
X157795D01*
X149795D02*
Y231455D01*
X151830Y232413D02*
X155769D01*
X151830D02*
X153405Y233987D01*
X153800Y234381D01*
X154194Y233987D01*
X155769Y232413D01*
X131442Y240200D02*
Y246200D01*
X129443Y243200D02*
X133442D01*
X133838Y294881D02*
Y305585D01*
Y266215D02*
Y276919D01*
X88562Y266215D02*
Y276919D01*
Y294881D02*
Y305585D01*
X133838Y305585D01*
X88562Y266215D02*
X133838Y266215D01*
X105138Y43181D02*
Y53885D01*
Y14515D02*
Y25219D01*
X59862Y14515D02*
Y25219D01*
Y43181D02*
Y53885D01*
X105138Y53885D01*
X59862Y14515D02*
X105138Y14515D01*
X39529Y130324D02*
X44429D01*
X41979Y127674D02*
Y132974D01*
X36601Y272000D02*
Y278000D01*
X34601Y275000D02*
X38601D01*
X110900Y60399D02*
X116900D01*
X113900Y58399D02*
Y62399D01*
X38199Y47784D02*
X42080D01*
X-14614D02*
X18399D01*
X42080D02*
Y55955D01*
Y75045D02*
Y83217D01*
X269Y78098D02*
X42080D01*
X269Y52902D02*
X42080D01*
X-46Y47784D02*
Y83217D01*
X-14614D02*
X42080D01*
X-14614D02*
X-14614Y47784D01*
X243613Y151494D02*
X245188Y153068D01*
X243220Y151100D02*
X243613Y151494D01*
X243220Y151100D02*
X243613Y150705D01*
X245188Y149130D01*
Y153068D01*
X246146Y147095D02*
X252246D01*
Y155095D01*
X246146D02*
X252246D01*
X237246Y146995D02*
X243046D01*
X235646Y148595D02*
X237246Y146995D01*
X235646Y148595D02*
Y153595D01*
X237146Y155095D01*
X243146D01*
X244178Y71594D02*
X245753Y73168D01*
X243785Y71200D02*
X244178Y71594D01*
X243785Y71200D02*
X244178Y70805D01*
X245753Y69231D01*
Y73168D01*
X246711Y67195D02*
X252811D01*
Y75195D01*
X246711D02*
X252811D01*
X237811Y67095D02*
X243611D01*
X236211Y68695D02*
X237811Y67095D01*
X236211Y68695D02*
Y73695D01*
X237711Y75195D01*
X243711D01*
X243800Y18400D02*
Y21000D01*
Y22800D02*
Y25400D01*
X240900Y27400D02*
X246800D01*
X250800Y18400D02*
Y21300D01*
X236800Y18400D02*
X250800D01*
X236800D02*
Y21300D01*
X231641Y15920D02*
X256444D01*
X231641Y30880D02*
X256444D01*
Y15920D02*
Y19200D01*
X231641Y15920D02*
Y19200D01*
X256444Y28000D02*
Y30880D01*
X231641Y28000D02*
Y30880D01*
X339756Y18400D02*
Y21000D01*
Y22800D02*
Y25400D01*
X336856Y27400D02*
X342756D01*
X346756Y18400D02*
Y21300D01*
X332755Y18400D02*
X346756D01*
X332755D02*
Y21300D01*
X327596Y15920D02*
X352400D01*
X327596Y30880D02*
X352400D01*
Y15920D02*
Y19200D01*
X327596Y15920D02*
Y19200D01*
X352400Y28000D02*
Y30880D01*
X327596Y28000D02*
Y30880D01*
X387733Y18400D02*
Y21000D01*
Y22800D02*
Y25400D01*
X384833Y27400D02*
X390733D01*
X394733Y18400D02*
Y21300D01*
X380733Y18400D02*
X394733D01*
X380733D02*
Y21300D01*
X375574Y15920D02*
X400377D01*
X375574Y30880D02*
X400377D01*
Y15920D02*
Y19200D01*
X375574Y15920D02*
Y19200D01*
X400377Y28000D02*
Y30880D01*
X375574Y28000D02*
Y30880D01*
X291778Y18400D02*
Y21000D01*
Y22800D02*
Y25400D01*
X288878Y27400D02*
X294778D01*
X298778Y18400D02*
Y21300D01*
X284778Y18400D02*
X298778D01*
X284778D02*
Y21300D01*
X279619Y15920D02*
X304422D01*
X279619Y30880D02*
X304422D01*
Y15920D02*
Y19200D01*
X279619Y15920D02*
Y19200D01*
X304422Y28000D02*
Y30880D01*
X279619Y28000D02*
Y30880D01*
X319078Y242614D02*
Y250488D01*
X366322D01*
Y242614D02*
Y250488D01*
X319078Y242614D02*
X366322D01*
X361497Y55606D02*
X366104Y51000D01*
X326952Y55606D02*
X361497D01*
X323810D02*
X326952D01*
X319204Y51000D02*
X323810Y55606D01*
X319078Y156000D02*
X342700Y132378D01*
X366322Y156000D01*
X342700Y179622D02*
X366322Y156000D01*
X319078D02*
X342700Y179622D01*
X305700Y51000D02*
X379700D01*
X305700D02*
Y261000D01*
X379700D01*
Y51000D02*
Y261000D01*
X59557Y68965D02*
Y80696D01*
X79242Y77300D02*
Y80696D01*
X79240Y68965D02*
Y72300D01*
X59557Y80696D02*
X79242D01*
X59557Y68965D02*
X79242D01*
X434918Y42165D02*
X434002Y41249D01*
Y39416D01*
X434918Y38500D01*
X438584D01*
X439500Y39416D01*
Y41249D01*
X438584Y42165D01*
X436751D01*
Y40333D01*
X434918Y45500D02*
X434002Y46416D01*
Y48249D01*
X434918Y49165D01*
X435835D01*
X436751Y48249D01*
Y47333D01*
Y48249D01*
X437667Y49165D01*
X438584D01*
X439500Y48249D01*
Y46416D01*
X438584Y45500D01*
X434002Y50998D02*
X437667D01*
X439500Y52831D01*
X437667Y54664D01*
X434002D01*
X434918Y56496D02*
X434002Y57413D01*
Y59246D01*
X434918Y60162D01*
X435835D01*
X436751Y59246D01*
Y58329D01*
Y59246D01*
X437667Y60162D01*
X438584D01*
X439500Y59246D01*
Y57413D01*
X438584Y56496D01*
X409000Y63498D02*
Y58000D01*
X411749D01*
X412666Y58916D01*
Y59833D01*
X411749Y60749D01*
X409000D01*
X411749D01*
X412666Y61665D01*
Y62582D01*
X411749Y63498D01*
X409000D01*
X414498Y58000D02*
X416331D01*
X415415D01*
Y63498D01*
X414498Y62582D01*
X422746Y58000D02*
X419080D01*
X422746Y61665D01*
Y62582D01*
X421829Y63498D01*
X419996D01*
X419080Y62582D01*
X409000Y73498D02*
Y68000D01*
X411749D01*
X412666Y68916D01*
Y69833D01*
X411749Y70749D01*
X409000D01*
X411749D01*
X412666Y71666D01*
Y72582D01*
X411749Y73498D01*
X409000D01*
X414498Y68000D02*
X416331D01*
X415415D01*
Y73498D01*
X414498Y72582D01*
X419080D02*
X419996Y73498D01*
X421829D01*
X422746Y72582D01*
Y71666D01*
X421829Y70749D01*
X420913D01*
X421829D01*
X422746Y69833D01*
Y68916D01*
X421829Y68000D01*
X419996D01*
X419080Y68916D01*
X409000Y83498D02*
Y78000D01*
X411749D01*
X412666Y78916D01*
Y79833D01*
X411749Y80749D01*
X409000D01*
X411749D01*
X412666Y81665D01*
Y82582D01*
X411749Y83498D01*
X409000D01*
X414498Y78000D02*
X416331D01*
X415415D01*
Y83498D01*
X414498Y82582D01*
X421829Y78000D02*
Y83498D01*
X419080Y80749D01*
X422746D01*
X409000Y93498D02*
Y88000D01*
X411749D01*
X412666Y88916D01*
Y89833D01*
X411749Y90749D01*
X409000D01*
X411749D01*
X412666Y91666D01*
Y92582D01*
X411749Y93498D01*
X409000D01*
X414498Y88000D02*
X416331D01*
X415415D01*
Y93498D01*
X414498Y92582D01*
X422746Y93498D02*
X419080D01*
Y90749D01*
X420913Y91666D01*
X421829D01*
X422746Y90749D01*
Y88916D01*
X421829Y88000D01*
X419996D01*
X419080Y88916D01*
X411500Y97000D02*
Y100665D01*
X413333Y102498D01*
X415166Y100665D01*
Y97000D01*
Y99749D01*
X411500D01*
X416998Y101582D02*
X417915Y102498D01*
X419747D01*
X420664Y101582D01*
Y100665D01*
X419747Y99749D01*
X420664Y98833D01*
Y97916D01*
X419747Y97000D01*
X417915D01*
X416998Y97916D01*
Y98833D01*
X417915Y99749D01*
X416998Y100665D01*
Y101582D01*
X417915Y99749D02*
X419747D01*
X410500Y104000D02*
Y107666D01*
X412333Y109498D01*
X414165Y107666D01*
Y104000D01*
Y106749D01*
X410500D01*
X415998Y104000D02*
X417831D01*
X416915D01*
Y109498D01*
X415998Y108582D01*
X420580Y104000D02*
X422413D01*
X421496D01*
Y109498D01*
X420580Y108582D01*
X434002Y123500D02*
X438584D01*
X439500Y124416D01*
Y126249D01*
X438584Y127165D01*
X434002D01*
X439500Y128998D02*
X435835D01*
X434002Y130831D01*
X435835Y132664D01*
X439500D01*
X436751D01*
Y128998D01*
X439500Y134496D02*
X434002D01*
Y137246D01*
X434918Y138162D01*
X436751D01*
X437667Y137246D01*
Y134496D01*
Y136329D02*
X439500Y138162D01*
X434002Y139995D02*
Y143660D01*
Y141827D01*
X439500D01*
Y145493D02*
Y147326D01*
Y146409D01*
X434002D01*
X434918Y145493D01*
X421500Y122500D02*
X417835D01*
X416002Y124333D01*
X417835Y126165D01*
X421500D01*
X418751D01*
Y122500D01*
X420584Y127998D02*
X421500Y128915D01*
Y130747D01*
X420584Y131664D01*
X416918D01*
X416002Y130747D01*
Y128915D01*
X416918Y127998D01*
X417835D01*
X418751Y128915D01*
Y131664D01*
X421500Y134500D02*
X417835D01*
X416002Y136333D01*
X417835Y138165D01*
X421500D01*
X418751D01*
Y134500D01*
X421500Y139998D02*
Y141831D01*
Y140915D01*
X416002D01*
X416918Y139998D01*
Y144580D02*
X416002Y145496D01*
Y147329D01*
X416918Y148246D01*
X420584D01*
X421500Y147329D01*
Y145496D01*
X420584Y144580D01*
X416918D01*
X434002Y163665D02*
Y160000D01*
X436751D01*
X435835Y161833D01*
Y162749D01*
X436751Y163665D01*
X438584D01*
X439500Y162749D01*
Y160916D01*
X438584Y160000D01*
X434002Y165498D02*
X437667D01*
X439500Y167331D01*
X437667Y169164D01*
X434002D01*
X434918Y155666D02*
X434002Y154749D01*
Y152916D01*
X434918Y152000D01*
X438584D01*
X439500Y152916D01*
Y154749D01*
X438584Y155666D01*
X436751D01*
Y153833D01*
X434002Y212249D02*
Y210416D01*
X434918Y209500D01*
X438584D01*
X439500Y210416D01*
Y212249D01*
X438584Y213165D01*
X434918D01*
X434002Y212249D01*
Y214998D02*
X439500D01*
Y218664D01*
X434002Y224162D02*
Y220496D01*
X439500D01*
Y224162D01*
X436751Y220496D02*
Y222329D01*
X434002Y225995D02*
X439500D01*
Y228744D01*
X438584Y229660D01*
X434918D01*
X434002Y228744D01*
Y225995D01*
X434918Y192500D02*
X434002Y193416D01*
Y195249D01*
X434918Y196166D01*
X435835D01*
X436751Y195249D01*
Y194333D01*
Y195249D01*
X437667Y196166D01*
X438584D01*
X439500Y195249D01*
Y193416D01*
X438584Y192500D01*
X434002Y197998D02*
X437667D01*
X439500Y199831D01*
X437667Y201664D01*
X434002D01*
X434918Y203496D02*
X434002Y204413D01*
Y206246D01*
X434918Y207162D01*
X435835D01*
X436751Y206246D01*
Y205329D01*
Y206246D01*
X437667Y207162D01*
X438584D01*
X439500Y206246D01*
Y204413D01*
X438584Y203496D01*
X434918Y189165D02*
X434002Y188249D01*
Y186416D01*
X434918Y185500D01*
X438584D01*
X439500Y186416D01*
Y188249D01*
X438584Y189165D01*
X436751D01*
Y187333D01*
X416002Y206000D02*
X421500D01*
Y208749D01*
X420584Y209665D01*
X419667D01*
X418751Y208749D01*
Y206000D01*
Y208749D01*
X417835Y209665D01*
X416918D01*
X416002Y208749D01*
Y206000D01*
X416918Y211498D02*
X416002Y212415D01*
Y214247D01*
X416918Y215164D01*
X417835D01*
X418751Y214247D01*
X419667Y215164D01*
X420584D01*
X421500Y214247D01*
Y212415D01*
X420584Y211498D01*
X419667D01*
X418751Y212415D01*
X417835Y211498D01*
X416918D01*
X418751Y212415D02*
Y214247D01*
X416002Y218000D02*
X421500D01*
Y220749D01*
X420584Y221666D01*
X419667D01*
X418751Y220749D01*
Y218000D01*
Y220749D01*
X417835Y221666D01*
X416918D01*
X416002Y220749D01*
Y218000D01*
X420584Y223498D02*
X421500Y224415D01*
Y226247D01*
X420584Y227164D01*
X416918D01*
X416002Y226247D01*
Y224415D01*
X416918Y223498D01*
X417835D01*
X418751Y224415D01*
Y227164D01*
X434002Y233000D02*
X438584D01*
X439500Y233916D01*
Y235749D01*
X438584Y236666D01*
X434002D01*
X439500Y238498D02*
X435835D01*
X434002Y240331D01*
X435835Y242164D01*
X439500D01*
X436751D01*
Y238498D01*
X439500Y243996D02*
X434002D01*
Y246746D01*
X434918Y247662D01*
X436751D01*
X437667Y246746D01*
Y243996D01*
Y245829D02*
X439500Y247662D01*
X434002Y249495D02*
Y253160D01*
Y251327D01*
X439500D01*
X434918Y254993D02*
X434002Y255909D01*
Y257742D01*
X434918Y258658D01*
X435835D01*
X436751Y257742D01*
Y256826D01*
Y257742D01*
X437667Y258658D01*
X438584D01*
X439500Y257742D01*
Y255909D01*
X438584Y254993D01*
X416002Y231500D02*
X421500D01*
Y234249D01*
X420584Y235166D01*
X419667D01*
X418751Y234249D01*
Y231500D01*
Y234249D01*
X417835Y235166D01*
X416918D01*
X416002Y234249D01*
Y231500D01*
X421500Y236998D02*
Y238831D01*
Y237915D01*
X416002D01*
X416918Y236998D01*
Y241580D02*
X416002Y242496D01*
Y244329D01*
X416918Y245246D01*
X420584D01*
X421500Y244329D01*
Y242496D01*
X420584Y241580D01*
X416918D01*
X416002Y248000D02*
X421500D01*
Y250749D01*
X420584Y251665D01*
X419667D01*
X418751Y250749D01*
Y248000D01*
Y250749D01*
X417835Y251665D01*
X416918D01*
X416002Y250749D01*
Y248000D01*
X421500Y253498D02*
Y255331D01*
Y254415D01*
X416002D01*
X416918Y253498D01*
X421500Y258080D02*
Y259913D01*
Y258996D01*
X416002D01*
X416918Y258080D01*
X434918Y266666D02*
X434002Y265749D01*
Y263916D01*
X434918Y263000D01*
X438584D01*
X439500Y263916D01*
Y265749D01*
X438584Y266666D01*
X436751D01*
Y264833D01*
X434002Y273165D02*
Y269500D01*
X436751D01*
X435835Y271333D01*
Y272249D01*
X436751Y273165D01*
X438584D01*
X439500Y272249D01*
Y270416D01*
X438584Y269500D01*
X434002Y274998D02*
X437667D01*
X439500Y276831D01*
X437667Y278664D01*
X434002D01*
X381002Y300499D02*
Y296500D01*
X384001D01*
X383001Y298499D01*
Y299499D01*
X384001Y300499D01*
X386000D01*
X387000Y299499D01*
Y297500D01*
X386000Y296500D01*
X381002Y302498D02*
X385001D01*
X387000Y304497D01*
X385001Y306497D01*
X381002D01*
X391002Y301999D02*
X390002Y300999D01*
Y299000D01*
X391002Y298000D01*
X395000D01*
X396000Y299000D01*
Y300999D01*
X395000Y301999D01*
X393001D01*
Y299999D01*
X406000Y296000D02*
X402001D01*
X400002Y297999D01*
X402001Y299999D01*
X406000D01*
X403001D01*
Y296000D01*
X401002Y301998D02*
X400002Y302998D01*
Y304997D01*
X401002Y305997D01*
X402001D01*
X403001Y304997D01*
Y303997D01*
Y304997D01*
X404001Y305997D01*
X405000D01*
X406000Y304997D01*
Y302998D01*
X405000Y301998D01*
X416500Y296000D02*
X412501D01*
X410502Y297999D01*
X412501Y299999D01*
X416500D01*
X413501D01*
Y296000D01*
X416500Y305997D02*
Y301998D01*
X412501Y305997D01*
X411502D01*
X410502Y304997D01*
Y302998D01*
X411502Y301998D01*
X384000Y313498D02*
Y308500D01*
X385000Y307500D01*
X386999D01*
X387999Y308500D01*
Y313498D01*
X389998Y307500D02*
Y311499D01*
X391997Y313498D01*
X393997Y311499D01*
Y307500D01*
Y310499D01*
X389998D01*
X395996Y307500D02*
Y313498D01*
X398995D01*
X399995Y312498D01*
Y310499D01*
X398995Y309499D01*
X395996D01*
X397995D02*
X399995Y307500D01*
X401994Y313498D02*
X405993D01*
X403994D01*
Y307500D01*
X411991D02*
X407992D01*
X411991Y311499D01*
Y312498D01*
X410991Y313498D01*
X408992D01*
X407992Y312498D01*
X379500Y7500D02*
Y12165D01*
X381833Y14498D01*
X384165Y12165D01*
Y7500D01*
Y10999D01*
X379500D01*
X386498Y7500D02*
X388830D01*
X387664D01*
Y14498D01*
X386498Y13331D01*
X396994Y7500D02*
X392329D01*
X396994Y12165D01*
Y13331D01*
X395828Y14498D01*
X393495D01*
X392329Y13331D01*
X333968Y14843D02*
Y7845D01*
X337467D01*
X338633Y9011D01*
Y10177D01*
X337467Y11344D01*
X333968D01*
X337467D01*
X338633Y12510D01*
Y13676D01*
X337467Y14843D01*
X333968D01*
X345631D02*
X340966D01*
Y11344D01*
X343299Y12510D01*
X344465D01*
X345631Y11344D01*
Y9011D01*
X344465Y7845D01*
X342132D01*
X340966Y9011D01*
X285434Y7767D02*
Y12432D01*
X287767Y14764D01*
X290099Y12432D01*
Y7767D01*
Y11266D01*
X285434D01*
X297097Y14764D02*
X292432D01*
Y11266D01*
X294764Y12432D01*
X295931D01*
X297097Y11266D01*
Y8933D01*
X295931Y7767D01*
X293598D01*
X292432Y8933D01*
X238500Y7500D02*
Y12165D01*
X240833Y14498D01*
X243165Y12165D01*
Y7500D01*
Y10999D01*
X238500D01*
X245498Y13331D02*
X246664Y14498D01*
X248997D01*
X250163Y13331D01*
Y8666D01*
X248997Y7500D01*
X246664D01*
X245498Y8666D01*
Y13331D01*
X185836Y8000D02*
X190501D01*
X192834Y10333D01*
X190501Y12665D01*
X185836D01*
X187002Y19663D02*
X185836Y18497D01*
Y16164D01*
X187002Y14998D01*
X191667D01*
X192834Y16164D01*
Y18497D01*
X191667Y19663D01*
X187002Y26661D02*
X185836Y25494D01*
Y23162D01*
X187002Y21995D01*
X191667D01*
X192834Y23162D01*
Y25494D01*
X191667Y26661D01*
X194000Y28993D02*
Y33658D01*
X187002Y35991D02*
X185836Y37157D01*
Y39490D01*
X187002Y40656D01*
X188169D01*
X189335Y39490D01*
Y38324D01*
Y39490D01*
X190501Y40656D01*
X191667D01*
X192834Y39490D01*
Y37157D01*
X191667Y35991D01*
X192834Y42989D02*
X191667D01*
Y44155D01*
X192834D01*
Y42989D01*
X187002Y48820D02*
X185836Y49986D01*
Y52319D01*
X187002Y53485D01*
X188169D01*
X189335Y52319D01*
Y51153D01*
Y52319D01*
X190501Y53485D01*
X191667D01*
X192834Y52319D01*
Y49986D01*
X191667Y48820D01*
X185836Y55818D02*
X190501D01*
X192834Y58151D01*
X190501Y60483D01*
X185836D01*
X166669Y32165D02*
X165502Y30999D01*
Y28666D01*
X166669Y27500D01*
X171334D01*
X172500Y28666D01*
Y30999D01*
X171334Y32165D01*
X169001D01*
Y29833D01*
X172500Y34498D02*
X165502D01*
X172500Y39163D01*
X165502D01*
Y41495D02*
X172500D01*
Y44994D01*
X171334Y46161D01*
X166669D01*
X165502Y44994D01*
Y41495D01*
X143836Y6500D02*
X148501D01*
X150834Y8833D01*
X148501Y11165D01*
X143836D01*
X145002Y18163D02*
X143836Y16997D01*
Y14664D01*
X145002Y13498D01*
X149667D01*
X150834Y14664D01*
Y16997D01*
X149667Y18163D01*
X145002Y25161D02*
X143836Y23994D01*
Y21662D01*
X145002Y20495D01*
X149667D01*
X150834Y21662D01*
Y23994D01*
X149667Y25161D01*
X152000Y27493D02*
Y32158D01*
X143836Y39156D02*
Y34491D01*
X147335D01*
X146168Y36824D01*
Y37990D01*
X147335Y39156D01*
X149667D01*
X150834Y37990D01*
Y35657D01*
X149667Y34491D01*
X143836Y41489D02*
X148501D01*
X150834Y43821D01*
X148501Y46154D01*
X143836D01*
X123502Y8000D02*
X128167D01*
X130500Y10333D01*
X128167Y12665D01*
X123502D01*
X124669Y19663D02*
X123502Y18497D01*
Y16164D01*
X124669Y14998D01*
X129334D01*
X130500Y16164D01*
Y18497D01*
X129334Y19663D01*
X124669Y26661D02*
X123502Y25494D01*
Y23162D01*
X124669Y21995D01*
X129334D01*
X130500Y23162D01*
Y25494D01*
X129334Y26661D01*
X123502Y28993D02*
X130500D01*
Y32492D01*
X129334Y33658D01*
X128167D01*
X127001Y32492D01*
Y28993D01*
Y32492D01*
X125835Y33658D01*
X124669D01*
X123502Y32492D01*
Y28993D01*
X130500Y35991D02*
X125835D01*
X123502Y38324D01*
X125835Y40656D01*
X130500D01*
X127001D01*
Y35991D01*
X123502Y42989D02*
Y47654D01*
Y45321D01*
X130500D01*
X292000Y253998D02*
Y249999D01*
X293999Y248000D01*
X295999Y249999D01*
Y253998D01*
X297998D02*
Y248000D01*
X300997D01*
X301997Y249000D01*
Y249999D01*
X300997Y250999D01*
X297998D01*
X300997D01*
X301997Y251999D01*
Y252998D01*
X300997Y253998D01*
X297998D01*
X293499Y242998D02*
X292499Y243998D01*
X290500D01*
X289500Y242998D01*
Y239000D01*
X290500Y238000D01*
X292499D01*
X293499Y239000D01*
X295498Y238000D02*
X297497D01*
X296498D01*
Y243998D01*
X295498Y242998D01*
X300496D02*
X301496Y243998D01*
X303496D01*
X304495Y242998D01*
Y241999D01*
X303496Y240999D01*
X302496D01*
X303496D01*
X304495Y239999D01*
Y239000D01*
X303496Y238000D01*
X301496D01*
X300496Y239000D01*
X293499Y232998D02*
X292499Y233998D01*
X290500D01*
X289500Y232998D01*
Y229000D01*
X290500Y228000D01*
X292499D01*
X293499Y229000D01*
X295498Y228000D02*
X297497D01*
X296498D01*
Y233998D01*
X295498Y232998D01*
X303496Y228000D02*
Y233998D01*
X300496Y230999D01*
X304495D01*
X292999Y222498D02*
X291999Y223498D01*
X290000D01*
X289000Y222498D01*
Y218500D01*
X290000Y217500D01*
X291999D01*
X292999Y218500D01*
X294998Y217500D02*
X296997D01*
X295998D01*
Y223498D01*
X294998Y222498D01*
X303995Y223498D02*
X299996D01*
Y220499D01*
X301996Y221499D01*
X302995D01*
X303995Y220499D01*
Y218500D01*
X302995Y217500D01*
X300996D01*
X299996Y218500D01*
X292000Y208000D02*
Y211999D01*
X293999Y213998D01*
X295999Y211999D01*
Y208000D01*
Y210999D01*
X292000D01*
X297998Y212998D02*
X298998Y213998D01*
X300997D01*
X301997Y212998D01*
Y209000D01*
X300997Y208000D01*
X298998D01*
X297998Y209000D01*
Y212998D01*
X292500Y198000D02*
Y201999D01*
X294499Y203998D01*
X296499Y201999D01*
Y198000D01*
Y200999D01*
X292500D01*
X298498Y198000D02*
X300497D01*
X299498D01*
Y203998D01*
X298498Y202998D01*
X292000Y188000D02*
Y191999D01*
X293999Y193998D01*
X295999Y191999D01*
Y188000D01*
Y190999D01*
X292000D01*
X301997Y188000D02*
X297998D01*
X301997Y191999D01*
Y192998D01*
X300997Y193998D01*
X298998D01*
X297998Y192998D01*
X292000Y178000D02*
Y181999D01*
X293999Y183998D01*
X295999Y181999D01*
Y178000D01*
Y180999D01*
X292000D01*
X297998Y182998D02*
X298998Y183998D01*
X300997D01*
X301997Y182998D01*
Y181999D01*
X300997Y180999D01*
X299997D01*
X300997D01*
X301997Y179999D01*
Y179000D01*
X300997Y178000D01*
X298998D01*
X297998Y179000D01*
X292000Y168000D02*
Y171999D01*
X293999Y173998D01*
X295999Y171999D01*
Y168000D01*
Y170999D01*
X292000D01*
X300997Y168000D02*
Y173998D01*
X297998Y170999D01*
X301997D01*
X291500Y158000D02*
Y161999D01*
X293499Y163998D01*
X295499Y161999D01*
Y158000D01*
Y160999D01*
X291500D01*
X301497Y163998D02*
X297498D01*
Y160999D01*
X299497Y161999D01*
X300497D01*
X301497Y160999D01*
Y159000D01*
X300497Y158000D01*
X298498D01*
X297498Y159000D01*
X291500Y147500D02*
Y151499D01*
X293499Y153498D01*
X295499Y151499D01*
Y147500D01*
Y150499D01*
X291500D01*
X301497Y153498D02*
X299497Y152498D01*
X297498Y150499D01*
Y148500D01*
X298498Y147500D01*
X300497D01*
X301497Y148500D01*
Y149499D01*
X300497Y150499D01*
X297498D01*
X292000Y138000D02*
Y141999D01*
X293999Y143998D01*
X295999Y141999D01*
Y138000D01*
Y140999D01*
X292000D01*
X297998Y143998D02*
X301997D01*
Y142998D01*
X297998Y139000D01*
Y138000D01*
X292000Y133998D02*
Y128000D01*
X294999D01*
X295999Y129000D01*
Y129999D01*
X294999Y130999D01*
X292000D01*
X294999D01*
X295999Y131999D01*
Y132998D01*
X294999Y133998D01*
X292000D01*
X297998Y132998D02*
X298998Y133998D01*
X300997D01*
X301997Y132998D01*
Y129000D01*
X300997Y128000D01*
X298998D01*
X297998Y129000D01*
Y132998D01*
X292500Y123998D02*
Y118000D01*
X295499D01*
X296499Y119000D01*
Y119999D01*
X295499Y120999D01*
X292500D01*
X295499D01*
X296499Y121999D01*
Y122998D01*
X295499Y123998D01*
X292500D01*
X298498Y118000D02*
X300497D01*
X299498D01*
Y123998D01*
X298498Y122998D01*
X289500Y113998D02*
Y108000D01*
X292499D01*
X293499Y109000D01*
Y109999D01*
X292499Y110999D01*
X289500D01*
X292499D01*
X293499Y111999D01*
Y112998D01*
X292499Y113998D01*
X289500D01*
X295498Y108000D02*
X297497D01*
X296498D01*
Y113998D01*
X295498Y112998D01*
X300496D02*
X301496Y113998D01*
X303496D01*
X304495Y112998D01*
Y109000D01*
X303496Y108000D01*
X301496D01*
X300496Y109000D01*
Y112998D01*
X290500Y103998D02*
Y98000D01*
X293499D01*
X294499Y99000D01*
Y99999D01*
X293499Y100999D01*
X290500D01*
X293499D01*
X294499Y101999D01*
Y102998D01*
X293499Y103998D01*
X290500D01*
X296498Y98000D02*
X298497D01*
X297498D01*
Y103998D01*
X296498Y102998D01*
X301496Y98000D02*
X303496D01*
X302496D01*
Y103998D01*
X301496Y102998D01*
X290000Y88000D02*
Y93998D01*
X292999D01*
X293999Y92998D01*
Y90999D01*
X292999Y89999D01*
X290000D01*
X291999D02*
X293999Y88000D01*
X299997Y92998D02*
X298997Y93998D01*
X296998D01*
X295998Y92998D01*
Y91999D01*
X296998Y90999D01*
X298997D01*
X299997Y89999D01*
Y89000D01*
X298997Y88000D01*
X296998D01*
X295998Y89000D01*
X301996Y93998D02*
X305995D01*
X303995D01*
Y88000D01*
X290000Y82998D02*
X291000Y83998D01*
X292999D01*
X293999Y82998D01*
Y81999D01*
X292999Y80999D01*
X291999D01*
X292999D01*
X293999Y79999D01*
Y79000D01*
X292999Y78000D01*
X291000D01*
X290000Y79000D01*
X295998Y78000D02*
Y79000D01*
X296998D01*
Y78000D01*
X295998D01*
X300996Y82998D02*
X301996Y83998D01*
X303995D01*
X304995Y82998D01*
Y81999D01*
X303995Y80999D01*
X302996D01*
X303995D01*
X304995Y79999D01*
Y79000D01*
X303995Y78000D01*
X301996D01*
X300996Y79000D01*
X299999Y62498D02*
X298999Y63498D01*
X297000D01*
X296000Y62498D01*
Y58500D01*
X297000Y57500D01*
X298999D01*
X299999Y58500D01*
Y60499D01*
X297999D01*
X299999Y71998D02*
X298999Y72998D01*
X297000D01*
X296000Y71998D01*
Y68000D01*
X297000Y67000D01*
X298999D01*
X299999Y68000D01*
Y69999D01*
X297999D01*
X386999Y233498D02*
X383000D01*
Y230499D01*
X384999Y231499D01*
X385999D01*
X386999Y230499D01*
Y228500D01*
X385999Y227500D01*
X384000D01*
X383000Y228500D01*
X388998Y233498D02*
Y229499D01*
X390997Y227500D01*
X392997Y229499D01*
Y233498D01*
X389999Y242998D02*
X388999Y243998D01*
X387000D01*
X386000Y242998D01*
Y239000D01*
X387000Y238000D01*
X388999D01*
X389999Y239000D01*
Y240999D01*
X387999D01*
X381000Y252998D02*
X382000Y253998D01*
X383999D01*
X384999Y252998D01*
Y251999D01*
X383999Y250999D01*
X382999D01*
X383999D01*
X384999Y249999D01*
Y249000D01*
X383999Y248000D01*
X382000D01*
X381000Y249000D01*
X386998Y248000D02*
Y249000D01*
X387998D01*
Y248000D01*
X386998D01*
X391996Y252998D02*
X392996Y253998D01*
X394995D01*
X395995Y252998D01*
Y251999D01*
X394995Y250999D01*
X393996D01*
X394995D01*
X395995Y249999D01*
Y249000D01*
X394995Y248000D01*
X392996D01*
X391996Y249000D01*
X383500Y223998D02*
Y218000D01*
X386499D01*
X387499Y219000D01*
Y219999D01*
X386499Y220999D01*
X383500D01*
X386499D01*
X387499Y221999D01*
Y222998D01*
X386499Y223998D01*
X383500D01*
X389498Y219000D02*
X390498Y218000D01*
X392497D01*
X393497Y219000D01*
Y222998D01*
X392497Y223998D01*
X390498D01*
X389498Y222998D01*
Y221999D01*
X390498Y220999D01*
X393497D01*
X383500Y213998D02*
Y208000D01*
X386499D01*
X387499Y209000D01*
Y209999D01*
X386499Y210999D01*
X383500D01*
X386499D01*
X387499Y211999D01*
Y212998D01*
X386499Y213998D01*
X383500D01*
X389498Y212998D02*
X390498Y213998D01*
X392497D01*
X393497Y212998D01*
Y211999D01*
X392497Y210999D01*
X393497Y209999D01*
Y209000D01*
X392497Y208000D01*
X390498D01*
X389498Y209000D01*
Y209999D01*
X390498Y210999D01*
X389498Y211999D01*
Y212998D01*
X390498Y210999D02*
X392497D01*
X383500Y203998D02*
Y198000D01*
X386499D01*
X387499Y199000D01*
Y199999D01*
X386499Y200999D01*
X383500D01*
X386499D01*
X387499Y201999D01*
Y202998D01*
X386499Y203998D01*
X383500D01*
X389498D02*
X393497D01*
Y202998D01*
X389498Y199000D01*
Y198000D01*
X383500Y193998D02*
Y188000D01*
X386499D01*
X387499Y189000D01*
Y189999D01*
X386499Y190999D01*
X383500D01*
X386499D01*
X387499Y191999D01*
Y192998D01*
X386499Y193998D01*
X383500D01*
X393497D02*
X391497Y192998D01*
X389498Y190999D01*
Y189000D01*
X390498Y188000D01*
X392497D01*
X393497Y189000D01*
Y189999D01*
X392497Y190999D01*
X389498D01*
X384000Y183998D02*
Y178000D01*
X386999D01*
X387999Y179000D01*
Y179999D01*
X386999Y180999D01*
X384000D01*
X386999D01*
X387999Y181999D01*
Y182998D01*
X386999Y183998D01*
X384000D01*
X393997D02*
X389998D01*
Y180999D01*
X391997Y181999D01*
X392997D01*
X393997Y180999D01*
Y179000D01*
X392997Y178000D01*
X390998D01*
X389998Y179000D01*
X384000Y173998D02*
Y168000D01*
X386999D01*
X387999Y169000D01*
Y169999D01*
X386999Y170999D01*
X384000D01*
X386999D01*
X387999Y171999D01*
Y172998D01*
X386999Y173998D01*
X384000D01*
X392997Y168000D02*
Y173998D01*
X389998Y170999D01*
X393997D01*
X384000Y163998D02*
Y158000D01*
X386999D01*
X387999Y159000D01*
Y159999D01*
X386999Y160999D01*
X384000D01*
X386999D01*
X387999Y161999D01*
Y162998D01*
X386999Y163998D01*
X384000D01*
X389998Y162998D02*
X390998Y163998D01*
X392997D01*
X393997Y162998D01*
Y161999D01*
X392997Y160999D01*
X391997D01*
X392997D01*
X393997Y159999D01*
Y159000D01*
X392997Y158000D01*
X390998D01*
X389998Y159000D01*
X381500Y148000D02*
Y151999D01*
X383499Y153998D01*
X385499Y151999D01*
Y148000D01*
Y150999D01*
X381500D01*
X387498Y148000D02*
X389497D01*
X388498D01*
Y153998D01*
X387498Y152998D01*
X396495Y153998D02*
X392496D01*
Y150999D01*
X394496Y151999D01*
X395496D01*
X396495Y150999D01*
Y149000D01*
X395496Y148000D01*
X393496D01*
X392496Y149000D01*
X381500Y138000D02*
Y141999D01*
X383499Y143998D01*
X385499Y141999D01*
Y138000D01*
Y140999D01*
X381500D01*
X387498Y138000D02*
X389497D01*
X388498D01*
Y143998D01*
X387498Y142998D01*
X396495Y138000D02*
X392496D01*
X396495Y141999D01*
Y142998D01*
X395496Y143998D01*
X393496D01*
X392496Y142998D01*
X382000Y128000D02*
Y131999D01*
X383999Y133998D01*
X385999Y131999D01*
Y128000D01*
Y130999D01*
X382000D01*
X387998Y128000D02*
X389997D01*
X388998D01*
Y133998D01*
X387998Y132998D01*
X392996Y128000D02*
X394996D01*
X393996D01*
Y133998D01*
X392996Y132998D01*
X381500Y118000D02*
Y121999D01*
X383499Y123998D01*
X385499Y121999D01*
Y118000D01*
Y120999D01*
X381500D01*
X387498Y118000D02*
X389497D01*
X388498D01*
Y123998D01*
X387498Y122998D01*
X392496D02*
X393496Y123998D01*
X395496D01*
X396495Y122998D01*
Y119000D01*
X395496Y118000D01*
X393496D01*
X392496Y119000D01*
Y122998D01*
X383500Y108000D02*
Y111999D01*
X385499Y113998D01*
X387499Y111999D01*
Y108000D01*
Y110999D01*
X383500D01*
X389498Y109000D02*
X390498Y108000D01*
X392497D01*
X393497Y109000D01*
Y112998D01*
X392497Y113998D01*
X390498D01*
X389498Y112998D01*
Y111999D01*
X390498Y110999D01*
X393497D01*
X383500Y98000D02*
Y101999D01*
X385499Y103998D01*
X387499Y101999D01*
Y98000D01*
Y100999D01*
X383500D01*
X389498Y102998D02*
X390498Y103998D01*
X392497D01*
X393497Y102998D01*
Y101999D01*
X392497Y100999D01*
X393497Y99999D01*
Y99000D01*
X392497Y98000D01*
X390498D01*
X389498Y99000D01*
Y99999D01*
X390498Y100999D01*
X389498Y101999D01*
Y102998D01*
X390498Y100999D02*
X392497D01*
X381500Y93998D02*
Y88000D01*
X384499D01*
X385499Y89000D01*
Y89999D01*
X384499Y90999D01*
X381500D01*
X384499D01*
X385499Y91999D01*
Y92998D01*
X384499Y93998D01*
X381500D01*
X387498Y88000D02*
X389497D01*
X388498D01*
Y93998D01*
X387498Y92998D01*
X396495Y93998D02*
X392496D01*
Y90999D01*
X394496Y91999D01*
X395496D01*
X396495Y90999D01*
Y89000D01*
X395496Y88000D01*
X393496D01*
X392496Y89000D01*
X381500Y83998D02*
Y78000D01*
X384499D01*
X385499Y79000D01*
Y79999D01*
X384499Y80999D01*
X381500D01*
X384499D01*
X385499Y81999D01*
Y82998D01*
X384499Y83998D01*
X381500D01*
X387498Y78000D02*
X389497D01*
X388498D01*
Y83998D01*
X387498Y82998D01*
X395496Y78000D02*
Y83998D01*
X392496Y80999D01*
X396495D01*
X381500Y73998D02*
Y68000D01*
X384499D01*
X385499Y69000D01*
Y69999D01*
X384499Y70999D01*
X381500D01*
X384499D01*
X385499Y71999D01*
Y72998D01*
X384499Y73998D01*
X381500D01*
X387498Y68000D02*
X389497D01*
X388498D01*
Y73998D01*
X387498Y72998D01*
X392496D02*
X393496Y73998D01*
X395496D01*
X396495Y72998D01*
Y71999D01*
X395496Y70999D01*
X394496D01*
X395496D01*
X396495Y69999D01*
Y69000D01*
X395496Y68000D01*
X393496D01*
X392496Y69000D01*
X381500Y63998D02*
Y58000D01*
X384499D01*
X385499Y59000D01*
Y59999D01*
X384499Y60999D01*
X381500D01*
X384499D01*
X385499Y61999D01*
Y62998D01*
X384499Y63998D01*
X381500D01*
X387498Y58000D02*
X389497D01*
X388498D01*
Y63998D01*
X387498Y62998D01*
X396495Y58000D02*
X392496D01*
X396495Y61999D01*
Y62998D01*
X395496Y63998D01*
X393496D01*
X392496Y62998D01*
X251000Y216500D02*
X246335D01*
X244002Y218833D01*
X246335Y221165D01*
X251000D01*
X247501D01*
Y216500D01*
X251000Y226997D02*
X244002D01*
X247501Y223498D01*
Y228163D01*
X306000Y314998D02*
Y308000D01*
X309499D01*
X310665Y309166D01*
Y310333D01*
X309499Y311499D01*
X306000D01*
X309499D01*
X310665Y312665D01*
Y313831D01*
X309499Y314998D01*
X306000D01*
X316497Y308000D02*
Y314998D01*
X312998Y311499D01*
X317663D01*
X306500Y304498D02*
Y297500D01*
X309999D01*
X311165Y298666D01*
Y299833D01*
X309999Y300999D01*
X306500D01*
X309999D01*
X311165Y302165D01*
Y303331D01*
X309999Y304498D01*
X306500D01*
X313498Y303331D02*
X314664Y304498D01*
X316997D01*
X318163Y303331D01*
Y302165D01*
X316997Y300999D01*
X315830D01*
X316997D01*
X318163Y299833D01*
Y298666D01*
X316997Y297500D01*
X314664D01*
X313498Y298666D01*
X306500Y288000D02*
Y292665D01*
X308833Y294998D01*
X311165Y292665D01*
Y288000D01*
Y291499D01*
X306500D01*
X313498Y288000D02*
X315830D01*
X314664D01*
Y294998D01*
X313498Y293831D01*
X323994Y294998D02*
X319329D01*
Y291499D01*
X321662Y292665D01*
X322828D01*
X323994Y291499D01*
Y289166D01*
X322828Y288000D01*
X320496D01*
X319329Y289166D01*
X267000Y260998D02*
Y254000D01*
X270499D01*
X271665Y255166D01*
Y256333D01*
X270499Y257499D01*
X267000D01*
X270499D01*
X271665Y258665D01*
Y259831D01*
X270499Y260998D01*
X267000D01*
X273998D02*
X278663D01*
Y259831D01*
X273998Y255166D01*
Y254000D01*
X248000Y260998D02*
Y254000D01*
X251499D01*
X252665Y255166D01*
Y256333D01*
X251499Y257499D01*
X248000D01*
X251499D01*
X252665Y258665D01*
Y259831D01*
X251499Y260998D01*
X248000D01*
X259663D02*
X257330Y259831D01*
X254998Y257499D01*
Y255166D01*
X256164Y254000D01*
X258497D01*
X259663Y255166D01*
Y256333D01*
X258497Y257499D01*
X254998D01*
X231500Y254000D02*
Y258665D01*
X233833Y260998D01*
X236165Y258665D01*
Y254000D01*
Y257499D01*
X231500D01*
X238498Y254000D02*
X240830D01*
X239664D01*
Y260998D01*
X238498Y259831D01*
X209500Y253500D02*
Y258165D01*
X211833Y260498D01*
X214165Y258165D01*
Y253500D01*
Y256999D01*
X209500D01*
X221163Y260498D02*
X218830Y259331D01*
X216498Y256999D01*
Y254666D01*
X217664Y253500D01*
X219997D01*
X221163Y254666D01*
Y255833D01*
X219997Y256999D01*
X216498D01*
X188500Y253000D02*
Y257665D01*
X190833Y259998D01*
X193165Y257665D01*
Y253000D01*
Y256499D01*
X188500D01*
X195498Y259998D02*
X200163D01*
Y258831D01*
X195498Y254166D01*
Y253000D01*
X168500Y259998D02*
Y253000D01*
X171999D01*
X173165Y254166D01*
Y255333D01*
X171999Y256499D01*
X168500D01*
X171999D01*
X173165Y257665D01*
Y258831D01*
X171999Y259998D01*
X168500D01*
X175498Y258831D02*
X176664Y259998D01*
X178997D01*
X180163Y258831D01*
Y254166D01*
X178997Y253000D01*
X176664D01*
X175498Y254166D01*
Y258831D01*
X147500Y259998D02*
Y253000D01*
X150999D01*
X152165Y254166D01*
Y255333D01*
X150999Y256499D01*
X147500D01*
X150999D01*
X152165Y257665D01*
Y258831D01*
X150999Y259998D01*
X147500D01*
X154498Y253000D02*
X156830D01*
X155664D01*
Y259998D01*
X154498Y258831D01*
X37370Y246584D02*
Y248916D01*
X36204Y250082D01*
X31539D01*
X30372Y248916D01*
Y246584D01*
X31539Y245417D01*
X36204D01*
X37370Y246584D01*
X30372Y243085D02*
X37370D01*
X30372Y238420D01*
X37370D01*
X30372Y236087D02*
X35037Y231422D01*
X37370Y225590D02*
Y227923D01*
X36204Y229089D01*
X31539D01*
X30372Y227923D01*
Y225590D01*
X31539Y224424D01*
X36204D01*
X37370Y225590D01*
Y217426D02*
Y222092D01*
X33871D01*
Y219759D01*
Y222092D01*
X30372D01*
X37370Y210429D02*
Y215094D01*
X33871D01*
Y212761D01*
Y215094D01*
X30372D01*
X36998Y180001D02*
Y182334D01*
X35831Y183500D01*
X31166D01*
X30000Y182334D01*
Y180001D01*
X31166Y178835D01*
X35831D01*
X36998Y180001D01*
X30000Y176502D02*
X36998D01*
X30000Y171837D01*
X36998D01*
X30000Y169504D02*
X34665Y164839D01*
X36998Y159008D02*
Y161340D01*
X35831Y162507D01*
X31166D01*
X30000Y161340D01*
Y159008D01*
X31166Y157842D01*
X35831D01*
X36998Y159008D01*
Y150844D02*
Y155509D01*
X33499D01*
Y153176D01*
Y155509D01*
X30000D01*
X36998Y143846D02*
Y148511D01*
X33499D01*
Y146179D01*
Y148511D01*
X30000D01*
X35000Y103000D02*
Y107665D01*
X31500Y126333D02*
X36165D01*
X33833Y128665D02*
Y124000D01*
X11000Y299499D02*
X10000Y300499D01*
X8001D01*
X7001Y299499D01*
Y295501D01*
X8001Y294501D01*
X10000D01*
X11000Y295501D01*
X12999Y294501D02*
X14999D01*
X13999D01*
Y300499D01*
X12999Y299499D01*
X23501Y306000D02*
X22501Y305001D01*
Y303001D01*
X23501Y302002D01*
X27499D01*
X28499Y303001D01*
Y305001D01*
X27499Y306000D01*
X28499Y311998D02*
Y308000D01*
X24500Y311998D01*
X23501D01*
X22501Y310999D01*
Y308999D01*
X23501Y308000D01*
X53001Y308500D02*
X52001Y307501D01*
Y305501D01*
X53001Y304502D01*
X56999D01*
X57999Y305501D01*
Y307501D01*
X56999Y308500D01*
X53001Y310500D02*
X52001Y311499D01*
Y313499D01*
X53001Y314498D01*
X54000D01*
X55000Y313499D01*
Y312499D01*
Y313499D01*
X56000Y314498D01*
X56999D01*
X57999Y313499D01*
Y311499D01*
X56999Y310500D01*
X75500Y240999D02*
X74501Y241999D01*
X72501D01*
X71502Y240999D01*
Y237001D01*
X72501Y236001D01*
X74501D01*
X75500Y237001D01*
X80499Y236001D02*
Y241999D01*
X77500Y239000D01*
X81498D01*
X138001Y243500D02*
X137001Y242501D01*
Y240501D01*
X138001Y239502D01*
X141999D01*
X142999Y240501D01*
Y242501D01*
X141999Y243500D01*
X137001Y249498D02*
Y245500D01*
X140000D01*
X139000Y247499D01*
Y248499D01*
X140000Y249498D01*
X141999D01*
X142999Y248499D01*
Y246499D01*
X141999Y245500D01*
X139501Y198500D02*
X138501Y197501D01*
Y195501D01*
X139501Y194502D01*
X143499D01*
X144499Y195501D01*
Y197501D01*
X143499Y198500D01*
X138501Y204498D02*
X139501Y202499D01*
X141500Y200500D01*
X143499D01*
X144499Y201499D01*
Y203499D01*
X143499Y204498D01*
X142500D01*
X141500Y203499D01*
Y200500D01*
X137000Y176499D02*
X136001Y177499D01*
X134001D01*
X133002Y176499D01*
Y172501D01*
X134001Y171501D01*
X136001D01*
X137000Y172501D01*
X139000Y177499D02*
X142998D01*
Y176499D01*
X139000Y172501D01*
Y171501D01*
X98001Y141500D02*
X97001Y140501D01*
Y138501D01*
X98001Y137502D01*
X101999D01*
X102999Y138501D01*
Y140501D01*
X101999Y141500D01*
X98001Y143500D02*
X97001Y144499D01*
Y146499D01*
X98001Y147498D01*
X99000D01*
X100000Y146499D01*
X101000Y147498D01*
X101999D01*
X102999Y146499D01*
Y144499D01*
X101999Y143500D01*
X101000D01*
X100000Y144499D01*
X99000Y143500D01*
X98001D01*
X100000Y144499D02*
Y146499D01*
X82001Y140500D02*
X81001Y139501D01*
Y137501D01*
X82001Y136502D01*
X85999D01*
X86999Y137501D01*
Y139501D01*
X85999Y140500D01*
Y142500D02*
X86999Y143499D01*
Y145499D01*
X85999Y146498D01*
X82001D01*
X81001Y145499D01*
Y143499D01*
X82001Y142500D01*
X83000D01*
X84000Y143499D01*
Y146498D01*
X68501Y139501D02*
X67501Y138501D01*
Y136502D01*
X68501Y135502D01*
X72499D01*
X73499Y136502D01*
Y138501D01*
X72499Y139501D01*
X73499Y141500D02*
Y143500D01*
Y142500D01*
X67501D01*
X68501Y141500D01*
Y146499D02*
X67501Y147499D01*
Y149498D01*
X68501Y150498D01*
X72499D01*
X73499Y149498D01*
Y147499D01*
X72499Y146499D01*
X68501D01*
X50348Y146596D02*
X49348Y145596D01*
Y143597D01*
X50348Y142597D01*
X54346D01*
X55346Y143597D01*
Y145596D01*
X54346Y146596D01*
X55346Y148595D02*
Y150594D01*
Y149595D01*
X49348D01*
X50348Y148595D01*
X55346Y153593D02*
Y155593D01*
Y154593D01*
X49348D01*
X50348Y153593D01*
X51001Y108499D02*
X50002Y109499D01*
X48002D01*
X47002Y108499D01*
Y104501D01*
X48002Y103501D01*
X50002D01*
X51001Y104501D01*
X53000Y103501D02*
X55000D01*
X54000D01*
Y109499D01*
X53000Y108499D01*
X61998Y103501D02*
X57999D01*
X61998Y107500D01*
Y108499D01*
X60998Y109499D01*
X58999D01*
X57999Y108499D01*
X133501Y57001D02*
X132501Y56001D01*
Y54002D01*
X133501Y53002D01*
X137499D01*
X138499Y54002D01*
Y56001D01*
X137499Y57001D01*
X138499Y59000D02*
Y61000D01*
Y60000D01*
X132501D01*
X133501Y59000D01*
Y63999D02*
X132501Y64999D01*
Y66998D01*
X133501Y67998D01*
X134500D01*
X135500Y66998D01*
Y65998D01*
Y66998D01*
X136500Y67998D01*
X137499D01*
X138499Y66998D01*
Y64999D01*
X137499Y63999D01*
X86001Y73001D02*
X85001Y72001D01*
Y70002D01*
X86001Y69002D01*
X89999D01*
X90999Y70002D01*
Y72001D01*
X89999Y73001D01*
X90999Y75001D02*
Y77000D01*
Y76000D01*
X85001D01*
X86001Y75001D01*
X90999Y82998D02*
X85001D01*
X88000Y79999D01*
Y83998D01*
X178001Y158501D02*
X177001Y157501D01*
Y155502D01*
X178001Y154502D01*
X181999D01*
X182999Y155502D01*
Y157501D01*
X181999Y158501D01*
X182999Y160501D02*
Y162500D01*
Y161500D01*
X177001D01*
X178001Y160501D01*
X177001Y169498D02*
Y165499D01*
X180000D01*
X179000Y167498D01*
Y168498D01*
X180000Y169498D01*
X181999D01*
X182999Y168498D01*
Y166498D01*
X181999Y165499D01*
X226501Y173501D02*
X225501Y172502D01*
Y170502D01*
X226501Y169502D01*
X230499D01*
X231499Y170502D01*
Y172502D01*
X230499Y173501D01*
X231499Y175501D02*
Y177500D01*
Y176500D01*
X225501D01*
X226501Y175501D01*
X225501Y184498D02*
X226501Y182498D01*
X228500Y180499D01*
X230499D01*
X231499Y181499D01*
Y183498D01*
X230499Y184498D01*
X229500D01*
X228500Y183498D01*
Y180499D01*
X216501Y174001D02*
X215501Y173002D01*
Y171002D01*
X216501Y170002D01*
X220499D01*
X221499Y171002D01*
Y173002D01*
X220499Y174001D01*
X221499Y176000D02*
Y178000D01*
Y177000D01*
X215501D01*
X216501Y176000D01*
X215501Y180999D02*
Y184998D01*
X216501D01*
X220499Y180999D01*
X221499D01*
X187501Y95501D02*
X186501Y94501D01*
Y92502D01*
X187501Y91502D01*
X191499D01*
X192499Y92502D01*
Y94501D01*
X191499Y95501D01*
X192499Y97500D02*
Y99500D01*
Y98500D01*
X186501D01*
X187501Y97500D01*
Y102499D02*
X186501Y103498D01*
Y105498D01*
X187501Y106498D01*
X188500D01*
X189500Y105498D01*
X190500Y106498D01*
X191499D01*
X192499Y105498D01*
Y103498D01*
X191499Y102499D01*
X190500D01*
X189500Y103498D01*
X188500Y102499D01*
X187501D01*
X189500Y103498D02*
Y105498D01*
X227501Y95001D02*
X226501Y94001D01*
Y92002D01*
X227501Y91002D01*
X231499D01*
X232499Y92002D01*
Y94001D01*
X231499Y95001D01*
X232499Y97000D02*
Y99000D01*
Y98000D01*
X226501D01*
X227501Y97000D01*
X231499Y101999D02*
X232499Y102998D01*
Y104998D01*
X231499Y105998D01*
X227501D01*
X226501Y104998D01*
Y102998D01*
X227501Y101999D01*
X228500D01*
X229500Y102998D01*
Y105998D01*
X217001Y95001D02*
X216001Y94002D01*
Y92002D01*
X217001Y91003D01*
X220999D01*
X221999Y92002D01*
Y94002D01*
X220999Y95001D01*
X221999Y100999D02*
Y97001D01*
X218000Y100999D01*
X217001D01*
X216001Y100000D01*
Y98000D01*
X217001Y97001D01*
Y102999D02*
X216001Y103998D01*
Y105998D01*
X217001Y106997D01*
X220999D01*
X221999Y105998D01*
Y103998D01*
X220999Y102999D01*
X217001D01*
X410501Y169001D02*
X409501Y168001D01*
Y166002D01*
X410501Y165002D01*
X414499D01*
X415499Y166002D01*
Y168001D01*
X414499Y169001D01*
X415499Y174999D02*
Y171000D01*
X411500Y174999D01*
X410501D01*
X409501Y173999D01*
Y172000D01*
X410501Y171000D01*
X415499Y176998D02*
Y178998D01*
Y177998D01*
X409501D01*
X410501Y176998D01*
X404446Y266714D02*
X403446Y265714D01*
Y263715D01*
X404446Y262715D01*
X408444D01*
X409444Y263715D01*
Y265714D01*
X408444Y266714D01*
X409444Y272712D02*
Y268713D01*
X405445Y272712D01*
X404446D01*
X403446Y271712D01*
Y269713D01*
X404446Y268713D01*
X409444Y278710D02*
Y274711D01*
X405445Y278710D01*
X404446D01*
X403446Y277711D01*
Y275711D01*
X404446Y274711D01*
X384001Y270999D02*
X383002Y271999D01*
X381002D01*
X380003Y270999D01*
Y267001D01*
X381002Y266001D01*
X383002D01*
X384001Y267001D01*
X389999Y266001D02*
X386001D01*
X389999Y270000D01*
Y270999D01*
X389000Y271999D01*
X387000D01*
X386001Y270999D01*
X391999D02*
X392998Y271999D01*
X394998D01*
X395997Y270999D01*
Y270000D01*
X394998Y269000D01*
X393998D01*
X394998D01*
X395997Y268000D01*
Y267001D01*
X394998Y266001D01*
X392998D01*
X391999Y267001D01*
X418001Y177501D02*
X417001Y176502D01*
Y174502D01*
X418001Y173503D01*
X421999D01*
X422999Y174502D01*
Y176502D01*
X421999Y177501D01*
X422999Y183499D02*
Y179501D01*
X419000Y183499D01*
X418001D01*
X417001Y182500D01*
Y180500D01*
X418001Y179501D01*
X422999Y188498D02*
X417001D01*
X420000Y185499D01*
Y189497D01*
X413001Y22001D02*
X412001Y21002D01*
Y19002D01*
X413001Y18003D01*
X416999D01*
X417999Y19002D01*
Y21002D01*
X416999Y22001D01*
X417999Y27999D02*
Y24001D01*
X414000Y27999D01*
X413001D01*
X412001Y27000D01*
Y25000D01*
X413001Y24001D01*
X412001Y33997D02*
Y29999D01*
X415000D01*
X414000Y31998D01*
Y32998D01*
X415000Y33997D01*
X416999D01*
X417999Y32998D01*
Y30998D01*
X416999Y29999D01*
X230501Y47499D02*
X229502Y48499D01*
X227502D01*
X226503Y47499D01*
Y43501D01*
X227502Y42501D01*
X229502D01*
X230501Y43501D01*
X236499Y42501D02*
X232501D01*
X236499Y46500D01*
Y47499D01*
X235500Y48499D01*
X233500D01*
X232501Y47499D01*
X242497Y48499D02*
X240498Y47499D01*
X238499Y45500D01*
Y43501D01*
X239498Y42501D01*
X241498D01*
X242497Y43501D01*
Y44500D01*
X241498Y45500D01*
X238499D01*
X326501Y46999D02*
X325502Y47999D01*
X323502D01*
X322503Y46999D01*
Y43001D01*
X323502Y42001D01*
X325502D01*
X326501Y43001D01*
X332499Y42001D02*
X328501D01*
X332499Y46000D01*
Y46999D01*
X331500Y47999D01*
X329500D01*
X328501Y46999D01*
X334499Y47999D02*
X338497D01*
Y46999D01*
X334499Y43001D01*
Y42001D01*
X373501Y46999D02*
X372502Y47999D01*
X370502D01*
X369503Y46999D01*
Y43001D01*
X370502Y42001D01*
X372502D01*
X373501Y43001D01*
X379499Y42001D02*
X375501D01*
X379499Y46000D01*
Y46999D01*
X378500Y47999D01*
X376500D01*
X375501Y46999D01*
X381499D02*
X382498Y47999D01*
X384498D01*
X385497Y46999D01*
Y46000D01*
X384498Y45000D01*
X385497Y44000D01*
Y43001D01*
X384498Y42001D01*
X382498D01*
X381499Y43001D01*
Y44000D01*
X382498Y45000D01*
X381499Y46000D01*
Y46999D01*
X382498Y45000D02*
X384498D01*
X279001Y47499D02*
X278002Y48499D01*
X276002D01*
X275003Y47499D01*
Y43501D01*
X276002Y42501D01*
X278002D01*
X279001Y43501D01*
X284999Y42501D02*
X281001D01*
X284999Y46500D01*
Y47499D01*
X284000Y48499D01*
X282000D01*
X281001Y47499D01*
X286999Y43501D02*
X287998Y42501D01*
X289998D01*
X290997Y43501D01*
Y47499D01*
X289998Y48499D01*
X287998D01*
X286999Y47499D01*
Y46500D01*
X287998Y45500D01*
X290997D01*
X107501Y308501D02*
X113499D01*
Y312500D01*
Y314499D02*
Y316499D01*
Y315499D01*
X107501D01*
X108501Y314499D01*
X82001Y55002D02*
X87999D01*
Y59000D01*
Y64998D02*
Y61000D01*
X84000Y64998D01*
X83001D01*
X82001Y63999D01*
Y61999D01*
X83001Y61000D01*
X160501Y225003D02*
X166499D01*
Y229002D01*
X160501Y235000D02*
Y231001D01*
X166499D01*
Y235000D01*
X163500Y231001D02*
Y233001D01*
X160501Y236999D02*
X166499D01*
Y239998D01*
X165499Y240998D01*
X161501D01*
X160501Y239998D01*
Y236999D01*
X166499Y242997D02*
Y244997D01*
Y243997D01*
X160501D01*
X161501Y242997D01*
X130001Y90504D02*
X135999D01*
Y94502D01*
X130001Y100500D02*
Y96502D01*
X135999D01*
Y100500D01*
X133000Y96502D02*
Y98501D01*
X130001Y102500D02*
X135999D01*
Y105499D01*
X134999Y106498D01*
X131001D01*
X130001Y105499D01*
Y102500D01*
X135999Y112496D02*
Y108498D01*
X132000Y112496D01*
X131001D01*
X130001Y111497D01*
Y109497D01*
X131001Y108498D01*
X216504Y144999D02*
Y139001D01*
X220502D01*
X226500Y144999D02*
X222502D01*
Y139001D01*
X226500D01*
X222502Y142000D02*
X224501D01*
X228500Y144999D02*
Y139001D01*
X231499D01*
X232498Y140001D01*
Y143999D01*
X231499Y144999D01*
X228500D01*
X234498Y143999D02*
X235497Y144999D01*
X237497D01*
X238496Y143999D01*
Y143000D01*
X237497Y142000D01*
X236497D01*
X237497D01*
X238496Y141000D01*
Y140001D01*
X237497Y139001D01*
X235497D01*
X234498Y140001D01*
X233004Y65499D02*
Y59501D01*
X237002D01*
X243000Y65499D02*
X239002D01*
Y59501D01*
X243000D01*
X239002Y62500D02*
X241001D01*
X245000Y65499D02*
Y59501D01*
X247999D01*
X248998Y60501D01*
Y64499D01*
X247999Y65499D01*
X245000D01*
X253997Y59501D02*
Y65499D01*
X250998Y62500D01*
X254996D01*
X223501Y226004D02*
X229499D01*
Y230002D01*
X223501Y236000D02*
Y232002D01*
X229499D01*
Y236000D01*
X226500Y232002D02*
Y234001D01*
X223501Y238000D02*
X229499D01*
Y240999D01*
X228499Y241998D01*
X224501D01*
X223501Y240999D01*
Y238000D01*
Y247996D02*
Y243998D01*
X226500D01*
X225500Y245997D01*
Y246997D01*
X226500Y247996D01*
X228499D01*
X229499Y246997D01*
Y244997D01*
X228499Y243998D01*
X65499Y298500D02*
X61501D01*
X60501Y297500D01*
Y295501D01*
X61501Y294501D01*
X65499D01*
X66499Y295501D01*
Y297500D01*
X64500Y296501D02*
X66499Y298500D01*
Y297500D02*
X65499Y298500D01*
X66499Y300499D02*
Y302499D01*
Y301499D01*
X60501D01*
X61501Y300499D01*
X82499Y254500D02*
X78501D01*
X77501Y253501D01*
Y251501D01*
X78501Y250502D01*
X82499D01*
X83499Y251501D01*
Y253501D01*
X81500Y252501D02*
X83499Y254500D01*
Y253501D02*
X82499Y254500D01*
X83499Y260498D02*
Y256500D01*
X79500Y260498D01*
X78501D01*
X77501Y259499D01*
Y257499D01*
X78501Y256500D01*
X95999Y208001D02*
X90001D01*
Y211000D01*
X91001Y212000D01*
X93000D01*
X94000Y211000D01*
Y208001D01*
Y210001D02*
X95999Y212000D01*
Y213999D02*
Y215999D01*
Y214999D01*
X90001D01*
X91001Y213999D01*
X55002Y184501D02*
Y190499D01*
X58001D01*
X59000Y189499D01*
Y187500D01*
X58001Y186500D01*
X55002D01*
X57001D02*
X59000Y184501D01*
X64998D02*
X61000D01*
X64998Y188500D01*
Y189499D01*
X63999Y190499D01*
X61999D01*
X61000Y189499D01*
X83499Y176502D02*
X77501D01*
Y179501D01*
X78501Y180500D01*
X80500D01*
X81500Y179501D01*
Y176502D01*
Y178501D02*
X83499Y180500D01*
X78501Y182500D02*
X77501Y183499D01*
Y185499D01*
X78501Y186498D01*
X79500D01*
X80500Y185499D01*
Y184499D01*
Y185499D01*
X81500Y186498D01*
X82499D01*
X83499Y185499D01*
Y183499D01*
X82499Y182500D01*
X37999Y193502D02*
X32001D01*
Y196501D01*
X33001Y197500D01*
X35000D01*
X36000Y196501D01*
Y193502D01*
Y195501D02*
X37999Y197500D01*
Y202499D02*
X32001D01*
X35000Y199500D01*
Y203498D01*
X118502Y160001D02*
Y165999D01*
X121501D01*
X122500Y164999D01*
Y163000D01*
X121501Y162000D01*
X118502D01*
X120501D02*
X122500Y160001D01*
X128498Y165999D02*
X124500D01*
Y163000D01*
X126499Y164000D01*
X127499D01*
X128498Y163000D01*
Y161001D01*
X127499Y160001D01*
X125499D01*
X124500Y161001D01*
X165782Y209424D02*
X159784D01*
Y212423D01*
X160784Y213423D01*
X162783D01*
X163783Y212423D01*
Y209424D01*
Y211424D02*
X165782Y213423D01*
X159784Y219421D02*
X160784Y217422D01*
X162783Y215423D01*
X164783D01*
X165782Y216422D01*
Y218422D01*
X164783Y219421D01*
X163783D01*
X162783Y218422D01*
Y215423D01*
X76499Y112002D02*
X70501D01*
Y115001D01*
X71501Y116000D01*
X73500D01*
X74500Y115001D01*
Y112002D01*
Y114001D02*
X76499Y116000D01*
X70501Y118000D02*
Y121998D01*
X71501D01*
X75499Y118000D01*
X76499D01*
X84499Y112002D02*
X78501D01*
Y115001D01*
X79501Y116000D01*
X81500D01*
X82500Y115001D01*
Y112002D01*
Y114001D02*
X84499Y116000D01*
X79501Y118000D02*
X78501Y118999D01*
Y120999D01*
X79501Y121998D01*
X80500D01*
X81500Y120999D01*
X82500Y121998D01*
X83499D01*
X84499Y120999D01*
Y118999D01*
X83499Y118000D01*
X82500D01*
X81500Y118999D01*
X80500Y118000D01*
X79501D01*
X81500Y118999D02*
Y120999D01*
X93499Y112502D02*
X87501D01*
Y115501D01*
X88501Y116500D01*
X90500D01*
X91500Y115501D01*
Y112502D01*
Y114501D02*
X93499Y116500D01*
X92499Y118500D02*
X93499Y119499D01*
Y121499D01*
X92499Y122498D01*
X88501D01*
X87501Y121499D01*
Y119499D01*
X88501Y118500D01*
X89500D01*
X90500Y119499D01*
Y122498D01*
X102499Y112002D02*
X96501D01*
Y115001D01*
X97501Y116001D01*
X99500D01*
X100500Y115001D01*
Y112002D01*
Y114002D02*
X102499Y116001D01*
Y118000D02*
Y120000D01*
Y119000D01*
X96501D01*
X97501Y118000D01*
Y122999D02*
X96501Y123998D01*
Y125998D01*
X97501Y126998D01*
X101499D01*
X102499Y125998D01*
Y123998D01*
X101499Y122999D01*
X97501D01*
X259499Y159502D02*
X253501D01*
Y162501D01*
X254501Y163501D01*
X256500D01*
X257500Y162501D01*
Y159502D01*
Y161502D02*
X259499Y163501D01*
Y165500D02*
Y167500D01*
Y166500D01*
X253501D01*
X254501Y165500D01*
X259499Y174498D02*
Y170499D01*
X255500Y174498D01*
X254501D01*
X253501Y173498D01*
Y171499D01*
X254501Y170499D01*
X259715Y79463D02*
X253717D01*
Y82462D01*
X254716Y83462D01*
X256716D01*
X257715Y82462D01*
Y79463D01*
Y81463D02*
X259715Y83462D01*
Y85461D02*
Y87461D01*
Y86461D01*
X253717D01*
X254716Y85461D01*
Y90460D02*
X253717Y91460D01*
Y93459D01*
X254716Y94459D01*
X255716D01*
X256716Y93459D01*
Y92459D01*
Y93459D01*
X257715Y94459D01*
X258715D01*
X259715Y93459D01*
Y91460D01*
X258715Y90460D01*
X258999Y229502D02*
X253001D01*
Y232502D01*
X254001Y233501D01*
X256000D01*
X257000Y232502D01*
Y229502D01*
Y231502D02*
X258999Y233501D01*
Y235501D02*
Y237500D01*
Y236500D01*
X253001D01*
X254001Y235501D01*
X258999Y243498D02*
X253001D01*
X256000Y240499D01*
Y244498D01*
X208002Y279001D02*
Y284999D01*
X211001D01*
X212001Y283999D01*
Y282000D01*
X211001Y281000D01*
X208002D01*
X210002D02*
X212001Y279001D01*
X214001D02*
X216000D01*
X215000D01*
Y284999D01*
X214001Y283999D01*
X222998Y284999D02*
X218999D01*
Y282000D01*
X220998Y283000D01*
X221998D01*
X222998Y282000D01*
Y280001D01*
X221998Y279001D01*
X219999D01*
X218999Y280001D01*
X186502Y279001D02*
Y284999D01*
X189502D01*
X190501Y283999D01*
Y282000D01*
X189502Y281000D01*
X186502D01*
X188502D02*
X190501Y279001D01*
X192500D02*
X194500D01*
X193500D01*
Y284999D01*
X192500Y283999D01*
X201498Y284999D02*
X199498Y283999D01*
X197499Y282000D01*
Y280001D01*
X198499Y279001D01*
X200498D01*
X201498Y280001D01*
Y281000D01*
X200498Y282000D01*
X197499D01*
X166002Y279001D02*
Y284999D01*
X169001D01*
X170001Y283999D01*
Y282000D01*
X169001Y281000D01*
X166002D01*
X168002D02*
X170001Y279001D01*
X172001D02*
X174000D01*
X173000D01*
Y284999D01*
X172001Y283999D01*
X176999Y284999D02*
X180998D01*
Y283999D01*
X176999Y280001D01*
Y279001D01*
X145502D02*
Y284999D01*
X148502D01*
X149501Y283999D01*
Y282000D01*
X148502Y281000D01*
X145502D01*
X147502D02*
X149501Y279001D01*
X151500D02*
X153500D01*
X152500D01*
Y284999D01*
X151500Y283999D01*
X156499D02*
X157499Y284999D01*
X159498D01*
X160498Y283999D01*
Y283000D01*
X159498Y282000D01*
X160498Y281000D01*
Y280001D01*
X159498Y279001D01*
X157499D01*
X156499Y280001D01*
Y281000D01*
X157499Y282000D01*
X156499Y283000D01*
Y283999D01*
X157499Y282000D02*
X159498D01*
X250502Y279001D02*
Y284999D01*
X253502D01*
X254501Y283999D01*
Y282000D01*
X253502Y281000D01*
X250502D01*
X252502D02*
X254501Y279001D01*
X256501D02*
X258500D01*
X257500D01*
Y284999D01*
X256501Y283999D01*
X261499Y280001D02*
X262498Y279001D01*
X264498D01*
X265498Y280001D01*
Y283999D01*
X264498Y284999D01*
X262498D01*
X261499Y283999D01*
Y283000D01*
X262498Y282000D01*
X265498D01*
X271003Y279001D02*
Y284999D01*
X274002D01*
X275001Y283999D01*
Y282000D01*
X274002Y281000D01*
X271003D01*
X273002D02*
X275001Y279001D01*
X280999D02*
X277001D01*
X280999Y283000D01*
Y283999D01*
X280000Y284999D01*
X278000D01*
X277001Y283999D01*
X282999D02*
X283998Y284999D01*
X285998D01*
X286997Y283999D01*
Y280001D01*
X285998Y279001D01*
X283998D01*
X282999Y280001D01*
Y283999D01*
X229502Y279001D02*
Y284999D01*
X232501D01*
X233501Y283999D01*
Y282000D01*
X232501Y281000D01*
X229502D01*
X231502D02*
X233501Y279001D01*
X239499D02*
X235500D01*
X239499Y283000D01*
Y283999D01*
X238499Y284999D01*
X236500D01*
X235500Y283999D01*
X241498Y279001D02*
X243498D01*
X242498D01*
Y284999D01*
X241498Y283999D01*
X246003Y43001D02*
Y48999D01*
X249002D01*
X250001Y47999D01*
Y46000D01*
X249002Y45000D01*
X246003D01*
X248002D02*
X250001Y43001D01*
X255999D02*
X252001D01*
X255999Y47000D01*
Y47999D01*
X255000Y48999D01*
X253000D01*
X252001Y47999D01*
X261997Y43001D02*
X257999D01*
X261997Y47000D01*
Y47999D01*
X260998Y48999D01*
X258998D01*
X257999Y47999D01*
X342003Y42001D02*
Y47999D01*
X345002D01*
X346001Y46999D01*
Y45000D01*
X345002Y44000D01*
X342003D01*
X344002D02*
X346001Y42001D01*
X351999D02*
X348001D01*
X351999Y46000D01*
Y46999D01*
X351000Y47999D01*
X349000D01*
X348001Y46999D01*
X353999D02*
X354998Y47999D01*
X356998D01*
X357997Y46999D01*
Y46000D01*
X356998Y45000D01*
X355998D01*
X356998D01*
X357997Y44000D01*
Y43001D01*
X356998Y42001D01*
X354998D01*
X353999Y43001D01*
X389003Y42001D02*
Y47999D01*
X392002D01*
X393001Y46999D01*
Y45000D01*
X392002Y44000D01*
X389003D01*
X391002D02*
X393001Y42001D01*
X398999D02*
X395001D01*
X398999Y46000D01*
Y46999D01*
X398000Y47999D01*
X396000D01*
X395001Y46999D01*
X403998Y42001D02*
Y47999D01*
X400999Y45000D01*
X404997D01*
X294503Y42001D02*
Y47999D01*
X297502D01*
X298501Y46999D01*
Y45000D01*
X297502Y44000D01*
X294503D01*
X296502D02*
X298501Y42001D01*
X304499D02*
X300501D01*
X304499Y46000D01*
Y46999D01*
X303500Y47999D01*
X301500D01*
X300501Y46999D01*
X310497Y47999D02*
X306499D01*
Y45000D01*
X308498Y46000D01*
X309498D01*
X310497Y45000D01*
Y43001D01*
X309498Y42001D01*
X307498D01*
X306499Y43001D01*
X346699Y154001D02*
Y158999D01*
X345699Y159999D01*
X343700D01*
X342700Y158999D01*
Y154001D01*
X340701Y159999D02*
X338701D01*
X339701D01*
Y154001D01*
X340701Y155000D01*
X47501Y215502D02*
X52499D01*
X53499Y216501D01*
Y218501D01*
X52499Y219500D01*
X47501D01*
X53499Y225498D02*
Y221500D01*
X49500Y225498D01*
X48501D01*
X47501Y224499D01*
Y222499D01*
X48501Y221500D01*
X51001Y70502D02*
X55999D01*
X56999Y71501D01*
Y73501D01*
X55999Y74500D01*
X51001D01*
X52001Y76500D02*
X51001Y77499D01*
Y79499D01*
X52001Y80498D01*
X53000D01*
X54000Y79499D01*
Y78499D01*
Y79499D01*
X55000Y80498D01*
X55999D01*
X56999Y79499D01*
Y77499D01*
X55999Y76500D01*
X202001Y169002D02*
X206999D01*
X207999Y170001D01*
Y172001D01*
X206999Y173000D01*
X202001D01*
X207999Y177999D02*
X202001D01*
X205000Y175000D01*
Y178998D01*
X202001Y90002D02*
X206999D01*
X207999Y91001D01*
Y93001D01*
X206999Y94000D01*
X202001D01*
Y99998D02*
Y96000D01*
X205000D01*
X204000Y97999D01*
Y98999D01*
X205000Y99998D01*
X206999D01*
X207999Y98999D01*
Y96999D01*
X206999Y96000D01*
X159999Y99502D02*
X154001D01*
Y102501D01*
X155001Y103501D01*
X157000D01*
X158000Y102501D01*
Y99502D01*
Y101501D02*
X159999Y103501D01*
Y105500D02*
Y107500D01*
Y106500D01*
X154001D01*
X155001Y105500D01*
X159999Y110498D02*
Y112498D01*
Y111498D01*
X154001D01*
X155001Y110498D01*
D12*
X74459Y215500D02*
G03*
X76585Y213374I1953J-173D01*
G01*
X76349Y217390D02*
G03*
X74459Y215500I0J-1890D01*
G01*
X75578Y220462D02*
G03*
X75578Y220462I-1119J0D01*
G01*
X57058Y223177D02*
X76743D01*
X57058Y207823D02*
X76743D01*
X57058D02*
Y223177D01*
X76743Y217390D02*
Y223177D01*
X76349Y217390D02*
X76743D01*
Y207823D02*
Y212272D01*
Y213216D01*
X76585Y213374D02*
X76743Y213216D01*
D13*
X50103Y266830D02*
G03*
X50103Y266830I-591J0D01*
G01*
X75978Y272070D02*
G03*
X75978Y272070I-591J0D01*
G01*
X77491Y78800D02*
G03*
X77491Y78800I-591J0D01*
G01*
D14*
X71600Y171000D02*
G03*
X71596Y171170I2000J129D01*
G01*
X64700Y152300D02*
G03*
X64700Y152300I-2600J0D01*
G01*
X156700Y65800D02*
G03*
X156700Y65800I-2600J0D01*
G01*
X241900Y170600D02*
G03*
X241900Y170600I-2600J0D01*
G01*
X242201Y90700D02*
G03*
X242201Y90700I-2600J0D01*
G01*
X2411Y201098D02*
X28591D01*
X2411Y251098D02*
X28789D01*
X2411Y201099D02*
Y251099D01*
X28789Y201098D02*
Y251098D01*
X422700Y186100D02*
X432700D01*
X422700D02*
Y226100D01*
X432700Y186100D02*
Y226100D01*
X422700D02*
X432700D01*
X422779Y196021D02*
X432621D01*
X202734Y87015D02*
X206868D01*
Y76385D02*
Y87015D01*
X202734Y76385D02*
Y87015D01*
Y76385D02*
X206868D01*
X202533Y155985D02*
X206667D01*
X202533D02*
Y166615D01*
X206667Y155985D02*
Y166615D01*
X202533D02*
X206667D01*
X397779Y65921D02*
X407621D01*
X397700Y256000D02*
X407700D01*
X397700Y63500D02*
Y256000D01*
Y56000D02*
Y63500D01*
Y56000D02*
X407700D01*
Y256000D01*
X277779Y65921D02*
X287621D01*
X277700Y256000D02*
X287700D01*
X277700Y63500D02*
Y256000D01*
Y56000D02*
Y63500D01*
Y56000D02*
X287700D01*
Y256000D01*
X700Y95842D02*
X23935D01*
X27100D02*
X30315D01*
X22879Y98542D02*
X23935Y95842D01*
X27100D02*
X28155Y98542D01*
X22879D02*
X28155D01*
X23035Y137889D02*
X27800D01*
X23035D02*
X23835Y135842D01*
X27000D02*
X27800Y137889D01*
X27000Y135842D02*
X30315D01*
X174367Y15800D02*
X184367D01*
X174367D02*
Y45800D01*
X184367D01*
Y15800D02*
Y45800D01*
X174445Y25721D02*
X184288D01*
X132300Y15800D02*
X142300D01*
X132300D02*
Y45800D01*
X142300D01*
Y15800D02*
Y45800D01*
X132379Y25721D02*
X142221D01*
X153333Y15800D02*
X163333D01*
X153333D02*
Y45800D01*
X163333D01*
Y15800D02*
Y45800D01*
X153412Y25721D02*
X163254D01*
X195400Y15800D02*
X205400D01*
X195400D02*
Y45800D01*
X205400D01*
Y15800D02*
Y45800D01*
X195479Y25721D02*
X205321D01*
X423080Y156779D02*
X432922D01*
X423001Y126700D02*
X433001D01*
X423001D02*
Y166700D01*
X433001Y126700D02*
Y166700D01*
X423001D02*
X433001D01*
X422879Y268779D02*
X432721D01*
X422800Y238700D02*
X432800D01*
X422800D02*
Y278700D01*
X432800Y238700D02*
Y278700D01*
X422800D02*
X432800D01*
X378800Y284800D02*
Y294800D01*
X418800D01*
X378800Y284800D02*
X418800D01*
Y294800D01*
X388721Y284879D02*
Y294721D01*
X423079Y45921D02*
X432921D01*
X423000Y36000D02*
Y116000D01*
Y36000D02*
X433000D01*
Y116000D01*
X423000D02*
X433000D01*
X210229Y286600D02*
X220229D01*
X210229D02*
Y316600D01*
X220229D01*
Y286600D02*
Y316600D01*
X210308Y296521D02*
X220150D01*
X189186Y286600D02*
X199186D01*
X189186D02*
Y316600D01*
X199186D01*
Y286600D02*
Y316600D01*
X189265Y296521D02*
X199108D01*
X168143Y286600D02*
X178144D01*
X168143D02*
Y316600D01*
X178144D01*
Y286600D02*
Y316600D01*
X168222Y296521D02*
X178065D01*
X147101Y286600D02*
X157101D01*
X147101D02*
Y316600D01*
X157101D01*
Y286600D02*
Y316600D01*
X147180Y296521D02*
X157022D01*
X252314Y286600D02*
X262315D01*
X252314D02*
Y316600D01*
X262315D01*
Y286600D02*
Y316600D01*
X252393Y296521D02*
X262236D01*
X273357Y286600D02*
X283357D01*
X273357D02*
Y316600D01*
X283357D01*
Y286600D02*
Y316600D01*
X273436Y296521D02*
X283278D01*
X231272Y286600D02*
X241272D01*
X231272D02*
Y316600D01*
X241272D01*
Y286600D02*
Y316600D01*
X231351Y296521D02*
X241193D01*
X294400Y286600D02*
X304400D01*
X294400D02*
Y316600D01*
X304400D01*
Y286600D02*
Y316600D01*
X294479Y296521D02*
X304321D01*
X74643Y183807D02*
Y186555D01*
X42557Y183807D02*
X74643D01*
X42557D02*
Y186555D01*
X58550Y171250D02*
X60100Y172800D01*
X57000D02*
X58550Y171250D01*
X65647Y168500D02*
Y170500D01*
X50883D02*
X65647D01*
X50883Y168500D02*
Y170500D01*
X74643Y186555D02*
X76907D01*
Y168445D02*
Y186555D01*
X40293D02*
X42557D01*
X40293Y168445D02*
Y186555D01*
Y168445D02*
X76907D01*
X73561Y169134D02*
Y173071D01*
X27989Y144701D02*
Y194701D01*
X1611Y144701D02*
Y194701D01*
Y194701D02*
X27989D01*
X1611Y144701D02*
X27791D01*
D15*
X159980Y82530D02*
Y88330D01*
X153380Y82530D02*
X159980D01*
X153380D02*
Y88330D01*
Y97330D02*
X159880D01*
X153380Y91430D02*
Y97330D01*
X159980Y91530D02*
Y97330D01*
X398400Y40500D02*
X404200D01*
Y33900D02*
Y40500D01*
X398400Y33900D02*
X404200D01*
X389400D02*
Y40400D01*
Y33900D02*
X395300D01*
X389400Y40500D02*
X395200D01*
X351000D02*
X356800D01*
Y33900D02*
Y40500D01*
X351000Y33900D02*
X356800D01*
X342000D02*
Y40400D01*
Y33900D02*
X347900D01*
X342000Y40500D02*
X347800D01*
X303870D02*
X309670D01*
Y33900D02*
Y40500D01*
X303870Y33900D02*
X309670D01*
X294870D02*
Y40400D01*
Y33900D02*
X300770D01*
X294870Y40500D02*
X300670D01*
X255600D02*
X261400D01*
Y33900D02*
Y40500D01*
X255600Y33900D02*
X261400D01*
X246600D02*
Y40400D01*
Y33900D02*
X252500D01*
X246600Y40500D02*
X252400D01*
X245821Y88170D02*
Y93970D01*
X252421D01*
Y88170D02*
Y93970D01*
X245921Y79170D02*
X252421D01*
Y85070D01*
X245821Y79170D02*
Y84970D01*
X245101Y168300D02*
Y174100D01*
X251701D01*
Y168300D02*
Y174100D01*
X245201Y159300D02*
X251701D01*
Y165200D01*
X245101Y159300D02*
Y165100D01*
X250780Y229230D02*
Y235030D01*
X244180Y229230D02*
X250780D01*
X244180D02*
Y235030D01*
Y244030D02*
X250680D01*
X244180Y238130D02*
Y244030D01*
X250780Y238230D02*
Y244030D01*
X275200Y271200D02*
Y277000D01*
X281800D01*
Y271200D02*
Y277000D01*
X275300Y262200D02*
X281800D01*
Y268100D01*
X275200Y262200D02*
Y268000D01*
X254200Y271200D02*
Y277000D01*
X260800D01*
Y271200D02*
Y277000D01*
X254300Y262200D02*
X260800D01*
Y268100D01*
X254200Y262200D02*
Y268000D01*
X232992Y271642D02*
Y277442D01*
X239592D01*
Y271642D02*
Y277442D01*
X233092Y262642D02*
X239592D01*
Y268542D01*
X232992Y262642D02*
Y268442D01*
X212020Y271170D02*
Y276970D01*
X218620D01*
Y271170D02*
Y276970D01*
X212120Y262170D02*
X218620D01*
Y268070D01*
X212020Y262170D02*
Y267970D01*
X190720Y270970D02*
Y276770D01*
X197320D01*
Y270970D02*
Y276770D01*
X190820Y261970D02*
X197320D01*
Y267870D01*
X190720Y261970D02*
Y267770D01*
X169486Y271170D02*
Y276970D01*
X176086D01*
Y271170D02*
Y276970D01*
X169587Y262170D02*
X176086D01*
Y268070D01*
X169486Y262170D02*
Y267970D01*
X149120Y271170D02*
Y276970D01*
X155720D01*
Y271170D02*
Y276970D01*
X149220Y262170D02*
X155720D01*
Y268070D01*
X149120Y262170D02*
Y267970D01*
X156980Y208430D02*
Y214230D01*
X150380Y208430D02*
X156980D01*
X150380D02*
Y214230D01*
Y223230D02*
X156880D01*
X150380Y217330D02*
Y223230D01*
X156980Y217430D02*
Y223230D01*
X71280Y94730D02*
Y100530D01*
X64680Y94730D02*
X71280D01*
X64680D02*
Y100530D01*
Y109530D02*
X71180D01*
X64680Y103630D02*
Y109530D01*
X71280Y103730D02*
Y109530D01*
X82180Y94630D02*
Y100430D01*
X75580Y94630D02*
X82180D01*
X75580D02*
Y100430D01*
Y109430D02*
X82080D01*
X75580Y103530D02*
Y109430D01*
X82180Y103630D02*
Y109430D01*
X90680Y94630D02*
Y100430D01*
X84080Y94630D02*
X90680D01*
X84080D02*
Y100430D01*
Y109430D02*
X90580D01*
X84080Y103530D02*
Y109430D01*
X90680Y103630D02*
Y109430D01*
X93000Y103700D02*
Y109500D01*
X99600D01*
Y103700D02*
Y109500D01*
X93100Y94700D02*
X99600D01*
Y100600D01*
X93000Y94700D02*
Y100500D01*
X51463Y190963D02*
X57263D01*
X51463D02*
Y197563D01*
X57263D01*
X66263Y191063D02*
Y197563D01*
X60363D02*
X66263D01*
X60463Y190963D02*
X66263D01*
X46480Y191030D02*
Y196830D01*
X39880Y191030D02*
X46480D01*
X39880D02*
Y196830D01*
Y205830D02*
X46380D01*
X39880Y199930D02*
Y205830D01*
X46480Y200030D02*
Y205830D01*
X81520Y212870D02*
Y218670D01*
X88120D01*
Y212870D02*
Y218670D01*
X81620Y203870D02*
X88120D01*
Y209770D01*
X81520Y203870D02*
Y209670D01*
D16*
X411800Y262300D02*
X416500D01*
X411800D02*
Y268300D01*
X416500Y262300D02*
X418200D01*
Y268400D01*
X411800Y270900D02*
Y277000D01*
X413500D01*
X418200Y271000D02*
Y277000D01*
X413500D02*
X418200D01*
X412800Y149800D02*
X417500D01*
X412800D02*
Y155800D01*
X417500Y149800D02*
X419200D01*
Y155900D01*
X412800Y158400D02*
Y164500D01*
X414500D01*
X419200Y158500D02*
Y164500D01*
X414500D02*
X419200D01*
X413810Y49870D02*
X418510D01*
Y43870D02*
Y49870D01*
X412110D02*
X413810D01*
X412110Y43770D02*
Y49870D01*
X418510Y35170D02*
Y41270D01*
X416810Y35170D02*
X418510D01*
X412110D02*
Y41170D01*
Y35170D02*
X416810D01*
X369730Y35496D02*
Y40196D01*
X375730D01*
X369730Y33796D02*
Y35496D01*
Y33796D02*
X375830D01*
X378330Y40196D02*
X384430D01*
Y38496D02*
Y40196D01*
X378430Y33796D02*
X384430D01*
Y38496D01*
X322830Y35496D02*
Y40196D01*
X328830D01*
X322830Y33796D02*
Y35496D01*
Y33796D02*
X328930D01*
X331430Y40196D02*
X337530D01*
Y38496D02*
Y40196D01*
X331530Y33796D02*
X337530D01*
Y38496D01*
X275430Y35496D02*
Y40196D01*
X281430D01*
X275430Y33796D02*
Y35496D01*
Y33796D02*
X281530D01*
X284030Y40196D02*
X290130D01*
Y38496D02*
Y40196D01*
X284130Y33796D02*
X290130D01*
Y38496D01*
X227200Y35496D02*
Y40196D01*
X233200D01*
X227200Y33796D02*
Y35496D01*
Y33796D02*
X233300D01*
X235800Y40196D02*
X241900D01*
Y38496D02*
Y40196D01*
X235900Y33796D02*
X241900D01*
Y38496D01*
X226591Y74730D02*
X231291D01*
X226591D02*
Y80730D01*
X231291Y74730D02*
X232991D01*
Y80830D01*
X226591Y83330D02*
Y89430D01*
X228291D01*
X232991Y83430D02*
Y89430D01*
X228291D02*
X232991D01*
X216101Y74500D02*
X220801D01*
X216101D02*
Y80500D01*
X220801Y74500D02*
X222501D01*
Y80600D01*
X216101Y83100D02*
Y89200D01*
X217801D01*
X222501Y83200D02*
Y89200D01*
X217801D02*
X222501D01*
X186590Y75130D02*
X191290D01*
X186590D02*
Y81130D01*
X191290Y75130D02*
X192990D01*
Y81230D01*
X186590Y83730D02*
Y89830D01*
X188290D01*
X192990Y83830D02*
Y89830D01*
X188290D02*
X192990D01*
X225900Y153400D02*
X230600D01*
X225900D02*
Y159400D01*
X230600Y153400D02*
X232300D01*
Y159500D01*
X225900Y162000D02*
Y168100D01*
X227600D01*
X232300Y162100D02*
Y168100D01*
X227600D02*
X232300D01*
X215900Y153200D02*
X220600D01*
X215900D02*
Y159200D01*
X220600Y153200D02*
X222300D01*
Y159300D01*
X215900Y161800D02*
Y167900D01*
X217600D01*
X222300Y161900D02*
Y167900D01*
X217600D02*
X222300D01*
X186100Y154400D02*
X190800D01*
X186100D02*
Y160400D01*
X190800Y154400D02*
X192500D01*
Y160500D01*
X186100Y163000D02*
Y169100D01*
X187800D01*
X192500Y163100D02*
Y169100D01*
X187800D02*
X192500D01*
X46530Y96410D02*
Y101110D01*
X52530D01*
X46530Y94710D02*
Y96410D01*
Y94710D02*
X52630D01*
X55130Y101110D02*
X61230D01*
Y99410D02*
Y101110D01*
X55230Y94710D02*
X61230D01*
Y99410D01*
X67790Y151830D02*
X72490D01*
X67790D02*
Y157830D01*
X72490Y151830D02*
X74190D01*
Y157930D01*
X67790Y160430D02*
Y166530D01*
X69490D01*
X74190Y160530D02*
Y166530D01*
X69490D02*
X74190D01*
X70270Y234990D02*
Y239690D01*
X64270Y234990D02*
X70270D01*
Y239690D02*
Y241390D01*
X64170D02*
X70270D01*
X55570Y234990D02*
X61670D01*
X55570D02*
Y236690D01*
Y241390D02*
X61570D01*
X55570Y236690D02*
Y241390D01*
X46210Y314270D02*
X50910D01*
Y308270D02*
Y314270D01*
X44510D02*
X46210D01*
X44510Y308170D02*
Y314270D01*
X50910Y299570D02*
Y305670D01*
X49210Y299570D02*
X50910D01*
X44510D02*
Y305570D01*
Y299570D02*
X49210D01*
X141000Y78300D02*
X145700D01*
Y72300D02*
Y78300D01*
X139300D02*
X141000D01*
X139300Y72200D02*
Y78300D01*
X145700Y63600D02*
Y69700D01*
X144000Y63600D02*
X145700D01*
X139300D02*
Y69600D01*
Y63600D02*
X144000D01*
X394970Y273290D02*
Y277990D01*
X388970Y273290D02*
X394970D01*
Y277990D02*
Y279690D01*
X388870D02*
X394970D01*
X380270Y273290D02*
X386370D01*
X380270D02*
Y274990D01*
Y279690D02*
X386270D01*
X380270Y274990D02*
Y279690D01*
X414000Y204700D02*
X418700D01*
Y198700D02*
Y204700D01*
X412300D02*
X414000D01*
X412300Y198600D02*
Y204700D01*
X418700Y190000D02*
Y196100D01*
X417000Y190000D02*
X418700D01*
X412300D02*
Y196000D01*
Y190000D02*
X417000D01*
D17*
X51087Y245964D02*
Y246810D01*
Y245964D02*
X74316D01*
X51087Y250590D02*
Y251810D01*
Y255590D02*
Y256810D01*
Y260590D02*
Y261810D01*
X74316Y265590D02*
Y266436D01*
X51087D02*
X74316D01*
X51087Y265590D02*
Y266436D01*
X74316Y260590D02*
Y261810D01*
Y255590D02*
Y256810D01*
Y250590D02*
Y251810D01*
Y245964D02*
Y246810D01*
X73813Y292090D02*
Y292936D01*
X50584D02*
X73813D01*
Y287090D02*
Y288310D01*
Y282090D02*
Y283310D01*
Y277090D02*
Y278310D01*
X50584Y272464D02*
Y273310D01*
Y272464D02*
X73813D01*
Y273310D01*
X50584Y277090D02*
Y278310D01*
Y282090D02*
Y283310D01*
Y287090D02*
Y288310D01*
Y292090D02*
Y292936D01*
D18*
X27500Y98657D02*
Y135842D01*
X30315Y95842D02*
Y135842D01*
X700D02*
X23835D01*
X27500Y115842D02*
X30000D01*
X700Y95842D02*
Y135842D01*
M02*
