G04*
G04 #@! TF.GenerationSoftware,Altium Limited,Altium Designer,20.0.13 (296)*
G04*
G04 Layer_Color=8421504*
%FSLAX25Y25*%
%MOIN*%
G70*
G01*
G75*
%ADD19R,0.05510X0.03937*%
%ADD20R,0.05000X0.05000*%
%ADD21R,0.05000X0.05000*%
%ADD22R,0.04331X0.02362*%
%ADD23R,0.07874X0.12992*%
%ADD24R,0.16142X0.16142*%
%ADD25R,0.02362X0.05906*%
%ADD26R,0.03937X0.05510*%
%ADD27R,0.07874X0.05906*%
%ADD28C,0.03937*%
%ADD29O,0.02480X0.07343*%
G36*
X37402Y316799D02*
Y311740D01*
X37008Y311347D01*
X35550D01*
X35157Y311740D01*
Y312941D01*
X34763Y313334D01*
X33237D01*
X32844Y312941D01*
Y311740D01*
X32450Y311347D01*
X30992D01*
X30598Y311740D01*
Y316799D01*
X30992Y317193D01*
X37008D01*
X37402Y316799D01*
D02*
G37*
G36*
Y304260D02*
Y299201D01*
X37008Y298807D01*
X30992D01*
X30598Y299201D01*
Y304260D01*
X30992Y304654D01*
X32450D01*
X32844Y304260D01*
Y303059D01*
X33237Y302666D01*
X34763D01*
X35157Y303059D01*
Y304260D01*
X35550Y304654D01*
X37008D01*
X37402Y304260D01*
D02*
G37*
G36*
X75584Y289019D02*
X71647D01*
Y291381D01*
X75584D01*
Y289019D01*
D02*
G37*
G36*
Y284019D02*
X71647D01*
Y286381D01*
X75584D01*
Y284019D01*
D02*
G37*
G36*
Y279019D02*
X71647D01*
Y281381D01*
X75584D01*
Y279019D01*
D02*
G37*
G36*
X75584Y274019D02*
X71647D01*
Y276381D01*
X75584D01*
Y274019D01*
D02*
G37*
G36*
X67572D02*
X48616D01*
Y276381D01*
X51824D01*
Y279019D01*
X48616D01*
Y281381D01*
X51824D01*
Y284019D01*
X48616D01*
Y286381D01*
X51824D01*
Y289019D01*
X48616D01*
Y291381D01*
X67572D01*
Y274019D01*
D02*
G37*
G36*
X53253Y262519D02*
X49316D01*
Y264881D01*
X53253D01*
Y262519D01*
D02*
G37*
G36*
Y257519D02*
X49316D01*
Y259881D01*
X53253D01*
Y257519D01*
D02*
G37*
G36*
Y252519D02*
X49316D01*
Y254881D01*
X53253D01*
Y252519D01*
D02*
G37*
G36*
X76284Y262519D02*
X73075D01*
Y259881D01*
X76284D01*
Y257519D01*
X73075D01*
Y254881D01*
X76284D01*
Y252519D01*
X73075D01*
Y249881D01*
X76284D01*
Y247519D01*
X57328D01*
Y264881D01*
X76284D01*
Y262519D01*
D02*
G37*
G36*
X53253Y247519D02*
X49316D01*
Y249881D01*
X53253D01*
Y247519D01*
D02*
G37*
G36*
X129893Y177808D02*
Y171792D01*
X129499Y171398D01*
X124440D01*
X124047Y171792D01*
Y173250D01*
X124440Y173644D01*
X125641D01*
X126034Y174037D01*
Y175563D01*
X125641Y175956D01*
X124440D01*
X124047Y176350D01*
Y177808D01*
X124440Y178202D01*
X129499D01*
X129893Y177808D01*
D02*
G37*
G36*
X117353D02*
Y176350D01*
X116960Y175956D01*
X115759D01*
X115366Y175563D01*
Y174037D01*
X115759Y173644D01*
X116960D01*
X117353Y173250D01*
Y171792D01*
X116960Y171398D01*
X111901D01*
X111507Y171792D01*
Y177808D01*
X111901Y178202D01*
X116960D01*
X117353Y177808D01*
D02*
G37*
G36*
X88002Y169029D02*
Y163970D01*
X87608Y163576D01*
X86150D01*
X85756Y163970D01*
Y165171D01*
X85363Y165564D01*
X83837D01*
X83443Y165171D01*
Y163970D01*
X83050Y163576D01*
X81592D01*
X81198Y163970D01*
Y169029D01*
X81592Y169423D01*
X87608D01*
X88002Y169029D01*
D02*
G37*
G36*
X102302Y168829D02*
Y163770D01*
X101908Y163376D01*
X100450D01*
X100057Y163770D01*
Y164971D01*
X99663Y165364D01*
X98137D01*
X97743Y164971D01*
Y163770D01*
X97350Y163376D01*
X95892D01*
X95498Y163770D01*
Y168829D01*
X95892Y169223D01*
X101908D01*
X102302Y168829D01*
D02*
G37*
G36*
X88002Y156490D02*
Y151431D01*
X87608Y151037D01*
X81592D01*
X81198Y151431D01*
Y156490D01*
X81592Y156884D01*
X83050D01*
X83443Y156490D01*
Y155289D01*
X83837Y154896D01*
X85363D01*
X85756Y155289D01*
Y156490D01*
X86150Y156884D01*
X87608D01*
X88002Y156490D01*
D02*
G37*
G36*
X102302Y156290D02*
Y151231D01*
X101908Y150837D01*
X95892D01*
X95498Y151231D01*
Y156290D01*
X95892Y156684D01*
X97350D01*
X97743Y156290D01*
Y155089D01*
X98137Y154696D01*
X99663D01*
X100057Y155089D01*
Y156290D01*
X100450Y156684D01*
X101908D01*
X102302Y156290D01*
D02*
G37*
D19*
X142500Y94470D02*
D03*
Y86200D02*
D03*
X235500Y240770D02*
D03*
Y232500D02*
D03*
X153800Y229065D02*
D03*
Y237335D02*
D03*
D20*
X156680Y94030D02*
D03*
X156700Y85800D02*
D03*
X415010Y273770D02*
D03*
X415000Y265500D02*
D03*
X416010Y161270D02*
D03*
X416000Y153000D02*
D03*
X415300Y38400D02*
D03*
X415310Y46670D02*
D03*
X249121Y82470D02*
D03*
X249101Y90700D02*
D03*
X229801Y86200D02*
D03*
X229791Y77930D02*
D03*
X219311Y85970D02*
D03*
X219301Y77700D02*
D03*
X189800Y86600D02*
D03*
X189790Y78330D02*
D03*
X248401Y162600D02*
D03*
X248381Y170830D02*
D03*
X229110Y164870D02*
D03*
X229100Y156600D02*
D03*
X219110Y164670D02*
D03*
X219100Y156400D02*
D03*
X189310Y165870D02*
D03*
X189300Y157600D02*
D03*
X247480Y240730D02*
D03*
X247500Y232500D02*
D03*
X278500Y265500D02*
D03*
X278480Y273730D02*
D03*
X257500Y265500D02*
D03*
X257480Y273730D02*
D03*
X236292Y265942D02*
D03*
X236272Y274172D02*
D03*
X215320Y265470D02*
D03*
X215300Y273700D02*
D03*
X194020Y265270D02*
D03*
X194000Y273500D02*
D03*
X172786Y265470D02*
D03*
X172766Y273700D02*
D03*
X152420Y265470D02*
D03*
X152400Y273700D02*
D03*
X153680Y219930D02*
D03*
X153700Y211700D02*
D03*
X67980Y106230D02*
D03*
X68000Y98000D02*
D03*
X78880Y106130D02*
D03*
X78900Y97900D02*
D03*
X87380Y106130D02*
D03*
X87400Y97900D02*
D03*
X96300Y98000D02*
D03*
X96280Y106230D02*
D03*
X71000Y163300D02*
D03*
X70990Y155030D02*
D03*
X43180Y202530D02*
D03*
X43200Y194300D02*
D03*
X84820Y207170D02*
D03*
X84800Y215400D02*
D03*
X47700Y302800D02*
D03*
X47710Y311070D02*
D03*
X142490Y66830D02*
D03*
X142500Y75100D02*
D03*
X415490Y193230D02*
D03*
X415500Y201500D02*
D03*
D21*
X392700Y37200D02*
D03*
X400930Y37220D02*
D03*
X381200Y36986D02*
D03*
X372930Y36996D02*
D03*
X345300Y37200D02*
D03*
X353530Y37220D02*
D03*
X334300Y36986D02*
D03*
X326030Y36996D02*
D03*
X298170Y37200D02*
D03*
X306400Y37220D02*
D03*
X286900Y36986D02*
D03*
X278630Y36996D02*
D03*
X249900Y37200D02*
D03*
X258130Y37220D02*
D03*
X238670Y36986D02*
D03*
X230400Y36996D02*
D03*
X58000Y97900D02*
D03*
X49730Y97910D02*
D03*
X58800Y238200D02*
D03*
X67070Y238190D02*
D03*
X62963Y194263D02*
D03*
X54733Y194243D02*
D03*
X383500Y276500D02*
D03*
X391770Y276490D02*
D03*
D22*
X209919Y77960D02*
D03*
X199683D02*
D03*
Y81700D02*
D03*
Y85440D02*
D03*
X209919D02*
D03*
X209718Y165040D02*
D03*
X199482D02*
D03*
Y161300D02*
D03*
Y157560D02*
D03*
X209718D02*
D03*
D23*
X135372Y150700D02*
D03*
X111228D02*
D03*
D24*
X129901Y285900D02*
D03*
X92499D02*
D03*
X101201Y34200D02*
D03*
X63799D02*
D03*
D25*
X74774Y203689D02*
D03*
X70837D02*
D03*
X66900D02*
D03*
X62963D02*
D03*
X59026D02*
D03*
Y227311D02*
D03*
X62963D02*
D03*
X66900D02*
D03*
X70837D02*
D03*
X74774D02*
D03*
D26*
X240266Y151100D02*
D03*
X248536D02*
D03*
X240831Y71200D02*
D03*
X249101D02*
D03*
D27*
X259531Y23479D02*
D03*
X228300Y23400D02*
D03*
X355487Y23479D02*
D03*
X324255Y23400D02*
D03*
X403465Y23479D02*
D03*
X372233Y23400D02*
D03*
X307509Y23479D02*
D03*
X276278Y23400D02*
D03*
D28*
X62100Y152300D02*
D03*
X154100Y65800D02*
D03*
X239300Y170600D02*
D03*
X239601Y90700D02*
D03*
D29*
X76900Y85361D02*
D03*
X71900D02*
D03*
X66900D02*
D03*
X61900D02*
D03*
X76900Y64239D02*
D03*
X71900D02*
D03*
X66900D02*
D03*
X61900D02*
D03*
M02*
