G04*
G04 #@! TF.GenerationSoftware,Altium Limited,Altium Designer,20.0.13 (296)*
G04*
G04 Layer_Color=16711935*
%FSLAX25Y25*%
%MOIN*%
G70*
G01*
G75*
%ADD45R,0.14331X0.09213*%
%ADD46C,0.06706*%
%ADD47C,0.06693*%
%ADD48C,0.07099*%
%ADD49O,0.08674X0.18517*%
%ADD50O,0.18517X0.08674*%
%ADD51R,0.00800X0.00800*%
%ADD52R,0.00800X0.00800*%
%ADD53C,0.07493*%
%ADD54R,0.07493X0.07493*%
%ADD55O,0.12611X0.08674*%
%ADD56C,0.03200*%
D45*
X15600Y207200D02*
D03*
Y226098D02*
D03*
Y244995D02*
D03*
X14800Y188598D02*
D03*
Y169700D02*
D03*
Y150802D02*
D03*
D46*
X427700Y221100D02*
D03*
Y211100D02*
D03*
Y201100D02*
D03*
Y191100D02*
D03*
X179367Y40800D02*
D03*
Y30800D02*
D03*
Y20800D02*
D03*
X137300Y40800D02*
D03*
Y30800D02*
D03*
Y20800D02*
D03*
X158333Y40800D02*
D03*
Y30800D02*
D03*
Y20800D02*
D03*
X200400Y40800D02*
D03*
Y30800D02*
D03*
Y20800D02*
D03*
X428001Y161700D02*
D03*
Y151700D02*
D03*
Y141700D02*
D03*
Y131700D02*
D03*
X427800Y273700D02*
D03*
Y263700D02*
D03*
Y253700D02*
D03*
Y243700D02*
D03*
X413800Y289800D02*
D03*
X403800D02*
D03*
X393800D02*
D03*
X383800D02*
D03*
X428000Y111000D02*
D03*
Y101000D02*
D03*
Y91000D02*
D03*
Y81000D02*
D03*
Y71000D02*
D03*
Y61000D02*
D03*
Y51000D02*
D03*
Y41000D02*
D03*
X215229Y311600D02*
D03*
Y301600D02*
D03*
Y291600D02*
D03*
X194186Y311600D02*
D03*
Y301600D02*
D03*
Y291600D02*
D03*
X173143Y311600D02*
D03*
Y301600D02*
D03*
Y291600D02*
D03*
X152101Y311600D02*
D03*
Y301600D02*
D03*
Y291600D02*
D03*
X257314Y311600D02*
D03*
Y301600D02*
D03*
Y291600D02*
D03*
X278357Y311600D02*
D03*
Y301600D02*
D03*
Y291600D02*
D03*
X236272Y311600D02*
D03*
Y301600D02*
D03*
Y291600D02*
D03*
X299400Y311600D02*
D03*
Y301600D02*
D03*
Y291600D02*
D03*
X58600Y177500D02*
D03*
X48600D02*
D03*
X68600D02*
D03*
D47*
X126684Y201500D02*
D03*
X106999D02*
D03*
X125284Y243200D02*
D03*
X105599D02*
D03*
X30443Y275000D02*
D03*
X10757D02*
D03*
X113900Y66558D02*
D03*
Y86243D02*
D03*
D48*
X59980Y125600D02*
D03*
X46200D02*
D03*
X372700Y61000D02*
D03*
Y71000D02*
D03*
Y81000D02*
D03*
Y91000D02*
D03*
Y101000D02*
D03*
Y111000D02*
D03*
Y121000D02*
D03*
Y131000D02*
D03*
Y141000D02*
D03*
Y151000D02*
D03*
Y161000D02*
D03*
Y171000D02*
D03*
Y181000D02*
D03*
Y191000D02*
D03*
Y201000D02*
D03*
Y211000D02*
D03*
Y221000D02*
D03*
Y231000D02*
D03*
Y241000D02*
D03*
Y251000D02*
D03*
X312700D02*
D03*
Y241000D02*
D03*
Y231000D02*
D03*
Y221000D02*
D03*
Y211000D02*
D03*
Y201000D02*
D03*
Y191000D02*
D03*
Y181000D02*
D03*
Y171000D02*
D03*
Y161000D02*
D03*
Y151000D02*
D03*
Y141000D02*
D03*
Y131000D02*
D03*
Y121000D02*
D03*
Y111000D02*
D03*
Y101000D02*
D03*
Y91000D02*
D03*
Y81000D02*
D03*
Y71000D02*
D03*
Y61000D02*
D03*
D49*
X15701Y65500D02*
D03*
X40109Y65500D02*
D03*
D50*
X28300Y46995D02*
D03*
D51*
X430280Y312847D02*
D03*
X10647D02*
D03*
X191227Y191241D02*
D03*
X249692Y191241D02*
D03*
X191227Y132776D02*
D03*
X249692Y132776D02*
D03*
D52*
X10750Y11250D02*
D03*
X430280Y11165D02*
D03*
D53*
X402700Y211000D02*
D03*
Y201000D02*
D03*
Y191000D02*
D03*
Y181000D02*
D03*
Y171000D02*
D03*
Y161000D02*
D03*
Y151000D02*
D03*
Y141000D02*
D03*
Y131000D02*
D03*
Y121000D02*
D03*
Y111000D02*
D03*
Y101000D02*
D03*
Y91000D02*
D03*
Y81000D02*
D03*
Y71000D02*
D03*
Y221000D02*
D03*
Y231000D02*
D03*
Y241000D02*
D03*
Y251000D02*
D03*
X282700Y211000D02*
D03*
Y201000D02*
D03*
Y191000D02*
D03*
Y181000D02*
D03*
Y171000D02*
D03*
Y161000D02*
D03*
Y151000D02*
D03*
Y141000D02*
D03*
Y131000D02*
D03*
Y121000D02*
D03*
Y111000D02*
D03*
Y101000D02*
D03*
Y91000D02*
D03*
Y81000D02*
D03*
Y71000D02*
D03*
Y221000D02*
D03*
Y231000D02*
D03*
Y241000D02*
D03*
Y251000D02*
D03*
D54*
X402700Y61000D02*
D03*
X282700D02*
D03*
D55*
X12500Y106000D02*
D03*
Y125685D02*
D03*
D56*
X416000Y169500D02*
D03*
X307000Y44000D02*
D03*
X354000D02*
D03*
X383500Y270500D02*
D03*
X43000Y208500D02*
D03*
M02*
