G04*
G04 #@! TF.GenerationSoftware,Altium Limited,Altium Designer,20.0.13 (296)*
G04*
G04 Layer_Color=16711935*
%FSLAX25Y25*%
%MOIN*%
G70*
G01*
G75*
%ADD83C,0.07099*%
%ADD84C,0.07493*%
%ADD85R,0.07493X0.07493*%
%ADD86C,0.06706*%
%ADD87O,0.08674X0.12611*%
G04:AMPARAMS|DCode=88|XSize=244.22mil|YSize=165.48mil|CornerRadius=43.37mil|HoleSize=0mil|Usage=FLASHONLY|Rotation=90.000|XOffset=0mil|YOffset=0mil|HoleType=Round|Shape=RoundedRectangle|*
%AMROUNDEDRECTD88*
21,1,0.24422,0.07874,0,0,90.0*
21,1,0.15748,0.16548,0,0,90.0*
1,1,0.08674,0.03937,0.07874*
1,1,0.08674,0.03937,-0.07874*
1,1,0.08674,-0.03937,-0.07874*
1,1,0.08674,-0.03937,0.07874*
%
%ADD88ROUNDEDRECTD88*%
%ADD89C,0.07487*%
%ADD90R,0.07487X0.07487*%
%ADD91R,0.07000X0.07887*%
%ADD92C,0.07887*%
%ADD93R,0.07099X0.07099*%
%ADD94C,0.07099*%
%ADD95O,0.12611X0.08674*%
%ADD96R,0.07099X0.07099*%
%ADD97R,0.07099X0.07099*%
%ADD98O,0.08674X0.18517*%
%ADD99O,0.18517X0.08674*%
%ADD100R,0.00800X0.00800*%
%ADD101R,0.14331X0.09213*%
%ADD102C,0.03200*%
D83*
X254090Y60000D02*
D03*
X240310D02*
D03*
X342620Y77200D02*
D03*
X356400D02*
D03*
X466000Y348000D02*
D03*
X452220D02*
D03*
X488890Y187000D02*
D03*
X475110D02*
D03*
X257000Y131000D02*
D03*
Y121000D02*
D03*
X247000Y131000D02*
D03*
Y121000D02*
D03*
X237000Y131000D02*
D03*
Y121000D02*
D03*
X227000Y131000D02*
D03*
Y121000D02*
D03*
X217000Y131000D02*
D03*
Y121000D02*
D03*
X207000Y131000D02*
D03*
Y121000D02*
D03*
X197000Y131000D02*
D03*
Y121000D02*
D03*
X187000Y131000D02*
D03*
Y121000D02*
D03*
X177000Y131000D02*
D03*
Y121000D02*
D03*
X167000Y131000D02*
D03*
Y121000D02*
D03*
X157000Y131000D02*
D03*
Y121000D02*
D03*
X147000Y131000D02*
D03*
Y121000D02*
D03*
X137000Y131000D02*
D03*
Y121000D02*
D03*
X127000Y131000D02*
D03*
Y121000D02*
D03*
X117000Y131000D02*
D03*
X107000Y121000D02*
D03*
X97000D02*
D03*
X107000Y131000D02*
D03*
X97000D02*
D03*
X107000Y141000D02*
D03*
X97000D02*
D03*
X107000Y151000D02*
D03*
X97000D02*
D03*
X107000Y161000D02*
D03*
X97000D02*
D03*
X107000Y171000D02*
D03*
X97000D02*
D03*
X107000Y181000D02*
D03*
X97000D02*
D03*
X107000Y191000D02*
D03*
X97000D02*
D03*
X107000Y201000D02*
D03*
X97000D02*
D03*
X107000Y211000D02*
D03*
X97000D02*
D03*
X107000Y221000D02*
D03*
X97000D02*
D03*
X107000Y231000D02*
D03*
X97000D02*
D03*
X107000Y241000D02*
D03*
X97000D02*
D03*
X107000Y251000D02*
D03*
X97000D02*
D03*
X107000Y261000D02*
D03*
X97000D02*
D03*
X107000Y271000D02*
D03*
X117000Y261000D02*
D03*
Y271000D02*
D03*
X127000Y261000D02*
D03*
Y271000D02*
D03*
X137000Y261000D02*
D03*
Y271000D02*
D03*
X147000Y261000D02*
D03*
Y271000D02*
D03*
X157000Y261000D02*
D03*
Y271000D02*
D03*
X167000Y261000D02*
D03*
Y271000D02*
D03*
X177000Y261000D02*
D03*
Y271000D02*
D03*
X187000Y261000D02*
D03*
Y271000D02*
D03*
X197000Y261000D02*
D03*
Y271000D02*
D03*
X207000Y261000D02*
D03*
Y271000D02*
D03*
X217000Y261000D02*
D03*
Y271000D02*
D03*
X227000Y261000D02*
D03*
Y271000D02*
D03*
X237000Y261000D02*
D03*
Y271000D02*
D03*
X247000Y261000D02*
D03*
Y271000D02*
D03*
X257000Y261000D02*
D03*
X267000Y271000D02*
D03*
X277000D02*
D03*
X267000Y261000D02*
D03*
X277000D02*
D03*
X267000Y251000D02*
D03*
X277000D02*
D03*
X267000Y241000D02*
D03*
X277000D02*
D03*
X267000Y231000D02*
D03*
X277000D02*
D03*
X267000Y221000D02*
D03*
X277000D02*
D03*
X267000Y211000D02*
D03*
X277000D02*
D03*
X267000Y201000D02*
D03*
X277000D02*
D03*
X267000Y191000D02*
D03*
X277000D02*
D03*
X267000Y181000D02*
D03*
X277000D02*
D03*
X267000Y171000D02*
D03*
X277000D02*
D03*
X267000Y161000D02*
D03*
X277000D02*
D03*
X267000Y151000D02*
D03*
X277000D02*
D03*
X267000Y141000D02*
D03*
X277000D02*
D03*
X267000Y131000D02*
D03*
X277000D02*
D03*
X267000Y121000D02*
D03*
D84*
X203000Y94000D02*
D03*
X165500D02*
D03*
X126000Y373000D02*
D03*
X46000Y383500D02*
D03*
D85*
X193000Y94000D02*
D03*
X155500D02*
D03*
X116000Y373000D02*
D03*
X36000Y383500D02*
D03*
D86*
X50000Y70000D02*
D03*
X60000D02*
D03*
X70000D02*
D03*
X80000D02*
D03*
X90000D02*
D03*
X100000D02*
D03*
X110000D02*
D03*
X120000D02*
D03*
X209000Y307500D02*
D03*
X219000D02*
D03*
X229000D02*
D03*
X239000D02*
D03*
X96500Y307000D02*
D03*
X106500D02*
D03*
X116500D02*
D03*
X126500D02*
D03*
X136500D02*
D03*
X146500D02*
D03*
X156500D02*
D03*
X166500D02*
D03*
X195000Y69000D02*
D03*
X185000D02*
D03*
X175000D02*
D03*
X165000D02*
D03*
X338500Y357000D02*
D03*
Y367000D02*
D03*
Y377000D02*
D03*
X320500Y357000D02*
D03*
Y367000D02*
D03*
Y377000D02*
D03*
X302500Y357000D02*
D03*
Y367000D02*
D03*
Y377000D02*
D03*
X248500Y357000D02*
D03*
Y367000D02*
D03*
Y377000D02*
D03*
X266500Y357000D02*
D03*
Y367000D02*
D03*
Y377000D02*
D03*
X284500Y357000D02*
D03*
Y367000D02*
D03*
Y377000D02*
D03*
X15500Y69000D02*
D03*
Y79000D02*
D03*
Y89000D02*
D03*
Y99000D02*
D03*
Y109000D02*
D03*
Y119000D02*
D03*
Y129000D02*
D03*
Y139000D02*
D03*
X97500Y373000D02*
D03*
X87500D02*
D03*
X77500D02*
D03*
X67500D02*
D03*
X498500Y331500D02*
D03*
X508500D02*
D03*
X488500D02*
D03*
X428500Y382000D02*
D03*
Y372000D02*
D03*
Y362000D02*
D03*
X411000Y382000D02*
D03*
Y372000D02*
D03*
Y362000D02*
D03*
X393500Y382000D02*
D03*
Y372000D02*
D03*
Y362000D02*
D03*
X376000Y382000D02*
D03*
Y372000D02*
D03*
Y362000D02*
D03*
X358681Y382000D02*
D03*
Y372000D02*
D03*
Y362000D02*
D03*
X202315Y199000D02*
D03*
X222000D02*
D03*
D87*
X388500Y24000D02*
D03*
X408185D02*
D03*
D88*
X448567Y24500D02*
D03*
X469433D02*
D03*
D89*
X103764Y335921D02*
D03*
Y345921D02*
D03*
X113764Y335921D02*
D03*
Y345921D02*
D03*
X123764Y335921D02*
D03*
D90*
Y345921D02*
D03*
D91*
X202700Y46400D02*
D03*
D92*
Y36400D02*
D03*
X192700Y46400D02*
D03*
Y36400D02*
D03*
X182700Y46400D02*
D03*
Y36400D02*
D03*
X172700Y46400D02*
D03*
Y36400D02*
D03*
X162700Y46400D02*
D03*
Y36400D02*
D03*
X152700Y46400D02*
D03*
Y36400D02*
D03*
X142700Y46400D02*
D03*
Y36400D02*
D03*
X132700Y46400D02*
D03*
Y36400D02*
D03*
X122700Y46400D02*
D03*
Y36400D02*
D03*
X112700Y46400D02*
D03*
Y36400D02*
D03*
X102700Y46400D02*
D03*
Y36400D02*
D03*
X92700Y46400D02*
D03*
Y36400D02*
D03*
X82700Y46400D02*
D03*
Y36400D02*
D03*
X72700Y46400D02*
D03*
Y36400D02*
D03*
X62700Y46400D02*
D03*
Y36400D02*
D03*
X52700Y46400D02*
D03*
Y36400D02*
D03*
X42700Y46400D02*
D03*
Y36400D02*
D03*
X32700Y46400D02*
D03*
Y36400D02*
D03*
X22700Y46400D02*
D03*
Y36400D02*
D03*
X12700Y46400D02*
D03*
Y36400D02*
D03*
D93*
X200000Y364500D02*
D03*
X148500D02*
D03*
D94*
X200000Y374500D02*
D03*
X210000Y364500D02*
D03*
Y374500D02*
D03*
X220000Y364500D02*
D03*
Y374500D02*
D03*
X230000D02*
D03*
Y364500D02*
D03*
X148500Y374500D02*
D03*
X158500Y364500D02*
D03*
Y374500D02*
D03*
X168500Y364500D02*
D03*
Y374500D02*
D03*
X178500D02*
D03*
Y364500D02*
D03*
D95*
X12000Y299185D02*
D03*
Y279500D02*
D03*
Y354685D02*
D03*
Y335000D02*
D03*
D96*
X117000Y121000D02*
D03*
X257000Y271000D02*
D03*
D97*
X97000D02*
D03*
X277000Y121000D02*
D03*
D98*
X467092Y73001D02*
D03*
X491500Y73000D02*
D03*
D99*
X478901Y91505D02*
D03*
D100*
X10500Y383000D02*
D03*
Y11000D02*
D03*
X511500D02*
D03*
Y383000D02*
D03*
D101*
X493500Y153398D02*
D03*
Y134500D02*
D03*
Y115602D02*
D03*
D102*
X312350Y34750D02*
D03*
X331700Y32800D02*
D03*
X326800Y32900D02*
D03*
X331100Y37200D02*
D03*
X326800Y37100D02*
D03*
X330800Y41500D02*
D03*
X326000D02*
D03*
X487100Y250600D02*
D03*
X487000Y255500D02*
D03*
X483000Y251000D02*
D03*
Y255000D02*
D03*
X477700Y251700D02*
D03*
Y256100D02*
D03*
X367000Y159700D02*
D03*
X375400Y159900D02*
D03*
X367000Y152800D02*
D03*
X375200D02*
D03*
X366900Y146000D02*
D03*
X375600Y145800D02*
D03*
X396000Y146000D02*
D03*
X387300Y146200D02*
D03*
X395600Y153000D02*
D03*
X387400D02*
D03*
X395800Y160100D02*
D03*
X387400Y159900D02*
D03*
Y140600D02*
D03*
X395800Y140800D02*
D03*
X387400Y133700D02*
D03*
X395600D02*
D03*
X387300Y126900D02*
D03*
X396000Y126700D02*
D03*
X375600Y126500D02*
D03*
X366900Y126700D02*
D03*
X375200Y133500D02*
D03*
X367000D02*
D03*
X375400Y140600D02*
D03*
X367000Y140400D02*
D03*
X366100Y225400D02*
D03*
X374500Y225600D02*
D03*
X366100Y218500D02*
D03*
X374300D02*
D03*
X366000Y211700D02*
D03*
X374700Y211500D02*
D03*
X395100Y211700D02*
D03*
X386400Y211900D02*
D03*
X394700Y218700D02*
D03*
X386500D02*
D03*
X394900Y225800D02*
D03*
X386500Y225600D02*
D03*
Y244900D02*
D03*
X394900Y245100D02*
D03*
X386500Y238000D02*
D03*
X394700D02*
D03*
X386400Y231200D02*
D03*
X395100Y231000D02*
D03*
X374700Y230800D02*
D03*
X366000Y231000D02*
D03*
X374300Y237800D02*
D03*
X366100D02*
D03*
X374500Y244900D02*
D03*
X366100Y244700D02*
D03*
M02*
