M48
;Layer_Color=9474304
;FILE_FORMAT=2:5
INCH,LZ
;TYPE=PLATED
T1F00S00C0.01200
T2F00S00C0.02756
T3F00S00C0.03543
T4F00S00C0.03937
T6F00S00C0.04134
T7F00S00C0.04331
T8F00S00C0.04724
T10F00S00C0.10236
;TYPE=NON_PLATED
T11F00S00C0.11811
%
T01
X0021911Y0009174
X0030911Y0008574
X0040611Y0009074
X00389Y00191
X00292Y00186
X00202Y00192
X00227Y00276
X00137Y00282
X00324Y00281
X00447Y00305
X0051289Y0019126
X0053Y00091
X00355Y00547
X00258Y00542
X00168Y00548
X00053Y00469
X00583Y0052
X00849Y00528
X0083489Y0022926
X0092489Y0022326
X0102189Y0022826
X01039Y00128
X00942Y00123
X00852Y00129
X00717Y0009
X0062Y00085
X0060289Y0018526
X0069989Y0019026
X00643Y00306
X0113Y00198
X0121674Y0017489
X0121074Y0008489
X01311Y00102
X01317Y00192
X01312Y00289
X0121174Y0027189
X01437Y00263
X01431Y00173
X01436Y00076
X0153626Y0009311
X0153126Y0019011
X0153726Y0028011
X01655Y0027
X01649Y0018
X01654Y00083
X0175426Y0010011
X0174926Y0019711
X0175526Y0028711
X01833Y00283
X01887Y00263
X01881Y00173
X01811Y00151
X01886Y00076
X01978Y00095
X02069Y00101
X02071Y00162
X02051Y00238
X0199Y00251
X0198126Y0019011
X01982Y00536
X01874Y00528
X01607Y00517
X01452Y00525
X01241Y00518
X02526Y00493
X02646Y00508
X02639Y00408
X02541Y00345
X02786Y00441
X02916
X0301Y00416
X03084Y0048
X03055Y00533
X03222Y00511
X0326Y00415
X03308
X03311Y00372
X03268Y00371
Y00329
X03317Y00328
X03282Y00259
X03342Y00248
X03291Y0007
X03044Y00075
X02857Y00069
X02716Y0007
X031235Y003475
X03538Y00213
X03665Y00227
X0367Y00093
X03552Y0007
X03785Y00089
X0379901Y0018491
X03865Y00366
X03822Y0045
X03961Y00496
X03979Y00346
X04113Y00377
X04123Y00509
X04319Y00518
X04317Y00394
X04373Y00091
X04509Y00096
X0464Y00103
X04841Y00147
X04839Y00234
X04837Y00356
X04718Y00399
X04623Y0046
X04853Y00506
X05007Y00113
X05134Y00221
X04108Y0009
X03957Y0008
X03691Y00365
X03775Y00578
X03961Y00607
X03974Y00724
X0386Y00721
X03706Y00742
X04146Y00726
X04149Y00608
X04325Y00619
X04332Y00746
X04616Y00901
X04643Y01
X0478Y01005
X04789Y00842
X04917Y00852
X04923Y00916
X05Y01006
X05129Y01065
X05141Y01178
X05089Y01301
X051Y01533
X05001Y01663
X05082Y01755
X05107Y01924
X05036Y01963
X049739Y0187
X04882Y01799
X04832Y01782
X04721Y0174
X04681Y01668
Y01581
X04675Y0148
X04219Y01444
X0417Y01464
X04054Y01453
X04067Y01518
X04071Y0157
X03958Y01601
X03956Y0153
X0396Y0146
X03958Y01408
X03956Y01337
X0396Y01267
X03873Y01269
X03874Y01337
Y01406
X03873Y01462
X03874Y0153
Y01599
X03754
X03752Y01528
X03756Y01458
X03754Y01406
X03752Y01335
X03756Y01265
X0377201Y0119091
X0388801
X0398801Y0119691
X04071Y01291
X04066Y01384
X04211Y01369
X04223Y01803
X04333Y01801
X04388Y01865
X04402Y01982
X04403Y02074
X04282Y02043
X04272Y01917
X04114Y01877
X04147Y02014
X04011Y01964
X0394Y02018
X03951Y02117
X03864Y02119
X03747Y02115
X03788Y02018
X0382Y0190491
X04879Y01941
X04875Y02028
X04886Y02082
X04951Y02086
X05096Y02068
X04986Y00738
X04838Y00723
X04761Y00646
X04639Y0059
X04915Y00601
X03465Y00636
X03472Y00829
X03417Y00922
X03409Y0102
X0343301Y0118291
X0353301Y0118891
X0353601Y0129591
X03523Y01383
X03525Y01468
X03576Y01537
X03573Y01615
X034699Y016123
X03474Y01546
X03367Y0154
X03314Y01543
X03315Y0161
X03392Y01619
X03383Y01689
X03533Y01698
X03535Y01918
X03563Y02015
X03568Y02098
X0366Y02117
X03678Y02015
X03462Y02012
X03467Y02088
X0337Y01899
X03149Y01897
X03215Y01984
X03151Y02076
X03126Y021055
X03095Y01785
Y0175
X03107Y01651
X0311Y01561
X03015Y01554
X0301Y01652
X03014Y01451
X03016Y01351
X0301701Y0126891
X0311701Y0127491
X0321201Y0127091
X0331201Y0127691
X0330901Y0116991
X0320901Y0116391
X0311201Y0116691
X0301201Y0116091
X02935Y01011
X02943Y00913
X02937Y00816
X02739Y00815
X02745Y00912
X02737Y0101
X02557Y01008
X02565Y0091
X02559Y00813
X02636Y00635
X02666Y00583
X02754Y00643
X02804Y00602
X02879Y00648
X02944Y00612
X03153Y00637
X03198Y00661
X03315Y00718
X03305Y00837
X03184Y00821
X0319Y00918
X03182Y01016
X03134Y01365
X03114Y01457
X0328135Y0147
X03382Y01463
X03384Y01379
X0343601Y0128991
X03669Y01267
X0367Y01335
Y01404
X03669Y0146
X0367Y01528
Y01597
X0367201Y0118491
X02596Y01397
X0259Y01465
X02477Y01471
X02466Y01394
X02309Y014
X02277Y01452
X02209Y015
X02265Y0156
X02428Y01569
X02554
X02572Y01699
X02466Y01713
X02459Y01819
X02369Y01825
X02287Y0185
X0235189Y0192526
X0244189Y0191926
X0253889Y0192426
X02556Y01824
X02232Y01722
X02154Y0177
X0216Y01886
X02331Y02064
X02165Y01398
X02129Y01035
X0214Y00904
X02318Y00911
X02309Y01037
X02342Y00756
X02195Y00751
X02071Y00759
X02106Y00695
X02036Y006
X01883Y0073
X01865Y00775
X01863Y00812
X01866Y00848
X01844Y0094
X01794Y01024
X01931Y01036
X01718Y00849
X01591Y00853
X01497Y00938
X01425Y01019
X01296Y00874
X01326Y00684
X01471Y00691
X01806Y00718
X01881Y01439
X01971Y01433
X02068Y01438
X0205089Y0153826
X0195389Y0153326
X0186389Y0153926
X01831Y01615
X01826Y01712
X01832Y01802
X0193226Y0181911
X0192626Y0172911
X0193126Y0163211
X01644Y01614
X01635Y0152
X01641Y01442
X01536Y01447
X01542Y01537
X01537Y01634
X0153174Y0172189
X0153774Y0181189
X0153274Y0190889
X0155711Y0197674
X0165411Y0198174
X01633Y01926
X01638Y01829
X01632Y01739
X01418Y01709
X01321Y01704
X01231Y0171
X0121389Y0181026
X0130389Y0180426
X0140089Y0180926
X01413Y01901
X01316Y01896
X01226Y01902
X0120889Y0200226
X0129889Y0199626
X0139589Y0200126
X01426Y02079
X01329Y02074
X01239Y0208
X0102Y02061
X00812Y0203
X00707Y01991
X00664Y01879
X00685Y01768
X00796Y01729
X00795Y01608
X00885Y01602
X00902Y0171
X00888Y01803
X00802Y01851
X0089Y01947
X00879Y01482
X00789Y01488
X00692Y01483
X00704Y01384
X00794Y01378
X00607Y01379
X00606Y0145
X00698Y01603
X00707Y01205
X00617Y01211
X00597Y01036
X00687Y0103
X00641Y00957
X00731Y00951
X00828Y00956
X0085Y00839
X00753Y00834
X00663Y0084
X00647Y00719
X00652Y0066
X00968Y00942
X00895Y01056
X00836Y01132
X01022Y01154
X01085Y0115
X01064Y01043
X01016Y0126
X0123774Y0141289
X0124374Y0150289
X0123874Y0159989
X01339Y01617
X0143674Y0161689
X0144174Y0151989
X0143574Y0142989
X01338Y0143
X01344Y0152
X0154Y02077
X01637Y02082
X01698Y02107
X01727Y02076
X0174411Y0197574
X01858Y01984
X019
X01851Y02089
X02099Y02083
X02124Y01994
X00407Y01961
X00334Y01989
X00325Y02061
X00386Y02093
X004651Y020901
X00235Y02067
X00244Y01995
X00245Y01911
X00329Y01909
X00323Y01829
X00328Y01741
X00329Y01662
X00327Y01568
X00322Y0148
X00232Y01486
X00237Y01574
X00239Y01668
X00238Y01747
X00233Y01835
X00136Y0183
X00148Y01906
X00147Y0199
X00138Y02062
X00141Y01742
X00142Y01663
X0014Y01569
X00135Y01481
X00297Y01371
X00394Y01376
X00484Y0137
X00516Y01456
X00419Y01451
X00406Y01515
X004651Y015301
X00404Y01697
X00406Y01809
X004651Y018101
X00334Y01293
X00396Y01216
X0052Y01206
X005Y01031
X0039Y01044
X0033Y01116
X00235Y01137
X00241Y01227
X0024Y0104
X0035Y00932
X0044Y00926
X00537Y00931
X00557Y00841
X0046Y00836
X0037Y00842
X00216Y00767
X00204Y00612
X00294Y00606
X00391Y00611
X00326Y02163
X00236Y02169
X00139Y02164
X00141Y02277
X00238Y02282
X00328Y02276
X00401Y02237
X00409Y02333
X00465Y0237
X0048Y02556
X00501Y02636
X00486Y0271
X00432Y02817
X0043Y02897
X00436Y02969
X00389Y03007
X00433Y03088
X00386Y03158
X00395Y03291
X00235Y03293
X00215Y03385
X00218Y03503
X00222Y03586
X00101Y0347
X00081Y03427
X00047Y03262
X00117Y0326
X00154Y0313
X00244
X00251Y02975
X0021
X00206Y0291
X00247Y02912
Y02834
X00211Y0282
X00245Y02692
X00127
X00051
X0006Y02855
X00062Y02918
X00065Y03131
X00535Y03225
X00546Y03537
X00534Y03614
X00532Y03664
X00399Y02632
X00398Y02511
X00166Y02555
X00082Y02516
X00652Y0263
X00712Y02698
X00788Y02641
X00793Y02772
X0078Y02878
X00781Y02926
X00762Y03046
X0069Y03047
X00638Y03007
X00641Y0296
X00567Y02928
X00579Y03018
X00678Y03134
X00767Y03148
X00776Y03283
X00764Y03371
X00762Y03438
X00768Y03518
X00725Y0358
X00765Y03629
X00817Y03579
X00904Y0367
X00961Y03637
X01043Y03645
X01159Y0364
X01335Y03489
X01344Y03391
X01349Y03287
X01357Y03191
X01229Y03194
X01214Y03118
X01116Y03123
X01022Y03169
X00951Y03168
X0094Y03297
X01026Y03289
X01208Y03282
X01473Y03317
X01534Y03316
X01596Y03318
X01662Y03319
X01663Y0339
X0166Y03444
X01594Y03443
X01597Y03389
X01535Y03387
X01532Y03441
X01471Y03442
X01474Y03388
X01508Y03483
X01569Y03482
X01631Y03484
X01697Y03485
X01778Y03486
X01741Y03445
X01744Y03391
X01743Y0332
X01834Y03318
X01835Y03389
X01832Y03443
X01869Y03484
X01974Y03482
X01937Y03441
X0194Y03387
X01939Y03316
X01988Y03198
X02011Y0312
X02007Y03047
X01901Y03025
X01781Y02977
X01794Y03106
X01854Y03194
X01722
X01517Y03193
X01527Y02968
X01547Y02864
X01646Y02858
X01657Y02919
X01264Y02888
X01263Y02807
X01166Y02831
X01159Y02957
X01078Y02877
X01079Y02779
X00945Y02786
X00942Y02858
X00922Y03001
X01012Y03002
X00935Y03402
X00665Y03281
X00564
X00626Y03537
X00637Y03617
Y03665
X00652Y02843
X00653Y02775
X00749Y02357
X00809Y02308
X00888Y02357
X0089Y02442
X00894Y02259
X00897Y02143
X00822Y02183
X00716Y02179
X00749Y0224
X01017Y02162
X0122189Y0218026
X0131189Y0217426
X0140889Y0217926
X01481Y02325
X0163Y0233
X01707Y0238
X01706Y02432
X01767Y02474
X01854Y02435
X01845Y02381
X0186Y02334
X01846Y02278
X01936Y02301
X01931Y02398
X01937Y02488
X0203726Y0250511
X0203126Y0241511
X0203626Y0231811
X01911Y02146
X01742Y02168
X01703Y02273
X0126Y0246
X02095Y032
X02094Y03288
X02181Y03298
X02286Y03241
X02248Y03176
X02138Y03031
X02151Y02508
X02145Y02418
X0215Y02321
X02173Y02173
X0235Y02164
Y02331
X0243774Y0236189
X0243174Y0227189
X02532Y02289
X02538Y02379
X02533Y02476
X0243274Y0245889
X0224526Y0243511
X0225126Y0252511
X02273Y02273
X03098Y02137
X0327365Y0214865
X03467Y02167
Y02259
X03469Y02321
X03557Y02326
X03559Y02263
X03562Y02166
X03661Y02185
Y02254
X0366Y0231
X03661Y02378
Y02447
X03562Y02406
X03486Y02404
X03481Y02489
X03557Y02495
X03315Y02489
X03385Y0241135
X03367Y02346
X03242Y02349
X0324Y0241235
X03031Y02656
X02923
X02929Y02767
X0293Y02918
X02934Y03058
X03038Y03063
X03001Y0322
X03028Y03281
X02905Y03318
X0282Y03352
X02773Y03426
X0287Y03433
X0295Y03423
X03032Y03437
X03129Y03463
Y03403
X03244Y03414
X03249Y03494
X03371Y03495
X03367Y03414
X03672Y03411
X03585Y0332
X03602Y03125
X03638Y03029
Y02974
X03498Y03035
X03427Y02988
X03312Y02986
X03076Y02747
X02887Y03152
X02818Y03222
X02753Y03269
X02699Y03346
X02371Y03356
X02409Y03417
X03675Y03615
X03848
X04022Y03617
X042Y03621
X04385Y03618
X04655Y03638
X04665Y03567
X04745Y0348
X04667Y03395
X04662Y03279
X04745Y03195
X04741Y03094
X04739Y03012
X04744Y02921
X04748Y0279
X04795Y02725
X04875Y02775
X04969Y02745
X04976Y02686
X05043Y02696
X05039Y02741
X05019Y0258
X05081Y02583
X05135Y02533
X05015Y02488
X04955Y02497
Y02578
X0487Y02555
X0483Y0255
Y0251
X04871Y02506
X04777Y02517
Y02561
X04705Y02554
X04701Y02501
X04695Y02398
Y0235
X04653Y02345
X04631Y02407
X04879Y02342
X0488Y02246
X04883Y02208
X0497Y02145
X0496Y02295
X05103Y023
X04936Y02915
X04946Y03021
X04899Y03041
X04903Y0315
X04862Y03234
X05041Y03232
X05032Y03163
X05037Y03043
X05062Y0344
X05171Y03448
X05167Y0359
X05068Y03598
X0499Y03634
X04924Y03458
X0433Y03273
X04227Y03191
X04234Y03103
X04113Y03047
X04101Y03178
X04157Y03247
X04166Y03316
X04107
X04179Y03413
X04019Y03412
X03843Y03411
X03764Y03316
X03936
X04001Y03219
Y03106
X04018Y02978
X0391Y0291
Y02875
X03865Y0287
Y02915
X0381678Y0291509
X03815Y02875
X03775
Y0292
X03759Y02986
X03694Y03054
X03727Y03165
X03883Y03175
X03874Y03042
X03805Y0275491
X03995Y02804
X04136Y02812
X04201Y0274
X04305Y02696
X04311Y02796
X04396Y0283
X044Y02896
X04387Y03
X04296Y02919
X04416Y02714
X04206Y02363
X041249Y024323
X04072Y02394
X04066Y02313
X04071Y02238
X04064Y0214
X04151Y02125
X04257Y02215
X04372Y02186
X03947Y02187
X03949Y02258
X03951Y0231
X03947Y0238
X03949Y02451
X03865Y02449
Y0238
X03864Y02312
X03865Y02256
Y02187
X03743Y02185
X03745Y02256
X03747Y02308
X03743Y02378
X03745Y02449
X0371Y03781
X03809Y0378
X03844Y0382
X03885Y03779
X03983
X0402Y03818
X04059Y03781
X04161Y03782
X04202Y03818
X04235Y03778
X04335Y0378
X04381Y0382
X04653Y03786
X04797Y03779
X04882
X0493Y0384
X05026Y03837
X05119Y03725
X03636Y0378
X03669Y03816
X03552Y03777
X0342Y03726
X03334Y03723
X03255Y03724
X03155Y03727
X03076
X02973
X02892
X02796
X02714
X02615Y0373
X02537
X00249Y03828
X00109Y03694
T02
X04885Y03315
X04985
X05085
T03
X0222Y0199
X0202315
X0195Y0069
X0185
X0175
X0165
X012Y007
X011
X01
X009
X008
X007
X006
X005
X00155Y0069
Y0079
Y0089
Y0099
Y0109
Y0119
Y0129
Y0139
X00965Y0307
X01065
X01165
X01265
X01365
X01465
X01565
X01665
X0209Y03075
X021Y03645
X02
X01785
X01685
X01585
X01485
X022
X023
X02485Y0367
Y0357
X02665
Y0367
X02845
Y0357
X03025
Y0367
X03205
Y0357
X03385
Y0367
X0358681Y0362
X0239Y03075
X0229
X0219
X0376Y0362
X03935
X0411
X04285
Y0372
Y0382
X0411
Y0372
X03935
Y0382
X0376
Y0372
X0358681
Y0382
X03385Y0377
X03205
X03025
X02845
X02665
X02485
X023Y03745
X022
X021
X02
X01785
X01685
X01585
X01485
X00975Y0373
X00875
X00775
X00675
T04
X047511Y0187
X048889
X03564Y00772
X034262
X025409Y006
X024031
X0203Y0094
X0193
X01655
X01555
X045222Y0348
X0466
X0126Y0373
X0116
X0046Y03835
X0036
T06
X0217Y0121
X0227
X0237
X0247
X0257
Y0131
X0247
X0237
X0227
X0217
X0267
Y0141
Y0151
Y0161
Y0171
Y0181
Y0191
Y0201
Y0211
X0277
Y0201
Y0191
Y0181
Y0171
Y0161
Y0151
Y0141
Y0131
Y0121
X0267
X0207
Y0131
X0197
Y0121
X0187
Y0131
X0177
Y0121
X0167
Y0131
X0157
Y0121
X0147
Y0131
X0137
Y0121
X0127
Y0131
X0117
Y0121
X0107
X0097
Y0131
X0107
Y0141
X0097
Y0151
X0107
Y0161
X0097
Y0171
X0107
Y0181
X0097
Y0191
X0107
Y0201
X0097
Y0211
X0107
Y0221
X0097
Y0231
X0107
Y0241
X0097
Y0251
X0107
Y0261
X0097
Y0271
X0107
X0117
Y0261
X0127
Y0271
X0137
Y0261
X0147
Y0271
X0157
Y0261
X0167
Y0271
X0177
Y0261
X0187
Y0271
X0197
Y0261
X0207
Y0271
X0123764Y0335921
X0113764
X0103764
Y0345921
X0113764
X0123764
X0217Y0271
Y0261
X0227
Y0271
X0237
Y0261
X0247
Y0271
X0257
Y0261
X0267
Y0271
X0277
Y0261
Y0251
X0267
Y0241
X0277
Y0231
X0267
Y0221
X0277
T07
X00127Y00364
X00227
X00327
X00427
X00527
Y00464
X00427
X00327
X00227
X00127
X00627
X00727
X00827
X00927
X01027
X01127
X01227
X01327
X01427
X01527
X01627
X01727
X01827
X01927
X02027
Y00364
X01927
X01827
X01727
X01627
X01527
X01427
X01327
X01227
X01127
X01027
X00927
X00827
X00727
X00627
T08
X03885Y0024
X0408185
X0012Y02795
Y0299185
Y0335
Y0354685
T10
X0448567Y00245
X0469433
T11
X00105Y0011
X05115
Y0383
X00105
M30
