G04*
G04 #@! TF.GenerationSoftware,Altium Limited,Altium Designer,20.0.13 (296)*
G04*
G04 Layer_Color=2752767*
%FSLAX25Y25*%
%MOIN*%
G70*
G01*
G75*
%ADD143C,0.00200*%
%ADD146C,0.00267*%
%ADD147C,0.00133*%
D143*
X253290Y59200D02*
Y60800D01*
X254890D01*
Y59200D01*
X253290D01*
X239510D02*
Y60800D01*
X241110D01*
Y59200D01*
X239510D01*
X341820Y76400D02*
Y78000D01*
X343420D01*
Y76400D01*
X341820D01*
X355600D02*
Y78000D01*
X357200D01*
Y76400D01*
X355600D01*
X202200Y93200D02*
Y94800D01*
X203800D01*
Y93200D01*
X202200D01*
X192200D02*
Y94800D01*
X193800D01*
Y93200D01*
X192200D01*
X164700D02*
Y94800D01*
X166300D01*
Y93200D01*
X164700D01*
X154700D02*
Y94800D01*
X156300D01*
Y93200D01*
X154700D01*
X388500Y23200D02*
X387700Y24800D01*
X389300D01*
X388500Y23200D01*
X408185D02*
X407385Y24800D01*
X408985D01*
X408185Y23200D01*
X448567Y23700D02*
X448967Y24100D01*
X449367D01*
X448967Y24500D01*
X449367Y24900D01*
X448967D01*
X448567Y25300D01*
X448167Y24900D01*
X447767D01*
X448167Y24500D01*
X447767Y24100D01*
X448167D01*
X448567Y23700D01*
X469433D02*
X469833Y24100D01*
X470233D01*
X469833Y24500D01*
X470233Y24900D01*
X469833D01*
X469433Y25300D01*
X469033Y24900D01*
X468633D01*
X469033Y24500D01*
X468633Y24100D01*
X469033D01*
X469433Y23700D01*
X102964Y335121D02*
X103364Y335921D01*
X102964Y336721D01*
X103764Y336321D01*
X104564Y336721D01*
X104164Y335921D01*
X104564Y335121D01*
X103764Y335521D01*
X102964Y335121D01*
Y345121D02*
X103364Y345921D01*
X102964Y346721D01*
X103764Y346321D01*
X104564Y346721D01*
X104164Y345921D01*
X104564Y345121D01*
X103764Y345521D01*
X102964Y345121D01*
X112964Y335121D02*
X113364Y335921D01*
X112964Y336721D01*
X113764Y336321D01*
X114564Y336721D01*
X114164Y335921D01*
X114564Y335121D01*
X113764Y335521D01*
X112964Y335121D01*
Y345121D02*
X113364Y345921D01*
X112964Y346721D01*
X113764Y346321D01*
X114564Y346721D01*
X114164Y345921D01*
X114564Y345121D01*
X113764Y345521D01*
X112964Y345121D01*
X122964Y335121D02*
X123364Y335921D01*
X122964Y336721D01*
X123764Y336321D01*
X124564Y336721D01*
X124164Y335921D01*
X124564Y335121D01*
X123764Y335521D01*
X122964Y335121D01*
Y345121D02*
X123364Y345921D01*
X122964Y346721D01*
X123764Y346321D01*
X124564Y346721D01*
X124164Y345921D01*
X124564Y345121D01*
X123764Y345521D01*
X122964Y345121D01*
X202300Y46000D02*
Y45600D01*
X203100D01*
Y46000D01*
X203500D01*
Y46800D01*
X203100D01*
Y47200D01*
X202300D01*
Y46800D01*
X201900D01*
Y46000D01*
X202300D01*
Y36000D02*
Y35600D01*
X203100D01*
Y36000D01*
X203500D01*
Y36800D01*
X203100D01*
Y37200D01*
X202300D01*
Y36800D01*
X201900D01*
Y36000D01*
X202300D01*
X192300Y46000D02*
Y45600D01*
X193100D01*
Y46000D01*
X193500D01*
Y46800D01*
X193100D01*
Y47200D01*
X192300D01*
Y46800D01*
X191900D01*
Y46000D01*
X192300D01*
Y36000D02*
Y35600D01*
X193100D01*
Y36000D01*
X193500D01*
Y36800D01*
X193100D01*
Y37200D01*
X192300D01*
Y36800D01*
X191900D01*
Y36000D01*
X192300D01*
X182300Y46000D02*
Y45600D01*
X183100D01*
Y46000D01*
X183500D01*
Y46800D01*
X183100D01*
Y47200D01*
X182300D01*
Y46800D01*
X181900D01*
Y46000D01*
X182300D01*
Y36000D02*
Y35600D01*
X183100D01*
Y36000D01*
X183500D01*
Y36800D01*
X183100D01*
Y37200D01*
X182300D01*
Y36800D01*
X181900D01*
Y36000D01*
X182300D01*
X172300Y46000D02*
Y45600D01*
X173100D01*
Y46000D01*
X173500D01*
Y46800D01*
X173100D01*
Y47200D01*
X172300D01*
Y46800D01*
X171900D01*
Y46000D01*
X172300D01*
Y36000D02*
Y35600D01*
X173100D01*
Y36000D01*
X173500D01*
Y36800D01*
X173100D01*
Y37200D01*
X172300D01*
Y36800D01*
X171900D01*
Y36000D01*
X172300D01*
X162300Y46000D02*
Y45600D01*
X163100D01*
Y46000D01*
X163500D01*
Y46800D01*
X163100D01*
Y47200D01*
X162300D01*
Y46800D01*
X161900D01*
Y46000D01*
X162300D01*
Y36000D02*
Y35600D01*
X163100D01*
Y36000D01*
X163500D01*
Y36800D01*
X163100D01*
Y37200D01*
X162300D01*
Y36800D01*
X161900D01*
Y36000D01*
X162300D01*
X152300Y46000D02*
Y45600D01*
X153100D01*
Y46000D01*
X153500D01*
Y46800D01*
X153100D01*
Y47200D01*
X152300D01*
Y46800D01*
X151900D01*
Y46000D01*
X152300D01*
Y36000D02*
Y35600D01*
X153100D01*
Y36000D01*
X153500D01*
Y36800D01*
X153100D01*
Y37200D01*
X152300D01*
Y36800D01*
X151900D01*
Y36000D01*
X152300D01*
X142300Y46000D02*
Y45600D01*
X143100D01*
Y46000D01*
X143500D01*
Y46800D01*
X143100D01*
Y47200D01*
X142300D01*
Y46800D01*
X141900D01*
Y46000D01*
X142300D01*
Y36000D02*
Y35600D01*
X143100D01*
Y36000D01*
X143500D01*
Y36800D01*
X143100D01*
Y37200D01*
X142300D01*
Y36800D01*
X141900D01*
Y36000D01*
X142300D01*
X132300Y46000D02*
Y45600D01*
X133100D01*
Y46000D01*
X133500D01*
Y46800D01*
X133100D01*
Y47200D01*
X132300D01*
Y46800D01*
X131900D01*
Y46000D01*
X132300D01*
Y36000D02*
Y35600D01*
X133100D01*
Y36000D01*
X133500D01*
Y36800D01*
X133100D01*
Y37200D01*
X132300D01*
Y36800D01*
X131900D01*
Y36000D01*
X132300D01*
X122300Y46000D02*
Y45600D01*
X123100D01*
Y46000D01*
X123500D01*
Y46800D01*
X123100D01*
Y47200D01*
X122300D01*
Y46800D01*
X121900D01*
Y46000D01*
X122300D01*
Y36000D02*
Y35600D01*
X123100D01*
Y36000D01*
X123500D01*
Y36800D01*
X123100D01*
Y37200D01*
X122300D01*
Y36800D01*
X121900D01*
Y36000D01*
X122300D01*
X112300Y46000D02*
Y45600D01*
X113100D01*
Y46000D01*
X113500D01*
Y46800D01*
X113100D01*
Y47200D01*
X112300D01*
Y46800D01*
X111900D01*
Y46000D01*
X112300D01*
Y36000D02*
Y35600D01*
X113100D01*
Y36000D01*
X113500D01*
Y36800D01*
X113100D01*
Y37200D01*
X112300D01*
Y36800D01*
X111900D01*
Y36000D01*
X112300D01*
X102300Y46000D02*
Y45600D01*
X103100D01*
Y46000D01*
X103500D01*
Y46800D01*
X103100D01*
Y47200D01*
X102300D01*
Y46800D01*
X101900D01*
Y46000D01*
X102300D01*
Y36000D02*
Y35600D01*
X103100D01*
Y36000D01*
X103500D01*
Y36800D01*
X103100D01*
Y37200D01*
X102300D01*
Y36800D01*
X101900D01*
Y36000D01*
X102300D01*
X92300Y46000D02*
Y45600D01*
X93100D01*
Y46000D01*
X93500D01*
Y46800D01*
X93100D01*
Y47200D01*
X92300D01*
Y46800D01*
X91900D01*
Y46000D01*
X92300D01*
Y36000D02*
Y35600D01*
X93100D01*
Y36000D01*
X93500D01*
Y36800D01*
X93100D01*
Y37200D01*
X92300D01*
Y36800D01*
X91900D01*
Y36000D01*
X92300D01*
X82300Y46000D02*
Y45600D01*
X83100D01*
Y46000D01*
X83500D01*
Y46800D01*
X83100D01*
Y47200D01*
X82300D01*
Y46800D01*
X81900D01*
Y46000D01*
X82300D01*
Y36000D02*
Y35600D01*
X83100D01*
Y36000D01*
X83500D01*
Y36800D01*
X83100D01*
Y37200D01*
X82300D01*
Y36800D01*
X81900D01*
Y36000D01*
X82300D01*
X72300Y46000D02*
Y45600D01*
X73100D01*
Y46000D01*
X73500D01*
Y46800D01*
X73100D01*
Y47200D01*
X72300D01*
Y46800D01*
X71900D01*
Y46000D01*
X72300D01*
Y36000D02*
Y35600D01*
X73100D01*
Y36000D01*
X73500D01*
Y36800D01*
X73100D01*
Y37200D01*
X72300D01*
Y36800D01*
X71900D01*
Y36000D01*
X72300D01*
X62300Y46000D02*
Y45600D01*
X63100D01*
Y46000D01*
X63500D01*
Y46800D01*
X63100D01*
Y47200D01*
X62300D01*
Y46800D01*
X61900D01*
Y46000D01*
X62300D01*
Y36000D02*
Y35600D01*
X63100D01*
Y36000D01*
X63500D01*
Y36800D01*
X63100D01*
Y37200D01*
X62300D01*
Y36800D01*
X61900D01*
Y36000D01*
X62300D01*
X52300Y46000D02*
Y45600D01*
X53100D01*
Y46000D01*
X53500D01*
Y46800D01*
X53100D01*
Y47200D01*
X52300D01*
Y46800D01*
X51900D01*
Y46000D01*
X52300D01*
Y36000D02*
Y35600D01*
X53100D01*
Y36000D01*
X53500D01*
Y36800D01*
X53100D01*
Y37200D01*
X52300D01*
Y36800D01*
X51900D01*
Y36000D01*
X52300D01*
X42300Y46000D02*
Y45600D01*
X43100D01*
Y46000D01*
X43500D01*
Y46800D01*
X43100D01*
Y47200D01*
X42300D01*
Y46800D01*
X41900D01*
Y46000D01*
X42300D01*
Y36000D02*
Y35600D01*
X43100D01*
Y36000D01*
X43500D01*
Y36800D01*
X43100D01*
Y37200D01*
X42300D01*
Y36800D01*
X41900D01*
Y36000D01*
X42300D01*
X32300Y46000D02*
Y45600D01*
X33100D01*
Y46000D01*
X33500D01*
Y46800D01*
X33100D01*
Y47200D01*
X32300D01*
Y46800D01*
X31900D01*
Y46000D01*
X32300D01*
Y36000D02*
Y35600D01*
X33100D01*
Y36000D01*
X33500D01*
Y36800D01*
X33100D01*
Y37200D01*
X32300D01*
Y36800D01*
X31900D01*
Y36000D01*
X32300D01*
X22300Y46000D02*
Y45600D01*
X23100D01*
Y46000D01*
X23500D01*
Y46800D01*
X23100D01*
Y47200D01*
X22300D01*
Y46800D01*
X21900D01*
Y46000D01*
X22300D01*
Y36000D02*
Y35600D01*
X23100D01*
Y36000D01*
X23500D01*
Y36800D01*
X23100D01*
Y37200D01*
X22300D01*
Y36800D01*
X21900D01*
Y36000D01*
X22300D01*
X12300Y46000D02*
Y45600D01*
X13100D01*
Y46000D01*
X13500D01*
Y46800D01*
X13100D01*
Y47200D01*
X12300D01*
Y46800D01*
X11900D01*
Y46000D01*
X12300D01*
Y36000D02*
Y35600D01*
X13100D01*
Y36000D01*
X13500D01*
Y36800D01*
X13100D01*
Y37200D01*
X12300D01*
Y36800D01*
X11900D01*
Y36000D01*
X12300D01*
X12000Y298385D02*
X11200Y299985D01*
X12800D01*
X12000Y298385D01*
Y278700D02*
X11200Y280300D01*
X12800D01*
X12000Y278700D01*
X125200Y372200D02*
Y373800D01*
X126800D01*
Y372200D01*
X125200D01*
X115200D02*
Y373800D01*
X116800D01*
Y372200D01*
X115200D01*
X45200Y382700D02*
Y384300D01*
X46800D01*
Y382700D01*
X45200D01*
X35200D02*
Y384300D01*
X36800D01*
Y382700D01*
X35200D01*
X12000Y353885D02*
X11200Y355485D01*
X12800D01*
X12000Y353885D01*
Y334200D02*
X11200Y335800D01*
X12800D01*
X12000Y334200D01*
X497700Y330700D02*
X498100D01*
X498500Y331100D01*
X498900Y330700D01*
X499300D01*
Y331100D01*
X498900Y331500D01*
X499300Y331900D01*
Y332300D01*
X498900D01*
X498500Y331900D01*
X498100Y332300D01*
X497700D01*
Y331900D01*
X498100Y331500D01*
X497700Y331100D01*
Y330700D01*
X507700D02*
X508100D01*
X508500Y331100D01*
X508900Y330700D01*
X509300D01*
Y331100D01*
X508900Y331500D01*
X509300Y331900D01*
Y332300D01*
X508900D01*
X508500Y331900D01*
X508100Y332300D01*
X507700D01*
Y331900D01*
X508100Y331500D01*
X507700Y331100D01*
Y330700D01*
X487700D02*
X488100D01*
X488500Y331100D01*
X488900Y330700D01*
X489300D01*
Y331100D01*
X488900Y331500D01*
X489300Y331900D01*
Y332300D01*
X488900D01*
X488500Y331900D01*
X488100Y332300D01*
X487700D01*
Y331900D01*
X488100Y331500D01*
X487700Y331100D01*
Y330700D01*
X465200Y347200D02*
Y348800D01*
X466800D01*
Y347200D01*
X465200D01*
X451420D02*
Y348800D01*
X453020D01*
Y347200D01*
X451420D01*
X488090Y186200D02*
Y187800D01*
X489690D01*
Y186200D01*
X488090D01*
X474310D02*
Y187800D01*
X475910D01*
Y186200D01*
X474310D01*
X256200Y130200D02*
X256600Y131000D01*
X256200Y131800D01*
X257000Y131400D01*
X257800Y131800D01*
X257400Y131000D01*
X257800Y130200D01*
X257000Y130600D01*
X256200Y130200D01*
Y120200D02*
X256600Y121000D01*
X256200Y121800D01*
X257000Y121400D01*
X257800Y121800D01*
X257400Y121000D01*
X257800Y120200D01*
X257000Y120600D01*
X256200Y120200D01*
X246200Y130200D02*
X246600Y131000D01*
X246200Y131800D01*
X247000Y131400D01*
X247800Y131800D01*
X247400Y131000D01*
X247800Y130200D01*
X247000Y130600D01*
X246200Y130200D01*
Y120200D02*
X246600Y121000D01*
X246200Y121800D01*
X247000Y121400D01*
X247800Y121800D01*
X247400Y121000D01*
X247800Y120200D01*
X247000Y120600D01*
X246200Y120200D01*
X236200Y130200D02*
X236600Y131000D01*
X236200Y131800D01*
X237000Y131400D01*
X237800Y131800D01*
X237400Y131000D01*
X237800Y130200D01*
X237000Y130600D01*
X236200Y130200D01*
Y120200D02*
X236600Y121000D01*
X236200Y121800D01*
X237000Y121400D01*
X237800Y121800D01*
X237400Y121000D01*
X237800Y120200D01*
X237000Y120600D01*
X236200Y120200D01*
X226200Y130200D02*
X226600Y131000D01*
X226200Y131800D01*
X227000Y131400D01*
X227800Y131800D01*
X227400Y131000D01*
X227800Y130200D01*
X227000Y130600D01*
X226200Y130200D01*
Y120200D02*
X226600Y121000D01*
X226200Y121800D01*
X227000Y121400D01*
X227800Y121800D01*
X227400Y121000D01*
X227800Y120200D01*
X227000Y120600D01*
X226200Y120200D01*
X216200Y130200D02*
X216600Y131000D01*
X216200Y131800D01*
X217000Y131400D01*
X217800Y131800D01*
X217400Y131000D01*
X217800Y130200D01*
X217000Y130600D01*
X216200Y130200D01*
Y120200D02*
X216600Y121000D01*
X216200Y121800D01*
X217000Y121400D01*
X217800Y121800D01*
X217400Y121000D01*
X217800Y120200D01*
X217000Y120600D01*
X216200Y120200D01*
X206200Y130200D02*
X206600Y131000D01*
X206200Y131800D01*
X207000Y131400D01*
X207800Y131800D01*
X207400Y131000D01*
X207800Y130200D01*
X207000Y130600D01*
X206200Y130200D01*
Y120200D02*
X206600Y121000D01*
X206200Y121800D01*
X207000Y121400D01*
X207800Y121800D01*
X207400Y121000D01*
X207800Y120200D01*
X207000Y120600D01*
X206200Y120200D01*
X196200Y130200D02*
X196600Y131000D01*
X196200Y131800D01*
X197000Y131400D01*
X197800Y131800D01*
X197400Y131000D01*
X197800Y130200D01*
X197000Y130600D01*
X196200Y130200D01*
Y120200D02*
X196600Y121000D01*
X196200Y121800D01*
X197000Y121400D01*
X197800Y121800D01*
X197400Y121000D01*
X197800Y120200D01*
X197000Y120600D01*
X196200Y120200D01*
X186200Y130200D02*
X186600Y131000D01*
X186200Y131800D01*
X187000Y131400D01*
X187800Y131800D01*
X187400Y131000D01*
X187800Y130200D01*
X187000Y130600D01*
X186200Y130200D01*
Y120200D02*
X186600Y121000D01*
X186200Y121800D01*
X187000Y121400D01*
X187800Y121800D01*
X187400Y121000D01*
X187800Y120200D01*
X187000Y120600D01*
X186200Y120200D01*
X176200Y130200D02*
X176600Y131000D01*
X176200Y131800D01*
X177000Y131400D01*
X177800Y131800D01*
X177400Y131000D01*
X177800Y130200D01*
X177000Y130600D01*
X176200Y130200D01*
Y120200D02*
X176600Y121000D01*
X176200Y121800D01*
X177000Y121400D01*
X177800Y121800D01*
X177400Y121000D01*
X177800Y120200D01*
X177000Y120600D01*
X176200Y120200D01*
X166200Y130200D02*
X166600Y131000D01*
X166200Y131800D01*
X167000Y131400D01*
X167800Y131800D01*
X167400Y131000D01*
X167800Y130200D01*
X167000Y130600D01*
X166200Y130200D01*
Y120200D02*
X166600Y121000D01*
X166200Y121800D01*
X167000Y121400D01*
X167800Y121800D01*
X167400Y121000D01*
X167800Y120200D01*
X167000Y120600D01*
X166200Y120200D01*
X156200Y130200D02*
X156600Y131000D01*
X156200Y131800D01*
X157000Y131400D01*
X157800Y131800D01*
X157400Y131000D01*
X157800Y130200D01*
X157000Y130600D01*
X156200Y130200D01*
Y120200D02*
X156600Y121000D01*
X156200Y121800D01*
X157000Y121400D01*
X157800Y121800D01*
X157400Y121000D01*
X157800Y120200D01*
X157000Y120600D01*
X156200Y120200D01*
X146200Y130200D02*
X146600Y131000D01*
X146200Y131800D01*
X147000Y131400D01*
X147800Y131800D01*
X147400Y131000D01*
X147800Y130200D01*
X147000Y130600D01*
X146200Y130200D01*
Y120200D02*
X146600Y121000D01*
X146200Y121800D01*
X147000Y121400D01*
X147800Y121800D01*
X147400Y121000D01*
X147800Y120200D01*
X147000Y120600D01*
X146200Y120200D01*
X136200Y130200D02*
X136600Y131000D01*
X136200Y131800D01*
X137000Y131400D01*
X137800Y131800D01*
X137400Y131000D01*
X137800Y130200D01*
X137000Y130600D01*
X136200Y130200D01*
Y120200D02*
X136600Y121000D01*
X136200Y121800D01*
X137000Y121400D01*
X137800Y121800D01*
X137400Y121000D01*
X137800Y120200D01*
X137000Y120600D01*
X136200Y120200D01*
X126200Y130200D02*
X126600Y131000D01*
X126200Y131800D01*
X127000Y131400D01*
X127800Y131800D01*
X127400Y131000D01*
X127800Y130200D01*
X127000Y130600D01*
X126200Y130200D01*
Y120200D02*
X126600Y121000D01*
X126200Y121800D01*
X127000Y121400D01*
X127800Y121800D01*
X127400Y121000D01*
X127800Y120200D01*
X127000Y120600D01*
X126200Y120200D01*
X116200Y130200D02*
X116600Y131000D01*
X116200Y131800D01*
X117000Y131400D01*
X117800Y131800D01*
X117400Y131000D01*
X117800Y130200D01*
X117000Y130600D01*
X116200Y130200D01*
Y120200D02*
X116600Y121000D01*
X116200Y121800D01*
X117000Y121400D01*
X117800Y121800D01*
X117400Y121000D01*
X117800Y120200D01*
X117000Y120600D01*
X116200Y120200D01*
X106200D02*
X106600Y121000D01*
X106200Y121800D01*
X107000Y121400D01*
X107800Y121800D01*
X107400Y121000D01*
X107800Y120200D01*
X107000Y120600D01*
X106200Y120200D01*
X96200D02*
X96600Y121000D01*
X96200Y121800D01*
X97000Y121400D01*
X97800Y121800D01*
X97400Y121000D01*
X97800Y120200D01*
X97000Y120600D01*
X96200Y120200D01*
X106200Y130200D02*
X106600Y131000D01*
X106200Y131800D01*
X107000Y131400D01*
X107800Y131800D01*
X107400Y131000D01*
X107800Y130200D01*
X107000Y130600D01*
X106200Y130200D01*
X96200D02*
X96600Y131000D01*
X96200Y131800D01*
X97000Y131400D01*
X97800Y131800D01*
X97400Y131000D01*
X97800Y130200D01*
X97000Y130600D01*
X96200Y130200D01*
X106200Y140200D02*
X106600Y141000D01*
X106200Y141800D01*
X107000Y141400D01*
X107800Y141800D01*
X107400Y141000D01*
X107800Y140200D01*
X107000Y140600D01*
X106200Y140200D01*
X96200D02*
X96600Y141000D01*
X96200Y141800D01*
X97000Y141400D01*
X97800Y141800D01*
X97400Y141000D01*
X97800Y140200D01*
X97000Y140600D01*
X96200Y140200D01*
X106200Y150200D02*
X106600Y151000D01*
X106200Y151800D01*
X107000Y151400D01*
X107800Y151800D01*
X107400Y151000D01*
X107800Y150200D01*
X107000Y150600D01*
X106200Y150200D01*
X96200D02*
X96600Y151000D01*
X96200Y151800D01*
X97000Y151400D01*
X97800Y151800D01*
X97400Y151000D01*
X97800Y150200D01*
X97000Y150600D01*
X96200Y150200D01*
X106200Y160200D02*
X106600Y161000D01*
X106200Y161800D01*
X107000Y161400D01*
X107800Y161800D01*
X107400Y161000D01*
X107800Y160200D01*
X107000Y160600D01*
X106200Y160200D01*
X96200D02*
X96600Y161000D01*
X96200Y161800D01*
X97000Y161400D01*
X97800Y161800D01*
X97400Y161000D01*
X97800Y160200D01*
X97000Y160600D01*
X96200Y160200D01*
X106200Y170200D02*
X106600Y171000D01*
X106200Y171800D01*
X107000Y171400D01*
X107800Y171800D01*
X107400Y171000D01*
X107800Y170200D01*
X107000Y170600D01*
X106200Y170200D01*
X96200D02*
X96600Y171000D01*
X96200Y171800D01*
X97000Y171400D01*
X97800Y171800D01*
X97400Y171000D01*
X97800Y170200D01*
X97000Y170600D01*
X96200Y170200D01*
X106200Y180200D02*
X106600Y181000D01*
X106200Y181800D01*
X107000Y181400D01*
X107800Y181800D01*
X107400Y181000D01*
X107800Y180200D01*
X107000Y180600D01*
X106200Y180200D01*
X96200D02*
X96600Y181000D01*
X96200Y181800D01*
X97000Y181400D01*
X97800Y181800D01*
X97400Y181000D01*
X97800Y180200D01*
X97000Y180600D01*
X96200Y180200D01*
X106200Y190200D02*
X106600Y191000D01*
X106200Y191800D01*
X107000Y191400D01*
X107800Y191800D01*
X107400Y191000D01*
X107800Y190200D01*
X107000Y190600D01*
X106200Y190200D01*
X96200D02*
X96600Y191000D01*
X96200Y191800D01*
X97000Y191400D01*
X97800Y191800D01*
X97400Y191000D01*
X97800Y190200D01*
X97000Y190600D01*
X96200Y190200D01*
X106200Y200200D02*
X106600Y201000D01*
X106200Y201800D01*
X107000Y201400D01*
X107800Y201800D01*
X107400Y201000D01*
X107800Y200200D01*
X107000Y200600D01*
X106200Y200200D01*
X96200D02*
X96600Y201000D01*
X96200Y201800D01*
X97000Y201400D01*
X97800Y201800D01*
X97400Y201000D01*
X97800Y200200D01*
X97000Y200600D01*
X96200Y200200D01*
X106200Y210200D02*
X106600Y211000D01*
X106200Y211800D01*
X107000Y211400D01*
X107800Y211800D01*
X107400Y211000D01*
X107800Y210200D01*
X107000Y210600D01*
X106200Y210200D01*
X96200D02*
X96600Y211000D01*
X96200Y211800D01*
X97000Y211400D01*
X97800Y211800D01*
X97400Y211000D01*
X97800Y210200D01*
X97000Y210600D01*
X96200Y210200D01*
X106200Y220200D02*
X106600Y221000D01*
X106200Y221800D01*
X107000Y221400D01*
X107800Y221800D01*
X107400Y221000D01*
X107800Y220200D01*
X107000Y220600D01*
X106200Y220200D01*
X96200D02*
X96600Y221000D01*
X96200Y221800D01*
X97000Y221400D01*
X97800Y221800D01*
X97400Y221000D01*
X97800Y220200D01*
X97000Y220600D01*
X96200Y220200D01*
X106200Y230200D02*
X106600Y231000D01*
X106200Y231800D01*
X107000Y231400D01*
X107800Y231800D01*
X107400Y231000D01*
X107800Y230200D01*
X107000Y230600D01*
X106200Y230200D01*
X96200D02*
X96600Y231000D01*
X96200Y231800D01*
X97000Y231400D01*
X97800Y231800D01*
X97400Y231000D01*
X97800Y230200D01*
X97000Y230600D01*
X96200Y230200D01*
X106200Y240200D02*
X106600Y241000D01*
X106200Y241800D01*
X107000Y241400D01*
X107800Y241800D01*
X107400Y241000D01*
X107800Y240200D01*
X107000Y240600D01*
X106200Y240200D01*
X96200D02*
X96600Y241000D01*
X96200Y241800D01*
X97000Y241400D01*
X97800Y241800D01*
X97400Y241000D01*
X97800Y240200D01*
X97000Y240600D01*
X96200Y240200D01*
X106200Y250200D02*
X106600Y251000D01*
X106200Y251800D01*
X107000Y251400D01*
X107800Y251800D01*
X107400Y251000D01*
X107800Y250200D01*
X107000Y250600D01*
X106200Y250200D01*
X96200D02*
X96600Y251000D01*
X96200Y251800D01*
X97000Y251400D01*
X97800Y251800D01*
X97400Y251000D01*
X97800Y250200D01*
X97000Y250600D01*
X96200Y250200D01*
X106200Y260200D02*
X106600Y261000D01*
X106200Y261800D01*
X107000Y261400D01*
X107800Y261800D01*
X107400Y261000D01*
X107800Y260200D01*
X107000Y260600D01*
X106200Y260200D01*
X96200D02*
X96600Y261000D01*
X96200Y261800D01*
X97000Y261400D01*
X97800Y261800D01*
X97400Y261000D01*
X97800Y260200D01*
X97000Y260600D01*
X96200Y260200D01*
X106200Y270200D02*
X106600Y271000D01*
X106200Y271800D01*
X107000Y271400D01*
X107800Y271800D01*
X107400Y271000D01*
X107800Y270200D01*
X107000Y270600D01*
X106200Y270200D01*
X96200D02*
X96600Y271000D01*
X96200Y271800D01*
X97000Y271400D01*
X97800Y271800D01*
X97400Y271000D01*
X97800Y270200D01*
X97000Y270600D01*
X96200Y270200D01*
X116200Y260200D02*
X116600Y261000D01*
X116200Y261800D01*
X117000Y261400D01*
X117800Y261800D01*
X117400Y261000D01*
X117800Y260200D01*
X117000Y260600D01*
X116200Y260200D01*
Y270200D02*
X116600Y271000D01*
X116200Y271800D01*
X117000Y271400D01*
X117800Y271800D01*
X117400Y271000D01*
X117800Y270200D01*
X117000Y270600D01*
X116200Y270200D01*
X126200Y260200D02*
X126600Y261000D01*
X126200Y261800D01*
X127000Y261400D01*
X127800Y261800D01*
X127400Y261000D01*
X127800Y260200D01*
X127000Y260600D01*
X126200Y260200D01*
Y270200D02*
X126600Y271000D01*
X126200Y271800D01*
X127000Y271400D01*
X127800Y271800D01*
X127400Y271000D01*
X127800Y270200D01*
X127000Y270600D01*
X126200Y270200D01*
X136200Y260200D02*
X136600Y261000D01*
X136200Y261800D01*
X137000Y261400D01*
X137800Y261800D01*
X137400Y261000D01*
X137800Y260200D01*
X137000Y260600D01*
X136200Y260200D01*
Y270200D02*
X136600Y271000D01*
X136200Y271800D01*
X137000Y271400D01*
X137800Y271800D01*
X137400Y271000D01*
X137800Y270200D01*
X137000Y270600D01*
X136200Y270200D01*
X146200Y260200D02*
X146600Y261000D01*
X146200Y261800D01*
X147000Y261400D01*
X147800Y261800D01*
X147400Y261000D01*
X147800Y260200D01*
X147000Y260600D01*
X146200Y260200D01*
Y270200D02*
X146600Y271000D01*
X146200Y271800D01*
X147000Y271400D01*
X147800Y271800D01*
X147400Y271000D01*
X147800Y270200D01*
X147000Y270600D01*
X146200Y270200D01*
X156200Y260200D02*
X156600Y261000D01*
X156200Y261800D01*
X157000Y261400D01*
X157800Y261800D01*
X157400Y261000D01*
X157800Y260200D01*
X157000Y260600D01*
X156200Y260200D01*
Y270200D02*
X156600Y271000D01*
X156200Y271800D01*
X157000Y271400D01*
X157800Y271800D01*
X157400Y271000D01*
X157800Y270200D01*
X157000Y270600D01*
X156200Y270200D01*
X166200Y260200D02*
X166600Y261000D01*
X166200Y261800D01*
X167000Y261400D01*
X167800Y261800D01*
X167400Y261000D01*
X167800Y260200D01*
X167000Y260600D01*
X166200Y260200D01*
Y270200D02*
X166600Y271000D01*
X166200Y271800D01*
X167000Y271400D01*
X167800Y271800D01*
X167400Y271000D01*
X167800Y270200D01*
X167000Y270600D01*
X166200Y270200D01*
X176200Y260200D02*
X176600Y261000D01*
X176200Y261800D01*
X177000Y261400D01*
X177800Y261800D01*
X177400Y261000D01*
X177800Y260200D01*
X177000Y260600D01*
X176200Y260200D01*
Y270200D02*
X176600Y271000D01*
X176200Y271800D01*
X177000Y271400D01*
X177800Y271800D01*
X177400Y271000D01*
X177800Y270200D01*
X177000Y270600D01*
X176200Y270200D01*
X186200Y260200D02*
X186600Y261000D01*
X186200Y261800D01*
X187000Y261400D01*
X187800Y261800D01*
X187400Y261000D01*
X187800Y260200D01*
X187000Y260600D01*
X186200Y260200D01*
Y270200D02*
X186600Y271000D01*
X186200Y271800D01*
X187000Y271400D01*
X187800Y271800D01*
X187400Y271000D01*
X187800Y270200D01*
X187000Y270600D01*
X186200Y270200D01*
X196200Y260200D02*
X196600Y261000D01*
X196200Y261800D01*
X197000Y261400D01*
X197800Y261800D01*
X197400Y261000D01*
X197800Y260200D01*
X197000Y260600D01*
X196200Y260200D01*
Y270200D02*
X196600Y271000D01*
X196200Y271800D01*
X197000Y271400D01*
X197800Y271800D01*
X197400Y271000D01*
X197800Y270200D01*
X197000Y270600D01*
X196200Y270200D01*
X206200Y260200D02*
X206600Y261000D01*
X206200Y261800D01*
X207000Y261400D01*
X207800Y261800D01*
X207400Y261000D01*
X207800Y260200D01*
X207000Y260600D01*
X206200Y260200D01*
Y270200D02*
X206600Y271000D01*
X206200Y271800D01*
X207000Y271400D01*
X207800Y271800D01*
X207400Y271000D01*
X207800Y270200D01*
X207000Y270600D01*
X206200Y270200D01*
X216200Y260200D02*
X216600Y261000D01*
X216200Y261800D01*
X217000Y261400D01*
X217800Y261800D01*
X217400Y261000D01*
X217800Y260200D01*
X217000Y260600D01*
X216200Y260200D01*
Y270200D02*
X216600Y271000D01*
X216200Y271800D01*
X217000Y271400D01*
X217800Y271800D01*
X217400Y271000D01*
X217800Y270200D01*
X217000Y270600D01*
X216200Y270200D01*
X226200Y260200D02*
X226600Y261000D01*
X226200Y261800D01*
X227000Y261400D01*
X227800Y261800D01*
X227400Y261000D01*
X227800Y260200D01*
X227000Y260600D01*
X226200Y260200D01*
Y270200D02*
X226600Y271000D01*
X226200Y271800D01*
X227000Y271400D01*
X227800Y271800D01*
X227400Y271000D01*
X227800Y270200D01*
X227000Y270600D01*
X226200Y270200D01*
X236200Y260200D02*
X236600Y261000D01*
X236200Y261800D01*
X237000Y261400D01*
X237800Y261800D01*
X237400Y261000D01*
X237800Y260200D01*
X237000Y260600D01*
X236200Y260200D01*
Y270200D02*
X236600Y271000D01*
X236200Y271800D01*
X237000Y271400D01*
X237800Y271800D01*
X237400Y271000D01*
X237800Y270200D01*
X237000Y270600D01*
X236200Y270200D01*
X246200Y260200D02*
X246600Y261000D01*
X246200Y261800D01*
X247000Y261400D01*
X247800Y261800D01*
X247400Y261000D01*
X247800Y260200D01*
X247000Y260600D01*
X246200Y260200D01*
Y270200D02*
X246600Y271000D01*
X246200Y271800D01*
X247000Y271400D01*
X247800Y271800D01*
X247400Y271000D01*
X247800Y270200D01*
X247000Y270600D01*
X246200Y270200D01*
X256200Y260200D02*
X256600Y261000D01*
X256200Y261800D01*
X257000Y261400D01*
X257800Y261800D01*
X257400Y261000D01*
X257800Y260200D01*
X257000Y260600D01*
X256200Y260200D01*
Y270200D02*
X256600Y271000D01*
X256200Y271800D01*
X257000Y271400D01*
X257800Y271800D01*
X257400Y271000D01*
X257800Y270200D01*
X257000Y270600D01*
X256200Y270200D01*
X266200D02*
X266600Y271000D01*
X266200Y271800D01*
X267000Y271400D01*
X267800Y271800D01*
X267400Y271000D01*
X267800Y270200D01*
X267000Y270600D01*
X266200Y270200D01*
X276200D02*
X276600Y271000D01*
X276200Y271800D01*
X277000Y271400D01*
X277800Y271800D01*
X277400Y271000D01*
X277800Y270200D01*
X277000Y270600D01*
X276200Y270200D01*
X266200Y260200D02*
X266600Y261000D01*
X266200Y261800D01*
X267000Y261400D01*
X267800Y261800D01*
X267400Y261000D01*
X267800Y260200D01*
X267000Y260600D01*
X266200Y260200D01*
X276200D02*
X276600Y261000D01*
X276200Y261800D01*
X277000Y261400D01*
X277800Y261800D01*
X277400Y261000D01*
X277800Y260200D01*
X277000Y260600D01*
X276200Y260200D01*
X266200Y250200D02*
X266600Y251000D01*
X266200Y251800D01*
X267000Y251400D01*
X267800Y251800D01*
X267400Y251000D01*
X267800Y250200D01*
X267000Y250600D01*
X266200Y250200D01*
X276200D02*
X276600Y251000D01*
X276200Y251800D01*
X277000Y251400D01*
X277800Y251800D01*
X277400Y251000D01*
X277800Y250200D01*
X277000Y250600D01*
X276200Y250200D01*
X266200Y240200D02*
X266600Y241000D01*
X266200Y241800D01*
X267000Y241400D01*
X267800Y241800D01*
X267400Y241000D01*
X267800Y240200D01*
X267000Y240600D01*
X266200Y240200D01*
X276200D02*
X276600Y241000D01*
X276200Y241800D01*
X277000Y241400D01*
X277800Y241800D01*
X277400Y241000D01*
X277800Y240200D01*
X277000Y240600D01*
X276200Y240200D01*
X266200Y230200D02*
X266600Y231000D01*
X266200Y231800D01*
X267000Y231400D01*
X267800Y231800D01*
X267400Y231000D01*
X267800Y230200D01*
X267000Y230600D01*
X266200Y230200D01*
X276200D02*
X276600Y231000D01*
X276200Y231800D01*
X277000Y231400D01*
X277800Y231800D01*
X277400Y231000D01*
X277800Y230200D01*
X277000Y230600D01*
X276200Y230200D01*
X266200Y220200D02*
X266600Y221000D01*
X266200Y221800D01*
X267000Y221400D01*
X267800Y221800D01*
X267400Y221000D01*
X267800Y220200D01*
X267000Y220600D01*
X266200Y220200D01*
X276200D02*
X276600Y221000D01*
X276200Y221800D01*
X277000Y221400D01*
X277800Y221800D01*
X277400Y221000D01*
X277800Y220200D01*
X277000Y220600D01*
X276200Y220200D01*
X266200Y210200D02*
X266600Y211000D01*
X266200Y211800D01*
X267000Y211400D01*
X267800Y211800D01*
X267400Y211000D01*
X267800Y210200D01*
X267000Y210600D01*
X266200Y210200D01*
X276200D02*
X276600Y211000D01*
X276200Y211800D01*
X277000Y211400D01*
X277800Y211800D01*
X277400Y211000D01*
X277800Y210200D01*
X277000Y210600D01*
X276200Y210200D01*
X266200Y200200D02*
X266600Y201000D01*
X266200Y201800D01*
X267000Y201400D01*
X267800Y201800D01*
X267400Y201000D01*
X267800Y200200D01*
X267000Y200600D01*
X266200Y200200D01*
X276200D02*
X276600Y201000D01*
X276200Y201800D01*
X277000Y201400D01*
X277800Y201800D01*
X277400Y201000D01*
X277800Y200200D01*
X277000Y200600D01*
X276200Y200200D01*
X266200Y190200D02*
X266600Y191000D01*
X266200Y191800D01*
X267000Y191400D01*
X267800Y191800D01*
X267400Y191000D01*
X267800Y190200D01*
X267000Y190600D01*
X266200Y190200D01*
X276200D02*
X276600Y191000D01*
X276200Y191800D01*
X277000Y191400D01*
X277800Y191800D01*
X277400Y191000D01*
X277800Y190200D01*
X277000Y190600D01*
X276200Y190200D01*
X266200Y180200D02*
X266600Y181000D01*
X266200Y181800D01*
X267000Y181400D01*
X267800Y181800D01*
X267400Y181000D01*
X267800Y180200D01*
X267000Y180600D01*
X266200Y180200D01*
X276200D02*
X276600Y181000D01*
X276200Y181800D01*
X277000Y181400D01*
X277800Y181800D01*
X277400Y181000D01*
X277800Y180200D01*
X277000Y180600D01*
X276200Y180200D01*
X266200Y170200D02*
X266600Y171000D01*
X266200Y171800D01*
X267000Y171400D01*
X267800Y171800D01*
X267400Y171000D01*
X267800Y170200D01*
X267000Y170600D01*
X266200Y170200D01*
X276200D02*
X276600Y171000D01*
X276200Y171800D01*
X277000Y171400D01*
X277800Y171800D01*
X277400Y171000D01*
X277800Y170200D01*
X277000Y170600D01*
X276200Y170200D01*
X266200Y160200D02*
X266600Y161000D01*
X266200Y161800D01*
X267000Y161400D01*
X267800Y161800D01*
X267400Y161000D01*
X267800Y160200D01*
X267000Y160600D01*
X266200Y160200D01*
X276200D02*
X276600Y161000D01*
X276200Y161800D01*
X277000Y161400D01*
X277800Y161800D01*
X277400Y161000D01*
X277800Y160200D01*
X277000Y160600D01*
X276200Y160200D01*
X266200Y150200D02*
X266600Y151000D01*
X266200Y151800D01*
X267000Y151400D01*
X267800Y151800D01*
X267400Y151000D01*
X267800Y150200D01*
X267000Y150600D01*
X266200Y150200D01*
X276200D02*
X276600Y151000D01*
X276200Y151800D01*
X277000Y151400D01*
X277800Y151800D01*
X277400Y151000D01*
X277800Y150200D01*
X277000Y150600D01*
X276200Y150200D01*
X266200Y140200D02*
X266600Y141000D01*
X266200Y141800D01*
X267000Y141400D01*
X267800Y141800D01*
X267400Y141000D01*
X267800Y140200D01*
X267000Y140600D01*
X266200Y140200D01*
X276200D02*
X276600Y141000D01*
X276200Y141800D01*
X277000Y141400D01*
X277800Y141800D01*
X277400Y141000D01*
X277800Y140200D01*
X277000Y140600D01*
X276200Y140200D01*
X266200Y130200D02*
X266600Y131000D01*
X266200Y131800D01*
X267000Y131400D01*
X267800Y131800D01*
X267400Y131000D01*
X267800Y130200D01*
X267000Y130600D01*
X266200Y130200D01*
X276200D02*
X276600Y131000D01*
X276200Y131800D01*
X277000Y131400D01*
X277800Y131800D01*
X277400Y131000D01*
X277800Y130200D01*
X277000Y130600D01*
X276200Y130200D01*
X266200Y120200D02*
X266600Y121000D01*
X266200Y121800D01*
X267000Y121400D01*
X267800Y121800D01*
X267400Y121000D01*
X267800Y120200D01*
X267000Y120600D01*
X266200Y120200D01*
X276200D02*
X276600Y121000D01*
X276200Y121800D01*
X277000Y121400D01*
X277800Y121800D01*
X277400Y121000D01*
X277800Y120200D01*
X277000Y120600D01*
X276200Y120200D01*
X466292Y73001D02*
X467092Y73801D01*
X467892Y73001D01*
X467092Y72201D01*
X466292Y73001D01*
X478101Y91505D02*
X478901Y92305D01*
X479701Y91505D01*
X478901Y90705D01*
X478101Y91505D01*
X490700Y73000D02*
X491500Y73800D01*
X492300Y73000D01*
X491500Y72200D01*
X490700Y73000D01*
X9700Y382200D02*
Y383800D01*
X11300D01*
Y382200D01*
X9700D01*
X10100Y382600D02*
Y383400D01*
X10900D01*
Y382600D01*
X10100D01*
X9700Y10200D02*
Y11800D01*
X11300D01*
Y10200D01*
X9700D01*
X10100Y10600D02*
Y11400D01*
X10900D01*
Y10600D01*
X10100D01*
X510700Y10200D02*
Y11800D01*
X512300D01*
Y10200D01*
X510700D01*
X511100Y10600D02*
Y11400D01*
X511900D01*
Y10600D01*
X511100D01*
X510700Y382200D02*
Y383800D01*
X512300D01*
Y382200D01*
X510700D01*
X511100Y382600D02*
Y383400D01*
X511900D01*
Y382600D01*
X511100D01*
X382200Y44200D02*
X381400Y45800D01*
X383000D01*
X382200Y44200D01*
Y44600D02*
X381800Y45400D01*
X382600D01*
X382200Y44600D01*
X386000Y71300D02*
X385200Y72900D01*
X386800D01*
X386000Y71300D01*
Y71700D02*
X385600Y72500D01*
X386400D01*
X386000Y71700D01*
X377500Y57000D02*
X376700Y58600D01*
X378300D01*
X377500Y57000D01*
Y57400D02*
X377100Y58200D01*
X377900D01*
X377500Y57400D01*
X370600Y73400D02*
X369800Y75000D01*
X371400D01*
X370600Y73400D01*
Y73800D02*
X370200Y74600D01*
X371000D01*
X370600Y73800D01*
X367000Y8500D02*
X366200Y10100D01*
X367800D01*
X367000Y8500D01*
Y8900D02*
X366600Y9700D01*
X367400D01*
X367000Y8900D01*
X366500Y21900D02*
X365700Y23500D01*
X367300D01*
X366500Y21900D01*
Y22300D02*
X366100Y23100D01*
X366900D01*
X366500Y22300D01*
X369100Y35700D02*
X368300Y37300D01*
X369900D01*
X369100Y35700D01*
Y36100D02*
X368700Y36900D01*
X369500D01*
X369100Y36100D01*
X353800Y20500D02*
X353000Y22100D01*
X354600D01*
X353800Y20500D01*
Y20900D02*
X353400Y21700D01*
X354200D01*
X353800Y20900D01*
X355200Y6200D02*
X354400Y7800D01*
X356000D01*
X355200Y6200D01*
Y6600D02*
X354800Y7400D01*
X355600D01*
X355200Y6600D01*
X329100Y6200D02*
X328300Y7800D01*
X329900D01*
X329100Y6200D01*
Y6600D02*
X328700Y7400D01*
X329500D01*
X329100Y6600D01*
X304400Y6700D02*
X303600Y8300D01*
X305200D01*
X304400Y6700D01*
Y7100D02*
X304000Y7900D01*
X304800D01*
X304400Y7100D01*
X285700Y6100D02*
X284900Y7700D01*
X286500D01*
X285700Y6100D01*
Y6500D02*
X285300Y7300D01*
X286100D01*
X285700Y6500D01*
X271600Y6200D02*
X270800Y7800D01*
X272400D01*
X271600Y6200D01*
Y6600D02*
X271200Y7400D01*
X272000D01*
X271600Y6600D01*
X145200Y51700D02*
X144400Y53300D01*
X146000D01*
X145200Y51700D01*
Y52100D02*
X144800Y52900D01*
X145600D01*
X145200Y52100D01*
X58300Y51200D02*
X57500Y52800D01*
X59100D01*
X58300Y51200D01*
Y51600D02*
X57900Y52400D01*
X58700D01*
X58300Y51600D01*
X124100Y51000D02*
X123300Y52600D01*
X124900D01*
X124100Y51000D01*
Y51400D02*
X123700Y52200D01*
X124500D01*
X124100Y51400D01*
X147100Y68300D02*
X146300Y69900D01*
X147900D01*
X147100Y68300D01*
Y68700D02*
X146700Y69500D01*
X147500D01*
X147100Y68700D01*
X132600Y67600D02*
X131800Y69200D01*
X133400D01*
X132600Y67600D01*
Y68000D02*
X132200Y68800D01*
X133000D01*
X132600Y68000D01*
X210600Y68700D02*
X209800Y70300D01*
X211400D01*
X210600Y68700D01*
Y69100D02*
X210200Y69900D01*
X211000D01*
X210600Y69100D01*
X187400Y52000D02*
X186600Y53600D01*
X188200D01*
X187400Y52000D01*
Y52400D02*
X187000Y53200D01*
X187800D01*
X187400Y52400D01*
X205100Y23000D02*
X204300Y24600D01*
X205900D01*
X205100Y23000D01*
Y23400D02*
X204700Y24200D01*
X205500D01*
X205100Y23400D01*
X234200Y74800D02*
X233400Y76400D01*
X235000D01*
X234200Y74800D01*
Y75200D02*
X233800Y76000D01*
X234600D01*
X234200Y75200D01*
X219500Y74300D02*
X218700Y75900D01*
X220300D01*
X219500Y74300D01*
Y74700D02*
X219100Y75500D01*
X219900D01*
X219500Y74700D01*
X330500Y82900D02*
X329700Y84500D01*
X331300D01*
X330500Y82900D01*
Y83300D02*
X330100Y84100D01*
X330900D01*
X330500Y83300D01*
X331500Y71000D02*
X330700Y72600D01*
X332300D01*
X331500Y71000D01*
Y71400D02*
X331100Y72200D01*
X331900D01*
X331500Y71400D01*
X346500Y62800D02*
X345700Y64400D01*
X347300D01*
X346500Y62800D01*
Y63200D02*
X346100Y64000D01*
X346900D01*
X346500Y63200D01*
X334200Y24000D02*
X333400Y25600D01*
X335000D01*
X334200Y24000D01*
Y24400D02*
X333800Y25200D01*
X334600D01*
X334200Y24400D01*
X328200Y25100D02*
X327400Y26700D01*
X329000D01*
X328200Y25100D01*
Y25500D02*
X327800Y26300D01*
X328600D01*
X328200Y25500D01*
X322200Y50300D02*
X321400Y51900D01*
X323000D01*
X322200Y50300D01*
Y50700D02*
X321800Y51500D01*
X322600D01*
X322200Y50700D01*
X315300Y62900D02*
X314500Y64500D01*
X316100D01*
X315300Y62900D01*
Y63300D02*
X314900Y64100D01*
X315700D01*
X315300Y63300D01*
X319800Y65300D02*
X319000Y66900D01*
X320600D01*
X319800Y65300D01*
Y65700D02*
X319400Y66500D01*
X320200D01*
X319800Y65700D01*
X305500Y52500D02*
X304700Y54100D01*
X306300D01*
X305500Y52500D01*
Y52900D02*
X305100Y53700D01*
X305900D01*
X305500Y52900D01*
X308400Y47200D02*
X307600Y48800D01*
X309200D01*
X308400Y47200D01*
Y47600D02*
X308000Y48400D01*
X308800D01*
X308400Y47600D01*
X301000Y40800D02*
X300200Y42400D01*
X301800D01*
X301000Y40800D01*
Y41200D02*
X300600Y42000D01*
X301400D01*
X301000Y41200D01*
X291600Y43300D02*
X290800Y44900D01*
X292400D01*
X291600Y43300D01*
Y43700D02*
X291200Y44500D01*
X292000D01*
X291600Y43700D01*
X278600Y43300D02*
X277800Y44900D01*
X279400D01*
X278600Y43300D01*
Y43700D02*
X278200Y44500D01*
X279000D01*
X278600Y43700D01*
X263900Y40000D02*
X263100Y41600D01*
X264700D01*
X263900Y40000D01*
Y40400D02*
X263500Y41200D01*
X264300D01*
X263900Y40400D01*
X254100Y33700D02*
X253300Y35300D01*
X254900D01*
X254100Y33700D01*
Y34100D02*
X253700Y34900D01*
X254500D01*
X254100Y34100D01*
X252600Y48500D02*
X251800Y50100D01*
X253400D01*
X252600Y48500D01*
Y48900D02*
X252200Y49700D01*
X253000D01*
X252600Y48900D01*
X264600Y50000D02*
X263800Y51600D01*
X265400D01*
X264600Y50000D01*
Y50400D02*
X264200Y51200D01*
X265000D01*
X264600Y50400D01*
X266600Y57500D02*
X265800Y59100D01*
X267400D01*
X266600Y57500D01*
Y57900D02*
X266200Y58700D01*
X267000D01*
X266600Y57900D01*
X280400Y59400D02*
X279600Y61000D01*
X281200D01*
X280400Y59400D01*
Y59800D02*
X280000Y60600D01*
X280800D01*
X280400Y59800D01*
X294400Y60400D02*
X293600Y62000D01*
X295200D01*
X294400Y60400D01*
Y60800D02*
X294000Y61600D01*
X294800D01*
X294400Y60800D01*
X287900Y64000D02*
X287100Y65600D01*
X288700D01*
X287900Y64000D01*
Y64400D02*
X287500Y65200D01*
X288300D01*
X287900Y64400D01*
X275400Y63500D02*
X274600Y65100D01*
X276200D01*
X275400Y63500D01*
Y63900D02*
X275000Y64700D01*
X275800D01*
X275400Y63900D01*
X263600Y62700D02*
X262800Y64300D01*
X264400D01*
X263600Y62700D01*
Y63100D02*
X263200Y63900D01*
X264000D01*
X263600Y63100D01*
X255900Y80500D02*
X255100Y82100D01*
X256700D01*
X255900Y80500D01*
Y80900D02*
X255500Y81700D01*
X256300D01*
X255900Y80900D01*
X273900Y80700D02*
X273100Y82300D01*
X274700D01*
X273900Y80700D01*
Y81100D02*
X273500Y81900D01*
X274300D01*
X273900Y81100D01*
X293700Y80800D02*
X292900Y82400D01*
X294500D01*
X293700Y80800D01*
Y81200D02*
X293300Y82000D01*
X294100D01*
X293700Y81200D01*
X318400Y81300D02*
X317600Y82900D01*
X319200D01*
X318400Y81300D01*
Y81700D02*
X318000Y82500D01*
X318800D01*
X318400Y81700D01*
X347200Y82100D02*
X346400Y83700D01*
X348000D01*
X347200Y82100D01*
Y82500D02*
X346800Y83300D01*
X347600D01*
X347200Y82500D01*
X256500Y90200D02*
X255700Y91800D01*
X257300D01*
X256500Y90200D01*
Y90600D02*
X256100Y91400D01*
X256900D01*
X256500Y90600D01*
X274500Y90400D02*
X273700Y92000D01*
X275300D01*
X274500Y90400D01*
Y90800D02*
X274100Y91600D01*
X274900D01*
X274500Y90800D01*
X294300Y90500D02*
X293500Y92100D01*
X295100D01*
X294300Y90500D01*
Y90900D02*
X293900Y91700D01*
X294700D01*
X294300Y90900D01*
X319000Y91000D02*
X318200Y92600D01*
X319800D01*
X319000Y91000D01*
Y91400D02*
X318600Y92200D01*
X319400D01*
X319000Y91400D01*
X341700D02*
X340900Y93000D01*
X342500D01*
X341700Y91400D01*
Y91800D02*
X341300Y92600D01*
X342100D01*
X341700Y91800D01*
X340900Y101200D02*
X340100Y102800D01*
X341700D01*
X340900Y101200D01*
Y101600D02*
X340500Y102400D01*
X341300D01*
X340900Y101600D01*
X318200Y100800D02*
X317400Y102400D01*
X319000D01*
X318200Y100800D01*
Y101200D02*
X317800Y102000D01*
X318600D01*
X318200Y101200D01*
X293500Y100300D02*
X292700Y101900D01*
X294300D01*
X293500Y100300D01*
Y100700D02*
X293100Y101500D01*
X293900D01*
X293500Y100700D01*
X273700Y100200D02*
X272900Y101800D01*
X274500D01*
X273700Y100200D01*
Y100600D02*
X273300Y101400D01*
X274100D01*
X273700Y100600D01*
X255700Y100000D02*
X254900Y101600D01*
X256500D01*
X255700Y100000D01*
Y100400D02*
X255300Y101200D01*
X256100D01*
X255700Y100400D01*
X312350Y33950D02*
X311550Y35550D01*
X313150D01*
X312350Y33950D01*
Y34350D02*
X311950Y35150D01*
X312750D01*
X312350Y34350D01*
X331700Y32000D02*
X330900Y33600D01*
X332500D01*
X331700Y32000D01*
Y32400D02*
X331300Y33200D01*
X332100D01*
X331700Y32400D01*
X326800Y32100D02*
X326000Y33700D01*
X327600D01*
X326800Y32100D01*
Y32500D02*
X326400Y33300D01*
X327200D01*
X326800Y32500D01*
X331100Y36400D02*
X330300Y38000D01*
X331900D01*
X331100Y36400D01*
Y36800D02*
X330700Y37600D01*
X331500D01*
X331100Y36800D01*
X326800Y36300D02*
X326000Y37900D01*
X327600D01*
X326800Y36300D01*
Y36700D02*
X326400Y37500D01*
X327200D01*
X326800Y36700D01*
X330800Y40700D02*
X330000Y42300D01*
X331600D01*
X330800Y40700D01*
Y41100D02*
X330400Y41900D01*
X331200D01*
X330800Y41100D01*
X326000Y40700D02*
X325200Y42300D01*
X326800D01*
X326000Y40700D01*
Y41100D02*
X325600Y41900D01*
X326400D01*
X326000Y41100D01*
X181100Y14300D02*
X180300Y15900D01*
X181900D01*
X181100Y14300D01*
Y14700D02*
X180700Y15500D01*
X181500D01*
X181100Y14700D01*
X487100Y249800D02*
X486300Y251400D01*
X487900D01*
X487100Y249800D01*
Y250200D02*
X486700Y251000D01*
X487500D01*
X487100Y250200D01*
X487000Y254700D02*
X486200Y256300D01*
X487800D01*
X487000Y254700D01*
Y255100D02*
X486600Y255900D01*
X487400D01*
X487000Y255100D01*
X483000Y250200D02*
X482200Y251800D01*
X483800D01*
X483000Y250200D01*
Y250600D02*
X482600Y251400D01*
X483400D01*
X483000Y250600D01*
Y254200D02*
X482200Y255800D01*
X483800D01*
X483000Y254200D01*
Y254600D02*
X482600Y255400D01*
X483400D01*
X483000Y254600D01*
X477700Y250900D02*
X476900Y252500D01*
X478500D01*
X477700Y250900D01*
Y251300D02*
X477300Y252100D01*
X478100D01*
X477700Y251300D01*
Y255300D02*
X476900Y256900D01*
X478500D01*
X477700Y255300D01*
Y255700D02*
X477300Y256500D01*
X478100D01*
X477700Y255700D01*
X367000Y158900D02*
X366200Y160500D01*
X367800D01*
X367000Y158900D01*
Y159300D02*
X366600Y160100D01*
X367400D01*
X367000Y159300D01*
X375400Y159100D02*
X374600Y160700D01*
X376200D01*
X375400Y159100D01*
Y159500D02*
X375000Y160300D01*
X375800D01*
X375400Y159500D01*
X367000Y152000D02*
X366200Y153600D01*
X367800D01*
X367000Y152000D01*
Y152400D02*
X366600Y153200D01*
X367400D01*
X367000Y152400D01*
X375200Y152000D02*
X374400Y153600D01*
X376000D01*
X375200Y152000D01*
Y152400D02*
X374800Y153200D01*
X375600D01*
X375200Y152400D01*
X366900Y145200D02*
X366100Y146800D01*
X367700D01*
X366900Y145200D01*
Y145600D02*
X366500Y146400D01*
X367300D01*
X366900Y145600D01*
X375600Y145000D02*
X374800Y146600D01*
X376400D01*
X375600Y145000D01*
Y145400D02*
X375200Y146200D01*
X376000D01*
X375600Y145400D01*
X396000Y145200D02*
X395200Y146800D01*
X396800D01*
X396000Y145200D01*
Y145600D02*
X395600Y146400D01*
X396400D01*
X396000Y145600D01*
X387300Y145400D02*
X386500Y147000D01*
X388100D01*
X387300Y145400D01*
Y145800D02*
X386900Y146600D01*
X387700D01*
X387300Y145800D01*
X395600Y152200D02*
X394800Y153800D01*
X396400D01*
X395600Y152200D01*
Y152600D02*
X395200Y153400D01*
X396000D01*
X395600Y152600D01*
X387400Y152200D02*
X386600Y153800D01*
X388200D01*
X387400Y152200D01*
Y152600D02*
X387000Y153400D01*
X387800D01*
X387400Y152600D01*
X395800Y159300D02*
X395000Y160900D01*
X396600D01*
X395800Y159300D01*
Y159700D02*
X395400Y160500D01*
X396200D01*
X395800Y159700D01*
X387400Y159100D02*
X386600Y160700D01*
X388200D01*
X387400Y159100D01*
Y159500D02*
X387000Y160300D01*
X387800D01*
X387400Y159500D01*
Y139800D02*
X386600Y141400D01*
X388200D01*
X387400Y139800D01*
Y140200D02*
X387000Y141000D01*
X387800D01*
X387400Y140200D01*
X395800Y140000D02*
X395000Y141600D01*
X396600D01*
X395800Y140000D01*
Y140400D02*
X395400Y141200D01*
X396200D01*
X395800Y140400D01*
X387400Y132900D02*
X386600Y134500D01*
X388200D01*
X387400Y132900D01*
Y133300D02*
X387000Y134100D01*
X387800D01*
X387400Y133300D01*
X395600Y132900D02*
X394800Y134500D01*
X396400D01*
X395600Y132900D01*
Y133300D02*
X395200Y134100D01*
X396000D01*
X395600Y133300D01*
X387300Y126100D02*
X386500Y127700D01*
X388100D01*
X387300Y126100D01*
Y126500D02*
X386900Y127300D01*
X387700D01*
X387300Y126500D01*
X396000Y125900D02*
X395200Y127500D01*
X396800D01*
X396000Y125900D01*
Y126300D02*
X395600Y127100D01*
X396400D01*
X396000Y126300D01*
X375600Y125700D02*
X374800Y127300D01*
X376400D01*
X375600Y125700D01*
Y126100D02*
X375200Y126900D01*
X376000D01*
X375600Y126100D01*
X366900Y125900D02*
X366100Y127500D01*
X367700D01*
X366900Y125900D01*
Y126300D02*
X366500Y127100D01*
X367300D01*
X366900Y126300D01*
X375200Y132700D02*
X374400Y134300D01*
X376000D01*
X375200Y132700D01*
Y133100D02*
X374800Y133900D01*
X375600D01*
X375200Y133100D01*
X367000Y132700D02*
X366200Y134300D01*
X367800D01*
X367000Y132700D01*
Y133100D02*
X366600Y133900D01*
X367400D01*
X367000Y133100D01*
X375400Y139800D02*
X374600Y141400D01*
X376200D01*
X375400Y139800D01*
Y140200D02*
X375000Y141000D01*
X375800D01*
X375400Y140200D01*
X367000Y139600D02*
X366200Y141200D01*
X367800D01*
X367000Y139600D01*
Y140000D02*
X366600Y140800D01*
X367400D01*
X367000Y140000D01*
X366100Y224600D02*
X365300Y226200D01*
X366900D01*
X366100Y224600D01*
Y225000D02*
X365700Y225800D01*
X366500D01*
X366100Y225000D01*
X374500Y224800D02*
X373700Y226400D01*
X375300D01*
X374500Y224800D01*
Y225200D02*
X374100Y226000D01*
X374900D01*
X374500Y225200D01*
X366100Y217700D02*
X365300Y219300D01*
X366900D01*
X366100Y217700D01*
Y218100D02*
X365700Y218900D01*
X366500D01*
X366100Y218100D01*
X374300Y217700D02*
X373500Y219300D01*
X375100D01*
X374300Y217700D01*
Y218100D02*
X373900Y218900D01*
X374700D01*
X374300Y218100D01*
X366000Y210900D02*
X365200Y212500D01*
X366800D01*
X366000Y210900D01*
Y211300D02*
X365600Y212100D01*
X366400D01*
X366000Y211300D01*
X374700Y210700D02*
X373900Y212300D01*
X375500D01*
X374700Y210700D01*
Y211100D02*
X374300Y211900D01*
X375100D01*
X374700Y211100D01*
X395100Y210900D02*
X394300Y212500D01*
X395900D01*
X395100Y210900D01*
Y211300D02*
X394700Y212100D01*
X395500D01*
X395100Y211300D01*
X386400Y211100D02*
X385600Y212700D01*
X387200D01*
X386400Y211100D01*
Y211500D02*
X386000Y212300D01*
X386800D01*
X386400Y211500D01*
X394700Y217900D02*
X393900Y219500D01*
X395500D01*
X394700Y217900D01*
Y218300D02*
X394300Y219100D01*
X395100D01*
X394700Y218300D01*
X386500Y217900D02*
X385700Y219500D01*
X387300D01*
X386500Y217900D01*
Y218300D02*
X386100Y219100D01*
X386900D01*
X386500Y218300D01*
X394900Y225000D02*
X394100Y226600D01*
X395700D01*
X394900Y225000D01*
Y225400D02*
X394500Y226200D01*
X395300D01*
X394900Y225400D01*
X386500Y224800D02*
X385700Y226400D01*
X387300D01*
X386500Y224800D01*
Y225200D02*
X386100Y226000D01*
X386900D01*
X386500Y225200D01*
Y244100D02*
X385700Y245700D01*
X387300D01*
X386500Y244100D01*
Y244500D02*
X386100Y245300D01*
X386900D01*
X386500Y244500D01*
X394900Y244300D02*
X394100Y245900D01*
X395700D01*
X394900Y244300D01*
Y244700D02*
X394500Y245500D01*
X395300D01*
X394900Y244700D01*
X386500Y237200D02*
X385700Y238800D01*
X387300D01*
X386500Y237200D01*
Y237600D02*
X386100Y238400D01*
X386900D01*
X386500Y237600D01*
X394700Y237200D02*
X393900Y238800D01*
X395500D01*
X394700Y237200D01*
Y237600D02*
X394300Y238400D01*
X395100D01*
X394700Y237600D01*
X386400Y230400D02*
X385600Y232000D01*
X387200D01*
X386400Y230400D01*
Y230800D02*
X386000Y231600D01*
X386800D01*
X386400Y230800D01*
X395100Y230200D02*
X394300Y231800D01*
X395900D01*
X395100Y230200D01*
Y230600D02*
X394700Y231400D01*
X395500D01*
X395100Y230600D01*
X374700Y230000D02*
X373900Y231600D01*
X375500D01*
X374700Y230000D01*
Y230400D02*
X374300Y231200D01*
X375100D01*
X374700Y230400D01*
X366000Y230200D02*
X365200Y231800D01*
X366800D01*
X366000Y230200D01*
Y230600D02*
X365600Y231400D01*
X366400D01*
X366000Y230600D01*
X374300Y237000D02*
X373500Y238600D01*
X375100D01*
X374300Y237000D01*
Y237400D02*
X373900Y238200D01*
X374700D01*
X374300Y237400D01*
X366100Y237000D02*
X365300Y238600D01*
X366900D01*
X366100Y237000D01*
Y237400D02*
X365700Y238200D01*
X366500D01*
X366100Y237400D01*
X374500Y244100D02*
X373700Y245700D01*
X375300D01*
X374500Y244100D01*
Y244500D02*
X374100Y245300D01*
X374900D01*
X374500Y244500D01*
X366100Y243900D02*
X365300Y245500D01*
X366900D01*
X366100Y243900D01*
Y244300D02*
X365700Y245100D01*
X366500D01*
X366100Y244300D01*
X78100Y291800D02*
X77300Y293400D01*
X78900D01*
X78100Y291800D01*
Y292200D02*
X77700Y293000D01*
X78500D01*
X78100Y292200D01*
X363800Y302100D02*
X363000Y303700D01*
X364600D01*
X363800Y302100D01*
Y302500D02*
X363400Y303300D01*
X364200D01*
X363800Y302500D01*
Y296600D02*
X363000Y298200D01*
X364600D01*
X363800Y296600D01*
Y297000D02*
X363400Y297800D01*
X364200D01*
X363800Y297000D01*
X379901Y17691D02*
X379101Y19291D01*
X380701D01*
X379901Y17691D01*
Y18091D02*
X379501Y18891D01*
X380301D01*
X379901Y18091D01*
X206900Y9300D02*
X206100Y10900D01*
X207700D01*
X206900Y9300D01*
Y9700D02*
X206500Y10500D01*
X207300D01*
X206900Y9700D01*
X207100Y15400D02*
X206300Y17000D01*
X207900D01*
X207100Y15400D01*
Y15800D02*
X206700Y16600D01*
X207500D01*
X207100Y15800D01*
X378500Y8100D02*
X377700Y9700D01*
X379300D01*
X378500Y8100D01*
Y8500D02*
X378100Y9300D01*
X378900D01*
X378500Y8500D01*
X395700Y7200D02*
X394900Y8800D01*
X396500D01*
X395700Y7200D01*
Y7600D02*
X395300Y8400D01*
X396100D01*
X395700Y7600D01*
X410800Y8200D02*
X410000Y9800D01*
X411600D01*
X410800Y8200D01*
Y8600D02*
X410400Y9400D01*
X411200D01*
X410800Y8600D01*
X386500Y35800D02*
X385700Y37400D01*
X387300D01*
X386500Y35800D01*
Y36200D02*
X386100Y37000D01*
X386900D01*
X386500Y36200D01*
X396100Y48800D02*
X395300Y50400D01*
X396900D01*
X396100Y48800D01*
Y49200D02*
X395700Y50000D01*
X396500D01*
X396100Y49200D01*
X412300Y50100D02*
X411500Y51700D01*
X413100D01*
X412300Y50100D01*
Y50500D02*
X411900Y51300D01*
X412700D01*
X412300Y50500D01*
X397900Y33800D02*
X397100Y35400D01*
X398700D01*
X397900Y33800D01*
Y34200D02*
X397500Y35000D01*
X398300D01*
X397900Y34200D01*
X411300Y36900D02*
X410500Y38500D01*
X412100D01*
X411300Y36900D01*
Y37300D02*
X410900Y38100D01*
X411700D01*
X411300Y37300D01*
X431700Y38600D02*
X430900Y40200D01*
X432500D01*
X431700Y38600D01*
Y39000D02*
X431300Y39800D01*
X432100D01*
X431700Y39000D01*
X431900Y51000D02*
X431100Y52600D01*
X432700D01*
X431900Y51000D01*
Y51400D02*
X431500Y52200D01*
X432300D01*
X431900Y51400D01*
X432500Y61100D02*
X431700Y62700D01*
X433300D01*
X432500Y61100D01*
Y61500D02*
X432100Y62300D01*
X432900D01*
X432500Y61500D01*
X414900Y60000D02*
X414100Y61600D01*
X415700D01*
X414900Y60000D01*
Y60400D02*
X414500Y61200D01*
X415300D01*
X414900Y60400D01*
X396100Y59900D02*
X395300Y61500D01*
X396900D01*
X396100Y59900D01*
Y60300D02*
X395700Y61100D01*
X396500D01*
X396100Y60300D01*
X433200Y73800D02*
X432400Y75400D01*
X434000D01*
X433200Y73800D01*
Y74200D02*
X432800Y75000D01*
X433600D01*
X433200Y74200D01*
X414600Y71800D02*
X413800Y73400D01*
X415400D01*
X414600Y71800D01*
Y72200D02*
X414200Y73000D01*
X415000D01*
X414600Y72200D01*
X397400Y71600D02*
X396600Y73200D01*
X398200D01*
X397400Y71600D01*
Y72000D02*
X397000Y72800D01*
X397800D01*
X397400Y72000D01*
X421100Y136100D02*
X420300Y137700D01*
X421900D01*
X421100Y136100D01*
Y136500D02*
X420700Y137300D01*
X421500D01*
X421100Y136500D01*
X421900Y143600D02*
X421100Y145200D01*
X422700D01*
X421900Y143600D01*
Y144000D02*
X421500Y144800D01*
X422300D01*
X421900Y144000D01*
X417000Y145600D02*
X416200Y147200D01*
X417800D01*
X417000Y145600D01*
Y146000D02*
X416600Y146800D01*
X417400D01*
X417000Y146000D01*
X407100Y128300D02*
X406300Y129900D01*
X407900D01*
X407100Y128300D01*
Y128700D02*
X406700Y129500D01*
X407500D01*
X407100Y128700D01*
X406600Y137600D02*
X405800Y139200D01*
X407400D01*
X406600Y137600D01*
Y138000D02*
X406200Y138800D01*
X407000D01*
X406600Y138000D01*
X405400Y144500D02*
X404600Y146100D01*
X406200D01*
X405400Y144500D01*
Y144900D02*
X405000Y145700D01*
X405800D01*
X405400Y144900D01*
X406700Y151000D02*
X405900Y152600D01*
X407500D01*
X406700Y151000D01*
Y151400D02*
X406300Y152200D01*
X407100D01*
X406700Y151400D01*
X407100Y156200D02*
X406300Y157800D01*
X407900D01*
X407100Y156200D01*
Y156600D02*
X406700Y157400D01*
X407500D01*
X407100Y156600D01*
X313400Y135700D02*
X312600Y137300D01*
X314200D01*
X313400Y135700D01*
Y136100D02*
X313000Y136900D01*
X313800D01*
X313400Y136100D01*
X388801Y118291D02*
X388001Y119891D01*
X389601D01*
X388801Y118291D01*
Y118691D02*
X388401Y119491D01*
X389201D01*
X388801Y118691D01*
X398801Y118891D02*
X398001Y120491D01*
X399601D01*
X398801Y118891D01*
Y119291D02*
X398401Y120091D01*
X399201D01*
X398801Y119291D01*
X367201Y117691D02*
X366401Y119291D01*
X368001D01*
X367201Y117691D01*
Y118091D02*
X366801Y118891D01*
X367601D01*
X367201Y118091D01*
X377201Y118291D02*
X376401Y119891D01*
X378001D01*
X377201Y118291D01*
Y118691D02*
X376801Y119491D01*
X377601D01*
X377201Y118691D01*
X343301Y117491D02*
X342501Y119091D01*
X344101D01*
X343301Y117491D01*
Y117891D02*
X342901Y118691D01*
X343701D01*
X343301Y117891D01*
X353301Y118091D02*
X352501Y119691D01*
X354101D01*
X353301Y118091D01*
Y118491D02*
X352901Y119291D01*
X353701D01*
X353301Y118491D01*
X343601Y128191D02*
X342801Y129791D01*
X344401D01*
X343601Y128191D01*
Y128591D02*
X343201Y129391D01*
X344001D01*
X343601Y128591D01*
X353601Y128791D02*
X352801Y130391D01*
X354401D01*
X353601Y128791D01*
Y129191D02*
X353201Y129991D01*
X354001D01*
X353601Y129191D01*
X320901Y115591D02*
X320101Y117191D01*
X321701D01*
X320901Y115591D01*
Y115991D02*
X320501Y116791D01*
X321301D01*
X320901Y115991D01*
X330901Y116191D02*
X330101Y117791D01*
X331701D01*
X330901Y116191D01*
Y116591D02*
X330501Y117391D01*
X331301D01*
X330901Y116591D01*
X321201Y126291D02*
X320401Y127891D01*
X322001D01*
X321201Y126291D01*
Y126691D02*
X320801Y127491D01*
X321601D01*
X321201Y126691D01*
X331201Y126891D02*
X330401Y128491D01*
X332001D01*
X331201Y126891D01*
Y127291D02*
X330801Y128091D01*
X331601D01*
X331201Y127291D01*
X301201Y115291D02*
X300401Y116891D01*
X302001D01*
X301201Y115291D01*
Y115691D02*
X300801Y116491D01*
X301601D01*
X301201Y115691D01*
X311201Y115891D02*
X310401Y117491D01*
X312001D01*
X311201Y115891D01*
Y116291D02*
X310801Y117091D01*
X311601D01*
X311201Y116291D01*
X301701Y126091D02*
X300901Y127691D01*
X302501D01*
X301701Y126091D01*
Y126491D02*
X301301Y127291D01*
X302101D01*
X301701Y126491D01*
X311701Y126691D02*
X310901Y128291D01*
X312501D01*
X311701Y126691D01*
Y127091D02*
X311301Y127891D01*
X312101D01*
X311701Y127091D01*
X301600Y134300D02*
X300800Y135900D01*
X302400D01*
X301600Y134300D01*
Y134700D02*
X301200Y135500D01*
X302000D01*
X301600Y134700D01*
X311400Y144900D02*
X310600Y146500D01*
X312200D01*
X311400Y144900D01*
Y145300D02*
X311000Y146100D01*
X311800D01*
X311400Y145300D01*
X301400Y144300D02*
X300600Y145900D01*
X302200D01*
X301400Y144300D01*
Y144700D02*
X301000Y145500D01*
X301800D01*
X301400Y144700D01*
X311000Y155300D02*
X310200Y156900D01*
X311800D01*
X311000Y155300D01*
Y155700D02*
X310600Y156500D01*
X311400D01*
X311000Y155700D01*
X310700Y164300D02*
X309900Y165900D01*
X311500D01*
X310700Y164300D01*
Y164700D02*
X310300Y165500D01*
X311100D01*
X310700Y164700D01*
X301500Y154600D02*
X300700Y156200D01*
X302300D01*
X301500Y154600D01*
Y155000D02*
X301100Y155800D01*
X301900D01*
X301500Y155000D01*
X301000Y164400D02*
X300200Y166000D01*
X301800D01*
X301000Y164400D01*
Y164800D02*
X300600Y165600D01*
X301400D01*
X301000Y164800D01*
X352300Y137500D02*
X351500Y139100D01*
X353100D01*
X352300Y137500D01*
Y137900D02*
X351900Y138700D01*
X352700D01*
X352300Y137900D01*
X352500Y146000D02*
X351700Y147600D01*
X353300D01*
X352500Y146000D01*
Y146400D02*
X352100Y147200D01*
X352900D01*
X352500Y146400D01*
X338400Y137100D02*
X337600Y138700D01*
X339200D01*
X338400Y137100D01*
Y137500D02*
X338000Y138300D01*
X338800D01*
X338400Y137500D01*
X338200Y145500D02*
X337400Y147100D01*
X339000D01*
X338200Y145500D01*
Y145900D02*
X337800Y146700D01*
X338600D01*
X338200Y145900D01*
X357600Y152900D02*
X356800Y154500D01*
X358400D01*
X357600Y152900D01*
Y153300D02*
X357200Y154100D01*
X358000D01*
X357600Y153300D01*
X357300Y160700D02*
X356500Y162300D01*
X358100D01*
X357300Y160700D01*
Y161100D02*
X356900Y161900D01*
X357700D01*
X357300Y161100D01*
X347400Y153800D02*
X346600Y155400D01*
X348200D01*
X347400Y153800D01*
Y154200D02*
X347000Y155000D01*
X347800D01*
X347400Y154200D01*
X336700Y153200D02*
X335900Y154800D01*
X337500D01*
X336700Y153200D01*
Y153600D02*
X336300Y154400D01*
X337100D01*
X336700Y153600D01*
X331400Y153500D02*
X330600Y155100D01*
X332200D01*
X331400Y153500D01*
Y153900D02*
X331000Y154700D01*
X331800D01*
X331400Y153900D01*
X339200Y161100D02*
X338400Y162700D01*
X340000D01*
X339200Y161100D01*
Y161500D02*
X338800Y162300D01*
X339600D01*
X339200Y161500D01*
X338300Y168100D02*
X337500Y169700D01*
X339100D01*
X338300Y168100D01*
Y168500D02*
X337900Y169300D01*
X338700D01*
X338300Y168500D01*
X353300Y169000D02*
X352500Y170600D01*
X354100D01*
X353300Y169000D01*
Y169400D02*
X352900Y170200D01*
X353700D01*
X353300Y169400D01*
X427200Y190900D02*
X426400Y192500D01*
X428000D01*
X427200Y190900D01*
Y191300D02*
X426800Y192100D01*
X427600D01*
X427200Y191300D01*
X428200Y203500D02*
X427400Y205100D01*
X429000D01*
X428200Y203500D01*
Y203900D02*
X427800Y204700D01*
X428600D01*
X428200Y203900D01*
X353500Y191000D02*
X352700Y192600D01*
X354300D01*
X353500Y191000D01*
Y191400D02*
X353100Y192200D01*
X353900D01*
X353500Y191400D01*
X337000Y189100D02*
X336200Y190700D01*
X337800D01*
X337000Y189100D01*
Y189500D02*
X336600Y190300D01*
X337400D01*
X337000Y189500D01*
X314900Y188900D02*
X314100Y190500D01*
X315700D01*
X314900Y188900D01*
Y189300D02*
X314500Y190100D01*
X315300D01*
X314900Y189300D01*
X321500Y197600D02*
X320700Y199200D01*
X322300D01*
X321500Y197600D01*
Y198000D02*
X321100Y198800D01*
X321900D01*
X321500Y198000D01*
X198200Y52800D02*
X197400Y54400D01*
X199000D01*
X198200Y52800D01*
Y53200D02*
X197800Y54000D01*
X198600D01*
X198200Y53200D01*
X203600Y59200D02*
X202800Y60800D01*
X204400D01*
X203600Y59200D01*
Y59600D02*
X203200Y60400D01*
X204000D01*
X203600Y59600D01*
X207100Y75100D02*
X206300Y76700D01*
X207900D01*
X207100Y75100D01*
Y75500D02*
X206700Y76300D01*
X207500D01*
X207100Y75500D01*
X231800Y90300D02*
X231000Y91900D01*
X232600D01*
X231800Y90300D01*
Y90700D02*
X231400Y91500D01*
X232200D01*
X231800Y90700D01*
X214000Y89600D02*
X213200Y91200D01*
X214800D01*
X214000Y89600D01*
Y90000D02*
X213600Y90800D01*
X214400D01*
X214000Y90000D01*
X230900Y102900D02*
X230100Y104500D01*
X231700D01*
X230900Y102900D01*
Y103300D02*
X230500Y104100D01*
X231300D01*
X230900Y103300D01*
X212900Y102700D02*
X212100Y104300D01*
X213700D01*
X212900Y102700D01*
Y103100D02*
X212500Y103900D01*
X213300D01*
X212900Y103100D01*
X171800Y84100D02*
X171000Y85700D01*
X172600D01*
X171800Y84100D01*
Y84500D02*
X171400Y85300D01*
X172200D01*
X171800Y84500D01*
X179400Y101600D02*
X178600Y103200D01*
X180200D01*
X179400Y101600D01*
Y102000D02*
X179000Y102800D01*
X179800D01*
X179400Y102000D01*
X184400Y93200D02*
X183600Y94800D01*
X185200D01*
X184400Y93200D01*
Y93600D02*
X184000Y94400D01*
X184800D01*
X184400Y93600D01*
X193100Y102800D02*
X192300Y104400D01*
X193900D01*
X193100Y102800D01*
Y103200D02*
X192700Y104000D01*
X193500D01*
X193100Y103200D01*
X159100Y84500D02*
X158300Y86100D01*
X159900D01*
X159100Y84500D01*
Y84900D02*
X158700Y85700D01*
X159500D01*
X159100Y84900D01*
X149700Y93000D02*
X148900Y94600D01*
X150500D01*
X149700Y93000D01*
Y93400D02*
X149300Y94200D01*
X150100D01*
X149700Y93400D01*
X129600Y86600D02*
X128800Y88200D01*
X130400D01*
X129600Y86600D01*
Y87000D02*
X129200Y87800D01*
X130000D01*
X129600Y87000D01*
X142500Y101100D02*
X141700Y102700D01*
X143300D01*
X142500Y101100D01*
Y101500D02*
X142100Y102300D01*
X142900D01*
X142500Y101500D01*
X164100Y143400D02*
X163300Y145000D01*
X164900D01*
X164100Y143400D01*
Y143800D02*
X163700Y144600D01*
X164500D01*
X164100Y143800D01*
X163500Y151200D02*
X162700Y152800D01*
X164300D01*
X163500Y151200D01*
Y151600D02*
X163100Y152400D01*
X163900D01*
X163500Y151600D01*
X164400Y160600D02*
X163600Y162200D01*
X165200D01*
X164400Y160600D01*
Y161000D02*
X164000Y161800D01*
X164800D01*
X164400Y161000D01*
X185100Y208100D02*
X184300Y209700D01*
X185900D01*
X185100Y208100D01*
Y208500D02*
X184700Y209300D01*
X185500D01*
X185100Y208500D01*
X191100Y213800D02*
X190300Y215400D01*
X191900D01*
X191100Y213800D01*
Y214200D02*
X190700Y215000D01*
X191500D01*
X191100Y214200D01*
X212400Y198600D02*
X211600Y200200D01*
X213200D01*
X212400Y198600D01*
Y199000D02*
X212000Y199800D01*
X212800D01*
X212400Y199000D01*
X247700Y146300D02*
X246900Y147900D01*
X248500D01*
X247700Y146300D01*
Y146700D02*
X247300Y147500D01*
X248100D01*
X247700Y146700D01*
X259000Y145700D02*
X258200Y147300D01*
X259800D01*
X259000Y145700D01*
Y146100D02*
X258600Y146900D01*
X259400D01*
X259000Y146100D01*
X259600Y138900D02*
X258800Y140500D01*
X260400D01*
X259600Y138900D01*
Y139300D02*
X259200Y140100D01*
X260000D01*
X259600Y139300D01*
X246600Y138600D02*
X245800Y140200D01*
X247400D01*
X246600Y138600D01*
Y139000D02*
X246200Y139800D01*
X247000D01*
X246600Y139000D01*
X230900Y139200D02*
X230100Y140800D01*
X231700D01*
X230900Y139200D01*
Y139600D02*
X230500Y140400D01*
X231300D01*
X230900Y139600D01*
X216500Y139000D02*
X215700Y140600D01*
X217300D01*
X216500Y139000D01*
Y139400D02*
X216100Y140200D01*
X216900D01*
X216500Y139400D01*
X227700Y144400D02*
X226900Y146000D01*
X228500D01*
X227700Y144400D01*
Y144800D02*
X227300Y145600D01*
X228100D01*
X227700Y144800D01*
X220900Y149200D02*
X220100Y150800D01*
X221700D01*
X220900Y149200D01*
Y149600D02*
X220500Y150400D01*
X221300D01*
X220900Y149600D01*
X226500Y155200D02*
X225700Y156800D01*
X227300D01*
X226500Y155200D01*
Y155600D02*
X226100Y156400D01*
X226900D01*
X226500Y155600D01*
X242800Y156100D02*
X242000Y157700D01*
X243600D01*
X242800Y156100D01*
Y156500D02*
X242400Y157300D01*
X243200D01*
X242800Y156500D01*
X255400Y156100D02*
X254600Y157700D01*
X256200D01*
X255400Y156100D01*
Y156500D02*
X255000Y157300D01*
X255800D01*
X255400Y156500D01*
X257200Y169100D02*
X256400Y170700D01*
X258000D01*
X257200Y169100D01*
Y169500D02*
X256800Y170300D01*
X257600D01*
X257200Y169500D01*
X246600Y170500D02*
X245800Y172100D01*
X247400D01*
X246600Y170500D01*
Y170900D02*
X246200Y171700D01*
X247000D01*
X246600Y170900D01*
X223200Y171400D02*
X222400Y173000D01*
X224000D01*
X223200Y171400D01*
Y171800D02*
X222800Y172600D01*
X223600D01*
X223200Y171800D01*
X215400Y176200D02*
X214600Y177800D01*
X216200D01*
X215400Y176200D01*
Y176600D02*
X215000Y177400D01*
X215800D01*
X215400Y176600D01*
X228700Y184200D02*
X227900Y185800D01*
X229500D01*
X228700Y184200D01*
Y184600D02*
X228300Y185400D01*
X229100D01*
X228700Y184600D01*
X216000Y187800D02*
X215200Y189400D01*
X216800D01*
X216000Y187800D01*
Y188200D02*
X215600Y189000D01*
X216400D01*
X216000Y188200D01*
X233100Y205600D02*
X232300Y207200D01*
X233900D01*
X233100Y205600D01*
Y206000D02*
X232700Y206800D01*
X233500D01*
X233100Y206000D01*
X235000Y215600D02*
X234200Y217200D01*
X235800D01*
X235000Y215600D01*
Y216000D02*
X234600Y216800D01*
X235400D01*
X235000Y216000D01*
X209900Y207500D02*
X209100Y209100D01*
X210700D01*
X209900Y207500D01*
Y207900D02*
X209500Y208700D01*
X210300D01*
X209900Y207900D01*
X217300Y216500D02*
X216500Y218100D01*
X218100D01*
X217300Y216500D01*
Y216900D02*
X216900Y217700D01*
X217700D01*
X217300Y216900D01*
X227300Y226500D02*
X226500Y228100D01*
X228100D01*
X227300Y226500D01*
Y226900D02*
X226900Y227700D01*
X227700D01*
X227300Y226900D01*
X235000Y232300D02*
X234200Y233900D01*
X235800D01*
X235000Y232300D01*
Y232700D02*
X234600Y233500D01*
X235400D01*
X235000Y232700D01*
X243174Y226389D02*
X242374Y227989D01*
X243974D01*
X243174Y226389D01*
Y226789D02*
X242774Y227589D01*
X243574D01*
X243174Y226789D01*
X243774Y235389D02*
X242974Y236989D01*
X244574D01*
X243774Y235389D01*
Y235789D02*
X243374Y236589D01*
X244174D01*
X243774Y235789D01*
X243274Y245089D02*
X242474Y246689D01*
X244074D01*
X243274Y245089D01*
Y245489D02*
X242874Y246289D01*
X243674D01*
X243274Y245489D01*
X253200Y228100D02*
X252400Y229700D01*
X254000D01*
X253200Y228100D01*
Y228500D02*
X252800Y229300D01*
X253600D01*
X253200Y228500D01*
X253800Y237100D02*
X253000Y238700D01*
X254600D01*
X253800Y237100D01*
Y237500D02*
X253400Y238300D01*
X254200D01*
X253800Y237500D01*
X253300Y246800D02*
X252500Y248400D01*
X254100D01*
X253300Y246800D01*
Y247200D02*
X252900Y248000D01*
X253700D01*
X253300Y247200D01*
X235189Y191726D02*
X234389Y193326D01*
X235989D01*
X235189Y191726D01*
Y192126D02*
X234789Y192926D01*
X235589D01*
X235189Y192126D01*
X244189Y191126D02*
X243389Y192726D01*
X244989D01*
X244189Y191126D01*
Y191526D02*
X243789Y192326D01*
X244589D01*
X244189Y191526D01*
X253889Y191626D02*
X253089Y193226D01*
X254689D01*
X253889Y191626D01*
Y192026D02*
X253489Y192826D01*
X254289D01*
X253889Y192026D01*
X236900Y181700D02*
X236100Y183300D01*
X237700D01*
X236900Y181700D01*
Y182100D02*
X236500Y182900D01*
X237300D01*
X236900Y182100D01*
X245900Y181100D02*
X245100Y182700D01*
X246700D01*
X245900Y181100D01*
Y181500D02*
X245500Y182300D01*
X246300D01*
X245900Y181500D01*
X255600Y181600D02*
X254800Y183200D01*
X256400D01*
X255600Y181600D01*
Y182000D02*
X255200Y182800D01*
X256000D01*
X255600Y182000D01*
X186389Y153126D02*
X185589Y154726D01*
X187189D01*
X186389Y153126D01*
Y153526D02*
X185989Y154326D01*
X186789D01*
X186389Y153526D01*
X195389Y152526D02*
X194589Y154126D01*
X196189D01*
X195389Y152526D01*
Y152926D02*
X194989Y153726D01*
X195789D01*
X195389Y152926D01*
X205089Y153026D02*
X204289Y154626D01*
X205889D01*
X205089Y153026D01*
Y153426D02*
X204689Y154226D01*
X205489D01*
X205089Y153426D01*
X188100Y143100D02*
X187300Y144700D01*
X188900D01*
X188100Y143100D01*
Y143500D02*
X187700Y144300D01*
X188500D01*
X188100Y143500D01*
X197100Y142500D02*
X196300Y144100D01*
X197900D01*
X197100Y142500D01*
Y142900D02*
X196700Y143700D01*
X197500D01*
X197100Y142900D01*
X206800Y143000D02*
X206000Y144600D01*
X207600D01*
X206800Y143000D01*
Y143400D02*
X206400Y144200D01*
X207200D01*
X206800Y143400D01*
X193226Y181111D02*
X192426Y182711D01*
X194026D01*
X193226Y181111D01*
Y181511D02*
X192826Y182311D01*
X193626D01*
X193226Y181511D01*
X192626Y172111D02*
X191826Y173711D01*
X193426D01*
X192626Y172111D01*
Y172511D02*
X192226Y173311D01*
X193026D01*
X192626Y172511D01*
X193126Y162411D02*
X192326Y164011D01*
X193926D01*
X193126Y162411D01*
Y162811D02*
X192726Y163611D01*
X193526D01*
X193126Y162811D01*
X183200Y179400D02*
X182400Y181000D01*
X184000D01*
X183200Y179400D01*
Y179800D02*
X182800Y180600D01*
X183600D01*
X183200Y179800D01*
X182600Y170400D02*
X181800Y172000D01*
X183400D01*
X182600Y170400D01*
Y170800D02*
X182200Y171600D01*
X183000D01*
X182600Y170800D01*
X183100Y160700D02*
X182300Y162300D01*
X183900D01*
X183100Y160700D01*
Y161100D02*
X182700Y161900D01*
X183500D01*
X183100Y161100D01*
X174411Y196774D02*
X173611Y198374D01*
X175211D01*
X174411Y196774D01*
Y197174D02*
X174011Y197974D01*
X174811D01*
X174411Y197174D01*
X165411Y197374D02*
X164611Y198974D01*
X166211D01*
X165411Y197374D01*
Y197774D02*
X165011Y198574D01*
X165811D01*
X165411Y197774D01*
X155711Y196874D02*
X154911Y198474D01*
X156511D01*
X155711Y196874D01*
Y197274D02*
X155311Y198074D01*
X156111D01*
X155711Y197274D01*
X172700Y206800D02*
X171900Y208400D01*
X173500D01*
X172700Y206800D01*
Y207200D02*
X172300Y208000D01*
X173100D01*
X172700Y207200D01*
X163700Y207400D02*
X162900Y209000D01*
X164500D01*
X163700Y207400D01*
Y207800D02*
X163300Y208600D01*
X164100D01*
X163700Y207800D01*
X154000Y206900D02*
X153200Y208500D01*
X154800D01*
X154000Y206900D01*
Y207300D02*
X153600Y208100D01*
X154400D01*
X154000Y207300D01*
X153174Y171389D02*
X152374Y172989D01*
X153974D01*
X153174Y171389D01*
Y171789D02*
X152774Y172589D01*
X153574D01*
X153174Y171789D01*
X153774Y180389D02*
X152974Y181989D01*
X154574D01*
X153774Y180389D01*
Y180789D02*
X153374Y181589D01*
X154174D01*
X153774Y180789D01*
X153274Y190089D02*
X152474Y191689D01*
X154074D01*
X153274Y190089D01*
Y190489D02*
X152874Y191289D01*
X153674D01*
X153274Y190489D01*
X163200Y173100D02*
X162400Y174700D01*
X164000D01*
X163200Y173100D01*
Y173500D02*
X162800Y174300D01*
X163600D01*
X163200Y173500D01*
X163800Y182100D02*
X163000Y183700D01*
X164600D01*
X163800Y182100D01*
Y182500D02*
X163400Y183300D01*
X164200D01*
X163800Y182500D01*
X163300Y191800D02*
X162500Y193400D01*
X164100D01*
X163300Y191800D01*
Y192200D02*
X162900Y193000D01*
X163700D01*
X163300Y192200D01*
X143574Y142189D02*
X142774Y143789D01*
X144374D01*
X143574Y142189D01*
Y142589D02*
X143174Y143389D01*
X143974D01*
X143574Y142589D01*
X144174Y151189D02*
X143374Y152789D01*
X144974D01*
X144174Y151189D01*
Y151589D02*
X143774Y152389D01*
X144574D01*
X144174Y151589D01*
X143674Y160889D02*
X142874Y162489D01*
X144474D01*
X143674Y160889D01*
Y161289D02*
X143274Y162089D01*
X144074D01*
X143674Y161289D01*
X153600Y143900D02*
X152800Y145500D01*
X154400D01*
X153600Y143900D01*
Y144300D02*
X153200Y145100D01*
X154000D01*
X153600Y144300D01*
X154200Y152900D02*
X153400Y154500D01*
X155000D01*
X154200Y152900D01*
Y153300D02*
X153800Y154100D01*
X154600D01*
X154200Y153300D01*
X153700Y162600D02*
X152900Y164200D01*
X154500D01*
X153700Y162600D01*
Y163000D02*
X153300Y163800D01*
X154100D01*
X153700Y163000D01*
X123774Y140489D02*
X122974Y142089D01*
X124574D01*
X123774Y140489D01*
Y140889D02*
X123374Y141689D01*
X124174D01*
X123774Y140889D01*
X124374Y149489D02*
X123574Y151089D01*
X125174D01*
X124374Y149489D01*
Y149889D02*
X123974Y150689D01*
X124774D01*
X124374Y149889D01*
X123874Y159189D02*
X123074Y160789D01*
X124674D01*
X123874Y159189D01*
Y159589D02*
X123474Y160389D01*
X124274D01*
X123874Y159589D01*
X133800Y142200D02*
X133000Y143800D01*
X134600D01*
X133800Y142200D01*
Y142600D02*
X133400Y143400D01*
X134200D01*
X133800Y142600D01*
X134400Y151200D02*
X133600Y152800D01*
X135200D01*
X134400Y151200D01*
Y151600D02*
X134000Y152400D01*
X134800D01*
X134400Y151600D01*
X133900Y160900D02*
X133100Y162500D01*
X134700D01*
X133900Y160900D01*
Y161300D02*
X133500Y162100D01*
X134300D01*
X133900Y161300D01*
X121389Y180226D02*
X120589Y181826D01*
X122189D01*
X121389Y180226D01*
Y180626D02*
X120989Y181426D01*
X121789D01*
X121389Y180626D01*
X130389Y179626D02*
X129589Y181226D01*
X131189D01*
X130389Y179626D01*
Y180026D02*
X129989Y180826D01*
X130789D01*
X130389Y180026D01*
X140089Y180126D02*
X139289Y181726D01*
X140889D01*
X140089Y180126D01*
Y180526D02*
X139689Y181326D01*
X140489D01*
X140089Y180526D01*
X123100Y170200D02*
X122300Y171800D01*
X123900D01*
X123100Y170200D01*
Y170600D02*
X122700Y171400D01*
X123500D01*
X123100Y170600D01*
X132100Y169600D02*
X131300Y171200D01*
X132900D01*
X132100Y169600D01*
Y170000D02*
X131700Y170800D01*
X132500D01*
X132100Y170000D01*
X141800Y170100D02*
X141000Y171700D01*
X142600D01*
X141800Y170100D01*
Y170500D02*
X141400Y171300D01*
X142200D01*
X141800Y170500D01*
X120889Y199426D02*
X120089Y201026D01*
X121689D01*
X120889Y199426D01*
Y199826D02*
X120489Y200626D01*
X121289D01*
X120889Y199826D01*
X129889Y198826D02*
X129089Y200426D01*
X130689D01*
X129889Y198826D01*
Y199226D02*
X129489Y200026D01*
X130289D01*
X129889Y199226D01*
X139589Y199326D02*
X138789Y200926D01*
X140389D01*
X139589Y199326D01*
Y199726D02*
X139189Y200526D01*
X139989D01*
X139589Y199726D01*
X122600Y189400D02*
X121800Y191000D01*
X123400D01*
X122600Y189400D01*
Y189800D02*
X122200Y190600D01*
X123000D01*
X122600Y189800D01*
X131600Y188800D02*
X130800Y190400D01*
X132400D01*
X131600Y188800D01*
Y189200D02*
X131200Y190000D01*
X132000D01*
X131600Y189200D01*
X141300Y189300D02*
X140500Y190900D01*
X142100D01*
X141300Y189300D01*
Y189700D02*
X140900Y190500D01*
X141700D01*
X141300Y189700D01*
X122189Y217226D02*
X121389Y218826D01*
X122989D01*
X122189Y217226D01*
Y217626D02*
X121789Y218426D01*
X122589D01*
X122189Y217626D01*
X131189Y216626D02*
X130389Y218226D01*
X131989D01*
X131189Y216626D01*
Y217026D02*
X130789Y217826D01*
X131589D01*
X131189Y217026D01*
X140889Y217126D02*
X140089Y218726D01*
X141689D01*
X140889Y217126D01*
Y217526D02*
X140489Y218326D01*
X141289D01*
X140889Y217526D01*
X123900Y207200D02*
X123100Y208800D01*
X124700D01*
X123900Y207200D01*
Y207600D02*
X123500Y208400D01*
X124300D01*
X123900Y207600D01*
X132900Y206600D02*
X132100Y208200D01*
X133700D01*
X132900Y206600D01*
Y207000D02*
X132500Y207800D01*
X133300D01*
X132900Y207000D01*
X142600Y207100D02*
X141800Y208700D01*
X143400D01*
X142600Y207100D01*
Y207500D02*
X142200Y208300D01*
X143000D01*
X142600Y207500D01*
X225126Y251711D02*
X224326Y253311D01*
X225926D01*
X225126Y251711D01*
Y252111D02*
X224726Y252911D01*
X225526D01*
X225126Y252111D01*
X224526Y242711D02*
X223726Y244311D01*
X225326D01*
X224526Y242711D01*
Y243111D02*
X224126Y243911D01*
X224926D01*
X224526Y243111D01*
X215100Y250000D02*
X214300Y251600D01*
X215900D01*
X215100Y250000D01*
Y250400D02*
X214700Y251200D01*
X215500D01*
X215100Y250400D01*
X214500Y241000D02*
X213700Y242600D01*
X215300D01*
X214500Y241000D01*
Y241400D02*
X214100Y242200D01*
X214900D01*
X214500Y241400D01*
X215000Y231300D02*
X214200Y232900D01*
X215800D01*
X215000Y231300D01*
Y231700D02*
X214600Y232500D01*
X215400D01*
X215000Y231700D01*
X203726Y249711D02*
X202926Y251311D01*
X204526D01*
X203726Y249711D01*
Y250111D02*
X203326Y250911D01*
X204126D01*
X203726Y250111D01*
X203126Y240711D02*
X202326Y242311D01*
X203926D01*
X203126Y240711D01*
Y241111D02*
X202726Y241911D01*
X203526D01*
X203126Y241111D01*
X203626Y231011D02*
X202826Y232611D01*
X204426D01*
X203626Y231011D01*
Y231411D02*
X203226Y232211D01*
X204026D01*
X203626Y231411D01*
X193700Y248000D02*
X192900Y249600D01*
X194500D01*
X193700Y248000D01*
Y248400D02*
X193300Y249200D01*
X194100D01*
X193700Y248400D01*
X193100Y239000D02*
X192300Y240600D01*
X193900D01*
X193100Y239000D01*
Y239400D02*
X192700Y240200D01*
X193500D01*
X193100Y239400D01*
X193600Y229300D02*
X192800Y230900D01*
X194400D01*
X193600Y229300D01*
Y229700D02*
X193200Y230500D01*
X194000D01*
X193600Y229700D01*
X169800Y209900D02*
X169000Y211500D01*
X170600D01*
X169800Y209900D01*
Y210300D02*
X169400Y211100D01*
X170200D01*
X169800Y210300D01*
X174200Y216000D02*
X173400Y217600D01*
X175000D01*
X174200Y216000D01*
Y216400D02*
X173800Y217200D01*
X174600D01*
X174200Y216400D01*
X176700Y246600D02*
X175900Y248200D01*
X177500D01*
X176700Y246600D01*
Y247000D02*
X176300Y247800D01*
X177100D01*
X176700Y247000D01*
X184600Y227000D02*
X183800Y228600D01*
X185400D01*
X184600Y227000D01*
Y227400D02*
X184200Y228200D01*
X185000D01*
X184600Y227400D01*
X186000Y232600D02*
X185200Y234200D01*
X186800D01*
X186000Y232600D01*
Y233000D02*
X185600Y233800D01*
X186400D01*
X186000Y233000D01*
X184500Y237300D02*
X183700Y238900D01*
X185300D01*
X184500Y237300D01*
Y237700D02*
X184100Y238500D01*
X184900D01*
X184500Y237700D01*
X185400Y242700D02*
X184600Y244300D01*
X186200D01*
X185400Y242700D01*
Y243100D02*
X185000Y243900D01*
X185800D01*
X185400Y243100D01*
X170300Y226500D02*
X169500Y228100D01*
X171100D01*
X170300Y226500D01*
Y226900D02*
X169900Y227700D01*
X170700D01*
X170300Y226900D01*
X170700Y237200D02*
X169900Y238800D01*
X171500D01*
X170700Y237200D01*
Y237600D02*
X170300Y238400D01*
X171100D01*
X170700Y237600D01*
X170600Y242400D02*
X169800Y244000D01*
X171400D01*
X170600Y242400D01*
Y242800D02*
X170200Y243600D01*
X171000D01*
X170600Y242800D01*
X163000Y232200D02*
X162200Y233800D01*
X163800D01*
X163000Y232200D01*
Y232600D02*
X162600Y233400D01*
X163400D01*
X163000Y232600D01*
X148100Y231700D02*
X147300Y233300D01*
X148900D01*
X148100Y231700D01*
Y232100D02*
X147700Y232900D01*
X148500D01*
X148100Y232100D01*
X188300Y72200D02*
X187500Y73800D01*
X189100D01*
X188300Y72200D01*
Y72600D02*
X187900Y73400D01*
X188700D01*
X188300Y72600D01*
X180600Y71000D02*
X179800Y72600D01*
X181400D01*
X180600Y71000D01*
Y71400D02*
X180200Y72200D01*
X181000D01*
X180600Y71400D01*
X199000Y24300D02*
X198200Y25900D01*
X199800D01*
X199000Y24300D01*
Y24700D02*
X198600Y25500D01*
X199400D01*
X199000Y24700D01*
X198126Y18211D02*
X197326Y19811D01*
X198926D01*
X198126Y18211D01*
Y18611D02*
X197726Y19411D01*
X198526D01*
X198126Y18611D01*
X197800Y8700D02*
X197000Y10300D01*
X198600D01*
X197800Y8700D01*
Y9100D02*
X197400Y9900D01*
X198200D01*
X197800Y9100D01*
X188700Y25500D02*
X187900Y27100D01*
X189500D01*
X188700Y25500D01*
Y25900D02*
X188300Y26700D01*
X189100D01*
X188700Y25900D01*
X188100Y16500D02*
X187300Y18100D01*
X188900D01*
X188100Y16500D01*
Y16900D02*
X187700Y17700D01*
X188500D01*
X188100Y16900D01*
X188600Y6800D02*
X187800Y8400D01*
X189400D01*
X188600Y6800D01*
Y7200D02*
X188200Y8000D01*
X189000D01*
X188600Y7200D01*
X175526Y27911D02*
X174726Y29511D01*
X176326D01*
X175526Y27911D01*
Y28311D02*
X175126Y29111D01*
X175926D01*
X175526Y28311D01*
X174926Y18911D02*
X174126Y20511D01*
X175726D01*
X174926Y18911D01*
Y19311D02*
X174526Y20111D01*
X175326D01*
X174926Y19311D01*
X175426Y9211D02*
X174626Y10811D01*
X176226D01*
X175426Y9211D01*
Y9611D02*
X175026Y10411D01*
X175826D01*
X175426Y9611D01*
X165500Y26200D02*
X164700Y27800D01*
X166300D01*
X165500Y26200D01*
Y26600D02*
X165100Y27400D01*
X165900D01*
X165500Y26600D01*
X164900Y17200D02*
X164100Y18800D01*
X165700D01*
X164900Y17200D01*
Y17600D02*
X164500Y18400D01*
X165300D01*
X164900Y17600D01*
X165400Y7500D02*
X164600Y9100D01*
X166200D01*
X165400Y7500D01*
Y7900D02*
X165000Y8700D01*
X165800D01*
X165400Y7900D01*
X153726Y27211D02*
X152926Y28811D01*
X154526D01*
X153726Y27211D01*
Y27611D02*
X153326Y28411D01*
X154126D01*
X153726Y27611D01*
X153126Y18211D02*
X152326Y19811D01*
X153926D01*
X153126Y18211D01*
Y18611D02*
X152726Y19411D01*
X153526D01*
X153126Y18611D01*
X153626Y8511D02*
X152826Y10111D01*
X154426D01*
X153626Y8511D01*
Y8911D02*
X153226Y9711D01*
X154026D01*
X153626Y8911D01*
X143700Y25500D02*
X142900Y27100D01*
X144500D01*
X143700Y25500D01*
Y25900D02*
X143300Y26700D01*
X144100D01*
X143700Y25900D01*
X143100Y16500D02*
X142300Y18100D01*
X143900D01*
X143100Y16500D01*
Y16900D02*
X142700Y17700D01*
X143500D01*
X143100Y16900D01*
X143600Y6800D02*
X142800Y8400D01*
X144400D01*
X143600Y6800D01*
Y7200D02*
X143200Y8000D01*
X144000D01*
X143600Y7200D01*
X121074Y7689D02*
X120274Y9289D01*
X121874D01*
X121074Y7689D01*
Y8089D02*
X120674Y8889D01*
X121474D01*
X121074Y8089D01*
X121674Y16689D02*
X120874Y18289D01*
X122474D01*
X121674Y16689D01*
Y17089D02*
X121274Y17889D01*
X122074D01*
X121674Y17089D01*
X121174Y26389D02*
X120374Y27989D01*
X121974D01*
X121174Y26389D01*
Y26789D02*
X120774Y27589D01*
X121574D01*
X121174Y26789D01*
X131100Y9400D02*
X130300Y11000D01*
X131900D01*
X131100Y9400D01*
Y9800D02*
X130700Y10600D01*
X131500D01*
X131100Y9800D01*
X131700Y18400D02*
X130900Y20000D01*
X132500D01*
X131700Y18400D01*
Y18800D02*
X131300Y19600D01*
X132100D01*
X131700Y18800D01*
X131200Y28100D02*
X130400Y29700D01*
X132000D01*
X131200Y28100D01*
Y28500D02*
X130800Y29300D01*
X131600D01*
X131200Y28500D01*
X83489Y22126D02*
X82689Y23726D01*
X84289D01*
X83489Y22126D01*
Y22526D02*
X83089Y23326D01*
X83889D01*
X83489Y22526D01*
X92489Y21526D02*
X91689Y23126D01*
X93289D01*
X92489Y21526D01*
Y21926D02*
X92089Y22726D01*
X92889D01*
X92489Y21926D01*
X102189Y22026D02*
X101389Y23626D01*
X102989D01*
X102189Y22026D01*
Y22426D02*
X101789Y23226D01*
X102589D01*
X102189Y22426D01*
X85200Y12100D02*
X84400Y13700D01*
X86000D01*
X85200Y12100D01*
Y12500D02*
X84800Y13300D01*
X85600D01*
X85200Y12500D01*
X94200Y11500D02*
X93400Y13100D01*
X95000D01*
X94200Y11500D01*
Y11900D02*
X93800Y12700D01*
X94600D01*
X94200Y11900D01*
X103900Y12000D02*
X103100Y13600D01*
X104700D01*
X103900Y12000D01*
Y12400D02*
X103500Y13200D01*
X104300D01*
X103900Y12400D01*
X51289Y18326D02*
X50489Y19926D01*
X52089D01*
X51289Y18326D01*
Y18726D02*
X50889Y19526D01*
X51689D01*
X51289Y18726D01*
X60289Y17726D02*
X59489Y19326D01*
X61089D01*
X60289Y17726D01*
Y18126D02*
X59889Y18926D01*
X60689D01*
X60289Y18126D01*
X69989Y18226D02*
X69189Y19826D01*
X70789D01*
X69989Y18226D01*
Y18626D02*
X69589Y19426D01*
X70389D01*
X69989Y18626D01*
X53000Y8300D02*
X52200Y9900D01*
X53800D01*
X53000Y8300D01*
Y8700D02*
X52600Y9500D01*
X53400D01*
X53000Y8700D01*
X62000Y7700D02*
X61200Y9300D01*
X62800D01*
X62000Y7700D01*
Y8100D02*
X61600Y8900D01*
X62400D01*
X62000Y8100D01*
X71700Y8200D02*
X70900Y9800D01*
X72500D01*
X71700Y8200D01*
Y8600D02*
X71300Y9400D01*
X72100D01*
X71700Y8600D01*
X40611Y8274D02*
X39811Y9874D01*
X41411D01*
X40611Y8274D01*
Y8674D02*
X40211Y9474D01*
X41011D01*
X40611Y8674D01*
X30911Y7774D02*
X30111Y9374D01*
X31711D01*
X30911Y7774D01*
Y8174D02*
X30511Y8974D01*
X31311D01*
X30911Y8174D01*
X21911Y8374D02*
X21111Y9974D01*
X22711D01*
X21911Y8374D01*
Y8774D02*
X21511Y9574D01*
X22311D01*
X21911Y8774D01*
X38900Y18300D02*
X38100Y19900D01*
X39700D01*
X38900Y18300D01*
Y18700D02*
X38500Y19500D01*
X39300D01*
X38900Y18700D01*
X29200Y17800D02*
X28400Y19400D01*
X30000D01*
X29200Y17800D01*
Y18200D02*
X28800Y19000D01*
X29600D01*
X29200Y18200D01*
X20200Y18400D02*
X19400Y20000D01*
X21000D01*
X20200Y18400D01*
Y18800D02*
X19800Y19600D01*
X20600D01*
X20200Y18800D01*
X160700Y50900D02*
X159900Y52500D01*
X161500D01*
X160700Y50900D01*
Y51300D02*
X160300Y52100D01*
X161100D01*
X160700Y51300D01*
X183300Y27500D02*
X182500Y29100D01*
X184100D01*
X183300Y27500D01*
Y27900D02*
X182900Y28700D01*
X183700D01*
X183300Y27900D01*
X113000Y19000D02*
X112200Y20600D01*
X113800D01*
X113000Y19000D01*
Y19400D02*
X112600Y20200D01*
X113400D01*
X113000Y19400D01*
X84900Y52000D02*
X84100Y53600D01*
X85700D01*
X84900Y52000D01*
Y52400D02*
X84500Y53200D01*
X85300D01*
X84900Y52400D01*
X64300Y29800D02*
X63500Y31400D01*
X65100D01*
X64300Y29800D01*
Y30200D02*
X63900Y31000D01*
X64700D01*
X64300Y30200D01*
X44700Y29700D02*
X43900Y31300D01*
X45500D01*
X44700Y29700D01*
Y30100D02*
X44300Y30900D01*
X45100D01*
X44700Y30100D01*
X5300Y46100D02*
X4500Y47700D01*
X6100D01*
X5300Y46100D01*
Y46500D02*
X4900Y47300D01*
X5700D01*
X5300Y46500D01*
X32400Y27300D02*
X31600Y28900D01*
X33200D01*
X32400Y27300D01*
Y27700D02*
X32000Y28500D01*
X32800D01*
X32400Y27700D01*
X22700Y26800D02*
X21900Y28400D01*
X23500D01*
X22700Y26800D01*
Y27200D02*
X22300Y28000D01*
X23100D01*
X22700Y27200D01*
X13700Y27400D02*
X12900Y29000D01*
X14500D01*
X13700Y27400D01*
Y27800D02*
X13300Y28600D01*
X14100D01*
X13700Y27800D01*
X35500Y53900D02*
X34700Y55500D01*
X36300D01*
X35500Y53900D01*
Y54300D02*
X35100Y55100D01*
X35900D01*
X35500Y54300D01*
X25800Y53400D02*
X25000Y55000D01*
X26600D01*
X25800Y53400D01*
Y53800D02*
X25400Y54600D01*
X26200D01*
X25800Y53800D01*
X16800Y54000D02*
X16000Y55600D01*
X17600D01*
X16800Y54000D01*
Y54400D02*
X16400Y55200D01*
X17200D01*
X16800Y54400D01*
X39100Y60300D02*
X38300Y61900D01*
X39900D01*
X39100Y60300D01*
Y60700D02*
X38700Y61500D01*
X39500D01*
X39100Y60700D01*
X29400Y59800D02*
X28600Y61400D01*
X30200D01*
X29400Y59800D01*
Y60200D02*
X29000Y61000D01*
X29800D01*
X29400Y60200D01*
X20400Y60400D02*
X19600Y62000D01*
X21200D01*
X20400Y60400D01*
Y60800D02*
X20000Y61600D01*
X20800D01*
X20400Y60800D01*
X65200Y65200D02*
X64400Y66800D01*
X66000D01*
X65200Y65200D01*
Y65600D02*
X64800Y66400D01*
X65600D01*
X65200Y65600D01*
X64700Y71100D02*
X63900Y72700D01*
X65500D01*
X64700Y71100D01*
Y71500D02*
X64300Y72300D01*
X65100D01*
X64700Y71500D01*
X21600Y75900D02*
X20800Y77500D01*
X22400D01*
X21600Y75900D01*
Y76300D02*
X21200Y77100D01*
X22000D01*
X21600Y76300D01*
X96800Y93400D02*
X96000Y95000D01*
X97600D01*
X96800Y93400D01*
Y93800D02*
X96400Y94600D01*
X97200D01*
X96800Y93800D01*
X106400Y103500D02*
X105600Y105100D01*
X107200D01*
X106400Y103500D01*
Y103900D02*
X106000Y104700D01*
X106800D01*
X106400Y103900D01*
X89500Y104800D02*
X88700Y106400D01*
X90300D01*
X89500Y104800D01*
Y105200D02*
X89100Y106000D01*
X89900D01*
X89500Y105200D01*
X83600Y112400D02*
X82800Y114000D01*
X84400D01*
X83600Y112400D01*
Y112800D02*
X83200Y113600D01*
X84000D01*
X83600Y112800D01*
X85000Y83100D02*
X84200Y84700D01*
X85800D01*
X85000Y83100D01*
Y83500D02*
X84600Y84300D01*
X85400D01*
X85000Y83500D01*
X75300Y82600D02*
X74500Y84200D01*
X76100D01*
X75300Y82600D01*
Y83000D02*
X74900Y83800D01*
X75700D01*
X75300Y83000D01*
X66300Y83200D02*
X65500Y84800D01*
X67100D01*
X66300Y83200D01*
Y83600D02*
X65900Y84400D01*
X66700D01*
X66300Y83600D01*
X82800Y94800D02*
X82000Y96400D01*
X83600D01*
X82800Y94800D01*
Y95200D02*
X82400Y96000D01*
X83200D01*
X82800Y95200D01*
X73100Y94300D02*
X72300Y95900D01*
X73900D01*
X73100Y94300D01*
Y94700D02*
X72700Y95500D01*
X73500D01*
X73100Y94700D01*
X64100Y94900D02*
X63300Y96500D01*
X64900D01*
X64100Y94900D01*
Y95300D02*
X63700Y96100D01*
X64500D01*
X64100Y95300D01*
X53700Y92300D02*
X52900Y93900D01*
X54500D01*
X53700Y92300D01*
Y92700D02*
X53300Y93500D01*
X54100D01*
X53700Y92700D01*
X44000Y91800D02*
X43200Y93400D01*
X44800D01*
X44000Y91800D01*
Y92200D02*
X43600Y93000D01*
X44400D01*
X44000Y92200D01*
X35000Y92400D02*
X34200Y94000D01*
X35800D01*
X35000Y92400D01*
Y92800D02*
X34600Y93600D01*
X35400D01*
X35000Y92800D01*
X55700Y83300D02*
X54900Y84900D01*
X56500D01*
X55700Y83300D01*
Y83700D02*
X55300Y84500D01*
X56100D01*
X55700Y83700D01*
X46000Y82800D02*
X45200Y84400D01*
X46800D01*
X46000Y82800D01*
Y83200D02*
X45600Y84000D01*
X46400D01*
X46000Y83200D01*
X37000Y83400D02*
X36200Y85000D01*
X37800D01*
X37000Y83400D01*
Y83800D02*
X36600Y84600D01*
X37400D01*
X37000Y83800D01*
X24000Y103200D02*
X23200Y104800D01*
X24800D01*
X24000Y103200D01*
Y103600D02*
X23600Y104400D01*
X24400D01*
X24000Y103600D01*
X23500Y112900D02*
X22700Y114500D01*
X24300D01*
X23500Y112900D01*
Y113300D02*
X23100Y114100D01*
X23900D01*
X23500Y113300D01*
X24100Y121900D02*
X23300Y123500D01*
X24900D01*
X24100Y121900D01*
Y122300D02*
X23700Y123100D01*
X24500D01*
X24100Y122300D01*
X50000Y102300D02*
X49200Y103900D01*
X50800D01*
X50000Y102300D01*
Y102700D02*
X49600Y103500D01*
X50400D01*
X50000Y102700D01*
X59700Y102800D02*
X58900Y104400D01*
X60500D01*
X59700Y102800D01*
Y103200D02*
X59300Y104000D01*
X60100D01*
X59700Y103200D01*
X68700Y102200D02*
X67900Y103800D01*
X69500D01*
X68700Y102200D01*
Y102600D02*
X68300Y103400D01*
X69100D01*
X68700Y102600D01*
X52000Y119800D02*
X51200Y121400D01*
X52800D01*
X52000Y119800D01*
Y120200D02*
X51600Y121000D01*
X52400D01*
X52000Y120200D01*
X61700Y120300D02*
X60900Y121900D01*
X62500D01*
X61700Y120300D01*
Y120700D02*
X61300Y121500D01*
X62100D01*
X61700Y120700D01*
X70700Y119700D02*
X69900Y121300D01*
X71500D01*
X70700Y119700D01*
Y120100D02*
X70300Y120900D01*
X71100D01*
X70700Y120100D01*
X39000Y103600D02*
X38200Y105200D01*
X39800D01*
X39000Y103600D01*
Y104000D02*
X38600Y104800D01*
X39400D01*
X39000Y104000D01*
X33000Y110800D02*
X32200Y112400D01*
X33800D01*
X33000Y110800D01*
Y111200D02*
X32600Y112000D01*
X33400D01*
X33000Y111200D01*
X39600Y120800D02*
X38800Y122400D01*
X40400D01*
X39600Y120800D01*
Y121200D02*
X39200Y122000D01*
X40000D01*
X39600Y121200D01*
X33400Y128500D02*
X32600Y130100D01*
X34200D01*
X33400Y128500D01*
Y128900D02*
X33000Y129700D01*
X33800D01*
X33400Y128900D01*
X29700Y136300D02*
X28900Y137900D01*
X30500D01*
X29700Y136300D01*
Y136700D02*
X29300Y137500D01*
X30100D01*
X29700Y136700D01*
X39400Y136800D02*
X38600Y138400D01*
X40200D01*
X39400Y136800D01*
Y137200D02*
X39000Y138000D01*
X39800D01*
X39400Y137200D01*
X48400Y136200D02*
X47600Y137800D01*
X49200D01*
X48400Y136200D01*
Y136600D02*
X48000Y137400D01*
X48800D01*
X48400Y136600D01*
X41900Y144300D02*
X41100Y145900D01*
X42700D01*
X41900Y144300D01*
Y144700D02*
X41500Y145500D01*
X42300D01*
X41900Y144700D01*
X51600Y144800D02*
X50800Y146400D01*
X52400D01*
X51600Y144800D01*
Y145200D02*
X51200Y146000D01*
X52000D01*
X51600Y145200D01*
X60600Y144200D02*
X59800Y145800D01*
X61400D01*
X60600Y144200D01*
Y144600D02*
X60200Y145400D01*
X61000D01*
X60600Y144600D01*
X60700Y137100D02*
X59900Y138700D01*
X61500D01*
X60700Y137100D01*
Y137500D02*
X60300Y138300D01*
X61100D01*
X60700Y137500D01*
X70400Y137600D02*
X69600Y139200D01*
X71200D01*
X70400Y137600D01*
Y138000D02*
X70000Y138800D01*
X70800D01*
X70400Y138000D01*
X79400Y137000D02*
X78600Y138600D01*
X80200D01*
X79400Y137000D01*
Y137400D02*
X79000Y138200D01*
X79800D01*
X79400Y137400D01*
X69200Y147500D02*
X68400Y149100D01*
X70000D01*
X69200Y147500D01*
Y147900D02*
X68800Y148700D01*
X69600D01*
X69200Y147900D01*
X78900Y148000D02*
X78100Y149600D01*
X79700D01*
X78900Y148000D01*
Y148400D02*
X78500Y149200D01*
X79300D01*
X78900Y148400D01*
X87900Y147400D02*
X87100Y149000D01*
X88700D01*
X87900Y147400D01*
Y147800D02*
X87500Y148600D01*
X88300D01*
X87900Y147800D01*
X69800Y159500D02*
X69000Y161100D01*
X70600D01*
X69800Y159500D01*
Y159900D02*
X69400Y160700D01*
X70200D01*
X69800Y159900D01*
X79500Y160000D02*
X78700Y161600D01*
X80300D01*
X79500Y160000D01*
Y160400D02*
X79100Y161200D01*
X79900D01*
X79500Y160400D01*
X88500Y159400D02*
X87700Y161000D01*
X89300D01*
X88500Y159400D01*
Y159800D02*
X88100Y160600D01*
X88900D01*
X88500Y159800D01*
X108500Y114200D02*
X107700Y115800D01*
X109300D01*
X108500Y114200D01*
Y114600D02*
X108100Y115400D01*
X108900D01*
X108500Y114600D01*
X102200D02*
X101400Y116200D01*
X103000D01*
X102200Y114600D01*
Y115000D02*
X101800Y115800D01*
X102600D01*
X102200Y115000D01*
X101600Y125200D02*
X100800Y126800D01*
X102400D01*
X101600Y125200D01*
Y125600D02*
X101200Y126400D01*
X102000D01*
X101600Y125600D01*
X102000Y205300D02*
X101200Y206900D01*
X102800D01*
X102000Y205300D01*
Y205700D02*
X101600Y206500D01*
X102400D01*
X102000Y205700D01*
X101700Y215400D02*
X100900Y217000D01*
X102500D01*
X101700Y215400D01*
Y215800D02*
X101300Y216600D01*
X102100D01*
X101700Y215800D01*
X40600Y150700D02*
X39800Y152300D01*
X41400D01*
X40600Y150700D01*
Y151100D02*
X40200Y151900D01*
X41000D01*
X40600Y151100D01*
X40400Y168900D02*
X39600Y170500D01*
X41200D01*
X40400Y168900D01*
Y169300D02*
X40000Y170100D01*
X40800D01*
X40400Y169300D01*
X40600Y180100D02*
X39800Y181700D01*
X41400D01*
X40600Y180100D01*
Y180500D02*
X40200Y181300D01*
X41000D01*
X40600Y180500D01*
X40700Y195300D02*
X39900Y196900D01*
X41500D01*
X40700Y195300D01*
Y195700D02*
X40300Y196500D01*
X41100D01*
X40700Y195700D01*
X38600Y208500D02*
X37800Y210100D01*
X39400D01*
X38600Y208500D01*
Y208900D02*
X38200Y209700D01*
X39000D01*
X38600Y208900D01*
X40100Y222900D02*
X39300Y224500D01*
X40900D01*
X40100Y222900D01*
Y223300D02*
X39700Y224100D01*
X40500D01*
X40100Y223300D01*
X40900Y232500D02*
X40100Y234100D01*
X41700D01*
X40900Y232500D01*
Y232900D02*
X40500Y233700D01*
X41300D01*
X40900Y232900D01*
X13500Y147300D02*
X12700Y148900D01*
X14300D01*
X13500Y147300D01*
Y147700D02*
X13100Y148500D01*
X13900D01*
X13500Y147700D01*
X23200Y147800D02*
X22400Y149400D01*
X24000D01*
X23200Y147800D01*
Y148200D02*
X22800Y149000D01*
X23600D01*
X23200Y148200D01*
X32200Y147200D02*
X31400Y148800D01*
X33000D01*
X32200Y147200D01*
Y147600D02*
X31800Y148400D01*
X32600D01*
X32200Y147600D01*
X14000Y156100D02*
X13200Y157700D01*
X14800D01*
X14000Y156100D01*
Y156500D02*
X13600Y157300D01*
X14400D01*
X14000Y156500D01*
X23700Y156600D02*
X22900Y158200D01*
X24500D01*
X23700Y156600D01*
Y157000D02*
X23300Y157800D01*
X24100D01*
X23700Y157000D01*
X32700Y156000D02*
X31900Y157600D01*
X33500D01*
X32700Y156000D01*
Y156400D02*
X32300Y157200D01*
X33100D01*
X32700Y156400D01*
X14200Y165500D02*
X13400Y167100D01*
X15000D01*
X14200Y165500D01*
Y165900D02*
X13800Y166700D01*
X14600D01*
X14200Y165900D01*
X23900Y166000D02*
X23100Y167600D01*
X24700D01*
X23900Y166000D01*
Y166400D02*
X23500Y167200D01*
X24300D01*
X23900Y166400D01*
X32900Y165400D02*
X32100Y167000D01*
X33700D01*
X32900Y165400D01*
Y165800D02*
X32500Y166600D01*
X33300D01*
X32900Y165800D01*
X14100Y173400D02*
X13300Y175000D01*
X14900D01*
X14100Y173400D01*
Y173800D02*
X13700Y174600D01*
X14500D01*
X14100Y173800D01*
X23800Y173900D02*
X23000Y175500D01*
X24600D01*
X23800Y173900D01*
Y174300D02*
X23400Y175100D01*
X24200D01*
X23800Y174300D01*
X32800Y173300D02*
X32000Y174900D01*
X33600D01*
X32800Y173300D01*
Y173700D02*
X32400Y174500D01*
X33200D01*
X32800Y173700D01*
X13600Y182200D02*
X12800Y183800D01*
X14400D01*
X13600Y182200D01*
Y182600D02*
X13200Y183400D01*
X14000D01*
X13600Y182600D01*
X23300Y182700D02*
X22500Y184300D01*
X24100D01*
X23300Y182700D01*
Y183100D02*
X22900Y183900D01*
X23700D01*
X23300Y183100D01*
X32300Y182100D02*
X31500Y183700D01*
X33100D01*
X32300Y182100D01*
Y182500D02*
X31900Y183300D01*
X32700D01*
X32300Y182500D01*
X14800Y189800D02*
X14000Y191400D01*
X15600D01*
X14800Y189800D01*
Y190200D02*
X14400Y191000D01*
X15200D01*
X14800Y190200D01*
X24500Y190300D02*
X23700Y191900D01*
X25300D01*
X24500Y190300D01*
Y190700D02*
X24100Y191500D01*
X24900D01*
X24500Y190700D01*
X32900Y190100D02*
X32100Y191700D01*
X33700D01*
X32900Y190100D01*
Y190500D02*
X32500Y191300D01*
X33300D01*
X32900Y190500D01*
X13800Y205400D02*
X13000Y207000D01*
X14600D01*
X13800Y205400D01*
Y205800D02*
X13400Y206600D01*
X14200D01*
X13800Y205800D01*
X23500Y205900D02*
X22700Y207500D01*
X24300D01*
X23500Y205900D01*
Y206300D02*
X23100Y207100D01*
X23900D01*
X23500Y206300D01*
X32500Y205300D02*
X31700Y206900D01*
X33300D01*
X32500Y205300D01*
Y205700D02*
X32100Y206500D01*
X32900D01*
X32500Y205700D01*
X13900Y215600D02*
X13100Y217200D01*
X14700D01*
X13900Y215600D01*
Y216000D02*
X13500Y216800D01*
X14300D01*
X13900Y216000D01*
X23600Y216100D02*
X22800Y217700D01*
X24400D01*
X23600Y216100D01*
Y216500D02*
X23200Y217300D01*
X24000D01*
X23600Y216500D01*
X32600Y215500D02*
X31800Y217100D01*
X33400D01*
X32600Y215500D01*
Y215900D02*
X32200Y216700D01*
X33000D01*
X32600Y215900D01*
X14700Y198200D02*
X13900Y199800D01*
X15500D01*
X14700Y198200D01*
Y198600D02*
X14300Y199400D01*
X15100D01*
X14700Y198600D01*
X24400Y198700D02*
X23600Y200300D01*
X25200D01*
X24400Y198700D01*
Y199100D02*
X24000Y199900D01*
X24800D01*
X24400Y199100D01*
X33400Y198100D02*
X32600Y199700D01*
X34200D01*
X33400Y198100D01*
Y198500D02*
X33000Y199300D01*
X33800D01*
X33400Y198500D01*
X32800Y226800D02*
X32000Y228400D01*
X33600D01*
X32800Y226800D01*
Y227200D02*
X32400Y228000D01*
X33200D01*
X32800Y227200D01*
X23800Y227400D02*
X23000Y229000D01*
X24600D01*
X23800Y227400D01*
Y227800D02*
X23400Y228600D01*
X24200D01*
X23800Y227800D01*
X14100Y226900D02*
X13300Y228500D01*
X14900D01*
X14100Y226900D01*
Y227300D02*
X13700Y228100D01*
X14500D01*
X14100Y227300D01*
X90200Y170200D02*
X89400Y171800D01*
X91000D01*
X90200Y170200D01*
Y170600D02*
X89800Y171400D01*
X90600D01*
X90200Y170600D01*
X79600Y172100D02*
X78800Y173700D01*
X80400D01*
X79600Y172100D01*
Y172500D02*
X79200Y173300D01*
X80000D01*
X79600Y172500D01*
X68500Y176000D02*
X67700Y177600D01*
X69300D01*
X68500Y176000D01*
Y176400D02*
X68100Y177200D01*
X68900D01*
X68500Y176400D01*
X88800Y179500D02*
X88000Y181100D01*
X89600D01*
X88800Y179500D01*
Y179900D02*
X88400Y180700D01*
X89200D01*
X88800Y179900D01*
X80200Y184300D02*
X79400Y185900D01*
X81000D01*
X80200Y184300D01*
Y184700D02*
X79800Y185500D01*
X80600D01*
X80200Y184700D01*
X89000Y193900D02*
X88200Y195500D01*
X89800D01*
X89000Y193900D01*
Y194300D02*
X88600Y195100D01*
X89400D01*
X89000Y194300D01*
X81200Y202200D02*
X80400Y203800D01*
X82000D01*
X81200Y202200D01*
Y202600D02*
X80800Y203400D01*
X81600D01*
X81200Y202600D01*
X80900Y230000D02*
X80100Y231600D01*
X81700D01*
X80900Y230000D01*
Y230400D02*
X80500Y231200D01*
X81300D01*
X80900Y230400D01*
X82200Y217500D02*
X81400Y219100D01*
X83000D01*
X82200Y217500D01*
Y217900D02*
X81800Y218700D01*
X82600D01*
X82200Y217900D01*
X89700Y213500D02*
X88900Y215100D01*
X90500D01*
X89700Y213500D01*
Y213900D02*
X89300Y214700D01*
X90100D01*
X89700Y213900D01*
X89400Y225100D02*
X88600Y226700D01*
X90200D01*
X89400Y225100D01*
Y225500D02*
X89000Y226300D01*
X89800D01*
X89400Y225500D01*
X88800Y234900D02*
X88000Y236500D01*
X89600D01*
X88800Y234900D01*
Y235300D02*
X88400Y236100D01*
X89200D01*
X88800Y235300D01*
X89000Y243400D02*
X88200Y245000D01*
X89800D01*
X89000Y243400D01*
Y243800D02*
X88600Y244600D01*
X89400D01*
X89000Y243800D01*
X66400Y187100D02*
X65600Y188700D01*
X67200D01*
X66400Y187100D01*
Y187500D02*
X66000Y188300D01*
X66800D01*
X66400Y187500D01*
X70700Y198300D02*
X69900Y199900D01*
X71500D01*
X70700Y198300D01*
Y198700D02*
X70300Y199500D01*
X71100D01*
X70700Y198700D01*
X71600Y217100D02*
X70800Y218700D01*
X72400D01*
X71600Y217100D01*
Y217500D02*
X71200Y218300D01*
X72000D01*
X71600Y217500D01*
X74900Y223200D02*
X74100Y224800D01*
X75700D01*
X74900Y223200D01*
Y223600D02*
X74500Y224400D01*
X75300D01*
X74900Y223600D01*
Y234900D02*
X74100Y236500D01*
X75700D01*
X74900Y234900D01*
Y235300D02*
X74500Y236100D01*
X75300D01*
X74900Y235300D01*
X48000Y254800D02*
X47200Y256400D01*
X48800D01*
X48000Y254800D01*
Y255200D02*
X47600Y256000D01*
X48400D01*
X48000Y255200D01*
X50100Y262800D02*
X49300Y264400D01*
X50900D01*
X50100Y262800D01*
Y263200D02*
X49700Y264000D01*
X50500D01*
X50100Y263200D01*
X39900Y262400D02*
X39100Y264000D01*
X40700D01*
X39900Y262400D01*
Y262800D02*
X39500Y263600D01*
X40300D01*
X39900Y262800D01*
X39800Y250300D02*
X39000Y251900D01*
X40600D01*
X39800Y250300D01*
Y250700D02*
X39400Y251500D01*
X40200D01*
X39800Y250700D01*
X78800Y263300D02*
X78000Y264900D01*
X79600D01*
X78800Y263300D01*
Y263700D02*
X78400Y264500D01*
X79200D01*
X78800Y263700D01*
X79300Y276400D02*
X78500Y278000D01*
X80100D01*
X79300Y276400D01*
Y276800D02*
X78900Y277600D01*
X79700D01*
X79300Y276800D01*
X65200Y262200D02*
X64400Y263800D01*
X66000D01*
X65200Y262200D01*
Y262600D02*
X64800Y263400D01*
X65600D01*
X65200Y262600D01*
X71200Y269000D02*
X70400Y270600D01*
X72000D01*
X71200Y269000D01*
Y269400D02*
X70800Y270200D01*
X71600D01*
X71200Y269400D01*
X65300Y276700D02*
X64500Y278300D01*
X66100D01*
X65300Y276700D01*
Y277100D02*
X64900Y277900D01*
X65700D01*
X65300Y277100D01*
X65200Y283500D02*
X64400Y285100D01*
X66000D01*
X65200Y283500D01*
Y283900D02*
X64800Y284700D01*
X65600D01*
X65200Y283900D01*
X78000Y287000D02*
X77200Y288600D01*
X78800D01*
X78000Y287000D01*
Y287400D02*
X77600Y288200D01*
X78400D01*
X78000Y287400D01*
X76200Y303800D02*
X75400Y305400D01*
X77000D01*
X76200Y303800D01*
Y304200D02*
X75800Y305000D01*
X76600D01*
X76200Y304200D01*
X69000Y303900D02*
X68200Y305500D01*
X69800D01*
X69000Y303900D01*
Y304300D02*
X68600Y305100D01*
X69400D01*
X69000Y304300D01*
X76700Y314000D02*
X75900Y315600D01*
X77500D01*
X76700Y314000D01*
Y314400D02*
X76300Y315200D01*
X77100D01*
X76700Y314400D01*
X67800Y312600D02*
X67000Y314200D01*
X68600D01*
X67800Y312600D01*
Y313000D02*
X67400Y313800D01*
X68200D01*
X67800Y313000D01*
X64100Y295200D02*
X63300Y296800D01*
X64900D01*
X64100Y295200D01*
Y295600D02*
X63700Y296400D01*
X64500D01*
X64100Y295600D01*
X63800Y299900D02*
X63000Y301500D01*
X64600D01*
X63800Y299900D01*
Y300300D02*
X63400Y301100D01*
X64200D01*
X63800Y300300D01*
X56700Y292000D02*
X55900Y293600D01*
X57500D01*
X56700Y292000D01*
Y292400D02*
X56300Y293200D01*
X57100D01*
X56700Y292400D01*
X57900Y301000D02*
X57100Y302600D01*
X58700D01*
X57900Y301000D01*
Y301400D02*
X57500Y302200D01*
X58300D01*
X57900Y301400D01*
X107900Y277100D02*
X107100Y278700D01*
X108700D01*
X107900Y277100D01*
Y277500D02*
X107500Y278300D01*
X108300D01*
X107900Y277500D01*
X107800Y286900D02*
X107000Y288500D01*
X108600D01*
X107800Y286900D01*
Y287300D02*
X107400Y288100D01*
X108200D01*
X107800Y287300D01*
X94500Y277800D02*
X93700Y279400D01*
X95300D01*
X94500Y277800D01*
Y278200D02*
X94100Y279000D01*
X94900D01*
X94500Y278200D01*
X94200Y285000D02*
X93400Y286600D01*
X95000D01*
X94200Y285000D01*
Y285400D02*
X93800Y286200D01*
X94600D01*
X94200Y285400D01*
X101200Y299400D02*
X100400Y301000D01*
X102000D01*
X101200Y299400D01*
Y299800D02*
X100800Y300600D01*
X101600D01*
X101200Y299800D01*
X92200Y299300D02*
X91400Y300900D01*
X93000D01*
X92200Y299300D01*
Y299700D02*
X91800Y300500D01*
X92600D01*
X92200Y299700D01*
X126300Y279900D02*
X125500Y281500D01*
X127100D01*
X126300Y279900D01*
Y280300D02*
X125900Y281100D01*
X126700D01*
X126300Y280300D01*
X126400Y288000D02*
X125600Y289600D01*
X127200D01*
X126400Y288000D01*
Y288400D02*
X126000Y289200D01*
X126800D01*
X126400Y288400D01*
X116600Y282300D02*
X115800Y283900D01*
X117400D01*
X116600Y282300D01*
Y282700D02*
X116200Y283500D01*
X117000D01*
X116600Y282700D01*
X115900Y294900D02*
X115100Y296500D01*
X116700D01*
X115900Y294900D01*
Y295300D02*
X115500Y296100D01*
X116300D01*
X115900Y295300D01*
X164600Y285000D02*
X163800Y286600D01*
X165400D01*
X164600Y285000D01*
Y285400D02*
X164200Y286200D01*
X165000D01*
X164600Y285400D01*
X165700Y291100D02*
X164900Y292700D01*
X166500D01*
X165700Y291100D01*
Y291500D02*
X165300Y292300D01*
X166100D01*
X165700Y291500D01*
X154700Y285600D02*
X153900Y287200D01*
X155500D01*
X154700Y285600D01*
Y286000D02*
X154300Y286800D01*
X155100D01*
X154700Y286000D01*
X152700Y296000D02*
X151900Y297600D01*
X153500D01*
X152700Y296000D01*
Y296400D02*
X152300Y297200D01*
X153100D01*
X152700Y296400D01*
X213800Y302300D02*
X213000Y303900D01*
X214600D01*
X213800Y302300D01*
Y302700D02*
X213400Y303500D01*
X214200D01*
X213800Y302700D01*
X190100Y301700D02*
X189300Y303300D01*
X190900D01*
X190100Y301700D01*
Y302100D02*
X189700Y302900D01*
X190500D01*
X190100Y302100D01*
X200700Y303900D02*
X199900Y305500D01*
X201500D01*
X200700Y303900D01*
Y304300D02*
X200300Y305100D01*
X201100D01*
X200700Y304300D01*
X201100Y311200D02*
X200300Y312800D01*
X201900D01*
X201100Y311200D01*
Y311600D02*
X200700Y312400D01*
X201500D01*
X201100Y311600D01*
X178100Y296900D02*
X177300Y298500D01*
X178900D01*
X178100Y296900D01*
Y297300D02*
X177700Y298100D01*
X178500D01*
X178100Y297300D01*
X179400Y309800D02*
X178600Y311400D01*
X180200D01*
X179400Y309800D01*
Y310200D02*
X179000Y311000D01*
X179800D01*
X179400Y310200D01*
X224800Y316800D02*
X224000Y318400D01*
X225600D01*
X224800Y316800D01*
Y317200D02*
X224400Y318000D01*
X225200D01*
X224800Y317200D01*
X228600Y323300D02*
X227800Y324900D01*
X229400D01*
X228600Y323300D01*
Y323700D02*
X228200Y324500D01*
X229000D01*
X228600Y323700D01*
X209500Y319200D02*
X208700Y320800D01*
X210300D01*
X209500Y319200D01*
Y319600D02*
X209100Y320400D01*
X209900D01*
X209500Y319600D01*
X209400Y328000D02*
X208600Y329600D01*
X210200D01*
X209400Y328000D01*
Y328400D02*
X209000Y329200D01*
X209800D01*
X209400Y328400D01*
X198800Y319000D02*
X198000Y320600D01*
X199600D01*
X198800Y319000D01*
Y319400D02*
X198400Y320200D01*
X199200D01*
X198800Y319400D01*
X185400Y318600D02*
X184600Y320200D01*
X186200D01*
X185400Y318600D01*
Y319000D02*
X185000Y319800D01*
X185800D01*
X185400Y319000D01*
X172200Y318600D02*
X171400Y320200D01*
X173000D01*
X172200Y318600D01*
Y319000D02*
X171800Y319800D01*
X172600D01*
X172200Y319000D01*
X151700Y318500D02*
X150900Y320100D01*
X152500D01*
X151700Y318500D01*
Y318900D02*
X151300Y319700D01*
X152100D01*
X151700Y318900D01*
X135700Y318300D02*
X134900Y319900D01*
X136500D01*
X135700Y318300D01*
Y318700D02*
X135300Y319500D01*
X136100D01*
X135700Y318700D01*
X122900Y318600D02*
X122100Y320200D01*
X123700D01*
X122900Y318600D01*
Y319000D02*
X122500Y319800D01*
X123300D01*
X122900Y319000D01*
X134900Y327900D02*
X134100Y329500D01*
X135700D01*
X134900Y327900D01*
Y328300D02*
X134500Y329100D01*
X135300D01*
X134900Y328300D01*
X120800Y327400D02*
X120000Y329000D01*
X121600D01*
X120800Y327400D01*
Y327800D02*
X120400Y328600D01*
X121200D01*
X120800Y327800D01*
X104300Y363700D02*
X103500Y365300D01*
X105100D01*
X104300Y363700D01*
Y364100D02*
X103900Y364900D01*
X104700D01*
X104300Y364100D01*
X115900Y363200D02*
X115100Y364800D01*
X116700D01*
X115900Y363200D01*
Y363600D02*
X115500Y364400D01*
X116300D01*
X115900Y363600D01*
X96100Y362900D02*
X95300Y364500D01*
X96900D01*
X96100Y362900D01*
Y363300D02*
X95700Y364100D01*
X96500D01*
X96100Y363300D01*
X90400Y366200D02*
X89600Y367800D01*
X91200D01*
X90400Y366200D01*
Y366600D02*
X90000Y367400D01*
X90800D01*
X90400Y366600D01*
X133500Y348100D02*
X132700Y349700D01*
X134300D01*
X133500Y348100D01*
Y348500D02*
X133100Y349300D01*
X133900D01*
X133500Y348500D01*
X134400Y338300D02*
X133600Y339900D01*
X135200D01*
X134400Y338300D01*
Y338700D02*
X134000Y339500D01*
X134800D01*
X134400Y338700D01*
X102600Y328100D02*
X101800Y329700D01*
X103400D01*
X102600Y328100D01*
Y328500D02*
X102200Y329300D01*
X103000D01*
X102600Y328500D01*
X94000Y328900D02*
X93200Y330500D01*
X94800D01*
X94000Y328900D01*
Y329300D02*
X93600Y330100D01*
X94400D01*
X94000Y329300D01*
X102200Y316100D02*
X101400Y317700D01*
X103000D01*
X102200Y316100D01*
Y316500D02*
X101800Y317300D01*
X102600D01*
X102200Y316500D01*
X95100Y316000D02*
X94300Y317600D01*
X95900D01*
X95100Y316000D01*
Y316400D02*
X94700Y317200D01*
X95500D01*
X95100Y316400D01*
X401100Y195600D02*
X400300Y197200D01*
X401900D01*
X401100Y195600D01*
Y196000D02*
X400700Y196800D01*
X401500D01*
X401100Y196000D01*
X411400Y186900D02*
X410600Y188500D01*
X412200D01*
X411400Y186900D01*
Y187300D02*
X411000Y188100D01*
X411800D01*
X411400Y187300D01*
X422300Y179500D02*
X421500Y181100D01*
X423100D01*
X422300Y179500D01*
Y179900D02*
X421900Y180700D01*
X422700D01*
X422300Y179900D01*
X433300Y179300D02*
X432500Y180900D01*
X434100D01*
X433300Y179300D01*
Y179700D02*
X432900Y180500D01*
X433700D01*
X433300Y179700D01*
X438800Y185700D02*
X438000Y187300D01*
X439600D01*
X438800Y185700D01*
Y186100D02*
X438400Y186900D01*
X439200D01*
X438800Y186100D01*
X440200Y197400D02*
X439400Y199000D01*
X441000D01*
X440200Y197400D01*
Y197800D02*
X439800Y198600D01*
X440600D01*
X440200Y197800D01*
X440300Y206600D02*
X439500Y208200D01*
X441100D01*
X440300Y206600D01*
Y207000D02*
X439900Y207800D01*
X440700D01*
X440300Y207000D01*
X437200Y217800D02*
X436400Y219400D01*
X438000D01*
X437200Y217800D01*
Y218200D02*
X436800Y219000D01*
X437600D01*
X437200Y218200D01*
X425700Y220700D02*
X424900Y222300D01*
X426500D01*
X425700Y220700D01*
Y221100D02*
X425300Y221900D01*
X426100D01*
X425700Y221100D01*
X420600Y235500D02*
X419800Y237100D01*
X421400D01*
X420600Y235500D01*
Y235900D02*
X420200Y236700D01*
X421000D01*
X420600Y235900D01*
X406400Y213200D02*
X405600Y214800D01*
X407200D01*
X406400Y213200D01*
Y213600D02*
X406000Y214400D01*
X406800D01*
X406400Y213600D01*
X407100Y223000D02*
X406300Y224600D01*
X407900D01*
X407100Y223000D01*
Y223400D02*
X406700Y224200D01*
X407500D01*
X407100Y223400D01*
X406600Y230500D02*
X405800Y232100D01*
X407400D01*
X406600Y230500D01*
Y230900D02*
X406200Y231700D01*
X407000D01*
X406600Y230900D01*
X407200Y238600D02*
X406400Y240200D01*
X408000D01*
X407200Y238600D01*
Y239000D02*
X406800Y239800D01*
X407600D01*
X407200Y239000D01*
X415100Y211700D02*
X414300Y213300D01*
X415900D01*
X415100Y211700D01*
Y212100D02*
X414700Y212900D01*
X415500D01*
X415100Y212100D01*
X414700Y200600D02*
X413900Y202200D01*
X415500D01*
X414700Y200600D01*
Y201000D02*
X414300Y201800D01*
X415100D01*
X414700Y201000D01*
X394000D02*
X393200Y202600D01*
X394800D01*
X394000Y201000D01*
Y201400D02*
X393600Y202200D01*
X394400D01*
X394000Y201400D01*
X378800Y201000D02*
X378000Y202600D01*
X379600D01*
X378800Y201000D01*
Y201400D02*
X378400Y202200D01*
X379200D01*
X378800Y201400D01*
X367800Y200700D02*
X367000Y202300D01*
X368600D01*
X367800Y200700D01*
Y201100D02*
X367400Y201900D01*
X368200D01*
X367800Y201100D01*
X356300Y200700D02*
X355500Y202300D01*
X357100D01*
X356300Y200700D01*
Y201100D02*
X355900Y201900D01*
X356700D01*
X356300Y201100D01*
X346200Y200400D02*
X345400Y202000D01*
X347000D01*
X346200Y200400D01*
Y200800D02*
X345800Y201600D01*
X346600D01*
X346200Y200800D01*
X356800Y209000D02*
X356000Y210600D01*
X357600D01*
X356800Y209000D01*
Y209400D02*
X356400Y210200D01*
X357200D01*
X356800Y209400D01*
X346700Y208000D02*
X345900Y209600D01*
X347500D01*
X346700Y208000D01*
Y208400D02*
X346300Y209200D01*
X347100D01*
X346700Y208400D01*
X356200Y215800D02*
X355400Y217400D01*
X357000D01*
X356200Y215800D01*
Y216200D02*
X355800Y217000D01*
X356600D01*
X356200Y216200D01*
X346700Y215900D02*
X345900Y217500D01*
X347500D01*
X346700Y215900D01*
Y216300D02*
X346300Y217100D01*
X347100D01*
X346700Y216300D01*
X355900Y225500D02*
X355100Y227100D01*
X356700D01*
X355900Y225500D01*
Y225900D02*
X355500Y226700D01*
X356300D01*
X355900Y225900D01*
X346700Y225100D02*
X345900Y226700D01*
X347500D01*
X346700Y225100D01*
Y225500D02*
X346300Y226300D01*
X347100D01*
X346700Y225500D01*
X355700Y231800D02*
X354900Y233400D01*
X356500D01*
X355700Y231800D01*
Y232200D02*
X355300Y233000D01*
X356100D01*
X355700Y232200D01*
X346900Y231300D02*
X346100Y232900D01*
X347700D01*
X346900Y231300D01*
Y231700D02*
X346500Y232500D01*
X347300D01*
X346900Y231700D01*
X356200Y239800D02*
X355400Y241400D01*
X357000D01*
X356200Y239800D01*
Y240200D02*
X355800Y241000D01*
X356600D01*
X356200Y240200D01*
X348600Y239600D02*
X347800Y241200D01*
X349400D01*
X348600Y239600D01*
Y240000D02*
X348200Y240800D01*
X349000D01*
X348600Y240000D01*
X355700Y248700D02*
X354900Y250300D01*
X356500D01*
X355700Y248700D01*
Y249100D02*
X355300Y249900D01*
X356100D01*
X355700Y249100D01*
X348100Y248100D02*
X347300Y249700D01*
X348900D01*
X348100Y248100D01*
Y248500D02*
X347700Y249300D01*
X348500D01*
X348100Y248500D01*
X336700Y233800D02*
X335900Y235400D01*
X337500D01*
X336700Y233800D01*
Y234200D02*
X336300Y235000D01*
X337100D01*
X336700Y234200D01*
X324200Y234100D02*
X323400Y235700D01*
X325000D01*
X324200Y234100D01*
Y234500D02*
X323800Y235300D01*
X324600D01*
X324200Y234500D01*
X331500Y248100D02*
X330700Y249700D01*
X332300D01*
X331500Y248100D01*
Y248500D02*
X331100Y249300D01*
X331900D01*
X331500Y248500D01*
X500100Y165500D02*
X499300Y167100D01*
X500900D01*
X500100Y165500D01*
Y165900D02*
X499700Y166700D01*
X500500D01*
X500100Y165900D01*
X503600Y195500D02*
X502800Y197100D01*
X504400D01*
X503600Y195500D01*
Y195900D02*
X503200Y196700D01*
X504000D01*
X503600Y195900D01*
X510700Y191600D02*
X509900Y193200D01*
X511500D01*
X510700Y191600D01*
Y192000D02*
X510300Y192800D01*
X511100D01*
X510700Y192000D01*
X510000Y152500D02*
X509200Y154100D01*
X510800D01*
X510000Y152500D01*
Y152900D02*
X509600Y153700D01*
X510400D01*
X510000Y152900D01*
X508200Y174700D02*
X507400Y176300D01*
X509000D01*
X508200Y174700D01*
Y175100D02*
X507800Y175900D01*
X508600D01*
X508200Y175100D01*
X509600Y206000D02*
X508800Y207600D01*
X510400D01*
X509600Y206000D01*
Y206400D02*
X509200Y207200D01*
X510000D01*
X509600Y206400D01*
X510300Y229200D02*
X509500Y230800D01*
X511100D01*
X510300Y229200D01*
Y229600D02*
X509900Y230400D01*
X510700D01*
X510300Y229600D01*
X483700Y34800D02*
X482900Y36400D01*
X484500D01*
X483700Y34800D01*
Y35200D02*
X483300Y36000D01*
X484100D01*
X483700Y35200D01*
X485300Y49800D02*
X484500Y51400D01*
X486100D01*
X485300Y49800D01*
Y50200D02*
X484900Y51000D01*
X485700D01*
X485300Y50200D01*
X500700Y10500D02*
X499900Y12100D01*
X501500D01*
X500700Y10500D01*
Y10900D02*
X500300Y11700D01*
X501100D01*
X500700Y10900D01*
X513400Y21300D02*
X512600Y22900D01*
X514200D01*
X513400Y21300D01*
Y21700D02*
X513000Y22500D01*
X513800D01*
X513400Y21700D01*
X484100Y13900D02*
X483300Y15500D01*
X484900D01*
X484100Y13900D01*
Y14300D02*
X483700Y15100D01*
X484500D01*
X484100Y14300D01*
X464000Y9500D02*
X463200Y11100D01*
X464800D01*
X464000Y9500D01*
Y9900D02*
X463600Y10700D01*
X464400D01*
X464000Y9900D01*
X450900Y8800D02*
X450100Y10400D01*
X451700D01*
X450900Y8800D01*
Y9200D02*
X450500Y10000D01*
X451300D01*
X450900Y9200D01*
X437300Y8300D02*
X436500Y9900D01*
X438100D01*
X437300Y8300D01*
Y8700D02*
X436900Y9500D01*
X437700D01*
X437300Y8700D01*
X483900Y22600D02*
X483100Y24200D01*
X484700D01*
X483900Y22600D01*
Y23000D02*
X483500Y23800D01*
X484300D01*
X483900Y23000D01*
X471800Y39100D02*
X471000Y40700D01*
X472600D01*
X471800Y39100D01*
Y39500D02*
X471400Y40300D01*
X472200D01*
X471800Y39500D01*
X462300Y45200D02*
X461500Y46800D01*
X463100D01*
X462300Y45200D01*
Y45600D02*
X461900Y46400D01*
X462700D01*
X462300Y45600D01*
X491500Y59300D02*
X490700Y60900D01*
X492300D01*
X491500Y59300D01*
Y59700D02*
X491100Y60500D01*
X491900D01*
X491500Y59700D01*
X463900Y58200D02*
X463100Y59800D01*
X464700D01*
X463900Y58200D01*
Y58600D02*
X463500Y59400D01*
X464300D01*
X463900Y58600D01*
X476100Y63800D02*
X475300Y65400D01*
X476900D01*
X476100Y63800D01*
Y64200D02*
X475700Y65000D01*
X476500D01*
X476100Y64200D01*
X491700Y84400D02*
X490900Y86000D01*
X492500D01*
X491700Y84400D01*
Y84800D02*
X491300Y85600D01*
X492100D01*
X491700Y84800D01*
X498600Y73000D02*
X497800Y74600D01*
X499400D01*
X498600Y73000D01*
Y73400D02*
X498200Y74200D01*
X499000D01*
X498600Y73400D01*
X492300Y90800D02*
X491500Y92400D01*
X493100D01*
X492300Y90800D01*
Y91200D02*
X491900Y92000D01*
X492700D01*
X492300Y91200D01*
X483800Y71500D02*
X483000Y73100D01*
X484600D01*
X483800Y71500D01*
Y71900D02*
X483400Y72700D01*
X484200D01*
X483800Y71900D01*
X478900Y83400D02*
X478100Y85000D01*
X479700D01*
X478900Y83400D01*
Y83800D02*
X478500Y84600D01*
X479300D01*
X478900Y83800D01*
X461600Y89300D02*
X460800Y90900D01*
X462400D01*
X461600Y89300D01*
Y89700D02*
X461200Y90500D01*
X462000D01*
X461600Y89700D01*
X464300Y99200D02*
X463500Y100800D01*
X465100D01*
X464300Y99200D01*
Y99600D02*
X463900Y100400D01*
X464700D01*
X464300Y99600D01*
X478000Y99700D02*
X477200Y101300D01*
X478800D01*
X478000Y99700D01*
Y100100D02*
X477600Y100900D01*
X478400D01*
X478000Y100100D01*
X500000Y99800D02*
X499200Y101400D01*
X500800D01*
X500000Y99800D01*
Y100200D02*
X499600Y101000D01*
X500400D01*
X500000Y100200D01*
X512900Y105700D02*
X512100Y107300D01*
X513700D01*
X512900Y105700D01*
Y106100D02*
X512500Y106900D01*
X513300D01*
X512900Y106100D01*
X514100Y117000D02*
X513300Y118600D01*
X514900D01*
X514100Y117000D01*
Y117400D02*
X513700Y118200D01*
X514500D01*
X514100Y117400D01*
X508900Y129300D02*
X508100Y130900D01*
X509700D01*
X508900Y129300D01*
Y129700D02*
X508500Y130500D01*
X509300D01*
X508900Y129700D01*
X467500Y147200D02*
X466700Y148800D01*
X468300D01*
X467500Y147200D01*
Y147600D02*
X467100Y148400D01*
X467900D01*
X467500Y147600D01*
X468100Y157300D02*
X467300Y158900D01*
X468900D01*
X468100Y157300D01*
Y157700D02*
X467700Y158500D01*
X468500D01*
X468100Y157700D01*
Y166000D02*
X467300Y167600D01*
X468900D01*
X468100Y166000D01*
Y166400D02*
X467700Y167200D01*
X468500D01*
X468100Y166400D01*
X472100Y173200D02*
X471300Y174800D01*
X472900D01*
X472100Y173200D01*
Y173600D02*
X471700Y174400D01*
X472500D01*
X472100Y173600D01*
X483200Y177400D02*
X482400Y179000D01*
X484000D01*
X483200Y177400D01*
Y177800D02*
X482800Y178600D01*
X483600D01*
X483200Y177800D01*
X487500Y202000D02*
X486700Y203600D01*
X488300D01*
X487500Y202000D01*
Y202400D02*
X487100Y203200D01*
X487900D01*
X487500Y202400D01*
X488200Y179100D02*
X487400Y180700D01*
X489000D01*
X488200Y179100D01*
Y179500D02*
X487800Y180300D01*
X488600D01*
X488200Y179500D01*
X487900Y193300D02*
X487100Y194900D01*
X488700D01*
X487900Y193300D01*
Y193700D02*
X487500Y194500D01*
X488300D01*
X487900Y193700D01*
X495100Y207800D02*
X494300Y209400D01*
X495900D01*
X495100Y207800D01*
Y208200D02*
X494700Y209000D01*
X495500D01*
X495100Y208200D01*
X488600Y207400D02*
X487800Y209000D01*
X489400D01*
X488600Y207400D01*
Y207800D02*
X488200Y208600D01*
X489000D01*
X488600Y207800D01*
X488300Y220000D02*
X487500Y221600D01*
X489100D01*
X488300Y220000D01*
Y220400D02*
X487900Y221200D01*
X488700D01*
X488300Y220400D01*
X488000Y223800D02*
X487200Y225400D01*
X488800D01*
X488000Y223800D01*
Y224200D02*
X487600Y225000D01*
X488400D01*
X488000Y224200D01*
X487900Y233400D02*
X487100Y235000D01*
X488700D01*
X487900Y233400D01*
Y233800D02*
X487500Y234600D01*
X488300D01*
X487900Y233800D01*
X469500Y234200D02*
X468700Y235800D01*
X470300D01*
X469500Y234200D01*
Y234600D02*
X469100Y235400D01*
X469900D01*
X469500Y234600D01*
Y239000D02*
X468700Y240600D01*
X470300D01*
X469500Y239000D01*
Y239400D02*
X469100Y240200D01*
X469900D01*
X469500Y239400D01*
X465300Y233700D02*
X464500Y235300D01*
X466100D01*
X465300Y233700D01*
Y234100D02*
X464900Y234900D01*
X465700D01*
X465300Y234100D01*
X463100Y239900D02*
X462300Y241500D01*
X463900D01*
X463100Y239900D01*
Y240300D02*
X462700Y241100D01*
X463500D01*
X463100Y240300D01*
X470100Y249300D02*
X469300Y250900D01*
X470900D01*
X470100Y249300D01*
Y249700D02*
X469700Y250500D01*
X470500D01*
X470100Y249700D01*
X470500Y254600D02*
X469700Y256200D01*
X471300D01*
X470500Y254600D01*
Y255000D02*
X470100Y255800D01*
X470900D01*
X470500Y255000D01*
X513500Y252500D02*
X512700Y254100D01*
X514300D01*
X513500Y252500D01*
Y252900D02*
X513100Y253700D01*
X513900D01*
X513500Y252900D01*
X508100Y257500D02*
X507300Y259100D01*
X508900D01*
X508100Y257500D01*
Y257900D02*
X507700Y258700D01*
X508500D01*
X508100Y257900D01*
X501500Y248000D02*
X500700Y249600D01*
X502300D01*
X501500Y248000D01*
Y248400D02*
X501100Y249200D01*
X501900D01*
X501500Y248400D01*
X501900Y257200D02*
X501100Y258800D01*
X502700D01*
X501900Y257200D01*
Y257600D02*
X501500Y258400D01*
X502300D01*
X501900Y257600D01*
X495500Y248900D02*
X494700Y250500D01*
X496300D01*
X495500Y248900D01*
Y249300D02*
X495100Y250100D01*
X495900D01*
X495500Y249300D01*
Y257000D02*
X494700Y258600D01*
X496300D01*
X495500Y257000D01*
Y257400D02*
X495100Y258200D01*
X495900D01*
X495500Y257400D01*
X504300Y268800D02*
X503500Y270400D01*
X505100D01*
X504300Y268800D01*
Y269200D02*
X503900Y270000D01*
X504700D01*
X504300Y269200D01*
X497600Y267800D02*
X496800Y269400D01*
X498400D01*
X497600Y267800D01*
Y268200D02*
X497200Y269000D01*
X498000D01*
X497600Y268200D01*
X496900Y273700D02*
X496100Y275300D01*
X497700D01*
X496900Y273700D01*
Y274100D02*
X496500Y274900D01*
X497300D01*
X496900Y274100D01*
X503900Y273300D02*
X503100Y274900D01*
X504700D01*
X503900Y273300D01*
Y273700D02*
X503500Y274500D01*
X504300D01*
X503900Y273700D01*
X487500Y276700D02*
X486700Y278300D01*
X488300D01*
X487500Y276700D01*
Y277100D02*
X487100Y277900D01*
X487900D01*
X487500Y277100D01*
X494600Y301300D02*
X493800Y302900D01*
X495400D01*
X494600Y301300D01*
Y301700D02*
X494200Y302500D01*
X495000D01*
X494600Y301700D01*
X493600Y290700D02*
X492800Y292300D01*
X494400D01*
X493600Y290700D01*
Y291100D02*
X493200Y291900D01*
X494000D01*
X493600Y291100D01*
X503700Y303500D02*
X502900Y305100D01*
X504500D01*
X503700Y303500D01*
Y303900D02*
X503300Y304700D01*
X504100D01*
X503700Y303900D01*
X489900Y303300D02*
X489100Y304900D01*
X490700D01*
X489900Y303300D01*
Y303700D02*
X489500Y304500D01*
X490300D01*
X489900Y303700D01*
X490300Y314200D02*
X489500Y315800D01*
X491100D01*
X490300Y314200D01*
Y314600D02*
X489900Y315400D01*
X490700D01*
X490300Y314600D01*
X503200Y315500D02*
X502400Y317100D01*
X504000D01*
X503200Y315500D01*
Y315900D02*
X502800Y316700D01*
X503600D01*
X503200Y315900D01*
X504100Y322400D02*
X503300Y324000D01*
X504900D01*
X504100Y322400D01*
Y322800D02*
X503700Y323600D01*
X504500D01*
X504100Y322800D01*
X486200Y322600D02*
X485400Y324200D01*
X487000D01*
X486200Y322600D01*
Y323000D02*
X485800Y323800D01*
X486600D01*
X486200Y323000D01*
X492400Y345000D02*
X491600Y346600D01*
X493200D01*
X492400Y345000D01*
Y345400D02*
X492000Y346200D01*
X492800D01*
X492400Y345400D01*
X506800Y359000D02*
X506000Y360600D01*
X507600D01*
X506800Y359000D01*
Y359400D02*
X506400Y360200D01*
X507200D01*
X506800Y359400D01*
X517100Y344000D02*
X516300Y345600D01*
X517900D01*
X517100Y344000D01*
Y344400D02*
X516700Y345200D01*
X517500D01*
X517100Y344400D01*
X506200Y343200D02*
X505400Y344800D01*
X507000D01*
X506200Y343200D01*
Y343600D02*
X505800Y344400D01*
X506600D01*
X506200Y343600D01*
X516700Y358200D02*
X515900Y359800D01*
X517500D01*
X516700Y358200D01*
Y358600D02*
X516300Y359400D01*
X517100D01*
X516700Y358600D01*
X499000Y362600D02*
X498200Y364200D01*
X499800D01*
X499000Y362600D01*
Y363000D02*
X498600Y363800D01*
X499400D01*
X499000Y363000D01*
X511900Y371700D02*
X511100Y373300D01*
X512700D01*
X511900Y371700D01*
Y372100D02*
X511500Y372900D01*
X512300D01*
X511900Y372100D01*
X502600Y382900D02*
X501800Y384500D01*
X503400D01*
X502600Y382900D01*
Y383300D02*
X502200Y384100D01*
X503000D01*
X502600Y383300D01*
X488200Y377100D02*
X487400Y378700D01*
X489000D01*
X488200Y377100D01*
Y377500D02*
X487800Y378300D01*
X488600D01*
X488200Y377500D01*
X479700Y377100D02*
X478900Y378700D01*
X480500D01*
X479700Y377100D01*
Y377500D02*
X479300Y378300D01*
X480100D01*
X479700Y377500D01*
X465300Y377800D02*
X464500Y379400D01*
X466100D01*
X465300Y377800D01*
Y378200D02*
X464900Y379000D01*
X465700D01*
X465300Y378200D01*
X465500Y363000D02*
X464700Y364600D01*
X466300D01*
X465500Y363000D01*
Y363400D02*
X465100Y364200D01*
X465900D01*
X465500Y363400D01*
X466500Y355900D02*
X465700Y357500D01*
X467300D01*
X466500Y355900D01*
Y356300D02*
X466100Y357100D01*
X466900D01*
X466500Y356300D01*
X466700Y338700D02*
X465900Y340300D01*
X467500D01*
X466700Y338700D01*
Y339100D02*
X466300Y339900D01*
X467100D01*
X466700Y339100D01*
X466200Y327100D02*
X465400Y328700D01*
X467000D01*
X466200Y327100D01*
Y327500D02*
X465800Y328300D01*
X466600D01*
X466200Y327500D01*
X474100Y308600D02*
X473300Y310200D01*
X474900D01*
X474100Y308600D01*
Y309000D02*
X473700Y309800D01*
X474500D01*
X474100Y309000D01*
X474800Y278200D02*
X474000Y279800D01*
X475600D01*
X474800Y278200D01*
Y278600D02*
X474400Y279400D01*
X475200D01*
X474800Y278600D01*
X474400Y291300D02*
X473600Y292900D01*
X475200D01*
X474400Y291300D01*
Y291700D02*
X474000Y292500D01*
X474800D01*
X474400Y291700D01*
X473900Y300400D02*
X473100Y302000D01*
X474700D01*
X473900Y300400D01*
Y300800D02*
X473500Y301600D01*
X474300D01*
X473900Y300800D01*
X439600Y282200D02*
X438800Y283800D01*
X440400D01*
X439600Y282200D01*
Y282600D02*
X439200Y283400D01*
X440000D01*
X439600Y282600D01*
X431100Y278800D02*
X430300Y280400D01*
X431900D01*
X431100Y278800D01*
Y279200D02*
X430700Y280000D01*
X431500D01*
X431100Y279200D01*
X440000Y288800D02*
X439200Y290400D01*
X440800D01*
X440000Y288800D01*
Y289200D02*
X439600Y290000D01*
X440400D01*
X440000Y289200D01*
X441600Y270600D02*
X440800Y272200D01*
X442400D01*
X441600Y270600D01*
Y271000D02*
X441200Y271800D01*
X442000D01*
X441600Y271000D01*
X430500Y268800D02*
X429700Y270400D01*
X431300D01*
X430500Y268800D01*
Y269200D02*
X430100Y270000D01*
X430900D01*
X430500Y269200D01*
X420100Y273200D02*
X419300Y274800D01*
X420900D01*
X420100Y273200D01*
Y273600D02*
X419700Y274400D01*
X420500D01*
X420100Y273600D01*
X429600Y291100D02*
X428800Y292700D01*
X430400D01*
X429600Y291100D01*
Y291500D02*
X429200Y292300D01*
X430000D01*
X429600Y291500D01*
X438700Y299200D02*
X437900Y300800D01*
X439500D01*
X438700Y299200D01*
Y299600D02*
X438300Y300400D01*
X439100D01*
X438700Y299600D01*
X413600Y280400D02*
X412800Y282000D01*
X414400D01*
X413600Y280400D01*
Y280800D02*
X413200Y281600D01*
X414000D01*
X413600Y280800D01*
X399500Y279600D02*
X398700Y281200D01*
X400300D01*
X399500Y279600D01*
Y280000D02*
X399100Y280800D01*
X399900D01*
X399500Y280000D01*
X415700Y323900D02*
X414900Y325500D01*
X416500D01*
X415700Y323900D01*
Y324300D02*
X415300Y325100D01*
X416100D01*
X415700Y324300D01*
X400100Y321100D02*
X399300Y322700D01*
X400900D01*
X400100Y321100D01*
Y321500D02*
X399700Y322300D01*
X400500D01*
X400100Y321500D01*
X422700Y318300D02*
X421900Y319900D01*
X423500D01*
X422700Y318300D01*
Y318700D02*
X422300Y319500D01*
X423100D01*
X422700Y318700D01*
X411300Y303900D02*
X410500Y305500D01*
X412100D01*
X411300Y303900D01*
Y304300D02*
X410900Y305100D01*
X411700D01*
X411300Y304300D01*
X400100Y309800D02*
X399300Y311400D01*
X400900D01*
X400100Y309800D01*
Y310200D02*
X399700Y311000D01*
X400500D01*
X400100Y310200D01*
X360200Y311700D02*
X359400Y313300D01*
X361000D01*
X360200Y311700D01*
Y312100D02*
X359800Y312900D01*
X360600D01*
X360200Y312100D01*
X349800Y302700D02*
X349000Y304300D01*
X350600D01*
X349800Y302700D01*
Y303100D02*
X349400Y303900D01*
X350200D01*
X349800Y303100D01*
X331200Y297800D02*
X330400Y299400D01*
X332000D01*
X331200Y297800D01*
Y298200D02*
X330800Y299000D01*
X331600D01*
X331200Y298200D01*
X342700Y298000D02*
X341900Y299600D01*
X343500D01*
X342700Y298000D01*
Y298400D02*
X342300Y299200D01*
X343100D01*
X342700Y298400D01*
X369400Y304600D02*
X368600Y306200D01*
X370200D01*
X369400Y304600D01*
Y305000D02*
X369000Y305800D01*
X369800D01*
X369400Y305000D01*
X375900Y297800D02*
X375100Y299400D01*
X376700D01*
X375900Y297800D01*
Y298200D02*
X375500Y299000D01*
X376300D01*
X375900Y298200D01*
X372700Y315700D02*
X371900Y317300D01*
X373500D01*
X372700Y315700D01*
Y316100D02*
X372300Y316900D01*
X373100D01*
X372700Y316100D01*
X387400Y303400D02*
X386600Y305000D01*
X388200D01*
X387400Y303400D01*
Y303800D02*
X387000Y304600D01*
X387800D01*
X387400Y303800D01*
X388300Y316700D02*
X387500Y318300D01*
X389100D01*
X388300Y316700D01*
Y317100D02*
X387900Y317900D01*
X388700D01*
X388300Y317100D01*
X410100Y317000D02*
X409300Y318600D01*
X410900D01*
X410100Y317000D01*
Y317400D02*
X409700Y318200D01*
X410500D01*
X410100Y317400D01*
X401800Y297000D02*
X401000Y298600D01*
X402600D01*
X401800Y297000D01*
Y297400D02*
X401400Y298200D01*
X402200D01*
X401800Y297400D01*
X423400Y309500D02*
X422600Y311100D01*
X424200D01*
X423400Y309500D01*
Y309900D02*
X423000Y310700D01*
X423800D01*
X423400Y309900D01*
X433000Y326500D02*
X432200Y328100D01*
X433800D01*
X433000Y326500D01*
Y326900D02*
X432600Y327700D01*
X433400D01*
X433000Y326900D01*
X417900Y340500D02*
X417100Y342100D01*
X418700D01*
X417900Y340500D01*
Y340900D02*
X417500Y341700D01*
X418300D01*
X417900Y340900D01*
X401900Y340400D02*
X401100Y342000D01*
X402700D01*
X401900Y340400D01*
Y340800D02*
X401500Y341600D01*
X402300D01*
X401900Y340800D01*
X384300Y340300D02*
X383500Y341900D01*
X385100D01*
X384300Y340300D01*
Y340700D02*
X383900Y341500D01*
X384700D01*
X384300Y340700D01*
X367200Y340300D02*
X366400Y341900D01*
X368000D01*
X367200Y340300D01*
Y340700D02*
X366800Y341500D01*
X367600D01*
X367200Y340700D01*
X438500Y361000D02*
X437700Y362600D01*
X439300D01*
X438500Y361000D01*
Y361400D02*
X438100Y362200D01*
X438900D01*
X438500Y361400D01*
X420000Y361300D02*
X419200Y362900D01*
X420800D01*
X420000Y361300D01*
Y361700D02*
X419600Y362500D01*
X420400D01*
X420000Y361700D01*
X402200Y360900D02*
X401400Y362500D01*
X403000D01*
X402200Y360900D01*
Y361300D02*
X401800Y362100D01*
X402600D01*
X402200Y361300D01*
X384800Y360700D02*
X384000Y362300D01*
X385600D01*
X384800Y360700D01*
Y361100D02*
X384400Y361900D01*
X385200D01*
X384800Y361100D01*
X367500Y360700D02*
X366700Y362300D01*
X368300D01*
X367500Y360700D01*
Y361100D02*
X367100Y361900D01*
X367900D01*
X367500Y361100D01*
X355200Y376900D02*
X354400Y378500D01*
X356000D01*
X355200Y376900D01*
Y377300D02*
X354800Y378100D01*
X355600D01*
X355200Y377300D01*
X363600Y377200D02*
X362800Y378800D01*
X364400D01*
X363600Y377200D01*
Y377600D02*
X363200Y378400D01*
X364000D01*
X363600Y377600D01*
X371000Y377300D02*
X370200Y378900D01*
X371800D01*
X371000Y377300D01*
Y377700D02*
X370600Y378500D01*
X371400D01*
X371000Y377700D01*
X380900Y377200D02*
X380100Y378800D01*
X381700D01*
X380900Y377200D01*
Y377600D02*
X380500Y378400D01*
X381300D01*
X380900Y377600D01*
X388500Y377100D02*
X387700Y378700D01*
X389300D01*
X388500Y377100D01*
Y377500D02*
X388100Y378300D01*
X388900D01*
X388500Y377500D01*
X398300Y377100D02*
X397500Y378700D01*
X399100D01*
X398300Y377100D01*
Y377500D02*
X397900Y378300D01*
X398700D01*
X398300Y377500D01*
X405900Y377300D02*
X405100Y378900D01*
X406700D01*
X405900Y377300D01*
Y377700D02*
X405500Y378500D01*
X406300D01*
X405900Y377700D01*
X416100Y377400D02*
X415300Y379000D01*
X416900D01*
X416100Y377400D01*
Y377800D02*
X415700Y378600D01*
X416500D01*
X416100Y377800D01*
X423500Y377000D02*
X422700Y378600D01*
X424300D01*
X423500Y377000D01*
Y377400D02*
X423100Y378200D01*
X423900D01*
X423500Y377400D01*
X433500Y377200D02*
X432700Y378800D01*
X434300D01*
X433500Y377200D01*
Y377600D02*
X433100Y378400D01*
X433900D01*
X433500Y377600D01*
X438100Y381200D02*
X437300Y382800D01*
X438900D01*
X438100Y381200D01*
Y381600D02*
X437700Y382400D01*
X438500D01*
X438100Y381600D01*
X420200Y381000D02*
X419400Y382600D01*
X421000D01*
X420200Y381000D01*
Y381400D02*
X419800Y382200D01*
X420600D01*
X420200Y381400D01*
X402000Y381000D02*
X401200Y382600D01*
X402800D01*
X402000Y381000D01*
Y381400D02*
X401600Y382200D01*
X402400D01*
X402000Y381400D01*
X384400Y381200D02*
X383600Y382800D01*
X385200D01*
X384400Y381200D01*
Y381600D02*
X384000Y382400D01*
X384800D01*
X384400Y381600D01*
X366900Y380800D02*
X366100Y382400D01*
X367700D01*
X366900Y380800D01*
Y381200D02*
X366500Y382000D01*
X367300D01*
X366900Y381200D01*
X303100Y264800D02*
X302300Y266400D01*
X303900D01*
X303100Y264800D01*
Y265200D02*
X302700Y266000D01*
X303500D01*
X303100Y265200D01*
X292300Y264800D02*
X291500Y266400D01*
X293100D01*
X292300Y264800D01*
Y265200D02*
X291900Y266000D01*
X292700D01*
X292300Y265200D01*
X292900Y275900D02*
X292100Y277500D01*
X293700D01*
X292900Y275900D01*
Y276300D02*
X292500Y277100D01*
X293300D01*
X292900Y276300D01*
X293000Y291000D02*
X292200Y292600D01*
X293800D01*
X293000Y291000D01*
Y291400D02*
X292600Y292200D01*
X293400D01*
X293000Y291400D01*
X303800Y305500D02*
X303000Y307100D01*
X304600D01*
X303800Y305500D01*
Y305900D02*
X303400Y306700D01*
X304200D01*
X303800Y305900D01*
X293400Y305000D02*
X292600Y306600D01*
X294200D01*
X293400Y305000D01*
Y305400D02*
X293000Y306200D01*
X293800D01*
X293400Y305400D01*
X300100Y321200D02*
X299300Y322800D01*
X300900D01*
X300100Y321200D01*
Y321600D02*
X299700Y322400D01*
X300500D01*
X300100Y321600D01*
X288700Y314400D02*
X287900Y316000D01*
X289500D01*
X288700Y314400D01*
Y314800D02*
X288300Y315600D01*
X289100D01*
X288700Y314800D01*
X281800Y321400D02*
X281000Y323000D01*
X282600D01*
X281800Y321400D01*
Y321800D02*
X281400Y322600D01*
X282200D01*
X281800Y321800D01*
X290500Y331000D02*
X289700Y332600D01*
X291300D01*
X290500Y331000D01*
Y331400D02*
X290100Y332200D01*
X290900D01*
X290500Y331400D01*
X282000Y334400D02*
X281200Y336000D01*
X282800D01*
X282000Y334400D01*
Y334800D02*
X281600Y335600D01*
X282400D01*
X282000Y334800D01*
X295000Y341500D02*
X294200Y343100D01*
X295800D01*
X295000Y341500D01*
Y341900D02*
X294600Y342700D01*
X295400D01*
X295000Y341900D01*
X275300Y326100D02*
X274500Y327700D01*
X276100D01*
X275300Y326100D01*
Y326500D02*
X274900Y327300D01*
X275700D01*
X275300Y326500D01*
X287000Y342500D02*
X286200Y344100D01*
X287800D01*
X287000Y342500D01*
Y342900D02*
X286600Y343700D01*
X287400D01*
X287000Y342900D01*
X269900Y333800D02*
X269100Y335400D01*
X270700D01*
X269900Y333800D01*
Y334200D02*
X269500Y335000D01*
X270300D01*
X269900Y334200D01*
X277300Y341800D02*
X276500Y343400D01*
X278100D01*
X277300Y341800D01*
Y342200D02*
X276900Y343000D01*
X277700D01*
X277300Y342200D01*
X302800Y327300D02*
X302000Y328900D01*
X303600D01*
X302800Y327300D01*
Y327700D02*
X302400Y328500D01*
X303200D01*
X302800Y327700D01*
X303200Y342900D02*
X302400Y344500D01*
X304000D01*
X303200Y342900D01*
Y343300D02*
X302800Y344100D01*
X303600D01*
X303200Y343300D01*
X312900Y339500D02*
X312100Y341100D01*
X313700D01*
X312900Y339500D01*
Y339900D02*
X312500Y340700D01*
X313300D01*
X312900Y339900D01*
Y345500D02*
X312100Y347100D01*
X313700D01*
X312900Y345500D01*
Y345900D02*
X312500Y346700D01*
X313300D01*
X312900Y345900D01*
X324400Y340600D02*
X323600Y342200D01*
X325200D01*
X324400Y340600D01*
Y341000D02*
X324000Y341800D01*
X324800D01*
X324400Y341000D01*
X324900Y348600D02*
X324100Y350200D01*
X325700D01*
X324900Y348600D01*
Y349000D02*
X324500Y349800D01*
X325300D01*
X324900Y349000D01*
X336700Y340600D02*
X335900Y342200D01*
X337500D01*
X336700Y340600D01*
Y341000D02*
X336300Y341800D01*
X337100D01*
X336700Y341000D01*
X337100Y348700D02*
X336300Y350300D01*
X337900D01*
X337100Y348700D01*
Y349100D02*
X336700Y349900D01*
X337500D01*
X337100Y349100D01*
X342000Y371800D02*
X341200Y373400D01*
X342800D01*
X342000Y371800D01*
Y372200D02*
X341600Y373000D01*
X342400D01*
X342000Y372200D01*
X333400Y371500D02*
X332600Y373100D01*
X334200D01*
X333400Y371500D01*
Y371900D02*
X333000Y372700D01*
X333800D01*
X333400Y371900D01*
X325500Y371600D02*
X324700Y373200D01*
X326300D01*
X325500Y371600D01*
Y372000D02*
X325100Y372800D01*
X325900D01*
X325500Y372000D01*
X315500Y371900D02*
X314700Y373500D01*
X316300D01*
X315500Y371900D01*
Y372300D02*
X315100Y373100D01*
X315900D01*
X315500Y372300D01*
X307600Y371900D02*
X306800Y373500D01*
X308400D01*
X307600Y371900D01*
Y372300D02*
X307200Y373100D01*
X308000D01*
X307600Y372300D01*
X297300Y371900D02*
X296500Y373500D01*
X298100D01*
X297300Y371900D01*
Y372300D02*
X296900Y373100D01*
X297700D01*
X297300Y372300D01*
X289200Y371900D02*
X288400Y373500D01*
X290000D01*
X289200Y371900D01*
Y372300D02*
X288800Y373100D01*
X289600D01*
X289200Y372300D01*
X279600Y371900D02*
X278800Y373500D01*
X280400D01*
X279600Y371900D01*
Y372300D02*
X279200Y373100D01*
X280000D01*
X279600Y372300D01*
X271400Y371900D02*
X270600Y373500D01*
X272200D01*
X271400Y371900D01*
Y372300D02*
X271000Y373100D01*
X271800D01*
X271400Y372300D01*
X261500Y372200D02*
X260700Y373800D01*
X262300D01*
X261500Y372200D01*
Y372600D02*
X261100Y373400D01*
X261900D01*
X261500Y372600D01*
X253700Y372200D02*
X252900Y373800D01*
X254500D01*
X253700Y372200D01*
Y372600D02*
X253300Y373400D01*
X254100D01*
X253700Y372600D01*
X16600Y254700D02*
X15800Y256300D01*
X17400D01*
X16600Y254700D01*
Y255100D02*
X16200Y255900D01*
X17000D01*
X16600Y255100D01*
X8200Y250800D02*
X7400Y252400D01*
X9000D01*
X8200Y250800D01*
Y251200D02*
X7800Y252000D01*
X8600D01*
X8200Y251200D01*
X24500Y268400D02*
X23700Y270000D01*
X25300D01*
X24500Y268400D01*
Y268800D02*
X24100Y269600D01*
X24900D01*
X24500Y268800D01*
X12700Y268400D02*
X11900Y270000D01*
X13500D01*
X12700Y268400D01*
Y268800D02*
X12300Y269600D01*
X13100D01*
X12700Y268800D01*
X5100Y268400D02*
X4300Y270000D01*
X5900D01*
X5100Y268400D01*
Y268800D02*
X4700Y269600D01*
X5500D01*
X5100Y268800D01*
X6000Y284700D02*
X5200Y286300D01*
X6800D01*
X6000Y284700D01*
Y285100D02*
X5600Y285900D01*
X6400D01*
X6000Y285100D01*
X6200Y291000D02*
X5400Y292600D01*
X7000D01*
X6200Y291000D01*
Y291400D02*
X5800Y292200D01*
X6600D01*
X6200Y291400D01*
X24700Y282600D02*
X23900Y284200D01*
X25500D01*
X24700Y282600D01*
Y283000D02*
X24300Y283800D01*
X25100D01*
X24700Y283000D01*
X21100Y281200D02*
X20300Y282800D01*
X21900D01*
X21100Y281200D01*
Y281600D02*
X20700Y282400D01*
X21500D01*
X21100Y281600D01*
X43200Y280900D02*
X42400Y282500D01*
X44000D01*
X43200Y280900D01*
Y281300D02*
X42800Y282100D01*
X43600D01*
X43200Y281300D01*
X43000Y288900D02*
X42200Y290500D01*
X43800D01*
X43000Y288900D01*
Y289300D02*
X42600Y290100D01*
X43400D01*
X43000Y289300D01*
X43600Y296100D02*
X42800Y297700D01*
X44400D01*
X43600Y296100D01*
Y296500D02*
X43200Y297300D01*
X44000D01*
X43600Y296500D01*
X24700Y290400D02*
X23900Y292000D01*
X25500D01*
X24700Y290400D01*
Y290800D02*
X24300Y291600D01*
X25100D01*
X24700Y290800D01*
X20600Y290200D02*
X19800Y291800D01*
X21400D01*
X20600Y290200D01*
Y290600D02*
X20200Y291400D01*
X21000D01*
X20600Y290600D01*
X25100Y296700D02*
X24300Y298300D01*
X25900D01*
X25100Y296700D01*
Y297100D02*
X24700Y297900D01*
X25500D01*
X25100Y297100D01*
X21000Y296700D02*
X20200Y298300D01*
X21800D01*
X21000Y296700D01*
Y297100D02*
X20600Y297900D01*
X21400D01*
X21000Y297100D01*
X38900Y299900D02*
X38100Y301500D01*
X39700D01*
X38900Y299900D01*
Y300300D02*
X38500Y301100D01*
X39300D01*
X38900Y300300D01*
X43300Y308000D02*
X42500Y309600D01*
X44100D01*
X43300Y308000D01*
Y308400D02*
X42900Y309200D01*
X43700D01*
X43300Y308400D01*
X24400Y312200D02*
X23600Y313800D01*
X25200D01*
X24400Y312200D01*
Y312600D02*
X24000Y313400D01*
X24800D01*
X24400Y312600D01*
X15400Y312200D02*
X14600Y313800D01*
X16200D01*
X15400Y312200D01*
Y312600D02*
X15000Y313400D01*
X15800D01*
X15400Y312600D01*
X6500Y312300D02*
X5700Y313900D01*
X7300D01*
X6500Y312300D01*
Y312700D02*
X6100Y313500D01*
X6900D01*
X6500Y312700D01*
X23500Y328500D02*
X22700Y330100D01*
X24300D01*
X23500Y328500D01*
Y328900D02*
X23100Y329700D01*
X23900D01*
X23500Y328900D01*
X11700Y325200D02*
X10900Y326800D01*
X12500D01*
X11700Y325200D01*
Y325600D02*
X11300Y326400D01*
X12100D01*
X11700Y325600D01*
X4700Y325400D02*
X3900Y327000D01*
X5500D01*
X4700Y325400D01*
Y325800D02*
X4300Y326600D01*
X5100D01*
X4700Y325800D01*
X38600Y315000D02*
X37800Y316600D01*
X39400D01*
X38600Y315000D01*
Y315400D02*
X38200Y316200D01*
X39000D01*
X38600Y315400D01*
X39500Y328300D02*
X38700Y329900D01*
X40300D01*
X39500Y328300D01*
Y328700D02*
X39100Y329500D01*
X39900D01*
X39500Y328700D01*
X56400Y327300D02*
X55600Y328900D01*
X57200D01*
X56400Y327300D01*
Y327700D02*
X56000Y328500D01*
X56800D01*
X56400Y327700D01*
X66500Y327300D02*
X65700Y328900D01*
X67300D01*
X66500Y327300D01*
Y327700D02*
X66100Y328500D01*
X66900D01*
X66500Y327700D01*
X77600Y327500D02*
X76800Y329100D01*
X78400D01*
X77600Y327500D01*
Y327900D02*
X77200Y328700D01*
X78000D01*
X77600Y327900D01*
X76400Y336300D02*
X75600Y337900D01*
X77200D01*
X76400Y336300D01*
Y336700D02*
X76000Y337500D01*
X76800D01*
X76400Y336700D01*
X76200Y343000D02*
X75400Y344600D01*
X77000D01*
X76200Y343000D01*
Y343400D02*
X75800Y344200D01*
X76600D01*
X76200Y343400D01*
X76800Y351000D02*
X76000Y352600D01*
X77600D01*
X76800Y351000D01*
Y351400D02*
X76400Y352200D01*
X77200D01*
X76800Y351400D01*
X81700Y357100D02*
X80900Y358700D01*
X82500D01*
X81700Y357100D01*
Y357500D02*
X81300Y358300D01*
X82100D01*
X81700Y357500D01*
X72500Y357200D02*
X71700Y358800D01*
X73300D01*
X72500Y357200D01*
Y357600D02*
X72100Y358400D01*
X72900D01*
X72500Y357600D01*
X76500Y362100D02*
X75700Y363700D01*
X77300D01*
X76500Y362100D01*
Y362500D02*
X76100Y363300D01*
X76900D01*
X76500Y362500D01*
X63700Y360900D02*
X62900Y362500D01*
X64500D01*
X63700Y360900D01*
Y361300D02*
X63300Y362100D01*
X64100D01*
X63700Y361300D01*
Y365700D02*
X62900Y367300D01*
X64500D01*
X63700Y365700D01*
Y366100D02*
X63300Y366900D01*
X64100D01*
X63700Y366100D01*
X53400Y360600D02*
X52600Y362200D01*
X54200D01*
X53400Y360600D01*
Y361000D02*
X53000Y361800D01*
X53800D01*
X53400Y361000D01*
X53200Y365600D02*
X52400Y367200D01*
X54000D01*
X53200Y365600D01*
Y366000D02*
X52800Y366800D01*
X53600D01*
X53200Y366000D01*
X62600Y352900D02*
X61800Y354500D01*
X63400D01*
X62600Y352900D01*
Y353300D02*
X62200Y354100D01*
X63000D01*
X62600Y353300D01*
X54600Y352900D02*
X53800Y354500D01*
X55400D01*
X54600Y352900D01*
Y353300D02*
X54200Y354100D01*
X55000D01*
X54600Y353300D01*
X21800Y349500D02*
X21000Y351100D01*
X22600D01*
X21800Y349500D01*
Y349900D02*
X21400Y350700D01*
X22200D01*
X21800Y349900D01*
X22200Y357800D02*
X21400Y359400D01*
X23000D01*
X22200Y357800D01*
Y358200D02*
X21800Y359000D01*
X22600D01*
X22200Y358200D01*
X21500Y337700D02*
X20700Y339300D01*
X22300D01*
X21500Y337700D01*
Y338100D02*
X21100Y338900D01*
X21900D01*
X21500Y338100D01*
X8100Y341900D02*
X7300Y343500D01*
X8900D01*
X8100Y341900D01*
Y342300D02*
X7700Y343100D01*
X8500D01*
X8100Y342300D01*
X10100Y346200D02*
X9300Y347800D01*
X10900D01*
X10100Y346200D01*
Y346600D02*
X9700Y347400D01*
X10500D01*
X10100Y346600D01*
X10900Y368600D02*
X10100Y370200D01*
X11700D01*
X10900Y368600D01*
Y369000D02*
X10500Y369800D01*
X11300D01*
X10900Y369000D01*
X24900Y382000D02*
X24100Y383600D01*
X25700D01*
X24900Y382000D01*
Y382400D02*
X24500Y383200D01*
X25300D01*
X24900Y382400D01*
X147300Y330900D02*
X146500Y332500D01*
X148100D01*
X147300Y330900D01*
Y331300D02*
X146900Y332100D01*
X147700D01*
X147300Y331300D01*
X153400Y330800D02*
X152600Y332400D01*
X154200D01*
X153400Y330800D01*
Y331200D02*
X153000Y332000D01*
X153800D01*
X153400Y331200D01*
X159600Y331000D02*
X158800Y332600D01*
X160400D01*
X159600Y331000D01*
Y331400D02*
X159200Y332200D01*
X160000D01*
X159600Y331400D01*
X166200Y331100D02*
X165400Y332700D01*
X167000D01*
X166200Y331100D01*
Y331500D02*
X165800Y332300D01*
X166600D01*
X166200Y331500D01*
X174300Y331200D02*
X173500Y332800D01*
X175100D01*
X174300Y331200D01*
Y331600D02*
X173900Y332400D01*
X174700D01*
X174300Y331600D01*
X183400Y331000D02*
X182600Y332600D01*
X184200D01*
X183400Y331000D01*
Y331400D02*
X183000Y332200D01*
X183800D01*
X183400Y331400D01*
X193900Y330800D02*
X193100Y332400D01*
X194700D01*
X193900Y330800D01*
Y331200D02*
X193500Y332000D01*
X194300D01*
X193900Y331200D01*
X147400Y338000D02*
X146600Y339600D01*
X148200D01*
X147400Y338000D01*
Y338400D02*
X147000Y339200D01*
X147800D01*
X147400Y338400D01*
X153500Y337900D02*
X152700Y339500D01*
X154300D01*
X153500Y337900D01*
Y338300D02*
X153100Y339100D01*
X153900D01*
X153500Y338300D01*
X159700Y338100D02*
X158900Y339700D01*
X160500D01*
X159700Y338100D01*
Y338500D02*
X159300Y339300D01*
X160100D01*
X159700Y338500D01*
X166300Y338200D02*
X165500Y339800D01*
X167100D01*
X166300Y338200D01*
Y338600D02*
X165900Y339400D01*
X166700D01*
X166300Y338600D01*
X174400Y338300D02*
X173600Y339900D01*
X175200D01*
X174400Y338300D01*
Y338700D02*
X174000Y339500D01*
X174800D01*
X174400Y338700D01*
X183500Y338100D02*
X182700Y339700D01*
X184300D01*
X183500Y338100D01*
Y338500D02*
X183100Y339300D01*
X183900D01*
X183500Y338500D01*
X194000Y337900D02*
X193200Y339500D01*
X194800D01*
X194000Y337900D01*
Y338300D02*
X193600Y339100D01*
X194400D01*
X194000Y338300D01*
X147100Y343400D02*
X146300Y345000D01*
X147900D01*
X147100Y343400D01*
Y343800D02*
X146700Y344600D01*
X147500D01*
X147100Y343800D01*
X153200Y343300D02*
X152400Y344900D01*
X154000D01*
X153200Y343300D01*
Y343700D02*
X152800Y344500D01*
X153600D01*
X153200Y343700D01*
X159400Y343500D02*
X158600Y345100D01*
X160200D01*
X159400Y343500D01*
Y343900D02*
X159000Y344700D01*
X159800D01*
X159400Y343900D01*
X166000Y343600D02*
X165200Y345200D01*
X166800D01*
X166000Y343600D01*
Y344000D02*
X165600Y344800D01*
X166400D01*
X166000Y344000D01*
X174100Y343700D02*
X173300Y345300D01*
X174900D01*
X174100Y343700D01*
Y344100D02*
X173700Y344900D01*
X174500D01*
X174100Y344100D01*
X183200Y343500D02*
X182400Y345100D01*
X184000D01*
X183200Y343500D01*
Y343900D02*
X182800Y344700D01*
X183600D01*
X183200Y343900D01*
X193700Y343300D02*
X192900Y344900D01*
X194500D01*
X193700Y343300D01*
Y343700D02*
X193300Y344500D01*
X194100D01*
X193700Y343700D01*
X197400Y347400D02*
X196600Y349000D01*
X198200D01*
X197400Y347400D01*
Y347800D02*
X197000Y348600D01*
X197800D01*
X197400Y347800D01*
X186900Y347600D02*
X186100Y349200D01*
X187700D01*
X186900Y347600D01*
Y348000D02*
X186500Y348800D01*
X187300D01*
X186900Y348000D01*
X177800Y347800D02*
X177000Y349400D01*
X178600D01*
X177800Y347800D01*
Y348200D02*
X177400Y349000D01*
X178200D01*
X177800Y348200D01*
X169700Y347700D02*
X168900Y349300D01*
X170500D01*
X169700Y347700D01*
Y348100D02*
X169300Y348900D01*
X170100D01*
X169700Y348100D01*
X163100Y347600D02*
X162300Y349200D01*
X163900D01*
X163100Y347600D01*
Y348000D02*
X162700Y348800D01*
X163500D01*
X163100Y348000D01*
X156900Y347400D02*
X156100Y349000D01*
X157700D01*
X156900Y347400D01*
Y347800D02*
X156500Y348600D01*
X157300D01*
X156900Y347800D01*
X150800Y347500D02*
X150000Y349100D01*
X151600D01*
X150800Y347500D01*
Y347900D02*
X150400Y348700D01*
X151200D01*
X150800Y347900D01*
X186600Y84000D02*
X185800Y85600D01*
X187400D01*
X186600Y84000D01*
Y84400D02*
X186200Y85200D01*
X187000D01*
X186600Y84400D01*
X186300Y80400D02*
X185500Y82000D01*
X187100D01*
X186300Y80400D01*
Y80800D02*
X185900Y81600D01*
X186700D01*
X186300Y80800D01*
X185800Y197600D02*
X185000Y199200D01*
X186600D01*
X185800Y197600D01*
Y198000D02*
X185400Y198800D01*
X186200D01*
X185800Y198000D01*
X190000Y197600D02*
X189200Y199200D01*
X190800D01*
X190000Y197600D01*
Y198000D02*
X189600Y198800D01*
X190400D01*
X190000Y198000D01*
X121400Y311000D02*
X120600Y312600D01*
X122200D01*
X121400Y311000D01*
Y311400D02*
X121000Y312200D01*
X121800D01*
X121400Y311400D01*
X53500Y321700D02*
X52700Y323300D01*
X54300D01*
X53500Y321700D01*
Y322100D02*
X53100Y322900D01*
X53900D01*
X53500Y322100D01*
X48600Y270200D02*
X47800Y271800D01*
X49400D01*
X48600Y270200D01*
Y270600D02*
X48200Y271400D01*
X49000D01*
X48600Y270600D01*
X237100Y334800D02*
X236300Y336400D01*
X237900D01*
X237100Y334800D01*
Y335200D02*
X236700Y336000D01*
X237500D01*
X237100Y335200D01*
X240900Y340900D02*
X240100Y342500D01*
X241700D01*
X240900Y340900D01*
Y341300D02*
X240500Y342100D01*
X241300D01*
X240900Y341300D01*
X307600Y273900D02*
X306800Y275500D01*
X308400D01*
X307600Y273900D01*
Y274300D02*
X307200Y275100D01*
X308000D01*
X307600Y274300D01*
X309800Y212900D02*
X309000Y214500D01*
X310600D01*
X309800Y212900D01*
Y213300D02*
X309400Y214100D01*
X310200D01*
X309800Y213300D01*
X312600Y209750D02*
X311800Y211350D01*
X313400D01*
X312600Y209750D01*
Y210150D02*
X312200Y210950D01*
X313000D01*
X312600Y210150D01*
X416600Y330800D02*
X415800Y332400D01*
X417400D01*
X416600Y330800D01*
Y331200D02*
X416200Y332000D01*
X417000D01*
X416600Y331200D01*
X315100Y206800D02*
X314300Y208400D01*
X315900D01*
X315100Y206800D01*
Y207200D02*
X314700Y208000D01*
X315500D01*
X315100Y207200D01*
X410700Y330800D02*
X409900Y332400D01*
X411500D01*
X410700Y330800D01*
Y331200D02*
X410300Y332000D01*
X411100D01*
X410700Y331200D01*
X393600Y330800D02*
X392800Y332400D01*
X394400D01*
X393600Y330800D01*
Y331200D02*
X393200Y332000D01*
X394000D01*
X393600Y331200D01*
X376400Y330800D02*
X375600Y332400D01*
X377200D01*
X376400Y330800D01*
Y331200D02*
X376000Y332000D01*
X376800D01*
X376400Y331200D01*
X218100Y329000D02*
X217300Y330600D01*
X218900D01*
X218100Y329000D01*
Y329400D02*
X217700Y330200D01*
X218500D01*
X218100Y329400D01*
X111600Y311500D02*
X110800Y313100D01*
X112400D01*
X111600Y311500D01*
Y311900D02*
X111200Y312700D01*
X112000D01*
X111600Y311900D01*
X93500Y339400D02*
X92700Y341000D01*
X94300D01*
X93500Y339400D01*
Y339800D02*
X93100Y340600D01*
X93900D01*
X93500Y339800D01*
X186500Y76700D02*
X185700Y78300D01*
X187300D01*
X186500Y76700D01*
Y77100D02*
X186100Y77900D01*
X186900D01*
X186500Y77100D01*
X126000Y245200D02*
X125200Y246800D01*
X126800D01*
X126000Y245200D01*
Y245600D02*
X125600Y246400D01*
X126400D01*
X126000Y245600D01*
X46510Y180210D02*
X45710Y181810D01*
X47310D01*
X46510Y180210D01*
Y180610D02*
X46110Y181410D01*
X46910D01*
X46510Y180610D01*
X46500Y236200D02*
X45700Y237800D01*
X47300D01*
X46500Y236200D01*
Y236600D02*
X46100Y237400D01*
X46900D01*
X46500Y236600D01*
X309500Y174200D02*
X308700Y175800D01*
X310300D01*
X309500Y174200D01*
Y174600D02*
X309100Y175400D01*
X309900D01*
X309500Y174600D01*
Y177700D02*
X308700Y179300D01*
X310300D01*
X309500Y177700D01*
Y178100D02*
X309100Y178900D01*
X309900D01*
X309500Y178100D01*
X377500Y286700D02*
X376700Y288300D01*
X378300D01*
X377500Y286700D01*
Y287100D02*
X377100Y287900D01*
X377900D01*
X377500Y287100D01*
X381500Y286700D02*
X380700Y288300D01*
X382300D01*
X381500Y286700D01*
Y287100D02*
X381100Y287900D01*
X381900D01*
X381500Y287100D01*
X386500Y286200D02*
X385700Y287800D01*
X387300D01*
X386500Y286200D01*
Y286600D02*
X386100Y287400D01*
X386900D01*
X386500Y286600D01*
X391000Y286700D02*
X390200Y288300D01*
X391800D01*
X391000Y286700D01*
Y287100D02*
X390600Y287900D01*
X391400D01*
X391000Y287100D01*
Y290200D02*
X390200Y291800D01*
X391800D01*
X391000Y290200D01*
Y290600D02*
X390600Y291400D01*
X391400D01*
X391000Y290600D01*
X386500Y290700D02*
X385700Y292300D01*
X387300D01*
X386500Y290700D01*
Y291100D02*
X386100Y291900D01*
X386900D01*
X386500Y291100D01*
X381678Y290709D02*
X380878Y292309D01*
X382478D01*
X381678Y290709D01*
Y291109D02*
X381278Y291909D01*
X382078D01*
X381678Y291109D01*
X377500Y291200D02*
X376700Y292800D01*
X378300D01*
X377500Y291200D01*
Y291600D02*
X377100Y292400D01*
X377900D01*
X377500Y291600D01*
X46510Y152210D02*
X45710Y153810D01*
X47310D01*
X46510Y152210D01*
Y152610D02*
X46110Y153410D01*
X46910D01*
X46510Y152610D01*
Y208210D02*
X45710Y209810D01*
X47310D01*
X46510Y208210D01*
Y208610D02*
X46110Y209410D01*
X46910D01*
X46510Y208610D01*
X358500Y331200D02*
X357700Y332800D01*
X359300D01*
X358500Y331200D01*
Y331600D02*
X358100Y332400D01*
X358900D01*
X358500Y331600D01*
X338500Y240335D02*
X337700Y241935D01*
X339300D01*
X338500Y240335D01*
Y240735D02*
X338100Y241535D01*
X338900D01*
X338500Y240735D01*
X324000Y240435D02*
X323200Y242035D01*
X324800D01*
X324000Y240435D01*
Y240835D02*
X323600Y241635D01*
X324400D01*
X324000Y240835D01*
X327365Y214065D02*
X326565Y215665D01*
X328165D01*
X327365Y214065D01*
Y214465D02*
X326965Y215265D01*
X327765D01*
X327365Y214465D01*
X380500Y274691D02*
X379700Y276291D01*
X381300D01*
X380500Y274691D01*
Y275091D02*
X380100Y275891D01*
X380900D01*
X380500Y275091D01*
X412490Y242430D02*
X411690Y244030D01*
X413290D01*
X412490Y242430D01*
Y242830D02*
X412090Y243630D01*
X412890D01*
X412490Y242830D01*
X328135Y146200D02*
X327335Y147800D01*
X328935D01*
X328135Y146200D01*
Y146600D02*
X327735Y147400D01*
X328535D01*
X328135Y146600D01*
X331500Y160200D02*
X330700Y161800D01*
X332300D01*
X331500Y160200D01*
Y160600D02*
X331100Y161400D01*
X331900D01*
X331500Y160600D01*
X346990Y160430D02*
X346190Y162030D01*
X347790D01*
X346990Y160430D01*
Y160830D02*
X346590Y161630D01*
X347390D01*
X346990Y160830D01*
X382000Y189691D02*
X381200Y191291D01*
X382800D01*
X382000Y189691D01*
Y190091D02*
X381600Y190891D01*
X382400D01*
X382000Y190091D01*
X497390Y186200D02*
X496590Y187800D01*
X498190D01*
X497390Y186200D01*
Y186600D02*
X496990Y187400D01*
X497790D01*
X497390Y186600D01*
X497000Y213700D02*
X496200Y215300D01*
X497800D01*
X497000Y213700D01*
Y214100D02*
X496600Y214900D01*
X497400D01*
X497000Y214100D01*
X496000Y228700D02*
X495200Y230300D01*
X496800D01*
X496000Y228700D01*
Y229100D02*
X495600Y229900D01*
X496400D01*
X496000Y229100D01*
X479500Y271700D02*
X478700Y273300D01*
X480300D01*
X479500Y271700D01*
Y272100D02*
X479100Y272900D01*
X479900D01*
X479500Y272100D01*
X474500Y318700D02*
X473700Y320300D01*
X475300D01*
X474500Y318700D01*
Y319100D02*
X474100Y319900D01*
X474900D01*
X474500Y319100D01*
Y347200D02*
X473700Y348800D01*
X475300D01*
X474500Y347200D01*
Y347600D02*
X474100Y348400D01*
X474900D01*
X474500Y347600D01*
X493000Y383200D02*
X492200Y384800D01*
X493800D01*
X493000Y383200D01*
Y383600D02*
X492600Y384400D01*
X493400D01*
X493000Y383600D01*
D146*
X50800Y70000D02*
G03*
X50800Y70000I-800J0D01*
G01*
X60800D02*
G03*
X60800Y70000I-800J0D01*
G01*
X70800D02*
G03*
X70800Y70000I-800J0D01*
G01*
X80800D02*
G03*
X80800Y70000I-800J0D01*
G01*
X90800D02*
G03*
X90800Y70000I-800J0D01*
G01*
X100800D02*
G03*
X100800Y70000I-800J0D01*
G01*
X110800D02*
G03*
X110800Y70000I-800J0D01*
G01*
X120800D02*
G03*
X120800Y70000I-800J0D01*
G01*
X209800Y307500D02*
G03*
X209800Y307500I-800J0D01*
G01*
X219800D02*
G03*
X219800Y307500I-800J0D01*
G01*
X229800D02*
G03*
X229800Y307500I-800J0D01*
G01*
X239800D02*
G03*
X239800Y307500I-800J0D01*
G01*
X97300Y307000D02*
G03*
X97300Y307000I-800J0D01*
G01*
X107300D02*
G03*
X107300Y307000I-800J0D01*
G01*
X117300D02*
G03*
X117300Y307000I-800J0D01*
G01*
X127300D02*
G03*
X127300Y307000I-800J0D01*
G01*
X137300D02*
G03*
X137300Y307000I-800J0D01*
G01*
X147300D02*
G03*
X147300Y307000I-800J0D01*
G01*
X157300D02*
G03*
X157300Y307000I-800J0D01*
G01*
X167300D02*
G03*
X167300Y307000I-800J0D01*
G01*
X195800Y69000D02*
G03*
X195800Y69000I-800J0D01*
G01*
X185800D02*
G03*
X185800Y69000I-800J0D01*
G01*
X175800D02*
G03*
X175800Y69000I-800J0D01*
G01*
X165800D02*
G03*
X165800Y69000I-800J0D01*
G01*
X339300Y357000D02*
G03*
X339300Y357000I-800J0D01*
G01*
Y367000D02*
G03*
X339300Y367000I-800J0D01*
G01*
Y377000D02*
G03*
X339300Y377000I-800J0D01*
G01*
X321300Y357000D02*
G03*
X321300Y357000I-800J0D01*
G01*
Y367000D02*
G03*
X321300Y367000I-800J0D01*
G01*
Y377000D02*
G03*
X321300Y377000I-800J0D01*
G01*
X303300Y357000D02*
G03*
X303300Y357000I-800J0D01*
G01*
Y367000D02*
G03*
X303300Y367000I-800J0D01*
G01*
Y377000D02*
G03*
X303300Y377000I-800J0D01*
G01*
X249300Y357000D02*
G03*
X249300Y357000I-800J0D01*
G01*
Y367000D02*
G03*
X249300Y367000I-800J0D01*
G01*
Y377000D02*
G03*
X249300Y377000I-800J0D01*
G01*
X267300Y357000D02*
G03*
X267300Y357000I-800J0D01*
G01*
Y367000D02*
G03*
X267300Y367000I-800J0D01*
G01*
Y377000D02*
G03*
X267300Y377000I-800J0D01*
G01*
X285300Y357000D02*
G03*
X285300Y357000I-800J0D01*
G01*
Y367000D02*
G03*
X285300Y367000I-800J0D01*
G01*
Y377000D02*
G03*
X285300Y377000I-800J0D01*
G01*
X16300Y69000D02*
G03*
X16300Y69000I-800J0D01*
G01*
Y79000D02*
G03*
X16300Y79000I-800J0D01*
G01*
Y89000D02*
G03*
X16300Y89000I-800J0D01*
G01*
Y99000D02*
G03*
X16300Y99000I-800J0D01*
G01*
Y109000D02*
G03*
X16300Y109000I-800J0D01*
G01*
Y119000D02*
G03*
X16300Y119000I-800J0D01*
G01*
Y129000D02*
G03*
X16300Y129000I-800J0D01*
G01*
Y139000D02*
G03*
X16300Y139000I-800J0D01*
G01*
X200800Y364500D02*
G03*
X200800Y364500I-800J0D01*
G01*
Y374500D02*
G03*
X200800Y374500I-800J0D01*
G01*
X210800Y364500D02*
G03*
X210800Y364500I-800J0D01*
G01*
Y374500D02*
G03*
X210800Y374500I-800J0D01*
G01*
X220800Y364500D02*
G03*
X220800Y364500I-800J0D01*
G01*
Y374500D02*
G03*
X220800Y374500I-800J0D01*
G01*
X230800D02*
G03*
X230800Y374500I-800J0D01*
G01*
Y364500D02*
G03*
X230800Y364500I-800J0D01*
G01*
X149300D02*
G03*
X149300Y364500I-800J0D01*
G01*
Y374500D02*
G03*
X149300Y374500I-800J0D01*
G01*
X159300Y364500D02*
G03*
X159300Y364500I-800J0D01*
G01*
Y374500D02*
G03*
X159300Y374500I-800J0D01*
G01*
X169300Y364500D02*
G03*
X169300Y364500I-800J0D01*
G01*
Y374500D02*
G03*
X169300Y374500I-800J0D01*
G01*
X179300D02*
G03*
X179300Y374500I-800J0D01*
G01*
Y364500D02*
G03*
X179300Y364500I-800J0D01*
G01*
X98300Y373000D02*
G03*
X98300Y373000I-800J0D01*
G01*
X88300D02*
G03*
X88300Y373000I-800J0D01*
G01*
X78300D02*
G03*
X78300Y373000I-800J0D01*
G01*
X68300D02*
G03*
X68300Y373000I-800J0D01*
G01*
X429300Y382000D02*
G03*
X429300Y382000I-800J0D01*
G01*
Y372000D02*
G03*
X429300Y372000I-800J0D01*
G01*
Y362000D02*
G03*
X429300Y362000I-800J0D01*
G01*
X411800Y382000D02*
G03*
X411800Y382000I-800J0D01*
G01*
Y372000D02*
G03*
X411800Y372000I-800J0D01*
G01*
Y362000D02*
G03*
X411800Y362000I-800J0D01*
G01*
X394300Y382000D02*
G03*
X394300Y382000I-800J0D01*
G01*
Y372000D02*
G03*
X394300Y372000I-800J0D01*
G01*
Y362000D02*
G03*
X394300Y362000I-800J0D01*
G01*
X376800Y382000D02*
G03*
X376800Y382000I-800J0D01*
G01*
Y372000D02*
G03*
X376800Y372000I-800J0D01*
G01*
Y362000D02*
G03*
X376800Y362000I-800J0D01*
G01*
X359481Y382000D02*
G03*
X359481Y382000I-800J0D01*
G01*
Y372000D02*
G03*
X359481Y372000I-800J0D01*
G01*
Y362000D02*
G03*
X359481Y362000I-800J0D01*
G01*
X203115Y199000D02*
G03*
X203115Y199000I-800J0D01*
G01*
X222800D02*
G03*
X222800Y199000I-800J0D01*
G01*
X494300Y153398D02*
G03*
X494300Y153398I-800J0D01*
G01*
Y134500D02*
G03*
X494300Y134500I-800J0D01*
G01*
Y115602D02*
G03*
X494300Y115602I-800J0D01*
G01*
D147*
X493900Y153398D02*
G03*
X493900Y153398I-400J0D01*
G01*
Y134500D02*
G03*
X493900Y134500I-400J0D01*
G01*
Y115602D02*
G03*
X493900Y115602I-400J0D01*
G01*
M02*
