G04*
G04 #@! TF.GenerationSoftware,Altium Limited,Altium Designer,20.0.13 (296)*
G04*
G04 Layer_Color=8421504*
%FSLAX25Y25*%
%MOIN*%
G70*
G01*
G75*
%ADD37R,0.09843X0.11811*%
%ADD38R,0.03937X0.05510*%
%ADD39R,0.06890X0.07874*%
%ADD40R,0.05000X0.05000*%
%ADD41R,0.05000X0.05000*%
%ADD42R,0.06299X0.05118*%
%ADD43R,0.06299X0.02559*%
%ADD44R,0.09843X0.13386*%
%ADD45R,0.05118X0.06299*%
%ADD46R,0.07874X0.06890*%
%ADD47C,0.03937*%
%ADD48R,0.04724X0.05906*%
%ADD49R,0.04331X0.02362*%
%ADD50O,0.07678X0.02238*%
%ADD51R,0.07874X0.05906*%
%ADD52O,0.08014X0.02260*%
%ADD53O,0.07433X0.02260*%
%ADD54R,0.04134X0.02559*%
%ADD55R,0.02559X0.06299*%
%ADD56R,0.13386X0.09843*%
%ADD57R,0.39850X0.39449*%
%ADD58R,0.05949X0.12992*%
%ADD59R,0.11811X0.09843*%
D37*
X274676Y26300D02*
D03*
X296724D02*
D03*
D38*
X222335Y9400D02*
D03*
X214065D02*
D03*
X39765Y128700D02*
D03*
X48035D02*
D03*
X39865Y112300D02*
D03*
X48135D02*
D03*
X476365Y384000D02*
D03*
X484635D02*
D03*
X335635Y206500D02*
D03*
X327365D02*
D03*
X319865Y138500D02*
D03*
X328135D02*
D03*
X328865Y320500D02*
D03*
X337135D02*
D03*
D39*
X237500Y14500D02*
D03*
Y32610D02*
D03*
X434500Y163055D02*
D03*
Y144945D02*
D03*
X439500Y251000D02*
D03*
Y232890D02*
D03*
D40*
X329230Y58220D02*
D03*
X321000Y58200D02*
D03*
X311770Y72380D02*
D03*
X320000Y72400D02*
D03*
X292400Y72300D02*
D03*
X300630Y72320D02*
D03*
X272870Y71980D02*
D03*
X281100Y72000D02*
D03*
X292370Y54180D02*
D03*
X300600Y54200D02*
D03*
X281800Y54394D02*
D03*
X273530Y54404D02*
D03*
X324700Y18000D02*
D03*
X332970Y17990D02*
D03*
X359430Y44910D02*
D03*
X367700Y44900D02*
D03*
X316730Y320520D02*
D03*
X308500Y320500D02*
D03*
X61230Y181020D02*
D03*
X53000Y181000D02*
D03*
X61230Y195020D02*
D03*
X53000Y195000D02*
D03*
Y236980D02*
D03*
X61230Y237000D02*
D03*
X53000Y251000D02*
D03*
X61230Y251020D02*
D03*
X66270Y111780D02*
D03*
X74500Y111800D02*
D03*
X66400Y128700D02*
D03*
X74630Y128720D02*
D03*
X61230Y153020D02*
D03*
X53000Y153000D02*
D03*
X61230Y167000D02*
D03*
X53000Y166980D02*
D03*
X61230Y209020D02*
D03*
X53000Y209000D02*
D03*
X61230Y223000D02*
D03*
X53000Y222980D02*
D03*
X141230Y246020D02*
D03*
X133000Y246000D02*
D03*
X141230Y235520D02*
D03*
X133000Y235500D02*
D03*
X169770Y216490D02*
D03*
X161500Y216500D02*
D03*
X56700Y271000D02*
D03*
X64970Y270990D02*
D03*
X50000Y309500D02*
D03*
X58230Y309520D02*
D03*
X39270Y363980D02*
D03*
X47500Y364000D02*
D03*
X47270Y322490D02*
D03*
X39000Y322500D02*
D03*
X47230Y336020D02*
D03*
X39000Y336000D02*
D03*
X47230Y350020D02*
D03*
X39000Y350000D02*
D03*
X236000Y151000D02*
D03*
X227770Y150980D02*
D03*
X236730Y165020D02*
D03*
X228500Y165000D02*
D03*
X503500Y312000D02*
D03*
X511730Y312020D02*
D03*
X494500Y296500D02*
D03*
X502770Y296490D02*
D03*
X494500Y282500D02*
D03*
X502730Y282520D02*
D03*
X490270Y355480D02*
D03*
X498500Y355500D02*
D03*
X448770Y383980D02*
D03*
X457000Y384000D02*
D03*
X479230Y229510D02*
D03*
X487500Y229500D02*
D03*
X327500Y224000D02*
D03*
X335730Y224020D02*
D03*
X249270Y215990D02*
D03*
X241000Y216000D02*
D03*
Y199500D02*
D03*
X249230Y199520D02*
D03*
D41*
X217700Y30200D02*
D03*
X217720Y21970D02*
D03*
X369490Y289730D02*
D03*
X369500Y298000D02*
D03*
X337500Y290500D02*
D03*
X337510Y298770D02*
D03*
X460000Y247000D02*
D03*
X460010Y255270D02*
D03*
X37980Y294230D02*
D03*
X38000Y286000D02*
D03*
X428500Y346000D02*
D03*
X428520Y337770D02*
D03*
X411000Y346000D02*
D03*
X411020Y337770D02*
D03*
X393500Y346000D02*
D03*
X393520Y337770D02*
D03*
X376000Y346000D02*
D03*
X376020Y337770D02*
D03*
X358480Y346230D02*
D03*
X358500Y338000D02*
D03*
X507520Y244770D02*
D03*
X507500Y253000D02*
D03*
X324010Y257870D02*
D03*
X324000Y249600D02*
D03*
X338510Y257770D02*
D03*
X338500Y249500D02*
D03*
X421000Y251500D02*
D03*
X420990Y243230D02*
D03*
X319980Y160730D02*
D03*
X320000Y152500D02*
D03*
X331510Y177770D02*
D03*
X331500Y169500D02*
D03*
X347000Y178000D02*
D03*
X346990Y169730D02*
D03*
X417510Y162270D02*
D03*
X417500Y154000D02*
D03*
X467990Y124730D02*
D03*
X468000Y133000D02*
D03*
D42*
X254400Y26612D02*
D03*
Y15588D02*
D03*
D43*
X318070Y29700D02*
D03*
Y34700D02*
D03*
Y39700D02*
D03*
Y44700D02*
D03*
X339330D02*
D03*
Y39700D02*
D03*
Y34700D02*
D03*
Y29700D02*
D03*
D44*
X328700Y37200D02*
D03*
D45*
X370012Y55900D02*
D03*
X358988D02*
D03*
X454488Y319500D02*
D03*
X465512D02*
D03*
X488512Y214500D02*
D03*
X477488D02*
D03*
D46*
X360945Y103200D02*
D03*
X379055D02*
D03*
D47*
X216500Y48800D02*
D03*
X323500Y268000D02*
D03*
X451000Y372000D02*
D03*
X318000Y177500D02*
D03*
X311000Y289500D02*
D03*
D48*
X323500Y300512D02*
D03*
Y289488D02*
D03*
D49*
X348382Y290760D02*
D03*
X358618D02*
D03*
Y294500D02*
D03*
Y298240D02*
D03*
X348382D02*
D03*
D50*
X62500Y348500D02*
D03*
Y343500D02*
D03*
Y338500D02*
D03*
Y333500D02*
D03*
X83800Y348500D02*
D03*
Y343500D02*
D03*
Y338500D02*
D03*
Y333500D02*
D03*
D51*
X39231Y189079D02*
D03*
X8000Y189000D02*
D03*
X7800Y244100D02*
D03*
X39031Y244179D02*
D03*
X39231Y161079D02*
D03*
X8000Y161000D02*
D03*
X39231Y217079D02*
D03*
X8000Y217000D02*
D03*
D52*
X155103Y243000D02*
D03*
Y238000D02*
D03*
Y233000D02*
D03*
Y228000D02*
D03*
X176897Y243000D02*
D03*
Y238000D02*
D03*
Y233000D02*
D03*
Y228000D02*
D03*
D53*
X50374Y297500D02*
D03*
Y292500D02*
D03*
Y287500D02*
D03*
Y282500D02*
D03*
X71626Y297500D02*
D03*
Y292500D02*
D03*
Y287500D02*
D03*
Y282500D02*
D03*
D54*
X205445Y168740D02*
D03*
X214500Y172480D02*
D03*
Y165000D02*
D03*
D55*
X474500Y263630D02*
D03*
X479500D02*
D03*
X484500D02*
D03*
X489500D02*
D03*
Y242370D02*
D03*
X484500D02*
D03*
X479500D02*
D03*
X474500D02*
D03*
D56*
X482000Y253000D02*
D03*
D57*
X380500Y228000D02*
D03*
X382000Y143000D02*
D03*
D58*
X370500Y266991D02*
D03*
X390500D02*
D03*
X380500D02*
D03*
X372000Y181991D02*
D03*
X392000D02*
D03*
X382000D02*
D03*
D59*
X459000Y277476D02*
D03*
Y299524D02*
D03*
M02*
