G04*
G04 #@! TF.GenerationSoftware,Altium Limited,Altium Designer,20.0.13 (296)*
G04*
G04 Layer_Color=32768*
%FSLAX25Y25*%
%MOIN*%
G70*
G01*
G75*
%ADD134C,0.00197*%
%ADD143C,0.00200*%
G36*
X97948Y192419D02*
X98418Y191948D01*
X98673Y191333D01*
X98673Y190667D01*
X98418Y190052D01*
X97948Y189582D01*
X97333Y189327D01*
X97000Y189327D01*
X96667Y189327D01*
X96052Y189582D01*
X95582Y190052D01*
X95327Y190667D01*
X95327Y191333D01*
X95581Y191948D01*
X96052Y192418D01*
X96667Y192673D01*
X97000Y192673D01*
X97333Y192673D01*
X97948Y192419D01*
D02*
G37*
G36*
Y182419D02*
X98418Y181948D01*
X98673Y181333D01*
X98673Y180667D01*
X98418Y180052D01*
X97948Y179582D01*
X97333Y179327D01*
X97000Y179327D01*
X96667Y179327D01*
X96052Y179581D01*
X95582Y180052D01*
X95327Y180667D01*
X95327Y181333D01*
X95581Y181948D01*
X96052Y182418D01*
X96667Y182673D01*
X97000Y182673D01*
X97333Y182673D01*
X97948Y182419D01*
D02*
G37*
G36*
Y172418D02*
X98418Y171948D01*
X98673Y171333D01*
X98673Y170667D01*
X98418Y170052D01*
X97948Y169582D01*
X97333Y169327D01*
X97000Y169327D01*
X96667Y169327D01*
X96052Y169581D01*
X95582Y170052D01*
X95327Y170667D01*
X95327Y171333D01*
X95581Y171948D01*
X96052Y172418D01*
X96667Y172673D01*
X97000Y172673D01*
X97333Y172673D01*
X97948Y172418D01*
D02*
G37*
G36*
Y162418D02*
X98418Y161948D01*
X98673Y161333D01*
X98673Y160667D01*
X98418Y160052D01*
X97948Y159582D01*
X97333Y159327D01*
X97000Y159327D01*
X96667Y159327D01*
X96052Y159581D01*
X95582Y160052D01*
X95327Y160667D01*
X95327Y161333D01*
X95581Y161948D01*
X96052Y162418D01*
X96667Y162673D01*
X97000Y162673D01*
X97333Y162673D01*
X97948Y162418D01*
D02*
G37*
G36*
Y152418D02*
X98418Y151948D01*
X98673Y151333D01*
X98673Y150667D01*
X98418Y150052D01*
X97948Y149582D01*
X97333Y149327D01*
X97000Y149327D01*
X96667Y149327D01*
X96052Y149582D01*
X95582Y150052D01*
X95327Y150667D01*
X95327Y151333D01*
X95581Y151948D01*
X96052Y152418D01*
X96667Y152673D01*
X97000Y152673D01*
X97333Y152673D01*
X97948Y152418D01*
D02*
G37*
G36*
Y142419D02*
X98418Y141948D01*
X98673Y141333D01*
X98673Y140667D01*
X98418Y140052D01*
X97948Y139582D01*
X97333Y139327D01*
X97000Y139327D01*
X96667Y139327D01*
X96052Y139582D01*
X95582Y140052D01*
X95327Y140667D01*
X95327Y141333D01*
X95581Y141948D01*
X96052Y142418D01*
X96667Y142673D01*
X97000Y142673D01*
X97333Y142673D01*
X97948Y142419D01*
D02*
G37*
G36*
X48071Y131257D02*
X48073Y131161D01*
D01*
X48073D01*
X48073Y131161D01*
Y131161D01*
X48071Y131065D01*
X47933Y130930D01*
X47837D01*
Y126239D01*
X46262D01*
Y131161D01*
X47601D01*
X47601Y131161D01*
X47603Y131257D01*
X47741Y131392D01*
X47933D01*
X48071Y131257D01*
D02*
G37*
G36*
X97948Y132419D02*
X98418Y131948D01*
X98673Y131333D01*
X98673Y130667D01*
X98418Y130052D01*
X97948Y129582D01*
X97333Y129327D01*
X97000Y129327D01*
X96667Y129327D01*
X96052Y129581D01*
X95582Y130052D01*
X95327Y130667D01*
X95327Y131333D01*
X95581Y131948D01*
X96052Y132418D01*
X96667Y132673D01*
X97000Y132673D01*
X97333Y132673D01*
X97948Y132419D01*
D02*
G37*
G36*
X41538Y126239D02*
X39963D01*
Y131161D01*
X41538D01*
Y126239D01*
D02*
G37*
G36*
X97948Y122418D02*
X98418Y121948D01*
X98673Y121333D01*
X98673Y120667D01*
X98418Y120052D01*
X97948Y119582D01*
X97333Y119327D01*
X97000Y119327D01*
X96667Y119327D01*
X96052Y119581D01*
X95582Y120052D01*
X95327Y120667D01*
X95327Y121333D01*
X95581Y121948D01*
X96052Y122418D01*
X96667Y122673D01*
X97000Y122673D01*
X97333Y122673D01*
X97948Y122418D01*
D02*
G37*
G36*
X48171Y114857D02*
X48173Y114761D01*
D01*
X48173D01*
X48173Y114761D01*
Y114761D01*
X48171Y114665D01*
X48033Y114530D01*
X47937D01*
Y109839D01*
X46362D01*
Y114761D01*
X47701D01*
X47701Y114761D01*
X47703Y114857D01*
X47841Y114992D01*
X48033D01*
X48171Y114857D01*
D02*
G37*
G36*
X41638Y109839D02*
X40063D01*
Y114761D01*
X41638D01*
Y109839D01*
D02*
G37*
G36*
X103960Y45140D02*
X101440D01*
Y47660D01*
X103960D01*
Y45140D01*
D02*
G37*
G36*
X93960D02*
X91440D01*
Y47660D01*
X93960D01*
Y45140D01*
D02*
G37*
G36*
X83960D02*
X81440D01*
Y47660D01*
X83960D01*
Y45140D01*
D02*
G37*
G36*
X73960D02*
X71440D01*
Y47660D01*
X73960D01*
Y45140D01*
D02*
G37*
G36*
X63960D02*
X61440D01*
Y47660D01*
X63960D01*
Y45140D01*
D02*
G37*
G36*
X53960D02*
X51440D01*
Y47660D01*
X53960D01*
Y45140D01*
D02*
G37*
G36*
X43960D02*
X41440D01*
Y47660D01*
X43960D01*
Y45140D01*
D02*
G37*
G36*
X33960D02*
X31440D01*
Y47660D01*
X33960D01*
Y45140D01*
D02*
G37*
G36*
X23960D02*
X21440D01*
Y47660D01*
X23960D01*
Y45140D01*
D02*
G37*
G36*
X13960D02*
X11440D01*
Y47660D01*
X13960D01*
Y45140D01*
D02*
G37*
G36*
X103960Y35140D02*
X101440D01*
Y37660D01*
X103960D01*
Y35140D01*
D02*
G37*
G36*
X93960D02*
X91440D01*
Y37660D01*
X93960D01*
Y35140D01*
D02*
G37*
G36*
X83960D02*
X81440D01*
Y37660D01*
X83960D01*
Y35140D01*
D02*
G37*
G36*
X73960D02*
X71440D01*
Y37660D01*
X73960D01*
Y35140D01*
D02*
G37*
G36*
X63960D02*
X61440D01*
Y37660D01*
X63960D01*
Y35140D01*
D02*
G37*
G36*
X53960D02*
X51440D01*
Y37660D01*
X53960D01*
Y35140D01*
D02*
G37*
G36*
X43960D02*
X41440D01*
Y37660D01*
X43960D01*
Y35140D01*
D02*
G37*
G36*
X33960D02*
X31440D01*
Y37660D01*
X33960D01*
Y35140D01*
D02*
G37*
G36*
X23960D02*
X21440D01*
Y37660D01*
X23960D01*
Y35140D01*
D02*
G37*
G36*
X13960D02*
X11440D01*
Y37660D01*
X13960D01*
Y35140D01*
D02*
G37*
G36*
X107948Y192419D02*
X108418Y191948D01*
X108673Y191333D01*
X108673Y190667D01*
X108418Y190052D01*
X107948Y189582D01*
X107333Y189327D01*
X107000Y189327D01*
X106667Y189327D01*
X106052Y189582D01*
X105581Y190052D01*
X105327Y190667D01*
X105327Y191333D01*
X105581Y191948D01*
X106052Y192418D01*
X106667Y192673D01*
X107000Y192673D01*
X107333Y192673D01*
X107948Y192419D01*
D02*
G37*
G36*
Y182419D02*
X108418Y181948D01*
X108673Y181333D01*
X108673Y180667D01*
X108418Y180052D01*
X107948Y179582D01*
X107333Y179327D01*
X107000Y179327D01*
X106667Y179327D01*
X106052Y179581D01*
X105581Y180052D01*
X105327Y180667D01*
X105327Y181333D01*
X105581Y181948D01*
X106052Y182418D01*
X106667Y182673D01*
X107000Y182673D01*
X107333Y182673D01*
X107948Y182419D01*
D02*
G37*
G36*
Y172418D02*
X108418Y171948D01*
X108673Y171333D01*
X108673Y170667D01*
X108418Y170052D01*
X107948Y169582D01*
X107333Y169327D01*
X107000Y169327D01*
X106667Y169327D01*
X106052Y169581D01*
X105581Y170052D01*
X105327Y170667D01*
X105327Y171333D01*
X105581Y171948D01*
X106052Y172418D01*
X106667Y172673D01*
X107000Y172673D01*
X107333Y172673D01*
X107948Y172418D01*
D02*
G37*
G36*
Y162418D02*
X108418Y161948D01*
X108673Y161333D01*
X108673Y160667D01*
X108418Y160052D01*
X107948Y159582D01*
X107333Y159327D01*
X107000Y159327D01*
X106667Y159327D01*
X106052Y159581D01*
X105581Y160052D01*
X105327Y160667D01*
X105327Y161333D01*
X105581Y161948D01*
X106052Y162418D01*
X106667Y162673D01*
X107000Y162673D01*
X107333Y162673D01*
X107948Y162418D01*
D02*
G37*
G36*
Y152418D02*
X108418Y151948D01*
X108673Y151333D01*
X108673Y150667D01*
X108418Y150052D01*
X107948Y149582D01*
X107333Y149327D01*
X107000Y149327D01*
X106667Y149327D01*
X106052Y149582D01*
X105581Y150052D01*
X105327Y150667D01*
X105327Y151333D01*
X105581Y151948D01*
X106052Y152418D01*
X106667Y152673D01*
X107000Y152673D01*
X107333Y152673D01*
X107948Y152418D01*
D02*
G37*
G36*
Y142419D02*
X108418Y141948D01*
X108673Y141333D01*
X108673Y140667D01*
X108418Y140052D01*
X107948Y139582D01*
X107333Y139327D01*
X107000Y139327D01*
X106667Y139327D01*
X106052Y139582D01*
X105581Y140052D01*
X105327Y140667D01*
X105327Y141333D01*
X105581Y141948D01*
X106052Y142418D01*
X106667Y142673D01*
X107000Y142673D01*
X107333Y142673D01*
X107948Y142419D01*
D02*
G37*
G36*
Y132419D02*
X108418Y131948D01*
X108673Y131333D01*
X108673Y130667D01*
X108418Y130052D01*
X107948Y129582D01*
X107333Y129327D01*
X107000Y129327D01*
X106667Y129327D01*
X106052Y129581D01*
X105581Y130052D01*
X105327Y130667D01*
X105327Y131333D01*
X105581Y131948D01*
X106052Y132418D01*
X106667Y132673D01*
X107000Y132673D01*
X107333Y132673D01*
X107948Y132419D01*
D02*
G37*
G36*
X167948Y132418D02*
X168418Y131948D01*
X168673Y131333D01*
X168673Y131000D01*
X168673Y130667D01*
X168419Y130052D01*
X167948Y129581D01*
X167333Y129327D01*
X166667Y129327D01*
X166052Y129581D01*
X165582Y130052D01*
X165327Y130667D01*
X165327Y131000D01*
X165327Y131333D01*
X165582Y131948D01*
X166052Y132418D01*
X166667Y132673D01*
X167333Y132673D01*
X167948Y132418D01*
D02*
G37*
G36*
X157948D02*
X158418Y131948D01*
X158673Y131333D01*
X158673Y131000D01*
X158673Y130667D01*
X158419Y130052D01*
X157948Y129581D01*
X157333Y129327D01*
X156667Y129327D01*
X156052Y129581D01*
X155582Y130052D01*
X155327Y130667D01*
X155327Y131000D01*
X155327Y131333D01*
X155581Y131948D01*
X156052Y132418D01*
X156667Y132673D01*
X157333Y132673D01*
X157948Y132418D01*
D02*
G37*
G36*
X147948D02*
X148418Y131948D01*
X148673Y131333D01*
X148673Y131000D01*
X148673Y130667D01*
X148418Y130052D01*
X147948Y129581D01*
X147333Y129327D01*
X146667Y129327D01*
X146052Y129581D01*
X145582Y130052D01*
X145327Y130667D01*
X145327Y131000D01*
X145327Y131333D01*
X145581Y131948D01*
X146052Y132418D01*
X146667Y132673D01*
X147333Y132673D01*
X147948Y132418D01*
D02*
G37*
G36*
X137948D02*
X138418Y131948D01*
X138673Y131333D01*
X138673Y131000D01*
X138673Y130667D01*
X138418Y130052D01*
X137948Y129581D01*
X137333Y129327D01*
X136667Y129327D01*
X136052Y129581D01*
X135582Y130052D01*
X135327Y130667D01*
X135327Y131000D01*
X135327Y131333D01*
X135582Y131948D01*
X136052Y132418D01*
X136667Y132673D01*
X137333Y132673D01*
X137948Y132418D01*
D02*
G37*
G36*
X127948D02*
X128418Y131948D01*
X128673Y131333D01*
X128673Y131000D01*
X128673Y130667D01*
X128419Y130052D01*
X127948Y129581D01*
X127333Y129327D01*
X126667Y129327D01*
X126052Y129581D01*
X125582Y130052D01*
X125327Y130667D01*
X125327Y131000D01*
X125327Y131333D01*
X125582Y131948D01*
X126052Y132418D01*
X126667Y132673D01*
X127333Y132673D01*
X127948Y132418D01*
D02*
G37*
G36*
X117948D02*
X118418Y131948D01*
X118673Y131333D01*
X118673Y131000D01*
X118673Y130667D01*
X118419Y130052D01*
X117948Y129581D01*
X117333Y129327D01*
X116667Y129327D01*
X116052Y129581D01*
X115582Y130052D01*
X115327Y130667D01*
X115327Y131000D01*
X115327Y131333D01*
X115582Y131948D01*
X116052Y132418D01*
X116667Y132673D01*
X117333Y132673D01*
X117948Y132418D01*
D02*
G37*
G36*
X107948Y122418D02*
X108418Y121948D01*
X108673Y121333D01*
X108673Y120667D01*
X108418Y120052D01*
X107948Y119582D01*
X107333Y119327D01*
X107000Y119327D01*
X106667Y119327D01*
X106052Y119581D01*
X105581Y120052D01*
X105327Y120667D01*
X105327Y121333D01*
X105581Y121948D01*
X106052Y122418D01*
X106667Y122673D01*
X107000Y122673D01*
X107333Y122673D01*
X107948Y122418D01*
D02*
G37*
G36*
X167948Y122418D02*
X168418Y121948D01*
X168673Y121333D01*
X168673Y121000D01*
X168673Y120667D01*
X168419Y120052D01*
X167948Y119581D01*
X167333Y119327D01*
X166667Y119327D01*
X166052Y119581D01*
X165582Y120052D01*
X165327Y120667D01*
X165327Y121000D01*
X165327Y121333D01*
X165582Y121948D01*
X166052Y122418D01*
X166667Y122673D01*
X167333Y122673D01*
X167948Y122418D01*
D02*
G37*
G36*
X157948D02*
X158418Y121948D01*
X158673Y121333D01*
X158673Y121000D01*
X158673Y120667D01*
X158419Y120052D01*
X157948Y119581D01*
X157333Y119327D01*
X156667Y119327D01*
X156052Y119581D01*
X155582Y120052D01*
X155327Y120667D01*
X155327Y121000D01*
X155327Y121333D01*
X155581Y121948D01*
X156052Y122418D01*
X156667Y122673D01*
X157333Y122673D01*
X157948Y122418D01*
D02*
G37*
G36*
X147948D02*
X148418Y121948D01*
X148673Y121333D01*
X148673Y121000D01*
X148673Y120667D01*
X148418Y120052D01*
X147948Y119581D01*
X147333Y119327D01*
X146667Y119327D01*
X146052Y119581D01*
X145582Y120052D01*
X145327Y120667D01*
X145327Y121000D01*
X145327Y121333D01*
X145581Y121948D01*
X146052Y122418D01*
X146667Y122673D01*
X147333Y122673D01*
X147948Y122418D01*
D02*
G37*
G36*
X137948D02*
X138418Y121948D01*
X138673Y121333D01*
X138673Y121000D01*
X138673Y120667D01*
X138418Y120052D01*
X137948Y119581D01*
X137333Y119327D01*
X136667Y119327D01*
X136052Y119581D01*
X135582Y120052D01*
X135327Y120667D01*
X135327Y121000D01*
X135327Y121333D01*
X135582Y121948D01*
X136052Y122418D01*
X136667Y122673D01*
X137333Y122673D01*
X137948Y122418D01*
D02*
G37*
G36*
X127948D02*
X128418Y121948D01*
X128673Y121333D01*
X128673Y121000D01*
X128673Y120667D01*
X128419Y120052D01*
X127948Y119581D01*
X127333Y119327D01*
X126667Y119327D01*
X126052Y119581D01*
X125582Y120052D01*
X125327Y120667D01*
X125327Y121000D01*
X125327Y121333D01*
X125582Y121948D01*
X126052Y122418D01*
X126667Y122673D01*
X127333Y122673D01*
X127948Y122418D01*
D02*
G37*
G36*
X117948D02*
X118418Y121948D01*
X118673Y121333D01*
X118673Y121000D01*
X118673Y120667D01*
X118419Y120052D01*
X117948Y119581D01*
X117333Y119327D01*
X116667Y119327D01*
X116052Y119581D01*
X115582Y120052D01*
X115327Y120667D01*
X115327Y121000D01*
X115327Y121333D01*
X115582Y121948D01*
X116052Y122418D01*
X116667Y122673D01*
X117333Y122673D01*
X117948Y122418D01*
D02*
G37*
G36*
X167075Y93606D02*
X163925D01*
Y94394D01*
X167075D01*
Y93606D01*
D02*
G37*
G36*
X157075D02*
X153925D01*
Y94394D01*
X157075D01*
Y93606D01*
D02*
G37*
G36*
X149949Y89177D02*
Y89079D01*
Y88981D01*
X149811Y88843D01*
X149615D01*
X149477Y88981D01*
Y89079D01*
Y89177D01*
X149615Y89315D01*
X149811D01*
X149949Y89177D01*
D02*
G37*
G36*
X163960Y45140D02*
X161440D01*
Y47660D01*
X163960D01*
Y45140D01*
D02*
G37*
G36*
X153960D02*
X151440D01*
Y47660D01*
X153960D01*
Y45140D01*
D02*
G37*
G36*
X143960D02*
X141440D01*
Y47660D01*
X143960D01*
Y45140D01*
D02*
G37*
G36*
X133960D02*
X131440D01*
Y47660D01*
X133960D01*
Y45140D01*
D02*
G37*
G36*
X123960D02*
X121440D01*
Y47660D01*
X123960D01*
Y45140D01*
D02*
G37*
G36*
X113960D02*
X111440D01*
Y47660D01*
X113960D01*
Y45140D01*
D02*
G37*
G36*
X163960Y35140D02*
X161440D01*
Y37660D01*
X163960D01*
Y35140D01*
D02*
G37*
G36*
X153960D02*
X151440D01*
Y37660D01*
X153960D01*
Y35140D01*
D02*
G37*
G36*
X143960D02*
X141440D01*
Y37660D01*
X143960D01*
Y35140D01*
D02*
G37*
G36*
X133960D02*
X131440D01*
Y37660D01*
X133960D01*
Y35140D01*
D02*
G37*
G36*
X123960D02*
X121440D01*
Y37660D01*
X123960D01*
Y35140D01*
D02*
G37*
G36*
X113960D02*
X111440D01*
Y37660D01*
X113960D01*
Y35140D01*
D02*
G37*
G36*
X277948Y192419D02*
X278418Y191948D01*
X278673Y191333D01*
X278673Y190667D01*
X278419Y190052D01*
X277948Y189582D01*
X277333Y189327D01*
X277000Y189327D01*
X276667Y189327D01*
X276052Y189582D01*
X275582Y190052D01*
X275327Y190667D01*
X275327Y191333D01*
X275582Y191948D01*
X276052Y192418D01*
X276667Y192673D01*
X277000Y192673D01*
X277333Y192673D01*
X277948Y192419D01*
D02*
G37*
G36*
X267948D02*
X268419Y191948D01*
X268673Y191333D01*
X268673Y190667D01*
X268419Y190052D01*
X267948Y189582D01*
X267333Y189327D01*
X267000Y189327D01*
X266667Y189327D01*
X266052Y189582D01*
X265582Y190052D01*
X265327Y190667D01*
X265327Y191333D01*
X265582Y191948D01*
X266052Y192418D01*
X266667Y192673D01*
X267000Y192673D01*
X267333Y192673D01*
X267948Y192419D01*
D02*
G37*
G36*
X490072Y187000D02*
Y187000D01*
D01*
Y187000D01*
D02*
G37*
G36*
X476292D02*
Y187000D01*
D01*
Y187000D01*
D02*
G37*
G36*
X489552Y187983D02*
X489883Y187658D01*
X490067Y187232D01*
X490072Y187000D01*
X490071D01*
X490067Y186768D01*
X489883Y186342D01*
X489552Y186017D01*
X489122Y185842D01*
X488658Y185842D01*
X488229Y186017D01*
X487897Y186342D01*
X487713Y186768D01*
X487709Y187000D01*
X487713Y187232D01*
X487897Y187658D01*
X488229Y187983D01*
X488658Y188158D01*
X489122Y188158D01*
X489552Y187983D01*
D02*
G37*
G36*
X475772D02*
X476103Y187658D01*
X476287Y187232D01*
X476292Y187000D01*
X476292D01*
X476287Y186768D01*
X476103Y186342D01*
X475772Y186017D01*
X475342Y185842D01*
X474878Y185842D01*
X474449Y186017D01*
X474117Y186342D01*
X473933Y186768D01*
X473929Y187000D01*
X473933Y187232D01*
X474117Y187658D01*
X474449Y187983D01*
X474878Y188158D01*
X475342Y188158D01*
X475772Y187983D01*
D02*
G37*
G36*
X402118Y184329D02*
X402118Y184133D01*
X401980Y183995D01*
X401882Y183995D01*
X401784Y183995D01*
X401646Y184133D01*
X401646Y184329D01*
X401784Y184467D01*
X401882Y184467D01*
X401980Y184467D01*
X402118Y184329D01*
D02*
G37*
G36*
X277948Y182419D02*
X278418Y181948D01*
X278673Y181333D01*
X278673Y180667D01*
X278419Y180052D01*
X277948Y179582D01*
X277333Y179327D01*
X277000Y179327D01*
X276667Y179327D01*
X276052Y179581D01*
X275582Y180052D01*
X275327Y180667D01*
X275327Y181333D01*
X275582Y181948D01*
X276052Y182418D01*
X276667Y182673D01*
X277000Y182673D01*
X277333Y182673D01*
X277948Y182419D01*
D02*
G37*
G36*
X267948D02*
X268419Y181948D01*
X268673Y181333D01*
X268673Y180667D01*
X268419Y180052D01*
X267948Y179582D01*
X267333Y179327D01*
X267000Y179327D01*
X266667Y179327D01*
X266052Y179581D01*
X265582Y180052D01*
X265327Y180667D01*
X265327Y181333D01*
X265582Y181948D01*
X266052Y182418D01*
X266667Y182673D01*
X267000Y182673D01*
X267333Y182673D01*
X267948Y182419D01*
D02*
G37*
G36*
X466483Y171068D02*
X466483Y170970D01*
X466483Y170872D01*
X466345Y170734D01*
X466149Y170734D01*
X466011Y170872D01*
X466011Y170970D01*
X466011Y171068D01*
X466149Y171206D01*
X466345Y171206D01*
X466483Y171068D01*
D02*
G37*
G36*
X277948Y172418D02*
X278418Y171948D01*
X278673Y171333D01*
X278673Y170667D01*
X278419Y170052D01*
X277948Y169582D01*
X277333Y169327D01*
X277000Y169327D01*
X276667Y169327D01*
X276052Y169581D01*
X275582Y170052D01*
X275327Y170667D01*
X275327Y171333D01*
X275582Y171948D01*
X276052Y172418D01*
X276667Y172673D01*
X277000Y172673D01*
X277333Y172673D01*
X277948Y172418D01*
D02*
G37*
G36*
X267948D02*
X268419Y171948D01*
X268673Y171333D01*
X268673Y170667D01*
X268419Y170052D01*
X267948Y169582D01*
X267333Y169327D01*
X267000Y169327D01*
X266667Y169327D01*
X266052Y169581D01*
X265582Y170052D01*
X265327Y170667D01*
X265327Y171333D01*
X265582Y171948D01*
X266052Y172418D01*
X266667Y172673D01*
X267000Y172673D01*
X267333Y172673D01*
X267948Y172418D01*
D02*
G37*
G36*
X393653Y176475D02*
X393635D01*
Y165800D01*
X390367D01*
Y176475D01*
X390347D01*
Y184349D01*
X393653D01*
Y176475D01*
D02*
G37*
G36*
X383653D02*
X383600D01*
Y165800D01*
X380332D01*
Y177021D01*
X380346D01*
Y184349D01*
X383653D01*
Y176475D01*
D02*
G37*
G36*
X373654D02*
X373600D01*
Y165800D01*
X370332D01*
Y177021D01*
X370346D01*
Y184349D01*
X373654D01*
Y176475D01*
D02*
G37*
G36*
X277948Y162418D02*
X278418Y161948D01*
X278673Y161333D01*
X278673Y160667D01*
X278419Y160052D01*
X277948Y159582D01*
X277333Y159327D01*
X277000Y159327D01*
X276667Y159327D01*
X276052Y159581D01*
X275582Y160052D01*
X275327Y160667D01*
X275327Y161333D01*
X275582Y161948D01*
X276052Y162418D01*
X276667Y162673D01*
X277000Y162673D01*
X277333Y162673D01*
X277948Y162418D01*
D02*
G37*
G36*
X267948D02*
X268419Y161948D01*
X268673Y161333D01*
X268673Y160667D01*
X268419Y160052D01*
X267948Y159582D01*
X267333Y159327D01*
X267000Y159327D01*
X266667Y159327D01*
X266052Y159581D01*
X265582Y160052D01*
X265327Y160667D01*
X265327Y161333D01*
X265582Y161948D01*
X266052Y162418D01*
X266667Y162673D01*
X267000Y162673D01*
X267333Y162673D01*
X267948Y162418D01*
D02*
G37*
G36*
X277948Y152418D02*
X278418Y151948D01*
X278673Y151333D01*
X278673Y150667D01*
X278419Y150052D01*
X277948Y149582D01*
X277333Y149327D01*
X277000Y149327D01*
X276667Y149327D01*
X276052Y149582D01*
X275582Y150052D01*
X275327Y150667D01*
X275327Y151333D01*
X275582Y151948D01*
X276052Y152418D01*
X276667Y152673D01*
X277000Y152673D01*
X277333Y152673D01*
X277948Y152418D01*
D02*
G37*
G36*
X267948D02*
X268419Y151948D01*
X268673Y151333D01*
X268673Y150667D01*
X268419Y150052D01*
X267948Y149582D01*
X267333Y149327D01*
X267000Y149327D01*
X266667Y149327D01*
X266052Y149582D01*
X265582Y150052D01*
X265327Y150667D01*
X265327Y151333D01*
X265582Y151948D01*
X266052Y152418D01*
X266667Y152673D01*
X267000Y152673D01*
X267333Y152673D01*
X267948Y152418D01*
D02*
G37*
G36*
X277948Y142419D02*
X278418Y141948D01*
X278673Y141333D01*
X278673Y140667D01*
X278419Y140052D01*
X277948Y139582D01*
X277333Y139327D01*
X277000Y139327D01*
X276667Y139327D01*
X276052Y139582D01*
X275582Y140052D01*
X275327Y140667D01*
X275327Y141333D01*
X275582Y141948D01*
X276052Y142418D01*
X276667Y142673D01*
X277000Y142673D01*
X277333Y142673D01*
X277948Y142419D01*
D02*
G37*
G36*
X267948D02*
X268419Y141948D01*
X268673Y141333D01*
X268673Y140667D01*
X268419Y140052D01*
X267948Y139582D01*
X267333Y139327D01*
X267000Y139327D01*
X266667Y139327D01*
X266052Y139582D01*
X265582Y140052D01*
X265327Y140667D01*
X265327Y141333D01*
X265582Y141948D01*
X266052Y142418D01*
X266667Y142673D01*
X267000Y142673D01*
X267333Y142673D01*
X267948Y142419D01*
D02*
G37*
G36*
X327937Y136039D02*
X326362D01*
Y140961D01*
X327937D01*
Y136039D01*
D02*
G37*
G36*
X321638D02*
X320299D01*
X320299Y136039D01*
X320297Y135943D01*
X320159Y135808D01*
X319967D01*
X319829Y135943D01*
X319827Y136039D01*
D01*
X319827D01*
X319827Y136039D01*
Y136039D01*
X319829Y136135D01*
X319967Y136270D01*
X320063D01*
Y140961D01*
X321638D01*
Y136039D01*
D02*
G37*
G36*
X277948Y132419D02*
X278418Y131948D01*
X278673Y131333D01*
X278673Y130667D01*
X278419Y130052D01*
X277948Y129582D01*
X277333Y129327D01*
X277000Y129327D01*
X276667Y129327D01*
X276052Y129581D01*
X275582Y130052D01*
X275327Y130667D01*
X275327Y131333D01*
X275582Y131948D01*
X276052Y132418D01*
X276667Y132673D01*
X277000Y132673D01*
X277333Y132673D01*
X277948Y132419D01*
D02*
G37*
G36*
X267948D02*
X268419Y131948D01*
X268673Y131333D01*
X268673Y130667D01*
X268419Y130052D01*
X267948Y129582D01*
X267333Y129327D01*
X267000Y129327D01*
X266667Y129327D01*
X266052Y129581D01*
X265582Y130052D01*
X265327Y130667D01*
X265327Y131333D01*
X265582Y131948D01*
X266052Y132418D01*
X266667Y132673D01*
X267000Y132673D01*
X267333Y132673D01*
X267948Y132419D01*
D02*
G37*
G36*
X257948Y132418D02*
X258418Y131948D01*
X258673Y131333D01*
X258673Y131000D01*
X258673Y130667D01*
X258418Y130052D01*
X257948Y129581D01*
X257333Y129327D01*
X256667Y129327D01*
X256052Y129581D01*
X255582Y130052D01*
X255327Y130667D01*
X255327Y131000D01*
X255327Y131333D01*
X255581Y131948D01*
X256052Y132418D01*
X256667Y132673D01*
X257333Y132673D01*
X257948Y132418D01*
D02*
G37*
G36*
X247948D02*
X248418Y131948D01*
X248673Y131333D01*
X248673Y131000D01*
X248673Y130667D01*
X248418Y130052D01*
X247948Y129581D01*
X247333Y129327D01*
X246667Y129327D01*
X246052Y129581D01*
X245582Y130052D01*
X245327Y130667D01*
X245327Y131000D01*
X245327Y131333D01*
X245582Y131948D01*
X246052Y132418D01*
X246667Y132673D01*
X247333Y132673D01*
X247948Y132418D01*
D02*
G37*
G36*
X237948D02*
X238418Y131948D01*
X238673Y131333D01*
X238673Y131000D01*
X238673Y130667D01*
X238419Y130052D01*
X237948Y129581D01*
X237333Y129327D01*
X236667Y129327D01*
X236052Y129581D01*
X235582Y130052D01*
X235327Y130667D01*
X235327Y131000D01*
X235327Y131333D01*
X235581Y131948D01*
X236052Y132418D01*
X236667Y132673D01*
X237333Y132673D01*
X237948Y132418D01*
D02*
G37*
G36*
X227948D02*
X228418Y131948D01*
X228673Y131333D01*
X228673Y131000D01*
X228673Y130667D01*
X228418Y130052D01*
X227948Y129581D01*
X227333Y129327D01*
X226667Y129327D01*
X226052Y129581D01*
X225582Y130052D01*
X225327Y130667D01*
X225327Y131000D01*
X225327Y131333D01*
X225582Y131948D01*
X226052Y132418D01*
X226667Y132673D01*
X227333Y132673D01*
X227948Y132418D01*
D02*
G37*
G36*
X217948D02*
X218418Y131948D01*
X218673Y131333D01*
X218673Y131000D01*
X218673Y130667D01*
X218419Y130052D01*
X217948Y129581D01*
X217333Y129327D01*
X216667Y129327D01*
X216052Y129581D01*
X215582Y130052D01*
X215327Y130667D01*
X215327Y131000D01*
X215327Y131333D01*
X215581Y131948D01*
X216052Y132418D01*
X216667Y132673D01*
X217333Y132673D01*
X217948Y132418D01*
D02*
G37*
G36*
X207948D02*
X208418Y131948D01*
X208673Y131333D01*
X208673Y131000D01*
X208673Y130667D01*
X208418Y130052D01*
X207948Y129581D01*
X207333Y129327D01*
X206667Y129327D01*
X206052Y129581D01*
X205582Y130052D01*
X205327Y130667D01*
X205327Y131000D01*
X205327Y131333D01*
X205581Y131948D01*
X206052Y132418D01*
X206667Y132673D01*
X207333Y132673D01*
X207948Y132418D01*
D02*
G37*
G36*
X197948D02*
X198418Y131948D01*
X198673Y131333D01*
X198673Y131000D01*
X198673Y130667D01*
X198418Y130052D01*
X197948Y129581D01*
X197333Y129327D01*
X196667Y129327D01*
X196052Y129581D01*
X195582Y130052D01*
X195327Y130667D01*
X195327Y131000D01*
X195327Y131333D01*
X195581Y131948D01*
X196052Y132418D01*
X196667Y132673D01*
X197333Y132673D01*
X197948Y132418D01*
D02*
G37*
G36*
X187948D02*
X188418Y131948D01*
X188673Y131333D01*
X188673Y131000D01*
X188673Y130667D01*
X188418Y130052D01*
X187948Y129581D01*
X187333Y129327D01*
X186667Y129327D01*
X186052Y129581D01*
X185582Y130052D01*
X185327Y130667D01*
X185327Y131000D01*
X185327Y131333D01*
X185582Y131948D01*
X186052Y132418D01*
X186667Y132673D01*
X187333Y132673D01*
X187948Y132418D01*
D02*
G37*
G36*
X177948D02*
X178418Y131948D01*
X178673Y131333D01*
X178673Y131000D01*
X178673Y130667D01*
X178419Y130052D01*
X177948Y129581D01*
X177333Y129327D01*
X176667Y129327D01*
X176052Y129581D01*
X175582Y130052D01*
X175327Y130667D01*
X175327Y131000D01*
X175327Y131333D01*
X175582Y131948D01*
X176052Y132418D01*
X176667Y132673D01*
X177333Y132673D01*
X177948Y132418D01*
D02*
G37*
G36*
X401900Y127900D02*
X362097D01*
Y153884D01*
X401900D01*
Y127900D01*
D02*
G37*
G36*
X277948Y122418D02*
X278418Y121948D01*
X278673Y121333D01*
X278673Y120667D01*
X278419Y120052D01*
X277948Y119582D01*
X277333Y119327D01*
X277000Y119327D01*
X276667Y119327D01*
X276052Y119581D01*
X275582Y120052D01*
X275327Y120667D01*
X275327Y121333D01*
X275582Y121948D01*
X276052Y122418D01*
X276667Y122673D01*
X277000Y122673D01*
X277333Y122673D01*
X277948Y122418D01*
D02*
G37*
G36*
X267948D02*
X268419Y121948D01*
X268673Y121333D01*
X268673Y120667D01*
X268419Y120052D01*
X267948Y119582D01*
X267333Y119327D01*
X267000Y119327D01*
X266667Y119327D01*
X266052Y119581D01*
X265582Y120052D01*
X265327Y120667D01*
X265327Y121333D01*
X265582Y121948D01*
X266052Y122418D01*
X266667Y122673D01*
X267000Y122673D01*
X267333Y122673D01*
X267948Y122418D01*
D02*
G37*
G36*
X257948Y122418D02*
X258418Y121948D01*
X258673Y121333D01*
X258673Y121000D01*
X258673Y120667D01*
X258418Y120052D01*
X257948Y119581D01*
X257333Y119327D01*
X256667Y119327D01*
X256052Y119581D01*
X255582Y120052D01*
X255327Y120667D01*
X255327Y121000D01*
X255327Y121333D01*
X255581Y121948D01*
X256052Y122418D01*
X256667Y122673D01*
X257333Y122673D01*
X257948Y122418D01*
D02*
G37*
G36*
X247948D02*
X248418Y121948D01*
X248673Y121333D01*
X248673Y121000D01*
X248673Y120667D01*
X248418Y120052D01*
X247948Y119581D01*
X247333Y119327D01*
X246667Y119327D01*
X246052Y119581D01*
X245582Y120052D01*
X245327Y120667D01*
X245327Y121000D01*
X245327Y121333D01*
X245582Y121948D01*
X246052Y122418D01*
X246667Y122673D01*
X247333Y122673D01*
X247948Y122418D01*
D02*
G37*
G36*
X237948D02*
X238418Y121948D01*
X238673Y121333D01*
X238673Y121000D01*
X238673Y120667D01*
X238419Y120052D01*
X237948Y119581D01*
X237333Y119327D01*
X236667Y119327D01*
X236052Y119581D01*
X235582Y120052D01*
X235327Y120667D01*
X235327Y121000D01*
X235327Y121333D01*
X235581Y121948D01*
X236052Y122418D01*
X236667Y122673D01*
X237333Y122673D01*
X237948Y122418D01*
D02*
G37*
G36*
X227948D02*
X228418Y121948D01*
X228673Y121333D01*
X228673Y121000D01*
X228673Y120667D01*
X228418Y120052D01*
X227948Y119581D01*
X227333Y119327D01*
X226667Y119327D01*
X226052Y119581D01*
X225582Y120052D01*
X225327Y120667D01*
X225327Y121000D01*
X225327Y121333D01*
X225582Y121948D01*
X226052Y122418D01*
X226667Y122673D01*
X227333Y122673D01*
X227948Y122418D01*
D02*
G37*
G36*
X217948D02*
X218418Y121948D01*
X218673Y121333D01*
X218673Y121000D01*
X218673Y120667D01*
X218419Y120052D01*
X217948Y119581D01*
X217333Y119327D01*
X216667Y119327D01*
X216052Y119581D01*
X215582Y120052D01*
X215327Y120667D01*
X215327Y121000D01*
X215327Y121333D01*
X215581Y121948D01*
X216052Y122418D01*
X216667Y122673D01*
X217333Y122673D01*
X217948Y122418D01*
D02*
G37*
G36*
X207948D02*
X208418Y121948D01*
X208673Y121333D01*
X208673Y121000D01*
X208673Y120667D01*
X208418Y120052D01*
X207948Y119581D01*
X207333Y119327D01*
X206667Y119327D01*
X206052Y119581D01*
X205582Y120052D01*
X205327Y120667D01*
X205327Y121000D01*
X205327Y121333D01*
X205581Y121948D01*
X206052Y122418D01*
X206667Y122673D01*
X207333Y122673D01*
X207948Y122418D01*
D02*
G37*
G36*
X197948D02*
X198418Y121948D01*
X198673Y121333D01*
X198673Y121000D01*
X198673Y120667D01*
X198418Y120052D01*
X197948Y119581D01*
X197333Y119327D01*
X196667Y119327D01*
X196052Y119581D01*
X195582Y120052D01*
X195327Y120667D01*
X195327Y121000D01*
X195327Y121333D01*
X195581Y121948D01*
X196052Y122418D01*
X196667Y122673D01*
X197333Y122673D01*
X197948Y122418D01*
D02*
G37*
G36*
X187948D02*
X188418Y121948D01*
X188673Y121333D01*
X188673Y121000D01*
X188673Y120667D01*
X188418Y120052D01*
X187948Y119581D01*
X187333Y119327D01*
X186667Y119327D01*
X186052Y119581D01*
X185582Y120052D01*
X185327Y120667D01*
X185327Y121000D01*
X185327Y121333D01*
X185582Y121948D01*
X186052Y122418D01*
X186667Y122673D01*
X187333Y122673D01*
X187948Y122418D01*
D02*
G37*
G36*
X177948D02*
X178418Y121948D01*
X178673Y121333D01*
X178673Y121000D01*
X178673Y120667D01*
X178419Y120052D01*
X177948Y119581D01*
X177333Y119327D01*
X176667Y119327D01*
X176052Y119581D01*
X175582Y120052D01*
X175327Y120667D01*
X175327Y121000D01*
X175327Y121333D01*
X175582Y121948D01*
X176052Y122418D01*
X176667Y122673D01*
X177333Y122673D01*
X177948Y122418D01*
D02*
G37*
G36*
X204575Y93606D02*
X201425D01*
Y94394D01*
X204575D01*
Y93606D01*
D02*
G37*
G36*
X194575D02*
X191425D01*
Y94394D01*
X194575D01*
Y93606D01*
D02*
G37*
G36*
X365499Y93328D02*
X365499Y93230D01*
X365499Y93132D01*
X365361Y92994D01*
X365165Y92994D01*
X365027Y93132D01*
X365027Y93230D01*
X365027Y93328D01*
X365165Y93466D01*
X365361Y93466D01*
X365499Y93328D01*
D02*
G37*
G36*
X187449Y89177D02*
Y89079D01*
Y88981D01*
X187311Y88843D01*
X187115D01*
X186977Y88981D01*
Y89079D01*
Y89177D01*
X187115Y89315D01*
X187311D01*
X187449Y89177D01*
D02*
G37*
G36*
X357061Y78183D02*
X357393Y77858D01*
X357577Y77432D01*
X357581Y77200D01*
X357577Y76968D01*
X357393Y76542D01*
X357061Y76217D01*
X356632Y76042D01*
X356168Y76042D01*
X355738Y76217D01*
X355407Y76542D01*
X355223Y76968D01*
X355218Y77200D01*
D01*
Y77200D01*
Y77200D01*
X355219D01*
X355223Y77432D01*
X355407Y77858D01*
X355738Y78183D01*
X356168Y78359D01*
X356632Y78359D01*
X357061Y78183D01*
D02*
G37*
G36*
X343281D02*
X343613Y77858D01*
X343797Y77432D01*
X343801Y77200D01*
X343797Y76968D01*
X343613Y76542D01*
X343281Y76217D01*
X342852Y76042D01*
X342388Y76042D01*
X341958Y76217D01*
X341627Y76542D01*
X341443Y76968D01*
X341439Y77200D01*
D01*
Y77200D01*
Y77200D01*
X341439D01*
X341443Y77432D01*
X341627Y77858D01*
X341958Y78183D01*
X342388Y78359D01*
X342852Y78359D01*
X343281Y78183D01*
D02*
G37*
G36*
X255272Y60000D02*
Y60000D01*
D01*
Y60000D01*
D02*
G37*
G36*
X241492D02*
Y60000D01*
D01*
Y60000D01*
D02*
G37*
G36*
X254752Y60983D02*
X255083Y60658D01*
X255267Y60232D01*
X255272Y60000D01*
X255272D01*
X255267Y59768D01*
X255083Y59342D01*
X254752Y59017D01*
X254322Y58842D01*
X253858Y58841D01*
X253429Y59017D01*
X253097Y59342D01*
X252913Y59768D01*
X252909Y60000D01*
X252913Y60232D01*
X253097Y60658D01*
X253429Y60983D01*
X253858Y61158D01*
X254322Y61158D01*
X254752Y60983D01*
D02*
G37*
G36*
X240972D02*
X241303Y60658D01*
X241487Y60232D01*
X241492Y60000D01*
X241492D01*
X241487Y59768D01*
X241303Y59342D01*
X240972Y59017D01*
X240542Y58842D01*
X240078Y58841D01*
X239649Y59017D01*
X239317Y59342D01*
X239133Y59768D01*
X239129Y60000D01*
X239133Y60232D01*
X239317Y60658D01*
X239649Y60983D01*
X240078Y61158D01*
X240542Y61158D01*
X240972Y60983D01*
D02*
G37*
G36*
X207936Y51341D02*
X207936Y51243D01*
X207936Y51145D01*
X207798Y51007D01*
X207602Y51006D01*
X207464Y51145D01*
X207464Y51243D01*
X207464Y51340D01*
X207602Y51479D01*
X207798Y51479D01*
X207936Y51341D01*
D02*
G37*
G36*
X203960Y45140D02*
X201440D01*
Y47660D01*
X203960D01*
Y45140D01*
D02*
G37*
G36*
X193960D02*
X191440D01*
Y47660D01*
X193960D01*
Y45140D01*
D02*
G37*
G36*
X183960D02*
X181440D01*
Y47660D01*
X183960D01*
Y45140D01*
D02*
G37*
G36*
X173960D02*
X171440D01*
Y47660D01*
X173960D01*
Y45140D01*
D02*
G37*
G36*
X231683Y44068D02*
X231683Y43970D01*
X231683Y43872D01*
X231545Y43734D01*
X231349Y43734D01*
X231211Y43872D01*
X231211Y43970D01*
X231211Y44068D01*
X231349Y44206D01*
X231545Y44206D01*
X231683Y44068D01*
D02*
G37*
G36*
X203960Y35140D02*
X201440D01*
Y37660D01*
X203960D01*
Y35140D01*
D02*
G37*
G36*
X193960D02*
X191440D01*
Y37660D01*
X193960D01*
Y35140D01*
D02*
G37*
G36*
X183960D02*
X181440D01*
Y37660D01*
X183960D01*
Y35140D01*
D02*
G37*
G36*
X173960D02*
X171440D01*
Y37660D01*
X173960D01*
Y35140D01*
D02*
G37*
G36*
X222371Y11957D02*
X222373Y11861D01*
D01*
X222373D01*
X222373Y11861D01*
Y11861D01*
X222371Y11765D01*
X222233Y11630D01*
X222137D01*
Y6939D01*
X220562D01*
Y11861D01*
X221901D01*
X221901Y11861D01*
X221903Y11957D01*
X222041Y12092D01*
X222233D01*
X222371Y11957D01*
D02*
G37*
G36*
X215838Y6939D02*
X214263D01*
Y11861D01*
X215838D01*
Y6939D01*
D02*
G37*
G36*
X47575Y383106D02*
X44425D01*
Y383894D01*
X47575D01*
Y383106D01*
D02*
G37*
G36*
X37575D02*
X34425D01*
Y383894D01*
X37575D01*
Y383106D01*
D02*
G37*
G36*
X484437Y381539D02*
X482862D01*
Y386461D01*
X484437D01*
Y381539D01*
D02*
G37*
G36*
X478138D02*
X476799D01*
X476799Y381539D01*
X476797Y381443D01*
X476659Y381308D01*
X476467D01*
X476329Y381443D01*
X476327Y381539D01*
D01*
X476327D01*
X476327Y381539D01*
Y381539D01*
X476329Y381635D01*
X476467Y381770D01*
X476563D01*
Y386461D01*
X478138D01*
Y381539D01*
D02*
G37*
G36*
X30449Y378677D02*
Y378579D01*
Y378481D01*
X30311Y378343D01*
X30115D01*
X29977Y378481D01*
Y378579D01*
Y378677D01*
X30115Y378815D01*
X30311D01*
X30449Y378677D01*
D02*
G37*
G36*
X127575Y372606D02*
X124425D01*
Y373394D01*
X127575D01*
Y372606D01*
D02*
G37*
G36*
X117575D02*
X114425D01*
Y373394D01*
X117575D01*
Y372606D01*
D02*
G37*
G36*
X110449Y368177D02*
Y368079D01*
Y367981D01*
X110311Y367843D01*
X110115D01*
X109977Y367981D01*
Y368079D01*
Y368177D01*
X110115Y368315D01*
X110311D01*
X110449Y368177D01*
D02*
G37*
G36*
X467181Y348000D02*
Y348000D01*
D01*
Y348000D01*
D02*
G37*
G36*
X453402D02*
Y348000D01*
D01*
Y348000D01*
D02*
G37*
G36*
X84961Y347693D02*
X80788D01*
Y349307D01*
X84961D01*
Y347693D01*
D02*
G37*
G36*
X65512D02*
X61339D01*
Y349307D01*
X65512D01*
Y347693D01*
D02*
G37*
G36*
X466662Y348983D02*
X466993Y348658D01*
X467177Y348232D01*
X467181Y348000D01*
X467181D01*
X467177Y347768D01*
X466993Y347342D01*
X466662Y347017D01*
X466232Y346842D01*
X465768Y346841D01*
X465339Y347017D01*
X465007Y347342D01*
X464823Y347768D01*
X464819Y348000D01*
X464823Y348232D01*
X465007Y348658D01*
X465339Y348983D01*
X465768Y349158D01*
X466232Y349158D01*
X466662Y348983D01*
D02*
G37*
G36*
X452882D02*
X453213Y348658D01*
X453397Y348232D01*
X453402Y348000D01*
X453402D01*
X453397Y347768D01*
X453213Y347342D01*
X452882Y347017D01*
X452452Y346842D01*
X451988Y346841D01*
X451559Y347017D01*
X451227Y347342D01*
X451043Y347768D01*
X451039Y348000D01*
X451043Y348232D01*
X451227Y348658D01*
X451559Y348983D01*
X451988Y349158D01*
X452452Y349158D01*
X452882Y348983D01*
D02*
G37*
G36*
X84961Y342693D02*
X80788D01*
Y344307D01*
X84961D01*
Y342693D01*
D02*
G37*
G36*
X65512D02*
X61339D01*
Y344307D01*
X65512D01*
Y342693D01*
D02*
G37*
G36*
X84961Y337693D02*
X80788D01*
Y339307D01*
X84961D01*
Y337693D01*
D02*
G37*
G36*
X65512D02*
X61339D01*
Y339307D01*
X65512D01*
Y337693D01*
D02*
G37*
G36*
X84961Y332693D02*
X80788D01*
Y334307D01*
X84961D01*
Y332693D01*
D02*
G37*
G36*
X65512D02*
X61339D01*
Y334307D01*
X65512D01*
Y332693D01*
D02*
G37*
G36*
X443593Y332068D02*
X443593Y331970D01*
X443593Y331872D01*
X443455Y331734D01*
X443259Y331734D01*
X443121Y331872D01*
X443121Y331970D01*
X443121Y332068D01*
X443259Y332206D01*
X443455Y332206D01*
X443593Y332068D01*
D02*
G37*
G36*
X83386Y331598D02*
Y331402D01*
X83248Y331263D01*
X83052D01*
X82914Y331402D01*
Y331598D01*
X83052Y331736D01*
X83248D01*
X83386Y331598D01*
D02*
G37*
G36*
X336937Y318039D02*
X335362D01*
Y322961D01*
X336937D01*
Y318039D01*
D02*
G37*
G36*
X330638D02*
X329299D01*
X329299Y318039D01*
X329297Y317943D01*
X329159Y317808D01*
X328967D01*
X328829Y317943D01*
X328827Y318039D01*
D01*
X328827D01*
X328827Y318039D01*
Y318039D01*
X328829Y318135D01*
X328967Y318270D01*
X329063D01*
Y322961D01*
X330638D01*
Y318039D01*
D02*
G37*
G36*
X73008Y296693D02*
X68657D01*
Y298307D01*
X73008D01*
Y296693D01*
D02*
G37*
G36*
X53342D02*
X48992D01*
Y298307D01*
X53342D01*
Y296693D01*
D02*
G37*
G36*
X73008Y291693D02*
X68657D01*
Y293307D01*
X73008D01*
Y291693D01*
D02*
G37*
G36*
X53342D02*
X48992D01*
Y293307D01*
X53342D01*
Y291693D01*
D02*
G37*
G36*
X73008Y286693D02*
X68657D01*
Y288307D01*
X73008D01*
Y286693D01*
D02*
G37*
G36*
X53342D02*
X48992D01*
Y288307D01*
X53342D01*
Y286693D01*
D02*
G37*
G36*
X73008Y281693D02*
X68657D01*
Y283307D01*
X73008D01*
Y281693D01*
D02*
G37*
G36*
X53342D02*
X48992D01*
Y283307D01*
X53342D01*
Y281693D01*
D02*
G37*
G36*
X73008Y280591D02*
X73008D01*
Y280591D01*
X73008Y280591D01*
D02*
G37*
G36*
X73008D02*
D01*
X73106Y280590D01*
X73244Y280452D01*
X73244Y280256D01*
X73105Y280118D01*
X73008Y280118D01*
X73008D01*
X72910Y280118D01*
X72771Y280257D01*
X72772Y280452D01*
X72910Y280591D01*
X73008Y280591D01*
D02*
G37*
G36*
X257948Y272419D02*
X258418Y271948D01*
X258673Y271333D01*
X258673Y271000D01*
X258673Y270667D01*
X258418Y270052D01*
X257948Y269582D01*
X257333Y269327D01*
X256667Y269327D01*
X256052Y269582D01*
X255582Y270052D01*
X255327Y270667D01*
X255327Y271000D01*
X255327Y271333D01*
X255581Y271948D01*
X256052Y272418D01*
X256667Y272673D01*
X257333Y272673D01*
X257948Y272419D01*
D02*
G37*
G36*
X247948D02*
X248418Y271948D01*
X248673Y271333D01*
X248673Y271000D01*
X248673Y270667D01*
X248418Y270052D01*
X247948Y269582D01*
X247333Y269327D01*
X246667Y269327D01*
X246052Y269582D01*
X245582Y270052D01*
X245327Y270667D01*
X245327Y271000D01*
X245327Y271333D01*
X245582Y271948D01*
X246052Y272418D01*
X246667Y272673D01*
X247333Y272673D01*
X247948Y272419D01*
D02*
G37*
G36*
X237948D02*
X238418Y271948D01*
X238673Y271333D01*
X238673Y271000D01*
X238673Y270667D01*
X238419Y270052D01*
X237948Y269582D01*
X237333Y269327D01*
X236667Y269327D01*
X236052Y269582D01*
X235582Y270052D01*
X235327Y270667D01*
X235327Y271000D01*
X235327Y271333D01*
X235581Y271948D01*
X236052Y272418D01*
X236667Y272673D01*
X237333Y272673D01*
X237948Y272419D01*
D02*
G37*
G36*
X227948D02*
X228418Y271948D01*
X228673Y271333D01*
X228673Y271000D01*
X228673Y270667D01*
X228418Y270052D01*
X227948Y269582D01*
X227333Y269327D01*
X226667Y269327D01*
X226052Y269582D01*
X225582Y270052D01*
X225327Y270667D01*
X225327Y271000D01*
X225327Y271333D01*
X225582Y271948D01*
X226052Y272418D01*
X226667Y272673D01*
X227333Y272673D01*
X227948Y272419D01*
D02*
G37*
G36*
X217948D02*
X218418Y271948D01*
X218673Y271333D01*
X218673Y271000D01*
X218673Y270667D01*
X218419Y270052D01*
X217948Y269582D01*
X217333Y269327D01*
X216667Y269327D01*
X216052Y269582D01*
X215582Y270052D01*
X215327Y270667D01*
X215327Y271000D01*
X215327Y271333D01*
X215581Y271948D01*
X216052Y272418D01*
X216667Y272673D01*
X217333Y272673D01*
X217948Y272419D01*
D02*
G37*
G36*
X207948D02*
X208418Y271948D01*
X208673Y271333D01*
X208673Y271000D01*
X208673Y270667D01*
X208418Y270052D01*
X207948Y269582D01*
X207333Y269327D01*
X206667Y269327D01*
X206052Y269582D01*
X205582Y270052D01*
X205327Y270667D01*
X205327Y271000D01*
X205327Y271333D01*
X205581Y271948D01*
X206052Y272418D01*
X206667Y272673D01*
X207333Y272673D01*
X207948Y272419D01*
D02*
G37*
G36*
X197948D02*
X198418Y271948D01*
X198673Y271333D01*
X198673Y271000D01*
X198673Y270667D01*
X198418Y270052D01*
X197948Y269582D01*
X197333Y269327D01*
X196667Y269327D01*
X196052Y269582D01*
X195582Y270052D01*
X195327Y270667D01*
X195327Y271000D01*
X195327Y271333D01*
X195581Y271948D01*
X196052Y272418D01*
X196667Y272673D01*
X197333Y272673D01*
X197948Y272419D01*
D02*
G37*
G36*
X187948D02*
X188418Y271948D01*
X188673Y271333D01*
X188673Y271000D01*
X188673Y270667D01*
X188418Y270052D01*
X187948Y269582D01*
X187333Y269327D01*
X186667Y269327D01*
X186052Y269582D01*
X185582Y270052D01*
X185327Y270667D01*
X185327Y271000D01*
X185327Y271333D01*
X185582Y271948D01*
X186052Y272418D01*
X186667Y272673D01*
X187333Y272673D01*
X187948Y272419D01*
D02*
G37*
G36*
X177948D02*
X178418Y271948D01*
X178673Y271333D01*
X178673Y271000D01*
X178673Y270667D01*
X178419Y270052D01*
X177948Y269582D01*
X177333Y269327D01*
X176667Y269327D01*
X176052Y269582D01*
X175582Y270052D01*
X175327Y270667D01*
X175327Y271000D01*
X175327Y271333D01*
X175582Y271948D01*
X176052Y272418D01*
X176667Y272673D01*
X177333Y272673D01*
X177948Y272419D01*
D02*
G37*
G36*
X167948D02*
X168418Y271948D01*
X168673Y271333D01*
X168673Y271000D01*
X168673Y270667D01*
X168419Y270052D01*
X167948Y269582D01*
X167333Y269327D01*
X166667Y269327D01*
X166052Y269582D01*
X165582Y270052D01*
X165327Y270667D01*
X165327Y271000D01*
X165327Y271333D01*
X165582Y271948D01*
X166052Y272418D01*
X166667Y272673D01*
X167333Y272673D01*
X167948Y272419D01*
D02*
G37*
G36*
X157948D02*
X158418Y271948D01*
X158673Y271333D01*
X158673Y271000D01*
X158673Y270667D01*
X158419Y270052D01*
X157948Y269582D01*
X157333Y269327D01*
X156667Y269327D01*
X156052Y269582D01*
X155582Y270052D01*
X155327Y270667D01*
X155327Y271000D01*
X155327Y271333D01*
X155581Y271948D01*
X156052Y272418D01*
X156667Y272673D01*
X157333Y272673D01*
X157948Y272419D01*
D02*
G37*
G36*
X147948D02*
X148418Y271948D01*
X148673Y271333D01*
X148673Y271000D01*
X148673Y270667D01*
X148418Y270052D01*
X147948Y269582D01*
X147333Y269327D01*
X146667Y269327D01*
X146052Y269582D01*
X145582Y270052D01*
X145327Y270667D01*
X145327Y271000D01*
X145327Y271333D01*
X145581Y271948D01*
X146052Y272418D01*
X146667Y272673D01*
X147333Y272673D01*
X147948Y272419D01*
D02*
G37*
G36*
X137948D02*
X138418Y271948D01*
X138673Y271333D01*
X138673Y271000D01*
X138673Y270667D01*
X138418Y270052D01*
X137948Y269582D01*
X137333Y269327D01*
X136667Y269327D01*
X136052Y269582D01*
X135582Y270052D01*
X135327Y270667D01*
X135327Y271000D01*
X135327Y271333D01*
X135582Y271948D01*
X136052Y272418D01*
X136667Y272673D01*
X137333Y272673D01*
X137948Y272419D01*
D02*
G37*
G36*
X127948D02*
X128418Y271948D01*
X128673Y271333D01*
X128673Y271000D01*
X128673Y270667D01*
X128419Y270052D01*
X127948Y269582D01*
X127333Y269327D01*
X126667Y269327D01*
X126052Y269582D01*
X125582Y270052D01*
X125327Y270667D01*
X125327Y271000D01*
X125327Y271333D01*
X125582Y271948D01*
X126052Y272418D01*
X126667Y272673D01*
X127333Y272673D01*
X127948Y272419D01*
D02*
G37*
G36*
X117948D02*
X118418Y271948D01*
X118673Y271333D01*
X118673Y271000D01*
X118673Y270667D01*
X118419Y270052D01*
X117948Y269582D01*
X117333Y269327D01*
X116667Y269327D01*
X116052Y269582D01*
X115582Y270052D01*
X115327Y270667D01*
X115327Y271000D01*
X115327Y271333D01*
X115582Y271948D01*
X116052Y272418D01*
X116667Y272673D01*
X117333Y272673D01*
X117948Y272419D01*
D02*
G37*
G36*
X107948Y272418D02*
X108418Y271948D01*
X108673Y271333D01*
X108673Y270667D01*
X108418Y270052D01*
X107948Y269582D01*
X107333Y269327D01*
X107000Y269327D01*
X106667Y269327D01*
X106052Y269582D01*
X105581Y270052D01*
X105327Y270667D01*
X105327Y271333D01*
X105581Y271948D01*
X106052Y272418D01*
X106667Y272673D01*
X107000Y272673D01*
X107333Y272673D01*
X107948Y272418D01*
D02*
G37*
G36*
X97948D02*
X98418Y271948D01*
X98673Y271333D01*
X98673Y270667D01*
X98418Y270052D01*
X97948Y269582D01*
X97333Y269327D01*
X97000Y269327D01*
X96667Y269327D01*
X96052Y269582D01*
X95582Y270052D01*
X95327Y270667D01*
X95327Y271333D01*
X95581Y271948D01*
X96052Y272418D01*
X96667Y272673D01*
X97000Y272673D01*
X97333Y272673D01*
X97948Y272418D01*
D02*
G37*
G36*
X277948Y272418D02*
X278418Y271948D01*
X278673Y271333D01*
X278673Y270667D01*
X278419Y270052D01*
X277948Y269582D01*
X277333Y269327D01*
X277000Y269327D01*
X276667Y269327D01*
X276052Y269582D01*
X275582Y270052D01*
X275327Y270667D01*
X275327Y271333D01*
X275582Y271948D01*
X276052Y272418D01*
X276667Y272673D01*
X277000Y272673D01*
X277333Y272673D01*
X277948Y272418D01*
D02*
G37*
G36*
X267948D02*
X268419Y271948D01*
X268673Y271333D01*
X268673Y270667D01*
X268419Y270052D01*
X267948Y269582D01*
X267333Y269327D01*
X267000Y269327D01*
X266667Y269327D01*
X266052Y269582D01*
X265582Y270052D01*
X265327Y270667D01*
X265327Y271333D01*
X265582Y271948D01*
X266052Y272418D01*
X266667Y272673D01*
X267000Y272673D01*
X267333Y272673D01*
X267948Y272418D01*
D02*
G37*
G36*
X400618Y269329D02*
X400618Y269133D01*
X400480Y268995D01*
X400382Y268995D01*
X400284Y268995D01*
X400146Y269133D01*
X400146Y269329D01*
X400284Y269467D01*
X400382Y269467D01*
X400480Y269467D01*
X400618Y269329D01*
D02*
G37*
G36*
X257948Y262419D02*
X258418Y261948D01*
X258673Y261333D01*
X258673Y261000D01*
X258673Y260667D01*
X258418Y260052D01*
X257948Y259582D01*
X257333Y259327D01*
X256667Y259327D01*
X256052Y259582D01*
X255582Y260052D01*
X255327Y260667D01*
X255327Y261000D01*
X255327Y261333D01*
X255581Y261948D01*
X256052Y262419D01*
X256667Y262673D01*
X257333Y262673D01*
X257948Y262419D01*
D02*
G37*
G36*
X247948D02*
X248418Y261948D01*
X248673Y261333D01*
X248673Y261000D01*
X248673Y260667D01*
X248418Y260052D01*
X247948Y259582D01*
X247333Y259327D01*
X246667Y259327D01*
X246052Y259582D01*
X245582Y260052D01*
X245327Y260667D01*
X245327Y261000D01*
X245327Y261333D01*
X245582Y261948D01*
X246052Y262419D01*
X246667Y262673D01*
X247333Y262673D01*
X247948Y262419D01*
D02*
G37*
G36*
X237948D02*
X238418Y261948D01*
X238673Y261333D01*
X238673Y261000D01*
X238673Y260667D01*
X238419Y260052D01*
X237948Y259582D01*
X237333Y259327D01*
X236667Y259327D01*
X236052Y259582D01*
X235582Y260052D01*
X235327Y260667D01*
X235327Y261000D01*
X235327Y261333D01*
X235581Y261948D01*
X236052Y262419D01*
X236667Y262673D01*
X237333Y262673D01*
X237948Y262419D01*
D02*
G37*
G36*
X227948D02*
X228418Y261948D01*
X228673Y261333D01*
X228673Y261000D01*
X228673Y260667D01*
X228418Y260052D01*
X227948Y259582D01*
X227333Y259327D01*
X226667Y259327D01*
X226052Y259582D01*
X225582Y260052D01*
X225327Y260667D01*
X225327Y261000D01*
X225327Y261333D01*
X225582Y261948D01*
X226052Y262419D01*
X226667Y262673D01*
X227333Y262673D01*
X227948Y262419D01*
D02*
G37*
G36*
X217948D02*
X218418Y261948D01*
X218673Y261333D01*
X218673Y261000D01*
X218673Y260667D01*
X218419Y260052D01*
X217948Y259582D01*
X217333Y259327D01*
X216667Y259327D01*
X216052Y259582D01*
X215582Y260052D01*
X215327Y260667D01*
X215327Y261000D01*
X215327Y261333D01*
X215581Y261948D01*
X216052Y262419D01*
X216667Y262673D01*
X217333Y262673D01*
X217948Y262419D01*
D02*
G37*
G36*
X207948D02*
X208418Y261948D01*
X208673Y261333D01*
X208673Y261000D01*
X208673Y260667D01*
X208418Y260052D01*
X207948Y259582D01*
X207333Y259327D01*
X206667Y259327D01*
X206052Y259582D01*
X205582Y260052D01*
X205327Y260667D01*
X205327Y261000D01*
X205327Y261333D01*
X205581Y261948D01*
X206052Y262419D01*
X206667Y262673D01*
X207333Y262673D01*
X207948Y262419D01*
D02*
G37*
G36*
X197948D02*
X198418Y261948D01*
X198673Y261333D01*
X198673Y261000D01*
X198673Y260667D01*
X198418Y260052D01*
X197948Y259582D01*
X197333Y259327D01*
X196667Y259327D01*
X196052Y259582D01*
X195582Y260052D01*
X195327Y260667D01*
X195327Y261000D01*
X195327Y261333D01*
X195581Y261948D01*
X196052Y262419D01*
X196667Y262673D01*
X197333Y262673D01*
X197948Y262419D01*
D02*
G37*
G36*
X187948D02*
X188418Y261948D01*
X188673Y261333D01*
X188673Y261000D01*
X188673Y260667D01*
X188418Y260052D01*
X187948Y259582D01*
X187333Y259327D01*
X186667Y259327D01*
X186052Y259582D01*
X185582Y260052D01*
X185327Y260667D01*
X185327Y261000D01*
X185327Y261333D01*
X185582Y261948D01*
X186052Y262419D01*
X186667Y262673D01*
X187333Y262673D01*
X187948Y262419D01*
D02*
G37*
G36*
X177948D02*
X178418Y261948D01*
X178673Y261333D01*
X178673Y261000D01*
X178673Y260667D01*
X178419Y260052D01*
X177948Y259582D01*
X177333Y259327D01*
X176667Y259327D01*
X176052Y259582D01*
X175582Y260052D01*
X175327Y260667D01*
X175327Y261000D01*
X175327Y261333D01*
X175582Y261948D01*
X176052Y262419D01*
X176667Y262673D01*
X177333Y262673D01*
X177948Y262419D01*
D02*
G37*
G36*
X167948D02*
X168418Y261948D01*
X168673Y261333D01*
X168673Y261000D01*
X168673Y260667D01*
X168419Y260052D01*
X167948Y259582D01*
X167333Y259327D01*
X166667Y259327D01*
X166052Y259582D01*
X165582Y260052D01*
X165327Y260667D01*
X165327Y261000D01*
X165327Y261333D01*
X165582Y261948D01*
X166052Y262419D01*
X166667Y262673D01*
X167333Y262673D01*
X167948Y262419D01*
D02*
G37*
G36*
X157948D02*
X158418Y261948D01*
X158673Y261333D01*
X158673Y261000D01*
X158673Y260667D01*
X158419Y260052D01*
X157948Y259582D01*
X157333Y259327D01*
X156667Y259327D01*
X156052Y259582D01*
X155582Y260052D01*
X155327Y260667D01*
X155327Y261000D01*
X155327Y261333D01*
X155581Y261948D01*
X156052Y262419D01*
X156667Y262673D01*
X157333Y262673D01*
X157948Y262419D01*
D02*
G37*
G36*
X147948D02*
X148418Y261948D01*
X148673Y261333D01*
X148673Y261000D01*
X148673Y260667D01*
X148418Y260052D01*
X147948Y259582D01*
X147333Y259327D01*
X146667Y259327D01*
X146052Y259582D01*
X145582Y260052D01*
X145327Y260667D01*
X145327Y261000D01*
X145327Y261333D01*
X145581Y261948D01*
X146052Y262419D01*
X146667Y262673D01*
X147333Y262673D01*
X147948Y262419D01*
D02*
G37*
G36*
X137948D02*
X138418Y261948D01*
X138673Y261333D01*
X138673Y261000D01*
X138673Y260667D01*
X138418Y260052D01*
X137948Y259582D01*
X137333Y259327D01*
X136667Y259327D01*
X136052Y259582D01*
X135582Y260052D01*
X135327Y260667D01*
X135327Y261000D01*
X135327Y261333D01*
X135582Y261948D01*
X136052Y262419D01*
X136667Y262673D01*
X137333Y262673D01*
X137948Y262419D01*
D02*
G37*
G36*
X127948D02*
X128418Y261948D01*
X128673Y261333D01*
X128673Y261000D01*
X128673Y260667D01*
X128419Y260052D01*
X127948Y259582D01*
X127333Y259327D01*
X126667Y259327D01*
X126052Y259582D01*
X125582Y260052D01*
X125327Y260667D01*
X125327Y261000D01*
X125327Y261333D01*
X125582Y261948D01*
X126052Y262419D01*
X126667Y262673D01*
X127333Y262673D01*
X127948Y262419D01*
D02*
G37*
G36*
X117948D02*
X118418Y261948D01*
X118673Y261333D01*
X118673Y261000D01*
X118673Y260667D01*
X118419Y260052D01*
X117948Y259582D01*
X117333Y259327D01*
X116667Y259327D01*
X116052Y259582D01*
X115582Y260052D01*
X115327Y260667D01*
X115327Y261000D01*
X115327Y261333D01*
X115582Y261948D01*
X116052Y262419D01*
X116667Y262673D01*
X117333Y262673D01*
X117948Y262419D01*
D02*
G37*
G36*
X107948Y262419D02*
X108418Y261948D01*
X108673Y261333D01*
X108673Y260667D01*
X108418Y260052D01*
X107948Y259582D01*
X107333Y259327D01*
X107000Y259327D01*
X106667Y259327D01*
X106052Y259581D01*
X105581Y260052D01*
X105327Y260667D01*
X105327Y261333D01*
X105581Y261948D01*
X106052Y262418D01*
X106667Y262673D01*
X107000Y262673D01*
X107333Y262673D01*
X107948Y262419D01*
D02*
G37*
G36*
X97948D02*
X98418Y261948D01*
X98673Y261333D01*
X98673Y260667D01*
X98418Y260052D01*
X97948Y259582D01*
X97333Y259327D01*
X97000Y259327D01*
X96667Y259327D01*
X96052Y259581D01*
X95582Y260052D01*
X95327Y260667D01*
X95327Y261333D01*
X95581Y261948D01*
X96052Y262418D01*
X96667Y262673D01*
X97000Y262673D01*
X97333Y262673D01*
X97948Y262419D01*
D02*
G37*
G36*
X277948Y262419D02*
X278418Y261948D01*
X278673Y261333D01*
X278673Y260667D01*
X278419Y260052D01*
X277948Y259582D01*
X277333Y259327D01*
X277000Y259327D01*
X276667Y259327D01*
X276052Y259581D01*
X275582Y260052D01*
X275327Y260667D01*
X275327Y261333D01*
X275582Y261948D01*
X276052Y262418D01*
X276667Y262673D01*
X277000Y262673D01*
X277333Y262673D01*
X277948Y262419D01*
D02*
G37*
G36*
X267948D02*
X268419Y261948D01*
X268673Y261333D01*
X268673Y260667D01*
X268419Y260052D01*
X267948Y259582D01*
X267333Y259327D01*
X267000Y259327D01*
X266667Y259327D01*
X266052Y259581D01*
X265582Y260052D01*
X265327Y260667D01*
X265327Y261333D01*
X265582Y261948D01*
X266052Y262418D01*
X266667Y262673D01*
X267000Y262673D01*
X267333Y262673D01*
X267948Y262419D01*
D02*
G37*
G36*
X392154Y261475D02*
X392135D01*
Y250800D01*
X388867D01*
Y261475D01*
X388846D01*
Y269349D01*
X392154D01*
Y261475D01*
D02*
G37*
G36*
X382154D02*
X382100D01*
Y250800D01*
X378832D01*
Y262020D01*
X378847D01*
Y269349D01*
X382154D01*
Y261475D01*
D02*
G37*
G36*
X372153D02*
X372100D01*
Y250800D01*
X368832D01*
Y262020D01*
X368847D01*
Y269349D01*
X372153D01*
Y261475D01*
D02*
G37*
G36*
X107948Y252418D02*
X108418Y251948D01*
X108673Y251333D01*
X108673Y250667D01*
X108418Y250052D01*
X107948Y249582D01*
X107333Y249327D01*
X107000Y249327D01*
X106667Y249327D01*
X106052Y249582D01*
X105581Y250052D01*
X105327Y250667D01*
X105327Y251333D01*
X105581Y251948D01*
X106052Y252418D01*
X106667Y252673D01*
X107000Y252673D01*
X107333Y252673D01*
X107948Y252418D01*
D02*
G37*
G36*
X97948D02*
X98418Y251948D01*
X98673Y251333D01*
X98673Y250667D01*
X98418Y250052D01*
X97948Y249582D01*
X97333Y249327D01*
X97000Y249327D01*
X96667Y249327D01*
X96052Y249582D01*
X95582Y250052D01*
X95327Y250667D01*
X95327Y251333D01*
X95581Y251948D01*
X96052Y252418D01*
X96667Y252673D01*
X97000Y252673D01*
X97333Y252673D01*
X97948Y252418D01*
D02*
G37*
G36*
X277948Y252418D02*
X278418Y251948D01*
X278673Y251333D01*
X278673Y250667D01*
X278419Y250052D01*
X277948Y249582D01*
X277333Y249327D01*
X277000Y249327D01*
X276667Y249327D01*
X276052Y249582D01*
X275582Y250052D01*
X275327Y250667D01*
X275327Y251333D01*
X275582Y251948D01*
X276052Y252418D01*
X276667Y252673D01*
X277000Y252673D01*
X277333Y252673D01*
X277948Y252418D01*
D02*
G37*
G36*
X267948D02*
X268419Y251948D01*
X268673Y251333D01*
X268673Y250667D01*
X268419Y250052D01*
X267948Y249582D01*
X267333Y249327D01*
X267000Y249327D01*
X266667Y249327D01*
X266052Y249582D01*
X265582Y250052D01*
X265327Y250667D01*
X265327Y251333D01*
X265582Y251948D01*
X266052Y252418D01*
X266667Y252673D01*
X267000Y252673D01*
X267333Y252673D01*
X267948Y252418D01*
D02*
G37*
G36*
X177801Y242193D02*
X173638D01*
Y243807D01*
X177801D01*
Y242193D01*
D02*
G37*
G36*
X158362D02*
X154199D01*
Y243807D01*
X158362D01*
Y242193D01*
D02*
G37*
G36*
X107948Y242419D02*
X108418Y241948D01*
X108673Y241333D01*
X108673Y240667D01*
X108418Y240052D01*
X107948Y239582D01*
X107333Y239327D01*
X107000Y239327D01*
X106667Y239327D01*
X106052Y239581D01*
X105581Y240052D01*
X105327Y240667D01*
X105327Y241333D01*
X105581Y241948D01*
X106052Y242418D01*
X106667Y242673D01*
X107000Y242673D01*
X107333Y242673D01*
X107948Y242419D01*
D02*
G37*
G36*
X97948D02*
X98418Y241948D01*
X98673Y241333D01*
X98673Y240667D01*
X98418Y240052D01*
X97948Y239582D01*
X97333Y239327D01*
X97000Y239327D01*
X96667Y239327D01*
X96052Y239581D01*
X95582Y240052D01*
X95327Y240667D01*
X95327Y241333D01*
X95581Y241948D01*
X96052Y242418D01*
X96667Y242673D01*
X97000Y242673D01*
X97333Y242673D01*
X97948Y242419D01*
D02*
G37*
G36*
X277948Y242419D02*
X278418Y241948D01*
X278673Y241333D01*
X278673Y240667D01*
X278419Y240052D01*
X277948Y239582D01*
X277333Y239327D01*
X277000Y239327D01*
X276667Y239327D01*
X276052Y239581D01*
X275582Y240052D01*
X275327Y240667D01*
X275327Y241333D01*
X275582Y241948D01*
X276052Y242418D01*
X276667Y242673D01*
X277000Y242673D01*
X277333Y242673D01*
X277948Y242419D01*
D02*
G37*
G36*
X267948D02*
X268419Y241948D01*
X268673Y241333D01*
X268673Y240667D01*
X268419Y240052D01*
X267948Y239582D01*
X267333Y239327D01*
X267000Y239327D01*
X266667Y239327D01*
X266052Y239581D01*
X265582Y240052D01*
X265327Y240667D01*
X265327Y241333D01*
X265582Y241948D01*
X266052Y242418D01*
X266667Y242673D01*
X267000Y242673D01*
X267333Y242673D01*
X267948Y242419D01*
D02*
G37*
G36*
X177801Y237193D02*
X173638D01*
Y238807D01*
X177801D01*
Y237193D01*
D02*
G37*
G36*
X158362D02*
X154199D01*
Y238807D01*
X158362D01*
Y237193D01*
D02*
G37*
G36*
X177801Y232193D02*
X173638D01*
Y233807D01*
X177801D01*
Y232193D01*
D02*
G37*
G36*
X158362D02*
X154199D01*
Y233807D01*
X158362D01*
Y232193D01*
D02*
G37*
G36*
X107948Y232418D02*
X108418Y231948D01*
X108673Y231333D01*
X108673Y230667D01*
X108418Y230052D01*
X107948Y229582D01*
X107333Y229327D01*
X107000Y229327D01*
X106667Y229327D01*
X106052Y229581D01*
X105581Y230052D01*
X105327Y230667D01*
X105327Y231333D01*
X105581Y231948D01*
X106052Y232418D01*
X106667Y232673D01*
X107000Y232673D01*
X107333Y232673D01*
X107948Y232418D01*
D02*
G37*
G36*
X97948D02*
X98418Y231948D01*
X98673Y231333D01*
X98673Y230667D01*
X98418Y230052D01*
X97948Y229582D01*
X97333Y229327D01*
X97000Y229327D01*
X96667Y229327D01*
X96052Y229581D01*
X95582Y230052D01*
X95327Y230667D01*
X95327Y231333D01*
X95581Y231948D01*
X96052Y232418D01*
X96667Y232673D01*
X97000Y232673D01*
X97333Y232673D01*
X97948Y232418D01*
D02*
G37*
G36*
X277948Y232418D02*
X278418Y231948D01*
X278673Y231333D01*
X278673Y230667D01*
X278419Y230052D01*
X277948Y229582D01*
X277333Y229327D01*
X277000Y229327D01*
X276667Y229327D01*
X276052Y229581D01*
X275582Y230052D01*
X275327Y230667D01*
X275327Y231333D01*
X275582Y231948D01*
X276052Y232418D01*
X276667Y232673D01*
X277000Y232673D01*
X277333Y232673D01*
X277948Y232418D01*
D02*
G37*
G36*
X267948D02*
X268419Y231948D01*
X268673Y231333D01*
X268673Y230667D01*
X268419Y230052D01*
X267948Y229582D01*
X267333Y229327D01*
X267000Y229327D01*
X266667Y229327D01*
X266052Y229581D01*
X265582Y230052D01*
X265327Y230667D01*
X265327Y231333D01*
X265582Y231948D01*
X266052Y232418D01*
X266667Y232673D01*
X267000Y232673D01*
X267333Y232673D01*
X267948Y232418D01*
D02*
G37*
G36*
X177801Y227193D02*
X173638D01*
Y228807D01*
X177801D01*
Y227193D01*
D02*
G37*
G36*
X158362D02*
X154199D01*
Y228807D01*
X158362D01*
Y227193D01*
D02*
G37*
G36*
X177801Y226090D02*
Y226090D01*
X177897Y226088D01*
X178032Y225950D01*
X178032Y225758D01*
X177897Y225620D01*
X177801Y225618D01*
X177705Y225620D01*
X177570Y225758D01*
X177570Y225951D01*
X177705Y226088D01*
X177801Y226090D01*
D01*
X177801D01*
X177801D01*
D02*
G37*
G36*
X107948Y222418D02*
X108418Y221948D01*
X108673Y221333D01*
X108673Y220667D01*
X108418Y220052D01*
X107948Y219582D01*
X107333Y219327D01*
X107000Y219327D01*
X106667Y219327D01*
X106052Y219582D01*
X105581Y220052D01*
X105327Y220667D01*
X105327Y221333D01*
X105581Y221948D01*
X106052Y222418D01*
X106667Y222673D01*
X107000Y222673D01*
X107333Y222673D01*
X107948Y222418D01*
D02*
G37*
G36*
X97948D02*
X98418Y221948D01*
X98673Y221333D01*
X98673Y220667D01*
X98418Y220052D01*
X97948Y219582D01*
X97333Y219327D01*
X97000Y219327D01*
X96667Y219327D01*
X96052Y219582D01*
X95582Y220052D01*
X95327Y220667D01*
X95327Y221333D01*
X95581Y221948D01*
X96052Y222418D01*
X96667Y222673D01*
X97000Y222673D01*
X97333Y222673D01*
X97948Y222418D01*
D02*
G37*
G36*
X277948Y222418D02*
X278418Y221948D01*
X278673Y221333D01*
X278673Y220667D01*
X278419Y220052D01*
X277948Y219582D01*
X277333Y219327D01*
X277000Y219327D01*
X276667Y219327D01*
X276052Y219582D01*
X275582Y220052D01*
X275327Y220667D01*
X275327Y221333D01*
X275582Y221948D01*
X276052Y222418D01*
X276667Y222673D01*
X277000Y222673D01*
X277333Y222673D01*
X277948Y222418D01*
D02*
G37*
G36*
X267948D02*
X268419Y221948D01*
X268673Y221333D01*
X268673Y220667D01*
X268419Y220052D01*
X267948Y219582D01*
X267333Y219327D01*
X267000Y219327D01*
X266667Y219327D01*
X266052Y219582D01*
X265582Y220052D01*
X265327Y220667D01*
X265327Y221333D01*
X265582Y221948D01*
X266052Y222418D01*
X266667Y222673D01*
X267000Y222673D01*
X267333Y222673D01*
X267948Y222418D01*
D02*
G37*
G36*
X400400Y212900D02*
X360597D01*
Y238884D01*
X400400D01*
Y212900D01*
D02*
G37*
G36*
X107948Y212419D02*
X108418Y211948D01*
X108673Y211333D01*
X108673Y210667D01*
X108418Y210052D01*
X107948Y209582D01*
X107333Y209327D01*
X107000Y209327D01*
X106667Y209327D01*
X106052Y209581D01*
X105581Y210052D01*
X105327Y210667D01*
X105327Y211333D01*
X105581Y211948D01*
X106052Y212418D01*
X106667Y212673D01*
X107000Y212673D01*
X107333Y212673D01*
X107948Y212419D01*
D02*
G37*
G36*
X97948D02*
X98418Y211948D01*
X98673Y211333D01*
X98673Y210667D01*
X98418Y210052D01*
X97948Y209582D01*
X97333Y209327D01*
X97000Y209327D01*
X96667Y209327D01*
X96052Y209581D01*
X95582Y210052D01*
X95327Y210667D01*
X95327Y211333D01*
X95581Y211948D01*
X96052Y212418D01*
X96667Y212673D01*
X97000Y212673D01*
X97333Y212673D01*
X97948Y212419D01*
D02*
G37*
G36*
X277948Y212419D02*
X278418Y211948D01*
X278673Y211333D01*
X278673Y210667D01*
X278419Y210052D01*
X277948Y209582D01*
X277333Y209327D01*
X277000Y209327D01*
X276667Y209327D01*
X276052Y209581D01*
X275582Y210052D01*
X275327Y210667D01*
X275327Y211333D01*
X275582Y211948D01*
X276052Y212418D01*
X276667Y212673D01*
X277000Y212673D01*
X277333Y212673D01*
X277948Y212419D01*
D02*
G37*
G36*
X267948D02*
X268419Y211948D01*
X268673Y211333D01*
X268673Y210667D01*
X268419Y210052D01*
X267948Y209582D01*
X267333Y209327D01*
X267000Y209327D01*
X266667Y209327D01*
X266052Y209581D01*
X265582Y210052D01*
X265327Y210667D01*
X265327Y211333D01*
X265582Y211948D01*
X266052Y212418D01*
X266667Y212673D01*
X267000Y212673D01*
X267333Y212673D01*
X267948Y212419D01*
D02*
G37*
G36*
X335673Y208961D02*
Y208961D01*
D01*
X335673D01*
X335673Y208961D01*
D02*
G37*
G36*
X335671Y209057D02*
X335673Y208961D01*
X335671Y208865D01*
X335533Y208730D01*
X335437D01*
Y204039D01*
X333862D01*
Y208961D01*
X335201D01*
X335201Y208961D01*
X335203Y209057D01*
X335341Y209192D01*
X335533D01*
X335671Y209057D01*
D02*
G37*
G36*
X329138Y204039D02*
X327563D01*
Y208961D01*
X329138D01*
Y204039D01*
D02*
G37*
G36*
X107948Y202418D02*
X108418Y201948D01*
X108673Y201333D01*
X108673Y200667D01*
X108418Y200052D01*
X107948Y199582D01*
X107333Y199327D01*
X107000Y199327D01*
X106667Y199327D01*
X106052Y199582D01*
X105581Y200052D01*
X105327Y200667D01*
X105327Y201333D01*
X105581Y201948D01*
X106052Y202418D01*
X106667Y202673D01*
X107000Y202673D01*
X107333Y202673D01*
X107948Y202418D01*
D02*
G37*
G36*
X97948D02*
X98418Y201948D01*
X98673Y201333D01*
X98673Y200667D01*
X98418Y200052D01*
X97948Y199582D01*
X97333Y199327D01*
X97000Y199327D01*
X96667Y199327D01*
X96052Y199582D01*
X95582Y200052D01*
X95327Y200667D01*
X95327Y201333D01*
X95581Y201948D01*
X96052Y202418D01*
X96667Y202673D01*
X97000Y202673D01*
X97333Y202673D01*
X97948Y202418D01*
D02*
G37*
G36*
X277948Y202418D02*
X278418Y201948D01*
X278673Y201333D01*
X278673Y200667D01*
X278419Y200052D01*
X277948Y199582D01*
X277333Y199327D01*
X277000Y199327D01*
X276667Y199327D01*
X276052Y199582D01*
X275582Y200052D01*
X275327Y200667D01*
X275327Y201333D01*
X275582Y201948D01*
X276052Y202418D01*
X276667Y202673D01*
X277000Y202673D01*
X277333Y202673D01*
X277948Y202418D01*
D02*
G37*
G36*
X267948D02*
X268419Y201948D01*
X268673Y201333D01*
X268673Y200667D01*
X268419Y200052D01*
X267948Y199582D01*
X267333Y199327D01*
X267000Y199327D01*
X266667Y199327D01*
X266052Y199582D01*
X265582Y200052D01*
X265327Y200667D01*
X265327Y201333D01*
X265582Y201948D01*
X266052Y202418D01*
X266667Y202673D01*
X267000Y202673D01*
X267333Y202673D01*
X267948Y202418D01*
D02*
G37*
D134*
X24878Y189000D02*
G03*
X24878Y189000I-1378J0D01*
G01*
X24678Y244100D02*
G03*
X24678Y244100I-1378J0D01*
G01*
X24878Y161000D02*
G03*
X24878Y161000I-1378J0D01*
G01*
Y217000D02*
G03*
X24878Y217000I-1378J0D01*
G01*
X21531Y189000D02*
X25469D01*
X23500Y187031D02*
Y190969D01*
X23300Y242131D02*
Y246069D01*
X21331Y244100D02*
X25269D01*
X21531Y161000D02*
X25469D01*
X23500Y159031D02*
Y162969D01*
X21531Y217000D02*
X25469D01*
X23500Y215032D02*
Y218969D01*
D143*
X247200Y43970D02*
G03*
X247195Y75466I-5J15748D01*
G01*
D02*
G03*
X247190Y43970I0J-15748D01*
G01*
X349510Y93230D02*
G03*
X349515Y61734I5J-15748D01*
G01*
D02*
G03*
X349520Y93230I0J15748D01*
G01*
X459110Y331970D02*
G03*
X459105Y363466I-5J15748D01*
G01*
D02*
G03*
X459100Y331970I0J-15748D01*
G01*
X482000Y170970D02*
G03*
X481995Y202466I-5J15748D01*
G01*
D02*
G03*
X481990Y170970I0J-15748D01*
G01*
X214263Y6939D02*
X222137D01*
Y11861D01*
X214263D02*
X222137D01*
X214263Y6939D02*
Y11861D01*
X247190Y43970D02*
X247200D01*
X349510Y93230D02*
X349520D01*
X187213Y89079D02*
Y98921D01*
Y89079D02*
X208787D01*
Y98921D01*
X187213D02*
X208787D01*
X149713Y89079D02*
Y98921D01*
Y89079D02*
X171287D01*
Y98921D01*
X149713D02*
X171287D01*
X81024Y331157D02*
Y350842D01*
X65276D02*
X81024D01*
X65276Y331157D02*
Y350842D01*
Y331157D02*
X81024D01*
X7700Y31558D02*
X207700D01*
X7700D02*
Y51243D01*
X207700D01*
Y31558D02*
Y51243D01*
X39963Y126239D02*
Y131161D01*
X47837D01*
Y126239D02*
Y131161D01*
X39963Y126239D02*
X47837D01*
X40063Y109839D02*
Y114761D01*
X47937D01*
Y109839D02*
Y114761D01*
X40063Y109839D02*
X47937D01*
X173677Y225854D02*
Y245146D01*
X158323D02*
X173677D01*
X158323Y225854D02*
Y245146D01*
Y225854D02*
X173677D01*
X68697Y280354D02*
Y299646D01*
X53303D02*
X68697D01*
X53303Y280354D02*
Y299646D01*
Y280354D02*
X68697D01*
X110213Y368079D02*
Y377921D01*
Y368079D02*
X131787D01*
Y377921D01*
X110213D02*
X131787D01*
X30213Y378579D02*
Y388421D01*
Y378579D02*
X51787D01*
Y388421D01*
X30213D02*
X51787D01*
X476563Y386461D02*
X484437D01*
X476563Y381539D02*
Y386461D01*
Y381539D02*
X484437D01*
Y386461D01*
X459100Y331970D02*
X459110D01*
X481990Y170970D02*
X482000D01*
X327563Y204039D02*
X335437D01*
Y208961D01*
X327563D02*
X335437D01*
X327563Y204039D02*
Y208961D01*
X400500Y217900D02*
Y251916D01*
X360500D02*
X400500D01*
X360500Y217900D02*
Y251916D01*
Y217900D02*
X400500D01*
X320063Y140961D02*
X327937D01*
X320063Y136039D02*
Y140961D01*
Y136039D02*
X327937D01*
Y140961D01*
X402000Y132900D02*
Y166916D01*
X362000D02*
X402000D01*
X362000Y132900D02*
Y166916D01*
Y132900D02*
X402000D01*
X111500Y115500D02*
X262500D01*
X111500D02*
Y136500D01*
X262500Y115500D02*
Y136500D01*
X111500D02*
X262500D01*
X91500Y276500D02*
X112500D01*
X91500Y115500D02*
Y276500D01*
Y115500D02*
X112500D01*
Y276500D01*
X111500D02*
X262500D01*
Y255500D02*
Y276500D01*
X111500Y255500D02*
Y276500D01*
Y255500D02*
X262500D01*
X261500Y115500D02*
X282500D01*
Y276500D01*
X261500D02*
X282500D01*
X261500Y115500D02*
Y276500D01*
X329063Y322961D02*
X336937D01*
X329063Y318039D02*
Y322961D01*
Y318039D02*
X336937D01*
Y322961D01*
M02*
