G04*
G04 #@! TF.GenerationSoftware,Altium Limited,Altium Designer,20.0.13 (296)*
G04*
G04 Layer_Color=128*
%FSLAX25Y25*%
%MOIN*%
G70*
G01*
G75*
%ADD143C,0.00200*%
D143*
X252121Y60000D02*
X256059D01*
X254090Y58031D02*
Y61968D01*
X238341Y60000D02*
X242279D01*
X240310Y58031D02*
Y61968D01*
X340651Y77200D02*
X344588D01*
X342620Y75231D02*
Y79168D01*
X354432Y77200D02*
X358368D01*
X356400Y75231D02*
Y79168D01*
X201031Y94000D02*
X204969D01*
X203000Y92032D02*
Y95969D01*
X191032Y94000D02*
X194968D01*
X193000Y92032D02*
Y95969D01*
X163531Y94000D02*
X167469D01*
X165500Y92032D02*
Y95969D01*
X153532Y94000D02*
X157468D01*
X155500Y92032D02*
Y95969D01*
X48228Y70000D02*
X51772D01*
X50000Y68228D02*
Y71772D01*
X58228Y70000D02*
X61772D01*
X60000Y68228D02*
Y71772D01*
X68228Y70000D02*
X71772D01*
X70000Y68228D02*
Y71772D01*
X78228Y70000D02*
X81772D01*
X80000Y68228D02*
Y71772D01*
X88228Y70000D02*
X91772D01*
X90000Y68228D02*
Y71772D01*
X98228Y70000D02*
X101772D01*
X100000Y68228D02*
Y71772D01*
X108228Y70000D02*
X111772D01*
X110000Y68228D02*
Y71772D01*
X118228Y70000D02*
X121772D01*
X120000Y68228D02*
Y71772D01*
X386138Y24000D02*
X390862D01*
X388500Y21638D02*
Y26362D01*
X405823Y24000D02*
X410547D01*
X408185Y21638D02*
Y26362D01*
X443449Y24500D02*
X453685D01*
X448567Y19382D02*
Y29618D01*
X464315Y24500D02*
X474551D01*
X469433Y19382D02*
Y29618D01*
X207228Y307500D02*
X210772D01*
X209000Y305728D02*
Y309272D01*
X217228Y307500D02*
X220772D01*
X219000Y305728D02*
Y309272D01*
X227228Y307500D02*
X230772D01*
X229000Y305728D02*
Y309272D01*
X237228Y307500D02*
X240772D01*
X239000Y305728D02*
Y309272D01*
X94728Y307000D02*
X98272D01*
X96500Y305228D02*
Y308772D01*
X104728Y307000D02*
X108272D01*
X106500Y305228D02*
Y308772D01*
X114728Y307000D02*
X118272D01*
X116500Y305228D02*
Y308772D01*
X124728Y307000D02*
X128272D01*
X126500Y305228D02*
Y308772D01*
X134728Y307000D02*
X138272D01*
X136500Y305228D02*
Y308772D01*
X144728Y307000D02*
X148272D01*
X146500Y305228D02*
Y308772D01*
X154728Y307000D02*
X158272D01*
X156500Y305228D02*
Y308772D01*
X164728Y307000D02*
X168272D01*
X166500Y305228D02*
Y308772D01*
X101697Y335921D02*
X105831D01*
X103764Y333855D02*
Y337988D01*
X101697Y345921D02*
X105831D01*
X103764Y343854D02*
Y347988D01*
X111697Y335921D02*
X115831D01*
X113764Y333855D02*
Y337988D01*
X111697Y345921D02*
X115831D01*
X113764Y343854D02*
Y347988D01*
X121697Y335921D02*
X125831D01*
X123764Y333855D02*
Y337988D01*
X121697Y345921D02*
X125831D01*
X123764Y343854D02*
Y347988D01*
X193228Y69000D02*
X196772D01*
X195000Y67228D02*
Y70772D01*
X183228Y69000D02*
X186772D01*
X185000Y67228D02*
Y70772D01*
X173228Y69000D02*
X176772D01*
X175000Y67228D02*
Y70772D01*
X163228Y69000D02*
X166772D01*
X165000Y67228D02*
Y70772D01*
X336728Y357000D02*
X340272D01*
X338500Y355228D02*
Y358772D01*
X336728Y367000D02*
X340272D01*
X338500Y365228D02*
Y368772D01*
X336728Y377000D02*
X340272D01*
X338500Y375228D02*
Y378772D01*
X318728Y357000D02*
X322272D01*
X320500Y355228D02*
Y358772D01*
X318728Y367000D02*
X322272D01*
X320500Y365228D02*
Y368772D01*
X318728Y377000D02*
X322272D01*
X320500Y375228D02*
Y378772D01*
X300728Y357000D02*
X304272D01*
X302500Y355228D02*
Y358772D01*
X300728Y367000D02*
X304272D01*
X302500Y365228D02*
Y368772D01*
X300728Y377000D02*
X304272D01*
X302500Y375228D02*
Y378772D01*
X246728Y357000D02*
X250272D01*
X248500Y355228D02*
Y358772D01*
X246728Y367000D02*
X250272D01*
X248500Y365228D02*
Y368772D01*
X246728Y377000D02*
X250272D01*
X248500Y375228D02*
Y378772D01*
X264728Y357000D02*
X268272D01*
X266500Y355228D02*
Y358772D01*
X264728Y367000D02*
X268272D01*
X266500Y365228D02*
Y368772D01*
X264728Y377000D02*
X268272D01*
X266500Y375228D02*
Y378772D01*
X282728Y357000D02*
X286272D01*
X284500Y355228D02*
Y358772D01*
X282728Y367000D02*
X286272D01*
X284500Y365228D02*
Y368772D01*
X282728Y377000D02*
X286272D01*
X284500Y375228D02*
Y378772D01*
X200535Y46400D02*
X204865D01*
X202700Y44235D02*
Y48565D01*
X200535Y36400D02*
X204865D01*
X202700Y34235D02*
Y38565D01*
X190535Y46400D02*
X194865D01*
X192700Y44235D02*
Y48565D01*
X190535Y36400D02*
X194865D01*
X192700Y34235D02*
Y38565D01*
X180535Y46400D02*
X184865D01*
X182700Y44235D02*
Y48565D01*
X180535Y36400D02*
X184865D01*
X182700Y34235D02*
Y38565D01*
X170535Y46400D02*
X174865D01*
X172700Y44235D02*
Y48565D01*
X170535Y36400D02*
X174865D01*
X172700Y34235D02*
Y38565D01*
X160535Y46400D02*
X164865D01*
X162700Y44235D02*
Y48565D01*
X160535Y36400D02*
X164865D01*
X162700Y34235D02*
Y38565D01*
X150535Y46400D02*
X154865D01*
X152700Y44235D02*
Y48565D01*
X150535Y36400D02*
X154865D01*
X152700Y34235D02*
Y38565D01*
X140535Y46400D02*
X144865D01*
X142700Y44235D02*
Y48565D01*
X140535Y36400D02*
X144865D01*
X142700Y34235D02*
Y38565D01*
X130535Y46400D02*
X134865D01*
X132700Y44235D02*
Y48565D01*
X130535Y36400D02*
X134865D01*
X132700Y34235D02*
Y38565D01*
X120535Y46400D02*
X124865D01*
X122700Y44235D02*
Y48565D01*
X120535Y36400D02*
X124865D01*
X122700Y34235D02*
Y38565D01*
X110535Y46400D02*
X114865D01*
X112700Y44235D02*
Y48565D01*
X110535Y36400D02*
X114865D01*
X112700Y34235D02*
Y38565D01*
X100535Y46400D02*
X104865D01*
X102700Y44235D02*
Y48565D01*
X100535Y36400D02*
X104865D01*
X102700Y34235D02*
Y38565D01*
X90535Y46400D02*
X94865D01*
X92700Y44235D02*
Y48565D01*
X90535Y36400D02*
X94865D01*
X92700Y34235D02*
Y38565D01*
X80535Y46400D02*
X84865D01*
X82700Y44235D02*
Y48565D01*
X80535Y36400D02*
X84865D01*
X82700Y34235D02*
Y38565D01*
X70535Y46400D02*
X74865D01*
X72700Y44235D02*
Y48565D01*
X70535Y36400D02*
X74865D01*
X72700Y34235D02*
Y38565D01*
X60535Y46400D02*
X64865D01*
X62700Y44235D02*
Y48565D01*
X60535Y36400D02*
X64865D01*
X62700Y34235D02*
Y38565D01*
X50535Y46400D02*
X54865D01*
X52700Y44235D02*
Y48565D01*
X50535Y36400D02*
X54865D01*
X52700Y34235D02*
Y38565D01*
X40535Y46400D02*
X44865D01*
X42700Y44235D02*
Y48565D01*
X40535Y36400D02*
X44865D01*
X42700Y34235D02*
Y38565D01*
X30535Y46400D02*
X34865D01*
X32700Y44235D02*
Y48565D01*
X30535Y36400D02*
X34865D01*
X32700Y34235D02*
Y38565D01*
X20535Y46400D02*
X24865D01*
X22700Y44235D02*
Y48565D01*
X20535Y36400D02*
X24865D01*
X22700Y34235D02*
Y38565D01*
X10535Y46400D02*
X14865D01*
X12700Y44235D02*
Y48565D01*
X10535Y36400D02*
X14865D01*
X12700Y34235D02*
Y38565D01*
X13728Y69000D02*
X17272D01*
X15500Y67228D02*
Y70772D01*
X13728Y79000D02*
X17272D01*
X15500Y77228D02*
Y80772D01*
X13728Y89000D02*
X17272D01*
X15500Y87228D02*
Y90772D01*
X13728Y99000D02*
X17272D01*
X15500Y97228D02*
Y100772D01*
X13728Y109000D02*
X17272D01*
X15500Y107228D02*
Y110772D01*
X13728Y119000D02*
X17272D01*
X15500Y117228D02*
Y120772D01*
X13728Y129000D02*
X17272D01*
X15500Y127228D02*
Y130772D01*
X13728Y139000D02*
X17272D01*
X15500Y137228D02*
Y140772D01*
X198228Y364500D02*
X201772D01*
X200000Y362728D02*
Y366272D01*
X198228Y374500D02*
X201772D01*
X200000Y372728D02*
Y376272D01*
X208228Y364500D02*
X211772D01*
X210000Y362728D02*
Y366272D01*
X208228Y374500D02*
X211772D01*
X210000Y372728D02*
Y376272D01*
X218228Y364500D02*
X221772D01*
X220000Y362728D02*
Y366272D01*
X218228Y374500D02*
X221772D01*
X220000Y372728D02*
Y376272D01*
X228228Y374500D02*
X231772D01*
X230000Y372728D02*
Y376272D01*
X228228Y364500D02*
X231772D01*
X230000Y362728D02*
Y366272D01*
X9638Y299185D02*
X14362D01*
X12000Y296823D02*
Y301547D01*
X9638Y279500D02*
X14362D01*
X12000Y277138D02*
Y281862D01*
X146728Y364500D02*
X150272D01*
X148500Y362728D02*
Y366272D01*
X146728Y374500D02*
X150272D01*
X148500Y372728D02*
Y376272D01*
X156728Y364500D02*
X160272D01*
X158500Y362728D02*
Y366272D01*
X156728Y374500D02*
X160272D01*
X158500Y372728D02*
Y376272D01*
X166728Y364500D02*
X170272D01*
X168500Y362728D02*
Y366272D01*
X166728Y374500D02*
X170272D01*
X168500Y372728D02*
Y376272D01*
X176728Y374500D02*
X180272D01*
X178500Y372728D02*
Y376272D01*
X176728Y364500D02*
X180272D01*
X178500Y362728D02*
Y366272D01*
X124031Y373000D02*
X127969D01*
X126000Y371031D02*
Y374969D01*
X114032Y373000D02*
X117968D01*
X116000Y371031D02*
Y374969D01*
X44032Y383500D02*
X47969D01*
X46000Y381532D02*
Y385469D01*
X34032Y383500D02*
X37969D01*
X36000Y381532D02*
Y385469D01*
X95728Y373000D02*
X99272D01*
X97500Y371228D02*
Y374772D01*
X85728Y373000D02*
X89272D01*
X87500Y371228D02*
Y374772D01*
X75728Y373000D02*
X79272D01*
X77500Y371228D02*
Y374772D01*
X65728Y373000D02*
X69272D01*
X67500Y371228D02*
Y374772D01*
X9638Y354685D02*
X14362D01*
X12000Y352323D02*
Y357047D01*
X9638Y335000D02*
X14362D01*
X12000Y332638D02*
Y337362D01*
X497122Y331500D02*
X499878D01*
X498500Y330122D02*
Y332878D01*
X507122Y331500D02*
X509878D01*
X508500Y330122D02*
Y332878D01*
X487122Y331500D02*
X489878D01*
X488500Y330122D02*
Y332878D01*
X426728Y382000D02*
X430272D01*
X428500Y380228D02*
Y383772D01*
X426728Y372000D02*
X430272D01*
X428500Y370228D02*
Y373772D01*
X426728Y362000D02*
X430272D01*
X428500Y360228D02*
Y363772D01*
X409228Y382000D02*
X412772D01*
X411000Y380228D02*
Y383772D01*
X409228Y372000D02*
X412772D01*
X411000Y370228D02*
Y373772D01*
X409228Y362000D02*
X412772D01*
X411000Y360228D02*
Y363772D01*
X391728Y382000D02*
X395272D01*
X393500Y380228D02*
Y383772D01*
X391728Y372000D02*
X395272D01*
X393500Y370228D02*
Y373772D01*
X391728Y362000D02*
X395272D01*
X393500Y360228D02*
Y363772D01*
X374228Y382000D02*
X377772D01*
X376000Y380228D02*
Y383772D01*
X374228Y372000D02*
X377772D01*
X376000Y370228D02*
Y373772D01*
X374228Y362000D02*
X377772D01*
X376000Y360228D02*
Y363772D01*
X356909Y382000D02*
X360453D01*
X358681Y380228D02*
Y383772D01*
X356909Y372000D02*
X360453D01*
X358681Y370228D02*
Y373772D01*
X356909Y362000D02*
X360453D01*
X358681Y360228D02*
Y363772D01*
X464032Y348000D02*
X467969D01*
X466000Y346031D02*
Y349969D01*
X450251Y348000D02*
X454188D01*
X452220Y346031D02*
Y349969D01*
X486922Y187000D02*
X490859D01*
X488890Y185031D02*
Y188969D01*
X473141Y187000D02*
X477078D01*
X475110Y185031D02*
Y188969D01*
X254933Y131000D02*
X259067D01*
X257000Y128933D02*
Y133067D01*
X254933Y121000D02*
X259067D01*
X257000Y118933D02*
Y123067D01*
X244933Y131000D02*
X249067D01*
X247000Y128933D02*
Y133067D01*
X244933Y121000D02*
X249067D01*
X247000Y118933D02*
Y123067D01*
X234933Y131000D02*
X239067D01*
X237000Y128933D02*
Y133067D01*
X234933Y121000D02*
X239067D01*
X237000Y118933D02*
Y123067D01*
X224933Y131000D02*
X229067D01*
X227000Y128933D02*
Y133067D01*
X224933Y121000D02*
X229067D01*
X227000Y118933D02*
Y123067D01*
X214933Y131000D02*
X219067D01*
X217000Y128933D02*
Y133067D01*
X214933Y121000D02*
X219067D01*
X217000Y118933D02*
Y123067D01*
X204933Y131000D02*
X209067D01*
X207000Y128933D02*
Y133067D01*
X204933Y121000D02*
X209067D01*
X207000Y118933D02*
Y123067D01*
X194933Y131000D02*
X199067D01*
X197000Y128933D02*
Y133067D01*
X194933Y121000D02*
X199067D01*
X197000Y118933D02*
Y123067D01*
X184933Y131000D02*
X189067D01*
X187000Y128933D02*
Y133067D01*
X184933Y121000D02*
X189067D01*
X187000Y118933D02*
Y123067D01*
X174933Y131000D02*
X179067D01*
X177000Y128933D02*
Y133067D01*
X174933Y121000D02*
X179067D01*
X177000Y118933D02*
Y123067D01*
X164933Y131000D02*
X169067D01*
X167000Y128933D02*
Y133067D01*
X164933Y121000D02*
X169067D01*
X167000Y118933D02*
Y123067D01*
X154933Y131000D02*
X159067D01*
X157000Y128933D02*
Y133067D01*
X154933Y121000D02*
X159067D01*
X157000Y118933D02*
Y123067D01*
X144933Y131000D02*
X149067D01*
X147000Y128933D02*
Y133067D01*
X144933Y121000D02*
X149067D01*
X147000Y118933D02*
Y123067D01*
X134933Y131000D02*
X139067D01*
X137000Y128933D02*
Y133067D01*
X134933Y121000D02*
X139067D01*
X137000Y118933D02*
Y123067D01*
X124933Y131000D02*
X129067D01*
X127000Y128933D02*
Y133067D01*
X124933Y121000D02*
X129067D01*
X127000Y118933D02*
Y123067D01*
X114933Y131000D02*
X119067D01*
X117000Y128933D02*
Y133067D01*
X114933Y121000D02*
X119067D01*
X117000Y118933D02*
Y123067D01*
X104933Y121000D02*
X109067D01*
X107000Y118933D02*
Y123067D01*
X94933Y121000D02*
X99067D01*
X97000Y118933D02*
Y123067D01*
X104933Y131000D02*
X109067D01*
X107000Y128933D02*
Y133067D01*
X94933Y131000D02*
X99067D01*
X97000Y128933D02*
Y133067D01*
X104933Y141000D02*
X109067D01*
X107000Y138933D02*
Y143067D01*
X94933Y141000D02*
X99067D01*
X97000Y138933D02*
Y143067D01*
X104933Y151000D02*
X109067D01*
X107000Y148933D02*
Y153067D01*
X94933Y151000D02*
X99067D01*
X97000Y148933D02*
Y153067D01*
X104933Y161000D02*
X109067D01*
X107000Y158933D02*
Y163067D01*
X94933Y161000D02*
X99067D01*
X97000Y158933D02*
Y163067D01*
X104933Y171000D02*
X109067D01*
X107000Y168933D02*
Y173067D01*
X94933Y171000D02*
X99067D01*
X97000Y168933D02*
Y173067D01*
X104933Y181000D02*
X109067D01*
X107000Y178933D02*
Y183067D01*
X94933Y181000D02*
X99067D01*
X97000Y178933D02*
Y183067D01*
X104933Y191000D02*
X109067D01*
X107000Y188933D02*
Y193067D01*
X94933Y191000D02*
X99067D01*
X97000Y188933D02*
Y193067D01*
X104933Y201000D02*
X109067D01*
X107000Y198933D02*
Y203067D01*
X94933Y201000D02*
X99067D01*
X97000Y198933D02*
Y203067D01*
X104933Y211000D02*
X109067D01*
X107000Y208933D02*
Y213067D01*
X94933Y211000D02*
X99067D01*
X97000Y208933D02*
Y213067D01*
X104933Y221000D02*
X109067D01*
X107000Y218933D02*
Y223067D01*
X94933Y221000D02*
X99067D01*
X97000Y218933D02*
Y223067D01*
X104933Y231000D02*
X109067D01*
X107000Y228933D02*
Y233067D01*
X94933Y231000D02*
X99067D01*
X97000Y228933D02*
Y233067D01*
X104933Y241000D02*
X109067D01*
X107000Y238933D02*
Y243067D01*
X94933Y241000D02*
X99067D01*
X97000Y238933D02*
Y243067D01*
X104933Y251000D02*
X109067D01*
X107000Y248933D02*
Y253067D01*
X94933Y251000D02*
X99067D01*
X97000Y248933D02*
Y253067D01*
X104933Y261000D02*
X109067D01*
X107000Y258933D02*
Y263067D01*
X94933Y261000D02*
X99067D01*
X97000Y258933D02*
Y263067D01*
X104933Y271000D02*
X109067D01*
X107000Y268933D02*
Y273067D01*
X94933Y271000D02*
X99067D01*
X97000Y268933D02*
Y273067D01*
X114933Y261000D02*
X119067D01*
X117000Y258933D02*
Y263067D01*
X114933Y271000D02*
X119067D01*
X117000Y268933D02*
Y273067D01*
X124933Y261000D02*
X129067D01*
X127000Y258933D02*
Y263067D01*
X124933Y271000D02*
X129067D01*
X127000Y268933D02*
Y273067D01*
X134933Y261000D02*
X139067D01*
X137000Y258933D02*
Y263067D01*
X134933Y271000D02*
X139067D01*
X137000Y268933D02*
Y273067D01*
X144933Y261000D02*
X149067D01*
X147000Y258933D02*
Y263067D01*
X144933Y271000D02*
X149067D01*
X147000Y268933D02*
Y273067D01*
X154933Y261000D02*
X159067D01*
X157000Y258933D02*
Y263067D01*
X154933Y271000D02*
X159067D01*
X157000Y268933D02*
Y273067D01*
X164933Y261000D02*
X169067D01*
X167000Y258933D02*
Y263067D01*
X164933Y271000D02*
X169067D01*
X167000Y268933D02*
Y273067D01*
X174933Y261000D02*
X179067D01*
X177000Y258933D02*
Y263067D01*
X174933Y271000D02*
X179067D01*
X177000Y268933D02*
Y273067D01*
X184933Y261000D02*
X189067D01*
X187000Y258933D02*
Y263067D01*
X184933Y271000D02*
X189067D01*
X187000Y268933D02*
Y273067D01*
X194933Y261000D02*
X199067D01*
X197000Y258933D02*
Y263067D01*
X194933Y271000D02*
X199067D01*
X197000Y268933D02*
Y273067D01*
X204933Y261000D02*
X209067D01*
X207000Y258933D02*
Y263067D01*
X204933Y271000D02*
X209067D01*
X207000Y268933D02*
Y273067D01*
X214933Y261000D02*
X219067D01*
X217000Y258933D02*
Y263067D01*
X214933Y271000D02*
X219067D01*
X217000Y268933D02*
Y273067D01*
X224933Y261000D02*
X229067D01*
X227000Y258933D02*
Y263067D01*
X224933Y271000D02*
X229067D01*
X227000Y268933D02*
Y273067D01*
X234933Y261000D02*
X239067D01*
X237000Y258933D02*
Y263067D01*
X234933Y271000D02*
X239067D01*
X237000Y268933D02*
Y273067D01*
X244933Y261000D02*
X249067D01*
X247000Y258933D02*
Y263067D01*
X244933Y271000D02*
X249067D01*
X247000Y268933D02*
Y273067D01*
X254933Y261000D02*
X259067D01*
X257000Y258933D02*
Y263067D01*
X254933Y271000D02*
X259067D01*
X257000Y268933D02*
Y273067D01*
X264933Y271000D02*
X269067D01*
X267000Y268933D02*
Y273067D01*
X274933Y271000D02*
X279067D01*
X277000Y268933D02*
Y273067D01*
X264933Y261000D02*
X269067D01*
X267000Y258933D02*
Y263067D01*
X274933Y261000D02*
X279067D01*
X277000Y258933D02*
Y263067D01*
X264933Y251000D02*
X269067D01*
X267000Y248933D02*
Y253067D01*
X274933Y251000D02*
X279067D01*
X277000Y248933D02*
Y253067D01*
X264933Y241000D02*
X269067D01*
X267000Y238933D02*
Y243067D01*
X274933Y241000D02*
X279067D01*
X277000Y238933D02*
Y243067D01*
X264933Y231000D02*
X269067D01*
X267000Y228933D02*
Y233067D01*
X274933Y231000D02*
X279067D01*
X277000Y228933D02*
Y233067D01*
X264933Y221000D02*
X269067D01*
X267000Y218933D02*
Y223067D01*
X274933Y221000D02*
X279067D01*
X277000Y218933D02*
Y223067D01*
X264933Y211000D02*
X269067D01*
X267000Y208933D02*
Y213067D01*
X274933Y211000D02*
X279067D01*
X277000Y208933D02*
Y213067D01*
X264933Y201000D02*
X269067D01*
X267000Y198933D02*
Y203067D01*
X274933Y201000D02*
X279067D01*
X277000Y198933D02*
Y203067D01*
X264933Y191000D02*
X269067D01*
X267000Y188933D02*
Y193067D01*
X274933Y191000D02*
X279067D01*
X277000Y188933D02*
Y193067D01*
X264933Y181000D02*
X269067D01*
X267000Y178933D02*
Y183067D01*
X274933Y181000D02*
X279067D01*
X277000Y178933D02*
Y183067D01*
X264933Y171000D02*
X269067D01*
X267000Y168933D02*
Y173067D01*
X274933Y171000D02*
X279067D01*
X277000Y168933D02*
Y173067D01*
X264933Y161000D02*
X269067D01*
X267000Y158933D02*
Y163067D01*
X274933Y161000D02*
X279067D01*
X277000Y158933D02*
Y163067D01*
X264933Y151000D02*
X269067D01*
X267000Y148933D02*
Y153067D01*
X274933Y151000D02*
X279067D01*
X277000Y148933D02*
Y153067D01*
X264933Y141000D02*
X269067D01*
X267000Y138933D02*
Y143067D01*
X274933Y141000D02*
X279067D01*
X277000Y138933D02*
Y143067D01*
X264933Y131000D02*
X269067D01*
X267000Y128933D02*
Y133067D01*
X274933Y131000D02*
X279067D01*
X277000Y128933D02*
Y133067D01*
X264933Y121000D02*
X269067D01*
X267000Y118933D02*
Y123067D01*
X274933Y121000D02*
X279067D01*
X277000Y118933D02*
Y123067D01*
X200543Y199000D02*
X204086D01*
X202315Y197228D02*
Y200772D01*
X220228Y199000D02*
X223772D01*
X222000Y197228D02*
Y200772D01*
X465123Y73001D02*
X469060D01*
X467092Y71032D02*
Y74969D01*
X476933Y91505D02*
X480870D01*
X478901Y89537D02*
Y93474D01*
X489531Y73000D02*
X493468D01*
X491500Y71032D02*
Y74969D01*
X4595Y383000D02*
X16406D01*
X10500Y377095D02*
Y388906D01*
X4595Y11000D02*
X16406D01*
X10500Y5094D02*
Y16905D01*
X505594Y11000D02*
X517406D01*
X511500Y5094D02*
Y16905D01*
X505594Y383000D02*
X517406D01*
X511500Y377095D02*
Y388906D01*
X488579Y153398D02*
X498421D01*
X493500Y148476D02*
Y158319D01*
X488579Y134500D02*
X498421D01*
X493500Y129579D02*
Y139421D01*
X488579Y115602D02*
X498421D01*
X493500Y110681D02*
Y120524D01*
X381600Y45000D02*
X382800D01*
X382200Y44400D02*
Y45600D01*
X385400Y72100D02*
X386600D01*
X386000Y71500D02*
Y72700D01*
X376900Y57800D02*
X378100D01*
X377500Y57200D02*
Y58400D01*
X370000Y74200D02*
X371200D01*
X370600Y73600D02*
Y74800D01*
X366400Y9300D02*
X367600D01*
X367000Y8700D02*
Y9900D01*
X365900Y22700D02*
X367100D01*
X366500Y22100D02*
Y23300D01*
X368500Y36500D02*
X369700D01*
X369100Y35900D02*
Y37100D01*
X353200Y21300D02*
X354400D01*
X353800Y20700D02*
Y21900D01*
X354600Y7000D02*
X355800D01*
X355200Y6400D02*
Y7600D01*
X328500Y7000D02*
X329700D01*
X329100Y6400D02*
Y7600D01*
X303800Y7500D02*
X305000D01*
X304400Y6900D02*
Y8100D01*
X285100Y6900D02*
X286300D01*
X285700Y6300D02*
Y7500D01*
X271000Y7000D02*
X272200D01*
X271600Y6400D02*
Y7600D01*
X144600Y52500D02*
X145800D01*
X145200Y51900D02*
Y53100D01*
X57700Y52000D02*
X58900D01*
X58300Y51400D02*
Y52600D01*
X123500Y51800D02*
X124700D01*
X124100Y51200D02*
Y52400D01*
X146500Y69100D02*
X147700D01*
X147100Y68500D02*
Y69700D01*
X132000Y68400D02*
X133200D01*
X132600Y67800D02*
Y69000D01*
X210000Y69500D02*
X211200D01*
X210600Y68900D02*
Y70100D01*
X186800Y52800D02*
X188000D01*
X187400Y52200D02*
Y53400D01*
X204500Y23800D02*
X205700D01*
X205100Y23200D02*
Y24400D01*
X233600Y75600D02*
X234800D01*
X234200Y75000D02*
Y76200D01*
X218900Y75100D02*
X220100D01*
X219500Y74500D02*
Y75700D01*
X329900Y83700D02*
X331100D01*
X330500Y83100D02*
Y84300D01*
X330900Y71800D02*
X332100D01*
X331500Y71200D02*
Y72400D01*
X345900Y63600D02*
X347100D01*
X346500Y63000D02*
Y64200D01*
X333600Y24800D02*
X334800D01*
X334200Y24200D02*
Y25400D01*
X327600Y25900D02*
X328800D01*
X328200Y25300D02*
Y26500D01*
X321600Y51100D02*
X322800D01*
X322200Y50500D02*
Y51700D01*
X314700Y63700D02*
X315900D01*
X315300Y63100D02*
Y64300D01*
X319200Y66100D02*
X320400D01*
X319800Y65500D02*
Y66700D01*
X304900Y53300D02*
X306100D01*
X305500Y52700D02*
Y53900D01*
X307800Y48000D02*
X309000D01*
X308400Y47400D02*
Y48600D01*
X300400Y41600D02*
X301600D01*
X301000Y41000D02*
Y42200D01*
X291000Y44100D02*
X292200D01*
X291600Y43500D02*
Y44700D01*
X278000Y44100D02*
X279200D01*
X278600Y43500D02*
Y44700D01*
X263300Y40800D02*
X264500D01*
X263900Y40200D02*
Y41400D01*
X253500Y34500D02*
X254700D01*
X254100Y33900D02*
Y35100D01*
X252000Y49300D02*
X253200D01*
X252600Y48700D02*
Y49900D01*
X264000Y50800D02*
X265200D01*
X264600Y50200D02*
Y51400D01*
X266000Y58300D02*
X267200D01*
X266600Y57700D02*
Y58900D01*
X279800Y60200D02*
X281000D01*
X280400Y59600D02*
Y60800D01*
X293800Y61200D02*
X295000D01*
X294400Y60600D02*
Y61800D01*
X287300Y64800D02*
X288500D01*
X287900Y64200D02*
Y65400D01*
X274800Y64300D02*
X276000D01*
X275400Y63700D02*
Y64900D01*
X263000Y63500D02*
X264200D01*
X263600Y62900D02*
Y64100D01*
X255300Y81300D02*
X256500D01*
X255900Y80700D02*
Y81900D01*
X273300Y81500D02*
X274500D01*
X273900Y80900D02*
Y82100D01*
X293100Y81600D02*
X294300D01*
X293700Y81000D02*
Y82200D01*
X317800Y82100D02*
X319000D01*
X318400Y81500D02*
Y82700D01*
X346600Y82900D02*
X347800D01*
X347200Y82300D02*
Y83500D01*
X255900Y91000D02*
X257100D01*
X256500Y90400D02*
Y91600D01*
X273900Y91200D02*
X275100D01*
X274500Y90600D02*
Y91800D01*
X293700Y91300D02*
X294900D01*
X294300Y90700D02*
Y91900D01*
X318400Y91800D02*
X319600D01*
X319000Y91200D02*
Y92400D01*
X341100Y92200D02*
X342300D01*
X341700Y91600D02*
Y92800D01*
X340300Y102000D02*
X341500D01*
X340900Y101400D02*
Y102600D01*
X317600Y101600D02*
X318800D01*
X318200Y101000D02*
Y102200D01*
X292900Y101100D02*
X294100D01*
X293500Y100500D02*
Y101700D01*
X273100Y101000D02*
X274300D01*
X273700Y100400D02*
Y101600D01*
X255100Y100800D02*
X256300D01*
X255700Y100200D02*
Y101400D01*
X311750Y34750D02*
X312950D01*
X312350Y34150D02*
Y35350D01*
X331100Y32800D02*
X332300D01*
X331700Y32200D02*
Y33400D01*
X326200Y32900D02*
X327400D01*
X326800Y32300D02*
Y33500D01*
X330500Y37200D02*
X331700D01*
X331100Y36600D02*
Y37800D01*
X326200Y37100D02*
X327400D01*
X326800Y36500D02*
Y37700D01*
X330200Y41500D02*
X331400D01*
X330800Y40900D02*
Y42100D01*
X325400Y41500D02*
X326600D01*
X326000Y40900D02*
Y42100D01*
X180500Y15100D02*
X181700D01*
X181100Y14500D02*
Y15700D01*
X486500Y250600D02*
X487700D01*
X487100Y250000D02*
Y251200D01*
X486400Y255500D02*
X487600D01*
X487000Y254900D02*
Y256100D01*
X482400Y251000D02*
X483600D01*
X483000Y250400D02*
Y251600D01*
X482400Y255000D02*
X483600D01*
X483000Y254400D02*
Y255600D01*
X477100Y251700D02*
X478300D01*
X477700Y251100D02*
Y252300D01*
X477100Y256100D02*
X478300D01*
X477700Y255500D02*
Y256700D01*
X366400Y159700D02*
X367600D01*
X367000Y159100D02*
Y160300D01*
X374800Y159900D02*
X376000D01*
X375400Y159300D02*
Y160500D01*
X366400Y152800D02*
X367600D01*
X367000Y152200D02*
Y153400D01*
X374600Y152800D02*
X375800D01*
X375200Y152200D02*
Y153400D01*
X366300Y146000D02*
X367500D01*
X366900Y145400D02*
Y146600D01*
X375000Y145800D02*
X376200D01*
X375600Y145200D02*
Y146400D01*
X395400Y146000D02*
X396600D01*
X396000Y145400D02*
Y146600D01*
X386700Y146200D02*
X387900D01*
X387300Y145600D02*
Y146800D01*
X395000Y153000D02*
X396200D01*
X395600Y152400D02*
Y153600D01*
X386800Y153000D02*
X388000D01*
X387400Y152400D02*
Y153600D01*
X395200Y160100D02*
X396400D01*
X395800Y159500D02*
Y160700D01*
X386800Y159900D02*
X388000D01*
X387400Y159300D02*
Y160500D01*
X386800Y140600D02*
X388000D01*
X387400Y140000D02*
Y141200D01*
X395200Y140800D02*
X396400D01*
X395800Y140200D02*
Y141400D01*
X386800Y133700D02*
X388000D01*
X387400Y133100D02*
Y134300D01*
X395000Y133700D02*
X396200D01*
X395600Y133100D02*
Y134300D01*
X386700Y126900D02*
X387900D01*
X387300Y126300D02*
Y127500D01*
X395400Y126700D02*
X396600D01*
X396000Y126100D02*
Y127300D01*
X375000Y126500D02*
X376200D01*
X375600Y125900D02*
Y127100D01*
X366300Y126700D02*
X367500D01*
X366900Y126100D02*
Y127300D01*
X374600Y133500D02*
X375800D01*
X375200Y132900D02*
Y134100D01*
X366400Y133500D02*
X367600D01*
X367000Y132900D02*
Y134100D01*
X374800Y140600D02*
X376000D01*
X375400Y140000D02*
Y141200D01*
X366400Y140400D02*
X367600D01*
X367000Y139800D02*
Y141000D01*
X365500Y225400D02*
X366700D01*
X366100Y224800D02*
Y226000D01*
X373900Y225600D02*
X375100D01*
X374500Y225000D02*
Y226200D01*
X365500Y218500D02*
X366700D01*
X366100Y217900D02*
Y219100D01*
X373700Y218500D02*
X374900D01*
X374300Y217900D02*
Y219100D01*
X365400Y211700D02*
X366600D01*
X366000Y211100D02*
Y212300D01*
X374100Y211500D02*
X375300D01*
X374700Y210900D02*
Y212100D01*
X394500Y211700D02*
X395700D01*
X395100Y211100D02*
Y212300D01*
X385800Y211900D02*
X387000D01*
X386400Y211300D02*
Y212500D01*
X394100Y218700D02*
X395300D01*
X394700Y218100D02*
Y219300D01*
X385900Y218700D02*
X387100D01*
X386500Y218100D02*
Y219300D01*
X394300Y225800D02*
X395500D01*
X394900Y225200D02*
Y226400D01*
X385900Y225600D02*
X387100D01*
X386500Y225000D02*
Y226200D01*
X385900Y244900D02*
X387100D01*
X386500Y244300D02*
Y245500D01*
X394300Y245100D02*
X395500D01*
X394900Y244500D02*
Y245700D01*
X385900Y238000D02*
X387100D01*
X386500Y237400D02*
Y238600D01*
X394100Y238000D02*
X395300D01*
X394700Y237400D02*
Y238600D01*
X385800Y231200D02*
X387000D01*
X386400Y230600D02*
Y231800D01*
X394500Y231000D02*
X395700D01*
X395100Y230400D02*
Y231600D01*
X374100Y230800D02*
X375300D01*
X374700Y230200D02*
Y231400D01*
X365400Y231000D02*
X366600D01*
X366000Y230400D02*
Y231600D01*
X373700Y237800D02*
X374900D01*
X374300Y237200D02*
Y238400D01*
X365500Y237800D02*
X366700D01*
X366100Y237200D02*
Y238400D01*
X373900Y244900D02*
X375100D01*
X374500Y244300D02*
Y245500D01*
X365500Y244700D02*
X366700D01*
X366100Y244100D02*
Y245300D01*
X77500Y292600D02*
X78700D01*
X78100Y292000D02*
Y293200D01*
X363200Y302900D02*
X364400D01*
X363800Y302300D02*
Y303500D01*
X363200Y297400D02*
X364400D01*
X363800Y296800D02*
Y298000D01*
X379301Y18491D02*
X380501D01*
X379901Y17891D02*
Y19091D01*
X206300Y10100D02*
X207500D01*
X206900Y9500D02*
Y10700D01*
X206500Y16200D02*
X207700D01*
X207100Y15600D02*
Y16800D01*
X377900Y8900D02*
X379100D01*
X378500Y8300D02*
Y9500D01*
X395100Y8000D02*
X396300D01*
X395700Y7400D02*
Y8600D01*
X410200Y9000D02*
X411400D01*
X410800Y8400D02*
Y9600D01*
X385900Y36600D02*
X387100D01*
X386500Y36000D02*
Y37200D01*
X395500Y49600D02*
X396700D01*
X396100Y49000D02*
Y50200D01*
X411700Y50900D02*
X412900D01*
X412300Y50300D02*
Y51500D01*
X397300Y34600D02*
X398500D01*
X397900Y34000D02*
Y35200D01*
X410700Y37700D02*
X411900D01*
X411300Y37100D02*
Y38300D01*
X431100Y39400D02*
X432300D01*
X431700Y38800D02*
Y40000D01*
X431300Y51800D02*
X432500D01*
X431900Y51200D02*
Y52400D01*
Y61900D02*
X433100D01*
X432500Y61300D02*
Y62500D01*
X414300Y60800D02*
X415500D01*
X414900Y60200D02*
Y61400D01*
X395500Y60700D02*
X396700D01*
X396100Y60100D02*
Y61300D01*
X432600Y74600D02*
X433800D01*
X433200Y74000D02*
Y75200D01*
X414000Y72600D02*
X415200D01*
X414600Y72000D02*
Y73200D01*
X396800Y72400D02*
X398000D01*
X397400Y71800D02*
Y73000D01*
X420500Y136900D02*
X421700D01*
X421100Y136300D02*
Y137500D01*
X421300Y144400D02*
X422500D01*
X421900Y143800D02*
Y145000D01*
X416400Y146400D02*
X417600D01*
X417000Y145800D02*
Y147000D01*
X406500Y129100D02*
X407700D01*
X407100Y128500D02*
Y129700D01*
X406000Y138400D02*
X407200D01*
X406600Y137800D02*
Y139000D01*
X404800Y145300D02*
X406000D01*
X405400Y144700D02*
Y145900D01*
X406100Y151800D02*
X407300D01*
X406700Y151200D02*
Y152400D01*
X406500Y157000D02*
X407700D01*
X407100Y156400D02*
Y157600D01*
X312800Y136500D02*
X314000D01*
X313400Y135900D02*
Y137100D01*
X388201Y119091D02*
X389401D01*
X388801Y118491D02*
Y119691D01*
X398201D02*
X399401D01*
X398801Y119091D02*
Y120291D01*
X366601Y118491D02*
X367801D01*
X367201Y117891D02*
Y119091D01*
X376601D02*
X377801D01*
X377201Y118491D02*
Y119691D01*
X342701Y118291D02*
X343901D01*
X343301Y117691D02*
Y118891D01*
X352701D02*
X353901D01*
X353301Y118291D02*
Y119491D01*
X343001Y128991D02*
X344201D01*
X343601Y128391D02*
Y129591D01*
X353001D02*
X354201D01*
X353601Y128991D02*
Y130191D01*
X320301Y116391D02*
X321501D01*
X320901Y115791D02*
Y116991D01*
X330301D02*
X331501D01*
X330901Y116391D02*
Y117591D01*
X320601Y127091D02*
X321801D01*
X321201Y126491D02*
Y127691D01*
X330601D02*
X331801D01*
X331201Y127091D02*
Y128291D01*
X300601Y116091D02*
X301801D01*
X301201Y115491D02*
Y116691D01*
X310601D02*
X311801D01*
X311201Y116091D02*
Y117291D01*
X301101Y126891D02*
X302301D01*
X301701Y126291D02*
Y127491D01*
X311101D02*
X312301D01*
X311701Y126891D02*
Y128091D01*
X301000Y135100D02*
X302200D01*
X301600Y134500D02*
Y135700D01*
X310800Y145700D02*
X312000D01*
X311400Y145100D02*
Y146300D01*
X300800Y145100D02*
X302000D01*
X301400Y144500D02*
Y145700D01*
X310400Y156100D02*
X311600D01*
X311000Y155500D02*
Y156700D01*
X310100Y165100D02*
X311300D01*
X310700Y164500D02*
Y165700D01*
X300900Y155400D02*
X302100D01*
X301500Y154800D02*
Y156000D01*
X300400Y165200D02*
X301600D01*
X301000Y164600D02*
Y165800D01*
X351700Y138300D02*
X352900D01*
X352300Y137700D02*
Y138900D01*
X351900Y146800D02*
X353100D01*
X352500Y146200D02*
Y147400D01*
X337800Y137900D02*
X339000D01*
X338400Y137300D02*
Y138500D01*
X337600Y146300D02*
X338800D01*
X338200Y145700D02*
Y146900D01*
X357000Y153700D02*
X358200D01*
X357600Y153100D02*
Y154300D01*
X356700Y161500D02*
X357900D01*
X357300Y160900D02*
Y162100D01*
X346800Y154600D02*
X348000D01*
X347400Y154000D02*
Y155200D01*
X336100Y154000D02*
X337300D01*
X336700Y153400D02*
Y154600D01*
X330800Y154300D02*
X332000D01*
X331400Y153700D02*
Y154900D01*
X338600Y161900D02*
X339800D01*
X339200Y161300D02*
Y162500D01*
X337700Y168900D02*
X338900D01*
X338300Y168300D02*
Y169500D01*
X352700Y169800D02*
X353900D01*
X353300Y169200D02*
Y170400D01*
X426600Y191700D02*
X427800D01*
X427200Y191100D02*
Y192300D01*
X427600Y204300D02*
X428800D01*
X428200Y203700D02*
Y204900D01*
X352900Y191800D02*
X354100D01*
X353500Y191200D02*
Y192400D01*
X336400Y189900D02*
X337600D01*
X337000Y189300D02*
Y190500D01*
X314300Y189700D02*
X315500D01*
X314900Y189100D02*
Y190300D01*
X320900Y198400D02*
X322100D01*
X321500Y197800D02*
Y199000D01*
X197600Y53600D02*
X198800D01*
X198200Y53000D02*
Y54200D01*
X203000Y60000D02*
X204200D01*
X203600Y59400D02*
Y60600D01*
X206500Y75900D02*
X207700D01*
X207100Y75300D02*
Y76500D01*
X231200Y91100D02*
X232400D01*
X231800Y90500D02*
Y91700D01*
X213400Y90400D02*
X214600D01*
X214000Y89800D02*
Y91000D01*
X230300Y103700D02*
X231500D01*
X230900Y103100D02*
Y104300D01*
X212300Y103500D02*
X213500D01*
X212900Y102900D02*
Y104100D01*
X171200Y84900D02*
X172400D01*
X171800Y84300D02*
Y85500D01*
X178800Y102400D02*
X180000D01*
X179400Y101800D02*
Y103000D01*
X183800Y94000D02*
X185000D01*
X184400Y93400D02*
Y94600D01*
X192500Y103600D02*
X193700D01*
X193100Y103000D02*
Y104200D01*
X158500Y85300D02*
X159700D01*
X159100Y84700D02*
Y85900D01*
X149100Y93800D02*
X150300D01*
X149700Y93200D02*
Y94400D01*
X129000Y87400D02*
X130200D01*
X129600Y86800D02*
Y88000D01*
X141900Y101900D02*
X143100D01*
X142500Y101300D02*
Y102500D01*
X163500Y144200D02*
X164700D01*
X164100Y143600D02*
Y144800D01*
X162900Y152000D02*
X164100D01*
X163500Y151400D02*
Y152600D01*
X163800Y161400D02*
X165000D01*
X164400Y160800D02*
Y162000D01*
X184500Y208900D02*
X185700D01*
X185100Y208300D02*
Y209500D01*
X190500Y214600D02*
X191700D01*
X191100Y214000D02*
Y215200D01*
X211800Y199400D02*
X213000D01*
X212400Y198800D02*
Y200000D01*
X247100Y147100D02*
X248300D01*
X247700Y146500D02*
Y147700D01*
X258400Y146500D02*
X259600D01*
X259000Y145900D02*
Y147100D01*
Y139700D02*
X260200D01*
X259600Y139100D02*
Y140300D01*
X246000Y139400D02*
X247200D01*
X246600Y138800D02*
Y140000D01*
X230300D02*
X231500D01*
X230900Y139400D02*
Y140600D01*
X215900Y139800D02*
X217100D01*
X216500Y139200D02*
Y140400D01*
X227100Y145200D02*
X228300D01*
X227700Y144600D02*
Y145800D01*
X220300Y150000D02*
X221500D01*
X220900Y149400D02*
Y150600D01*
X225900Y156000D02*
X227100D01*
X226500Y155400D02*
Y156600D01*
X242200Y156900D02*
X243400D01*
X242800Y156300D02*
Y157500D01*
X254800Y156900D02*
X256000D01*
X255400Y156300D02*
Y157500D01*
X256600Y169900D02*
X257800D01*
X257200Y169300D02*
Y170500D01*
X246000Y171300D02*
X247200D01*
X246600Y170700D02*
Y171900D01*
X222600Y172200D02*
X223800D01*
X223200Y171600D02*
Y172800D01*
X214800Y177000D02*
X216000D01*
X215400Y176400D02*
Y177600D01*
X228100Y185000D02*
X229300D01*
X228700Y184400D02*
Y185600D01*
X215400Y188600D02*
X216600D01*
X216000Y188000D02*
Y189200D01*
X232500Y206400D02*
X233700D01*
X233100Y205800D02*
Y207000D01*
X234400Y216400D02*
X235600D01*
X235000Y215800D02*
Y217000D01*
X209300Y208300D02*
X210500D01*
X209900Y207700D02*
Y208900D01*
X216700Y217300D02*
X217900D01*
X217300Y216700D02*
Y217900D01*
X226700Y227300D02*
X227900D01*
X227300Y226700D02*
Y227900D01*
X234400Y233100D02*
X235600D01*
X235000Y232500D02*
Y233700D01*
X242574Y227189D02*
X243774D01*
X243174Y226589D02*
Y227789D01*
Y236189D02*
X244374D01*
X243774Y235589D02*
Y236789D01*
X242674Y245889D02*
X243874D01*
X243274Y245289D02*
Y246489D01*
X252600Y228900D02*
X253800D01*
X253200Y228300D02*
Y229500D01*
Y237900D02*
X254400D01*
X253800Y237300D02*
Y238500D01*
X252700Y247600D02*
X253900D01*
X253300Y247000D02*
Y248200D01*
X234589Y192526D02*
X235789D01*
X235189Y191926D02*
Y193126D01*
X243589Y191926D02*
X244789D01*
X244189Y191326D02*
Y192526D01*
X253289Y192426D02*
X254489D01*
X253889Y191826D02*
Y193026D01*
X236300Y182500D02*
X237500D01*
X236900Y181900D02*
Y183100D01*
X245300Y181900D02*
X246500D01*
X245900Y181300D02*
Y182500D01*
X255000Y182400D02*
X256200D01*
X255600Y181800D02*
Y183000D01*
X185789Y153926D02*
X186989D01*
X186389Y153326D02*
Y154526D01*
X194789Y153326D02*
X195989D01*
X195389Y152726D02*
Y153926D01*
X204489Y153826D02*
X205689D01*
X205089Y153226D02*
Y154426D01*
X187500Y143900D02*
X188700D01*
X188100Y143300D02*
Y144500D01*
X196500Y143300D02*
X197700D01*
X197100Y142700D02*
Y143900D01*
X206200Y143800D02*
X207400D01*
X206800Y143200D02*
Y144400D01*
X192626Y181911D02*
X193826D01*
X193226Y181311D02*
Y182511D01*
X192026Y172911D02*
X193226D01*
X192626Y172311D02*
Y173511D01*
X192526Y163211D02*
X193726D01*
X193126Y162611D02*
Y163811D01*
X182600Y180200D02*
X183800D01*
X183200Y179600D02*
Y180800D01*
X182000Y171200D02*
X183200D01*
X182600Y170600D02*
Y171800D01*
X182500Y161500D02*
X183700D01*
X183100Y160900D02*
Y162100D01*
X173811Y197574D02*
X175011D01*
X174411Y196974D02*
Y198174D01*
X164811D02*
X166011D01*
X165411Y197574D02*
Y198774D01*
X155111Y197674D02*
X156311D01*
X155711Y197074D02*
Y198274D01*
X172100Y207600D02*
X173300D01*
X172700Y207000D02*
Y208200D01*
X163100D02*
X164300D01*
X163700Y207600D02*
Y208800D01*
X153400Y207700D02*
X154600D01*
X154000Y207100D02*
Y208300D01*
X152574Y172189D02*
X153774D01*
X153174Y171589D02*
Y172789D01*
Y181189D02*
X154374D01*
X153774Y180589D02*
Y181789D01*
X152674Y190889D02*
X153874D01*
X153274Y190289D02*
Y191489D01*
X162600Y173900D02*
X163800D01*
X163200Y173300D02*
Y174500D01*
Y182900D02*
X164400D01*
X163800Y182300D02*
Y183500D01*
X162700Y192600D02*
X163900D01*
X163300Y192000D02*
Y193200D01*
X142974Y142989D02*
X144174D01*
X143574Y142389D02*
Y143589D01*
Y151989D02*
X144774D01*
X144174Y151389D02*
Y152589D01*
X143074Y161689D02*
X144274D01*
X143674Y161089D02*
Y162289D01*
X153000Y144700D02*
X154200D01*
X153600Y144100D02*
Y145300D01*
Y153700D02*
X154800D01*
X154200Y153100D02*
Y154300D01*
X153100Y163400D02*
X154300D01*
X153700Y162800D02*
Y164000D01*
X123174Y141289D02*
X124374D01*
X123774Y140689D02*
Y141889D01*
Y150289D02*
X124974D01*
X124374Y149689D02*
Y150889D01*
X123274Y159989D02*
X124474D01*
X123874Y159389D02*
Y160589D01*
X133200Y143000D02*
X134400D01*
X133800Y142400D02*
Y143600D01*
Y152000D02*
X135000D01*
X134400Y151400D02*
Y152600D01*
X133300Y161700D02*
X134500D01*
X133900Y161100D02*
Y162300D01*
X120789Y181026D02*
X121989D01*
X121389Y180426D02*
Y181626D01*
X129789Y180426D02*
X130989D01*
X130389Y179826D02*
Y181026D01*
X139489Y180926D02*
X140689D01*
X140089Y180326D02*
Y181526D01*
X122500Y171000D02*
X123700D01*
X123100Y170400D02*
Y171600D01*
X131500Y170400D02*
X132700D01*
X132100Y169800D02*
Y171000D01*
X141200Y170900D02*
X142400D01*
X141800Y170300D02*
Y171500D01*
X120289Y200226D02*
X121489D01*
X120889Y199626D02*
Y200826D01*
X129289Y199626D02*
X130489D01*
X129889Y199026D02*
Y200226D01*
X138989Y200126D02*
X140189D01*
X139589Y199526D02*
Y200726D01*
X122000Y190200D02*
X123200D01*
X122600Y189600D02*
Y190800D01*
X131000Y189600D02*
X132200D01*
X131600Y189000D02*
Y190200D01*
X140700Y190100D02*
X141900D01*
X141300Y189500D02*
Y190700D01*
X121589Y218026D02*
X122789D01*
X122189Y217426D02*
Y218626D01*
X130589Y217426D02*
X131789D01*
X131189Y216826D02*
Y218026D01*
X140289Y217926D02*
X141489D01*
X140889Y217326D02*
Y218526D01*
X123300Y208000D02*
X124500D01*
X123900Y207400D02*
Y208600D01*
X132300Y207400D02*
X133500D01*
X132900Y206800D02*
Y208000D01*
X142000Y207900D02*
X143200D01*
X142600Y207300D02*
Y208500D01*
X224526Y252511D02*
X225726D01*
X225126Y251911D02*
Y253111D01*
X223926Y243511D02*
X225126D01*
X224526Y242911D02*
Y244111D01*
X214500Y250800D02*
X215700D01*
X215100Y250200D02*
Y251400D01*
X213900Y241800D02*
X215100D01*
X214500Y241200D02*
Y242400D01*
X214400Y232100D02*
X215600D01*
X215000Y231500D02*
Y232700D01*
X203126Y250511D02*
X204326D01*
X203726Y249911D02*
Y251111D01*
X202526Y241511D02*
X203726D01*
X203126Y240911D02*
Y242111D01*
X203026Y231811D02*
X204226D01*
X203626Y231211D02*
Y232411D01*
X193100Y248800D02*
X194300D01*
X193700Y248200D02*
Y249400D01*
X192500Y239800D02*
X193700D01*
X193100Y239200D02*
Y240400D01*
X193000Y230100D02*
X194200D01*
X193600Y229500D02*
Y230700D01*
X169200Y210700D02*
X170400D01*
X169800Y210100D02*
Y211300D01*
X173600Y216800D02*
X174800D01*
X174200Y216200D02*
Y217400D01*
X176100Y247400D02*
X177300D01*
X176700Y246800D02*
Y248000D01*
X184000Y227800D02*
X185200D01*
X184600Y227200D02*
Y228400D01*
X185400Y233400D02*
X186600D01*
X186000Y232800D02*
Y234000D01*
X183900Y238100D02*
X185100D01*
X184500Y237500D02*
Y238700D01*
X184800Y243500D02*
X186000D01*
X185400Y242900D02*
Y244100D01*
X169700Y227300D02*
X170900D01*
X170300Y226700D02*
Y227900D01*
X170100Y238000D02*
X171300D01*
X170700Y237400D02*
Y238600D01*
X170000Y243200D02*
X171200D01*
X170600Y242600D02*
Y243800D01*
X162400Y233000D02*
X163600D01*
X163000Y232400D02*
Y233600D01*
X147500Y232500D02*
X148700D01*
X148100Y231900D02*
Y233100D01*
X187700Y73000D02*
X188900D01*
X188300Y72400D02*
Y73600D01*
X180000Y71800D02*
X181200D01*
X180600Y71200D02*
Y72400D01*
X198400Y25100D02*
X199600D01*
X199000Y24500D02*
Y25700D01*
X197526Y19011D02*
X198726D01*
X198126Y18411D02*
Y19611D01*
X197200Y9500D02*
X198400D01*
X197800Y8900D02*
Y10100D01*
X188100Y26300D02*
X189300D01*
X188700Y25700D02*
Y26900D01*
X187500Y17300D02*
X188700D01*
X188100Y16700D02*
Y17900D01*
X188000Y7600D02*
X189200D01*
X188600Y7000D02*
Y8200D01*
X174926Y28711D02*
X176126D01*
X175526Y28111D02*
Y29311D01*
X174326Y19711D02*
X175526D01*
X174926Y19111D02*
Y20311D01*
X174826Y10011D02*
X176026D01*
X175426Y9411D02*
Y10611D01*
X164900Y27000D02*
X166100D01*
X165500Y26400D02*
Y27600D01*
X164300Y18000D02*
X165500D01*
X164900Y17400D02*
Y18600D01*
X164800Y8300D02*
X166000D01*
X165400Y7700D02*
Y8900D01*
X153126Y28011D02*
X154326D01*
X153726Y27411D02*
Y28611D01*
X152526Y19011D02*
X153726D01*
X153126Y18411D02*
Y19611D01*
X153026Y9311D02*
X154226D01*
X153626Y8711D02*
Y9911D01*
X143100Y26300D02*
X144300D01*
X143700Y25700D02*
Y26900D01*
X142500Y17300D02*
X143700D01*
X143100Y16700D02*
Y17900D01*
X143000Y7600D02*
X144200D01*
X143600Y7000D02*
Y8200D01*
X120474Y8489D02*
X121674D01*
X121074Y7889D02*
Y9089D01*
Y17489D02*
X122274D01*
X121674Y16889D02*
Y18089D01*
X120574Y27189D02*
X121774D01*
X121174Y26589D02*
Y27789D01*
X130500Y10200D02*
X131700D01*
X131100Y9600D02*
Y10800D01*
Y19200D02*
X132300D01*
X131700Y18600D02*
Y19800D01*
X130600Y28900D02*
X131800D01*
X131200Y28300D02*
Y29500D01*
X82889Y22926D02*
X84089D01*
X83489Y22326D02*
Y23526D01*
X91889Y22326D02*
X93089D01*
X92489Y21726D02*
Y22926D01*
X101589Y22826D02*
X102789D01*
X102189Y22226D02*
Y23426D01*
X84600Y12900D02*
X85800D01*
X85200Y12300D02*
Y13500D01*
X93600Y12300D02*
X94800D01*
X94200Y11700D02*
Y12900D01*
X103300Y12800D02*
X104500D01*
X103900Y12200D02*
Y13400D01*
X50689Y19126D02*
X51889D01*
X51289Y18526D02*
Y19726D01*
X59689Y18526D02*
X60889D01*
X60289Y17926D02*
Y19126D01*
X69389Y19026D02*
X70589D01*
X69989Y18426D02*
Y19626D01*
X52400Y9100D02*
X53600D01*
X53000Y8500D02*
Y9700D01*
X61400Y8500D02*
X62600D01*
X62000Y7900D02*
Y9100D01*
X71100Y9000D02*
X72300D01*
X71700Y8400D02*
Y9600D01*
X40011Y9074D02*
X41211D01*
X40611Y8474D02*
Y9674D01*
X30311Y8574D02*
X31511D01*
X30911Y7974D02*
Y9174D01*
X21311D02*
X22511D01*
X21911Y8574D02*
Y9774D01*
X38300Y19100D02*
X39500D01*
X38900Y18500D02*
Y19700D01*
X28600Y18600D02*
X29800D01*
X29200Y18000D02*
Y19200D01*
X19600D02*
X20800D01*
X20200Y18600D02*
Y19800D01*
X160100Y51700D02*
X161300D01*
X160700Y51100D02*
Y52300D01*
X182700Y28300D02*
X183900D01*
X183300Y27700D02*
Y28900D01*
X112400Y19800D02*
X113600D01*
X113000Y19200D02*
Y20400D01*
X84300Y52800D02*
X85500D01*
X84900Y52200D02*
Y53400D01*
X63700Y30600D02*
X64900D01*
X64300Y30000D02*
Y31200D01*
X44100Y30500D02*
X45300D01*
X44700Y29900D02*
Y31100D01*
X4700Y46900D02*
X5900D01*
X5300Y46300D02*
Y47500D01*
X31800Y28100D02*
X33000D01*
X32400Y27500D02*
Y28700D01*
X22100Y27600D02*
X23300D01*
X22700Y27000D02*
Y28200D01*
X13100D02*
X14300D01*
X13700Y27600D02*
Y28800D01*
X34900Y54700D02*
X36100D01*
X35500Y54100D02*
Y55300D01*
X25200Y54200D02*
X26400D01*
X25800Y53600D02*
Y54800D01*
X16200D02*
X17400D01*
X16800Y54200D02*
Y55400D01*
X38500Y61100D02*
X39700D01*
X39100Y60500D02*
Y61700D01*
X28800Y60600D02*
X30000D01*
X29400Y60000D02*
Y61200D01*
X19800D02*
X21000D01*
X20400Y60600D02*
Y61800D01*
X64600Y66000D02*
X65800D01*
X65200Y65400D02*
Y66600D01*
X64100Y71900D02*
X65300D01*
X64700Y71300D02*
Y72500D01*
X21000Y76700D02*
X22200D01*
X21600Y76100D02*
Y77300D01*
X96200Y94200D02*
X97400D01*
X96800Y93600D02*
Y94800D01*
X105800Y104300D02*
X107000D01*
X106400Y103700D02*
Y104900D01*
X88900Y105600D02*
X90100D01*
X89500Y105000D02*
Y106200D01*
X83000Y113200D02*
X84200D01*
X83600Y112600D02*
Y113800D01*
X84400Y83900D02*
X85600D01*
X85000Y83300D02*
Y84500D01*
X74700Y83400D02*
X75900D01*
X75300Y82800D02*
Y84000D01*
X65700D02*
X66900D01*
X66300Y83400D02*
Y84600D01*
X82200Y95600D02*
X83400D01*
X82800Y95000D02*
Y96200D01*
X72500Y95100D02*
X73700D01*
X73100Y94500D02*
Y95700D01*
X63500D02*
X64700D01*
X64100Y95100D02*
Y96300D01*
X53100Y93100D02*
X54300D01*
X53700Y92500D02*
Y93700D01*
X43400Y92600D02*
X44600D01*
X44000Y92000D02*
Y93200D01*
X34400D02*
X35600D01*
X35000Y92600D02*
Y93800D01*
X55100Y84100D02*
X56300D01*
X55700Y83500D02*
Y84700D01*
X45400Y83600D02*
X46600D01*
X46000Y83000D02*
Y84200D01*
X36400D02*
X37600D01*
X37000Y83600D02*
Y84800D01*
X23400Y104000D02*
X24600D01*
X24000Y103400D02*
Y104600D01*
X22900Y113700D02*
X24100D01*
X23500Y113100D02*
Y114300D01*
Y122700D02*
X24700D01*
X24100Y122100D02*
Y123300D01*
X49400Y103100D02*
X50600D01*
X50000Y102500D02*
Y103700D01*
X59100Y103600D02*
X60300D01*
X59700Y103000D02*
Y104200D01*
X68100Y103000D02*
X69300D01*
X68700Y102400D02*
Y103600D01*
X51400Y120600D02*
X52600D01*
X52000Y120000D02*
Y121200D01*
X61100Y121100D02*
X62300D01*
X61700Y120500D02*
Y121700D01*
X70100Y120500D02*
X71300D01*
X70700Y119900D02*
Y121100D01*
X38400Y104400D02*
X39600D01*
X39000Y103800D02*
Y105000D01*
X32400Y111600D02*
X33600D01*
X33000Y111000D02*
Y112200D01*
X39000Y121600D02*
X40200D01*
X39600Y121000D02*
Y122200D01*
X32800Y129300D02*
X34000D01*
X33400Y128700D02*
Y129900D01*
X29100Y137100D02*
X30300D01*
X29700Y136500D02*
Y137700D01*
X38800Y137600D02*
X40000D01*
X39400Y137000D02*
Y138200D01*
X47800Y137000D02*
X49000D01*
X48400Y136400D02*
Y137600D01*
X41300Y145100D02*
X42500D01*
X41900Y144500D02*
Y145700D01*
X51000Y145600D02*
X52200D01*
X51600Y145000D02*
Y146200D01*
X60000Y145000D02*
X61200D01*
X60600Y144400D02*
Y145600D01*
X60100Y137900D02*
X61300D01*
X60700Y137300D02*
Y138500D01*
X69800Y138400D02*
X71000D01*
X70400Y137800D02*
Y139000D01*
X78800Y137800D02*
X80000D01*
X79400Y137200D02*
Y138400D01*
X68600Y148300D02*
X69800D01*
X69200Y147700D02*
Y148900D01*
X78300Y148800D02*
X79500D01*
X78900Y148200D02*
Y149400D01*
X87300Y148200D02*
X88500D01*
X87900Y147600D02*
Y148800D01*
X69200Y160300D02*
X70400D01*
X69800Y159700D02*
Y160900D01*
X78900Y160800D02*
X80100D01*
X79500Y160200D02*
Y161400D01*
X87900Y160200D02*
X89100D01*
X88500Y159600D02*
Y160800D01*
X107900Y115000D02*
X109100D01*
X108500Y114400D02*
Y115600D01*
X101600Y115400D02*
X102800D01*
X102200Y114800D02*
Y116000D01*
X101000Y126000D02*
X102200D01*
X101600Y125400D02*
Y126600D01*
X101400Y206100D02*
X102600D01*
X102000Y205500D02*
Y206700D01*
X101100Y216200D02*
X102300D01*
X101700Y215600D02*
Y216800D01*
X40000Y151500D02*
X41200D01*
X40600Y150900D02*
Y152100D01*
X39800Y169700D02*
X41000D01*
X40400Y169100D02*
Y170300D01*
X40000Y180900D02*
X41200D01*
X40600Y180300D02*
Y181500D01*
X40100Y196100D02*
X41300D01*
X40700Y195500D02*
Y196700D01*
X38000Y209300D02*
X39200D01*
X38600Y208700D02*
Y209900D01*
X39500Y223700D02*
X40700D01*
X40100Y223100D02*
Y224300D01*
X40300Y233300D02*
X41500D01*
X40900Y232700D02*
Y233900D01*
X12900Y148100D02*
X14100D01*
X13500Y147500D02*
Y148700D01*
X22600Y148600D02*
X23800D01*
X23200Y148000D02*
Y149200D01*
X31600Y148000D02*
X32800D01*
X32200Y147400D02*
Y148600D01*
X13400Y156900D02*
X14600D01*
X14000Y156300D02*
Y157500D01*
X23100Y157400D02*
X24300D01*
X23700Y156800D02*
Y158000D01*
X32100Y156800D02*
X33300D01*
X32700Y156200D02*
Y157400D01*
X13600Y166300D02*
X14800D01*
X14200Y165700D02*
Y166900D01*
X23300Y166800D02*
X24500D01*
X23900Y166200D02*
Y167400D01*
X32300Y166200D02*
X33500D01*
X32900Y165600D02*
Y166800D01*
X13500Y174200D02*
X14700D01*
X14100Y173600D02*
Y174800D01*
X23200Y174700D02*
X24400D01*
X23800Y174100D02*
Y175300D01*
X32200Y174100D02*
X33400D01*
X32800Y173500D02*
Y174700D01*
X13000Y183000D02*
X14200D01*
X13600Y182400D02*
Y183600D01*
X22700Y183500D02*
X23900D01*
X23300Y182900D02*
Y184100D01*
X31700Y182900D02*
X32900D01*
X32300Y182300D02*
Y183500D01*
X14200Y190600D02*
X15400D01*
X14800Y190000D02*
Y191200D01*
X23900Y191100D02*
X25100D01*
X24500Y190500D02*
Y191700D01*
X32300Y190900D02*
X33500D01*
X32900Y190300D02*
Y191500D01*
X13200Y206200D02*
X14400D01*
X13800Y205600D02*
Y206800D01*
X22900Y206700D02*
X24100D01*
X23500Y206100D02*
Y207300D01*
X31900Y206100D02*
X33100D01*
X32500Y205500D02*
Y206700D01*
X13300Y216400D02*
X14500D01*
X13900Y215800D02*
Y217000D01*
X23000Y216900D02*
X24200D01*
X23600Y216300D02*
Y217500D01*
X32000Y216300D02*
X33200D01*
X32600Y215700D02*
Y216900D01*
X14100Y199000D02*
X15300D01*
X14700Y198400D02*
Y199600D01*
X23800Y199500D02*
X25000D01*
X24400Y198900D02*
Y200100D01*
X32800Y198900D02*
X34000D01*
X33400Y198300D02*
Y199500D01*
X32200Y227600D02*
X33400D01*
X32800Y227000D02*
Y228200D01*
X23200D02*
X24400D01*
X23800Y227600D02*
Y228800D01*
X13500Y227700D02*
X14700D01*
X14100Y227100D02*
Y228300D01*
X89600Y171000D02*
X90800D01*
X90200Y170400D02*
Y171600D01*
X79000Y172900D02*
X80200D01*
X79600Y172300D02*
Y173500D01*
X67900Y176800D02*
X69100D01*
X68500Y176200D02*
Y177400D01*
X88200Y180300D02*
X89400D01*
X88800Y179700D02*
Y180900D01*
X79600Y185100D02*
X80800D01*
X80200Y184500D02*
Y185700D01*
X88400Y194700D02*
X89600D01*
X89000Y194100D02*
Y195300D01*
X80600Y203000D02*
X81800D01*
X81200Y202400D02*
Y203600D01*
X80300Y230800D02*
X81500D01*
X80900Y230200D02*
Y231400D01*
X81600Y218300D02*
X82800D01*
X82200Y217700D02*
Y218900D01*
X89100Y214300D02*
X90300D01*
X89700Y213700D02*
Y214900D01*
X88800Y225900D02*
X90000D01*
X89400Y225300D02*
Y226500D01*
X88200Y235700D02*
X89400D01*
X88800Y235100D02*
Y236300D01*
X88400Y244200D02*
X89600D01*
X89000Y243600D02*
Y244800D01*
X65800Y187900D02*
X67000D01*
X66400Y187300D02*
Y188500D01*
X70100Y199100D02*
X71300D01*
X70700Y198500D02*
Y199700D01*
X71000Y217900D02*
X72200D01*
X71600Y217300D02*
Y218500D01*
X74300Y224000D02*
X75500D01*
X74900Y223400D02*
Y224600D01*
X74300Y235700D02*
X75500D01*
X74900Y235100D02*
Y236300D01*
X47400Y255600D02*
X48600D01*
X48000Y255000D02*
Y256200D01*
X49500Y263600D02*
X50700D01*
X50100Y263000D02*
Y264200D01*
X39300Y263200D02*
X40500D01*
X39900Y262600D02*
Y263800D01*
X39200Y251100D02*
X40400D01*
X39800Y250500D02*
Y251700D01*
X78200Y264100D02*
X79400D01*
X78800Y263500D02*
Y264700D01*
X78700Y277200D02*
X79900D01*
X79300Y276600D02*
Y277800D01*
X64600Y263000D02*
X65800D01*
X65200Y262400D02*
Y263600D01*
X70600Y269800D02*
X71800D01*
X71200Y269200D02*
Y270400D01*
X64700Y277500D02*
X65900D01*
X65300Y276900D02*
Y278100D01*
X64600Y284300D02*
X65800D01*
X65200Y283700D02*
Y284900D01*
X77400Y287800D02*
X78600D01*
X78000Y287200D02*
Y288400D01*
X75600Y304600D02*
X76800D01*
X76200Y304000D02*
Y305200D01*
X68400Y304700D02*
X69600D01*
X69000Y304100D02*
Y305300D01*
X76100Y314800D02*
X77300D01*
X76700Y314200D02*
Y315400D01*
X67200Y313400D02*
X68400D01*
X67800Y312800D02*
Y314000D01*
X63500Y296000D02*
X64700D01*
X64100Y295400D02*
Y296600D01*
X63200Y300700D02*
X64400D01*
X63800Y300100D02*
Y301300D01*
X56100Y292800D02*
X57300D01*
X56700Y292200D02*
Y293400D01*
X57300Y301800D02*
X58500D01*
X57900Y301200D02*
Y302400D01*
X107300Y277900D02*
X108500D01*
X107900Y277300D02*
Y278500D01*
X107200Y287700D02*
X108400D01*
X107800Y287100D02*
Y288300D01*
X93900Y278600D02*
X95100D01*
X94500Y278000D02*
Y279200D01*
X93600Y285800D02*
X94800D01*
X94200Y285200D02*
Y286400D01*
X100600Y300200D02*
X101800D01*
X101200Y299600D02*
Y300800D01*
X91600Y300100D02*
X92800D01*
X92200Y299500D02*
Y300700D01*
X125700Y280700D02*
X126900D01*
X126300Y280100D02*
Y281300D01*
X125800Y288800D02*
X127000D01*
X126400Y288200D02*
Y289400D01*
X116000Y283100D02*
X117200D01*
X116600Y282500D02*
Y283700D01*
X115300Y295700D02*
X116500D01*
X115900Y295100D02*
Y296300D01*
X164000Y285800D02*
X165200D01*
X164600Y285200D02*
Y286400D01*
X165100Y291900D02*
X166300D01*
X165700Y291300D02*
Y292500D01*
X154100Y286400D02*
X155300D01*
X154700Y285800D02*
Y287000D01*
X152100Y296800D02*
X153300D01*
X152700Y296200D02*
Y297400D01*
X213200Y303100D02*
X214400D01*
X213800Y302500D02*
Y303700D01*
X189500Y302500D02*
X190700D01*
X190100Y301900D02*
Y303100D01*
X200100Y304700D02*
X201300D01*
X200700Y304100D02*
Y305300D01*
X200500Y312000D02*
X201700D01*
X201100Y311400D02*
Y312600D01*
X177500Y297700D02*
X178700D01*
X178100Y297100D02*
Y298300D01*
X178800Y310600D02*
X180000D01*
X179400Y310000D02*
Y311200D01*
X224200Y317600D02*
X225400D01*
X224800Y317000D02*
Y318200D01*
X228000Y324100D02*
X229200D01*
X228600Y323500D02*
Y324700D01*
X208900Y320000D02*
X210100D01*
X209500Y319400D02*
Y320600D01*
X208800Y328800D02*
X210000D01*
X209400Y328200D02*
Y329400D01*
X198200Y319800D02*
X199400D01*
X198800Y319200D02*
Y320400D01*
X184800Y319400D02*
X186000D01*
X185400Y318800D02*
Y320000D01*
X171600Y319400D02*
X172800D01*
X172200Y318800D02*
Y320000D01*
X151100Y319300D02*
X152300D01*
X151700Y318700D02*
Y319900D01*
X135100Y319100D02*
X136300D01*
X135700Y318500D02*
Y319700D01*
X122300Y319400D02*
X123500D01*
X122900Y318800D02*
Y320000D01*
X134300Y328700D02*
X135500D01*
X134900Y328100D02*
Y329300D01*
X120200Y328200D02*
X121400D01*
X120800Y327600D02*
Y328800D01*
X103700Y364500D02*
X104900D01*
X104300Y363900D02*
Y365100D01*
X115300Y364000D02*
X116500D01*
X115900Y363400D02*
Y364600D01*
X95500Y363700D02*
X96700D01*
X96100Y363100D02*
Y364300D01*
X89800Y367000D02*
X91000D01*
X90400Y366400D02*
Y367600D01*
X132900Y348900D02*
X134100D01*
X133500Y348300D02*
Y349500D01*
X133800Y339100D02*
X135000D01*
X134400Y338500D02*
Y339700D01*
X102000Y328900D02*
X103200D01*
X102600Y328300D02*
Y329500D01*
X93400Y329700D02*
X94600D01*
X94000Y329100D02*
Y330300D01*
X101600Y316900D02*
X102800D01*
X102200Y316300D02*
Y317500D01*
X94500Y316800D02*
X95700D01*
X95100Y316200D02*
Y317400D01*
X400500Y196400D02*
X401700D01*
X401100Y195800D02*
Y197000D01*
X410800Y187700D02*
X412000D01*
X411400Y187100D02*
Y188300D01*
X421700Y180300D02*
X422900D01*
X422300Y179700D02*
Y180900D01*
X432700Y180100D02*
X433900D01*
X433300Y179500D02*
Y180700D01*
X438200Y186500D02*
X439400D01*
X438800Y185900D02*
Y187100D01*
X439600Y198200D02*
X440800D01*
X440200Y197600D02*
Y198800D01*
X439700Y207400D02*
X440900D01*
X440300Y206800D02*
Y208000D01*
X436600Y218600D02*
X437800D01*
X437200Y218000D02*
Y219200D01*
X425100Y221500D02*
X426300D01*
X425700Y220900D02*
Y222100D01*
X420000Y236300D02*
X421200D01*
X420600Y235700D02*
Y236900D01*
X405800Y214000D02*
X407000D01*
X406400Y213400D02*
Y214600D01*
X406500Y223800D02*
X407700D01*
X407100Y223200D02*
Y224400D01*
X406000Y231300D02*
X407200D01*
X406600Y230700D02*
Y231900D01*
Y239400D02*
X407800D01*
X407200Y238800D02*
Y240000D01*
X414500Y212500D02*
X415700D01*
X415100Y211900D02*
Y213100D01*
X414100Y201400D02*
X415300D01*
X414700Y200800D02*
Y202000D01*
X393400Y201800D02*
X394600D01*
X394000Y201200D02*
Y202400D01*
X378200Y201800D02*
X379400D01*
X378800Y201200D02*
Y202400D01*
X367200Y201500D02*
X368400D01*
X367800Y200900D02*
Y202100D01*
X355700Y201500D02*
X356900D01*
X356300Y200900D02*
Y202100D01*
X345600Y201200D02*
X346800D01*
X346200Y200600D02*
Y201800D01*
X356200Y209800D02*
X357400D01*
X356800Y209200D02*
Y210400D01*
X346100Y208800D02*
X347300D01*
X346700Y208200D02*
Y209400D01*
X355600Y216600D02*
X356800D01*
X356200Y216000D02*
Y217200D01*
X346100Y216700D02*
X347300D01*
X346700Y216100D02*
Y217300D01*
X355300Y226300D02*
X356500D01*
X355900Y225700D02*
Y226900D01*
X346100Y225900D02*
X347300D01*
X346700Y225300D02*
Y226500D01*
X355100Y232600D02*
X356300D01*
X355700Y232000D02*
Y233200D01*
X346300Y232100D02*
X347500D01*
X346900Y231500D02*
Y232700D01*
X355600Y240600D02*
X356800D01*
X356200Y240000D02*
Y241200D01*
X348000Y240400D02*
X349200D01*
X348600Y239800D02*
Y241000D01*
X355100Y249500D02*
X356300D01*
X355700Y248900D02*
Y250100D01*
X347500Y248900D02*
X348700D01*
X348100Y248300D02*
Y249500D01*
X336100Y234600D02*
X337300D01*
X336700Y234000D02*
Y235200D01*
X323600Y234900D02*
X324800D01*
X324200Y234300D02*
Y235500D01*
X330900Y248900D02*
X332100D01*
X331500Y248300D02*
Y249500D01*
X499500Y166300D02*
X500700D01*
X500100Y165700D02*
Y166900D01*
X503000Y196300D02*
X504200D01*
X503600Y195700D02*
Y196900D01*
X510100Y192400D02*
X511300D01*
X510700Y191800D02*
Y193000D01*
X509400Y153300D02*
X510600D01*
X510000Y152700D02*
Y153900D01*
X507600Y175500D02*
X508800D01*
X508200Y174900D02*
Y176100D01*
X509000Y206800D02*
X510200D01*
X509600Y206200D02*
Y207400D01*
X509700Y230000D02*
X510900D01*
X510300Y229400D02*
Y230600D01*
X483100Y35600D02*
X484300D01*
X483700Y35000D02*
Y36200D01*
X484700Y50600D02*
X485900D01*
X485300Y50000D02*
Y51200D01*
X500100Y11300D02*
X501300D01*
X500700Y10700D02*
Y11900D01*
X512800Y22100D02*
X514000D01*
X513400Y21500D02*
Y22700D01*
X483500Y14700D02*
X484700D01*
X484100Y14100D02*
Y15300D01*
X463400Y10300D02*
X464600D01*
X464000Y9700D02*
Y10900D01*
X450300Y9600D02*
X451500D01*
X450900Y9000D02*
Y10200D01*
X436700Y9100D02*
X437900D01*
X437300Y8500D02*
Y9700D01*
X483300Y23400D02*
X484500D01*
X483900Y22800D02*
Y24000D01*
X471200Y39900D02*
X472400D01*
X471800Y39300D02*
Y40500D01*
X461700Y46000D02*
X462900D01*
X462300Y45400D02*
Y46600D01*
X490900Y60100D02*
X492100D01*
X491500Y59500D02*
Y60700D01*
X463300Y59000D02*
X464500D01*
X463900Y58400D02*
Y59600D01*
X475500Y64600D02*
X476700D01*
X476100Y64000D02*
Y65200D01*
X491100Y85200D02*
X492300D01*
X491700Y84600D02*
Y85800D01*
X498000Y73800D02*
X499200D01*
X498600Y73200D02*
Y74400D01*
X491700Y91600D02*
X492900D01*
X492300Y91000D02*
Y92200D01*
X483200Y72300D02*
X484400D01*
X483800Y71700D02*
Y72900D01*
X478300Y84200D02*
X479500D01*
X478900Y83600D02*
Y84800D01*
X461000Y90100D02*
X462200D01*
X461600Y89500D02*
Y90700D01*
X463700Y100000D02*
X464900D01*
X464300Y99400D02*
Y100600D01*
X477400Y100500D02*
X478600D01*
X478000Y99900D02*
Y101100D01*
X499400Y100600D02*
X500600D01*
X500000Y100000D02*
Y101200D01*
X512300Y106500D02*
X513500D01*
X512900Y105900D02*
Y107100D01*
X513500Y117800D02*
X514700D01*
X514100Y117200D02*
Y118400D01*
X508300Y130100D02*
X509500D01*
X508900Y129500D02*
Y130700D01*
X466900Y148000D02*
X468100D01*
X467500Y147400D02*
Y148600D01*
Y158100D02*
X468700D01*
X468100Y157500D02*
Y158700D01*
X467500Y166800D02*
X468700D01*
X468100Y166200D02*
Y167400D01*
X471500Y174000D02*
X472700D01*
X472100Y173400D02*
Y174600D01*
X482600Y178200D02*
X483800D01*
X483200Y177600D02*
Y178800D01*
X486900Y202800D02*
X488100D01*
X487500Y202200D02*
Y203400D01*
X487600Y179900D02*
X488800D01*
X488200Y179300D02*
Y180500D01*
X487300Y194100D02*
X488500D01*
X487900Y193500D02*
Y194700D01*
X494500Y208600D02*
X495700D01*
X495100Y208000D02*
Y209200D01*
X488000Y208200D02*
X489200D01*
X488600Y207600D02*
Y208800D01*
X487700Y220800D02*
X488900D01*
X488300Y220200D02*
Y221400D01*
X487400Y224600D02*
X488600D01*
X488000Y224000D02*
Y225200D01*
X487300Y234200D02*
X488500D01*
X487900Y233600D02*
Y234800D01*
X468900Y235000D02*
X470100D01*
X469500Y234400D02*
Y235600D01*
X468900Y239800D02*
X470100D01*
X469500Y239200D02*
Y240400D01*
X464700Y234500D02*
X465900D01*
X465300Y233900D02*
Y235100D01*
X462500Y240700D02*
X463700D01*
X463100Y240100D02*
Y241300D01*
X469500Y250100D02*
X470700D01*
X470100Y249500D02*
Y250700D01*
X469900Y255400D02*
X471100D01*
X470500Y254800D02*
Y256000D01*
X512900Y253300D02*
X514100D01*
X513500Y252700D02*
Y253900D01*
X507500Y258300D02*
X508700D01*
X508100Y257700D02*
Y258900D01*
X500900Y248800D02*
X502100D01*
X501500Y248200D02*
Y249400D01*
X501300Y258000D02*
X502500D01*
X501900Y257400D02*
Y258600D01*
X494900Y249700D02*
X496100D01*
X495500Y249100D02*
Y250300D01*
X494900Y257800D02*
X496100D01*
X495500Y257200D02*
Y258400D01*
X503700Y269600D02*
X504900D01*
X504300Y269000D02*
Y270200D01*
X497000Y268600D02*
X498200D01*
X497600Y268000D02*
Y269200D01*
X496300Y274500D02*
X497500D01*
X496900Y273900D02*
Y275100D01*
X503300Y274100D02*
X504500D01*
X503900Y273500D02*
Y274700D01*
X486900Y277500D02*
X488100D01*
X487500Y276900D02*
Y278100D01*
X494000Y302100D02*
X495200D01*
X494600Y301500D02*
Y302700D01*
X493000Y291500D02*
X494200D01*
X493600Y290900D02*
Y292100D01*
X503100Y304300D02*
X504300D01*
X503700Y303700D02*
Y304900D01*
X489300Y304100D02*
X490500D01*
X489900Y303500D02*
Y304700D01*
X489700Y315000D02*
X490900D01*
X490300Y314400D02*
Y315600D01*
X502600Y316300D02*
X503800D01*
X503200Y315700D02*
Y316900D01*
X503500Y323200D02*
X504700D01*
X504100Y322600D02*
Y323800D01*
X485600Y323400D02*
X486800D01*
X486200Y322800D02*
Y324000D01*
X491800Y345800D02*
X493000D01*
X492400Y345200D02*
Y346400D01*
X506200Y359800D02*
X507400D01*
X506800Y359200D02*
Y360400D01*
X516500Y344800D02*
X517700D01*
X517100Y344200D02*
Y345400D01*
X505600Y344000D02*
X506800D01*
X506200Y343400D02*
Y344600D01*
X516100Y359000D02*
X517300D01*
X516700Y358400D02*
Y359600D01*
X498400Y363400D02*
X499600D01*
X499000Y362800D02*
Y364000D01*
X511300Y372500D02*
X512500D01*
X511900Y371900D02*
Y373100D01*
X502000Y383700D02*
X503200D01*
X502600Y383100D02*
Y384300D01*
X487600Y377900D02*
X488800D01*
X488200Y377300D02*
Y378500D01*
X479100Y377900D02*
X480300D01*
X479700Y377300D02*
Y378500D01*
X464700Y378600D02*
X465900D01*
X465300Y378000D02*
Y379200D01*
X464900Y363800D02*
X466100D01*
X465500Y363200D02*
Y364400D01*
X465900Y356700D02*
X467100D01*
X466500Y356100D02*
Y357300D01*
X466100Y339500D02*
X467300D01*
X466700Y338900D02*
Y340100D01*
X465600Y327900D02*
X466800D01*
X466200Y327300D02*
Y328500D01*
X473500Y309400D02*
X474700D01*
X474100Y308800D02*
Y310000D01*
X474200Y279000D02*
X475400D01*
X474800Y278400D02*
Y279600D01*
X473800Y292100D02*
X475000D01*
X474400Y291500D02*
Y292700D01*
X473300Y301200D02*
X474500D01*
X473900Y300600D02*
Y301800D01*
X439000Y283000D02*
X440200D01*
X439600Y282400D02*
Y283600D01*
X430500Y279600D02*
X431700D01*
X431100Y279000D02*
Y280200D01*
X439400Y289600D02*
X440600D01*
X440000Y289000D02*
Y290200D01*
X441000Y271400D02*
X442200D01*
X441600Y270800D02*
Y272000D01*
X429900Y269600D02*
X431100D01*
X430500Y269000D02*
Y270200D01*
X419500Y274000D02*
X420700D01*
X420100Y273400D02*
Y274600D01*
X429000Y291900D02*
X430200D01*
X429600Y291300D02*
Y292500D01*
X438100Y300000D02*
X439300D01*
X438700Y299400D02*
Y300600D01*
X413000Y281200D02*
X414200D01*
X413600Y280600D02*
Y281800D01*
X398900Y280400D02*
X400100D01*
X399500Y279800D02*
Y281000D01*
X415100Y324700D02*
X416300D01*
X415700Y324100D02*
Y325300D01*
X399500Y321900D02*
X400700D01*
X400100Y321300D02*
Y322500D01*
X422100Y319100D02*
X423300D01*
X422700Y318500D02*
Y319700D01*
X410700Y304700D02*
X411900D01*
X411300Y304100D02*
Y305300D01*
X399500Y310600D02*
X400700D01*
X400100Y310000D02*
Y311200D01*
X359600Y312500D02*
X360800D01*
X360200Y311900D02*
Y313100D01*
X349200Y303500D02*
X350400D01*
X349800Y302900D02*
Y304100D01*
X330600Y298600D02*
X331800D01*
X331200Y298000D02*
Y299200D01*
X342100Y298800D02*
X343300D01*
X342700Y298200D02*
Y299400D01*
X368800Y305400D02*
X370000D01*
X369400Y304800D02*
Y306000D01*
X375300Y298600D02*
X376500D01*
X375900Y298000D02*
Y299200D01*
X372100Y316500D02*
X373300D01*
X372700Y315900D02*
Y317100D01*
X386800Y304200D02*
X388000D01*
X387400Y303600D02*
Y304800D01*
X387700Y317500D02*
X388900D01*
X388300Y316900D02*
Y318100D01*
X409500Y317800D02*
X410700D01*
X410100Y317200D02*
Y318400D01*
X401200Y297800D02*
X402400D01*
X401800Y297200D02*
Y298400D01*
X422800Y310300D02*
X424000D01*
X423400Y309700D02*
Y310900D01*
X432400Y327300D02*
X433600D01*
X433000Y326700D02*
Y327900D01*
X417300Y341300D02*
X418500D01*
X417900Y340700D02*
Y341900D01*
X401300Y341200D02*
X402500D01*
X401900Y340600D02*
Y341800D01*
X383700Y341100D02*
X384900D01*
X384300Y340500D02*
Y341700D01*
X366600Y341100D02*
X367800D01*
X367200Y340500D02*
Y341700D01*
X437900Y361800D02*
X439100D01*
X438500Y361200D02*
Y362400D01*
X419400Y362100D02*
X420600D01*
X420000Y361500D02*
Y362700D01*
X401600Y361700D02*
X402800D01*
X402200Y361100D02*
Y362300D01*
X384200Y361500D02*
X385400D01*
X384800Y360900D02*
Y362100D01*
X366900Y361500D02*
X368100D01*
X367500Y360900D02*
Y362100D01*
X354600Y377700D02*
X355800D01*
X355200Y377100D02*
Y378300D01*
X363000Y378000D02*
X364200D01*
X363600Y377400D02*
Y378600D01*
X370400Y378100D02*
X371600D01*
X371000Y377500D02*
Y378700D01*
X380300Y378000D02*
X381500D01*
X380900Y377400D02*
Y378600D01*
X387900Y377900D02*
X389100D01*
X388500Y377300D02*
Y378500D01*
X397700Y377900D02*
X398900D01*
X398300Y377300D02*
Y378500D01*
X405300Y378100D02*
X406500D01*
X405900Y377500D02*
Y378700D01*
X415500Y378200D02*
X416700D01*
X416100Y377600D02*
Y378800D01*
X422900Y377800D02*
X424100D01*
X423500Y377200D02*
Y378400D01*
X432900Y378000D02*
X434100D01*
X433500Y377400D02*
Y378600D01*
X437500Y382000D02*
X438700D01*
X438100Y381400D02*
Y382600D01*
X419600Y381800D02*
X420800D01*
X420200Y381200D02*
Y382400D01*
X401400Y381800D02*
X402600D01*
X402000Y381200D02*
Y382400D01*
X383800Y382000D02*
X385000D01*
X384400Y381400D02*
Y382600D01*
X366300Y381600D02*
X367500D01*
X366900Y381000D02*
Y382200D01*
X302500Y265600D02*
X303700D01*
X303100Y265000D02*
Y266200D01*
X291700Y265600D02*
X292900D01*
X292300Y265000D02*
Y266200D01*
Y276700D02*
X293500D01*
X292900Y276100D02*
Y277300D01*
X292400Y291800D02*
X293600D01*
X293000Y291200D02*
Y292400D01*
X303200Y306300D02*
X304400D01*
X303800Y305700D02*
Y306900D01*
X292800Y305800D02*
X294000D01*
X293400Y305200D02*
Y306400D01*
X299500Y322000D02*
X300700D01*
X300100Y321400D02*
Y322600D01*
X288100Y315200D02*
X289300D01*
X288700Y314600D02*
Y315800D01*
X281200Y322200D02*
X282400D01*
X281800Y321600D02*
Y322800D01*
X289900Y331800D02*
X291100D01*
X290500Y331200D02*
Y332400D01*
X281400Y335200D02*
X282600D01*
X282000Y334600D02*
Y335800D01*
X294400Y342300D02*
X295600D01*
X295000Y341700D02*
Y342900D01*
X274700Y326900D02*
X275900D01*
X275300Y326300D02*
Y327500D01*
X286400Y343300D02*
X287600D01*
X287000Y342700D02*
Y343900D01*
X269300Y334600D02*
X270500D01*
X269900Y334000D02*
Y335200D01*
X276700Y342600D02*
X277900D01*
X277300Y342000D02*
Y343200D01*
X302200Y328100D02*
X303400D01*
X302800Y327500D02*
Y328700D01*
X302600Y343700D02*
X303800D01*
X303200Y343100D02*
Y344300D01*
X312300Y340300D02*
X313500D01*
X312900Y339700D02*
Y340900D01*
X312300Y346300D02*
X313500D01*
X312900Y345700D02*
Y346900D01*
X323800Y341400D02*
X325000D01*
X324400Y340800D02*
Y342000D01*
X324300Y349400D02*
X325500D01*
X324900Y348800D02*
Y350000D01*
X336100Y341400D02*
X337300D01*
X336700Y340800D02*
Y342000D01*
X336500Y349500D02*
X337700D01*
X337100Y348900D02*
Y350100D01*
X341400Y372600D02*
X342600D01*
X342000Y372000D02*
Y373200D01*
X332800Y372300D02*
X334000D01*
X333400Y371700D02*
Y372900D01*
X324900Y372400D02*
X326100D01*
X325500Y371800D02*
Y373000D01*
X314900Y372700D02*
X316100D01*
X315500Y372100D02*
Y373300D01*
X307000Y372700D02*
X308200D01*
X307600Y372100D02*
Y373300D01*
X296700Y372700D02*
X297900D01*
X297300Y372100D02*
Y373300D01*
X288600Y372700D02*
X289800D01*
X289200Y372100D02*
Y373300D01*
X279000Y372700D02*
X280200D01*
X279600Y372100D02*
Y373300D01*
X270800Y372700D02*
X272000D01*
X271400Y372100D02*
Y373300D01*
X260900Y373000D02*
X262100D01*
X261500Y372400D02*
Y373600D01*
X253100Y373000D02*
X254300D01*
X253700Y372400D02*
Y373600D01*
X16000Y255500D02*
X17200D01*
X16600Y254900D02*
Y256100D01*
X7600Y251600D02*
X8800D01*
X8200Y251000D02*
Y252200D01*
X23900Y269200D02*
X25100D01*
X24500Y268600D02*
Y269800D01*
X12100Y269200D02*
X13300D01*
X12700Y268600D02*
Y269800D01*
X4500Y269200D02*
X5700D01*
X5100Y268600D02*
Y269800D01*
X5400Y285500D02*
X6600D01*
X6000Y284900D02*
Y286100D01*
X5600Y291800D02*
X6800D01*
X6200Y291200D02*
Y292400D01*
X24100Y283400D02*
X25300D01*
X24700Y282800D02*
Y284000D01*
X20500Y282000D02*
X21700D01*
X21100Y281400D02*
Y282600D01*
X42600Y281700D02*
X43800D01*
X43200Y281100D02*
Y282300D01*
X42400Y289700D02*
X43600D01*
X43000Y289100D02*
Y290300D01*
Y296900D02*
X44200D01*
X43600Y296300D02*
Y297500D01*
X24100Y291200D02*
X25300D01*
X24700Y290600D02*
Y291800D01*
X20000Y291000D02*
X21200D01*
X20600Y290400D02*
Y291600D01*
X24500Y297500D02*
X25700D01*
X25100Y296900D02*
Y298100D01*
X20400Y297500D02*
X21600D01*
X21000Y296900D02*
Y298100D01*
X38300Y300700D02*
X39500D01*
X38900Y300100D02*
Y301300D01*
X42700Y308800D02*
X43900D01*
X43300Y308200D02*
Y309400D01*
X23800Y313000D02*
X25000D01*
X24400Y312400D02*
Y313600D01*
X14800Y313000D02*
X16000D01*
X15400Y312400D02*
Y313600D01*
X5900Y313100D02*
X7100D01*
X6500Y312500D02*
Y313700D01*
X22900Y329300D02*
X24100D01*
X23500Y328700D02*
Y329900D01*
X11100Y326000D02*
X12300D01*
X11700Y325400D02*
Y326600D01*
X4100Y326200D02*
X5300D01*
X4700Y325600D02*
Y326800D01*
X38000Y315800D02*
X39200D01*
X38600Y315200D02*
Y316400D01*
X38900Y329100D02*
X40100D01*
X39500Y328500D02*
Y329700D01*
X55800Y328100D02*
X57000D01*
X56400Y327500D02*
Y328700D01*
X65900Y328100D02*
X67100D01*
X66500Y327500D02*
Y328700D01*
X77000Y328300D02*
X78200D01*
X77600Y327700D02*
Y328900D01*
X75800Y337100D02*
X77000D01*
X76400Y336500D02*
Y337700D01*
X75600Y343800D02*
X76800D01*
X76200Y343200D02*
Y344400D01*
Y351800D02*
X77400D01*
X76800Y351200D02*
Y352400D01*
X81100Y357900D02*
X82300D01*
X81700Y357300D02*
Y358500D01*
X71900Y358000D02*
X73100D01*
X72500Y357400D02*
Y358600D01*
X75900Y362900D02*
X77100D01*
X76500Y362300D02*
Y363500D01*
X63100Y361700D02*
X64300D01*
X63700Y361100D02*
Y362300D01*
X63100Y366500D02*
X64300D01*
X63700Y365900D02*
Y367100D01*
X52800Y361400D02*
X54000D01*
X53400Y360800D02*
Y362000D01*
X52600Y366400D02*
X53800D01*
X53200Y365800D02*
Y367000D01*
X62000Y353700D02*
X63200D01*
X62600Y353100D02*
Y354300D01*
X54000Y353700D02*
X55200D01*
X54600Y353100D02*
Y354300D01*
X21200Y350300D02*
X22400D01*
X21800Y349700D02*
Y350900D01*
X21600Y358600D02*
X22800D01*
X22200Y358000D02*
Y359200D01*
X20900Y338500D02*
X22100D01*
X21500Y337900D02*
Y339100D01*
X7500Y342700D02*
X8700D01*
X8100Y342100D02*
Y343300D01*
X9500Y347000D02*
X10700D01*
X10100Y346400D02*
Y347600D01*
X10300Y369400D02*
X11500D01*
X10900Y368800D02*
Y370000D01*
X24300Y382800D02*
X25500D01*
X24900Y382200D02*
Y383400D01*
X146700Y331700D02*
X147900D01*
X147300Y331100D02*
Y332300D01*
X152800Y331600D02*
X154000D01*
X153400Y331000D02*
Y332200D01*
X159000Y331800D02*
X160200D01*
X159600Y331200D02*
Y332400D01*
X165600Y331900D02*
X166800D01*
X166200Y331300D02*
Y332500D01*
X173700Y332000D02*
X174900D01*
X174300Y331400D02*
Y332600D01*
X182800Y331800D02*
X184000D01*
X183400Y331200D02*
Y332400D01*
X193300Y331600D02*
X194500D01*
X193900Y331000D02*
Y332200D01*
X146800Y338800D02*
X148000D01*
X147400Y338200D02*
Y339400D01*
X152900Y338700D02*
X154100D01*
X153500Y338100D02*
Y339300D01*
X159100Y338900D02*
X160300D01*
X159700Y338300D02*
Y339500D01*
X165700Y339000D02*
X166900D01*
X166300Y338400D02*
Y339600D01*
X173800Y339100D02*
X175000D01*
X174400Y338500D02*
Y339700D01*
X182900Y338900D02*
X184100D01*
X183500Y338300D02*
Y339500D01*
X193400Y338700D02*
X194600D01*
X194000Y338100D02*
Y339300D01*
X146500Y344200D02*
X147700D01*
X147100Y343600D02*
Y344800D01*
X152600Y344100D02*
X153800D01*
X153200Y343500D02*
Y344700D01*
X158800Y344300D02*
X160000D01*
X159400Y343700D02*
Y344900D01*
X165400Y344400D02*
X166600D01*
X166000Y343800D02*
Y345000D01*
X173500Y344500D02*
X174700D01*
X174100Y343900D02*
Y345100D01*
X182600Y344300D02*
X183800D01*
X183200Y343700D02*
Y344900D01*
X193100Y344100D02*
X194300D01*
X193700Y343500D02*
Y344700D01*
X196800Y348200D02*
X198000D01*
X197400Y347600D02*
Y348800D01*
X186300Y348400D02*
X187500D01*
X186900Y347800D02*
Y349000D01*
X177200Y348600D02*
X178400D01*
X177800Y348000D02*
Y349200D01*
X169100Y348500D02*
X170300D01*
X169700Y347900D02*
Y349100D01*
X162500Y348400D02*
X163700D01*
X163100Y347800D02*
Y349000D01*
X156300Y348200D02*
X157500D01*
X156900Y347600D02*
Y348800D01*
X150200Y348300D02*
X151400D01*
X150800Y347700D02*
Y348900D01*
X186000Y84800D02*
X187200D01*
X186600Y84200D02*
Y85400D01*
X185700Y81200D02*
X186900D01*
X186300Y80600D02*
Y81800D01*
X185200Y198400D02*
X186400D01*
X185800Y197800D02*
Y199000D01*
X189400Y198400D02*
X190600D01*
X190000Y197800D02*
Y199000D01*
X120800Y311800D02*
X122000D01*
X121400Y311200D02*
Y312400D01*
X52900Y322500D02*
X54100D01*
X53500Y321900D02*
Y323100D01*
X48000Y271000D02*
X49200D01*
X48600Y270400D02*
Y271600D01*
X236500Y335600D02*
X237700D01*
X237100Y335000D02*
Y336200D01*
X240300Y341700D02*
X241500D01*
X240900Y341100D02*
Y342300D01*
X307000Y274700D02*
X308200D01*
X307600Y274100D02*
Y275300D01*
X309200Y213700D02*
X310400D01*
X309800Y213100D02*
Y214300D01*
X312000Y210550D02*
X313200D01*
X312600Y209950D02*
Y211150D01*
X416000Y331600D02*
X417200D01*
X416600Y331000D02*
Y332200D01*
X314500Y207600D02*
X315700D01*
X315100Y207000D02*
Y208200D01*
X410100Y331600D02*
X411300D01*
X410700Y331000D02*
Y332200D01*
X393000Y331600D02*
X394200D01*
X393600Y331000D02*
Y332200D01*
X375800Y331600D02*
X377000D01*
X376400Y331000D02*
Y332200D01*
X217500Y329800D02*
X218700D01*
X218100Y329200D02*
Y330400D01*
X111000Y312300D02*
X112200D01*
X111600Y311700D02*
Y312900D01*
X92900Y340200D02*
X94100D01*
X93500Y339600D02*
Y340800D01*
X185900Y77500D02*
X187100D01*
X186500Y76900D02*
Y78100D01*
X125400Y246000D02*
X126600D01*
X126000Y245400D02*
Y246600D01*
X45910Y181010D02*
X47110D01*
X46510Y180410D02*
Y181610D01*
X45900Y237000D02*
X47100D01*
X46500Y236400D02*
Y237600D01*
X308900Y175000D02*
X310100D01*
X309500Y174400D02*
Y175600D01*
X308900Y178500D02*
X310100D01*
X309500Y177900D02*
Y179100D01*
X376900Y287500D02*
X378100D01*
X377500Y286900D02*
Y288100D01*
X380900Y287500D02*
X382100D01*
X381500Y286900D02*
Y288100D01*
X385900Y287000D02*
X387100D01*
X386500Y286400D02*
Y287600D01*
X390400Y287500D02*
X391600D01*
X391000Y286900D02*
Y288100D01*
X390400Y291000D02*
X391600D01*
X391000Y290400D02*
Y291600D01*
X385900Y291500D02*
X387100D01*
X386500Y290900D02*
Y292100D01*
X381078Y291509D02*
X382278D01*
X381678Y290909D02*
Y292109D01*
X376900Y292000D02*
X378100D01*
X377500Y291400D02*
Y292600D01*
X45910Y153010D02*
X47110D01*
X46510Y152410D02*
Y153610D01*
X45910Y209010D02*
X47110D01*
X46510Y208410D02*
Y209610D01*
X357900Y332000D02*
X359100D01*
X358500Y331400D02*
Y332600D01*
X337900Y241135D02*
X339100D01*
X338500Y240535D02*
Y241735D01*
X323400Y241235D02*
X324600D01*
X324000Y240635D02*
Y241835D01*
X326765Y214865D02*
X327965D01*
X327365Y214265D02*
Y215465D01*
X379900Y275491D02*
X381100D01*
X380500Y274891D02*
Y276091D01*
X411890Y243230D02*
X413090D01*
X412490Y242630D02*
Y243830D01*
X327535Y147000D02*
X328735D01*
X328135Y146400D02*
Y147600D01*
X330900Y161000D02*
X332100D01*
X331500Y160400D02*
Y161600D01*
X346390Y161230D02*
X347590D01*
X346990Y160630D02*
Y161830D01*
X381400Y190491D02*
X382600D01*
X382000Y189891D02*
Y191091D01*
X496790Y187000D02*
X497990D01*
X497390Y186400D02*
Y187600D01*
X496400Y214500D02*
X497600D01*
X497000Y213900D02*
Y215100D01*
X495400Y229500D02*
X496600D01*
X496000Y228900D02*
Y230100D01*
X478900Y272500D02*
X480100D01*
X479500Y271900D02*
Y273100D01*
X473900Y319500D02*
X475100D01*
X474500Y318900D02*
Y320100D01*
X473900Y348000D02*
X475100D01*
X474500Y347400D02*
Y348600D01*
X492400Y384000D02*
X493600D01*
X493000Y383400D02*
Y384600D01*
M02*
