G04*
G04 #@! TF.GenerationSoftware,Altium Limited,Altium Designer,20.0.13 (296)*
G04*
G04 Layer_Color=8388736*
%FSLAX25Y25*%
%MOIN*%
G70*
G01*
G75*
%ADD60R,0.10642X0.12611*%
%ADD61R,0.04737X0.06310*%
%ADD62R,0.07690X0.08674*%
%ADD63R,0.05800X0.05800*%
%ADD64R,0.05800X0.05800*%
%ADD65R,0.07099X0.05918*%
%ADD66R,0.07099X0.03359*%
%ADD67R,0.10642X0.14186*%
%ADD68R,0.05918X0.07099*%
%ADD69R,0.08674X0.07690*%
%ADD70C,0.04737*%
%ADD71R,0.05524X0.06706*%
%ADD72R,0.05131X0.03162*%
%ADD73O,0.08478X0.03038*%
%ADD74R,0.08674X0.06706*%
%ADD75O,0.08814X0.03060*%
%ADD76O,0.08233X0.03060*%
%ADD77R,0.04934X0.03359*%
%ADD78R,0.03359X0.07099*%
%ADD79R,0.14186X0.10642*%
%ADD80R,0.40650X0.40249*%
%ADD81R,0.06749X0.13792*%
%ADD82R,0.12611X0.10642*%
%ADD83C,0.07099*%
%ADD84C,0.07493*%
%ADD85R,0.07493X0.07493*%
%ADD86C,0.06706*%
%ADD87O,0.08674X0.12611*%
G04:AMPARAMS|DCode=88|XSize=244.22mil|YSize=165.48mil|CornerRadius=43.37mil|HoleSize=0mil|Usage=FLASHONLY|Rotation=90.000|XOffset=0mil|YOffset=0mil|HoleType=Round|Shape=RoundedRectangle|*
%AMROUNDEDRECTD88*
21,1,0.24422,0.07874,0,0,90.0*
21,1,0.15748,0.16548,0,0,90.0*
1,1,0.08674,0.03937,0.07874*
1,1,0.08674,0.03937,-0.07874*
1,1,0.08674,-0.03937,-0.07874*
1,1,0.08674,-0.03937,0.07874*
%
%ADD88ROUNDEDRECTD88*%
%ADD89C,0.07487*%
%ADD90R,0.07487X0.07487*%
%ADD91R,0.07000X0.07887*%
%ADD92C,0.07887*%
%ADD93R,0.07099X0.07099*%
%ADD94C,0.07099*%
%ADD95O,0.12611X0.08674*%
%ADD96R,0.07099X0.07099*%
%ADD97R,0.07099X0.07099*%
%ADD98O,0.08674X0.18517*%
%ADD99O,0.18517X0.08674*%
%ADD100R,0.00800X0.00800*%
%ADD101R,0.14331X0.09213*%
%ADD102C,0.03200*%
D60*
X274676Y26300D02*
D03*
X296724D02*
D03*
D61*
X222335Y9400D02*
D03*
X214065D02*
D03*
X39765Y128700D02*
D03*
X48035D02*
D03*
X39865Y112300D02*
D03*
X48135D02*
D03*
X476365Y384000D02*
D03*
X484635D02*
D03*
X335635Y206500D02*
D03*
X327365D02*
D03*
X319865Y138500D02*
D03*
X328135D02*
D03*
X328865Y320500D02*
D03*
X337135D02*
D03*
D62*
X237500Y14500D02*
D03*
Y32610D02*
D03*
X434500Y163055D02*
D03*
Y144945D02*
D03*
X439500Y251000D02*
D03*
Y232890D02*
D03*
D63*
X329230Y58220D02*
D03*
X321000Y58200D02*
D03*
X311770Y72380D02*
D03*
X320000Y72400D02*
D03*
X292400Y72300D02*
D03*
X300630Y72320D02*
D03*
X272870Y71980D02*
D03*
X281100Y72000D02*
D03*
X292370Y54180D02*
D03*
X300600Y54200D02*
D03*
X281800Y54394D02*
D03*
X273530Y54404D02*
D03*
X324700Y18000D02*
D03*
X332970Y17990D02*
D03*
X359430Y44910D02*
D03*
X367700Y44900D02*
D03*
X316730Y320520D02*
D03*
X308500Y320500D02*
D03*
X61230Y181020D02*
D03*
X53000Y181000D02*
D03*
X61230Y195020D02*
D03*
X53000Y195000D02*
D03*
Y236980D02*
D03*
X61230Y237000D02*
D03*
X53000Y251000D02*
D03*
X61230Y251020D02*
D03*
X66270Y111780D02*
D03*
X74500Y111800D02*
D03*
X66400Y128700D02*
D03*
X74630Y128720D02*
D03*
X61230Y153020D02*
D03*
X53000Y153000D02*
D03*
X61230Y167000D02*
D03*
X53000Y166980D02*
D03*
X61230Y209020D02*
D03*
X53000Y209000D02*
D03*
X61230Y223000D02*
D03*
X53000Y222980D02*
D03*
X141230Y246020D02*
D03*
X133000Y246000D02*
D03*
X141230Y235520D02*
D03*
X133000Y235500D02*
D03*
X169770Y216490D02*
D03*
X161500Y216500D02*
D03*
X56700Y271000D02*
D03*
X64970Y270990D02*
D03*
X50000Y309500D02*
D03*
X58230Y309520D02*
D03*
X39270Y363980D02*
D03*
X47500Y364000D02*
D03*
X47270Y322490D02*
D03*
X39000Y322500D02*
D03*
X47230Y336020D02*
D03*
X39000Y336000D02*
D03*
X47230Y350020D02*
D03*
X39000Y350000D02*
D03*
X236000Y151000D02*
D03*
X227770Y150980D02*
D03*
X236730Y165020D02*
D03*
X228500Y165000D02*
D03*
X503500Y312000D02*
D03*
X511730Y312020D02*
D03*
X494500Y296500D02*
D03*
X502770Y296490D02*
D03*
X494500Y282500D02*
D03*
X502730Y282520D02*
D03*
X490270Y355480D02*
D03*
X498500Y355500D02*
D03*
X448770Y383980D02*
D03*
X457000Y384000D02*
D03*
X479230Y229510D02*
D03*
X487500Y229500D02*
D03*
X327500Y224000D02*
D03*
X335730Y224020D02*
D03*
X249270Y215990D02*
D03*
X241000Y216000D02*
D03*
Y199500D02*
D03*
X249230Y199520D02*
D03*
D64*
X217700Y30200D02*
D03*
X217720Y21970D02*
D03*
X369490Y289730D02*
D03*
X369500Y298000D02*
D03*
X337500Y290500D02*
D03*
X337510Y298770D02*
D03*
X460000Y247000D02*
D03*
X460010Y255270D02*
D03*
X37980Y294230D02*
D03*
X38000Y286000D02*
D03*
X428500Y346000D02*
D03*
X428520Y337770D02*
D03*
X411000Y346000D02*
D03*
X411020Y337770D02*
D03*
X393500Y346000D02*
D03*
X393520Y337770D02*
D03*
X376000Y346000D02*
D03*
X376020Y337770D02*
D03*
X358480Y346230D02*
D03*
X358500Y338000D02*
D03*
X507520Y244770D02*
D03*
X507500Y253000D02*
D03*
X324010Y257870D02*
D03*
X324000Y249600D02*
D03*
X338510Y257770D02*
D03*
X338500Y249500D02*
D03*
X421000Y251500D02*
D03*
X420990Y243230D02*
D03*
X319980Y160730D02*
D03*
X320000Y152500D02*
D03*
X331510Y177770D02*
D03*
X331500Y169500D02*
D03*
X347000Y178000D02*
D03*
X346990Y169730D02*
D03*
X417510Y162270D02*
D03*
X417500Y154000D02*
D03*
X467990Y124730D02*
D03*
X468000Y133000D02*
D03*
D65*
X254400Y26612D02*
D03*
Y15588D02*
D03*
D66*
X318070Y29700D02*
D03*
Y34700D02*
D03*
Y39700D02*
D03*
Y44700D02*
D03*
X339330D02*
D03*
Y39700D02*
D03*
Y34700D02*
D03*
Y29700D02*
D03*
D67*
X328700Y37200D02*
D03*
D68*
X370012Y55900D02*
D03*
X358988D02*
D03*
X454488Y319500D02*
D03*
X465512D02*
D03*
X488512Y214500D02*
D03*
X477488D02*
D03*
D69*
X360945Y103200D02*
D03*
X379055D02*
D03*
D70*
X216500Y48800D02*
D03*
X323500Y268000D02*
D03*
X451000Y372000D02*
D03*
X318000Y177500D02*
D03*
X311000Y289500D02*
D03*
D71*
X323500Y300512D02*
D03*
Y289488D02*
D03*
D72*
X348382Y290760D02*
D03*
X358618D02*
D03*
Y294500D02*
D03*
Y298240D02*
D03*
X348382D02*
D03*
D73*
X62500Y348500D02*
D03*
Y343500D02*
D03*
Y338500D02*
D03*
Y333500D02*
D03*
X83800Y348500D02*
D03*
Y343500D02*
D03*
Y338500D02*
D03*
Y333500D02*
D03*
D74*
X39231Y189079D02*
D03*
X8000Y189000D02*
D03*
X7800Y244100D02*
D03*
X39031Y244179D02*
D03*
X39231Y161079D02*
D03*
X8000Y161000D02*
D03*
X39231Y217079D02*
D03*
X8000Y217000D02*
D03*
D75*
X155103Y243000D02*
D03*
Y238000D02*
D03*
Y233000D02*
D03*
Y228000D02*
D03*
X176897Y243000D02*
D03*
Y238000D02*
D03*
Y233000D02*
D03*
Y228000D02*
D03*
D76*
X50374Y297500D02*
D03*
Y292500D02*
D03*
Y287500D02*
D03*
Y282500D02*
D03*
X71626Y297500D02*
D03*
Y292500D02*
D03*
Y287500D02*
D03*
Y282500D02*
D03*
D77*
X205445Y168740D02*
D03*
X214500Y172480D02*
D03*
Y165000D02*
D03*
D78*
X474500Y263630D02*
D03*
X479500D02*
D03*
X484500D02*
D03*
X489500D02*
D03*
Y242370D02*
D03*
X484500D02*
D03*
X479500D02*
D03*
X474500D02*
D03*
D79*
X482000Y253000D02*
D03*
D80*
X380500Y228000D02*
D03*
X382000Y143000D02*
D03*
D81*
X370500Y266991D02*
D03*
X390500D02*
D03*
X380500D02*
D03*
X372000Y181991D02*
D03*
X392000D02*
D03*
X382000D02*
D03*
D82*
X459000Y277476D02*
D03*
Y299524D02*
D03*
D83*
X254090Y60000D02*
D03*
X240310D02*
D03*
X342620Y77200D02*
D03*
X356400D02*
D03*
X466000Y348000D02*
D03*
X452220D02*
D03*
X488890Y187000D02*
D03*
X475110D02*
D03*
X257000Y131000D02*
D03*
Y121000D02*
D03*
X247000Y131000D02*
D03*
Y121000D02*
D03*
X237000Y131000D02*
D03*
Y121000D02*
D03*
X227000Y131000D02*
D03*
Y121000D02*
D03*
X217000Y131000D02*
D03*
Y121000D02*
D03*
X207000Y131000D02*
D03*
Y121000D02*
D03*
X197000Y131000D02*
D03*
Y121000D02*
D03*
X187000Y131000D02*
D03*
Y121000D02*
D03*
X177000Y131000D02*
D03*
Y121000D02*
D03*
X167000Y131000D02*
D03*
Y121000D02*
D03*
X157000Y131000D02*
D03*
Y121000D02*
D03*
X147000Y131000D02*
D03*
Y121000D02*
D03*
X137000Y131000D02*
D03*
Y121000D02*
D03*
X127000Y131000D02*
D03*
Y121000D02*
D03*
X117000Y131000D02*
D03*
X107000Y121000D02*
D03*
X97000D02*
D03*
X107000Y131000D02*
D03*
X97000D02*
D03*
X107000Y141000D02*
D03*
X97000D02*
D03*
X107000Y151000D02*
D03*
X97000D02*
D03*
X107000Y161000D02*
D03*
X97000D02*
D03*
X107000Y171000D02*
D03*
X97000D02*
D03*
X107000Y181000D02*
D03*
X97000D02*
D03*
X107000Y191000D02*
D03*
X97000D02*
D03*
X107000Y201000D02*
D03*
X97000D02*
D03*
X107000Y211000D02*
D03*
X97000D02*
D03*
X107000Y221000D02*
D03*
X97000D02*
D03*
X107000Y231000D02*
D03*
X97000D02*
D03*
X107000Y241000D02*
D03*
X97000D02*
D03*
X107000Y251000D02*
D03*
X97000D02*
D03*
X107000Y261000D02*
D03*
X97000D02*
D03*
X107000Y271000D02*
D03*
X117000Y261000D02*
D03*
Y271000D02*
D03*
X127000Y261000D02*
D03*
Y271000D02*
D03*
X137000Y261000D02*
D03*
Y271000D02*
D03*
X147000Y261000D02*
D03*
Y271000D02*
D03*
X157000Y261000D02*
D03*
Y271000D02*
D03*
X167000Y261000D02*
D03*
Y271000D02*
D03*
X177000Y261000D02*
D03*
Y271000D02*
D03*
X187000Y261000D02*
D03*
Y271000D02*
D03*
X197000Y261000D02*
D03*
Y271000D02*
D03*
X207000Y261000D02*
D03*
Y271000D02*
D03*
X217000Y261000D02*
D03*
Y271000D02*
D03*
X227000Y261000D02*
D03*
Y271000D02*
D03*
X237000Y261000D02*
D03*
Y271000D02*
D03*
X247000Y261000D02*
D03*
Y271000D02*
D03*
X257000Y261000D02*
D03*
X267000Y271000D02*
D03*
X277000D02*
D03*
X267000Y261000D02*
D03*
X277000D02*
D03*
X267000Y251000D02*
D03*
X277000D02*
D03*
X267000Y241000D02*
D03*
X277000D02*
D03*
X267000Y231000D02*
D03*
X277000D02*
D03*
X267000Y221000D02*
D03*
X277000D02*
D03*
X267000Y211000D02*
D03*
X277000D02*
D03*
X267000Y201000D02*
D03*
X277000D02*
D03*
X267000Y191000D02*
D03*
X277000D02*
D03*
X267000Y181000D02*
D03*
X277000D02*
D03*
X267000Y171000D02*
D03*
X277000D02*
D03*
X267000Y161000D02*
D03*
X277000D02*
D03*
X267000Y151000D02*
D03*
X277000D02*
D03*
X267000Y141000D02*
D03*
X277000D02*
D03*
X267000Y131000D02*
D03*
X277000D02*
D03*
X267000Y121000D02*
D03*
D84*
X203000Y94000D02*
D03*
X165500D02*
D03*
X126000Y373000D02*
D03*
X46000Y383500D02*
D03*
D85*
X193000Y94000D02*
D03*
X155500D02*
D03*
X116000Y373000D02*
D03*
X36000Y383500D02*
D03*
D86*
X50000Y70000D02*
D03*
X60000D02*
D03*
X70000D02*
D03*
X80000D02*
D03*
X90000D02*
D03*
X100000D02*
D03*
X110000D02*
D03*
X120000D02*
D03*
X209000Y307500D02*
D03*
X219000D02*
D03*
X229000D02*
D03*
X239000D02*
D03*
X96500Y307000D02*
D03*
X106500D02*
D03*
X116500D02*
D03*
X126500D02*
D03*
X136500D02*
D03*
X146500D02*
D03*
X156500D02*
D03*
X166500D02*
D03*
X195000Y69000D02*
D03*
X185000D02*
D03*
X175000D02*
D03*
X165000D02*
D03*
X338500Y357000D02*
D03*
Y367000D02*
D03*
Y377000D02*
D03*
X320500Y357000D02*
D03*
Y367000D02*
D03*
Y377000D02*
D03*
X302500Y357000D02*
D03*
Y367000D02*
D03*
Y377000D02*
D03*
X248500Y357000D02*
D03*
Y367000D02*
D03*
Y377000D02*
D03*
X266500Y357000D02*
D03*
Y367000D02*
D03*
Y377000D02*
D03*
X284500Y357000D02*
D03*
Y367000D02*
D03*
Y377000D02*
D03*
X15500Y69000D02*
D03*
Y79000D02*
D03*
Y89000D02*
D03*
Y99000D02*
D03*
Y109000D02*
D03*
Y119000D02*
D03*
Y129000D02*
D03*
Y139000D02*
D03*
X97500Y373000D02*
D03*
X87500D02*
D03*
X77500D02*
D03*
X67500D02*
D03*
X498500Y331500D02*
D03*
X508500D02*
D03*
X488500D02*
D03*
X428500Y382000D02*
D03*
Y372000D02*
D03*
Y362000D02*
D03*
X411000Y382000D02*
D03*
Y372000D02*
D03*
Y362000D02*
D03*
X393500Y382000D02*
D03*
Y372000D02*
D03*
Y362000D02*
D03*
X376000Y382000D02*
D03*
Y372000D02*
D03*
Y362000D02*
D03*
X358681Y382000D02*
D03*
Y372000D02*
D03*
Y362000D02*
D03*
X202315Y199000D02*
D03*
X222000D02*
D03*
D87*
X388500Y24000D02*
D03*
X408185D02*
D03*
D88*
X448567Y24500D02*
D03*
X469433D02*
D03*
D89*
X103764Y335921D02*
D03*
Y345921D02*
D03*
X113764Y335921D02*
D03*
Y345921D02*
D03*
X123764Y335921D02*
D03*
D90*
Y345921D02*
D03*
D91*
X202700Y46400D02*
D03*
D92*
Y36400D02*
D03*
X192700Y46400D02*
D03*
Y36400D02*
D03*
X182700Y46400D02*
D03*
Y36400D02*
D03*
X172700Y46400D02*
D03*
Y36400D02*
D03*
X162700Y46400D02*
D03*
Y36400D02*
D03*
X152700Y46400D02*
D03*
Y36400D02*
D03*
X142700Y46400D02*
D03*
Y36400D02*
D03*
X132700Y46400D02*
D03*
Y36400D02*
D03*
X122700Y46400D02*
D03*
Y36400D02*
D03*
X112700Y46400D02*
D03*
Y36400D02*
D03*
X102700Y46400D02*
D03*
Y36400D02*
D03*
X92700Y46400D02*
D03*
Y36400D02*
D03*
X82700Y46400D02*
D03*
Y36400D02*
D03*
X72700Y46400D02*
D03*
Y36400D02*
D03*
X62700Y46400D02*
D03*
Y36400D02*
D03*
X52700Y46400D02*
D03*
Y36400D02*
D03*
X42700Y46400D02*
D03*
Y36400D02*
D03*
X32700Y46400D02*
D03*
Y36400D02*
D03*
X22700Y46400D02*
D03*
Y36400D02*
D03*
X12700Y46400D02*
D03*
Y36400D02*
D03*
D93*
X200000Y364500D02*
D03*
X148500D02*
D03*
D94*
X200000Y374500D02*
D03*
X210000Y364500D02*
D03*
Y374500D02*
D03*
X220000Y364500D02*
D03*
Y374500D02*
D03*
X230000D02*
D03*
Y364500D02*
D03*
X148500Y374500D02*
D03*
X158500Y364500D02*
D03*
Y374500D02*
D03*
X168500Y364500D02*
D03*
Y374500D02*
D03*
X178500D02*
D03*
Y364500D02*
D03*
D95*
X12000Y299185D02*
D03*
Y279500D02*
D03*
Y354685D02*
D03*
Y335000D02*
D03*
D96*
X117000Y121000D02*
D03*
X257000Y271000D02*
D03*
D97*
X97000D02*
D03*
X277000Y121000D02*
D03*
D98*
X467092Y73001D02*
D03*
X491500Y73000D02*
D03*
D99*
X478901Y91505D02*
D03*
D100*
X10500Y383000D02*
D03*
Y11000D02*
D03*
X511500D02*
D03*
Y383000D02*
D03*
D101*
X493500Y153398D02*
D03*
Y134500D02*
D03*
Y115602D02*
D03*
D102*
X312350Y34750D02*
D03*
X331700Y32800D02*
D03*
X326800Y32900D02*
D03*
X331100Y37200D02*
D03*
X326800Y37100D02*
D03*
X330800Y41500D02*
D03*
X326000D02*
D03*
X487100Y250600D02*
D03*
X487000Y255500D02*
D03*
X483000Y251000D02*
D03*
Y255000D02*
D03*
X477700Y251700D02*
D03*
Y256100D02*
D03*
X367000Y159700D02*
D03*
X375400Y159900D02*
D03*
X367000Y152800D02*
D03*
X375200D02*
D03*
X366900Y146000D02*
D03*
X375600Y145800D02*
D03*
X396000Y146000D02*
D03*
X387300Y146200D02*
D03*
X395600Y153000D02*
D03*
X387400D02*
D03*
X395800Y160100D02*
D03*
X387400Y159900D02*
D03*
Y140600D02*
D03*
X395800Y140800D02*
D03*
X387400Y133700D02*
D03*
X395600D02*
D03*
X387300Y126900D02*
D03*
X396000Y126700D02*
D03*
X375600Y126500D02*
D03*
X366900Y126700D02*
D03*
X375200Y133500D02*
D03*
X367000D02*
D03*
X375400Y140600D02*
D03*
X367000Y140400D02*
D03*
X366100Y225400D02*
D03*
X374500Y225600D02*
D03*
X366100Y218500D02*
D03*
X374300D02*
D03*
X366000Y211700D02*
D03*
X374700Y211500D02*
D03*
X395100Y211700D02*
D03*
X386400Y211900D02*
D03*
X394700Y218700D02*
D03*
X386500D02*
D03*
X394900Y225800D02*
D03*
X386500Y225600D02*
D03*
Y244900D02*
D03*
X394900Y245100D02*
D03*
X386500Y238000D02*
D03*
X394700D02*
D03*
X386400Y231200D02*
D03*
X395100Y231000D02*
D03*
X374700Y230800D02*
D03*
X366000Y231000D02*
D03*
X374300Y237800D02*
D03*
X366100D02*
D03*
X374500Y244900D02*
D03*
X366100Y244700D02*
D03*
M02*
