G04*
G04 #@! TF.GenerationSoftware,Altium Limited,Altium Designer,20.0.13 (296)*
G04*
G04 Layer_Color=8388736*
%FSLAX25Y25*%
%MOIN*%
G70*
G01*
G75*
%ADD134C,0.00197*%
%ADD135C,0.00394*%
%ADD136C,0.00100*%
D134*
X286586Y26300D02*
G03*
X286586Y26300I-886J0D01*
G01*
X238386Y23555D02*
G03*
X238386Y23555I-886J0D01*
G01*
X255286Y21100D02*
G03*
X255286Y21100I-886J0D01*
G01*
X330078Y37200D02*
G03*
X330078Y37200I-1378J0D01*
G01*
X365386Y55900D02*
G03*
X365386Y55900I-886J0D01*
G01*
X370886Y103200D02*
G03*
X370886Y103200I-886J0D01*
G01*
X460886Y319500D02*
G03*
X460886Y319500I-886J0D01*
G01*
X500468Y331500D02*
G03*
X500468Y331500I-1969J0D01*
G01*
X483378Y253000D02*
G03*
X483378Y253000I-1378J0D01*
G01*
X483886Y214500D02*
G03*
X483886Y214500I-886J0D01*
G01*
X435386Y154000D02*
G03*
X435386Y154000I-886J0D01*
G01*
X440386Y241945D02*
G03*
X440386Y241945I-886J0D01*
G01*
X459886Y288500D02*
G03*
X459886Y288500I-886J0D01*
G01*
X283928Y26300D02*
X287472D01*
X285700Y24528D02*
Y28072D01*
X235728Y23555D02*
X239272D01*
X237500Y21783D02*
Y25327D01*
X254400Y19328D02*
Y22872D01*
X252628Y21100D02*
X256172D01*
X326731Y37200D02*
X330668D01*
X328700Y35231D02*
Y39168D01*
X362728Y55900D02*
X366272D01*
X364500Y54128D02*
Y57672D01*
X368228Y103200D02*
X371772D01*
X370000Y101428D02*
Y104972D01*
X460000Y317728D02*
Y321272D01*
X458228Y319500D02*
X461772D01*
X498500Y327563D02*
Y335437D01*
X494563Y331500D02*
X502437D01*
X482000Y251032D02*
Y254969D01*
X480031Y253000D02*
X483968D01*
X481228Y214500D02*
X484772D01*
X483000Y212728D02*
Y216272D01*
X434500Y152228D02*
Y155772D01*
X432728Y154000D02*
X436272D01*
X439500Y240173D02*
Y243717D01*
X437728Y241945D02*
X441272D01*
X457228Y288500D02*
X460772D01*
X459000Y286728D02*
Y290272D01*
D135*
X86969Y70000D02*
G03*
X86969Y70000I-1969J0D01*
G01*
X400311Y24000D02*
G03*
X400311Y24000I-1969J0D01*
G01*
X460968Y24500D02*
G03*
X460968Y24500I-1969J0D01*
G01*
X324386Y295000D02*
G03*
X324386Y295000I-886J0D01*
G01*
X225969Y307500D02*
G03*
X225969Y307500I-1969J0D01*
G01*
X133469Y307000D02*
G03*
X133469Y307000I-1969J0D01*
G01*
X181968Y69000D02*
G03*
X181968Y69000I-1969J0D01*
G01*
X340469Y367000D02*
G03*
X340469Y367000I-1969J0D01*
G01*
X322468D02*
G03*
X322468Y367000I-1969J0D01*
G01*
X304468D02*
G03*
X304468Y367000I-1969J0D01*
G01*
X250468D02*
G03*
X250468Y367000I-1969J0D01*
G01*
X268468D02*
G03*
X268468Y367000I-1969J0D01*
G01*
X286469D02*
G03*
X286469Y367000I-1969J0D01*
G01*
X17469Y104000D02*
G03*
X17469Y104000I-1969J0D01*
G01*
X13969Y289342D02*
G03*
X13969Y289342I-1969J0D01*
G01*
X84469Y373000D02*
G03*
X84469Y373000I-1969J0D01*
G01*
X13969Y344843D02*
G03*
X13969Y344843I-1969J0D01*
G01*
X430469Y372000D02*
G03*
X430469Y372000I-1969J0D01*
G01*
X412968D02*
G03*
X412968Y372000I-1969J0D01*
G01*
X395468D02*
G03*
X395468Y372000I-1969J0D01*
G01*
X377969D02*
G03*
X377969Y372000I-1969J0D01*
G01*
X360650D02*
G03*
X360650Y372000I-1969J0D01*
G01*
X213260Y199000D02*
G03*
X213260Y199000I-1102J0D01*
G01*
X495469Y134500D02*
G03*
X495469Y134500I-1969J0D01*
G01*
X81063Y70000D02*
X88937D01*
X85000Y66063D02*
Y73937D01*
X394406Y24000D02*
X402280D01*
X398342Y20063D02*
Y27937D01*
X459000Y20563D02*
Y28437D01*
X455063Y24500D02*
X462937D01*
X323500Y293228D02*
Y296772D01*
X321728Y295000D02*
X325272D01*
X220063Y307500D02*
X227937D01*
X224000Y303563D02*
Y311437D01*
X127563Y307000D02*
X135437D01*
X131500Y303063D02*
Y310937D01*
X176063Y69000D02*
X183937D01*
X180000Y65063D02*
Y72937D01*
X338500Y363063D02*
Y370937D01*
X334563Y367000D02*
X342437D01*
X320500Y363063D02*
Y370937D01*
X316563Y367000D02*
X324437D01*
X302500Y363063D02*
Y370937D01*
X298563Y367000D02*
X306437D01*
X248500Y363063D02*
Y370937D01*
X244563Y367000D02*
X252437D01*
X266500Y363063D02*
Y370937D01*
X262563Y367000D02*
X270437D01*
X284500Y363063D02*
Y370937D01*
X280563Y367000D02*
X288437D01*
X15500Y100063D02*
Y107937D01*
X11563Y104000D02*
X19437D01*
X12000Y285405D02*
Y293280D01*
X8063Y289342D02*
X15937D01*
X78563Y373000D02*
X86437D01*
X82500Y369063D02*
Y376937D01*
X12000Y340905D02*
Y348780D01*
X8063Y344843D02*
X15937D01*
X424563Y372000D02*
X432437D01*
X428500Y368063D02*
Y375937D01*
X407063Y372000D02*
X414937D01*
X411000Y368063D02*
Y375937D01*
X389563Y372000D02*
X397437D01*
X393500Y368063D02*
Y375937D01*
X372063Y372000D02*
X379937D01*
X376000Y368063D02*
Y375937D01*
X354744Y372000D02*
X362618D01*
X358681Y368063D02*
Y375937D01*
X212157Y197031D02*
Y200968D01*
X210189Y199000D02*
X214126D01*
X489563Y134500D02*
X497437D01*
X493500Y130563D02*
Y138437D01*
D136*
X354386Y294500D02*
G03*
X354386Y294500I-886J0D01*
G01*
X210858Y168740D02*
G03*
X210858Y168740I-886J0D01*
G01*
X351728Y294500D02*
X355272D01*
X353500Y292728D02*
Y296272D01*
X208201Y168740D02*
X211744D01*
X209972Y166969D02*
Y170512D01*
M02*
